<?xml version="1.0" encoding="utf-8" standalone="no"?>
<!DOCTYPE svg PUBLIC "-//W3C//DTD SVG 1.1//EN"
  "http://www.w3.org/Graphics/SVG/1.1/DTD/svg11.dtd">
<!-- Created with matplotlib (https://matplotlib.org/) -->
<svg height="345.6pt" version="1.1" viewBox="0 0 460.8 345.6" width="460.8pt" xmlns="http://www.w3.org/2000/svg" xmlns:xlink="http://www.w3.org/1999/xlink">
 <defs>
  <style type="text/css">
*{stroke-linecap:butt;stroke-linejoin:round;}
  </style>
 </defs>
 <g id="figure_1">
  <g id="patch_1">
   <path d="M 0 345.6 
L 460.8 345.6 
L 460.8 0 
L 0 0 
z
" style="fill:#ffffff;"/>
  </g>
  <g id="axes_1">
   <g id="patch_2">
    <path d="M 57.6 307.584 
L 414.72 307.584 
L 414.72 41.472 
L 57.6 41.472 
z
" style="fill:#ffffff;"/>
   </g>
   <g id="matplotlib.axis_1">
    <g id="xtick_1">
     <g id="line2d_1">
      <defs>
       <path d="M 0 0 
L 0 3.5 
" id="mba4f1fa4a9" style="stroke:#000000;stroke-width:0.8;"/>
      </defs>
      <g>
       <use style="stroke:#000000;stroke-width:0.8;" x="73.832727" xlink:href="#mba4f1fa4a9" y="307.584"/>
      </g>
     </g>
     <g id="text_1">
      <!-- 0 -->
      <defs>
       <path d="M 31.78125 66.40625 
Q 24.171875 66.40625 20.328125 58.90625 
Q 16.5 51.421875 16.5 36.375 
Q 16.5 21.390625 20.328125 13.890625 
Q 24.171875 6.390625 31.78125 6.390625 
Q 39.453125 6.390625 43.28125 13.890625 
Q 47.125 21.390625 47.125 36.375 
Q 47.125 51.421875 43.28125 58.90625 
Q 39.453125 66.40625 31.78125 66.40625 
z
M 31.78125 74.21875 
Q 44.046875 74.21875 50.515625 64.515625 
Q 56.984375 54.828125 56.984375 36.375 
Q 56.984375 17.96875 50.515625 8.265625 
Q 44.046875 -1.421875 31.78125 -1.421875 
Q 19.53125 -1.421875 13.0625 8.265625 
Q 6.59375 17.96875 6.59375 36.375 
Q 6.59375 54.828125 13.0625 64.515625 
Q 19.53125 74.21875 31.78125 74.21875 
z
" id="DejaVuSans-48"/>
      </defs>
      <g transform="translate(70.651477 322.182437)scale(0.1 -0.1)">
       <use xlink:href="#DejaVuSans-48"/>
      </g>
     </g>
    </g>
    <g id="xtick_2">
     <g id="line2d_2">
      <g>
       <use style="stroke:#000000;stroke-width:0.8;" x="113.765636" xlink:href="#mba4f1fa4a9" y="307.584"/>
      </g>
     </g>
     <g id="text_2">
      <!-- 100 -->
      <defs>
       <path d="M 12.40625 8.296875 
L 28.515625 8.296875 
L 28.515625 63.921875 
L 10.984375 60.40625 
L 10.984375 69.390625 
L 28.421875 72.90625 
L 38.28125 72.90625 
L 38.28125 8.296875 
L 54.390625 8.296875 
L 54.390625 0 
L 12.40625 0 
z
" id="DejaVuSans-49"/>
      </defs>
      <g transform="translate(104.221886 322.182437)scale(0.1 -0.1)">
       <use xlink:href="#DejaVuSans-49"/>
       <use x="63.623047" xlink:href="#DejaVuSans-48"/>
       <use x="127.246094" xlink:href="#DejaVuSans-48"/>
      </g>
     </g>
    </g>
    <g id="xtick_3">
     <g id="line2d_3">
      <g>
       <use style="stroke:#000000;stroke-width:0.8;" x="153.698544" xlink:href="#mba4f1fa4a9" y="307.584"/>
      </g>
     </g>
     <g id="text_3">
      <!-- 200 -->
      <defs>
       <path d="M 19.1875 8.296875 
L 53.609375 8.296875 
L 53.609375 0 
L 7.328125 0 
L 7.328125 8.296875 
Q 12.9375 14.109375 22.625 23.890625 
Q 32.328125 33.6875 34.8125 36.53125 
Q 39.546875 41.84375 41.421875 45.53125 
Q 43.3125 49.21875 43.3125 52.78125 
Q 43.3125 58.59375 39.234375 62.25 
Q 35.15625 65.921875 28.609375 65.921875 
Q 23.96875 65.921875 18.8125 64.3125 
Q 13.671875 62.703125 7.8125 59.421875 
L 7.8125 69.390625 
Q 13.765625 71.78125 18.9375 73 
Q 24.125 74.21875 28.421875 74.21875 
Q 39.75 74.21875 46.484375 68.546875 
Q 53.21875 62.890625 53.21875 53.421875 
Q 53.21875 48.921875 51.53125 44.890625 
Q 49.859375 40.875 45.40625 35.40625 
Q 44.1875 33.984375 37.640625 27.21875 
Q 31.109375 20.453125 19.1875 8.296875 
z
" id="DejaVuSans-50"/>
      </defs>
      <g transform="translate(144.154794 322.182437)scale(0.1 -0.1)">
       <use xlink:href="#DejaVuSans-50"/>
       <use x="63.623047" xlink:href="#DejaVuSans-48"/>
       <use x="127.246094" xlink:href="#DejaVuSans-48"/>
      </g>
     </g>
    </g>
    <g id="xtick_4">
     <g id="line2d_4">
      <g>
       <use style="stroke:#000000;stroke-width:0.8;" x="193.631453" xlink:href="#mba4f1fa4a9" y="307.584"/>
      </g>
     </g>
     <g id="text_4">
      <!-- 300 -->
      <defs>
       <path d="M 40.578125 39.3125 
Q 47.65625 37.796875 51.625 33 
Q 55.609375 28.21875 55.609375 21.1875 
Q 55.609375 10.40625 48.1875 4.484375 
Q 40.765625 -1.421875 27.09375 -1.421875 
Q 22.515625 -1.421875 17.65625 -0.515625 
Q 12.796875 0.390625 7.625 2.203125 
L 7.625 11.71875 
Q 11.71875 9.328125 16.59375 8.109375 
Q 21.484375 6.890625 26.8125 6.890625 
Q 36.078125 6.890625 40.9375 10.546875 
Q 45.796875 14.203125 45.796875 21.1875 
Q 45.796875 27.640625 41.28125 31.265625 
Q 36.765625 34.90625 28.71875 34.90625 
L 20.21875 34.90625 
L 20.21875 43.015625 
L 29.109375 43.015625 
Q 36.375 43.015625 40.234375 45.921875 
Q 44.09375 48.828125 44.09375 54.296875 
Q 44.09375 59.90625 40.109375 62.90625 
Q 36.140625 65.921875 28.71875 65.921875 
Q 24.65625 65.921875 20.015625 65.03125 
Q 15.375 64.15625 9.8125 62.3125 
L 9.8125 71.09375 
Q 15.4375 72.65625 20.34375 73.4375 
Q 25.25 74.21875 29.59375 74.21875 
Q 40.828125 74.21875 47.359375 69.109375 
Q 53.90625 64.015625 53.90625 55.328125 
Q 53.90625 49.265625 50.4375 45.09375 
Q 46.96875 40.921875 40.578125 39.3125 
z
" id="DejaVuSans-51"/>
      </defs>
      <g transform="translate(184.087703 322.182437)scale(0.1 -0.1)">
       <use xlink:href="#DejaVuSans-51"/>
       <use x="63.623047" xlink:href="#DejaVuSans-48"/>
       <use x="127.246094" xlink:href="#DejaVuSans-48"/>
      </g>
     </g>
    </g>
    <g id="xtick_5">
     <g id="line2d_5">
      <g>
       <use style="stroke:#000000;stroke-width:0.8;" x="233.564361" xlink:href="#mba4f1fa4a9" y="307.584"/>
      </g>
     </g>
     <g id="text_5">
      <!-- 400 -->
      <defs>
       <path d="M 37.796875 64.3125 
L 12.890625 25.390625 
L 37.796875 25.390625 
z
M 35.203125 72.90625 
L 47.609375 72.90625 
L 47.609375 25.390625 
L 58.015625 25.390625 
L 58.015625 17.1875 
L 47.609375 17.1875 
L 47.609375 0 
L 37.796875 0 
L 37.796875 17.1875 
L 4.890625 17.1875 
L 4.890625 26.703125 
z
" id="DejaVuSans-52"/>
      </defs>
      <g transform="translate(224.020611 322.182437)scale(0.1 -0.1)">
       <use xlink:href="#DejaVuSans-52"/>
       <use x="63.623047" xlink:href="#DejaVuSans-48"/>
       <use x="127.246094" xlink:href="#DejaVuSans-48"/>
      </g>
     </g>
    </g>
    <g id="xtick_6">
     <g id="line2d_6">
      <g>
       <use style="stroke:#000000;stroke-width:0.8;" x="273.497269" xlink:href="#mba4f1fa4a9" y="307.584"/>
      </g>
     </g>
     <g id="text_6">
      <!-- 500 -->
      <defs>
       <path d="M 10.796875 72.90625 
L 49.515625 72.90625 
L 49.515625 64.59375 
L 19.828125 64.59375 
L 19.828125 46.734375 
Q 21.96875 47.46875 24.109375 47.828125 
Q 26.265625 48.1875 28.421875 48.1875 
Q 40.625 48.1875 47.75 41.5 
Q 54.890625 34.8125 54.890625 23.390625 
Q 54.890625 11.625 47.5625 5.09375 
Q 40.234375 -1.421875 26.90625 -1.421875 
Q 22.3125 -1.421875 17.546875 -0.640625 
Q 12.796875 0.140625 7.71875 1.703125 
L 7.71875 11.625 
Q 12.109375 9.234375 16.796875 8.0625 
Q 21.484375 6.890625 26.703125 6.890625 
Q 35.15625 6.890625 40.078125 11.328125 
Q 45.015625 15.765625 45.015625 23.390625 
Q 45.015625 31 40.078125 35.4375 
Q 35.15625 39.890625 26.703125 39.890625 
Q 22.75 39.890625 18.8125 39.015625 
Q 14.890625 38.140625 10.796875 36.28125 
z
" id="DejaVuSans-53"/>
      </defs>
      <g transform="translate(263.953519 322.182437)scale(0.1 -0.1)">
       <use xlink:href="#DejaVuSans-53"/>
       <use x="63.623047" xlink:href="#DejaVuSans-48"/>
       <use x="127.246094" xlink:href="#DejaVuSans-48"/>
      </g>
     </g>
    </g>
    <g id="xtick_7">
     <g id="line2d_7">
      <g>
       <use style="stroke:#000000;stroke-width:0.8;" x="313.430178" xlink:href="#mba4f1fa4a9" y="307.584"/>
      </g>
     </g>
     <g id="text_7">
      <!-- 600 -->
      <defs>
       <path d="M 33.015625 40.375 
Q 26.375 40.375 22.484375 35.828125 
Q 18.609375 31.296875 18.609375 23.390625 
Q 18.609375 15.53125 22.484375 10.953125 
Q 26.375 6.390625 33.015625 6.390625 
Q 39.65625 6.390625 43.53125 10.953125 
Q 47.40625 15.53125 47.40625 23.390625 
Q 47.40625 31.296875 43.53125 35.828125 
Q 39.65625 40.375 33.015625 40.375 
z
M 52.59375 71.296875 
L 52.59375 62.3125 
Q 48.875 64.0625 45.09375 64.984375 
Q 41.3125 65.921875 37.59375 65.921875 
Q 27.828125 65.921875 22.671875 59.328125 
Q 17.53125 52.734375 16.796875 39.40625 
Q 19.671875 43.65625 24.015625 45.921875 
Q 28.375 48.1875 33.59375 48.1875 
Q 44.578125 48.1875 50.953125 41.515625 
Q 57.328125 34.859375 57.328125 23.390625 
Q 57.328125 12.15625 50.6875 5.359375 
Q 44.046875 -1.421875 33.015625 -1.421875 
Q 20.359375 -1.421875 13.671875 8.265625 
Q 6.984375 17.96875 6.984375 36.375 
Q 6.984375 53.65625 15.1875 63.9375 
Q 23.390625 74.21875 37.203125 74.21875 
Q 40.921875 74.21875 44.703125 73.484375 
Q 48.484375 72.75 52.59375 71.296875 
z
" id="DejaVuSans-54"/>
      </defs>
      <g transform="translate(303.886428 322.182437)scale(0.1 -0.1)">
       <use xlink:href="#DejaVuSans-54"/>
       <use x="63.623047" xlink:href="#DejaVuSans-48"/>
       <use x="127.246094" xlink:href="#DejaVuSans-48"/>
      </g>
     </g>
    </g>
    <g id="xtick_8">
     <g id="line2d_8">
      <g>
       <use style="stroke:#000000;stroke-width:0.8;" x="353.363086" xlink:href="#mba4f1fa4a9" y="307.584"/>
      </g>
     </g>
     <g id="text_8">
      <!-- 700 -->
      <defs>
       <path d="M 8.203125 72.90625 
L 55.078125 72.90625 
L 55.078125 68.703125 
L 28.609375 0 
L 18.3125 0 
L 43.21875 64.59375 
L 8.203125 64.59375 
z
" id="DejaVuSans-55"/>
      </defs>
      <g transform="translate(343.819336 322.182437)scale(0.1 -0.1)">
       <use xlink:href="#DejaVuSans-55"/>
       <use x="63.623047" xlink:href="#DejaVuSans-48"/>
       <use x="127.246094" xlink:href="#DejaVuSans-48"/>
      </g>
     </g>
    </g>
    <g id="xtick_9">
     <g id="line2d_9">
      <g>
       <use style="stroke:#000000;stroke-width:0.8;" x="393.295995" xlink:href="#mba4f1fa4a9" y="307.584"/>
      </g>
     </g>
     <g id="text_9">
      <!-- 800 -->
      <defs>
       <path d="M 31.78125 34.625 
Q 24.75 34.625 20.71875 30.859375 
Q 16.703125 27.09375 16.703125 20.515625 
Q 16.703125 13.921875 20.71875 10.15625 
Q 24.75 6.390625 31.78125 6.390625 
Q 38.8125 6.390625 42.859375 10.171875 
Q 46.921875 13.96875 46.921875 20.515625 
Q 46.921875 27.09375 42.890625 30.859375 
Q 38.875 34.625 31.78125 34.625 
z
M 21.921875 38.8125 
Q 15.578125 40.375 12.03125 44.71875 
Q 8.5 49.078125 8.5 55.328125 
Q 8.5 64.0625 14.71875 69.140625 
Q 20.953125 74.21875 31.78125 74.21875 
Q 42.671875 74.21875 48.875 69.140625 
Q 55.078125 64.0625 55.078125 55.328125 
Q 55.078125 49.078125 51.53125 44.71875 
Q 48 40.375 41.703125 38.8125 
Q 48.828125 37.15625 52.796875 32.3125 
Q 56.78125 27.484375 56.78125 20.515625 
Q 56.78125 9.90625 50.3125 4.234375 
Q 43.84375 -1.421875 31.78125 -1.421875 
Q 19.734375 -1.421875 13.25 4.234375 
Q 6.78125 9.90625 6.78125 20.515625 
Q 6.78125 27.484375 10.78125 32.3125 
Q 14.796875 37.15625 21.921875 38.8125 
z
M 18.3125 54.390625 
Q 18.3125 48.734375 21.84375 45.5625 
Q 25.390625 42.390625 31.78125 42.390625 
Q 38.140625 42.390625 41.71875 45.5625 
Q 45.3125 48.734375 45.3125 54.390625 
Q 45.3125 60.0625 41.71875 63.234375 
Q 38.140625 66.40625 31.78125 66.40625 
Q 25.390625 66.40625 21.84375 63.234375 
Q 18.3125 60.0625 18.3125 54.390625 
z
" id="DejaVuSans-56"/>
      </defs>
      <g transform="translate(383.752245 322.182437)scale(0.1 -0.1)">
       <use xlink:href="#DejaVuSans-56"/>
       <use x="63.623047" xlink:href="#DejaVuSans-48"/>
       <use x="127.246094" xlink:href="#DejaVuSans-48"/>
      </g>
     </g>
    </g>
    <g id="text_10">
     <!-- gene position -->
     <defs>
      <path d="M 45.40625 27.984375 
Q 45.40625 37.75 41.375 43.109375 
Q 37.359375 48.484375 30.078125 48.484375 
Q 22.859375 48.484375 18.828125 43.109375 
Q 14.796875 37.75 14.796875 27.984375 
Q 14.796875 18.265625 18.828125 12.890625 
Q 22.859375 7.515625 30.078125 7.515625 
Q 37.359375 7.515625 41.375 12.890625 
Q 45.40625 18.265625 45.40625 27.984375 
z
M 54.390625 6.78125 
Q 54.390625 -7.171875 48.1875 -13.984375 
Q 42 -20.796875 29.203125 -20.796875 
Q 24.46875 -20.796875 20.265625 -20.09375 
Q 16.0625 -19.390625 12.109375 -17.921875 
L 12.109375 -9.1875 
Q 16.0625 -11.328125 19.921875 -12.34375 
Q 23.78125 -13.375 27.78125 -13.375 
Q 36.625 -13.375 41.015625 -8.765625 
Q 45.40625 -4.15625 45.40625 5.171875 
L 45.40625 9.625 
Q 42.625 4.78125 38.28125 2.390625 
Q 33.9375 0 27.875 0 
Q 17.828125 0 11.671875 7.65625 
Q 5.515625 15.328125 5.515625 27.984375 
Q 5.515625 40.671875 11.671875 48.328125 
Q 17.828125 56 27.875 56 
Q 33.9375 56 38.28125 53.609375 
Q 42.625 51.21875 45.40625 46.390625 
L 45.40625 54.6875 
L 54.390625 54.6875 
z
" id="DejaVuSans-103"/>
      <path d="M 56.203125 29.59375 
L 56.203125 25.203125 
L 14.890625 25.203125 
Q 15.484375 15.921875 20.484375 11.0625 
Q 25.484375 6.203125 34.421875 6.203125 
Q 39.59375 6.203125 44.453125 7.46875 
Q 49.3125 8.734375 54.109375 11.28125 
L 54.109375 2.78125 
Q 49.265625 0.734375 44.1875 -0.34375 
Q 39.109375 -1.421875 33.890625 -1.421875 
Q 20.796875 -1.421875 13.15625 6.1875 
Q 5.515625 13.8125 5.515625 26.8125 
Q 5.515625 40.234375 12.765625 48.109375 
Q 20.015625 56 32.328125 56 
Q 43.359375 56 49.78125 48.890625 
Q 56.203125 41.796875 56.203125 29.59375 
z
M 47.21875 32.234375 
Q 47.125 39.59375 43.09375 43.984375 
Q 39.0625 48.390625 32.421875 48.390625 
Q 24.90625 48.390625 20.390625 44.140625 
Q 15.875 39.890625 15.1875 32.171875 
z
" id="DejaVuSans-101"/>
      <path d="M 54.890625 33.015625 
L 54.890625 0 
L 45.90625 0 
L 45.90625 32.71875 
Q 45.90625 40.484375 42.875 44.328125 
Q 39.84375 48.1875 33.796875 48.1875 
Q 26.515625 48.1875 22.3125 43.546875 
Q 18.109375 38.921875 18.109375 30.90625 
L 18.109375 0 
L 9.078125 0 
L 9.078125 54.6875 
L 18.109375 54.6875 
L 18.109375 46.1875 
Q 21.34375 51.125 25.703125 53.5625 
Q 30.078125 56 35.796875 56 
Q 45.21875 56 50.046875 50.171875 
Q 54.890625 44.34375 54.890625 33.015625 
z
" id="DejaVuSans-110"/>
      <path id="DejaVuSans-32"/>
      <path d="M 18.109375 8.203125 
L 18.109375 -20.796875 
L 9.078125 -20.796875 
L 9.078125 54.6875 
L 18.109375 54.6875 
L 18.109375 46.390625 
Q 20.953125 51.265625 25.265625 53.625 
Q 29.59375 56 35.59375 56 
Q 45.5625 56 51.78125 48.09375 
Q 58.015625 40.1875 58.015625 27.296875 
Q 58.015625 14.40625 51.78125 6.484375 
Q 45.5625 -1.421875 35.59375 -1.421875 
Q 29.59375 -1.421875 25.265625 0.953125 
Q 20.953125 3.328125 18.109375 8.203125 
z
M 48.6875 27.296875 
Q 48.6875 37.203125 44.609375 42.84375 
Q 40.53125 48.484375 33.40625 48.484375 
Q 26.265625 48.484375 22.1875 42.84375 
Q 18.109375 37.203125 18.109375 27.296875 
Q 18.109375 17.390625 22.1875 11.75 
Q 26.265625 6.109375 33.40625 6.109375 
Q 40.53125 6.109375 44.609375 11.75 
Q 48.6875 17.390625 48.6875 27.296875 
z
" id="DejaVuSans-112"/>
      <path d="M 30.609375 48.390625 
Q 23.390625 48.390625 19.1875 42.75 
Q 14.984375 37.109375 14.984375 27.296875 
Q 14.984375 17.484375 19.15625 11.84375 
Q 23.34375 6.203125 30.609375 6.203125 
Q 37.796875 6.203125 41.984375 11.859375 
Q 46.1875 17.53125 46.1875 27.296875 
Q 46.1875 37.015625 41.984375 42.703125 
Q 37.796875 48.390625 30.609375 48.390625 
z
M 30.609375 56 
Q 42.328125 56 49.015625 48.375 
Q 55.71875 40.765625 55.71875 27.296875 
Q 55.71875 13.875 49.015625 6.21875 
Q 42.328125 -1.421875 30.609375 -1.421875 
Q 18.84375 -1.421875 12.171875 6.21875 
Q 5.515625 13.875 5.515625 27.296875 
Q 5.515625 40.765625 12.171875 48.375 
Q 18.84375 56 30.609375 56 
z
" id="DejaVuSans-111"/>
      <path d="M 44.28125 53.078125 
L 44.28125 44.578125 
Q 40.484375 46.53125 36.375 47.5 
Q 32.28125 48.484375 27.875 48.484375 
Q 21.1875 48.484375 17.84375 46.4375 
Q 14.5 44.390625 14.5 40.28125 
Q 14.5 37.15625 16.890625 35.375 
Q 19.28125 33.59375 26.515625 31.984375 
L 29.59375 31.296875 
Q 39.15625 29.25 43.1875 25.515625 
Q 47.21875 21.78125 47.21875 15.09375 
Q 47.21875 7.46875 41.1875 3.015625 
Q 35.15625 -1.421875 24.609375 -1.421875 
Q 20.21875 -1.421875 15.453125 -0.5625 
Q 10.6875 0.296875 5.421875 2 
L 5.421875 11.28125 
Q 10.40625 8.6875 15.234375 7.390625 
Q 20.0625 6.109375 24.8125 6.109375 
Q 31.15625 6.109375 34.5625 8.28125 
Q 37.984375 10.453125 37.984375 14.40625 
Q 37.984375 18.0625 35.515625 20.015625 
Q 33.0625 21.96875 24.703125 23.78125 
L 21.578125 24.515625 
Q 13.234375 26.265625 9.515625 29.90625 
Q 5.8125 33.546875 5.8125 39.890625 
Q 5.8125 47.609375 11.28125 51.796875 
Q 16.75 56 26.8125 56 
Q 31.78125 56 36.171875 55.265625 
Q 40.578125 54.546875 44.28125 53.078125 
z
" id="DejaVuSans-115"/>
      <path d="M 9.421875 54.6875 
L 18.40625 54.6875 
L 18.40625 0 
L 9.421875 0 
z
M 9.421875 75.984375 
L 18.40625 75.984375 
L 18.40625 64.59375 
L 9.421875 64.59375 
z
" id="DejaVuSans-105"/>
      <path d="M 18.3125 70.21875 
L 18.3125 54.6875 
L 36.8125 54.6875 
L 36.8125 47.703125 
L 18.3125 47.703125 
L 18.3125 18.015625 
Q 18.3125 11.328125 20.140625 9.421875 
Q 21.96875 7.515625 27.59375 7.515625 
L 36.8125 7.515625 
L 36.8125 0 
L 27.59375 0 
Q 17.1875 0 13.234375 3.875 
Q 9.28125 7.765625 9.28125 18.015625 
L 9.28125 47.703125 
L 2.6875 47.703125 
L 2.6875 54.6875 
L 9.28125 54.6875 
L 9.28125 70.21875 
z
" id="DejaVuSans-116"/>
     </defs>
     <g transform="translate(202.270156 335.860562)scale(0.1 -0.1)">
      <use xlink:href="#DejaVuSans-103"/>
      <use x="63.476562" xlink:href="#DejaVuSans-101"/>
      <use x="125" xlink:href="#DejaVuSans-110"/>
      <use x="188.378906" xlink:href="#DejaVuSans-101"/>
      <use x="249.902344" xlink:href="#DejaVuSans-32"/>
      <use x="281.689453" xlink:href="#DejaVuSans-112"/>
      <use x="345.166016" xlink:href="#DejaVuSans-111"/>
      <use x="406.347656" xlink:href="#DejaVuSans-115"/>
      <use x="458.447266" xlink:href="#DejaVuSans-105"/>
      <use x="486.230469" xlink:href="#DejaVuSans-116"/>
      <use x="525.439453" xlink:href="#DejaVuSans-105"/>
      <use x="553.222656" xlink:href="#DejaVuSans-111"/>
      <use x="614.404297" xlink:href="#DejaVuSans-110"/>
     </g>
    </g>
   </g>
   <g id="matplotlib.axis_2">
    <g id="ytick_1">
     <g id="line2d_10">
      <defs>
       <path d="M 0 0 
L -3.5 0 
" id="ma26f200ab4" style="stroke:#000000;stroke-width:0.8;"/>
      </defs>
      <g>
       <use style="stroke:#000000;stroke-width:0.8;" x="57.6" xlink:href="#ma26f200ab4" y="307.584"/>
      </g>
     </g>
     <g id="text_11">
      <!-- 0 -->
      <g transform="translate(44.2375 311.383219)scale(0.1 -0.1)">
       <use xlink:href="#DejaVuSans-48"/>
      </g>
     </g>
    </g>
    <g id="ytick_2">
     <g id="line2d_11">
      <g>
       <use style="stroke:#000000;stroke-width:0.8;" x="57.6" xlink:href="#ma26f200ab4" y="260.897684"/>
      </g>
     </g>
     <g id="text_12">
      <!-- 10 -->
      <g transform="translate(37.875 264.696903)scale(0.1 -0.1)">
       <use xlink:href="#DejaVuSans-49"/>
       <use x="63.623047" xlink:href="#DejaVuSans-48"/>
      </g>
     </g>
    </g>
    <g id="ytick_3">
     <g id="line2d_12">
      <g>
       <use style="stroke:#000000;stroke-width:0.8;" x="57.6" xlink:href="#ma26f200ab4" y="214.211368"/>
      </g>
     </g>
     <g id="text_13">
      <!-- 20 -->
      <g transform="translate(37.875 218.010587)scale(0.1 -0.1)">
       <use xlink:href="#DejaVuSans-50"/>
       <use x="63.623047" xlink:href="#DejaVuSans-48"/>
      </g>
     </g>
    </g>
    <g id="ytick_4">
     <g id="line2d_13">
      <g>
       <use style="stroke:#000000;stroke-width:0.8;" x="57.6" xlink:href="#ma26f200ab4" y="167.525053"/>
      </g>
     </g>
     <g id="text_14">
      <!-- 30 -->
      <g transform="translate(37.875 171.324271)scale(0.1 -0.1)">
       <use xlink:href="#DejaVuSans-51"/>
       <use x="63.623047" xlink:href="#DejaVuSans-48"/>
      </g>
     </g>
    </g>
    <g id="ytick_5">
     <g id="line2d_14">
      <g>
       <use style="stroke:#000000;stroke-width:0.8;" x="57.6" xlink:href="#ma26f200ab4" y="120.838737"/>
      </g>
     </g>
     <g id="text_15">
      <!-- 40 -->
      <g transform="translate(37.875 124.637956)scale(0.1 -0.1)">
       <use xlink:href="#DejaVuSans-52"/>
       <use x="63.623047" xlink:href="#DejaVuSans-48"/>
      </g>
     </g>
    </g>
    <g id="ytick_6">
     <g id="line2d_15">
      <g>
       <use style="stroke:#000000;stroke-width:0.8;" x="57.6" xlink:href="#ma26f200ab4" y="74.152421"/>
      </g>
     </g>
     <g id="text_16">
      <!-- 50 -->
      <g transform="translate(37.875 77.95164)scale(0.1 -0.1)">
       <use xlink:href="#DejaVuSans-53"/>
       <use x="63.623047" xlink:href="#DejaVuSans-48"/>
      </g>
     </g>
    </g>
    <g id="text_17">
     <!-- depth -->
     <defs>
      <path d="M 45.40625 46.390625 
L 45.40625 75.984375 
L 54.390625 75.984375 
L 54.390625 0 
L 45.40625 0 
L 45.40625 8.203125 
Q 42.578125 3.328125 38.25 0.953125 
Q 33.9375 -1.421875 27.875 -1.421875 
Q 17.96875 -1.421875 11.734375 6.484375 
Q 5.515625 14.40625 5.515625 27.296875 
Q 5.515625 40.1875 11.734375 48.09375 
Q 17.96875 56 27.875 56 
Q 33.9375 56 38.25 53.625 
Q 42.578125 51.265625 45.40625 46.390625 
z
M 14.796875 27.296875 
Q 14.796875 17.390625 18.875 11.75 
Q 22.953125 6.109375 30.078125 6.109375 
Q 37.203125 6.109375 41.296875 11.75 
Q 45.40625 17.390625 45.40625 27.296875 
Q 45.40625 37.203125 41.296875 42.84375 
Q 37.203125 48.484375 30.078125 48.484375 
Q 22.953125 48.484375 18.875 42.84375 
Q 14.796875 37.203125 14.796875 27.296875 
z
" id="DejaVuSans-100"/>
      <path d="M 54.890625 33.015625 
L 54.890625 0 
L 45.90625 0 
L 45.90625 32.71875 
Q 45.90625 40.484375 42.875 44.328125 
Q 39.84375 48.1875 33.796875 48.1875 
Q 26.515625 48.1875 22.3125 43.546875 
Q 18.109375 38.921875 18.109375 30.90625 
L 18.109375 0 
L 9.078125 0 
L 9.078125 75.984375 
L 18.109375 75.984375 
L 18.109375 46.1875 
Q 21.34375 51.125 25.703125 53.5625 
Q 30.078125 56 35.796875 56 
Q 45.21875 56 50.046875 50.171875 
Q 54.890625 44.34375 54.890625 33.015625 
z
" id="DejaVuSans-104"/>
     </defs>
     <g transform="translate(31.795312 189.081906)rotate(-90)scale(0.1 -0.1)">
      <use xlink:href="#DejaVuSans-100"/>
      <use x="63.476562" xlink:href="#DejaVuSans-101"/>
      <use x="125" xlink:href="#DejaVuSans-112"/>
      <use x="188.476562" xlink:href="#DejaVuSans-116"/>
      <use x="227.685547" xlink:href="#DejaVuSans-104"/>
     </g>
    </g>
   </g>
   <g id="line2d_16">
    <path clip-path="url(#p54ae87b21d)" d="M 73.832727 223.548632 
L 76.231652 223.548632 
L 76.631473 214.211368 
L 77.031294 209.542737 
L 77.431115 200.205474 
L 77.830936 200.205474 
L 78.230757 195.536842 
L 79.030399 195.536842 
L 79.430219 190.868211 
L 79.83004 190.868211 
L 80.229861 186.199579 
L 81.029503 186.199579 
L 81.429324 176.862316 
L 81.829145 172.193684 
L 83.428428 172.193684 
L 83.828249 167.525053 
L 84.627891 167.525053 
L 85.027712 162.856421 
L 85.427532 162.856421 
L 85.827353 153.519158 
L 86.626995 153.519158 
L 87.426637 144.181895 
L 89.02592 144.181895 
L 89.825562 125.507368 
L 90.225383 125.507368 
L 91.025025 134.844632 
L 91.824666 116.170105 
L 92.224487 120.838737 
L 93.024129 120.838737 
L 93.42395 116.170105 
L 94.223592 116.170105 
L 94.623412 120.838737 
L 95.023233 120.838737 
L 95.423054 125.507368 
L 95.822875 116.170105 
L 96.222696 116.170105 
L 96.622517 111.501474 
L 98.2218 111.501474 
L 98.621621 106.832842 
L 99.821084 106.832842 
L 100.220905 102.164211 
L 101.020546 102.164211 
L 101.420367 106.832842 
L 101.820188 106.832842 
L 102.220009 97.495579 
L 102.61983 97.495579 
L 103.019651 106.832842 
L 105.418576 106.832842 
L 105.818397 102.164211 
L 106.218218 102.164211 
L 106.618039 97.495579 
L 108.617143 97.495579 
L 109.016964 92.826947 
L 109.416785 92.826947 
L 109.816605 102.164211 
L 110.616247 111.501474 
L 111.016068 111.501474 
L 111.415889 116.170105 
L 111.81571 116.170105 
L 112.215531 111.501474 
L 113.015172 111.501474 
L 113.414993 106.832842 
L 113.814814 111.501474 
L 114.214635 102.164211 
L 115.014277 111.501474 
L 115.414098 111.501474 
L 115.813918 106.832842 
L 116.213739 106.832842 
L 116.61356 102.164211 
L 117.813023 102.164211 
L 118.212844 111.501474 
L 119.012485 111.501474 
L 119.812127 102.164211 
L 120.211948 106.832842 
L 121.01159 88.158316 
L 121.411411 92.826947 
L 121.811232 69.483789 
L 122.211052 64.815158 
L 123.010694 74.152421 
L 123.410515 64.815158 
L 123.810336 69.483789 
L 124.210157 64.815158 
L 124.609978 74.152421 
L 125.009798 78.821053 
L 125.409619 74.152421 
L 125.80944 74.152421 
L 126.209261 69.483789 
L 127.408724 83.489684 
L 128.608186 69.483789 
L 129.008007 78.821053 
L 129.407828 83.489684 
L 129.807649 83.489684 
L 130.20747 78.821053 
L 131.007112 78.821053 
L 131.406932 83.489684 
L 132.206574 74.152421 
L 132.606395 74.152421 
L 133.805858 60.146526 
L 134.205678 60.146526 
L 134.605499 64.815158 
L 135.00532 60.146526 
L 135.405141 64.815158 
L 135.804962 50.809263 
L 136.204783 46.140632 
L 136.604604 50.809263 
L 138.603708 50.809263 
L 139.003529 55.477895 
L 139.40335 55.477895 
L 140.202991 64.815158 
L 140.602812 60.146526 
L 141.802275 60.146526 
L 142.202096 55.477895 
L 142.601917 55.477895 
L 143.001738 50.809263 
L 143.401558 55.477895 
L 143.801379 50.809263 
L 145.000842 50.809263 
L 145.400663 55.477895 
L 146.200305 55.477895 
L 146.600125 60.146526 
L 147.399767 60.146526 
L 147.799588 64.815158 
L 148.199409 64.815158 
L 148.59923 60.146526 
L 148.999051 64.815158 
L 149.398871 50.809263 
L 149.798692 50.809263 
L 150.198513 46.140632 
L 151.397976 46.140632 
L 151.797797 41.472 
L 152.197618 46.140632 
L 152.597438 46.140632 
L 152.997259 41.472 
L 153.39708 41.472 
L 153.796901 55.477895 
L 154.196722 60.146526 
L 154.596543 60.146526 
L 154.996364 83.489684 
L 155.396185 88.158316 
L 156.195826 88.158316 
L 156.595647 97.495579 
L 157.395289 106.832842 
L 158.194931 106.832842 
L 158.594751 111.501474 
L 158.994572 106.832842 
L 159.394393 111.501474 
L 160.593856 111.501474 
L 162.193139 130.176 
L 162.59296 125.507368 
L 162.992781 130.176 
L 163.392602 130.176 
L 163.792423 125.507368 
L 164.192244 125.507368 
L 164.592064 120.838737 
L 164.991885 125.507368 
L 165.391706 125.507368 
L 165.791527 130.176 
L 166.191348 130.176 
L 166.591169 139.513263 
L 167.790631 153.519158 
L 168.190452 162.856421 
L 168.590273 167.525053 
L 168.990094 176.862316 
L 169.389915 181.530947 
L 169.789736 176.862316 
L 170.589378 176.862316 
L 170.989198 172.193684 
L 171.389019 172.193684 
L 171.78884 176.862316 
L 173.388124 176.862316 
L 173.787944 172.193684 
L 174.187765 158.187789 
L 175.387228 158.187789 
L 176.18687 167.525053 
L 176.586691 158.187789 
L 176.986511 167.525053 
L 178.185974 153.519158 
L 178.585795 153.519158 
L 178.985616 158.187789 
L 179.385437 158.187789 
L 180.185078 148.850526 
L 180.584899 148.850526 
L 180.98472 144.181895 
L 181.384541 144.181895 
L 182.584004 158.187789 
L 182.983824 153.519158 
L 183.383645 158.187789 
L 183.783466 144.181895 
L 184.583108 144.181895 
L 184.982929 148.850526 
L 185.38275 148.850526 
L 185.782571 158.187789 
L 186.182391 162.856421 
L 186.582212 153.519158 
L 187.381854 153.519158 
L 187.781675 144.181895 
L 188.181496 144.181895 
L 188.981137 134.844632 
L 189.380958 125.507368 
L 190.980242 125.507368 
L 191.380063 120.838737 
L 191.779884 111.501474 
L 192.179704 116.170105 
L 192.979346 116.170105 
L 193.379167 102.164211 
L 193.778988 102.164211 
L 194.178809 92.826947 
L 194.57863 92.826947 
L 194.978451 88.158316 
L 195.778092 88.158316 
L 196.177913 83.489684 
L 196.577734 83.489684 
L 196.977555 88.158316 
L 197.777197 88.158316 
L 198.177017 83.489684 
L 198.576838 83.489684 
L 198.976659 78.821053 
L 199.37648 83.489684 
L 199.776301 83.489684 
L 200.176122 78.821053 
L 200.575943 78.821053 
L 200.975764 83.489684 
L 202.575047 64.815158 
L 206.573256 64.815158 
L 206.973077 69.483789 
L 207.372897 83.489684 
L 207.772718 83.489684 
L 208.172539 78.821053 
L 208.57236 69.483789 
L 208.972181 69.483789 
L 209.372002 64.815158 
L 209.771823 74.152421 
L 210.171644 69.483789 
L 210.571464 69.483789 
L 212.170748 88.158316 
L 212.570569 88.158316 
L 213.770031 102.164211 
L 214.169852 97.495579 
L 214.569673 102.164211 
L 214.969494 97.495579 
L 215.369315 97.495579 
L 215.769136 102.164211 
L 216.168957 111.501474 
L 216.568777 111.501474 
L 216.968598 120.838737 
L 217.368419 111.501474 
L 218.967703 111.501474 
L 219.367524 106.832842 
L 219.767344 111.501474 
L 220.167165 106.832842 
L 220.966807 116.170105 
L 222.16627 116.170105 
L 222.56609 125.507368 
L 223.365732 125.507368 
L 224.165374 116.170105 
L 224.565195 120.838737 
L 224.965016 130.176 
L 225.764657 130.176 
L 226.164478 125.507368 
L 226.96412 125.507368 
L 227.363941 139.513263 
L 227.763762 139.513263 
L 228.163583 144.181895 
L 228.563403 144.181895 
L 228.963224 153.519158 
L 229.762866 162.856421 
L 232.161791 162.856421 
L 232.561612 158.187789 
L 232.961433 158.187789 
L 233.361254 167.525053 
L 234.960537 167.525053 
L 235.360358 172.193684 
L 236.959642 172.193684 
L 237.759283 162.856421 
L 238.159104 167.525053 
L 238.558925 167.525053 
L 239.358567 158.187789 
L 239.758388 158.187789 
L 240.158209 148.850526 
L 240.95785 148.850526 
L 241.357671 153.519158 
L 241.757492 167.525053 
L 242.956955 167.525053 
L 243.356776 162.856421 
L 243.756597 162.856421 
L 244.156417 153.519158 
L 244.556238 153.519158 
L 244.956059 144.181895 
L 245.35588 139.513263 
L 246.155522 139.513263 
L 246.555343 134.844632 
L 246.955163 120.838737 
L 247.354984 130.176 
L 247.754805 130.176 
L 248.154626 134.844632 
L 248.554447 134.844632 
L 248.954268 130.176 
L 249.354089 130.176 
L 250.15373 139.513263 
L 250.553551 148.850526 
L 251.353193 139.513263 
L 252.152835 139.513263 
L 252.552656 134.844632 
L 252.952476 134.844632 
L 253.352297 139.513263 
L 253.752118 139.513263 
L 254.151939 144.181895 
L 254.951581 144.181895 
L 255.351402 148.850526 
L 255.751223 148.850526 
L 256.151043 144.181895 
L 256.550864 148.850526 
L 256.950685 148.850526 
L 257.350506 144.181895 
L 258.549969 144.181895 
L 258.94979 130.176 
L 259.34961 134.844632 
L 259.749431 144.181895 
L 261.348715 144.181895 
L 261.748536 139.513263 
L 263.74764 139.513263 
L 264.147461 134.844632 
L 264.547282 134.844632 
L 264.947103 139.513263 
L 265.346923 139.513263 
L 265.746744 144.181895 
L 267.346028 144.181895 
L 267.745849 148.850526 
L 268.14567 139.513263 
L 270.144774 139.513263 
L 270.544595 134.844632 
L 270.944416 139.513263 
L 271.744057 120.838737 
L 272.143878 120.838737 
L 272.543699 125.507368 
L 272.94352 120.838737 
L 273.343341 130.176 
L 275.342445 130.176 
L 276.541908 144.181895 
L 276.941729 139.513263 
L 277.341549 148.850526 
L 277.74137 148.850526 
L 278.141191 162.856421 
L 278.541012 167.525053 
L 278.940833 162.856421 
L 279.340654 162.856421 
L 280.140296 172.193684 
L 280.939937 172.193684 
L 281.339758 167.525053 
L 283.738683 167.525053 
L 284.138504 172.193684 
L 284.938146 172.193684 
L 285.337967 162.856421 
L 286.137609 162.856421 
L 286.537429 153.519158 
L 286.93725 153.519158 
L 287.337071 144.181895 
L 287.736892 130.176 
L 288.536534 130.176 
L 289.336176 139.513263 
L 289.735996 134.844632 
L 290.135817 139.513263 
L 291.735101 139.513263 
L 292.134922 144.181895 
L 292.534742 144.181895 
L 293.334384 134.844632 
L 294.933668 134.844632 
L 295.333489 130.176 
L 296.932772 130.176 
L 297.332593 134.844632 
L 298.132235 134.844632 
L 298.532056 125.507368 
L 298.931876 125.507368 
L 299.331697 130.176 
L 300.131339 130.176 
L 300.930981 120.838737 
L 301.330802 125.507368 
L 302.130443 125.507368 
L 303.329906 111.501474 
L 303.729727 120.838737 
L 304.129548 120.838737 
L 304.929189 139.513263 
L 305.32901 130.176 
L 305.728831 125.507368 
L 306.128652 130.176 
L 306.528473 130.176 
L 306.928294 125.507368 
L 307.328115 130.176 
L 307.727936 130.176 
L 308.927398 116.170105 
L 309.72704 116.170105 
L 310.126861 125.507368 
L 310.526682 125.507368 
L 310.926502 116.170105 
L 311.726144 116.170105 
L 312.125965 120.838737 
L 312.925607 111.501474 
L 313.325428 120.838737 
L 314.52489 120.838737 
L 314.924711 116.170105 
L 315.324532 120.838737 
L 315.724353 120.838737 
L 316.124174 116.170105 
L 316.523995 120.838737 
L 316.923815 120.838737 
L 317.323636 116.170105 
L 318.123278 116.170105 
L 318.523099 125.507368 
L 319.322741 125.507368 
L 319.722562 134.844632 
L 320.122382 134.844632 
L 320.522203 144.181895 
L 320.922024 158.187789 
L 321.321845 153.519158 
L 321.721666 144.181895 
L 322.521308 134.844632 
L 323.320949 134.844632 
L 323.72077 130.176 
L 324.920233 130.176 
L 325.320054 139.513263 
L 325.719875 134.844632 
L 326.919337 148.850526 
L 327.319158 144.181895 
L 327.718979 144.181895 
L 328.1188 148.850526 
L 328.918442 139.513263 
L 330.517725 139.513263 
L 330.917546 134.844632 
L 331.317367 134.844632 
L 331.717188 144.181895 
L 332.117009 144.181895 
L 332.516829 139.513263 
L 333.316471 139.513263 
L 334.116113 148.850526 
L 334.915755 139.513263 
L 335.315575 139.513263 
L 335.715396 130.176 
L 336.115217 134.844632 
L 336.515038 144.181895 
L 336.914859 134.844632 
L 337.31468 139.513263 
L 337.714501 134.844632 
L 338.114322 134.844632 
L 338.514142 148.850526 
L 339.313784 148.850526 
L 339.713605 144.181895 
L 340.113426 148.850526 
L 341.712709 148.850526 
L 342.11253 153.519158 
L 342.512351 153.519158 
L 342.912172 148.850526 
L 343.711814 148.850526 
L 344.111635 153.519158 
L 344.911276 134.844632 
L 345.311097 134.844632 
L 345.710918 130.176 
L 346.51056 139.513263 
L 347.310202 120.838737 
L 347.710022 120.838737 
L 348.509664 111.501474 
L 348.909485 116.170105 
L 349.309306 111.501474 
L 349.709127 111.501474 
L 350.108948 106.832842 
L 350.508768 111.501474 
L 353.307515 111.501474 
L 354.107156 102.164211 
L 354.506977 111.501474 
L 354.906798 130.176 
L 355.306619 120.838737 
L 355.70644 125.507368 
L 356.905902 125.507368 
L 357.305723 120.838737 
L 358.505186 120.838737 
L 358.905007 125.507368 
L 359.304828 120.838737 
L 360.104469 120.838737 
L 360.50429 125.507368 
L 360.904111 120.838737 
L 361.303932 120.838737 
L 361.703753 125.507368 
L 362.103574 116.170105 
L 362.503395 111.501474 
L 363.303036 111.501474 
L 363.702857 106.832842 
L 364.102678 106.832842 
L 364.502499 102.164211 
L 365.302141 111.501474 
L 366.901424 111.501474 
L 367.301245 106.832842 
L 368.100887 116.170105 
L 368.500708 111.501474 
L 368.900528 120.838737 
L 369.300349 120.838737 
L 369.70017 116.170105 
L 370.099991 125.507368 
L 370.499812 125.507368 
L 370.899633 130.176 
L 371.699275 130.176 
L 372.099095 134.844632 
L 373.698379 134.844632 
L 374.0982 125.507368 
L 374.498021 125.507368 
L 374.897841 130.176 
L 375.297662 130.176 
L 375.697483 120.838737 
L 376.097304 125.507368 
L 376.497125 120.838737 
L 377.296767 120.838737 
L 377.696588 130.176 
L 378.096408 134.844632 
L 378.496229 134.844632 
L 378.89605 139.513263 
L 379.695692 139.513263 
L 380.095513 148.850526 
L 380.495334 153.519158 
L 380.895155 153.519158 
L 381.294975 162.856421 
L 381.694796 167.525053 
L 382.094617 162.856421 
L 382.494438 172.193684 
L 382.894259 172.193684 
L 383.29408 176.862316 
L 386.492647 176.862316 
L 386.892468 181.530947 
L 388.09193 181.530947 
L 388.491751 190.868211 
L 390.091034 190.868211 
L 390.490855 200.205474 
L 391.690318 200.205474 
L 392.48996 209.542737 
L 393.689422 209.542737 
L 394.089243 214.211368 
L 394.888885 214.211368 
L 395.688527 223.548632 
L 396.488168 223.548632 
L 396.887989 232.885895 
L 397.687631 242.223158 
L 398.487273 242.223158 
L 398.487273 242.223158 
" style="fill:none;stroke:#0000ff;stroke-linecap:square;stroke-width:1.5;"/>
   </g>
   <g id="patch_3">
    <path d="M 57.6 307.584 
L 57.6 41.472 
" style="fill:none;stroke:#000000;stroke-linecap:square;stroke-linejoin:miter;stroke-width:0.8;"/>
   </g>
   <g id="patch_4">
    <path d="M 414.72 307.584 
L 414.72 41.472 
" style="fill:none;stroke:#000000;stroke-linecap:square;stroke-linejoin:miter;stroke-width:0.8;"/>
   </g>
   <g id="patch_5">
    <path d="M 57.6 307.584 
L 414.72 307.584 
" style="fill:none;stroke:#000000;stroke-linecap:square;stroke-linejoin:miter;stroke-width:0.8;"/>
   </g>
   <g id="patch_6">
    <path d="M 57.6 41.472 
L 414.72 41.472 
" style="fill:none;stroke:#000000;stroke-linecap:square;stroke-linejoin:miter;stroke-width:0.8;"/>
   </g>
   <g id="text_18">
    <!-- &gt;blaOXA-1_1_J02967 Beta-lactam resistance: -->
    <defs>
     <path d="M 10.59375 49.21875 
L 10.59375 58.109375 
L 73.1875 35.40625 
L 73.1875 27.296875 
L 10.59375 4.59375 
L 10.59375 13.484375 
L 60.890625 31.296875 
z
" id="DejaVuSans-62"/>
     <path d="M 48.6875 27.296875 
Q 48.6875 37.203125 44.609375 42.84375 
Q 40.53125 48.484375 33.40625 48.484375 
Q 26.265625 48.484375 22.1875 42.84375 
Q 18.109375 37.203125 18.109375 27.296875 
Q 18.109375 17.390625 22.1875 11.75 
Q 26.265625 6.109375 33.40625 6.109375 
Q 40.53125 6.109375 44.609375 11.75 
Q 48.6875 17.390625 48.6875 27.296875 
z
M 18.109375 46.390625 
Q 20.953125 51.265625 25.265625 53.625 
Q 29.59375 56 35.59375 56 
Q 45.5625 56 51.78125 48.09375 
Q 58.015625 40.1875 58.015625 27.296875 
Q 58.015625 14.40625 51.78125 6.484375 
Q 45.5625 -1.421875 35.59375 -1.421875 
Q 29.59375 -1.421875 25.265625 0.953125 
Q 20.953125 3.328125 18.109375 8.203125 
L 18.109375 0 
L 9.078125 0 
L 9.078125 75.984375 
L 18.109375 75.984375 
z
" id="DejaVuSans-98"/>
     <path d="M 9.421875 75.984375 
L 18.40625 75.984375 
L 18.40625 0 
L 9.421875 0 
z
" id="DejaVuSans-108"/>
     <path d="M 34.28125 27.484375 
Q 23.390625 27.484375 19.1875 25 
Q 14.984375 22.515625 14.984375 16.5 
Q 14.984375 11.71875 18.140625 8.90625 
Q 21.296875 6.109375 26.703125 6.109375 
Q 34.1875 6.109375 38.703125 11.40625 
Q 43.21875 16.703125 43.21875 25.484375 
L 43.21875 27.484375 
z
M 52.203125 31.203125 
L 52.203125 0 
L 43.21875 0 
L 43.21875 8.296875 
Q 40.140625 3.328125 35.546875 0.953125 
Q 30.953125 -1.421875 24.3125 -1.421875 
Q 15.921875 -1.421875 10.953125 3.296875 
Q 6 8.015625 6 15.921875 
Q 6 25.140625 12.171875 29.828125 
Q 18.359375 34.515625 30.609375 34.515625 
L 43.21875 34.515625 
L 43.21875 35.40625 
Q 43.21875 41.609375 39.140625 45 
Q 35.0625 48.390625 27.6875 48.390625 
Q 23 48.390625 18.546875 47.265625 
Q 14.109375 46.140625 10.015625 43.890625 
L 10.015625 52.203125 
Q 14.9375 54.109375 19.578125 55.046875 
Q 24.21875 56 28.609375 56 
Q 40.484375 56 46.34375 49.84375 
Q 52.203125 43.703125 52.203125 31.203125 
z
" id="DejaVuSans-97"/>
     <path d="M 39.40625 66.21875 
Q 28.65625 66.21875 22.328125 58.203125 
Q 16.015625 50.203125 16.015625 36.375 
Q 16.015625 22.609375 22.328125 14.59375 
Q 28.65625 6.59375 39.40625 6.59375 
Q 50.140625 6.59375 56.421875 14.59375 
Q 62.703125 22.609375 62.703125 36.375 
Q 62.703125 50.203125 56.421875 58.203125 
Q 50.140625 66.21875 39.40625 66.21875 
z
M 39.40625 74.21875 
Q 54.734375 74.21875 63.90625 63.9375 
Q 73.09375 53.65625 73.09375 36.375 
Q 73.09375 19.140625 63.90625 8.859375 
Q 54.734375 -1.421875 39.40625 -1.421875 
Q 24.03125 -1.421875 14.8125 8.828125 
Q 5.609375 19.09375 5.609375 36.375 
Q 5.609375 53.65625 14.8125 63.9375 
Q 24.03125 74.21875 39.40625 74.21875 
z
" id="DejaVuSans-79"/>
     <path d="M 6.296875 72.90625 
L 16.890625 72.90625 
L 35.015625 45.796875 
L 53.21875 72.90625 
L 63.8125 72.90625 
L 40.375 37.890625 
L 65.375 0 
L 54.78125 0 
L 34.28125 31 
L 13.625 0 
L 2.984375 0 
L 29 38.921875 
z
" id="DejaVuSans-88"/>
     <path d="M 34.1875 63.1875 
L 20.796875 26.90625 
L 47.609375 26.90625 
z
M 28.609375 72.90625 
L 39.796875 72.90625 
L 67.578125 0 
L 57.328125 0 
L 50.6875 18.703125 
L 17.828125 18.703125 
L 11.1875 0 
L 0.78125 0 
z
" id="DejaVuSans-65"/>
     <path d="M 4.890625 31.390625 
L 31.203125 31.390625 
L 31.203125 23.390625 
L 4.890625 23.390625 
z
" id="DejaVuSans-45"/>
     <path d="M 50.984375 -16.609375 
L 50.984375 -23.578125 
L -0.984375 -23.578125 
L -0.984375 -16.609375 
z
" id="DejaVuSans-95"/>
     <path d="M 9.8125 72.90625 
L 19.671875 72.90625 
L 19.671875 5.078125 
Q 19.671875 -8.109375 14.671875 -14.0625 
Q 9.671875 -20.015625 -1.421875 -20.015625 
L -5.171875 -20.015625 
L -5.171875 -11.71875 
L -2.09375 -11.71875 
Q 4.4375 -11.71875 7.125 -8.046875 
Q 9.8125 -4.390625 9.8125 5.078125 
z
" id="DejaVuSans-74"/>
     <path d="M 10.984375 1.515625 
L 10.984375 10.5 
Q 14.703125 8.734375 18.5 7.8125 
Q 22.3125 6.890625 25.984375 6.890625 
Q 35.75 6.890625 40.890625 13.453125 
Q 46.046875 20.015625 46.78125 33.40625 
Q 43.953125 29.203125 39.59375 26.953125 
Q 35.25 24.703125 29.984375 24.703125 
Q 19.046875 24.703125 12.671875 31.3125 
Q 6.296875 37.9375 6.296875 49.421875 
Q 6.296875 60.640625 12.9375 67.421875 
Q 19.578125 74.21875 30.609375 74.21875 
Q 43.265625 74.21875 49.921875 64.515625 
Q 56.59375 54.828125 56.59375 36.375 
Q 56.59375 19.140625 48.40625 8.859375 
Q 40.234375 -1.421875 26.421875 -1.421875 
Q 22.703125 -1.421875 18.890625 -0.6875 
Q 15.09375 0.046875 10.984375 1.515625 
z
M 30.609375 32.421875 
Q 37.25 32.421875 41.125 36.953125 
Q 45.015625 41.5 45.015625 49.421875 
Q 45.015625 57.28125 41.125 61.84375 
Q 37.25 66.40625 30.609375 66.40625 
Q 23.96875 66.40625 20.09375 61.84375 
Q 16.21875 57.28125 16.21875 49.421875 
Q 16.21875 41.5 20.09375 36.953125 
Q 23.96875 32.421875 30.609375 32.421875 
z
" id="DejaVuSans-57"/>
     <path d="M 19.671875 34.8125 
L 19.671875 8.109375 
L 35.5 8.109375 
Q 43.453125 8.109375 47.28125 11.40625 
Q 51.125 14.703125 51.125 21.484375 
Q 51.125 28.328125 47.28125 31.5625 
Q 43.453125 34.8125 35.5 34.8125 
z
M 19.671875 64.796875 
L 19.671875 42.828125 
L 34.28125 42.828125 
Q 41.5 42.828125 45.03125 45.53125 
Q 48.578125 48.25 48.578125 53.8125 
Q 48.578125 59.328125 45.03125 62.0625 
Q 41.5 64.796875 34.28125 64.796875 
z
M 9.8125 72.90625 
L 35.015625 72.90625 
Q 46.296875 72.90625 52.390625 68.21875 
Q 58.5 63.53125 58.5 54.890625 
Q 58.5 48.1875 55.375 44.234375 
Q 52.25 40.28125 46.1875 39.3125 
Q 53.46875 37.75 57.5 32.78125 
Q 61.53125 27.828125 61.53125 20.40625 
Q 61.53125 10.640625 54.890625 5.3125 
Q 48.25 0 35.984375 0 
L 9.8125 0 
z
" id="DejaVuSans-66"/>
     <path d="M 48.78125 52.59375 
L 48.78125 44.1875 
Q 44.96875 46.296875 41.140625 47.34375 
Q 37.3125 48.390625 33.40625 48.390625 
Q 24.65625 48.390625 19.8125 42.84375 
Q 14.984375 37.3125 14.984375 27.296875 
Q 14.984375 17.28125 19.8125 11.734375 
Q 24.65625 6.203125 33.40625 6.203125 
Q 37.3125 6.203125 41.140625 7.25 
Q 44.96875 8.296875 48.78125 10.40625 
L 48.78125 2.09375 
Q 45.015625 0.34375 40.984375 -0.53125 
Q 36.96875 -1.421875 32.421875 -1.421875 
Q 20.0625 -1.421875 12.78125 6.34375 
Q 5.515625 14.109375 5.515625 27.296875 
Q 5.515625 40.671875 12.859375 48.328125 
Q 20.21875 56 33.015625 56 
Q 37.15625 56 41.109375 55.140625 
Q 45.0625 54.296875 48.78125 52.59375 
z
" id="DejaVuSans-99"/>
     <path d="M 52 44.1875 
Q 55.375 50.25 60.0625 53.125 
Q 64.75 56 71.09375 56 
Q 79.640625 56 84.28125 50.015625 
Q 88.921875 44.046875 88.921875 33.015625 
L 88.921875 0 
L 79.890625 0 
L 79.890625 32.71875 
Q 79.890625 40.578125 77.09375 44.375 
Q 74.3125 48.1875 68.609375 48.1875 
Q 61.625 48.1875 57.5625 43.546875 
Q 53.515625 38.921875 53.515625 30.90625 
L 53.515625 0 
L 44.484375 0 
L 44.484375 32.71875 
Q 44.484375 40.625 41.703125 44.40625 
Q 38.921875 48.1875 33.109375 48.1875 
Q 26.21875 48.1875 22.15625 43.53125 
Q 18.109375 38.875 18.109375 30.90625 
L 18.109375 0 
L 9.078125 0 
L 9.078125 54.6875 
L 18.109375 54.6875 
L 18.109375 46.1875 
Q 21.1875 51.21875 25.484375 53.609375 
Q 29.78125 56 35.6875 56 
Q 41.65625 56 45.828125 52.96875 
Q 50 49.953125 52 44.1875 
z
" id="DejaVuSans-109"/>
     <path d="M 41.109375 46.296875 
Q 39.59375 47.171875 37.8125 47.578125 
Q 36.03125 48 33.890625 48 
Q 26.265625 48 22.1875 43.046875 
Q 18.109375 38.09375 18.109375 28.8125 
L 18.109375 0 
L 9.078125 0 
L 9.078125 54.6875 
L 18.109375 54.6875 
L 18.109375 46.1875 
Q 20.953125 51.171875 25.484375 53.578125 
Q 30.03125 56 36.53125 56 
Q 37.453125 56 38.578125 55.875 
Q 39.703125 55.765625 41.0625 55.515625 
z
" id="DejaVuSans-114"/>
     <path d="M 11.71875 12.40625 
L 22.015625 12.40625 
L 22.015625 0 
L 11.71875 0 
z
M 11.71875 51.703125 
L 22.015625 51.703125 
L 22.015625 39.3125 
L 11.71875 39.3125 
z
" id="DejaVuSans-58"/>
    </defs>
    <g transform="translate(99.141562 35.472)scale(0.12 -0.12)">
     <use xlink:href="#DejaVuSans-62"/>
     <use x="83.789062" xlink:href="#DejaVuSans-98"/>
     <use x="147.265625" xlink:href="#DejaVuSans-108"/>
     <use x="175.048828" xlink:href="#DejaVuSans-97"/>
     <use x="236.328125" xlink:href="#DejaVuSans-79"/>
     <use x="314.945312" xlink:href="#DejaVuSans-88"/>
     <use x="383.451172" xlink:href="#DejaVuSans-65"/>
     <use x="451.828125" xlink:href="#DejaVuSans-45"/>
     <use x="487.912109" xlink:href="#DejaVuSans-49"/>
     <use x="551.535156" xlink:href="#DejaVuSans-95"/>
     <use x="601.535156" xlink:href="#DejaVuSans-49"/>
     <use x="665.158203" xlink:href="#DejaVuSans-95"/>
     <use x="715.158203" xlink:href="#DejaVuSans-74"/>
     <use x="744.650391" xlink:href="#DejaVuSans-48"/>
     <use x="808.273438" xlink:href="#DejaVuSans-50"/>
     <use x="871.896484" xlink:href="#DejaVuSans-57"/>
     <use x="935.519531" xlink:href="#DejaVuSans-54"/>
     <use x="999.142578" xlink:href="#DejaVuSans-55"/>
     <use x="1062.765625" xlink:href="#DejaVuSans-32"/>
     <use x="1094.552734" xlink:href="#DejaVuSans-66"/>
     <use x="1163.15625" xlink:href="#DejaVuSans-101"/>
     <use x="1224.679688" xlink:href="#DejaVuSans-116"/>
     <use x="1263.888672" xlink:href="#DejaVuSans-97"/>
     <use x="1325.167969" xlink:href="#DejaVuSans-45"/>
     <use x="1361.251953" xlink:href="#DejaVuSans-108"/>
     <use x="1389.035156" xlink:href="#DejaVuSans-97"/>
     <use x="1450.314453" xlink:href="#DejaVuSans-99"/>
     <use x="1505.294922" xlink:href="#DejaVuSans-116"/>
     <use x="1544.503906" xlink:href="#DejaVuSans-97"/>
     <use x="1605.783203" xlink:href="#DejaVuSans-109"/>
     <use x="1703.195312" xlink:href="#DejaVuSans-32"/>
     <use x="1734.982422" xlink:href="#DejaVuSans-114"/>
     <use x="1776.064453" xlink:href="#DejaVuSans-101"/>
     <use x="1837.587891" xlink:href="#DejaVuSans-115"/>
     <use x="1889.6875" xlink:href="#DejaVuSans-105"/>
     <use x="1917.470703" xlink:href="#DejaVuSans-115"/>
     <use x="1969.570312" xlink:href="#DejaVuSans-116"/>
     <use x="2008.779297" xlink:href="#DejaVuSans-97"/>
     <use x="2070.058594" xlink:href="#DejaVuSans-110"/>
     <use x="2133.4375" xlink:href="#DejaVuSans-99"/>
     <use x="2188.417969" xlink:href="#DejaVuSans-101"/>
     <use x="2249.941406" xlink:href="#DejaVuSans-58"/>
    </g>
   </g>
  </g>
 </g>
 <defs>
  <clipPath id="p54ae87b21d">
   <rect height="266.112" width="357.12" x="57.6" y="41.472"/>
  </clipPath>
 </defs>
</svg>
