<?xml version="1.0" encoding="utf-8" standalone="no"?>
<!DOCTYPE svg PUBLIC "-//W3C//DTD SVG 1.1//EN"
  "http://www.w3.org/Graphics/SVG/1.1/DTD/svg11.dtd">
<!-- Created with matplotlib (https://matplotlib.org/) -->
<svg height="345.6pt" version="1.1" viewBox="0 0 460.8 345.6" width="460.8pt" xmlns="http://www.w3.org/2000/svg" xmlns:xlink="http://www.w3.org/1999/xlink">
 <defs>
  <style type="text/css">
*{stroke-linecap:butt;stroke-linejoin:round;}
  </style>
 </defs>
 <g id="figure_1">
  <g id="patch_1">
   <path d="M 0 345.6 
L 460.8 345.6 
L 460.8 0 
L 0 0 
z
" style="fill:#ffffff;"/>
  </g>
  <g id="axes_1">
   <g id="patch_2">
    <path d="M 57.6 307.584 
L 414.72 307.584 
L 414.72 41.472 
L 57.6 41.472 
z
" style="fill:#ffffff;"/>
   </g>
   <g id="matplotlib.axis_1">
    <g id="xtick_1">
     <g id="line2d_1">
      <defs>
       <path d="M 0 0 
L 0 3.5 
" id="m6be0555788" style="stroke:#000000;stroke-width:0.8;"/>
      </defs>
      <g>
       <use style="stroke:#000000;stroke-width:0.8;" x="73.832727" xlink:href="#m6be0555788" y="307.584"/>
      </g>
     </g>
     <g id="text_1">
      <!-- 0 -->
      <defs>
       <path d="M 31.78125 66.40625 
Q 24.171875 66.40625 20.328125 58.90625 
Q 16.5 51.421875 16.5 36.375 
Q 16.5 21.390625 20.328125 13.890625 
Q 24.171875 6.390625 31.78125 6.390625 
Q 39.453125 6.390625 43.28125 13.890625 
Q 47.125 21.390625 47.125 36.375 
Q 47.125 51.421875 43.28125 58.90625 
Q 39.453125 66.40625 31.78125 66.40625 
z
M 31.78125 74.21875 
Q 44.046875 74.21875 50.515625 64.515625 
Q 56.984375 54.828125 56.984375 36.375 
Q 56.984375 17.96875 50.515625 8.265625 
Q 44.046875 -1.421875 31.78125 -1.421875 
Q 19.53125 -1.421875 13.0625 8.265625 
Q 6.59375 17.96875 6.59375 36.375 
Q 6.59375 54.828125 13.0625 64.515625 
Q 19.53125 74.21875 31.78125 74.21875 
z
" id="DejaVuSans-48"/>
      </defs>
      <g transform="translate(70.651477 322.182437)scale(0.1 -0.1)">
       <use xlink:href="#DejaVuSans-48"/>
      </g>
     </g>
    </g>
    <g id="xtick_2">
     <g id="line2d_2">
      <g>
       <use style="stroke:#000000;stroke-width:0.8;" x="150.856344" xlink:href="#m6be0555788" y="307.584"/>
      </g>
     </g>
     <g id="text_2">
      <!-- 200 -->
      <defs>
       <path d="M 19.1875 8.296875 
L 53.609375 8.296875 
L 53.609375 0 
L 7.328125 0 
L 7.328125 8.296875 
Q 12.9375 14.109375 22.625 23.890625 
Q 32.328125 33.6875 34.8125 36.53125 
Q 39.546875 41.84375 41.421875 45.53125 
Q 43.3125 49.21875 43.3125 52.78125 
Q 43.3125 58.59375 39.234375 62.25 
Q 35.15625 65.921875 28.609375 65.921875 
Q 23.96875 65.921875 18.8125 64.3125 
Q 13.671875 62.703125 7.8125 59.421875 
L 7.8125 69.390625 
Q 13.765625 71.78125 18.9375 73 
Q 24.125 74.21875 28.421875 74.21875 
Q 39.75 74.21875 46.484375 68.546875 
Q 53.21875 62.890625 53.21875 53.421875 
Q 53.21875 48.921875 51.53125 44.890625 
Q 49.859375 40.875 45.40625 35.40625 
Q 44.1875 33.984375 37.640625 27.21875 
Q 31.109375 20.453125 19.1875 8.296875 
z
" id="DejaVuSans-50"/>
      </defs>
      <g transform="translate(141.312594 322.182437)scale(0.1 -0.1)">
       <use xlink:href="#DejaVuSans-50"/>
       <use x="63.623047" xlink:href="#DejaVuSans-48"/>
       <use x="127.246094" xlink:href="#DejaVuSans-48"/>
      </g>
     </g>
    </g>
    <g id="xtick_3">
     <g id="line2d_3">
      <g>
       <use style="stroke:#000000;stroke-width:0.8;" x="227.879961" xlink:href="#m6be0555788" y="307.584"/>
      </g>
     </g>
     <g id="text_3">
      <!-- 400 -->
      <defs>
       <path d="M 37.796875 64.3125 
L 12.890625 25.390625 
L 37.796875 25.390625 
z
M 35.203125 72.90625 
L 47.609375 72.90625 
L 47.609375 25.390625 
L 58.015625 25.390625 
L 58.015625 17.1875 
L 47.609375 17.1875 
L 47.609375 0 
L 37.796875 0 
L 37.796875 17.1875 
L 4.890625 17.1875 
L 4.890625 26.703125 
z
" id="DejaVuSans-52"/>
      </defs>
      <g transform="translate(218.336211 322.182437)scale(0.1 -0.1)">
       <use xlink:href="#DejaVuSans-52"/>
       <use x="63.623047" xlink:href="#DejaVuSans-48"/>
       <use x="127.246094" xlink:href="#DejaVuSans-48"/>
      </g>
     </g>
    </g>
    <g id="xtick_4">
     <g id="line2d_4">
      <g>
       <use style="stroke:#000000;stroke-width:0.8;" x="304.903578" xlink:href="#m6be0555788" y="307.584"/>
      </g>
     </g>
     <g id="text_4">
      <!-- 600 -->
      <defs>
       <path d="M 33.015625 40.375 
Q 26.375 40.375 22.484375 35.828125 
Q 18.609375 31.296875 18.609375 23.390625 
Q 18.609375 15.53125 22.484375 10.953125 
Q 26.375 6.390625 33.015625 6.390625 
Q 39.65625 6.390625 43.53125 10.953125 
Q 47.40625 15.53125 47.40625 23.390625 
Q 47.40625 31.296875 43.53125 35.828125 
Q 39.65625 40.375 33.015625 40.375 
z
M 52.59375 71.296875 
L 52.59375 62.3125 
Q 48.875 64.0625 45.09375 64.984375 
Q 41.3125 65.921875 37.59375 65.921875 
Q 27.828125 65.921875 22.671875 59.328125 
Q 17.53125 52.734375 16.796875 39.40625 
Q 19.671875 43.65625 24.015625 45.921875 
Q 28.375 48.1875 33.59375 48.1875 
Q 44.578125 48.1875 50.953125 41.515625 
Q 57.328125 34.859375 57.328125 23.390625 
Q 57.328125 12.15625 50.6875 5.359375 
Q 44.046875 -1.421875 33.015625 -1.421875 
Q 20.359375 -1.421875 13.671875 8.265625 
Q 6.984375 17.96875 6.984375 36.375 
Q 6.984375 53.65625 15.1875 63.9375 
Q 23.390625 74.21875 37.203125 74.21875 
Q 40.921875 74.21875 44.703125 73.484375 
Q 48.484375 72.75 52.59375 71.296875 
z
" id="DejaVuSans-54"/>
      </defs>
      <g transform="translate(295.359828 322.182437)scale(0.1 -0.1)">
       <use xlink:href="#DejaVuSans-54"/>
       <use x="63.623047" xlink:href="#DejaVuSans-48"/>
       <use x="127.246094" xlink:href="#DejaVuSans-48"/>
      </g>
     </g>
    </g>
    <g id="xtick_5">
     <g id="line2d_5">
      <g>
       <use style="stroke:#000000;stroke-width:0.8;" x="381.927195" xlink:href="#m6be0555788" y="307.584"/>
      </g>
     </g>
     <g id="text_5">
      <!-- 800 -->
      <defs>
       <path d="M 31.78125 34.625 
Q 24.75 34.625 20.71875 30.859375 
Q 16.703125 27.09375 16.703125 20.515625 
Q 16.703125 13.921875 20.71875 10.15625 
Q 24.75 6.390625 31.78125 6.390625 
Q 38.8125 6.390625 42.859375 10.171875 
Q 46.921875 13.96875 46.921875 20.515625 
Q 46.921875 27.09375 42.890625 30.859375 
Q 38.875 34.625 31.78125 34.625 
z
M 21.921875 38.8125 
Q 15.578125 40.375 12.03125 44.71875 
Q 8.5 49.078125 8.5 55.328125 
Q 8.5 64.0625 14.71875 69.140625 
Q 20.953125 74.21875 31.78125 74.21875 
Q 42.671875 74.21875 48.875 69.140625 
Q 55.078125 64.0625 55.078125 55.328125 
Q 55.078125 49.078125 51.53125 44.71875 
Q 48 40.375 41.703125 38.8125 
Q 48.828125 37.15625 52.796875 32.3125 
Q 56.78125 27.484375 56.78125 20.515625 
Q 56.78125 9.90625 50.3125 4.234375 
Q 43.84375 -1.421875 31.78125 -1.421875 
Q 19.734375 -1.421875 13.25 4.234375 
Q 6.78125 9.90625 6.78125 20.515625 
Q 6.78125 27.484375 10.78125 32.3125 
Q 14.796875 37.15625 21.921875 38.8125 
z
M 18.3125 54.390625 
Q 18.3125 48.734375 21.84375 45.5625 
Q 25.390625 42.390625 31.78125 42.390625 
Q 38.140625 42.390625 41.71875 45.5625 
Q 45.3125 48.734375 45.3125 54.390625 
Q 45.3125 60.0625 41.71875 63.234375 
Q 38.140625 66.40625 31.78125 66.40625 
Q 25.390625 66.40625 21.84375 63.234375 
Q 18.3125 60.0625 18.3125 54.390625 
z
" id="DejaVuSans-56"/>
      </defs>
      <g transform="translate(372.383445 322.182437)scale(0.1 -0.1)">
       <use xlink:href="#DejaVuSans-56"/>
       <use x="63.623047" xlink:href="#DejaVuSans-48"/>
       <use x="127.246094" xlink:href="#DejaVuSans-48"/>
      </g>
     </g>
    </g>
    <g id="text_6">
     <!-- gene position -->
     <defs>
      <path d="M 45.40625 27.984375 
Q 45.40625 37.75 41.375 43.109375 
Q 37.359375 48.484375 30.078125 48.484375 
Q 22.859375 48.484375 18.828125 43.109375 
Q 14.796875 37.75 14.796875 27.984375 
Q 14.796875 18.265625 18.828125 12.890625 
Q 22.859375 7.515625 30.078125 7.515625 
Q 37.359375 7.515625 41.375 12.890625 
Q 45.40625 18.265625 45.40625 27.984375 
z
M 54.390625 6.78125 
Q 54.390625 -7.171875 48.1875 -13.984375 
Q 42 -20.796875 29.203125 -20.796875 
Q 24.46875 -20.796875 20.265625 -20.09375 
Q 16.0625 -19.390625 12.109375 -17.921875 
L 12.109375 -9.1875 
Q 16.0625 -11.328125 19.921875 -12.34375 
Q 23.78125 -13.375 27.78125 -13.375 
Q 36.625 -13.375 41.015625 -8.765625 
Q 45.40625 -4.15625 45.40625 5.171875 
L 45.40625 9.625 
Q 42.625 4.78125 38.28125 2.390625 
Q 33.9375 0 27.875 0 
Q 17.828125 0 11.671875 7.65625 
Q 5.515625 15.328125 5.515625 27.984375 
Q 5.515625 40.671875 11.671875 48.328125 
Q 17.828125 56 27.875 56 
Q 33.9375 56 38.28125 53.609375 
Q 42.625 51.21875 45.40625 46.390625 
L 45.40625 54.6875 
L 54.390625 54.6875 
z
" id="DejaVuSans-103"/>
      <path d="M 56.203125 29.59375 
L 56.203125 25.203125 
L 14.890625 25.203125 
Q 15.484375 15.921875 20.484375 11.0625 
Q 25.484375 6.203125 34.421875 6.203125 
Q 39.59375 6.203125 44.453125 7.46875 
Q 49.3125 8.734375 54.109375 11.28125 
L 54.109375 2.78125 
Q 49.265625 0.734375 44.1875 -0.34375 
Q 39.109375 -1.421875 33.890625 -1.421875 
Q 20.796875 -1.421875 13.15625 6.1875 
Q 5.515625 13.8125 5.515625 26.8125 
Q 5.515625 40.234375 12.765625 48.109375 
Q 20.015625 56 32.328125 56 
Q 43.359375 56 49.78125 48.890625 
Q 56.203125 41.796875 56.203125 29.59375 
z
M 47.21875 32.234375 
Q 47.125 39.59375 43.09375 43.984375 
Q 39.0625 48.390625 32.421875 48.390625 
Q 24.90625 48.390625 20.390625 44.140625 
Q 15.875 39.890625 15.1875 32.171875 
z
" id="DejaVuSans-101"/>
      <path d="M 54.890625 33.015625 
L 54.890625 0 
L 45.90625 0 
L 45.90625 32.71875 
Q 45.90625 40.484375 42.875 44.328125 
Q 39.84375 48.1875 33.796875 48.1875 
Q 26.515625 48.1875 22.3125 43.546875 
Q 18.109375 38.921875 18.109375 30.90625 
L 18.109375 0 
L 9.078125 0 
L 9.078125 54.6875 
L 18.109375 54.6875 
L 18.109375 46.1875 
Q 21.34375 51.125 25.703125 53.5625 
Q 30.078125 56 35.796875 56 
Q 45.21875 56 50.046875 50.171875 
Q 54.890625 44.34375 54.890625 33.015625 
z
" id="DejaVuSans-110"/>
      <path id="DejaVuSans-32"/>
      <path d="M 18.109375 8.203125 
L 18.109375 -20.796875 
L 9.078125 -20.796875 
L 9.078125 54.6875 
L 18.109375 54.6875 
L 18.109375 46.390625 
Q 20.953125 51.265625 25.265625 53.625 
Q 29.59375 56 35.59375 56 
Q 45.5625 56 51.78125 48.09375 
Q 58.015625 40.1875 58.015625 27.296875 
Q 58.015625 14.40625 51.78125 6.484375 
Q 45.5625 -1.421875 35.59375 -1.421875 
Q 29.59375 -1.421875 25.265625 0.953125 
Q 20.953125 3.328125 18.109375 8.203125 
z
M 48.6875 27.296875 
Q 48.6875 37.203125 44.609375 42.84375 
Q 40.53125 48.484375 33.40625 48.484375 
Q 26.265625 48.484375 22.1875 42.84375 
Q 18.109375 37.203125 18.109375 27.296875 
Q 18.109375 17.390625 22.1875 11.75 
Q 26.265625 6.109375 33.40625 6.109375 
Q 40.53125 6.109375 44.609375 11.75 
Q 48.6875 17.390625 48.6875 27.296875 
z
" id="DejaVuSans-112"/>
      <path d="M 30.609375 48.390625 
Q 23.390625 48.390625 19.1875 42.75 
Q 14.984375 37.109375 14.984375 27.296875 
Q 14.984375 17.484375 19.15625 11.84375 
Q 23.34375 6.203125 30.609375 6.203125 
Q 37.796875 6.203125 41.984375 11.859375 
Q 46.1875 17.53125 46.1875 27.296875 
Q 46.1875 37.015625 41.984375 42.703125 
Q 37.796875 48.390625 30.609375 48.390625 
z
M 30.609375 56 
Q 42.328125 56 49.015625 48.375 
Q 55.71875 40.765625 55.71875 27.296875 
Q 55.71875 13.875 49.015625 6.21875 
Q 42.328125 -1.421875 30.609375 -1.421875 
Q 18.84375 -1.421875 12.171875 6.21875 
Q 5.515625 13.875 5.515625 27.296875 
Q 5.515625 40.765625 12.171875 48.375 
Q 18.84375 56 30.609375 56 
z
" id="DejaVuSans-111"/>
      <path d="M 44.28125 53.078125 
L 44.28125 44.578125 
Q 40.484375 46.53125 36.375 47.5 
Q 32.28125 48.484375 27.875 48.484375 
Q 21.1875 48.484375 17.84375 46.4375 
Q 14.5 44.390625 14.5 40.28125 
Q 14.5 37.15625 16.890625 35.375 
Q 19.28125 33.59375 26.515625 31.984375 
L 29.59375 31.296875 
Q 39.15625 29.25 43.1875 25.515625 
Q 47.21875 21.78125 47.21875 15.09375 
Q 47.21875 7.46875 41.1875 3.015625 
Q 35.15625 -1.421875 24.609375 -1.421875 
Q 20.21875 -1.421875 15.453125 -0.5625 
Q 10.6875 0.296875 5.421875 2 
L 5.421875 11.28125 
Q 10.40625 8.6875 15.234375 7.390625 
Q 20.0625 6.109375 24.8125 6.109375 
Q 31.15625 6.109375 34.5625 8.28125 
Q 37.984375 10.453125 37.984375 14.40625 
Q 37.984375 18.0625 35.515625 20.015625 
Q 33.0625 21.96875 24.703125 23.78125 
L 21.578125 24.515625 
Q 13.234375 26.265625 9.515625 29.90625 
Q 5.8125 33.546875 5.8125 39.890625 
Q 5.8125 47.609375 11.28125 51.796875 
Q 16.75 56 26.8125 56 
Q 31.78125 56 36.171875 55.265625 
Q 40.578125 54.546875 44.28125 53.078125 
z
" id="DejaVuSans-115"/>
      <path d="M 9.421875 54.6875 
L 18.40625 54.6875 
L 18.40625 0 
L 9.421875 0 
z
M 9.421875 75.984375 
L 18.40625 75.984375 
L 18.40625 64.59375 
L 9.421875 64.59375 
z
" id="DejaVuSans-105"/>
      <path d="M 18.3125 70.21875 
L 18.3125 54.6875 
L 36.8125 54.6875 
L 36.8125 47.703125 
L 18.3125 47.703125 
L 18.3125 18.015625 
Q 18.3125 11.328125 20.140625 9.421875 
Q 21.96875 7.515625 27.59375 7.515625 
L 36.8125 7.515625 
L 36.8125 0 
L 27.59375 0 
Q 17.1875 0 13.234375 3.875 
Q 9.28125 7.765625 9.28125 18.015625 
L 9.28125 47.703125 
L 2.6875 47.703125 
L 2.6875 54.6875 
L 9.28125 54.6875 
L 9.28125 70.21875 
z
" id="DejaVuSans-116"/>
     </defs>
     <g transform="translate(202.270156 335.860562)scale(0.1 -0.1)">
      <use xlink:href="#DejaVuSans-103"/>
      <use x="63.476562" xlink:href="#DejaVuSans-101"/>
      <use x="125" xlink:href="#DejaVuSans-110"/>
      <use x="188.378906" xlink:href="#DejaVuSans-101"/>
      <use x="249.902344" xlink:href="#DejaVuSans-32"/>
      <use x="281.689453" xlink:href="#DejaVuSans-112"/>
      <use x="345.166016" xlink:href="#DejaVuSans-111"/>
      <use x="406.347656" xlink:href="#DejaVuSans-115"/>
      <use x="458.447266" xlink:href="#DejaVuSans-105"/>
      <use x="486.230469" xlink:href="#DejaVuSans-116"/>
      <use x="525.439453" xlink:href="#DejaVuSans-105"/>
      <use x="553.222656" xlink:href="#DejaVuSans-111"/>
      <use x="614.404297" xlink:href="#DejaVuSans-110"/>
     </g>
    </g>
   </g>
   <g id="matplotlib.axis_2">
    <g id="ytick_1">
     <g id="line2d_6">
      <defs>
       <path d="M 0 0 
L -3.5 0 
" id="m7ad73881ee" style="stroke:#000000;stroke-width:0.8;"/>
      </defs>
      <g>
       <use style="stroke:#000000;stroke-width:0.8;" x="57.6" xlink:href="#m7ad73881ee" y="307.584"/>
      </g>
     </g>
     <g id="text_7">
      <!-- 0 -->
      <g transform="translate(44.2375 311.383219)scale(0.1 -0.1)">
       <use xlink:href="#DejaVuSans-48"/>
      </g>
     </g>
    </g>
    <g id="ytick_2">
     <g id="line2d_7">
      <g>
       <use style="stroke:#000000;stroke-width:0.8;" x="57.6" xlink:href="#m7ad73881ee" y="265.344"/>
      </g>
     </g>
     <g id="text_8">
      <!-- 10 -->
      <defs>
       <path d="M 12.40625 8.296875 
L 28.515625 8.296875 
L 28.515625 63.921875 
L 10.984375 60.40625 
L 10.984375 69.390625 
L 28.421875 72.90625 
L 38.28125 72.90625 
L 38.28125 8.296875 
L 54.390625 8.296875 
L 54.390625 0 
L 12.40625 0 
z
" id="DejaVuSans-49"/>
      </defs>
      <g transform="translate(37.875 269.143219)scale(0.1 -0.1)">
       <use xlink:href="#DejaVuSans-49"/>
       <use x="63.623047" xlink:href="#DejaVuSans-48"/>
      </g>
     </g>
    </g>
    <g id="ytick_3">
     <g id="line2d_8">
      <g>
       <use style="stroke:#000000;stroke-width:0.8;" x="57.6" xlink:href="#m7ad73881ee" y="223.104"/>
      </g>
     </g>
     <g id="text_9">
      <!-- 20 -->
      <g transform="translate(37.875 226.903219)scale(0.1 -0.1)">
       <use xlink:href="#DejaVuSans-50"/>
       <use x="63.623047" xlink:href="#DejaVuSans-48"/>
      </g>
     </g>
    </g>
    <g id="ytick_4">
     <g id="line2d_9">
      <g>
       <use style="stroke:#000000;stroke-width:0.8;" x="57.6" xlink:href="#m7ad73881ee" y="180.864"/>
      </g>
     </g>
     <g id="text_10">
      <!-- 30 -->
      <defs>
       <path d="M 40.578125 39.3125 
Q 47.65625 37.796875 51.625 33 
Q 55.609375 28.21875 55.609375 21.1875 
Q 55.609375 10.40625 48.1875 4.484375 
Q 40.765625 -1.421875 27.09375 -1.421875 
Q 22.515625 -1.421875 17.65625 -0.515625 
Q 12.796875 0.390625 7.625 2.203125 
L 7.625 11.71875 
Q 11.71875 9.328125 16.59375 8.109375 
Q 21.484375 6.890625 26.8125 6.890625 
Q 36.078125 6.890625 40.9375 10.546875 
Q 45.796875 14.203125 45.796875 21.1875 
Q 45.796875 27.640625 41.28125 31.265625 
Q 36.765625 34.90625 28.71875 34.90625 
L 20.21875 34.90625 
L 20.21875 43.015625 
L 29.109375 43.015625 
Q 36.375 43.015625 40.234375 45.921875 
Q 44.09375 48.828125 44.09375 54.296875 
Q 44.09375 59.90625 40.109375 62.90625 
Q 36.140625 65.921875 28.71875 65.921875 
Q 24.65625 65.921875 20.015625 65.03125 
Q 15.375 64.15625 9.8125 62.3125 
L 9.8125 71.09375 
Q 15.4375 72.65625 20.34375 73.4375 
Q 25.25 74.21875 29.59375 74.21875 
Q 40.828125 74.21875 47.359375 69.109375 
Q 53.90625 64.015625 53.90625 55.328125 
Q 53.90625 49.265625 50.4375 45.09375 
Q 46.96875 40.921875 40.578125 39.3125 
z
" id="DejaVuSans-51"/>
      </defs>
      <g transform="translate(37.875 184.663219)scale(0.1 -0.1)">
       <use xlink:href="#DejaVuSans-51"/>
       <use x="63.623047" xlink:href="#DejaVuSans-48"/>
      </g>
     </g>
    </g>
    <g id="ytick_5">
     <g id="line2d_10">
      <g>
       <use style="stroke:#000000;stroke-width:0.8;" x="57.6" xlink:href="#m7ad73881ee" y="138.624"/>
      </g>
     </g>
     <g id="text_11">
      <!-- 40 -->
      <g transform="translate(37.875 142.423219)scale(0.1 -0.1)">
       <use xlink:href="#DejaVuSans-52"/>
       <use x="63.623047" xlink:href="#DejaVuSans-48"/>
      </g>
     </g>
    </g>
    <g id="ytick_6">
     <g id="line2d_11">
      <g>
       <use style="stroke:#000000;stroke-width:0.8;" x="57.6" xlink:href="#m7ad73881ee" y="96.384"/>
      </g>
     </g>
     <g id="text_12">
      <!-- 50 -->
      <defs>
       <path d="M 10.796875 72.90625 
L 49.515625 72.90625 
L 49.515625 64.59375 
L 19.828125 64.59375 
L 19.828125 46.734375 
Q 21.96875 47.46875 24.109375 47.828125 
Q 26.265625 48.1875 28.421875 48.1875 
Q 40.625 48.1875 47.75 41.5 
Q 54.890625 34.8125 54.890625 23.390625 
Q 54.890625 11.625 47.5625 5.09375 
Q 40.234375 -1.421875 26.90625 -1.421875 
Q 22.3125 -1.421875 17.546875 -0.640625 
Q 12.796875 0.140625 7.71875 1.703125 
L 7.71875 11.625 
Q 12.109375 9.234375 16.796875 8.0625 
Q 21.484375 6.890625 26.703125 6.890625 
Q 35.15625 6.890625 40.078125 11.328125 
Q 45.015625 15.765625 45.015625 23.390625 
Q 45.015625 31 40.078125 35.4375 
Q 35.15625 39.890625 26.703125 39.890625 
Q 22.75 39.890625 18.8125 39.015625 
Q 14.890625 38.140625 10.796875 36.28125 
z
" id="DejaVuSans-53"/>
      </defs>
      <g transform="translate(37.875 100.183219)scale(0.1 -0.1)">
       <use xlink:href="#DejaVuSans-53"/>
       <use x="63.623047" xlink:href="#DejaVuSans-48"/>
      </g>
     </g>
    </g>
    <g id="ytick_7">
     <g id="line2d_12">
      <g>
       <use style="stroke:#000000;stroke-width:0.8;" x="57.6" xlink:href="#m7ad73881ee" y="54.144"/>
      </g>
     </g>
     <g id="text_13">
      <!-- 60 -->
      <g transform="translate(37.875 57.943219)scale(0.1 -0.1)">
       <use xlink:href="#DejaVuSans-54"/>
       <use x="63.623047" xlink:href="#DejaVuSans-48"/>
      </g>
     </g>
    </g>
    <g id="text_14">
     <!-- depth -->
     <defs>
      <path d="M 45.40625 46.390625 
L 45.40625 75.984375 
L 54.390625 75.984375 
L 54.390625 0 
L 45.40625 0 
L 45.40625 8.203125 
Q 42.578125 3.328125 38.25 0.953125 
Q 33.9375 -1.421875 27.875 -1.421875 
Q 17.96875 -1.421875 11.734375 6.484375 
Q 5.515625 14.40625 5.515625 27.296875 
Q 5.515625 40.1875 11.734375 48.09375 
Q 17.96875 56 27.875 56 
Q 33.9375 56 38.25 53.625 
Q 42.578125 51.265625 45.40625 46.390625 
z
M 14.796875 27.296875 
Q 14.796875 17.390625 18.875 11.75 
Q 22.953125 6.109375 30.078125 6.109375 
Q 37.203125 6.109375 41.296875 11.75 
Q 45.40625 17.390625 45.40625 27.296875 
Q 45.40625 37.203125 41.296875 42.84375 
Q 37.203125 48.484375 30.078125 48.484375 
Q 22.953125 48.484375 18.875 42.84375 
Q 14.796875 37.203125 14.796875 27.296875 
z
" id="DejaVuSans-100"/>
      <path d="M 54.890625 33.015625 
L 54.890625 0 
L 45.90625 0 
L 45.90625 32.71875 
Q 45.90625 40.484375 42.875 44.328125 
Q 39.84375 48.1875 33.796875 48.1875 
Q 26.515625 48.1875 22.3125 43.546875 
Q 18.109375 38.921875 18.109375 30.90625 
L 18.109375 0 
L 9.078125 0 
L 9.078125 75.984375 
L 18.109375 75.984375 
L 18.109375 46.1875 
Q 21.34375 51.125 25.703125 53.5625 
Q 30.078125 56 35.796875 56 
Q 45.21875 56 50.046875 50.171875 
Q 54.890625 44.34375 54.890625 33.015625 
z
" id="DejaVuSans-104"/>
     </defs>
     <g transform="translate(31.795312 189.081906)rotate(-90)scale(0.1 -0.1)">
      <use xlink:href="#DejaVuSans-100"/>
      <use x="63.476562" xlink:href="#DejaVuSans-101"/>
      <use x="125" xlink:href="#DejaVuSans-112"/>
      <use x="188.476562" xlink:href="#DejaVuSans-116"/>
      <use x="227.685547" xlink:href="#DejaVuSans-104"/>
     </g>
    </g>
   </g>
   <g id="line2d_13">
    <path clip-path="url(#p0204a0157c)" d="M 73.832727 223.104 
L 74.603878 214.656 
L 74.989454 206.208 
L 75.760605 206.208 
L 76.14618 197.76 
L 76.531756 193.536 
L 77.302906 193.536 
L 77.688482 185.088 
L 78.074057 185.088 
L 78.459633 176.64 
L 78.845208 172.416 
L 79.230784 172.416 
L 81.158661 151.296 
L 81.929812 151.296 
L 82.700963 142.848 
L 85.785567 142.848 
L 86.556718 134.4 
L 88.484595 134.4 
L 88.870171 130.176 
L 89.255746 121.728 
L 89.641322 117.504 
L 90.026897 121.728 
L 90.412472 121.728 
L 90.798048 130.176 
L 91.183623 125.952 
L 91.569199 125.952 
L 91.954774 121.728 
L 93.111501 121.728 
L 93.497076 130.176 
L 94.268227 138.624 
L 95.039378 138.624 
L 95.424954 142.848 
L 96.196105 159.744 
L 96.58168 155.52 
L 96.967255 155.52 
L 97.352831 147.072 
L 98.123982 155.52 
L 98.509557 147.072 
L 99.280708 147.072 
L 99.666284 151.296 
L 100.051859 151.296 
L 100.437435 159.744 
L 100.82301 163.968 
L 101.208586 155.52 
L 102.365312 155.52 
L 103.136463 163.968 
L 103.907614 163.968 
L 104.293189 159.744 
L 104.678765 163.968 
L 105.06434 159.744 
L 105.449916 163.968 
L 106.221067 163.968 
L 106.606642 155.52 
L 107.377793 155.52 
L 107.763369 147.072 
L 108.53452 155.52 
L 108.920095 155.52 
L 109.30567 159.744 
L 109.691246 155.52 
L 110.076821 155.52 
L 110.462397 163.968 
L 111.619123 176.64 
L 112.004699 176.64 
L 112.390274 180.864 
L 112.77585 189.312 
L 113.161425 189.312 
L 113.547001 185.088 
L 113.932576 185.088 
L 114.703727 193.536 
L 115.089303 189.312 
L 116.246029 189.312 
L 116.631604 176.64 
L 117.01718 176.64 
L 117.402755 168.192 
L 117.788331 163.968 
L 118.173906 168.192 
L 119.330633 168.192 
L 119.716208 163.968 
L 120.101784 163.968 
L 120.487359 159.744 
L 121.644086 159.744 
L 122.029661 155.52 
L 122.415236 155.52 
L 122.800812 147.072 
L 123.186387 155.52 
L 123.571963 155.52 
L 123.957538 159.744 
L 125.114265 147.072 
L 125.885416 147.072 
L 126.270991 142.848 
L 126.656567 147.072 
L 127.427718 147.072 
L 128.198868 138.624 
L 128.584444 142.848 
L 128.970019 142.848 
L 129.355595 151.296 
L 129.74117 151.296 
L 130.126746 147.072 
L 130.512321 151.296 
L 130.897897 147.072 
L 131.283472 147.072 
L 131.669048 151.296 
L 132.054623 147.072 
L 132.825774 147.072 
L 133.21135 155.52 
L 133.596925 155.52 
L 133.982501 151.296 
L 134.368076 142.848 
L 135.524802 142.848 
L 136.295953 151.296 
L 136.681529 147.072 
L 137.067104 151.296 
L 137.45268 159.744 
L 137.838255 159.744 
L 138.223831 155.52 
L 138.609406 163.968 
L 138.994982 168.192 
L 139.380557 168.192 
L 139.766133 176.64 
L 140.151708 176.64 
L 140.537284 189.312 
L 141.308434 189.312 
L 141.69401 185.088 
L 143.236312 185.088 
L 143.621887 189.312 
L 144.007463 185.088 
L 144.778614 185.088 
L 145.164189 193.536 
L 145.549765 197.76 
L 145.93534 197.76 
L 146.320916 193.536 
L 146.706491 193.536 
L 147.092067 197.76 
L 147.477642 206.208 
L 147.863217 197.76 
L 148.248793 197.76 
L 148.634368 214.656 
L 149.019944 214.656 
L 149.405519 218.88 
L 149.791095 214.656 
L 150.562246 214.656 
L 150.947821 210.432 
L 151.333397 210.432 
L 151.718972 218.88 
L 152.104548 218.88 
L 153.261274 231.552 
L 153.646849 231.552 
L 154.032425 227.328 
L 154.418 227.328 
L 154.803576 231.552 
L 155.574727 231.552 
L 155.960302 218.88 
L 156.345878 218.88 
L 157.117029 227.328 
L 157.502604 227.328 
L 157.88818 223.104 
L 158.659331 223.104 
L 159.044906 218.88 
L 159.430482 218.88 
L 159.816057 214.656 
L 160.587208 223.104 
L 161.358359 223.104 
L 161.743934 218.88 
L 162.515085 227.328 
L 162.900661 223.104 
L 164.057387 223.104 
L 164.442963 214.656 
L 164.828538 210.432 
L 165.214114 214.656 
L 165.599689 210.432 
L 165.985265 210.432 
L 166.37084 214.656 
L 166.756415 214.656 
L 167.527566 206.208 
L 167.913142 189.312 
L 168.298717 193.536 
L 168.684293 185.088 
L 169.069868 185.088 
L 169.455444 176.64 
L 169.841019 172.416 
L 170.226595 176.64 
L 171.383321 176.64 
L 172.925623 159.744 
L 173.311198 151.296 
L 173.696774 155.52 
L 175.239076 138.624 
L 175.624651 138.624 
L 176.010227 142.848 
L 176.395802 142.848 
L 176.781378 147.072 
L 177.166953 147.072 
L 177.552529 151.296 
L 178.32368 142.848 
L 179.480406 142.848 
L 179.865981 138.624 
L 181.022708 138.624 
L 181.408283 142.848 
L 182.179434 142.848 
L 182.950585 134.4 
L 183.336161 142.848 
L 183.721736 134.4 
L 184.107312 134.4 
L 184.492887 142.848 
L 184.878463 142.848 
L 185.264038 134.4 
L 186.420764 134.4 
L 186.80634 138.624 
L 187.577491 138.624 
L 187.963066 130.176 
L 188.348642 130.176 
L 188.734217 125.952 
L 189.505368 134.4 
L 189.890944 134.4 
L 190.276519 138.624 
L 190.662095 134.4 
L 191.433246 134.4 
L 191.818821 142.848 
L 192.589972 142.848 
L 192.975547 147.072 
L 193.361123 142.848 
L 194.517849 142.848 
L 195.289 134.4 
L 195.674576 125.952 
L 196.445727 117.504 
L 196.831302 117.504 
L 197.216878 113.28 
L 197.602453 104.832 
L 197.988029 104.832 
L 198.373604 100.608 
L 198.759179 100.608 
L 199.53033 117.504 
L 200.687057 130.176 
L 201.072632 125.952 
L 201.458208 130.176 
L 201.843783 138.624 
L 203.00051 138.624 
L 203.386085 134.4 
L 203.771661 138.624 
L 204.157236 138.624 
L 204.542811 134.4 
L 204.928387 134.4 
L 205.313962 142.848 
L 206.085113 151.296 
L 206.470689 138.624 
L 206.856264 142.848 
L 207.24184 142.848 
L 208.012991 134.4 
L 208.398566 138.624 
L 208.784142 134.4 
L 209.555293 134.4 
L 209.940868 138.624 
L 210.712019 138.624 
L 211.097594 134.4 
L 211.48317 134.4 
L 211.868745 138.624 
L 212.639896 138.624 
L 213.025472 134.4 
L 213.411047 125.952 
L 214.182198 125.952 
L 214.953349 134.4 
L 215.338925 134.4 
L 215.7245 142.848 
L 216.495651 142.848 
L 216.881227 134.4 
L 217.266802 138.624 
L 217.652377 134.4 
L 218.037953 138.624 
L 218.809104 121.728 
L 219.194679 117.504 
L 219.580255 117.504 
L 219.96583 121.728 
L 220.351406 121.728 
L 220.736981 125.952 
L 221.122557 125.952 
L 221.508132 121.728 
L 221.893708 125.952 
L 222.279283 125.952 
L 222.664859 134.4 
L 223.050434 121.728 
L 224.20716 121.728 
L 224.592736 117.504 
L 225.363887 125.952 
L 226.135038 125.952 
L 226.520613 121.728 
L 227.291764 121.728 
L 227.67734 130.176 
L 228.062915 125.952 
L 228.448491 138.624 
L 228.834066 142.848 
L 229.219642 142.848 
L 229.605217 147.072 
L 229.990792 147.072 
L 230.376368 155.52 
L 231.91867 155.52 
L 232.304245 159.744 
L 232.689821 138.624 
L 234.232123 138.624 
L 235.003274 130.176 
L 235.388849 130.176 
L 235.774425 125.952 
L 236.16 125.952 
L 236.545575 134.4 
L 236.931151 134.4 
L 237.316726 121.728 
L 237.702302 117.504 
L 238.087877 117.504 
L 238.859028 125.952 
L 239.630179 142.848 
L 240.015755 138.624 
L 240.786906 147.072 
L 241.172481 147.072 
L 241.558057 142.848 
L 241.943632 147.072 
L 242.329208 147.072 
L 242.714783 142.848 
L 243.100358 147.072 
L 244.64266 147.072 
L 245.028236 142.848 
L 245.413811 147.072 
L 245.799387 147.072 
L 246.184962 142.848 
L 246.570538 142.848 
L 246.956113 134.4 
L 247.341689 134.4 
L 247.727264 138.624 
L 248.11284 138.624 
L 248.498415 142.848 
L 248.88399 155.52 
L 249.269566 155.52 
L 249.655141 159.744 
L 250.040717 155.52 
L 250.426292 159.744 
L 250.811868 159.744 
L 251.197443 168.192 
L 252.739745 168.192 
L 253.125321 172.416 
L 253.896472 172.416 
L 254.282047 168.192 
L 254.667623 168.192 
L 255.053198 172.416 
L 255.438773 172.416 
L 255.824349 176.64 
L 256.209924 168.192 
L 256.5955 168.192 
L 256.981075 172.416 
L 257.366651 180.864 
L 257.752226 185.088 
L 259.294528 168.192 
L 260.065679 185.088 
L 260.451255 185.088 
L 260.83683 180.864 
L 261.993556 180.864 
L 262.379132 168.192 
L 262.764707 163.968 
L 263.150283 168.192 
L 263.535858 163.968 
L 263.921434 163.968 
L 264.307009 159.744 
L 264.692585 172.416 
L 265.07816 172.416 
L 266.234887 159.744 
L 266.620462 159.744 
L 267.006038 151.296 
L 267.391613 138.624 
L 267.777189 130.176 
L 268.933915 130.176 
L 269.31949 142.848 
L 270.090641 151.296 
L 270.861792 151.296 
L 271.247368 155.52 
L 272.404094 155.52 
L 272.78967 142.848 
L 273.560821 142.848 
L 273.946396 134.4 
L 274.331971 134.4 
L 274.717547 138.624 
L 275.103122 138.624 
L 276.259849 125.952 
L 276.645424 113.28 
L 277.031 121.728 
L 277.416575 121.728 
L 277.802151 117.504 
L 278.187726 117.504 
L 278.573302 113.28 
L 279.344453 113.28 
L 279.730028 109.056 
L 280.501179 109.056 
L 280.886754 113.28 
L 281.657905 113.28 
L 282.043481 117.504 
L 282.429056 117.504 
L 282.814632 121.728 
L 283.585783 113.28 
L 283.971358 104.832 
L 284.742509 104.832 
L 285.128085 100.608 
L 285.899236 100.608 
L 286.284811 96.384 
L 286.670387 96.384 
L 287.055962 87.936 
L 287.441537 75.264 
L 288.212688 75.264 
L 288.598264 79.488 
L 288.983839 66.816 
L 290.140566 66.816 
L 290.526141 58.368 
L 290.911717 54.144 
L 291.297292 58.368 
L 292.068443 58.368 
L 292.454019 54.144 
L 292.839594 58.368 
L 293.99632 45.696 
L 294.381896 49.92 
L 294.767471 45.696 
L 295.153047 45.696 
L 295.538622 49.92 
L 295.924198 49.92 
L 296.309773 41.472 
L 296.695349 41.472 
L 297.080924 45.696 
L 297.852075 62.592 
L 298.237651 62.592 
L 298.623226 66.816 
L 299.008802 75.264 
L 299.779952 83.712 
L 301.70783 62.592 
L 302.864556 62.592 
L 303.250132 54.144 
L 303.635707 54.144 
L 304.406858 45.696 
L 305.178009 54.144 
L 305.563585 49.92 
L 305.94916 54.144 
L 306.334735 54.144 
L 306.720311 49.92 
L 307.105886 49.92 
L 307.491462 54.144 
L 307.877037 49.92 
L 308.262613 58.368 
L 308.648188 75.264 
L 309.419339 66.816 
L 309.804915 75.264 
L 310.19049 75.264 
L 310.961641 83.712 
L 311.732792 75.264 
L 312.118368 75.264 
L 312.889518 66.816 
L 313.275094 66.816 
L 313.660669 58.368 
L 314.046245 58.368 
L 314.43182 54.144 
L 315.202971 54.144 
L 315.588547 58.368 
L 315.974122 54.144 
L 316.745273 54.144 
L 317.130849 58.368 
L 317.902 49.92 
L 318.673151 49.92 
L 319.058726 54.144 
L 319.444301 66.816 
L 319.829877 66.816 
L 320.215452 71.04 
L 320.601028 71.04 
L 320.986603 79.488 
L 321.372179 83.712 
L 321.757754 83.712 
L 322.14333 87.936 
L 322.528905 100.608 
L 323.300056 92.16 
L 324.456783 92.16 
L 325.227933 100.608 
L 325.613509 109.056 
L 326.38466 117.504 
L 326.770235 130.176 
L 327.155811 125.952 
L 327.541386 125.952 
L 327.926962 117.504 
L 328.312537 121.728 
L 328.698113 121.728 
L 329.469264 113.28 
L 329.854839 113.28 
L 330.240415 109.056 
L 331.782716 109.056 
L 332.168292 100.608 
L 332.553867 104.832 
L 332.939443 100.608 
L 333.325018 109.056 
L 334.096169 109.056 
L 334.86732 100.608 
L 335.252896 109.056 
L 335.638471 109.056 
L 336.024047 113.28 
L 336.409622 104.832 
L 336.795198 100.608 
L 337.951924 100.608 
L 338.723075 109.056 
L 339.10865 109.056 
L 339.494226 104.832 
L 339.879801 113.28 
L 340.650952 113.28 
L 341.036528 109.056 
L 342.193254 121.728 
L 342.57883 121.728 
L 342.964405 130.176 
L 343.349981 121.728 
L 345.277858 121.728 
L 345.663433 125.952 
L 346.049009 125.952 
L 346.434584 130.176 
L 346.82016 125.952 
L 347.205735 130.176 
L 347.976886 130.176 
L 348.362462 125.952 
L 349.519188 125.952 
L 349.904764 121.728 
L 350.290339 125.952 
L 350.675914 121.728 
L 351.06149 125.952 
L 351.447065 121.728 
L 351.832641 121.728 
L 352.218216 125.952 
L 352.989367 125.952 
L 353.374943 130.176 
L 353.760518 130.176 
L 354.146094 125.952 
L 354.917245 125.952 
L 355.30282 134.4 
L 355.688396 130.176 
L 356.459547 138.624 
L 357.230697 138.624 
L 357.616273 130.176 
L 358.001848 130.176 
L 358.387424 125.952 
L 358.772999 125.952 
L 359.158575 121.728 
L 359.54415 121.728 
L 359.929726 134.4 
L 361.086452 134.4 
L 361.472028 130.176 
L 361.857603 130.176 
L 362.243179 134.4 
L 362.628754 125.952 
L 363.399905 125.952 
L 364.171056 134.4 
L 364.556631 134.4 
L 364.942207 138.624 
L 365.713358 138.624 
L 366.098933 134.4 
L 367.641235 134.4 
L 368.026811 138.624 
L 368.797962 155.52 
L 369.569113 155.52 
L 369.954688 151.296 
L 370.725839 151.296 
L 371.111414 142.848 
L 371.49699 147.072 
L 372.268141 147.072 
L 372.653716 151.296 
L 373.039292 142.848 
L 373.424867 142.848 
L 373.810443 134.4 
L 374.196018 130.176 
L 374.581594 130.176 
L 374.967169 125.952 
L 375.352745 134.4 
L 375.73832 138.624 
L 376.123895 138.624 
L 376.509471 142.848 
L 376.895046 142.848 
L 377.280622 138.624 
L 378.822924 138.624 
L 379.594075 147.072 
L 379.97965 147.072 
L 380.750801 138.624 
L 381.136377 138.624 
L 381.521952 142.848 
L 381.907528 151.296 
L 382.293103 142.848 
L 382.678678 147.072 
L 383.449829 147.072 
L 383.835405 151.296 
L 385.377707 151.296 
L 385.763282 155.52 
L 386.148858 163.968 
L 386.534433 163.968 
L 388.076735 180.864 
L 389.233461 180.864 
L 389.619037 185.088 
L 390.004612 185.088 
L 390.390188 189.312 
L 392.703641 189.312 
L 393.474792 197.76 
L 393.860367 197.76 
L 394.631518 206.208 
L 395.788244 206.208 
L 396.17382 214.656 
L 397.330546 214.656 
L 397.716122 218.88 
L 398.487273 218.88 
L 398.487273 218.88 
" style="fill:none;stroke:#0000ff;stroke-linecap:square;stroke-width:1.5;"/>
   </g>
   <g id="patch_3">
    <path d="M 57.6 307.584 
L 57.6 41.472 
" style="fill:none;stroke:#000000;stroke-linecap:square;stroke-linejoin:miter;stroke-width:0.8;"/>
   </g>
   <g id="patch_4">
    <path d="M 414.72 307.584 
L 414.72 41.472 
" style="fill:none;stroke:#000000;stroke-linecap:square;stroke-linejoin:miter;stroke-width:0.8;"/>
   </g>
   <g id="patch_5">
    <path d="M 57.6 307.584 
L 414.72 307.584 
" style="fill:none;stroke:#000000;stroke-linecap:square;stroke-linejoin:miter;stroke-width:0.8;"/>
   </g>
   <g id="patch_6">
    <path d="M 57.6 41.472 
L 414.72 41.472 
" style="fill:none;stroke:#000000;stroke-linecap:square;stroke-linejoin:miter;stroke-width:0.8;"/>
   </g>
   <g id="text_15">
    <!-- &gt;aac(3)-IIa_1_CP023555.1 Aminoglycoside resistance: -->
    <defs>
     <path d="M 10.59375 49.21875 
L 10.59375 58.109375 
L 73.1875 35.40625 
L 73.1875 27.296875 
L 10.59375 4.59375 
L 10.59375 13.484375 
L 60.890625 31.296875 
z
" id="DejaVuSans-62"/>
     <path d="M 34.28125 27.484375 
Q 23.390625 27.484375 19.1875 25 
Q 14.984375 22.515625 14.984375 16.5 
Q 14.984375 11.71875 18.140625 8.90625 
Q 21.296875 6.109375 26.703125 6.109375 
Q 34.1875 6.109375 38.703125 11.40625 
Q 43.21875 16.703125 43.21875 25.484375 
L 43.21875 27.484375 
z
M 52.203125 31.203125 
L 52.203125 0 
L 43.21875 0 
L 43.21875 8.296875 
Q 40.140625 3.328125 35.546875 0.953125 
Q 30.953125 -1.421875 24.3125 -1.421875 
Q 15.921875 -1.421875 10.953125 3.296875 
Q 6 8.015625 6 15.921875 
Q 6 25.140625 12.171875 29.828125 
Q 18.359375 34.515625 30.609375 34.515625 
L 43.21875 34.515625 
L 43.21875 35.40625 
Q 43.21875 41.609375 39.140625 45 
Q 35.0625 48.390625 27.6875 48.390625 
Q 23 48.390625 18.546875 47.265625 
Q 14.109375 46.140625 10.015625 43.890625 
L 10.015625 52.203125 
Q 14.9375 54.109375 19.578125 55.046875 
Q 24.21875 56 28.609375 56 
Q 40.484375 56 46.34375 49.84375 
Q 52.203125 43.703125 52.203125 31.203125 
z
" id="DejaVuSans-97"/>
     <path d="M 48.78125 52.59375 
L 48.78125 44.1875 
Q 44.96875 46.296875 41.140625 47.34375 
Q 37.3125 48.390625 33.40625 48.390625 
Q 24.65625 48.390625 19.8125 42.84375 
Q 14.984375 37.3125 14.984375 27.296875 
Q 14.984375 17.28125 19.8125 11.734375 
Q 24.65625 6.203125 33.40625 6.203125 
Q 37.3125 6.203125 41.140625 7.25 
Q 44.96875 8.296875 48.78125 10.40625 
L 48.78125 2.09375 
Q 45.015625 0.34375 40.984375 -0.53125 
Q 36.96875 -1.421875 32.421875 -1.421875 
Q 20.0625 -1.421875 12.78125 6.34375 
Q 5.515625 14.109375 5.515625 27.296875 
Q 5.515625 40.671875 12.859375 48.328125 
Q 20.21875 56 33.015625 56 
Q 37.15625 56 41.109375 55.140625 
Q 45.0625 54.296875 48.78125 52.59375 
z
" id="DejaVuSans-99"/>
     <path d="M 31 75.875 
Q 24.46875 64.65625 21.28125 53.65625 
Q 18.109375 42.671875 18.109375 31.390625 
Q 18.109375 20.125 21.3125 9.0625 
Q 24.515625 -2 31 -13.1875 
L 23.1875 -13.1875 
Q 15.875 -1.703125 12.234375 9.375 
Q 8.59375 20.453125 8.59375 31.390625 
Q 8.59375 42.28125 12.203125 53.3125 
Q 15.828125 64.359375 23.1875 75.875 
z
" id="DejaVuSans-40"/>
     <path d="M 8.015625 75.875 
L 15.828125 75.875 
Q 23.140625 64.359375 26.78125 53.3125 
Q 30.421875 42.28125 30.421875 31.390625 
Q 30.421875 20.453125 26.78125 9.375 
Q 23.140625 -1.703125 15.828125 -13.1875 
L 8.015625 -13.1875 
Q 14.5 -2 17.703125 9.0625 
Q 20.90625 20.125 20.90625 31.390625 
Q 20.90625 42.671875 17.703125 53.65625 
Q 14.5 64.65625 8.015625 75.875 
z
" id="DejaVuSans-41"/>
     <path d="M 4.890625 31.390625 
L 31.203125 31.390625 
L 31.203125 23.390625 
L 4.890625 23.390625 
z
" id="DejaVuSans-45"/>
     <path d="M 9.8125 72.90625 
L 19.671875 72.90625 
L 19.671875 0 
L 9.8125 0 
z
" id="DejaVuSans-73"/>
     <path d="M 50.984375 -16.609375 
L 50.984375 -23.578125 
L -0.984375 -23.578125 
L -0.984375 -16.609375 
z
" id="DejaVuSans-95"/>
     <path d="M 64.40625 67.28125 
L 64.40625 56.890625 
Q 59.421875 61.53125 53.78125 63.8125 
Q 48.140625 66.109375 41.796875 66.109375 
Q 29.296875 66.109375 22.65625 58.46875 
Q 16.015625 50.828125 16.015625 36.375 
Q 16.015625 21.96875 22.65625 14.328125 
Q 29.296875 6.6875 41.796875 6.6875 
Q 48.140625 6.6875 53.78125 8.984375 
Q 59.421875 11.28125 64.40625 15.921875 
L 64.40625 5.609375 
Q 59.234375 2.09375 53.4375 0.328125 
Q 47.65625 -1.421875 41.21875 -1.421875 
Q 24.65625 -1.421875 15.125 8.703125 
Q 5.609375 18.84375 5.609375 36.375 
Q 5.609375 53.953125 15.125 64.078125 
Q 24.65625 74.21875 41.21875 74.21875 
Q 47.75 74.21875 53.53125 72.484375 
Q 59.328125 70.75 64.40625 67.28125 
z
" id="DejaVuSans-67"/>
     <path d="M 19.671875 64.796875 
L 19.671875 37.40625 
L 32.078125 37.40625 
Q 38.96875 37.40625 42.71875 40.96875 
Q 46.484375 44.53125 46.484375 51.125 
Q 46.484375 57.671875 42.71875 61.234375 
Q 38.96875 64.796875 32.078125 64.796875 
z
M 9.8125 72.90625 
L 32.078125 72.90625 
Q 44.34375 72.90625 50.609375 67.359375 
Q 56.890625 61.8125 56.890625 51.125 
Q 56.890625 40.328125 50.609375 34.8125 
Q 44.34375 29.296875 32.078125 29.296875 
L 19.671875 29.296875 
L 19.671875 0 
L 9.8125 0 
z
" id="DejaVuSans-80"/>
     <path d="M 10.6875 12.40625 
L 21 12.40625 
L 21 0 
L 10.6875 0 
z
" id="DejaVuSans-46"/>
     <path d="M 34.1875 63.1875 
L 20.796875 26.90625 
L 47.609375 26.90625 
z
M 28.609375 72.90625 
L 39.796875 72.90625 
L 67.578125 0 
L 57.328125 0 
L 50.6875 18.703125 
L 17.828125 18.703125 
L 11.1875 0 
L 0.78125 0 
z
" id="DejaVuSans-65"/>
     <path d="M 52 44.1875 
Q 55.375 50.25 60.0625 53.125 
Q 64.75 56 71.09375 56 
Q 79.640625 56 84.28125 50.015625 
Q 88.921875 44.046875 88.921875 33.015625 
L 88.921875 0 
L 79.890625 0 
L 79.890625 32.71875 
Q 79.890625 40.578125 77.09375 44.375 
Q 74.3125 48.1875 68.609375 48.1875 
Q 61.625 48.1875 57.5625 43.546875 
Q 53.515625 38.921875 53.515625 30.90625 
L 53.515625 0 
L 44.484375 0 
L 44.484375 32.71875 
Q 44.484375 40.625 41.703125 44.40625 
Q 38.921875 48.1875 33.109375 48.1875 
Q 26.21875 48.1875 22.15625 43.53125 
Q 18.109375 38.875 18.109375 30.90625 
L 18.109375 0 
L 9.078125 0 
L 9.078125 54.6875 
L 18.109375 54.6875 
L 18.109375 46.1875 
Q 21.1875 51.21875 25.484375 53.609375 
Q 29.78125 56 35.6875 56 
Q 41.65625 56 45.828125 52.96875 
Q 50 49.953125 52 44.1875 
z
" id="DejaVuSans-109"/>
     <path d="M 9.421875 75.984375 
L 18.40625 75.984375 
L 18.40625 0 
L 9.421875 0 
z
" id="DejaVuSans-108"/>
     <path d="M 32.171875 -5.078125 
Q 28.375 -14.84375 24.75 -17.8125 
Q 21.140625 -20.796875 15.09375 -20.796875 
L 7.90625 -20.796875 
L 7.90625 -13.28125 
L 13.1875 -13.28125 
Q 16.890625 -13.28125 18.9375 -11.515625 
Q 21 -9.765625 23.484375 -3.21875 
L 25.09375 0.875 
L 2.984375 54.6875 
L 12.5 54.6875 
L 29.59375 11.921875 
L 46.6875 54.6875 
L 56.203125 54.6875 
z
" id="DejaVuSans-121"/>
     <path d="M 41.109375 46.296875 
Q 39.59375 47.171875 37.8125 47.578125 
Q 36.03125 48 33.890625 48 
Q 26.265625 48 22.1875 43.046875 
Q 18.109375 38.09375 18.109375 28.8125 
L 18.109375 0 
L 9.078125 0 
L 9.078125 54.6875 
L 18.109375 54.6875 
L 18.109375 46.1875 
Q 20.953125 51.171875 25.484375 53.578125 
Q 30.03125 56 36.53125 56 
Q 37.453125 56 38.578125 55.875 
Q 39.703125 55.765625 41.0625 55.515625 
z
" id="DejaVuSans-114"/>
     <path d="M 11.71875 12.40625 
L 22.015625 12.40625 
L 22.015625 0 
L 11.71875 0 
z
M 11.71875 51.703125 
L 22.015625 51.703125 
L 22.015625 39.3125 
L 11.71875 39.3125 
z
" id="DejaVuSans-58"/>
    </defs>
    <g transform="translate(72.231562 35.472)scale(0.12 -0.12)">
     <use xlink:href="#DejaVuSans-62"/>
     <use x="83.789062" xlink:href="#DejaVuSans-97"/>
     <use x="145.068359" xlink:href="#DejaVuSans-97"/>
     <use x="206.347656" xlink:href="#DejaVuSans-99"/>
     <use x="261.328125" xlink:href="#DejaVuSans-40"/>
     <use x="300.341797" xlink:href="#DejaVuSans-51"/>
     <use x="363.964844" xlink:href="#DejaVuSans-41"/>
     <use x="402.978516" xlink:href="#DejaVuSans-45"/>
     <use x="439.0625" xlink:href="#DejaVuSans-73"/>
     <use x="468.554688" xlink:href="#DejaVuSans-73"/>
     <use x="498.046875" xlink:href="#DejaVuSans-97"/>
     <use x="559.326172" xlink:href="#DejaVuSans-95"/>
     <use x="609.326172" xlink:href="#DejaVuSans-49"/>
     <use x="672.949219" xlink:href="#DejaVuSans-95"/>
     <use x="722.949219" xlink:href="#DejaVuSans-67"/>
     <use x="792.773438" xlink:href="#DejaVuSans-80"/>
     <use x="853.076172" xlink:href="#DejaVuSans-48"/>
     <use x="916.699219" xlink:href="#DejaVuSans-50"/>
     <use x="980.322266" xlink:href="#DejaVuSans-51"/>
     <use x="1043.945312" xlink:href="#DejaVuSans-53"/>
     <use x="1107.568359" xlink:href="#DejaVuSans-53"/>
     <use x="1171.191406" xlink:href="#DejaVuSans-53"/>
     <use x="1234.814453" xlink:href="#DejaVuSans-46"/>
     <use x="1266.601562" xlink:href="#DejaVuSans-49"/>
     <use x="1330.224609" xlink:href="#DejaVuSans-32"/>
     <use x="1362.011719" xlink:href="#DejaVuSans-65"/>
     <use x="1430.419922" xlink:href="#DejaVuSans-109"/>
     <use x="1527.832031" xlink:href="#DejaVuSans-105"/>
     <use x="1555.615234" xlink:href="#DejaVuSans-110"/>
     <use x="1618.994141" xlink:href="#DejaVuSans-111"/>
     <use x="1680.175781" xlink:href="#DejaVuSans-103"/>
     <use x="1743.652344" xlink:href="#DejaVuSans-108"/>
     <use x="1771.435547" xlink:href="#DejaVuSans-121"/>
     <use x="1830.615234" xlink:href="#DejaVuSans-99"/>
     <use x="1885.595703" xlink:href="#DejaVuSans-111"/>
     <use x="1946.777344" xlink:href="#DejaVuSans-115"/>
     <use x="1998.876953" xlink:href="#DejaVuSans-105"/>
     <use x="2026.660156" xlink:href="#DejaVuSans-100"/>
     <use x="2090.136719" xlink:href="#DejaVuSans-101"/>
     <use x="2151.660156" xlink:href="#DejaVuSans-32"/>
     <use x="2183.447266" xlink:href="#DejaVuSans-114"/>
     <use x="2224.529297" xlink:href="#DejaVuSans-101"/>
     <use x="2286.052734" xlink:href="#DejaVuSans-115"/>
     <use x="2338.152344" xlink:href="#DejaVuSans-105"/>
     <use x="2365.935547" xlink:href="#DejaVuSans-115"/>
     <use x="2418.035156" xlink:href="#DejaVuSans-116"/>
     <use x="2457.244141" xlink:href="#DejaVuSans-97"/>
     <use x="2518.523438" xlink:href="#DejaVuSans-110"/>
     <use x="2581.902344" xlink:href="#DejaVuSans-99"/>
     <use x="2636.882812" xlink:href="#DejaVuSans-101"/>
     <use x="2698.40625" xlink:href="#DejaVuSans-58"/>
    </g>
   </g>
  </g>
 </g>
 <defs>
  <clipPath id="p0204a0157c">
   <rect height="266.112" width="357.12" x="57.6" y="41.472"/>
  </clipPath>
 </defs>
</svg>
