<?xml version="1.0" encoding="utf-8" standalone="no"?>
<!DOCTYPE svg PUBLIC "-//W3C//DTD SVG 1.1//EN"
  "http://www.w3.org/Graphics/SVG/1.1/DTD/svg11.dtd">
<!-- Created with matplotlib (https://matplotlib.org/) -->
<svg height="345.6pt" version="1.1" viewBox="0 0 460.8 345.6" width="460.8pt" xmlns="http://www.w3.org/2000/svg" xmlns:xlink="http://www.w3.org/1999/xlink">
 <defs>
  <style type="text/css">
*{stroke-linecap:butt;stroke-linejoin:round;}
  </style>
 </defs>
 <g id="figure_1">
  <g id="patch_1">
   <path d="M 0 345.6 
L 460.8 345.6 
L 460.8 0 
L 0 0 
z
" style="fill:#ffffff;"/>
  </g>
  <g id="axes_1">
   <g id="patch_2">
    <path d="M 57.6 307.584 
L 414.72 307.584 
L 414.72 41.472 
L 57.6 41.472 
z
" style="fill:#ffffff;"/>
   </g>
   <g id="matplotlib.axis_1">
    <g id="xtick_1">
     <g id="line2d_1">
      <defs>
       <path d="M 0 0 
L 0 3.5 
" id="m0bf3d33b38" style="stroke:#000000;stroke-width:0.8;"/>
      </defs>
      <g>
       <use style="stroke:#000000;stroke-width:0.8;" x="73.832727" xlink:href="#m0bf3d33b38" y="307.584"/>
      </g>
     </g>
     <g id="text_1">
      <!-- 0 -->
      <defs>
       <path d="M 31.78125 66.40625 
Q 24.171875 66.40625 20.328125 58.90625 
Q 16.5 51.421875 16.5 36.375 
Q 16.5 21.390625 20.328125 13.890625 
Q 24.171875 6.390625 31.78125 6.390625 
Q 39.453125 6.390625 43.28125 13.890625 
Q 47.125 21.390625 47.125 36.375 
Q 47.125 51.421875 43.28125 58.90625 
Q 39.453125 66.40625 31.78125 66.40625 
z
M 31.78125 74.21875 
Q 44.046875 74.21875 50.515625 64.515625 
Q 56.984375 54.828125 56.984375 36.375 
Q 56.984375 17.96875 50.515625 8.265625 
Q 44.046875 -1.421875 31.78125 -1.421875 
Q 19.53125 -1.421875 13.0625 8.265625 
Q 6.59375 17.96875 6.59375 36.375 
Q 6.59375 54.828125 13.0625 64.515625 
Q 19.53125 74.21875 31.78125 74.21875 
z
" id="DejaVuSans-48"/>
      </defs>
      <g transform="translate(70.651477 322.182437)scale(0.1 -0.1)">
       <use xlink:href="#DejaVuSans-48"/>
      </g>
     </g>
    </g>
    <g id="xtick_2">
     <g id="line2d_2">
      <g>
       <use style="stroke:#000000;stroke-width:0.8;" x="153.113447" xlink:href="#m0bf3d33b38" y="307.584"/>
      </g>
     </g>
     <g id="text_2">
      <!-- 200 -->
      <defs>
       <path d="M 19.1875 8.296875 
L 53.609375 8.296875 
L 53.609375 0 
L 7.328125 0 
L 7.328125 8.296875 
Q 12.9375 14.109375 22.625 23.890625 
Q 32.328125 33.6875 34.8125 36.53125 
Q 39.546875 41.84375 41.421875 45.53125 
Q 43.3125 49.21875 43.3125 52.78125 
Q 43.3125 58.59375 39.234375 62.25 
Q 35.15625 65.921875 28.609375 65.921875 
Q 23.96875 65.921875 18.8125 64.3125 
Q 13.671875 62.703125 7.8125 59.421875 
L 7.8125 69.390625 
Q 13.765625 71.78125 18.9375 73 
Q 24.125 74.21875 28.421875 74.21875 
Q 39.75 74.21875 46.484375 68.546875 
Q 53.21875 62.890625 53.21875 53.421875 
Q 53.21875 48.921875 51.53125 44.890625 
Q 49.859375 40.875 45.40625 35.40625 
Q 44.1875 33.984375 37.640625 27.21875 
Q 31.109375 20.453125 19.1875 8.296875 
z
" id="DejaVuSans-50"/>
      </defs>
      <g transform="translate(143.569697 322.182437)scale(0.1 -0.1)">
       <use xlink:href="#DejaVuSans-50"/>
       <use x="63.623047" xlink:href="#DejaVuSans-48"/>
       <use x="127.246094" xlink:href="#DejaVuSans-48"/>
      </g>
     </g>
    </g>
    <g id="xtick_3">
     <g id="line2d_3">
      <g>
       <use style="stroke:#000000;stroke-width:0.8;" x="232.394166" xlink:href="#m0bf3d33b38" y="307.584"/>
      </g>
     </g>
     <g id="text_3">
      <!-- 400 -->
      <defs>
       <path d="M 37.796875 64.3125 
L 12.890625 25.390625 
L 37.796875 25.390625 
z
M 35.203125 72.90625 
L 47.609375 72.90625 
L 47.609375 25.390625 
L 58.015625 25.390625 
L 58.015625 17.1875 
L 47.609375 17.1875 
L 47.609375 0 
L 37.796875 0 
L 37.796875 17.1875 
L 4.890625 17.1875 
L 4.890625 26.703125 
z
" id="DejaVuSans-52"/>
      </defs>
      <g transform="translate(222.850416 322.182437)scale(0.1 -0.1)">
       <use xlink:href="#DejaVuSans-52"/>
       <use x="63.623047" xlink:href="#DejaVuSans-48"/>
       <use x="127.246094" xlink:href="#DejaVuSans-48"/>
      </g>
     </g>
    </g>
    <g id="xtick_4">
     <g id="line2d_4">
      <g>
       <use style="stroke:#000000;stroke-width:0.8;" x="311.674885" xlink:href="#m0bf3d33b38" y="307.584"/>
      </g>
     </g>
     <g id="text_4">
      <!-- 600 -->
      <defs>
       <path d="M 33.015625 40.375 
Q 26.375 40.375 22.484375 35.828125 
Q 18.609375 31.296875 18.609375 23.390625 
Q 18.609375 15.53125 22.484375 10.953125 
Q 26.375 6.390625 33.015625 6.390625 
Q 39.65625 6.390625 43.53125 10.953125 
Q 47.40625 15.53125 47.40625 23.390625 
Q 47.40625 31.296875 43.53125 35.828125 
Q 39.65625 40.375 33.015625 40.375 
z
M 52.59375 71.296875 
L 52.59375 62.3125 
Q 48.875 64.0625 45.09375 64.984375 
Q 41.3125 65.921875 37.59375 65.921875 
Q 27.828125 65.921875 22.671875 59.328125 
Q 17.53125 52.734375 16.796875 39.40625 
Q 19.671875 43.65625 24.015625 45.921875 
Q 28.375 48.1875 33.59375 48.1875 
Q 44.578125 48.1875 50.953125 41.515625 
Q 57.328125 34.859375 57.328125 23.390625 
Q 57.328125 12.15625 50.6875 5.359375 
Q 44.046875 -1.421875 33.015625 -1.421875 
Q 20.359375 -1.421875 13.671875 8.265625 
Q 6.984375 17.96875 6.984375 36.375 
Q 6.984375 53.65625 15.1875 63.9375 
Q 23.390625 74.21875 37.203125 74.21875 
Q 40.921875 74.21875 44.703125 73.484375 
Q 48.484375 72.75 52.59375 71.296875 
z
" id="DejaVuSans-54"/>
      </defs>
      <g transform="translate(302.131135 322.182437)scale(0.1 -0.1)">
       <use xlink:href="#DejaVuSans-54"/>
       <use x="63.623047" xlink:href="#DejaVuSans-48"/>
       <use x="127.246094" xlink:href="#DejaVuSans-48"/>
      </g>
     </g>
    </g>
    <g id="xtick_5">
     <g id="line2d_5">
      <g>
       <use style="stroke:#000000;stroke-width:0.8;" x="390.955604" xlink:href="#m0bf3d33b38" y="307.584"/>
      </g>
     </g>
     <g id="text_5">
      <!-- 800 -->
      <defs>
       <path d="M 31.78125 34.625 
Q 24.75 34.625 20.71875 30.859375 
Q 16.703125 27.09375 16.703125 20.515625 
Q 16.703125 13.921875 20.71875 10.15625 
Q 24.75 6.390625 31.78125 6.390625 
Q 38.8125 6.390625 42.859375 10.171875 
Q 46.921875 13.96875 46.921875 20.515625 
Q 46.921875 27.09375 42.890625 30.859375 
Q 38.875 34.625 31.78125 34.625 
z
M 21.921875 38.8125 
Q 15.578125 40.375 12.03125 44.71875 
Q 8.5 49.078125 8.5 55.328125 
Q 8.5 64.0625 14.71875 69.140625 
Q 20.953125 74.21875 31.78125 74.21875 
Q 42.671875 74.21875 48.875 69.140625 
Q 55.078125 64.0625 55.078125 55.328125 
Q 55.078125 49.078125 51.53125 44.71875 
Q 48 40.375 41.703125 38.8125 
Q 48.828125 37.15625 52.796875 32.3125 
Q 56.78125 27.484375 56.78125 20.515625 
Q 56.78125 9.90625 50.3125 4.234375 
Q 43.84375 -1.421875 31.78125 -1.421875 
Q 19.734375 -1.421875 13.25 4.234375 
Q 6.78125 9.90625 6.78125 20.515625 
Q 6.78125 27.484375 10.78125 32.3125 
Q 14.796875 37.15625 21.921875 38.8125 
z
M 18.3125 54.390625 
Q 18.3125 48.734375 21.84375 45.5625 
Q 25.390625 42.390625 31.78125 42.390625 
Q 38.140625 42.390625 41.71875 45.5625 
Q 45.3125 48.734375 45.3125 54.390625 
Q 45.3125 60.0625 41.71875 63.234375 
Q 38.140625 66.40625 31.78125 66.40625 
Q 25.390625 66.40625 21.84375 63.234375 
Q 18.3125 60.0625 18.3125 54.390625 
z
" id="DejaVuSans-56"/>
      </defs>
      <g transform="translate(381.411854 322.182437)scale(0.1 -0.1)">
       <use xlink:href="#DejaVuSans-56"/>
       <use x="63.623047" xlink:href="#DejaVuSans-48"/>
       <use x="127.246094" xlink:href="#DejaVuSans-48"/>
      </g>
     </g>
    </g>
    <g id="text_6">
     <!-- gene position -->
     <defs>
      <path d="M 45.40625 27.984375 
Q 45.40625 37.75 41.375 43.109375 
Q 37.359375 48.484375 30.078125 48.484375 
Q 22.859375 48.484375 18.828125 43.109375 
Q 14.796875 37.75 14.796875 27.984375 
Q 14.796875 18.265625 18.828125 12.890625 
Q 22.859375 7.515625 30.078125 7.515625 
Q 37.359375 7.515625 41.375 12.890625 
Q 45.40625 18.265625 45.40625 27.984375 
z
M 54.390625 6.78125 
Q 54.390625 -7.171875 48.1875 -13.984375 
Q 42 -20.796875 29.203125 -20.796875 
Q 24.46875 -20.796875 20.265625 -20.09375 
Q 16.0625 -19.390625 12.109375 -17.921875 
L 12.109375 -9.1875 
Q 16.0625 -11.328125 19.921875 -12.34375 
Q 23.78125 -13.375 27.78125 -13.375 
Q 36.625 -13.375 41.015625 -8.765625 
Q 45.40625 -4.15625 45.40625 5.171875 
L 45.40625 9.625 
Q 42.625 4.78125 38.28125 2.390625 
Q 33.9375 0 27.875 0 
Q 17.828125 0 11.671875 7.65625 
Q 5.515625 15.328125 5.515625 27.984375 
Q 5.515625 40.671875 11.671875 48.328125 
Q 17.828125 56 27.875 56 
Q 33.9375 56 38.28125 53.609375 
Q 42.625 51.21875 45.40625 46.390625 
L 45.40625 54.6875 
L 54.390625 54.6875 
z
" id="DejaVuSans-103"/>
      <path d="M 56.203125 29.59375 
L 56.203125 25.203125 
L 14.890625 25.203125 
Q 15.484375 15.921875 20.484375 11.0625 
Q 25.484375 6.203125 34.421875 6.203125 
Q 39.59375 6.203125 44.453125 7.46875 
Q 49.3125 8.734375 54.109375 11.28125 
L 54.109375 2.78125 
Q 49.265625 0.734375 44.1875 -0.34375 
Q 39.109375 -1.421875 33.890625 -1.421875 
Q 20.796875 -1.421875 13.15625 6.1875 
Q 5.515625 13.8125 5.515625 26.8125 
Q 5.515625 40.234375 12.765625 48.109375 
Q 20.015625 56 32.328125 56 
Q 43.359375 56 49.78125 48.890625 
Q 56.203125 41.796875 56.203125 29.59375 
z
M 47.21875 32.234375 
Q 47.125 39.59375 43.09375 43.984375 
Q 39.0625 48.390625 32.421875 48.390625 
Q 24.90625 48.390625 20.390625 44.140625 
Q 15.875 39.890625 15.1875 32.171875 
z
" id="DejaVuSans-101"/>
      <path d="M 54.890625 33.015625 
L 54.890625 0 
L 45.90625 0 
L 45.90625 32.71875 
Q 45.90625 40.484375 42.875 44.328125 
Q 39.84375 48.1875 33.796875 48.1875 
Q 26.515625 48.1875 22.3125 43.546875 
Q 18.109375 38.921875 18.109375 30.90625 
L 18.109375 0 
L 9.078125 0 
L 9.078125 54.6875 
L 18.109375 54.6875 
L 18.109375 46.1875 
Q 21.34375 51.125 25.703125 53.5625 
Q 30.078125 56 35.796875 56 
Q 45.21875 56 50.046875 50.171875 
Q 54.890625 44.34375 54.890625 33.015625 
z
" id="DejaVuSans-110"/>
      <path id="DejaVuSans-32"/>
      <path d="M 18.109375 8.203125 
L 18.109375 -20.796875 
L 9.078125 -20.796875 
L 9.078125 54.6875 
L 18.109375 54.6875 
L 18.109375 46.390625 
Q 20.953125 51.265625 25.265625 53.625 
Q 29.59375 56 35.59375 56 
Q 45.5625 56 51.78125 48.09375 
Q 58.015625 40.1875 58.015625 27.296875 
Q 58.015625 14.40625 51.78125 6.484375 
Q 45.5625 -1.421875 35.59375 -1.421875 
Q 29.59375 -1.421875 25.265625 0.953125 
Q 20.953125 3.328125 18.109375 8.203125 
z
M 48.6875 27.296875 
Q 48.6875 37.203125 44.609375 42.84375 
Q 40.53125 48.484375 33.40625 48.484375 
Q 26.265625 48.484375 22.1875 42.84375 
Q 18.109375 37.203125 18.109375 27.296875 
Q 18.109375 17.390625 22.1875 11.75 
Q 26.265625 6.109375 33.40625 6.109375 
Q 40.53125 6.109375 44.609375 11.75 
Q 48.6875 17.390625 48.6875 27.296875 
z
" id="DejaVuSans-112"/>
      <path d="M 30.609375 48.390625 
Q 23.390625 48.390625 19.1875 42.75 
Q 14.984375 37.109375 14.984375 27.296875 
Q 14.984375 17.484375 19.15625 11.84375 
Q 23.34375 6.203125 30.609375 6.203125 
Q 37.796875 6.203125 41.984375 11.859375 
Q 46.1875 17.53125 46.1875 27.296875 
Q 46.1875 37.015625 41.984375 42.703125 
Q 37.796875 48.390625 30.609375 48.390625 
z
M 30.609375 56 
Q 42.328125 56 49.015625 48.375 
Q 55.71875 40.765625 55.71875 27.296875 
Q 55.71875 13.875 49.015625 6.21875 
Q 42.328125 -1.421875 30.609375 -1.421875 
Q 18.84375 -1.421875 12.171875 6.21875 
Q 5.515625 13.875 5.515625 27.296875 
Q 5.515625 40.765625 12.171875 48.375 
Q 18.84375 56 30.609375 56 
z
" id="DejaVuSans-111"/>
      <path d="M 44.28125 53.078125 
L 44.28125 44.578125 
Q 40.484375 46.53125 36.375 47.5 
Q 32.28125 48.484375 27.875 48.484375 
Q 21.1875 48.484375 17.84375 46.4375 
Q 14.5 44.390625 14.5 40.28125 
Q 14.5 37.15625 16.890625 35.375 
Q 19.28125 33.59375 26.515625 31.984375 
L 29.59375 31.296875 
Q 39.15625 29.25 43.1875 25.515625 
Q 47.21875 21.78125 47.21875 15.09375 
Q 47.21875 7.46875 41.1875 3.015625 
Q 35.15625 -1.421875 24.609375 -1.421875 
Q 20.21875 -1.421875 15.453125 -0.5625 
Q 10.6875 0.296875 5.421875 2 
L 5.421875 11.28125 
Q 10.40625 8.6875 15.234375 7.390625 
Q 20.0625 6.109375 24.8125 6.109375 
Q 31.15625 6.109375 34.5625 8.28125 
Q 37.984375 10.453125 37.984375 14.40625 
Q 37.984375 18.0625 35.515625 20.015625 
Q 33.0625 21.96875 24.703125 23.78125 
L 21.578125 24.515625 
Q 13.234375 26.265625 9.515625 29.90625 
Q 5.8125 33.546875 5.8125 39.890625 
Q 5.8125 47.609375 11.28125 51.796875 
Q 16.75 56 26.8125 56 
Q 31.78125 56 36.171875 55.265625 
Q 40.578125 54.546875 44.28125 53.078125 
z
" id="DejaVuSans-115"/>
      <path d="M 9.421875 54.6875 
L 18.40625 54.6875 
L 18.40625 0 
L 9.421875 0 
z
M 9.421875 75.984375 
L 18.40625 75.984375 
L 18.40625 64.59375 
L 9.421875 64.59375 
z
" id="DejaVuSans-105"/>
      <path d="M 18.3125 70.21875 
L 18.3125 54.6875 
L 36.8125 54.6875 
L 36.8125 47.703125 
L 18.3125 47.703125 
L 18.3125 18.015625 
Q 18.3125 11.328125 20.140625 9.421875 
Q 21.96875 7.515625 27.59375 7.515625 
L 36.8125 7.515625 
L 36.8125 0 
L 27.59375 0 
Q 17.1875 0 13.234375 3.875 
Q 9.28125 7.765625 9.28125 18.015625 
L 9.28125 47.703125 
L 2.6875 47.703125 
L 2.6875 54.6875 
L 9.28125 54.6875 
L 9.28125 70.21875 
z
" id="DejaVuSans-116"/>
     </defs>
     <g transform="translate(202.270156 335.860562)scale(0.1 -0.1)">
      <use xlink:href="#DejaVuSans-103"/>
      <use x="63.476562" xlink:href="#DejaVuSans-101"/>
      <use x="125" xlink:href="#DejaVuSans-110"/>
      <use x="188.378906" xlink:href="#DejaVuSans-101"/>
      <use x="249.902344" xlink:href="#DejaVuSans-32"/>
      <use x="281.689453" xlink:href="#DejaVuSans-112"/>
      <use x="345.166016" xlink:href="#DejaVuSans-111"/>
      <use x="406.347656" xlink:href="#DejaVuSans-115"/>
      <use x="458.447266" xlink:href="#DejaVuSans-105"/>
      <use x="486.230469" xlink:href="#DejaVuSans-116"/>
      <use x="525.439453" xlink:href="#DejaVuSans-105"/>
      <use x="553.222656" xlink:href="#DejaVuSans-111"/>
      <use x="614.404297" xlink:href="#DejaVuSans-110"/>
     </g>
    </g>
   </g>
   <g id="matplotlib.axis_2">
    <g id="ytick_1">
     <g id="line2d_6">
      <defs>
       <path d="M 0 0 
L -3.5 0 
" id="m963d89431a" style="stroke:#000000;stroke-width:0.8;"/>
      </defs>
      <g>
       <use style="stroke:#000000;stroke-width:0.8;" x="57.6" xlink:href="#m963d89431a" y="307.584"/>
      </g>
     </g>
     <g id="text_7">
      <!-- 0 -->
      <g transform="translate(44.2375 311.383219)scale(0.1 -0.1)">
       <use xlink:href="#DejaVuSans-48"/>
      </g>
     </g>
    </g>
    <g id="ytick_2">
     <g id="line2d_7">
      <g>
       <use style="stroke:#000000;stroke-width:0.8;" x="57.6" xlink:href="#m963d89431a" y="257.374189"/>
      </g>
     </g>
     <g id="text_8">
      <!-- 10 -->
      <defs>
       <path d="M 12.40625 8.296875 
L 28.515625 8.296875 
L 28.515625 63.921875 
L 10.984375 60.40625 
L 10.984375 69.390625 
L 28.421875 72.90625 
L 38.28125 72.90625 
L 38.28125 8.296875 
L 54.390625 8.296875 
L 54.390625 0 
L 12.40625 0 
z
" id="DejaVuSans-49"/>
      </defs>
      <g transform="translate(37.875 261.173407)scale(0.1 -0.1)">
       <use xlink:href="#DejaVuSans-49"/>
       <use x="63.623047" xlink:href="#DejaVuSans-48"/>
      </g>
     </g>
    </g>
    <g id="ytick_3">
     <g id="line2d_8">
      <g>
       <use style="stroke:#000000;stroke-width:0.8;" x="57.6" xlink:href="#m963d89431a" y="207.164377"/>
      </g>
     </g>
     <g id="text_9">
      <!-- 20 -->
      <g transform="translate(37.875 210.963596)scale(0.1 -0.1)">
       <use xlink:href="#DejaVuSans-50"/>
       <use x="63.623047" xlink:href="#DejaVuSans-48"/>
      </g>
     </g>
    </g>
    <g id="ytick_4">
     <g id="line2d_9">
      <g>
       <use style="stroke:#000000;stroke-width:0.8;" x="57.6" xlink:href="#m963d89431a" y="156.954566"/>
      </g>
     </g>
     <g id="text_10">
      <!-- 30 -->
      <defs>
       <path d="M 40.578125 39.3125 
Q 47.65625 37.796875 51.625 33 
Q 55.609375 28.21875 55.609375 21.1875 
Q 55.609375 10.40625 48.1875 4.484375 
Q 40.765625 -1.421875 27.09375 -1.421875 
Q 22.515625 -1.421875 17.65625 -0.515625 
Q 12.796875 0.390625 7.625 2.203125 
L 7.625 11.71875 
Q 11.71875 9.328125 16.59375 8.109375 
Q 21.484375 6.890625 26.8125 6.890625 
Q 36.078125 6.890625 40.9375 10.546875 
Q 45.796875 14.203125 45.796875 21.1875 
Q 45.796875 27.640625 41.28125 31.265625 
Q 36.765625 34.90625 28.71875 34.90625 
L 20.21875 34.90625 
L 20.21875 43.015625 
L 29.109375 43.015625 
Q 36.375 43.015625 40.234375 45.921875 
Q 44.09375 48.828125 44.09375 54.296875 
Q 44.09375 59.90625 40.109375 62.90625 
Q 36.140625 65.921875 28.71875 65.921875 
Q 24.65625 65.921875 20.015625 65.03125 
Q 15.375 64.15625 9.8125 62.3125 
L 9.8125 71.09375 
Q 15.4375 72.65625 20.34375 73.4375 
Q 25.25 74.21875 29.59375 74.21875 
Q 40.828125 74.21875 47.359375 69.109375 
Q 53.90625 64.015625 53.90625 55.328125 
Q 53.90625 49.265625 50.4375 45.09375 
Q 46.96875 40.921875 40.578125 39.3125 
z
" id="DejaVuSans-51"/>
      </defs>
      <g transform="translate(37.875 160.753785)scale(0.1 -0.1)">
       <use xlink:href="#DejaVuSans-51"/>
       <use x="63.623047" xlink:href="#DejaVuSans-48"/>
      </g>
     </g>
    </g>
    <g id="ytick_5">
     <g id="line2d_10">
      <g>
       <use style="stroke:#000000;stroke-width:0.8;" x="57.6" xlink:href="#m963d89431a" y="106.744755"/>
      </g>
     </g>
     <g id="text_11">
      <!-- 40 -->
      <g transform="translate(37.875 110.543973)scale(0.1 -0.1)">
       <use xlink:href="#DejaVuSans-52"/>
       <use x="63.623047" xlink:href="#DejaVuSans-48"/>
      </g>
     </g>
    </g>
    <g id="ytick_6">
     <g id="line2d_11">
      <g>
       <use style="stroke:#000000;stroke-width:0.8;" x="57.6" xlink:href="#m963d89431a" y="56.534943"/>
      </g>
     </g>
     <g id="text_12">
      <!-- 50 -->
      <defs>
       <path d="M 10.796875 72.90625 
L 49.515625 72.90625 
L 49.515625 64.59375 
L 19.828125 64.59375 
L 19.828125 46.734375 
Q 21.96875 47.46875 24.109375 47.828125 
Q 26.265625 48.1875 28.421875 48.1875 
Q 40.625 48.1875 47.75 41.5 
Q 54.890625 34.8125 54.890625 23.390625 
Q 54.890625 11.625 47.5625 5.09375 
Q 40.234375 -1.421875 26.90625 -1.421875 
Q 22.3125 -1.421875 17.546875 -0.640625 
Q 12.796875 0.140625 7.71875 1.703125 
L 7.71875 11.625 
Q 12.109375 9.234375 16.796875 8.0625 
Q 21.484375 6.890625 26.703125 6.890625 
Q 35.15625 6.890625 40.078125 11.328125 
Q 45.015625 15.765625 45.015625 23.390625 
Q 45.015625 31 40.078125 35.4375 
Q 35.15625 39.890625 26.703125 39.890625 
Q 22.75 39.890625 18.8125 39.015625 
Q 14.890625 38.140625 10.796875 36.28125 
z
" id="DejaVuSans-53"/>
      </defs>
      <g transform="translate(37.875 60.334162)scale(0.1 -0.1)">
       <use xlink:href="#DejaVuSans-53"/>
       <use x="63.623047" xlink:href="#DejaVuSans-48"/>
      </g>
     </g>
    </g>
    <g id="text_13">
     <!-- depth -->
     <defs>
      <path d="M 45.40625 46.390625 
L 45.40625 75.984375 
L 54.390625 75.984375 
L 54.390625 0 
L 45.40625 0 
L 45.40625 8.203125 
Q 42.578125 3.328125 38.25 0.953125 
Q 33.9375 -1.421875 27.875 -1.421875 
Q 17.96875 -1.421875 11.734375 6.484375 
Q 5.515625 14.40625 5.515625 27.296875 
Q 5.515625 40.1875 11.734375 48.09375 
Q 17.96875 56 27.875 56 
Q 33.9375 56 38.25 53.625 
Q 42.578125 51.265625 45.40625 46.390625 
z
M 14.796875 27.296875 
Q 14.796875 17.390625 18.875 11.75 
Q 22.953125 6.109375 30.078125 6.109375 
Q 37.203125 6.109375 41.296875 11.75 
Q 45.40625 17.390625 45.40625 27.296875 
Q 45.40625 37.203125 41.296875 42.84375 
Q 37.203125 48.484375 30.078125 48.484375 
Q 22.953125 48.484375 18.875 42.84375 
Q 14.796875 37.203125 14.796875 27.296875 
z
" id="DejaVuSans-100"/>
      <path d="M 54.890625 33.015625 
L 54.890625 0 
L 45.90625 0 
L 45.90625 32.71875 
Q 45.90625 40.484375 42.875 44.328125 
Q 39.84375 48.1875 33.796875 48.1875 
Q 26.515625 48.1875 22.3125 43.546875 
Q 18.109375 38.921875 18.109375 30.90625 
L 18.109375 0 
L 9.078125 0 
L 9.078125 75.984375 
L 18.109375 75.984375 
L 18.109375 46.1875 
Q 21.34375 51.125 25.703125 53.5625 
Q 30.078125 56 35.796875 56 
Q 45.21875 56 50.046875 50.171875 
Q 54.890625 44.34375 54.890625 33.015625 
z
" id="DejaVuSans-104"/>
     </defs>
     <g transform="translate(31.795312 189.081906)rotate(-90)scale(0.1 -0.1)">
      <use xlink:href="#DejaVuSans-100"/>
      <use x="63.476562" xlink:href="#DejaVuSans-101"/>
      <use x="125" xlink:href="#DejaVuSans-112"/>
      <use x="188.476562" xlink:href="#DejaVuSans-116"/>
      <use x="227.685547" xlink:href="#DejaVuSans-104"/>
     </g>
    </g>
   </g>
   <g id="line2d_12">
    <path clip-path="url(#p063b0458dc)" d="M 73.832727 71.597887 
L 75.023392 71.597887 
L 75.42028 66.576906 
L 75.817168 71.597887 
L 76.610945 61.555925 
L 77.007833 66.576906 
L 77.404721 56.534943 
L 78.198497 46.492981 
L 78.992274 56.534943 
L 79.389162 56.534943 
L 79.78605 61.555925 
L 80.182938 61.555925 
L 80.579827 51.513962 
L 80.976715 51.513962 
L 81.373603 41.472 
L 81.770491 46.492981 
L 82.167379 71.597887 
L 82.564268 66.576906 
L 83.358044 66.576906 
L 83.754932 76.618868 
L 84.15182 76.618868 
L 84.548709 71.597887 
L 84.945597 71.597887 
L 85.342485 66.576906 
L 86.53315 66.576906 
L 87.326926 56.534943 
L 87.723814 61.555925 
L 88.120702 61.555925 
L 88.517591 51.513962 
L 89.708255 51.513962 
L 90.89892 66.576906 
L 91.295808 66.576906 
L 91.692696 81.639849 
L 92.089584 71.597887 
L 92.486473 81.639849 
L 92.883361 76.618868 
L 93.280249 76.618868 
L 93.677137 81.639849 
L 94.074025 76.618868 
L 94.867802 76.618868 
L 95.26469 71.597887 
L 95.661578 76.618868 
L 96.058466 76.618868 
L 96.455355 81.639849 
L 98.042907 81.639849 
L 98.439796 91.681811 
L 98.836684 91.681811 
L 99.63046 81.639849 
L 100.027348 86.66083 
L 100.424236 76.618868 
L 100.821125 71.597887 
L 101.614901 71.597887 
L 102.408677 61.555925 
L 103.202454 61.555925 
L 103.99623 41.472 
L 105.186895 41.472 
L 105.980671 51.513962 
L 106.377559 46.492981 
L 106.774448 51.513962 
L 107.171336 51.513962 
L 107.568224 56.534943 
L 107.965112 56.534943 
L 108.362 61.555925 
L 108.758889 56.534943 
L 109.949553 71.597887 
L 110.346441 81.639849 
L 110.74333 81.639849 
L 111.140218 86.66083 
L 112.330882 86.66083 
L 112.727771 91.681811 
L 113.124659 91.681811 
L 113.521547 96.702792 
L 113.918435 96.702792 
L 114.315323 106.744755 
L 114.712212 101.723774 
L 116.299764 101.723774 
L 116.696653 96.702792 
L 118.284205 96.702792 
L 118.681094 101.723774 
L 119.077982 101.723774 
L 119.871758 91.681811 
L 120.268646 96.702792 
L 120.665535 96.702792 
L 121.062423 91.681811 
L 121.459311 101.723774 
L 121.856199 101.723774 
L 122.253087 111.765736 
L 122.649976 116.786717 
L 123.046864 106.744755 
L 123.443752 101.723774 
L 123.84064 106.744755 
L 124.237528 106.744755 
L 124.634417 111.765736 
L 125.031305 121.807698 
L 125.825081 131.84966 
L 126.221969 131.84966 
L 126.618858 126.828679 
L 127.015746 131.84966 
L 127.412634 126.828679 
L 127.809522 126.828679 
L 128.20641 131.84966 
L 128.603299 121.807698 
L 129.793963 121.807698 
L 130.587739 101.723774 
L 131.381516 101.723774 
L 132.175292 91.681811 
L 134.159733 116.786717 
L 134.95351 106.744755 
L 135.350398 111.765736 
L 136.144174 111.765736 
L 136.541062 121.807698 
L 136.937951 111.765736 
L 137.731727 111.765736 
L 138.128615 116.786717 
L 138.922392 116.786717 
L 139.31928 121.807698 
L 139.716168 121.807698 
L 140.113056 116.786717 
L 140.509944 106.744755 
L 140.906833 111.765736 
L 141.303721 106.744755 
L 142.097497 106.744755 
L 142.494385 96.702792 
L 143.288162 96.702792 
L 143.68505 91.681811 
L 144.081938 81.639849 
L 144.875715 81.639849 
L 145.272603 86.66083 
L 145.669491 86.66083 
L 146.066379 81.639849 
L 146.463267 86.66083 
L 146.860156 81.639849 
L 147.653932 91.681811 
L 148.05082 86.66083 
L 148.447708 96.702792 
L 149.241485 96.702792 
L 149.638373 101.723774 
L 152.019702 101.723774 
L 153.210367 116.786717 
L 153.607255 111.765736 
L 154.004143 111.765736 
L 154.401031 106.744755 
L 155.194808 106.744755 
L 155.591696 101.723774 
L 155.988584 106.744755 
L 156.385472 116.786717 
L 156.782361 116.786717 
L 157.179249 121.807698 
L 157.973025 111.765736 
L 158.369913 111.765736 
L 158.766802 106.744755 
L 159.16369 96.702792 
L 159.560578 101.723774 
L 159.957466 91.681811 
L 160.354354 91.681811 
L 161.148131 81.639849 
L 161.545019 86.66083 
L 162.338795 86.66083 
L 162.735683 71.597887 
L 163.132572 81.639849 
L 163.52946 86.66083 
L 163.926348 86.66083 
L 164.323236 81.639849 
L 164.720124 86.66083 
L 165.910789 86.66083 
L 166.307677 91.681811 
L 166.704565 81.639849 
L 167.101454 81.639849 
L 167.498342 86.66083 
L 167.89523 96.702792 
L 168.292118 96.702792 
L 168.689006 101.723774 
L 169.085895 96.702792 
L 169.482783 101.723774 
L 169.879671 116.786717 
L 171.467224 116.786717 
L 171.864112 111.765736 
L 172.261 101.723774 
L 172.657888 96.702792 
L 173.451665 106.744755 
L 175.039218 86.66083 
L 175.436106 91.681811 
L 176.229882 91.681811 
L 176.62677 96.702792 
L 177.023659 111.765736 
L 177.420547 111.765736 
L 177.817435 106.744755 
L 178.214323 106.744755 
L 178.611211 111.765736 
L 179.0081 121.807698 
L 179.404988 121.807698 
L 179.801876 126.828679 
L 180.198764 121.807698 
L 180.992541 121.807698 
L 181.389429 111.765736 
L 181.786317 111.765736 
L 182.183205 116.786717 
L 182.580093 116.786717 
L 182.976982 106.744755 
L 183.37387 106.744755 
L 183.770758 96.702792 
L 184.167646 91.681811 
L 184.564534 81.639849 
L 185.358311 71.597887 
L 185.755199 76.618868 
L 186.945864 76.618868 
L 187.342752 81.639849 
L 187.73964 81.639849 
L 188.136528 86.66083 
L 188.533416 86.66083 
L 188.930305 91.681811 
L 189.724081 91.681811 
L 190.120969 76.618868 
L 190.517857 81.639849 
L 190.914745 81.639849 
L 191.311634 76.618868 
L 191.708522 81.639849 
L 192.10541 76.618868 
L 192.502298 76.618868 
L 193.692963 91.681811 
L 194.486739 91.681811 
L 194.883627 86.66083 
L 195.280516 86.66083 
L 195.677404 91.681811 
L 196.47118 81.639849 
L 197.264957 81.639849 
L 197.661845 76.618868 
L 198.058733 76.618868 
L 198.455621 66.576906 
L 199.249398 66.576906 
L 199.646286 76.618868 
L 200.043174 66.576906 
L 200.440062 61.555925 
L 203.21828 61.555925 
L 203.615168 56.534943 
L 204.408944 56.534943 
L 204.805832 61.555925 
L 205.202721 71.597887 
L 205.996497 71.597887 
L 206.393385 66.576906 
L 206.790273 71.597887 
L 207.58405 101.723774 
L 207.980938 101.723774 
L 208.377826 96.702792 
L 208.774714 96.702792 
L 209.171603 86.66083 
L 209.568491 91.681811 
L 209.965379 86.66083 
L 211.552932 86.66083 
L 211.94982 81.639849 
L 212.743596 81.639849 
L 213.140485 76.618868 
L 213.537373 66.576906 
L 213.934261 66.576906 
L 214.331149 76.618868 
L 215.521814 61.555925 
L 215.918702 71.597887 
L 216.31559 71.597887 
L 216.712478 86.66083 
L 217.109367 91.681811 
L 217.506255 106.744755 
L 217.903143 96.702792 
L 218.300031 106.744755 
L 219.490696 106.744755 
L 219.887584 111.765736 
L 220.68136 101.723774 
L 221.872025 116.786717 
L 223.459578 116.786717 
L 223.856466 111.765736 
L 224.650242 111.765736 
L 225.04713 116.786717 
L 225.444019 116.786717 
L 225.840907 111.765736 
L 226.237795 111.765736 
L 227.031571 101.723774 
L 227.42846 101.723774 
L 227.825348 111.765736 
L 228.222236 111.765736 
L 228.619124 116.786717 
L 229.016012 111.765736 
L 229.412901 116.786717 
L 229.809789 111.765736 
L 230.206677 116.786717 
L 230.603565 116.786717 
L 231.000453 111.765736 
L 231.397342 116.786717 
L 232.588006 116.786717 
L 232.984894 126.828679 
L 233.381783 126.828679 
L 234.175559 116.786717 
L 234.572447 116.786717 
L 234.969335 121.807698 
L 235.366224 121.807698 
L 235.763112 126.828679 
L 236.16 116.786717 
L 236.953776 116.786717 
L 237.350665 106.744755 
L 237.747553 101.723774 
L 238.938217 101.723774 
L 239.335106 106.744755 
L 240.128882 96.702792 
L 240.52577 86.66083 
L 241.319547 96.702792 
L 241.716435 96.702792 
L 242.113323 106.744755 
L 242.510211 106.744755 
L 242.907099 111.765736 
L 243.303988 111.765736 
L 243.700876 116.786717 
L 244.494652 116.786717 
L 244.89154 121.807698 
L 245.288429 121.807698 
L 245.685317 111.765736 
L 246.479093 121.807698 
L 246.875981 116.786717 
L 247.27287 116.786717 
L 247.669758 121.807698 
L 248.066646 121.807698 
L 248.463534 131.84966 
L 248.860422 126.828679 
L 249.654199 136.870642 
L 250.051087 136.870642 
L 250.447975 126.828679 
L 250.844863 131.84966 
L 251.241752 131.84966 
L 251.63864 121.807698 
L 252.035528 116.786717 
L 252.829304 116.786717 
L 253.226192 121.807698 
L 253.623081 121.807698 
L 254.019969 126.828679 
L 254.813745 126.828679 
L 255.210633 121.807698 
L 255.607522 121.807698 
L 256.00441 116.786717 
L 256.401298 116.786717 
L 257.195074 126.828679 
L 258.385739 126.828679 
L 258.782627 116.786717 
L 259.179515 116.786717 
L 259.576404 121.807698 
L 259.973292 116.786717 
L 260.37018 116.786717 
L 260.767068 111.765736 
L 261.163956 111.765736 
L 261.957733 121.807698 
L 262.354621 111.765736 
L 262.751509 116.786717 
L 263.148397 116.786717 
L 263.545286 111.765736 
L 263.942174 116.786717 
L 264.339062 116.786717 
L 264.73595 111.765736 
L 266.323503 111.765736 
L 266.720391 116.786717 
L 267.514168 106.744755 
L 267.911056 106.744755 
L 268.307944 101.723774 
L 268.704832 91.681811 
L 269.10172 91.681811 
L 269.498609 101.723774 
L 269.895497 101.723774 
L 270.689273 121.807698 
L 271.48305 111.765736 
L 272.276826 111.765736 
L 272.673714 116.786717 
L 273.070602 116.786717 
L 273.467491 121.807698 
L 274.658155 121.807698 
L 275.055043 116.786717 
L 275.451932 116.786717 
L 275.84882 106.744755 
L 276.245708 106.744755 
L 276.642596 111.765736 
L 277.039484 106.744755 
L 277.436373 106.744755 
L 277.833261 96.702792 
L 278.230149 96.702792 
L 278.627037 101.723774 
L 279.023925 96.702792 
L 279.817702 106.744755 
L 280.21459 106.744755 
L 280.611478 101.723774 
L 282.595919 101.723774 
L 282.992807 96.702792 
L 283.389695 106.744755 
L 284.183472 106.744755 
L 284.58036 121.807698 
L 284.977248 126.828679 
L 285.771025 126.828679 
L 286.167913 121.807698 
L 286.564801 121.807698 
L 286.961689 111.765736 
L 287.358577 111.765736 
L 287.755466 106.744755 
L 288.549242 116.786717 
L 288.94613 116.786717 
L 289.343018 111.765736 
L 290.930571 111.765736 
L 291.327459 106.744755 
L 292.121236 116.786717 
L 292.518124 116.786717 
L 292.915012 131.84966 
L 293.3119 141.891623 
L 293.708789 136.870642 
L 294.502565 136.870642 
L 294.899453 141.891623 
L 295.296341 151.933585 
L 295.69323 151.933585 
L 296.487006 161.975547 
L 297.280782 161.975547 
L 297.677671 166.996528 
L 298.074559 166.996528 
L 298.471447 172.017509 
L 298.868335 161.975547 
L 299.265223 161.975547 
L 299.662112 156.954566 
L 300.059 156.954566 
L 300.455888 161.975547 
L 300.852776 156.954566 
L 301.249664 156.954566 
L 301.646553 166.996528 
L 302.440329 177.038491 
L 302.837217 177.038491 
L 303.234105 172.017509 
L 303.630994 161.975547 
L 304.027882 166.996528 
L 304.42477 161.975547 
L 305.218546 161.975547 
L 305.615435 156.954566 
L 306.806099 156.954566 
L 307.202987 151.933585 
L 307.599876 151.933585 
L 308.393652 141.891623 
L 308.79054 146.912604 
L 309.187428 141.891623 
L 309.584317 141.891623 
L 309.981205 136.870642 
L 310.378093 136.870642 
L 311.171869 126.828679 
L 311.568758 131.84966 
L 312.362534 131.84966 
L 312.759422 141.891623 
L 313.15631 136.870642 
L 313.553198 141.891623 
L 313.950087 136.870642 
L 314.346975 126.828679 
L 315.140751 126.828679 
L 315.537639 121.807698 
L 315.934528 126.828679 
L 316.728304 126.828679 
L 317.125192 121.807698 
L 317.52208 121.807698 
L 317.918969 116.786717 
L 318.712745 116.786717 
L 319.506521 126.828679 
L 319.90341 136.870642 
L 320.300298 136.870642 
L 320.697186 146.912604 
L 321.094074 146.912604 
L 321.887851 136.870642 
L 322.284739 136.870642 
L 322.681627 126.828679 
L 323.078515 121.807698 
L 323.475403 121.807698 
L 323.872292 116.786717 
L 324.26918 121.807698 
L 325.062956 121.807698 
L 325.459844 111.765736 
L 326.253621 111.765736 
L 326.650509 116.786717 
L 327.444285 116.786717 
L 327.841174 111.765736 
L 328.63495 121.807698 
L 329.031838 121.807698 
L 329.428726 126.828679 
L 330.222503 126.828679 
L 331.016279 116.786717 
L 331.413167 116.786717 
L 331.810056 121.807698 
L 332.206944 121.807698 
L 332.603832 126.828679 
L 333.00072 121.807698 
L 333.397608 126.828679 
L 333.794497 126.828679 
L 334.191385 131.84966 
L 334.588273 126.828679 
L 334.985161 116.786717 
L 335.382049 116.786717 
L 335.778938 111.765736 
L 336.175826 111.765736 
L 336.969602 101.723774 
L 337.36649 106.744755 
L 337.763379 106.744755 
L 338.160267 101.723774 
L 338.557155 106.744755 
L 338.954043 101.723774 
L 339.350931 91.681811 
L 339.74782 86.66083 
L 340.144708 91.681811 
L 340.938484 81.639849 
L 341.335372 81.639849 
L 341.732261 91.681811 
L 342.129149 96.702792 
L 342.526037 86.66083 
L 342.922925 86.66083 
L 344.11359 101.723774 
L 344.510478 101.723774 
L 344.907366 106.744755 
L 345.701142 106.744755 
L 346.098031 111.765736 
L 346.494919 106.744755 
L 347.288695 116.786717 
L 347.685583 111.765736 
L 348.082472 116.786717 
L 348.876248 116.786717 
L 349.670024 106.744755 
L 350.066913 111.765736 
L 350.463801 111.765736 
L 351.257577 101.723774 
L 351.654465 91.681811 
L 352.051354 86.66083 
L 352.448242 86.66083 
L 352.84513 81.639849 
L 353.638906 81.639849 
L 354.035795 86.66083 
L 355.226459 86.66083 
L 356.020236 106.744755 
L 358.004677 106.744755 
L 358.401565 111.765736 
L 358.798453 106.744755 
L 359.592229 106.744755 
L 359.989118 101.723774 
L 360.782894 101.723774 
L 361.179782 106.744755 
L 361.57667 96.702792 
L 361.973559 96.702792 
L 362.370447 106.744755 
L 362.767335 106.744755 
L 363.164223 101.723774 
L 363.958 101.723774 
L 364.354888 106.744755 
L 364.751776 106.744755 
L 365.148664 111.765736 
L 365.545552 111.765736 
L 365.942441 116.786717 
L 366.339329 111.765736 
L 366.736217 116.786717 
L 367.133105 116.786717 
L 367.926882 126.828679 
L 368.720658 96.702792 
L 369.117546 96.702792 
L 369.514434 111.765736 
L 369.911323 101.723774 
L 370.705099 101.723774 
L 371.101987 111.765736 
L 372.292652 96.702792 
L 372.68954 96.702792 
L 373.086428 91.681811 
L 373.483316 91.681811 
L 373.880204 96.702792 
L 374.673981 96.702792 
L 375.070869 91.681811 
L 375.467757 96.702792 
L 375.864645 96.702792 
L 376.261534 86.66083 
L 377.05531 86.66083 
L 377.452198 81.639849 
L 378.245975 81.639849 
L 378.642863 76.618868 
L 379.436639 86.66083 
L 380.230416 86.66083 
L 381.42108 101.723774 
L 381.817968 101.723774 
L 382.214857 96.702792 
L 382.611745 101.723774 
L 383.405521 101.723774 
L 385.78685 131.84966 
L 386.977515 131.84966 
L 387.771291 141.891623 
L 388.16818 141.891623 
L 388.565068 146.912604 
L 388.961956 156.954566 
L 389.755732 166.996528 
L 391.343285 166.996528 
L 391.740173 182.059472 
L 393.327726 182.059472 
L 393.724614 192.101434 
L 394.121503 192.101434 
L 394.518391 197.122415 
L 396.89972 197.122415 
L 397.296608 202.143396 
L 398.487273 202.143396 
L 398.487273 202.143396 
" style="fill:none;stroke:#0000ff;stroke-linecap:square;stroke-width:1.5;"/>
   </g>
   <g id="patch_3">
    <path d="M 57.6 307.584 
L 57.6 41.472 
" style="fill:none;stroke:#000000;stroke-linecap:square;stroke-linejoin:miter;stroke-width:0.8;"/>
   </g>
   <g id="patch_4">
    <path d="M 414.72 307.584 
L 414.72 41.472 
" style="fill:none;stroke:#000000;stroke-linecap:square;stroke-linejoin:miter;stroke-width:0.8;"/>
   </g>
   <g id="patch_5">
    <path d="M 57.6 307.584 
L 414.72 307.584 
" style="fill:none;stroke:#000000;stroke-linecap:square;stroke-linejoin:miter;stroke-width:0.8;"/>
   </g>
   <g id="patch_6">
    <path d="M 57.6 41.472 
L 414.72 41.472 
" style="fill:none;stroke:#000000;stroke-linecap:square;stroke-linejoin:miter;stroke-width:0.8;"/>
   </g>
   <g id="text_14">
    <!-- &gt;strB_1_M96392 Aminoglycoside resistance:Alternate name; aph(6)-Id -->
    <defs>
     <path d="M 10.59375 49.21875 
L 10.59375 58.109375 
L 73.1875 35.40625 
L 73.1875 27.296875 
L 10.59375 4.59375 
L 10.59375 13.484375 
L 60.890625 31.296875 
z
" id="DejaVuSans-62"/>
     <path d="M 41.109375 46.296875 
Q 39.59375 47.171875 37.8125 47.578125 
Q 36.03125 48 33.890625 48 
Q 26.265625 48 22.1875 43.046875 
Q 18.109375 38.09375 18.109375 28.8125 
L 18.109375 0 
L 9.078125 0 
L 9.078125 54.6875 
L 18.109375 54.6875 
L 18.109375 46.1875 
Q 20.953125 51.171875 25.484375 53.578125 
Q 30.03125 56 36.53125 56 
Q 37.453125 56 38.578125 55.875 
Q 39.703125 55.765625 41.0625 55.515625 
z
" id="DejaVuSans-114"/>
     <path d="M 19.671875 34.8125 
L 19.671875 8.109375 
L 35.5 8.109375 
Q 43.453125 8.109375 47.28125 11.40625 
Q 51.125 14.703125 51.125 21.484375 
Q 51.125 28.328125 47.28125 31.5625 
Q 43.453125 34.8125 35.5 34.8125 
z
M 19.671875 64.796875 
L 19.671875 42.828125 
L 34.28125 42.828125 
Q 41.5 42.828125 45.03125 45.53125 
Q 48.578125 48.25 48.578125 53.8125 
Q 48.578125 59.328125 45.03125 62.0625 
Q 41.5 64.796875 34.28125 64.796875 
z
M 9.8125 72.90625 
L 35.015625 72.90625 
Q 46.296875 72.90625 52.390625 68.21875 
Q 58.5 63.53125 58.5 54.890625 
Q 58.5 48.1875 55.375 44.234375 
Q 52.25 40.28125 46.1875 39.3125 
Q 53.46875 37.75 57.5 32.78125 
Q 61.53125 27.828125 61.53125 20.40625 
Q 61.53125 10.640625 54.890625 5.3125 
Q 48.25 0 35.984375 0 
L 9.8125 0 
z
" id="DejaVuSans-66"/>
     <path d="M 50.984375 -16.609375 
L 50.984375 -23.578125 
L -0.984375 -23.578125 
L -0.984375 -16.609375 
z
" id="DejaVuSans-95"/>
     <path d="M 9.8125 72.90625 
L 24.515625 72.90625 
L 43.109375 23.296875 
L 61.8125 72.90625 
L 76.515625 72.90625 
L 76.515625 0 
L 66.890625 0 
L 66.890625 64.015625 
L 48.09375 14.015625 
L 38.1875 14.015625 
L 19.390625 64.015625 
L 19.390625 0 
L 9.8125 0 
z
" id="DejaVuSans-77"/>
     <path d="M 10.984375 1.515625 
L 10.984375 10.5 
Q 14.703125 8.734375 18.5 7.8125 
Q 22.3125 6.890625 25.984375 6.890625 
Q 35.75 6.890625 40.890625 13.453125 
Q 46.046875 20.015625 46.78125 33.40625 
Q 43.953125 29.203125 39.59375 26.953125 
Q 35.25 24.703125 29.984375 24.703125 
Q 19.046875 24.703125 12.671875 31.3125 
Q 6.296875 37.9375 6.296875 49.421875 
Q 6.296875 60.640625 12.9375 67.421875 
Q 19.578125 74.21875 30.609375 74.21875 
Q 43.265625 74.21875 49.921875 64.515625 
Q 56.59375 54.828125 56.59375 36.375 
Q 56.59375 19.140625 48.40625 8.859375 
Q 40.234375 -1.421875 26.421875 -1.421875 
Q 22.703125 -1.421875 18.890625 -0.6875 
Q 15.09375 0.046875 10.984375 1.515625 
z
M 30.609375 32.421875 
Q 37.25 32.421875 41.125 36.953125 
Q 45.015625 41.5 45.015625 49.421875 
Q 45.015625 57.28125 41.125 61.84375 
Q 37.25 66.40625 30.609375 66.40625 
Q 23.96875 66.40625 20.09375 61.84375 
Q 16.21875 57.28125 16.21875 49.421875 
Q 16.21875 41.5 20.09375 36.953125 
Q 23.96875 32.421875 30.609375 32.421875 
z
" id="DejaVuSans-57"/>
     <path d="M 34.1875 63.1875 
L 20.796875 26.90625 
L 47.609375 26.90625 
z
M 28.609375 72.90625 
L 39.796875 72.90625 
L 67.578125 0 
L 57.328125 0 
L 50.6875 18.703125 
L 17.828125 18.703125 
L 11.1875 0 
L 0.78125 0 
z
" id="DejaVuSans-65"/>
     <path d="M 52 44.1875 
Q 55.375 50.25 60.0625 53.125 
Q 64.75 56 71.09375 56 
Q 79.640625 56 84.28125 50.015625 
Q 88.921875 44.046875 88.921875 33.015625 
L 88.921875 0 
L 79.890625 0 
L 79.890625 32.71875 
Q 79.890625 40.578125 77.09375 44.375 
Q 74.3125 48.1875 68.609375 48.1875 
Q 61.625 48.1875 57.5625 43.546875 
Q 53.515625 38.921875 53.515625 30.90625 
L 53.515625 0 
L 44.484375 0 
L 44.484375 32.71875 
Q 44.484375 40.625 41.703125 44.40625 
Q 38.921875 48.1875 33.109375 48.1875 
Q 26.21875 48.1875 22.15625 43.53125 
Q 18.109375 38.875 18.109375 30.90625 
L 18.109375 0 
L 9.078125 0 
L 9.078125 54.6875 
L 18.109375 54.6875 
L 18.109375 46.1875 
Q 21.1875 51.21875 25.484375 53.609375 
Q 29.78125 56 35.6875 56 
Q 41.65625 56 45.828125 52.96875 
Q 50 49.953125 52 44.1875 
z
" id="DejaVuSans-109"/>
     <path d="M 9.421875 75.984375 
L 18.40625 75.984375 
L 18.40625 0 
L 9.421875 0 
z
" id="DejaVuSans-108"/>
     <path d="M 32.171875 -5.078125 
Q 28.375 -14.84375 24.75 -17.8125 
Q 21.140625 -20.796875 15.09375 -20.796875 
L 7.90625 -20.796875 
L 7.90625 -13.28125 
L 13.1875 -13.28125 
Q 16.890625 -13.28125 18.9375 -11.515625 
Q 21 -9.765625 23.484375 -3.21875 
L 25.09375 0.875 
L 2.984375 54.6875 
L 12.5 54.6875 
L 29.59375 11.921875 
L 46.6875 54.6875 
L 56.203125 54.6875 
z
" id="DejaVuSans-121"/>
     <path d="M 48.78125 52.59375 
L 48.78125 44.1875 
Q 44.96875 46.296875 41.140625 47.34375 
Q 37.3125 48.390625 33.40625 48.390625 
Q 24.65625 48.390625 19.8125 42.84375 
Q 14.984375 37.3125 14.984375 27.296875 
Q 14.984375 17.28125 19.8125 11.734375 
Q 24.65625 6.203125 33.40625 6.203125 
Q 37.3125 6.203125 41.140625 7.25 
Q 44.96875 8.296875 48.78125 10.40625 
L 48.78125 2.09375 
Q 45.015625 0.34375 40.984375 -0.53125 
Q 36.96875 -1.421875 32.421875 -1.421875 
Q 20.0625 -1.421875 12.78125 6.34375 
Q 5.515625 14.109375 5.515625 27.296875 
Q 5.515625 40.671875 12.859375 48.328125 
Q 20.21875 56 33.015625 56 
Q 37.15625 56 41.109375 55.140625 
Q 45.0625 54.296875 48.78125 52.59375 
z
" id="DejaVuSans-99"/>
     <path d="M 34.28125 27.484375 
Q 23.390625 27.484375 19.1875 25 
Q 14.984375 22.515625 14.984375 16.5 
Q 14.984375 11.71875 18.140625 8.90625 
Q 21.296875 6.109375 26.703125 6.109375 
Q 34.1875 6.109375 38.703125 11.40625 
Q 43.21875 16.703125 43.21875 25.484375 
L 43.21875 27.484375 
z
M 52.203125 31.203125 
L 52.203125 0 
L 43.21875 0 
L 43.21875 8.296875 
Q 40.140625 3.328125 35.546875 0.953125 
Q 30.953125 -1.421875 24.3125 -1.421875 
Q 15.921875 -1.421875 10.953125 3.296875 
Q 6 8.015625 6 15.921875 
Q 6 25.140625 12.171875 29.828125 
Q 18.359375 34.515625 30.609375 34.515625 
L 43.21875 34.515625 
L 43.21875 35.40625 
Q 43.21875 41.609375 39.140625 45 
Q 35.0625 48.390625 27.6875 48.390625 
Q 23 48.390625 18.546875 47.265625 
Q 14.109375 46.140625 10.015625 43.890625 
L 10.015625 52.203125 
Q 14.9375 54.109375 19.578125 55.046875 
Q 24.21875 56 28.609375 56 
Q 40.484375 56 46.34375 49.84375 
Q 52.203125 43.703125 52.203125 31.203125 
z
" id="DejaVuSans-97"/>
     <path d="M 11.71875 12.40625 
L 22.015625 12.40625 
L 22.015625 0 
L 11.71875 0 
z
M 11.71875 51.703125 
L 22.015625 51.703125 
L 22.015625 39.3125 
L 11.71875 39.3125 
z
" id="DejaVuSans-58"/>
     <path d="M 11.71875 51.703125 
L 22.015625 51.703125 
L 22.015625 39.3125 
L 11.71875 39.3125 
z
M 11.71875 12.40625 
L 22.015625 12.40625 
L 22.015625 4 
L 14.015625 -11.625 
L 7.71875 -11.625 
L 11.71875 4 
z
" id="DejaVuSans-59"/>
     <path d="M 31 75.875 
Q 24.46875 64.65625 21.28125 53.65625 
Q 18.109375 42.671875 18.109375 31.390625 
Q 18.109375 20.125 21.3125 9.0625 
Q 24.515625 -2 31 -13.1875 
L 23.1875 -13.1875 
Q 15.875 -1.703125 12.234375 9.375 
Q 8.59375 20.453125 8.59375 31.390625 
Q 8.59375 42.28125 12.203125 53.3125 
Q 15.828125 64.359375 23.1875 75.875 
z
" id="DejaVuSans-40"/>
     <path d="M 8.015625 75.875 
L 15.828125 75.875 
Q 23.140625 64.359375 26.78125 53.3125 
Q 30.421875 42.28125 30.421875 31.390625 
Q 30.421875 20.453125 26.78125 9.375 
Q 23.140625 -1.703125 15.828125 -13.1875 
L 8.015625 -13.1875 
Q 14.5 -2 17.703125 9.0625 
Q 20.90625 20.125 20.90625 31.390625 
Q 20.90625 42.671875 17.703125 53.65625 
Q 14.5 64.65625 8.015625 75.875 
z
" id="DejaVuSans-41"/>
     <path d="M 4.890625 31.390625 
L 31.203125 31.390625 
L 31.203125 23.390625 
L 4.890625 23.390625 
z
" id="DejaVuSans-45"/>
     <path d="M 9.8125 72.90625 
L 19.671875 72.90625 
L 19.671875 0 
L 9.8125 0 
z
" id="DejaVuSans-73"/>
    </defs>
    <g transform="translate(22.690313 35.472)scale(0.12 -0.12)">
     <use xlink:href="#DejaVuSans-62"/>
     <use x="83.789062" xlink:href="#DejaVuSans-115"/>
     <use x="135.888672" xlink:href="#DejaVuSans-116"/>
     <use x="175.097656" xlink:href="#DejaVuSans-114"/>
     <use x="216.210938" xlink:href="#DejaVuSans-66"/>
     <use x="284.814453" xlink:href="#DejaVuSans-95"/>
     <use x="334.814453" xlink:href="#DejaVuSans-49"/>
     <use x="398.4375" xlink:href="#DejaVuSans-95"/>
     <use x="448.4375" xlink:href="#DejaVuSans-77"/>
     <use x="534.716797" xlink:href="#DejaVuSans-57"/>
     <use x="598.339844" xlink:href="#DejaVuSans-54"/>
     <use x="661.962891" xlink:href="#DejaVuSans-51"/>
     <use x="725.585938" xlink:href="#DejaVuSans-57"/>
     <use x="789.208984" xlink:href="#DejaVuSans-50"/>
     <use x="852.832031" xlink:href="#DejaVuSans-32"/>
     <use x="884.619141" xlink:href="#DejaVuSans-65"/>
     <use x="953.027344" xlink:href="#DejaVuSans-109"/>
     <use x="1050.439453" xlink:href="#DejaVuSans-105"/>
     <use x="1078.222656" xlink:href="#DejaVuSans-110"/>
     <use x="1141.601562" xlink:href="#DejaVuSans-111"/>
     <use x="1202.783203" xlink:href="#DejaVuSans-103"/>
     <use x="1266.259766" xlink:href="#DejaVuSans-108"/>
     <use x="1294.042969" xlink:href="#DejaVuSans-121"/>
     <use x="1353.222656" xlink:href="#DejaVuSans-99"/>
     <use x="1408.203125" xlink:href="#DejaVuSans-111"/>
     <use x="1469.384766" xlink:href="#DejaVuSans-115"/>
     <use x="1521.484375" xlink:href="#DejaVuSans-105"/>
     <use x="1549.267578" xlink:href="#DejaVuSans-100"/>
     <use x="1612.744141" xlink:href="#DejaVuSans-101"/>
     <use x="1674.267578" xlink:href="#DejaVuSans-32"/>
     <use x="1706.054688" xlink:href="#DejaVuSans-114"/>
     <use x="1747.136719" xlink:href="#DejaVuSans-101"/>
     <use x="1808.660156" xlink:href="#DejaVuSans-115"/>
     <use x="1860.759766" xlink:href="#DejaVuSans-105"/>
     <use x="1888.542969" xlink:href="#DejaVuSans-115"/>
     <use x="1940.642578" xlink:href="#DejaVuSans-116"/>
     <use x="1979.851562" xlink:href="#DejaVuSans-97"/>
     <use x="2041.130859" xlink:href="#DejaVuSans-110"/>
     <use x="2104.509766" xlink:href="#DejaVuSans-99"/>
     <use x="2159.490234" xlink:href="#DejaVuSans-101"/>
     <use x="2221.013672" xlink:href="#DejaVuSans-58"/>
     <use x="2254.705078" xlink:href="#DejaVuSans-65"/>
     <use x="2323.113281" xlink:href="#DejaVuSans-108"/>
     <use x="2350.896484" xlink:href="#DejaVuSans-116"/>
     <use x="2390.105469" xlink:href="#DejaVuSans-101"/>
     <use x="2451.628906" xlink:href="#DejaVuSans-114"/>
     <use x="2492.726562" xlink:href="#DejaVuSans-110"/>
     <use x="2556.105469" xlink:href="#DejaVuSans-97"/>
     <use x="2617.384766" xlink:href="#DejaVuSans-116"/>
     <use x="2656.59375" xlink:href="#DejaVuSans-101"/>
     <use x="2718.117188" xlink:href="#DejaVuSans-32"/>
     <use x="2749.904297" xlink:href="#DejaVuSans-110"/>
     <use x="2813.283203" xlink:href="#DejaVuSans-97"/>
     <use x="2874.5625" xlink:href="#DejaVuSans-109"/>
     <use x="2971.974609" xlink:href="#DejaVuSans-101"/>
     <use x="3033.498047" xlink:href="#DejaVuSans-59"/>
     <use x="3067.189453" xlink:href="#DejaVuSans-32"/>
     <use x="3098.976562" xlink:href="#DejaVuSans-97"/>
     <use x="3160.255859" xlink:href="#DejaVuSans-112"/>
     <use x="3223.732422" xlink:href="#DejaVuSans-104"/>
     <use x="3287.111328" xlink:href="#DejaVuSans-40"/>
     <use x="3326.125" xlink:href="#DejaVuSans-54"/>
     <use x="3389.748047" xlink:href="#DejaVuSans-41"/>
     <use x="3428.761719" xlink:href="#DejaVuSans-45"/>
     <use x="3464.845703" xlink:href="#DejaVuSans-73"/>
     <use x="3494.337891" xlink:href="#DejaVuSans-100"/>
    </g>
   </g>
  </g>
 </g>
 <defs>
  <clipPath id="p063b0458dc">
   <rect height="266.112" width="357.12" x="57.6" y="41.472"/>
  </clipPath>
 </defs>
</svg>
