<?xml version="1.0" encoding="utf-8" standalone="no"?>
<!DOCTYPE svg PUBLIC "-//W3C//DTD SVG 1.1//EN"
  "http://www.w3.org/Graphics/SVG/1.1/DTD/svg11.dtd">
<!-- Created with matplotlib (https://matplotlib.org/) -->
<svg height="345.6pt" version="1.1" viewBox="0 0 460.8 345.6" width="460.8pt" xmlns="http://www.w3.org/2000/svg" xmlns:xlink="http://www.w3.org/1999/xlink">
 <defs>
  <style type="text/css">
*{stroke-linecap:butt;stroke-linejoin:round;}
  </style>
 </defs>
 <g id="figure_1">
  <g id="patch_1">
   <path d="M 0 345.6 
L 460.8 345.6 
L 460.8 0 
L 0 0 
z
" style="fill:#ffffff;"/>
  </g>
  <g id="axes_1">
   <g id="patch_2">
    <path d="M 57.6 307.584 
L 414.72 307.584 
L 414.72 41.472 
L 57.6 41.472 
z
" style="fill:#ffffff;"/>
   </g>
   <g id="matplotlib.axis_1">
    <g id="xtick_1">
     <g id="line2d_1">
      <defs>
       <path d="M 0 0 
L 0 3.5 
" id="m21b4a4a642" style="stroke:#000000;stroke-width:0.8;"/>
      </defs>
      <g>
       <use style="stroke:#000000;stroke-width:0.8;" x="73.832727" xlink:href="#m21b4a4a642" y="307.584"/>
      </g>
     </g>
     <g id="text_1">
      <!-- 0 -->
      <defs>
       <path d="M 31.78125 66.40625 
Q 24.171875 66.40625 20.328125 58.90625 
Q 16.5 51.421875 16.5 36.375 
Q 16.5 21.390625 20.328125 13.890625 
Q 24.171875 6.390625 31.78125 6.390625 
Q 39.453125 6.390625 43.28125 13.890625 
Q 47.125 21.390625 47.125 36.375 
Q 47.125 51.421875 43.28125 58.90625 
Q 39.453125 66.40625 31.78125 66.40625 
z
M 31.78125 74.21875 
Q 44.046875 74.21875 50.515625 64.515625 
Q 56.984375 54.828125 56.984375 36.375 
Q 56.984375 17.96875 50.515625 8.265625 
Q 44.046875 -1.421875 31.78125 -1.421875 
Q 19.53125 -1.421875 13.0625 8.265625 
Q 6.59375 17.96875 6.59375 36.375 
Q 6.59375 54.828125 13.0625 64.515625 
Q 19.53125 74.21875 31.78125 74.21875 
z
" id="DejaVuSans-48"/>
      </defs>
      <g transform="translate(70.651477 322.182437)scale(0.1 -0.1)">
       <use xlink:href="#DejaVuSans-48"/>
      </g>
     </g>
    </g>
    <g id="xtick_2">
     <g id="line2d_2">
      <g>
       <use style="stroke:#000000;stroke-width:0.8;" x="150.856344" xlink:href="#m21b4a4a642" y="307.584"/>
      </g>
     </g>
     <g id="text_2">
      <!-- 200 -->
      <defs>
       <path d="M 19.1875 8.296875 
L 53.609375 8.296875 
L 53.609375 0 
L 7.328125 0 
L 7.328125 8.296875 
Q 12.9375 14.109375 22.625 23.890625 
Q 32.328125 33.6875 34.8125 36.53125 
Q 39.546875 41.84375 41.421875 45.53125 
Q 43.3125 49.21875 43.3125 52.78125 
Q 43.3125 58.59375 39.234375 62.25 
Q 35.15625 65.921875 28.609375 65.921875 
Q 23.96875 65.921875 18.8125 64.3125 
Q 13.671875 62.703125 7.8125 59.421875 
L 7.8125 69.390625 
Q 13.765625 71.78125 18.9375 73 
Q 24.125 74.21875 28.421875 74.21875 
Q 39.75 74.21875 46.484375 68.546875 
Q 53.21875 62.890625 53.21875 53.421875 
Q 53.21875 48.921875 51.53125 44.890625 
Q 49.859375 40.875 45.40625 35.40625 
Q 44.1875 33.984375 37.640625 27.21875 
Q 31.109375 20.453125 19.1875 8.296875 
z
" id="DejaVuSans-50"/>
      </defs>
      <g transform="translate(141.312594 322.182437)scale(0.1 -0.1)">
       <use xlink:href="#DejaVuSans-50"/>
       <use x="63.623047" xlink:href="#DejaVuSans-48"/>
       <use x="127.246094" xlink:href="#DejaVuSans-48"/>
      </g>
     </g>
    </g>
    <g id="xtick_3">
     <g id="line2d_3">
      <g>
       <use style="stroke:#000000;stroke-width:0.8;" x="227.879961" xlink:href="#m21b4a4a642" y="307.584"/>
      </g>
     </g>
     <g id="text_3">
      <!-- 400 -->
      <defs>
       <path d="M 37.796875 64.3125 
L 12.890625 25.390625 
L 37.796875 25.390625 
z
M 35.203125 72.90625 
L 47.609375 72.90625 
L 47.609375 25.390625 
L 58.015625 25.390625 
L 58.015625 17.1875 
L 47.609375 17.1875 
L 47.609375 0 
L 37.796875 0 
L 37.796875 17.1875 
L 4.890625 17.1875 
L 4.890625 26.703125 
z
" id="DejaVuSans-52"/>
      </defs>
      <g transform="translate(218.336211 322.182437)scale(0.1 -0.1)">
       <use xlink:href="#DejaVuSans-52"/>
       <use x="63.623047" xlink:href="#DejaVuSans-48"/>
       <use x="127.246094" xlink:href="#DejaVuSans-48"/>
      </g>
     </g>
    </g>
    <g id="xtick_4">
     <g id="line2d_4">
      <g>
       <use style="stroke:#000000;stroke-width:0.8;" x="304.903578" xlink:href="#m21b4a4a642" y="307.584"/>
      </g>
     </g>
     <g id="text_4">
      <!-- 600 -->
      <defs>
       <path d="M 33.015625 40.375 
Q 26.375 40.375 22.484375 35.828125 
Q 18.609375 31.296875 18.609375 23.390625 
Q 18.609375 15.53125 22.484375 10.953125 
Q 26.375 6.390625 33.015625 6.390625 
Q 39.65625 6.390625 43.53125 10.953125 
Q 47.40625 15.53125 47.40625 23.390625 
Q 47.40625 31.296875 43.53125 35.828125 
Q 39.65625 40.375 33.015625 40.375 
z
M 52.59375 71.296875 
L 52.59375 62.3125 
Q 48.875 64.0625 45.09375 64.984375 
Q 41.3125 65.921875 37.59375 65.921875 
Q 27.828125 65.921875 22.671875 59.328125 
Q 17.53125 52.734375 16.796875 39.40625 
Q 19.671875 43.65625 24.015625 45.921875 
Q 28.375 48.1875 33.59375 48.1875 
Q 44.578125 48.1875 50.953125 41.515625 
Q 57.328125 34.859375 57.328125 23.390625 
Q 57.328125 12.15625 50.6875 5.359375 
Q 44.046875 -1.421875 33.015625 -1.421875 
Q 20.359375 -1.421875 13.671875 8.265625 
Q 6.984375 17.96875 6.984375 36.375 
Q 6.984375 53.65625 15.1875 63.9375 
Q 23.390625 74.21875 37.203125 74.21875 
Q 40.921875 74.21875 44.703125 73.484375 
Q 48.484375 72.75 52.59375 71.296875 
z
" id="DejaVuSans-54"/>
      </defs>
      <g transform="translate(295.359828 322.182437)scale(0.1 -0.1)">
       <use xlink:href="#DejaVuSans-54"/>
       <use x="63.623047" xlink:href="#DejaVuSans-48"/>
       <use x="127.246094" xlink:href="#DejaVuSans-48"/>
      </g>
     </g>
    </g>
    <g id="xtick_5">
     <g id="line2d_5">
      <g>
       <use style="stroke:#000000;stroke-width:0.8;" x="381.927195" xlink:href="#m21b4a4a642" y="307.584"/>
      </g>
     </g>
     <g id="text_5">
      <!-- 800 -->
      <defs>
       <path d="M 31.78125 34.625 
Q 24.75 34.625 20.71875 30.859375 
Q 16.703125 27.09375 16.703125 20.515625 
Q 16.703125 13.921875 20.71875 10.15625 
Q 24.75 6.390625 31.78125 6.390625 
Q 38.8125 6.390625 42.859375 10.171875 
Q 46.921875 13.96875 46.921875 20.515625 
Q 46.921875 27.09375 42.890625 30.859375 
Q 38.875 34.625 31.78125 34.625 
z
M 21.921875 38.8125 
Q 15.578125 40.375 12.03125 44.71875 
Q 8.5 49.078125 8.5 55.328125 
Q 8.5 64.0625 14.71875 69.140625 
Q 20.953125 74.21875 31.78125 74.21875 
Q 42.671875 74.21875 48.875 69.140625 
Q 55.078125 64.0625 55.078125 55.328125 
Q 55.078125 49.078125 51.53125 44.71875 
Q 48 40.375 41.703125 38.8125 
Q 48.828125 37.15625 52.796875 32.3125 
Q 56.78125 27.484375 56.78125 20.515625 
Q 56.78125 9.90625 50.3125 4.234375 
Q 43.84375 -1.421875 31.78125 -1.421875 
Q 19.734375 -1.421875 13.25 4.234375 
Q 6.78125 9.90625 6.78125 20.515625 
Q 6.78125 27.484375 10.78125 32.3125 
Q 14.796875 37.15625 21.921875 38.8125 
z
M 18.3125 54.390625 
Q 18.3125 48.734375 21.84375 45.5625 
Q 25.390625 42.390625 31.78125 42.390625 
Q 38.140625 42.390625 41.71875 45.5625 
Q 45.3125 48.734375 45.3125 54.390625 
Q 45.3125 60.0625 41.71875 63.234375 
Q 38.140625 66.40625 31.78125 66.40625 
Q 25.390625 66.40625 21.84375 63.234375 
Q 18.3125 60.0625 18.3125 54.390625 
z
" id="DejaVuSans-56"/>
      </defs>
      <g transform="translate(372.383445 322.182437)scale(0.1 -0.1)">
       <use xlink:href="#DejaVuSans-56"/>
       <use x="63.623047" xlink:href="#DejaVuSans-48"/>
       <use x="127.246094" xlink:href="#DejaVuSans-48"/>
      </g>
     </g>
    </g>
    <g id="text_6">
     <!-- gene position -->
     <defs>
      <path d="M 45.40625 27.984375 
Q 45.40625 37.75 41.375 43.109375 
Q 37.359375 48.484375 30.078125 48.484375 
Q 22.859375 48.484375 18.828125 43.109375 
Q 14.796875 37.75 14.796875 27.984375 
Q 14.796875 18.265625 18.828125 12.890625 
Q 22.859375 7.515625 30.078125 7.515625 
Q 37.359375 7.515625 41.375 12.890625 
Q 45.40625 18.265625 45.40625 27.984375 
z
M 54.390625 6.78125 
Q 54.390625 -7.171875 48.1875 -13.984375 
Q 42 -20.796875 29.203125 -20.796875 
Q 24.46875 -20.796875 20.265625 -20.09375 
Q 16.0625 -19.390625 12.109375 -17.921875 
L 12.109375 -9.1875 
Q 16.0625 -11.328125 19.921875 -12.34375 
Q 23.78125 -13.375 27.78125 -13.375 
Q 36.625 -13.375 41.015625 -8.765625 
Q 45.40625 -4.15625 45.40625 5.171875 
L 45.40625 9.625 
Q 42.625 4.78125 38.28125 2.390625 
Q 33.9375 0 27.875 0 
Q 17.828125 0 11.671875 7.65625 
Q 5.515625 15.328125 5.515625 27.984375 
Q 5.515625 40.671875 11.671875 48.328125 
Q 17.828125 56 27.875 56 
Q 33.9375 56 38.28125 53.609375 
Q 42.625 51.21875 45.40625 46.390625 
L 45.40625 54.6875 
L 54.390625 54.6875 
z
" id="DejaVuSans-103"/>
      <path d="M 56.203125 29.59375 
L 56.203125 25.203125 
L 14.890625 25.203125 
Q 15.484375 15.921875 20.484375 11.0625 
Q 25.484375 6.203125 34.421875 6.203125 
Q 39.59375 6.203125 44.453125 7.46875 
Q 49.3125 8.734375 54.109375 11.28125 
L 54.109375 2.78125 
Q 49.265625 0.734375 44.1875 -0.34375 
Q 39.109375 -1.421875 33.890625 -1.421875 
Q 20.796875 -1.421875 13.15625 6.1875 
Q 5.515625 13.8125 5.515625 26.8125 
Q 5.515625 40.234375 12.765625 48.109375 
Q 20.015625 56 32.328125 56 
Q 43.359375 56 49.78125 48.890625 
Q 56.203125 41.796875 56.203125 29.59375 
z
M 47.21875 32.234375 
Q 47.125 39.59375 43.09375 43.984375 
Q 39.0625 48.390625 32.421875 48.390625 
Q 24.90625 48.390625 20.390625 44.140625 
Q 15.875 39.890625 15.1875 32.171875 
z
" id="DejaVuSans-101"/>
      <path d="M 54.890625 33.015625 
L 54.890625 0 
L 45.90625 0 
L 45.90625 32.71875 
Q 45.90625 40.484375 42.875 44.328125 
Q 39.84375 48.1875 33.796875 48.1875 
Q 26.515625 48.1875 22.3125 43.546875 
Q 18.109375 38.921875 18.109375 30.90625 
L 18.109375 0 
L 9.078125 0 
L 9.078125 54.6875 
L 18.109375 54.6875 
L 18.109375 46.1875 
Q 21.34375 51.125 25.703125 53.5625 
Q 30.078125 56 35.796875 56 
Q 45.21875 56 50.046875 50.171875 
Q 54.890625 44.34375 54.890625 33.015625 
z
" id="DejaVuSans-110"/>
      <path id="DejaVuSans-32"/>
      <path d="M 18.109375 8.203125 
L 18.109375 -20.796875 
L 9.078125 -20.796875 
L 9.078125 54.6875 
L 18.109375 54.6875 
L 18.109375 46.390625 
Q 20.953125 51.265625 25.265625 53.625 
Q 29.59375 56 35.59375 56 
Q 45.5625 56 51.78125 48.09375 
Q 58.015625 40.1875 58.015625 27.296875 
Q 58.015625 14.40625 51.78125 6.484375 
Q 45.5625 -1.421875 35.59375 -1.421875 
Q 29.59375 -1.421875 25.265625 0.953125 
Q 20.953125 3.328125 18.109375 8.203125 
z
M 48.6875 27.296875 
Q 48.6875 37.203125 44.609375 42.84375 
Q 40.53125 48.484375 33.40625 48.484375 
Q 26.265625 48.484375 22.1875 42.84375 
Q 18.109375 37.203125 18.109375 27.296875 
Q 18.109375 17.390625 22.1875 11.75 
Q 26.265625 6.109375 33.40625 6.109375 
Q 40.53125 6.109375 44.609375 11.75 
Q 48.6875 17.390625 48.6875 27.296875 
z
" id="DejaVuSans-112"/>
      <path d="M 30.609375 48.390625 
Q 23.390625 48.390625 19.1875 42.75 
Q 14.984375 37.109375 14.984375 27.296875 
Q 14.984375 17.484375 19.15625 11.84375 
Q 23.34375 6.203125 30.609375 6.203125 
Q 37.796875 6.203125 41.984375 11.859375 
Q 46.1875 17.53125 46.1875 27.296875 
Q 46.1875 37.015625 41.984375 42.703125 
Q 37.796875 48.390625 30.609375 48.390625 
z
M 30.609375 56 
Q 42.328125 56 49.015625 48.375 
Q 55.71875 40.765625 55.71875 27.296875 
Q 55.71875 13.875 49.015625 6.21875 
Q 42.328125 -1.421875 30.609375 -1.421875 
Q 18.84375 -1.421875 12.171875 6.21875 
Q 5.515625 13.875 5.515625 27.296875 
Q 5.515625 40.765625 12.171875 48.375 
Q 18.84375 56 30.609375 56 
z
" id="DejaVuSans-111"/>
      <path d="M 44.28125 53.078125 
L 44.28125 44.578125 
Q 40.484375 46.53125 36.375 47.5 
Q 32.28125 48.484375 27.875 48.484375 
Q 21.1875 48.484375 17.84375 46.4375 
Q 14.5 44.390625 14.5 40.28125 
Q 14.5 37.15625 16.890625 35.375 
Q 19.28125 33.59375 26.515625 31.984375 
L 29.59375 31.296875 
Q 39.15625 29.25 43.1875 25.515625 
Q 47.21875 21.78125 47.21875 15.09375 
Q 47.21875 7.46875 41.1875 3.015625 
Q 35.15625 -1.421875 24.609375 -1.421875 
Q 20.21875 -1.421875 15.453125 -0.5625 
Q 10.6875 0.296875 5.421875 2 
L 5.421875 11.28125 
Q 10.40625 8.6875 15.234375 7.390625 
Q 20.0625 6.109375 24.8125 6.109375 
Q 31.15625 6.109375 34.5625 8.28125 
Q 37.984375 10.453125 37.984375 14.40625 
Q 37.984375 18.0625 35.515625 20.015625 
Q 33.0625 21.96875 24.703125 23.78125 
L 21.578125 24.515625 
Q 13.234375 26.265625 9.515625 29.90625 
Q 5.8125 33.546875 5.8125 39.890625 
Q 5.8125 47.609375 11.28125 51.796875 
Q 16.75 56 26.8125 56 
Q 31.78125 56 36.171875 55.265625 
Q 40.578125 54.546875 44.28125 53.078125 
z
" id="DejaVuSans-115"/>
      <path d="M 9.421875 54.6875 
L 18.40625 54.6875 
L 18.40625 0 
L 9.421875 0 
z
M 9.421875 75.984375 
L 18.40625 75.984375 
L 18.40625 64.59375 
L 9.421875 64.59375 
z
" id="DejaVuSans-105"/>
      <path d="M 18.3125 70.21875 
L 18.3125 54.6875 
L 36.8125 54.6875 
L 36.8125 47.703125 
L 18.3125 47.703125 
L 18.3125 18.015625 
Q 18.3125 11.328125 20.140625 9.421875 
Q 21.96875 7.515625 27.59375 7.515625 
L 36.8125 7.515625 
L 36.8125 0 
L 27.59375 0 
Q 17.1875 0 13.234375 3.875 
Q 9.28125 7.765625 9.28125 18.015625 
L 9.28125 47.703125 
L 2.6875 47.703125 
L 2.6875 54.6875 
L 9.28125 54.6875 
L 9.28125 70.21875 
z
" id="DejaVuSans-116"/>
     </defs>
     <g transform="translate(202.270156 335.860562)scale(0.1 -0.1)">
      <use xlink:href="#DejaVuSans-103"/>
      <use x="63.476562" xlink:href="#DejaVuSans-101"/>
      <use x="125" xlink:href="#DejaVuSans-110"/>
      <use x="188.378906" xlink:href="#DejaVuSans-101"/>
      <use x="249.902344" xlink:href="#DejaVuSans-32"/>
      <use x="281.689453" xlink:href="#DejaVuSans-112"/>
      <use x="345.166016" xlink:href="#DejaVuSans-111"/>
      <use x="406.347656" xlink:href="#DejaVuSans-115"/>
      <use x="458.447266" xlink:href="#DejaVuSans-105"/>
      <use x="486.230469" xlink:href="#DejaVuSans-116"/>
      <use x="525.439453" xlink:href="#DejaVuSans-105"/>
      <use x="553.222656" xlink:href="#DejaVuSans-111"/>
      <use x="614.404297" xlink:href="#DejaVuSans-110"/>
     </g>
    </g>
   </g>
   <g id="matplotlib.axis_2">
    <g id="ytick_1">
     <g id="line2d_6">
      <defs>
       <path d="M 0 0 
L -3.5 0 
" id="m8425982c07" style="stroke:#000000;stroke-width:0.8;"/>
      </defs>
      <g>
       <use style="stroke:#000000;stroke-width:0.8;" x="57.6" xlink:href="#m8425982c07" y="307.584"/>
      </g>
     </g>
     <g id="text_7">
      <!-- 0 -->
      <g transform="translate(44.2375 311.383219)scale(0.1 -0.1)">
       <use xlink:href="#DejaVuSans-48"/>
      </g>
     </g>
    </g>
    <g id="ytick_2">
     <g id="line2d_7">
      <g>
       <use style="stroke:#000000;stroke-width:0.8;" x="57.6" xlink:href="#m8425982c07" y="256.408615"/>
      </g>
     </g>
     <g id="text_8">
      <!-- 10 -->
      <defs>
       <path d="M 12.40625 8.296875 
L 28.515625 8.296875 
L 28.515625 63.921875 
L 10.984375 60.40625 
L 10.984375 69.390625 
L 28.421875 72.90625 
L 38.28125 72.90625 
L 38.28125 8.296875 
L 54.390625 8.296875 
L 54.390625 0 
L 12.40625 0 
z
" id="DejaVuSans-49"/>
      </defs>
      <g transform="translate(37.875 260.207834)scale(0.1 -0.1)">
       <use xlink:href="#DejaVuSans-49"/>
       <use x="63.623047" xlink:href="#DejaVuSans-48"/>
      </g>
     </g>
    </g>
    <g id="ytick_3">
     <g id="line2d_8">
      <g>
       <use style="stroke:#000000;stroke-width:0.8;" x="57.6" xlink:href="#m8425982c07" y="205.233231"/>
      </g>
     </g>
     <g id="text_9">
      <!-- 20 -->
      <g transform="translate(37.875 209.03245)scale(0.1 -0.1)">
       <use xlink:href="#DejaVuSans-50"/>
       <use x="63.623047" xlink:href="#DejaVuSans-48"/>
      </g>
     </g>
    </g>
    <g id="ytick_4">
     <g id="line2d_9">
      <g>
       <use style="stroke:#000000;stroke-width:0.8;" x="57.6" xlink:href="#m8425982c07" y="154.057846"/>
      </g>
     </g>
     <g id="text_10">
      <!-- 30 -->
      <defs>
       <path d="M 40.578125 39.3125 
Q 47.65625 37.796875 51.625 33 
Q 55.609375 28.21875 55.609375 21.1875 
Q 55.609375 10.40625 48.1875 4.484375 
Q 40.765625 -1.421875 27.09375 -1.421875 
Q 22.515625 -1.421875 17.65625 -0.515625 
Q 12.796875 0.390625 7.625 2.203125 
L 7.625 11.71875 
Q 11.71875 9.328125 16.59375 8.109375 
Q 21.484375 6.890625 26.8125 6.890625 
Q 36.078125 6.890625 40.9375 10.546875 
Q 45.796875 14.203125 45.796875 21.1875 
Q 45.796875 27.640625 41.28125 31.265625 
Q 36.765625 34.90625 28.71875 34.90625 
L 20.21875 34.90625 
L 20.21875 43.015625 
L 29.109375 43.015625 
Q 36.375 43.015625 40.234375 45.921875 
Q 44.09375 48.828125 44.09375 54.296875 
Q 44.09375 59.90625 40.109375 62.90625 
Q 36.140625 65.921875 28.71875 65.921875 
Q 24.65625 65.921875 20.015625 65.03125 
Q 15.375 64.15625 9.8125 62.3125 
L 9.8125 71.09375 
Q 15.4375 72.65625 20.34375 73.4375 
Q 25.25 74.21875 29.59375 74.21875 
Q 40.828125 74.21875 47.359375 69.109375 
Q 53.90625 64.015625 53.90625 55.328125 
Q 53.90625 49.265625 50.4375 45.09375 
Q 46.96875 40.921875 40.578125 39.3125 
z
" id="DejaVuSans-51"/>
      </defs>
      <g transform="translate(37.875 157.857065)scale(0.1 -0.1)">
       <use xlink:href="#DejaVuSans-51"/>
       <use x="63.623047" xlink:href="#DejaVuSans-48"/>
      </g>
     </g>
    </g>
    <g id="ytick_5">
     <g id="line2d_10">
      <g>
       <use style="stroke:#000000;stroke-width:0.8;" x="57.6" xlink:href="#m8425982c07" y="102.882462"/>
      </g>
     </g>
     <g id="text_11">
      <!-- 40 -->
      <g transform="translate(37.875 106.68168)scale(0.1 -0.1)">
       <use xlink:href="#DejaVuSans-52"/>
       <use x="63.623047" xlink:href="#DejaVuSans-48"/>
      </g>
     </g>
    </g>
    <g id="ytick_6">
     <g id="line2d_11">
      <g>
       <use style="stroke:#000000;stroke-width:0.8;" x="57.6" xlink:href="#m8425982c07" y="51.707077"/>
      </g>
     </g>
     <g id="text_12">
      <!-- 50 -->
      <defs>
       <path d="M 10.796875 72.90625 
L 49.515625 72.90625 
L 49.515625 64.59375 
L 19.828125 64.59375 
L 19.828125 46.734375 
Q 21.96875 47.46875 24.109375 47.828125 
Q 26.265625 48.1875 28.421875 48.1875 
Q 40.625 48.1875 47.75 41.5 
Q 54.890625 34.8125 54.890625 23.390625 
Q 54.890625 11.625 47.5625 5.09375 
Q 40.234375 -1.421875 26.90625 -1.421875 
Q 22.3125 -1.421875 17.546875 -0.640625 
Q 12.796875 0.140625 7.71875 1.703125 
L 7.71875 11.625 
Q 12.109375 9.234375 16.796875 8.0625 
Q 21.484375 6.890625 26.703125 6.890625 
Q 35.15625 6.890625 40.078125 11.328125 
Q 45.015625 15.765625 45.015625 23.390625 
Q 45.015625 31 40.078125 35.4375 
Q 35.15625 39.890625 26.703125 39.890625 
Q 22.75 39.890625 18.8125 39.015625 
Q 14.890625 38.140625 10.796875 36.28125 
z
" id="DejaVuSans-53"/>
      </defs>
      <g transform="translate(37.875 55.506296)scale(0.1 -0.1)">
       <use xlink:href="#DejaVuSans-53"/>
       <use x="63.623047" xlink:href="#DejaVuSans-48"/>
      </g>
     </g>
    </g>
    <g id="text_13">
     <!-- depth -->
     <defs>
      <path d="M 45.40625 46.390625 
L 45.40625 75.984375 
L 54.390625 75.984375 
L 54.390625 0 
L 45.40625 0 
L 45.40625 8.203125 
Q 42.578125 3.328125 38.25 0.953125 
Q 33.9375 -1.421875 27.875 -1.421875 
Q 17.96875 -1.421875 11.734375 6.484375 
Q 5.515625 14.40625 5.515625 27.296875 
Q 5.515625 40.1875 11.734375 48.09375 
Q 17.96875 56 27.875 56 
Q 33.9375 56 38.25 53.625 
Q 42.578125 51.265625 45.40625 46.390625 
z
M 14.796875 27.296875 
Q 14.796875 17.390625 18.875 11.75 
Q 22.953125 6.109375 30.078125 6.109375 
Q 37.203125 6.109375 41.296875 11.75 
Q 45.40625 17.390625 45.40625 27.296875 
Q 45.40625 37.203125 41.296875 42.84375 
Q 37.203125 48.484375 30.078125 48.484375 
Q 22.953125 48.484375 18.875 42.84375 
Q 14.796875 37.203125 14.796875 27.296875 
z
" id="DejaVuSans-100"/>
      <path d="M 54.890625 33.015625 
L 54.890625 0 
L 45.90625 0 
L 45.90625 32.71875 
Q 45.90625 40.484375 42.875 44.328125 
Q 39.84375 48.1875 33.796875 48.1875 
Q 26.515625 48.1875 22.3125 43.546875 
Q 18.109375 38.921875 18.109375 30.90625 
L 18.109375 0 
L 9.078125 0 
L 9.078125 75.984375 
L 18.109375 75.984375 
L 18.109375 46.1875 
Q 21.34375 51.125 25.703125 53.5625 
Q 30.078125 56 35.796875 56 
Q 45.21875 56 50.046875 50.171875 
Q 54.890625 44.34375 54.890625 33.015625 
z
" id="DejaVuSans-104"/>
     </defs>
     <g transform="translate(31.795312 189.081906)rotate(-90)scale(0.1 -0.1)">
      <use xlink:href="#DejaVuSans-100"/>
      <use x="63.476562" xlink:href="#DejaVuSans-101"/>
      <use x="125" xlink:href="#DejaVuSans-112"/>
      <use x="188.476562" xlink:href="#DejaVuSans-116"/>
      <use x="227.685547" xlink:href="#DejaVuSans-104"/>
     </g>
    </g>
   </g>
   <g id="line2d_12">
    <path clip-path="url(#p2f4adc816a)" d="M 73.832727 194.998154 
L 74.989454 194.998154 
L 75.375029 179.645538 
L 76.14618 179.645538 
L 76.531756 174.528 
L 76.917331 174.528 
L 77.302906 169.410462 
L 78.459633 169.410462 
L 78.845208 164.292923 
L 79.616359 164.292923 
L 80.38751 154.057846 
L 80.773086 154.057846 
L 81.158661 143.822769 
L 81.544237 138.705231 
L 82.315388 138.705231 
L 82.700963 133.587692 
L 83.086539 133.587692 
L 83.472114 118.235077 
L 84.243265 118.235077 
L 84.62884 102.882462 
L 85.014416 102.882462 
L 85.399991 92.647385 
L 86.556718 92.647385 
L 87.327869 72.177231 
L 87.713444 67.059692 
L 89.641322 67.059692 
L 90.026897 61.942154 
L 91.183623 61.942154 
L 91.954774 51.707077 
L 92.34035 51.707077 
L 92.725925 61.942154 
L 93.111501 56.824615 
L 93.497076 67.059692 
L 94.268227 56.824615 
L 94.653803 56.824615 
L 95.039378 51.707077 
L 95.424954 61.942154 
L 95.810529 61.942154 
L 96.196105 67.059692 
L 96.58168 67.059692 
L 96.967255 61.942154 
L 97.352831 72.177231 
L 97.738406 67.059692 
L 98.123982 67.059692 
L 98.509557 56.824615 
L 99.280708 56.824615 
L 99.666284 61.942154 
L 100.051859 72.177231 
L 100.437435 72.177231 
L 100.82301 77.294769 
L 101.594161 77.294769 
L 102.365312 87.529846 
L 103.522038 87.529846 
L 103.907614 92.647385 
L 104.293189 92.647385 
L 104.678765 82.412308 
L 105.449916 72.177231 
L 106.992218 72.177231 
L 107.377793 82.412308 
L 107.763369 77.294769 
L 108.148944 77.294769 
L 108.53452 82.412308 
L 108.920095 72.177231 
L 109.30567 77.294769 
L 109.691246 72.177231 
L 110.076821 72.177231 
L 110.462397 67.059692 
L 110.847972 72.177231 
L 111.233548 72.177231 
L 111.619123 82.412308 
L 112.004699 82.412308 
L 112.390274 87.529846 
L 112.77585 82.412308 
L 113.161425 82.412308 
L 113.547001 87.529846 
L 114.318152 87.529846 
L 114.703727 92.647385 
L 115.089303 92.647385 
L 115.474878 102.882462 
L 116.246029 102.882462 
L 116.631604 113.117538 
L 117.01718 113.117538 
L 117.402755 118.235077 
L 117.788331 118.235077 
L 118.173906 113.117538 
L 119.330633 113.117538 
L 119.716208 118.235077 
L 120.101784 113.117538 
L 122.800812 113.117538 
L 124.343114 133.587692 
L 124.728689 133.587692 
L 125.114265 138.705231 
L 126.270991 138.705231 
L 126.656567 123.352615 
L 127.042142 133.587692 
L 127.427718 133.587692 
L 127.813293 128.470154 
L 128.584444 128.470154 
L 128.970019 133.587692 
L 129.355595 133.587692 
L 129.74117 128.470154 
L 130.126746 118.235077 
L 130.512321 118.235077 
L 130.897897 113.117538 
L 131.283472 118.235077 
L 131.669048 108 
L 132.825774 108 
L 133.21135 113.117538 
L 135.139227 87.529846 
L 135.524802 87.529846 
L 135.910378 82.412308 
L 136.295953 87.529846 
L 136.681529 102.882462 
L 137.067104 108 
L 138.994982 108 
L 139.766133 118.235077 
L 140.151708 113.117538 
L 141.308434 113.117538 
L 141.69401 118.235077 
L 142.079585 102.882462 
L 142.465161 97.764923 
L 142.850736 87.529846 
L 143.621887 87.529846 
L 144.007463 92.647385 
L 144.393038 92.647385 
L 144.778614 87.529846 
L 145.164189 87.529846 
L 145.549765 82.412308 
L 145.93534 82.412308 
L 146.320916 77.294769 
L 147.092067 77.294769 
L 147.477642 82.412308 
L 147.863217 82.412308 
L 148.248793 77.294769 
L 148.634368 82.412308 
L 149.405519 82.412308 
L 149.791095 77.294769 
L 150.17667 82.412308 
L 150.562246 72.177231 
L 150.947821 77.294769 
L 151.333397 92.647385 
L 151.718972 92.647385 
L 152.104548 97.764923 
L 154.803576 97.764923 
L 155.189151 92.647385 
L 155.960302 92.647385 
L 156.731453 82.412308 
L 157.117029 82.412308 
L 157.502604 72.177231 
L 157.88818 77.294769 
L 158.273755 77.294769 
L 158.659331 87.529846 
L 159.044906 82.412308 
L 159.430482 72.177231 
L 159.816057 72.177231 
L 160.201632 67.059692 
L 161.358359 67.059692 
L 162.515085 97.764923 
L 162.900661 102.882462 
L 163.286236 92.647385 
L 164.057387 82.412308 
L 165.214114 82.412308 
L 166.756415 102.882462 
L 167.141991 113.117538 
L 168.298717 113.117538 
L 168.684293 118.235077 
L 169.069868 113.117538 
L 169.455444 118.235077 
L 170.61217 118.235077 
L 170.997746 123.352615 
L 171.383321 123.352615 
L 171.768897 118.235077 
L 172.154472 128.470154 
L 173.311198 143.822769 
L 173.696774 138.705231 
L 174.082349 148.940308 
L 174.8535 159.175385 
L 175.239076 154.057846 
L 175.624651 154.057846 
L 176.010227 143.822769 
L 176.395802 143.822769 
L 176.781378 138.705231 
L 177.552529 148.940308 
L 178.709255 148.940308 
L 179.09483 138.705231 
L 179.480406 138.705231 
L 179.865981 133.587692 
L 180.251557 138.705231 
L 180.637132 138.705231 
L 181.022708 143.822769 
L 181.408283 138.705231 
L 182.179434 138.705231 
L 182.56501 148.940308 
L 182.950585 148.940308 
L 183.336161 143.822769 
L 184.107312 143.822769 
L 184.492887 133.587692 
L 185.264038 133.587692 
L 185.649613 128.470154 
L 186.420764 128.470154 
L 186.80634 123.352615 
L 187.191915 133.587692 
L 187.963066 133.587692 
L 188.734217 143.822769 
L 189.119793 143.822769 
L 189.505368 154.057846 
L 189.890944 154.057846 
L 190.276519 159.175385 
L 190.662095 159.175385 
L 191.04767 164.292923 
L 191.433246 174.528 
L 191.818821 174.528 
L 192.204396 179.645538 
L 192.589972 179.645538 
L 192.975547 169.410462 
L 193.361123 169.410462 
L 194.132274 159.175385 
L 194.517849 148.940308 
L 194.903425 148.940308 
L 196.060151 164.292923 
L 196.831302 164.292923 
L 197.216878 154.057846 
L 197.988029 154.057846 
L 198.373604 143.822769 
L 199.53033 143.822769 
L 199.915906 138.705231 
L 200.301481 138.705231 
L 200.687057 143.822769 
L 201.072632 133.587692 
L 201.843783 123.352615 
L 202.229359 123.352615 
L 202.614934 118.235077 
L 203.386085 118.235077 
L 203.771661 123.352615 
L 204.928387 123.352615 
L 205.699538 113.117538 
L 208.398566 113.117538 
L 208.784142 123.352615 
L 209.169717 128.470154 
L 210.326444 113.117538 
L 210.712019 113.117538 
L 211.097594 123.352615 
L 211.48317 118.235077 
L 211.868745 123.352615 
L 212.254321 123.352615 
L 212.639896 118.235077 
L 213.025472 118.235077 
L 213.411047 113.117538 
L 213.796623 118.235077 
L 214.182198 108 
L 214.953349 108 
L 215.338925 113.117538 
L 215.7245 108 
L 216.110076 108 
L 216.495651 118.235077 
L 217.266802 118.235077 
L 217.652377 123.352615 
L 218.423528 123.352615 
L 218.809104 118.235077 
L 220.736981 118.235077 
L 221.122557 108 
L 221.508132 108 
L 221.893708 102.882462 
L 223.43601 102.882462 
L 223.821585 108 
L 224.20716 108 
L 224.592736 87.529846 
L 224.978311 92.647385 
L 225.363887 92.647385 
L 225.749462 87.529846 
L 226.520613 97.764923 
L 226.906189 97.764923 
L 227.291764 102.882462 
L 228.062915 92.647385 
L 228.448491 92.647385 
L 228.834066 87.529846 
L 229.219642 97.764923 
L 229.990792 87.529846 
L 230.376368 92.647385 
L 230.761943 87.529846 
L 231.147519 87.529846 
L 231.533094 72.177231 
L 232.689821 72.177231 
L 233.075396 77.294769 
L 233.460972 72.177231 
L 233.846547 82.412308 
L 234.232123 77.294769 
L 234.617698 82.412308 
L 236.16 61.942154 
L 236.545575 61.942154 
L 236.931151 56.824615 
L 237.702302 77.294769 
L 238.087877 72.177231 
L 238.473453 72.177231 
L 238.859028 67.059692 
L 239.244604 72.177231 
L 239.630179 72.177231 
L 240.015755 82.412308 
L 240.786906 82.412308 
L 241.172481 77.294769 
L 241.558057 82.412308 
L 241.943632 82.412308 
L 242.329208 72.177231 
L 242.714783 67.059692 
L 243.100358 72.177231 
L 243.871509 72.177231 
L 244.257085 61.942154 
L 244.64266 61.942154 
L 245.028236 51.707077 
L 245.413811 56.824615 
L 245.799387 51.707077 
L 246.184962 61.942154 
L 246.570538 67.059692 
L 246.956113 61.942154 
L 247.341689 61.942154 
L 247.727264 67.059692 
L 248.11284 56.824615 
L 249.655141 56.824615 
L 250.040717 51.707077 
L 250.426292 41.472 
L 251.197443 41.472 
L 251.583019 46.589538 
L 252.35417 46.589538 
L 253.125321 67.059692 
L 253.510896 61.942154 
L 254.282047 61.942154 
L 254.667623 56.824615 
L 255.053198 56.824615 
L 255.824349 46.589538 
L 256.209924 46.589538 
L 256.5955 56.824615 
L 256.981075 51.707077 
L 258.137802 51.707077 
L 258.523377 61.942154 
L 258.908953 67.059692 
L 259.294528 67.059692 
L 259.680104 72.177231 
L 260.83683 72.177231 
L 261.993556 87.529846 
L 262.379132 102.882462 
L 262.764707 82.412308 
L 263.150283 77.294769 
L 263.535858 87.529846 
L 263.921434 82.412308 
L 265.849311 82.412308 
L 266.234887 92.647385 
L 266.620462 92.647385 
L 267.391613 102.882462 
L 267.777189 102.882462 
L 268.162764 113.117538 
L 268.548339 113.117538 
L 268.933915 108 
L 269.31949 108 
L 269.705066 102.882462 
L 270.090641 108 
L 270.476217 102.882462 
L 272.018519 102.882462 
L 272.404094 97.764923 
L 272.78967 97.764923 
L 273.175245 108 
L 273.946396 97.764923 
L 274.331971 113.117538 
L 274.717547 118.235077 
L 275.103122 118.235077 
L 275.488698 123.352615 
L 275.874273 123.352615 
L 276.259849 138.705231 
L 276.645424 133.587692 
L 277.031 143.822769 
L 277.802151 154.057846 
L 278.573302 154.057846 
L 278.958877 159.175385 
L 279.730028 159.175385 
L 280.115604 169.410462 
L 280.501179 169.410462 
L 280.886754 164.292923 
L 281.27233 154.057846 
L 281.657905 148.940308 
L 282.043481 148.940308 
L 282.429056 138.705231 
L 282.814632 143.822769 
L 283.585783 143.822769 
L 284.356934 133.587692 
L 284.742509 138.705231 
L 285.128085 123.352615 
L 285.51366 133.587692 
L 285.899236 138.705231 
L 286.670387 138.705231 
L 287.055962 128.470154 
L 287.827113 138.705231 
L 288.212688 138.705231 
L 288.598264 143.822769 
L 288.983839 154.057846 
L 289.369415 148.940308 
L 289.75499 148.940308 
L 290.140566 138.705231 
L 290.911717 138.705231 
L 291.297292 143.822769 
L 291.682868 138.705231 
L 292.068443 128.470154 
L 292.839594 118.235077 
L 293.22517 118.235077 
L 293.99632 108 
L 294.381896 108 
L 294.767471 123.352615 
L 295.153047 128.470154 
L 295.538622 128.470154 
L 295.924198 133.587692 
L 296.309773 123.352615 
L 296.695349 118.235077 
L 297.4665 97.764923 
L 297.852075 92.647385 
L 299.394377 92.647385 
L 299.779952 97.764923 
L 300.551103 97.764923 
L 300.936679 108 
L 301.322254 113.117538 
L 301.70783 108 
L 302.478981 108 
L 302.864556 118.235077 
L 305.563585 82.412308 
L 305.94916 82.412308 
L 306.334735 77.294769 
L 307.105886 77.294769 
L 307.491462 82.412308 
L 308.262613 82.412308 
L 308.648188 87.529846 
L 309.033764 77.294769 
L 309.419339 72.177231 
L 312.118368 72.177231 
L 312.503943 61.942154 
L 312.889518 56.824615 
L 314.046245 72.177231 
L 314.43182 82.412308 
L 315.202971 82.412308 
L 315.588547 77.294769 
L 315.974122 77.294769 
L 316.359698 82.412308 
L 316.745273 77.294769 
L 317.130849 82.412308 
L 317.902 72.177231 
L 318.673151 72.177231 
L 319.444301 82.412308 
L 320.601028 82.412308 
L 320.986603 67.059692 
L 321.372179 72.177231 
L 321.757754 61.942154 
L 322.14333 67.059692 
L 323.300056 67.059692 
L 324.071207 87.529846 
L 324.842358 97.764923 
L 325.613509 97.764923 
L 325.999084 108 
L 326.38466 108 
L 327.541386 92.647385 
L 327.926962 92.647385 
L 328.312537 102.882462 
L 328.698113 108 
L 329.083688 118.235077 
L 329.469264 133.587692 
L 329.854839 133.587692 
L 330.62599 123.352615 
L 331.011566 113.117538 
L 332.553867 113.117538 
L 333.325018 102.882462 
L 333.710594 108 
L 334.096169 108 
L 334.481745 113.117538 
L 334.86732 108 
L 335.252896 108 
L 336.024047 118.235077 
L 336.795198 118.235077 
L 337.566349 128.470154 
L 337.951924 118.235077 
L 338.337499 123.352615 
L 339.10865 123.352615 
L 339.494226 138.705231 
L 340.650952 138.705231 
L 341.036528 143.822769 
L 341.422103 143.822769 
L 341.807679 148.940308 
L 342.57883 138.705231 
L 342.964405 138.705231 
L 343.349981 128.470154 
L 343.735556 128.470154 
L 344.121132 123.352615 
L 344.506707 128.470154 
L 344.892282 138.705231 
L 345.663433 138.705231 
L 346.049009 128.470154 
L 346.434584 128.470154 
L 346.82016 118.235077 
L 347.205735 113.117538 
L 348.362462 128.470154 
L 348.748037 128.470154 
L 349.519188 138.705231 
L 349.904764 138.705231 
L 350.290339 133.587692 
L 350.675914 133.587692 
L 351.06149 138.705231 
L 351.447065 128.470154 
L 352.218216 128.470154 
L 352.603792 123.352615 
L 353.374943 123.352615 
L 353.760518 133.587692 
L 354.146094 138.705231 
L 355.30282 123.352615 
L 355.688396 113.117538 
L 356.073971 108 
L 356.459547 97.764923 
L 356.845122 97.764923 
L 357.230697 92.647385 
L 357.616273 102.882462 
L 358.387424 102.882462 
L 359.158575 113.117538 
L 359.929726 102.882462 
L 360.700877 102.882462 
L 361.086452 97.764923 
L 362.243179 113.117538 
L 362.628754 113.117538 
L 363.01433 123.352615 
L 363.399905 118.235077 
L 363.78548 123.352615 
L 364.556631 123.352615 
L 365.327782 113.117538 
L 366.098933 113.117538 
L 366.484509 102.882462 
L 367.641235 118.235077 
L 368.026811 118.235077 
L 369.183537 133.587692 
L 369.569113 123.352615 
L 370.340263 123.352615 
L 370.725839 128.470154 
L 371.111414 123.352615 
L 371.49699 123.352615 
L 371.882565 118.235077 
L 372.653716 118.235077 
L 373.039292 123.352615 
L 373.810443 123.352615 
L 374.196018 118.235077 
L 374.581594 133.587692 
L 374.967169 128.470154 
L 375.352745 133.587692 
L 375.73832 128.470154 
L 376.123895 118.235077 
L 376.509471 113.117538 
L 376.895046 113.117538 
L 377.280622 118.235077 
L 377.666197 118.235077 
L 378.051773 123.352615 
L 378.822924 123.352615 
L 379.208499 133.587692 
L 379.594075 133.587692 
L 379.97965 118.235077 
L 380.750801 118.235077 
L 381.136377 108 
L 381.521952 108 
L 381.907528 102.882462 
L 382.293103 108 
L 383.064254 108 
L 383.449829 118.235077 
L 383.835405 123.352615 
L 384.22098 123.352615 
L 385.377707 138.705231 
L 386.148858 138.705231 
L 387.305584 154.057846 
L 387.69116 154.057846 
L 389.233461 174.528 
L 389.619037 174.528 
L 390.004612 179.645538 
L 390.775763 179.645538 
L 391.161339 174.528 
L 391.546914 184.763077 
L 391.93249 189.880615 
L 392.703641 189.880615 
L 393.089216 194.998154 
L 396.17382 194.998154 
L 396.559395 200.115692 
L 396.944971 200.115692 
L 397.330546 210.350769 
L 397.716122 215.468308 
L 398.101697 215.468308 
L 398.487273 225.703385 
L 398.487273 225.703385 
" style="fill:none;stroke:#0000ff;stroke-linecap:square;stroke-width:1.5;"/>
   </g>
   <g id="patch_3">
    <path d="M 57.6 307.584 
L 57.6 41.472 
" style="fill:none;stroke:#000000;stroke-linecap:square;stroke-linejoin:miter;stroke-width:0.8;"/>
   </g>
   <g id="patch_4">
    <path d="M 414.72 307.584 
L 414.72 41.472 
" style="fill:none;stroke:#000000;stroke-linecap:square;stroke-linejoin:miter;stroke-width:0.8;"/>
   </g>
   <g id="patch_5">
    <path d="M 57.6 307.584 
L 414.72 307.584 
" style="fill:none;stroke:#000000;stroke-linecap:square;stroke-linejoin:miter;stroke-width:0.8;"/>
   </g>
   <g id="patch_6">
    <path d="M 57.6 41.472 
L 414.72 41.472 
" style="fill:none;stroke:#000000;stroke-linecap:square;stroke-linejoin:miter;stroke-width:0.8;"/>
   </g>
   <g id="text_14">
    <!-- &gt;blaTEM-1B_1_JF910132 Beta-lactam resistance:Alternate name; RblaTEM-1 -->
    <defs>
     <path d="M 10.59375 49.21875 
L 10.59375 58.109375 
L 73.1875 35.40625 
L 73.1875 27.296875 
L 10.59375 4.59375 
L 10.59375 13.484375 
L 60.890625 31.296875 
z
" id="DejaVuSans-62"/>
     <path d="M 48.6875 27.296875 
Q 48.6875 37.203125 44.609375 42.84375 
Q 40.53125 48.484375 33.40625 48.484375 
Q 26.265625 48.484375 22.1875 42.84375 
Q 18.109375 37.203125 18.109375 27.296875 
Q 18.109375 17.390625 22.1875 11.75 
Q 26.265625 6.109375 33.40625 6.109375 
Q 40.53125 6.109375 44.609375 11.75 
Q 48.6875 17.390625 48.6875 27.296875 
z
M 18.109375 46.390625 
Q 20.953125 51.265625 25.265625 53.625 
Q 29.59375 56 35.59375 56 
Q 45.5625 56 51.78125 48.09375 
Q 58.015625 40.1875 58.015625 27.296875 
Q 58.015625 14.40625 51.78125 6.484375 
Q 45.5625 -1.421875 35.59375 -1.421875 
Q 29.59375 -1.421875 25.265625 0.953125 
Q 20.953125 3.328125 18.109375 8.203125 
L 18.109375 0 
L 9.078125 0 
L 9.078125 75.984375 
L 18.109375 75.984375 
z
" id="DejaVuSans-98"/>
     <path d="M 9.421875 75.984375 
L 18.40625 75.984375 
L 18.40625 0 
L 9.421875 0 
z
" id="DejaVuSans-108"/>
     <path d="M 34.28125 27.484375 
Q 23.390625 27.484375 19.1875 25 
Q 14.984375 22.515625 14.984375 16.5 
Q 14.984375 11.71875 18.140625 8.90625 
Q 21.296875 6.109375 26.703125 6.109375 
Q 34.1875 6.109375 38.703125 11.40625 
Q 43.21875 16.703125 43.21875 25.484375 
L 43.21875 27.484375 
z
M 52.203125 31.203125 
L 52.203125 0 
L 43.21875 0 
L 43.21875 8.296875 
Q 40.140625 3.328125 35.546875 0.953125 
Q 30.953125 -1.421875 24.3125 -1.421875 
Q 15.921875 -1.421875 10.953125 3.296875 
Q 6 8.015625 6 15.921875 
Q 6 25.140625 12.171875 29.828125 
Q 18.359375 34.515625 30.609375 34.515625 
L 43.21875 34.515625 
L 43.21875 35.40625 
Q 43.21875 41.609375 39.140625 45 
Q 35.0625 48.390625 27.6875 48.390625 
Q 23 48.390625 18.546875 47.265625 
Q 14.109375 46.140625 10.015625 43.890625 
L 10.015625 52.203125 
Q 14.9375 54.109375 19.578125 55.046875 
Q 24.21875 56 28.609375 56 
Q 40.484375 56 46.34375 49.84375 
Q 52.203125 43.703125 52.203125 31.203125 
z
" id="DejaVuSans-97"/>
     <path d="M -0.296875 72.90625 
L 61.375 72.90625 
L 61.375 64.59375 
L 35.5 64.59375 
L 35.5 0 
L 25.59375 0 
L 25.59375 64.59375 
L -0.296875 64.59375 
z
" id="DejaVuSans-84"/>
     <path d="M 9.8125 72.90625 
L 55.90625 72.90625 
L 55.90625 64.59375 
L 19.671875 64.59375 
L 19.671875 43.015625 
L 54.390625 43.015625 
L 54.390625 34.71875 
L 19.671875 34.71875 
L 19.671875 8.296875 
L 56.78125 8.296875 
L 56.78125 0 
L 9.8125 0 
z
" id="DejaVuSans-69"/>
     <path d="M 9.8125 72.90625 
L 24.515625 72.90625 
L 43.109375 23.296875 
L 61.8125 72.90625 
L 76.515625 72.90625 
L 76.515625 0 
L 66.890625 0 
L 66.890625 64.015625 
L 48.09375 14.015625 
L 38.1875 14.015625 
L 19.390625 64.015625 
L 19.390625 0 
L 9.8125 0 
z
" id="DejaVuSans-77"/>
     <path d="M 4.890625 31.390625 
L 31.203125 31.390625 
L 31.203125 23.390625 
L 4.890625 23.390625 
z
" id="DejaVuSans-45"/>
     <path d="M 19.671875 34.8125 
L 19.671875 8.109375 
L 35.5 8.109375 
Q 43.453125 8.109375 47.28125 11.40625 
Q 51.125 14.703125 51.125 21.484375 
Q 51.125 28.328125 47.28125 31.5625 
Q 43.453125 34.8125 35.5 34.8125 
z
M 19.671875 64.796875 
L 19.671875 42.828125 
L 34.28125 42.828125 
Q 41.5 42.828125 45.03125 45.53125 
Q 48.578125 48.25 48.578125 53.8125 
Q 48.578125 59.328125 45.03125 62.0625 
Q 41.5 64.796875 34.28125 64.796875 
z
M 9.8125 72.90625 
L 35.015625 72.90625 
Q 46.296875 72.90625 52.390625 68.21875 
Q 58.5 63.53125 58.5 54.890625 
Q 58.5 48.1875 55.375 44.234375 
Q 52.25 40.28125 46.1875 39.3125 
Q 53.46875 37.75 57.5 32.78125 
Q 61.53125 27.828125 61.53125 20.40625 
Q 61.53125 10.640625 54.890625 5.3125 
Q 48.25 0 35.984375 0 
L 9.8125 0 
z
" id="DejaVuSans-66"/>
     <path d="M 50.984375 -16.609375 
L 50.984375 -23.578125 
L -0.984375 -23.578125 
L -0.984375 -16.609375 
z
" id="DejaVuSans-95"/>
     <path d="M 9.8125 72.90625 
L 19.671875 72.90625 
L 19.671875 5.078125 
Q 19.671875 -8.109375 14.671875 -14.0625 
Q 9.671875 -20.015625 -1.421875 -20.015625 
L -5.171875 -20.015625 
L -5.171875 -11.71875 
L -2.09375 -11.71875 
Q 4.4375 -11.71875 7.125 -8.046875 
Q 9.8125 -4.390625 9.8125 5.078125 
z
" id="DejaVuSans-74"/>
     <path d="M 9.8125 72.90625 
L 51.703125 72.90625 
L 51.703125 64.59375 
L 19.671875 64.59375 
L 19.671875 43.109375 
L 48.578125 43.109375 
L 48.578125 34.8125 
L 19.671875 34.8125 
L 19.671875 0 
L 9.8125 0 
z
" id="DejaVuSans-70"/>
     <path d="M 10.984375 1.515625 
L 10.984375 10.5 
Q 14.703125 8.734375 18.5 7.8125 
Q 22.3125 6.890625 25.984375 6.890625 
Q 35.75 6.890625 40.890625 13.453125 
Q 46.046875 20.015625 46.78125 33.40625 
Q 43.953125 29.203125 39.59375 26.953125 
Q 35.25 24.703125 29.984375 24.703125 
Q 19.046875 24.703125 12.671875 31.3125 
Q 6.296875 37.9375 6.296875 49.421875 
Q 6.296875 60.640625 12.9375 67.421875 
Q 19.578125 74.21875 30.609375 74.21875 
Q 43.265625 74.21875 49.921875 64.515625 
Q 56.59375 54.828125 56.59375 36.375 
Q 56.59375 19.140625 48.40625 8.859375 
Q 40.234375 -1.421875 26.421875 -1.421875 
Q 22.703125 -1.421875 18.890625 -0.6875 
Q 15.09375 0.046875 10.984375 1.515625 
z
M 30.609375 32.421875 
Q 37.25 32.421875 41.125 36.953125 
Q 45.015625 41.5 45.015625 49.421875 
Q 45.015625 57.28125 41.125 61.84375 
Q 37.25 66.40625 30.609375 66.40625 
Q 23.96875 66.40625 20.09375 61.84375 
Q 16.21875 57.28125 16.21875 49.421875 
Q 16.21875 41.5 20.09375 36.953125 
Q 23.96875 32.421875 30.609375 32.421875 
z
" id="DejaVuSans-57"/>
     <path d="M 48.78125 52.59375 
L 48.78125 44.1875 
Q 44.96875 46.296875 41.140625 47.34375 
Q 37.3125 48.390625 33.40625 48.390625 
Q 24.65625 48.390625 19.8125 42.84375 
Q 14.984375 37.3125 14.984375 27.296875 
Q 14.984375 17.28125 19.8125 11.734375 
Q 24.65625 6.203125 33.40625 6.203125 
Q 37.3125 6.203125 41.140625 7.25 
Q 44.96875 8.296875 48.78125 10.40625 
L 48.78125 2.09375 
Q 45.015625 0.34375 40.984375 -0.53125 
Q 36.96875 -1.421875 32.421875 -1.421875 
Q 20.0625 -1.421875 12.78125 6.34375 
Q 5.515625 14.109375 5.515625 27.296875 
Q 5.515625 40.671875 12.859375 48.328125 
Q 20.21875 56 33.015625 56 
Q 37.15625 56 41.109375 55.140625 
Q 45.0625 54.296875 48.78125 52.59375 
z
" id="DejaVuSans-99"/>
     <path d="M 52 44.1875 
Q 55.375 50.25 60.0625 53.125 
Q 64.75 56 71.09375 56 
Q 79.640625 56 84.28125 50.015625 
Q 88.921875 44.046875 88.921875 33.015625 
L 88.921875 0 
L 79.890625 0 
L 79.890625 32.71875 
Q 79.890625 40.578125 77.09375 44.375 
Q 74.3125 48.1875 68.609375 48.1875 
Q 61.625 48.1875 57.5625 43.546875 
Q 53.515625 38.921875 53.515625 30.90625 
L 53.515625 0 
L 44.484375 0 
L 44.484375 32.71875 
Q 44.484375 40.625 41.703125 44.40625 
Q 38.921875 48.1875 33.109375 48.1875 
Q 26.21875 48.1875 22.15625 43.53125 
Q 18.109375 38.875 18.109375 30.90625 
L 18.109375 0 
L 9.078125 0 
L 9.078125 54.6875 
L 18.109375 54.6875 
L 18.109375 46.1875 
Q 21.1875 51.21875 25.484375 53.609375 
Q 29.78125 56 35.6875 56 
Q 41.65625 56 45.828125 52.96875 
Q 50 49.953125 52 44.1875 
z
" id="DejaVuSans-109"/>
     <path d="M 41.109375 46.296875 
Q 39.59375 47.171875 37.8125 47.578125 
Q 36.03125 48 33.890625 48 
Q 26.265625 48 22.1875 43.046875 
Q 18.109375 38.09375 18.109375 28.8125 
L 18.109375 0 
L 9.078125 0 
L 9.078125 54.6875 
L 18.109375 54.6875 
L 18.109375 46.1875 
Q 20.953125 51.171875 25.484375 53.578125 
Q 30.03125 56 36.53125 56 
Q 37.453125 56 38.578125 55.875 
Q 39.703125 55.765625 41.0625 55.515625 
z
" id="DejaVuSans-114"/>
     <path d="M 11.71875 12.40625 
L 22.015625 12.40625 
L 22.015625 0 
L 11.71875 0 
z
M 11.71875 51.703125 
L 22.015625 51.703125 
L 22.015625 39.3125 
L 11.71875 39.3125 
z
" id="DejaVuSans-58"/>
     <path d="M 34.1875 63.1875 
L 20.796875 26.90625 
L 47.609375 26.90625 
z
M 28.609375 72.90625 
L 39.796875 72.90625 
L 67.578125 0 
L 57.328125 0 
L 50.6875 18.703125 
L 17.828125 18.703125 
L 11.1875 0 
L 0.78125 0 
z
" id="DejaVuSans-65"/>
     <path d="M 11.71875 51.703125 
L 22.015625 51.703125 
L 22.015625 39.3125 
L 11.71875 39.3125 
z
M 11.71875 12.40625 
L 22.015625 12.40625 
L 22.015625 4 
L 14.015625 -11.625 
L 7.71875 -11.625 
L 11.71875 4 
z
" id="DejaVuSans-59"/>
     <path d="M 44.390625 34.1875 
Q 47.5625 33.109375 50.5625 29.59375 
Q 53.5625 26.078125 56.59375 19.921875 
L 66.609375 0 
L 56 0 
L 46.6875 18.703125 
Q 43.0625 26.03125 39.671875 28.421875 
Q 36.28125 30.8125 30.421875 30.8125 
L 19.671875 30.8125 
L 19.671875 0 
L 9.8125 0 
L 9.8125 72.90625 
L 32.078125 72.90625 
Q 44.578125 72.90625 50.734375 67.671875 
Q 56.890625 62.453125 56.890625 51.90625 
Q 56.890625 45.015625 53.6875 40.46875 
Q 50.484375 35.9375 44.390625 34.1875 
z
M 19.671875 64.796875 
L 19.671875 38.921875 
L 32.078125 38.921875 
Q 39.203125 38.921875 42.84375 42.21875 
Q 46.484375 45.515625 46.484375 51.90625 
Q 46.484375 58.296875 42.84375 61.546875 
Q 39.203125 64.796875 32.078125 64.796875 
z
" id="DejaVuSans-82"/>
    </defs>
    <g transform="translate(5.461875 35.472)scale(0.12 -0.12)">
     <use xlink:href="#DejaVuSans-62"/>
     <use x="83.789062" xlink:href="#DejaVuSans-98"/>
     <use x="147.265625" xlink:href="#DejaVuSans-108"/>
     <use x="175.048828" xlink:href="#DejaVuSans-97"/>
     <use x="236.328125" xlink:href="#DejaVuSans-84"/>
     <use x="297.412109" xlink:href="#DejaVuSans-69"/>
     <use x="360.595703" xlink:href="#DejaVuSans-77"/>
     <use x="446.875" xlink:href="#DejaVuSans-45"/>
     <use x="482.958984" xlink:href="#DejaVuSans-49"/>
     <use x="546.582031" xlink:href="#DejaVuSans-66"/>
     <use x="615.185547" xlink:href="#DejaVuSans-95"/>
     <use x="665.185547" xlink:href="#DejaVuSans-49"/>
     <use x="728.808594" xlink:href="#DejaVuSans-95"/>
     <use x="778.808594" xlink:href="#DejaVuSans-74"/>
     <use x="808.300781" xlink:href="#DejaVuSans-70"/>
     <use x="865.820312" xlink:href="#DejaVuSans-57"/>
     <use x="929.443359" xlink:href="#DejaVuSans-49"/>
     <use x="993.066406" xlink:href="#DejaVuSans-48"/>
     <use x="1056.689453" xlink:href="#DejaVuSans-49"/>
     <use x="1120.3125" xlink:href="#DejaVuSans-51"/>
     <use x="1183.935547" xlink:href="#DejaVuSans-50"/>
     <use x="1247.558594" xlink:href="#DejaVuSans-32"/>
     <use x="1279.345703" xlink:href="#DejaVuSans-66"/>
     <use x="1347.949219" xlink:href="#DejaVuSans-101"/>
     <use x="1409.472656" xlink:href="#DejaVuSans-116"/>
     <use x="1448.681641" xlink:href="#DejaVuSans-97"/>
     <use x="1509.960938" xlink:href="#DejaVuSans-45"/>
     <use x="1546.044922" xlink:href="#DejaVuSans-108"/>
     <use x="1573.828125" xlink:href="#DejaVuSans-97"/>
     <use x="1635.107422" xlink:href="#DejaVuSans-99"/>
     <use x="1690.087891" xlink:href="#DejaVuSans-116"/>
     <use x="1729.296875" xlink:href="#DejaVuSans-97"/>
     <use x="1790.576172" xlink:href="#DejaVuSans-109"/>
     <use x="1887.988281" xlink:href="#DejaVuSans-32"/>
     <use x="1919.775391" xlink:href="#DejaVuSans-114"/>
     <use x="1960.857422" xlink:href="#DejaVuSans-101"/>
     <use x="2022.380859" xlink:href="#DejaVuSans-115"/>
     <use x="2074.480469" xlink:href="#DejaVuSans-105"/>
     <use x="2102.263672" xlink:href="#DejaVuSans-115"/>
     <use x="2154.363281" xlink:href="#DejaVuSans-116"/>
     <use x="2193.572266" xlink:href="#DejaVuSans-97"/>
     <use x="2254.851562" xlink:href="#DejaVuSans-110"/>
     <use x="2318.230469" xlink:href="#DejaVuSans-99"/>
     <use x="2373.210938" xlink:href="#DejaVuSans-101"/>
     <use x="2434.734375" xlink:href="#DejaVuSans-58"/>
     <use x="2468.425781" xlink:href="#DejaVuSans-65"/>
     <use x="2536.833984" xlink:href="#DejaVuSans-108"/>
     <use x="2564.617188" xlink:href="#DejaVuSans-116"/>
     <use x="2603.826172" xlink:href="#DejaVuSans-101"/>
     <use x="2665.349609" xlink:href="#DejaVuSans-114"/>
     <use x="2706.447266" xlink:href="#DejaVuSans-110"/>
     <use x="2769.826172" xlink:href="#DejaVuSans-97"/>
     <use x="2831.105469" xlink:href="#DejaVuSans-116"/>
     <use x="2870.314453" xlink:href="#DejaVuSans-101"/>
     <use x="2931.837891" xlink:href="#DejaVuSans-32"/>
     <use x="2963.625" xlink:href="#DejaVuSans-110"/>
     <use x="3027.003906" xlink:href="#DejaVuSans-97"/>
     <use x="3088.283203" xlink:href="#DejaVuSans-109"/>
     <use x="3185.695312" xlink:href="#DejaVuSans-101"/>
     <use x="3247.21875" xlink:href="#DejaVuSans-59"/>
     <use x="3280.910156" xlink:href="#DejaVuSans-32"/>
     <use x="3312.697266" xlink:href="#DejaVuSans-82"/>
     <use x="3382.179688" xlink:href="#DejaVuSans-98"/>
     <use x="3445.65625" xlink:href="#DejaVuSans-108"/>
     <use x="3473.439453" xlink:href="#DejaVuSans-97"/>
     <use x="3534.71875" xlink:href="#DejaVuSans-84"/>
     <use x="3595.802734" xlink:href="#DejaVuSans-69"/>
     <use x="3658.986328" xlink:href="#DejaVuSans-77"/>
     <use x="3745.265625" xlink:href="#DejaVuSans-45"/>
     <use x="3781.349609" xlink:href="#DejaVuSans-49"/>
    </g>
   </g>
  </g>
 </g>
 <defs>
  <clipPath id="p2f4adc816a">
   <rect height="266.112" width="357.12" x="57.6" y="41.472"/>
  </clipPath>
 </defs>
</svg>
