<?xml version="1.0" encoding="utf-8" standalone="no"?>
<!DOCTYPE svg PUBLIC "-//W3C//DTD SVG 1.1//EN"
  "http://www.w3.org/Graphics/SVG/1.1/DTD/svg11.dtd">
<!-- Created with matplotlib (https://matplotlib.org/) -->
<svg height="345.6pt" version="1.1" viewBox="0 0 460.8 345.6" width="460.8pt" xmlns="http://www.w3.org/2000/svg" xmlns:xlink="http://www.w3.org/1999/xlink">
 <defs>
  <style type="text/css">
*{stroke-linecap:butt;stroke-linejoin:round;}
  </style>
 </defs>
 <g id="figure_1">
  <g id="patch_1">
   <path d="M 0 345.6 
L 460.8 345.6 
L 460.8 0 
L 0 0 
z
" style="fill:#ffffff;"/>
  </g>
  <g id="axes_1">
   <g id="patch_2">
    <path d="M 57.6 307.584 
L 414.72 307.584 
L 414.72 41.472 
L 57.6 41.472 
z
" style="fill:#ffffff;"/>
   </g>
   <g id="matplotlib.axis_1">
    <g id="xtick_1">
     <g id="line2d_1">
      <defs>
       <path d="M 0 0 
L 0 3.5 
" id="m0bbeb3e2a8" style="stroke:#000000;stroke-width:0.8;"/>
      </defs>
      <g>
       <use style="stroke:#000000;stroke-width:0.8;" x="73.832727" xlink:href="#m0bbeb3e2a8" y="307.584"/>
      </g>
     </g>
     <g id="text_1">
      <!-- 0 -->
      <defs>
       <path d="M 31.78125 66.40625 
Q 24.171875 66.40625 20.328125 58.90625 
Q 16.5 51.421875 16.5 36.375 
Q 16.5 21.390625 20.328125 13.890625 
Q 24.171875 6.390625 31.78125 6.390625 
Q 39.453125 6.390625 43.28125 13.890625 
Q 47.125 21.390625 47.125 36.375 
Q 47.125 51.421875 43.28125 58.90625 
Q 39.453125 66.40625 31.78125 66.40625 
z
M 31.78125 74.21875 
Q 44.046875 74.21875 50.515625 64.515625 
Q 56.984375 54.828125 56.984375 36.375 
Q 56.984375 17.96875 50.515625 8.265625 
Q 44.046875 -1.421875 31.78125 -1.421875 
Q 19.53125 -1.421875 13.0625 8.265625 
Q 6.59375 17.96875 6.59375 36.375 
Q 6.59375 54.828125 13.0625 64.515625 
Q 19.53125 74.21875 31.78125 74.21875 
z
" id="DejaVuSans-48"/>
      </defs>
      <g transform="translate(70.651477 322.182437)scale(0.1 -0.1)">
       <use xlink:href="#DejaVuSans-48"/>
      </g>
     </g>
    </g>
    <g id="xtick_2">
     <g id="line2d_2">
      <g>
       <use style="stroke:#000000;stroke-width:0.8;" x="115.137377" xlink:href="#m0bbeb3e2a8" y="307.584"/>
      </g>
     </g>
     <g id="text_2">
      <!-- 100 -->
      <defs>
       <path d="M 12.40625 8.296875 
L 28.515625 8.296875 
L 28.515625 63.921875 
L 10.984375 60.40625 
L 10.984375 69.390625 
L 28.421875 72.90625 
L 38.28125 72.90625 
L 38.28125 8.296875 
L 54.390625 8.296875 
L 54.390625 0 
L 12.40625 0 
z
" id="DejaVuSans-49"/>
      </defs>
      <g transform="translate(105.593627 322.182437)scale(0.1 -0.1)">
       <use xlink:href="#DejaVuSans-49"/>
       <use x="63.623047" xlink:href="#DejaVuSans-48"/>
       <use x="127.246094" xlink:href="#DejaVuSans-48"/>
      </g>
     </g>
    </g>
    <g id="xtick_3">
     <g id="line2d_3">
      <g>
       <use style="stroke:#000000;stroke-width:0.8;" x="156.442026" xlink:href="#m0bbeb3e2a8" y="307.584"/>
      </g>
     </g>
     <g id="text_3">
      <!-- 200 -->
      <defs>
       <path d="M 19.1875 8.296875 
L 53.609375 8.296875 
L 53.609375 0 
L 7.328125 0 
L 7.328125 8.296875 
Q 12.9375 14.109375 22.625 23.890625 
Q 32.328125 33.6875 34.8125 36.53125 
Q 39.546875 41.84375 41.421875 45.53125 
Q 43.3125 49.21875 43.3125 52.78125 
Q 43.3125 58.59375 39.234375 62.25 
Q 35.15625 65.921875 28.609375 65.921875 
Q 23.96875 65.921875 18.8125 64.3125 
Q 13.671875 62.703125 7.8125 59.421875 
L 7.8125 69.390625 
Q 13.765625 71.78125 18.9375 73 
Q 24.125 74.21875 28.421875 74.21875 
Q 39.75 74.21875 46.484375 68.546875 
Q 53.21875 62.890625 53.21875 53.421875 
Q 53.21875 48.921875 51.53125 44.890625 
Q 49.859375 40.875 45.40625 35.40625 
Q 44.1875 33.984375 37.640625 27.21875 
Q 31.109375 20.453125 19.1875 8.296875 
z
" id="DejaVuSans-50"/>
      </defs>
      <g transform="translate(146.898276 322.182437)scale(0.1 -0.1)">
       <use xlink:href="#DejaVuSans-50"/>
       <use x="63.623047" xlink:href="#DejaVuSans-48"/>
       <use x="127.246094" xlink:href="#DejaVuSans-48"/>
      </g>
     </g>
    </g>
    <g id="xtick_4">
     <g id="line2d_4">
      <g>
       <use style="stroke:#000000;stroke-width:0.8;" x="197.746676" xlink:href="#m0bbeb3e2a8" y="307.584"/>
      </g>
     </g>
     <g id="text_4">
      <!-- 300 -->
      <defs>
       <path d="M 40.578125 39.3125 
Q 47.65625 37.796875 51.625 33 
Q 55.609375 28.21875 55.609375 21.1875 
Q 55.609375 10.40625 48.1875 4.484375 
Q 40.765625 -1.421875 27.09375 -1.421875 
Q 22.515625 -1.421875 17.65625 -0.515625 
Q 12.796875 0.390625 7.625 2.203125 
L 7.625 11.71875 
Q 11.71875 9.328125 16.59375 8.109375 
Q 21.484375 6.890625 26.8125 6.890625 
Q 36.078125 6.890625 40.9375 10.546875 
Q 45.796875 14.203125 45.796875 21.1875 
Q 45.796875 27.640625 41.28125 31.265625 
Q 36.765625 34.90625 28.71875 34.90625 
L 20.21875 34.90625 
L 20.21875 43.015625 
L 29.109375 43.015625 
Q 36.375 43.015625 40.234375 45.921875 
Q 44.09375 48.828125 44.09375 54.296875 
Q 44.09375 59.90625 40.109375 62.90625 
Q 36.140625 65.921875 28.71875 65.921875 
Q 24.65625 65.921875 20.015625 65.03125 
Q 15.375 64.15625 9.8125 62.3125 
L 9.8125 71.09375 
Q 15.4375 72.65625 20.34375 73.4375 
Q 25.25 74.21875 29.59375 74.21875 
Q 40.828125 74.21875 47.359375 69.109375 
Q 53.90625 64.015625 53.90625 55.328125 
Q 53.90625 49.265625 50.4375 45.09375 
Q 46.96875 40.921875 40.578125 39.3125 
z
" id="DejaVuSans-51"/>
      </defs>
      <g transform="translate(188.202926 322.182437)scale(0.1 -0.1)">
       <use xlink:href="#DejaVuSans-51"/>
       <use x="63.623047" xlink:href="#DejaVuSans-48"/>
       <use x="127.246094" xlink:href="#DejaVuSans-48"/>
      </g>
     </g>
    </g>
    <g id="xtick_5">
     <g id="line2d_5">
      <g>
       <use style="stroke:#000000;stroke-width:0.8;" x="239.051325" xlink:href="#m0bbeb3e2a8" y="307.584"/>
      </g>
     </g>
     <g id="text_5">
      <!-- 400 -->
      <defs>
       <path d="M 37.796875 64.3125 
L 12.890625 25.390625 
L 37.796875 25.390625 
z
M 35.203125 72.90625 
L 47.609375 72.90625 
L 47.609375 25.390625 
L 58.015625 25.390625 
L 58.015625 17.1875 
L 47.609375 17.1875 
L 47.609375 0 
L 37.796875 0 
L 37.796875 17.1875 
L 4.890625 17.1875 
L 4.890625 26.703125 
z
" id="DejaVuSans-52"/>
      </defs>
      <g transform="translate(229.507575 322.182437)scale(0.1 -0.1)">
       <use xlink:href="#DejaVuSans-52"/>
       <use x="63.623047" xlink:href="#DejaVuSans-48"/>
       <use x="127.246094" xlink:href="#DejaVuSans-48"/>
      </g>
     </g>
    </g>
    <g id="xtick_6">
     <g id="line2d_6">
      <g>
       <use style="stroke:#000000;stroke-width:0.8;" x="280.355975" xlink:href="#m0bbeb3e2a8" y="307.584"/>
      </g>
     </g>
     <g id="text_6">
      <!-- 500 -->
      <defs>
       <path d="M 10.796875 72.90625 
L 49.515625 72.90625 
L 49.515625 64.59375 
L 19.828125 64.59375 
L 19.828125 46.734375 
Q 21.96875 47.46875 24.109375 47.828125 
Q 26.265625 48.1875 28.421875 48.1875 
Q 40.625 48.1875 47.75 41.5 
Q 54.890625 34.8125 54.890625 23.390625 
Q 54.890625 11.625 47.5625 5.09375 
Q 40.234375 -1.421875 26.90625 -1.421875 
Q 22.3125 -1.421875 17.546875 -0.640625 
Q 12.796875 0.140625 7.71875 1.703125 
L 7.71875 11.625 
Q 12.109375 9.234375 16.796875 8.0625 
Q 21.484375 6.890625 26.703125 6.890625 
Q 35.15625 6.890625 40.078125 11.328125 
Q 45.015625 15.765625 45.015625 23.390625 
Q 45.015625 31 40.078125 35.4375 
Q 35.15625 39.890625 26.703125 39.890625 
Q 22.75 39.890625 18.8125 39.015625 
Q 14.890625 38.140625 10.796875 36.28125 
z
" id="DejaVuSans-53"/>
      </defs>
      <g transform="translate(270.812225 322.182437)scale(0.1 -0.1)">
       <use xlink:href="#DejaVuSans-53"/>
       <use x="63.623047" xlink:href="#DejaVuSans-48"/>
       <use x="127.246094" xlink:href="#DejaVuSans-48"/>
      </g>
     </g>
    </g>
    <g id="xtick_7">
     <g id="line2d_7">
      <g>
       <use style="stroke:#000000;stroke-width:0.8;" x="321.660625" xlink:href="#m0bbeb3e2a8" y="307.584"/>
      </g>
     </g>
     <g id="text_7">
      <!-- 600 -->
      <defs>
       <path d="M 33.015625 40.375 
Q 26.375 40.375 22.484375 35.828125 
Q 18.609375 31.296875 18.609375 23.390625 
Q 18.609375 15.53125 22.484375 10.953125 
Q 26.375 6.390625 33.015625 6.390625 
Q 39.65625 6.390625 43.53125 10.953125 
Q 47.40625 15.53125 47.40625 23.390625 
Q 47.40625 31.296875 43.53125 35.828125 
Q 39.65625 40.375 33.015625 40.375 
z
M 52.59375 71.296875 
L 52.59375 62.3125 
Q 48.875 64.0625 45.09375 64.984375 
Q 41.3125 65.921875 37.59375 65.921875 
Q 27.828125 65.921875 22.671875 59.328125 
Q 17.53125 52.734375 16.796875 39.40625 
Q 19.671875 43.65625 24.015625 45.921875 
Q 28.375 48.1875 33.59375 48.1875 
Q 44.578125 48.1875 50.953125 41.515625 
Q 57.328125 34.859375 57.328125 23.390625 
Q 57.328125 12.15625 50.6875 5.359375 
Q 44.046875 -1.421875 33.015625 -1.421875 
Q 20.359375 -1.421875 13.671875 8.265625 
Q 6.984375 17.96875 6.984375 36.375 
Q 6.984375 53.65625 15.1875 63.9375 
Q 23.390625 74.21875 37.203125 74.21875 
Q 40.921875 74.21875 44.703125 73.484375 
Q 48.484375 72.75 52.59375 71.296875 
z
" id="DejaVuSans-54"/>
      </defs>
      <g transform="translate(312.116875 322.182437)scale(0.1 -0.1)">
       <use xlink:href="#DejaVuSans-54"/>
       <use x="63.623047" xlink:href="#DejaVuSans-48"/>
       <use x="127.246094" xlink:href="#DejaVuSans-48"/>
      </g>
     </g>
    </g>
    <g id="xtick_8">
     <g id="line2d_8">
      <g>
       <use style="stroke:#000000;stroke-width:0.8;" x="362.965274" xlink:href="#m0bbeb3e2a8" y="307.584"/>
      </g>
     </g>
     <g id="text_8">
      <!-- 700 -->
      <defs>
       <path d="M 8.203125 72.90625 
L 55.078125 72.90625 
L 55.078125 68.703125 
L 28.609375 0 
L 18.3125 0 
L 43.21875 64.59375 
L 8.203125 64.59375 
z
" id="DejaVuSans-55"/>
      </defs>
      <g transform="translate(353.421524 322.182437)scale(0.1 -0.1)">
       <use xlink:href="#DejaVuSans-55"/>
       <use x="63.623047" xlink:href="#DejaVuSans-48"/>
       <use x="127.246094" xlink:href="#DejaVuSans-48"/>
      </g>
     </g>
    </g>
    <g id="xtick_9">
     <g id="line2d_9">
      <g>
       <use style="stroke:#000000;stroke-width:0.8;" x="404.269924" xlink:href="#m0bbeb3e2a8" y="307.584"/>
      </g>
     </g>
     <g id="text_9">
      <!-- 800 -->
      <defs>
       <path d="M 31.78125 34.625 
Q 24.75 34.625 20.71875 30.859375 
Q 16.703125 27.09375 16.703125 20.515625 
Q 16.703125 13.921875 20.71875 10.15625 
Q 24.75 6.390625 31.78125 6.390625 
Q 38.8125 6.390625 42.859375 10.171875 
Q 46.921875 13.96875 46.921875 20.515625 
Q 46.921875 27.09375 42.890625 30.859375 
Q 38.875 34.625 31.78125 34.625 
z
M 21.921875 38.8125 
Q 15.578125 40.375 12.03125 44.71875 
Q 8.5 49.078125 8.5 55.328125 
Q 8.5 64.0625 14.71875 69.140625 
Q 20.953125 74.21875 31.78125 74.21875 
Q 42.671875 74.21875 48.875 69.140625 
Q 55.078125 64.0625 55.078125 55.328125 
Q 55.078125 49.078125 51.53125 44.71875 
Q 48 40.375 41.703125 38.8125 
Q 48.828125 37.15625 52.796875 32.3125 
Q 56.78125 27.484375 56.78125 20.515625 
Q 56.78125 9.90625 50.3125 4.234375 
Q 43.84375 -1.421875 31.78125 -1.421875 
Q 19.734375 -1.421875 13.25 4.234375 
Q 6.78125 9.90625 6.78125 20.515625 
Q 6.78125 27.484375 10.78125 32.3125 
Q 14.796875 37.15625 21.921875 38.8125 
z
M 18.3125 54.390625 
Q 18.3125 48.734375 21.84375 45.5625 
Q 25.390625 42.390625 31.78125 42.390625 
Q 38.140625 42.390625 41.71875 45.5625 
Q 45.3125 48.734375 45.3125 54.390625 
Q 45.3125 60.0625 41.71875 63.234375 
Q 38.140625 66.40625 31.78125 66.40625 
Q 25.390625 66.40625 21.84375 63.234375 
Q 18.3125 60.0625 18.3125 54.390625 
z
" id="DejaVuSans-56"/>
      </defs>
      <g transform="translate(394.726174 322.182437)scale(0.1 -0.1)">
       <use xlink:href="#DejaVuSans-56"/>
       <use x="63.623047" xlink:href="#DejaVuSans-48"/>
       <use x="127.246094" xlink:href="#DejaVuSans-48"/>
      </g>
     </g>
    </g>
    <g id="text_10">
     <!-- gene position -->
     <defs>
      <path d="M 45.40625 27.984375 
Q 45.40625 37.75 41.375 43.109375 
Q 37.359375 48.484375 30.078125 48.484375 
Q 22.859375 48.484375 18.828125 43.109375 
Q 14.796875 37.75 14.796875 27.984375 
Q 14.796875 18.265625 18.828125 12.890625 
Q 22.859375 7.515625 30.078125 7.515625 
Q 37.359375 7.515625 41.375 12.890625 
Q 45.40625 18.265625 45.40625 27.984375 
z
M 54.390625 6.78125 
Q 54.390625 -7.171875 48.1875 -13.984375 
Q 42 -20.796875 29.203125 -20.796875 
Q 24.46875 -20.796875 20.265625 -20.09375 
Q 16.0625 -19.390625 12.109375 -17.921875 
L 12.109375 -9.1875 
Q 16.0625 -11.328125 19.921875 -12.34375 
Q 23.78125 -13.375 27.78125 -13.375 
Q 36.625 -13.375 41.015625 -8.765625 
Q 45.40625 -4.15625 45.40625 5.171875 
L 45.40625 9.625 
Q 42.625 4.78125 38.28125 2.390625 
Q 33.9375 0 27.875 0 
Q 17.828125 0 11.671875 7.65625 
Q 5.515625 15.328125 5.515625 27.984375 
Q 5.515625 40.671875 11.671875 48.328125 
Q 17.828125 56 27.875 56 
Q 33.9375 56 38.28125 53.609375 
Q 42.625 51.21875 45.40625 46.390625 
L 45.40625 54.6875 
L 54.390625 54.6875 
z
" id="DejaVuSans-103"/>
      <path d="M 56.203125 29.59375 
L 56.203125 25.203125 
L 14.890625 25.203125 
Q 15.484375 15.921875 20.484375 11.0625 
Q 25.484375 6.203125 34.421875 6.203125 
Q 39.59375 6.203125 44.453125 7.46875 
Q 49.3125 8.734375 54.109375 11.28125 
L 54.109375 2.78125 
Q 49.265625 0.734375 44.1875 -0.34375 
Q 39.109375 -1.421875 33.890625 -1.421875 
Q 20.796875 -1.421875 13.15625 6.1875 
Q 5.515625 13.8125 5.515625 26.8125 
Q 5.515625 40.234375 12.765625 48.109375 
Q 20.015625 56 32.328125 56 
Q 43.359375 56 49.78125 48.890625 
Q 56.203125 41.796875 56.203125 29.59375 
z
M 47.21875 32.234375 
Q 47.125 39.59375 43.09375 43.984375 
Q 39.0625 48.390625 32.421875 48.390625 
Q 24.90625 48.390625 20.390625 44.140625 
Q 15.875 39.890625 15.1875 32.171875 
z
" id="DejaVuSans-101"/>
      <path d="M 54.890625 33.015625 
L 54.890625 0 
L 45.90625 0 
L 45.90625 32.71875 
Q 45.90625 40.484375 42.875 44.328125 
Q 39.84375 48.1875 33.796875 48.1875 
Q 26.515625 48.1875 22.3125 43.546875 
Q 18.109375 38.921875 18.109375 30.90625 
L 18.109375 0 
L 9.078125 0 
L 9.078125 54.6875 
L 18.109375 54.6875 
L 18.109375 46.1875 
Q 21.34375 51.125 25.703125 53.5625 
Q 30.078125 56 35.796875 56 
Q 45.21875 56 50.046875 50.171875 
Q 54.890625 44.34375 54.890625 33.015625 
z
" id="DejaVuSans-110"/>
      <path id="DejaVuSans-32"/>
      <path d="M 18.109375 8.203125 
L 18.109375 -20.796875 
L 9.078125 -20.796875 
L 9.078125 54.6875 
L 18.109375 54.6875 
L 18.109375 46.390625 
Q 20.953125 51.265625 25.265625 53.625 
Q 29.59375 56 35.59375 56 
Q 45.5625 56 51.78125 48.09375 
Q 58.015625 40.1875 58.015625 27.296875 
Q 58.015625 14.40625 51.78125 6.484375 
Q 45.5625 -1.421875 35.59375 -1.421875 
Q 29.59375 -1.421875 25.265625 0.953125 
Q 20.953125 3.328125 18.109375 8.203125 
z
M 48.6875 27.296875 
Q 48.6875 37.203125 44.609375 42.84375 
Q 40.53125 48.484375 33.40625 48.484375 
Q 26.265625 48.484375 22.1875 42.84375 
Q 18.109375 37.203125 18.109375 27.296875 
Q 18.109375 17.390625 22.1875 11.75 
Q 26.265625 6.109375 33.40625 6.109375 
Q 40.53125 6.109375 44.609375 11.75 
Q 48.6875 17.390625 48.6875 27.296875 
z
" id="DejaVuSans-112"/>
      <path d="M 30.609375 48.390625 
Q 23.390625 48.390625 19.1875 42.75 
Q 14.984375 37.109375 14.984375 27.296875 
Q 14.984375 17.484375 19.15625 11.84375 
Q 23.34375 6.203125 30.609375 6.203125 
Q 37.796875 6.203125 41.984375 11.859375 
Q 46.1875 17.53125 46.1875 27.296875 
Q 46.1875 37.015625 41.984375 42.703125 
Q 37.796875 48.390625 30.609375 48.390625 
z
M 30.609375 56 
Q 42.328125 56 49.015625 48.375 
Q 55.71875 40.765625 55.71875 27.296875 
Q 55.71875 13.875 49.015625 6.21875 
Q 42.328125 -1.421875 30.609375 -1.421875 
Q 18.84375 -1.421875 12.171875 6.21875 
Q 5.515625 13.875 5.515625 27.296875 
Q 5.515625 40.765625 12.171875 48.375 
Q 18.84375 56 30.609375 56 
z
" id="DejaVuSans-111"/>
      <path d="M 44.28125 53.078125 
L 44.28125 44.578125 
Q 40.484375 46.53125 36.375 47.5 
Q 32.28125 48.484375 27.875 48.484375 
Q 21.1875 48.484375 17.84375 46.4375 
Q 14.5 44.390625 14.5 40.28125 
Q 14.5 37.15625 16.890625 35.375 
Q 19.28125 33.59375 26.515625 31.984375 
L 29.59375 31.296875 
Q 39.15625 29.25 43.1875 25.515625 
Q 47.21875 21.78125 47.21875 15.09375 
Q 47.21875 7.46875 41.1875 3.015625 
Q 35.15625 -1.421875 24.609375 -1.421875 
Q 20.21875 -1.421875 15.453125 -0.5625 
Q 10.6875 0.296875 5.421875 2 
L 5.421875 11.28125 
Q 10.40625 8.6875 15.234375 7.390625 
Q 20.0625 6.109375 24.8125 6.109375 
Q 31.15625 6.109375 34.5625 8.28125 
Q 37.984375 10.453125 37.984375 14.40625 
Q 37.984375 18.0625 35.515625 20.015625 
Q 33.0625 21.96875 24.703125 23.78125 
L 21.578125 24.515625 
Q 13.234375 26.265625 9.515625 29.90625 
Q 5.8125 33.546875 5.8125 39.890625 
Q 5.8125 47.609375 11.28125 51.796875 
Q 16.75 56 26.8125 56 
Q 31.78125 56 36.171875 55.265625 
Q 40.578125 54.546875 44.28125 53.078125 
z
" id="DejaVuSans-115"/>
      <path d="M 9.421875 54.6875 
L 18.40625 54.6875 
L 18.40625 0 
L 9.421875 0 
z
M 9.421875 75.984375 
L 18.40625 75.984375 
L 18.40625 64.59375 
L 9.421875 64.59375 
z
" id="DejaVuSans-105"/>
      <path d="M 18.3125 70.21875 
L 18.3125 54.6875 
L 36.8125 54.6875 
L 36.8125 47.703125 
L 18.3125 47.703125 
L 18.3125 18.015625 
Q 18.3125 11.328125 20.140625 9.421875 
Q 21.96875 7.515625 27.59375 7.515625 
L 36.8125 7.515625 
L 36.8125 0 
L 27.59375 0 
Q 17.1875 0 13.234375 3.875 
Q 9.28125 7.765625 9.28125 18.015625 
L 9.28125 47.703125 
L 2.6875 47.703125 
L 2.6875 54.6875 
L 9.28125 54.6875 
L 9.28125 70.21875 
z
" id="DejaVuSans-116"/>
     </defs>
     <g transform="translate(202.270156 335.860562)scale(0.1 -0.1)">
      <use xlink:href="#DejaVuSans-103"/>
      <use x="63.476562" xlink:href="#DejaVuSans-101"/>
      <use x="125" xlink:href="#DejaVuSans-110"/>
      <use x="188.378906" xlink:href="#DejaVuSans-101"/>
      <use x="249.902344" xlink:href="#DejaVuSans-32"/>
      <use x="281.689453" xlink:href="#DejaVuSans-112"/>
      <use x="345.166016" xlink:href="#DejaVuSans-111"/>
      <use x="406.347656" xlink:href="#DejaVuSans-115"/>
      <use x="458.447266" xlink:href="#DejaVuSans-105"/>
      <use x="486.230469" xlink:href="#DejaVuSans-116"/>
      <use x="525.439453" xlink:href="#DejaVuSans-105"/>
      <use x="553.222656" xlink:href="#DejaVuSans-111"/>
      <use x="614.404297" xlink:href="#DejaVuSans-110"/>
     </g>
    </g>
   </g>
   <g id="matplotlib.axis_2">
    <g id="ytick_1">
     <g id="line2d_10">
      <defs>
       <path d="M 0 0 
L -3.5 0 
" id="mb1c3e60f6b" style="stroke:#000000;stroke-width:0.8;"/>
      </defs>
      <g>
       <use style="stroke:#000000;stroke-width:0.8;" x="57.6" xlink:href="#mb1c3e60f6b" y="307.584"/>
      </g>
     </g>
     <g id="text_11">
      <!-- 0 -->
      <g transform="translate(44.2375 311.383219)scale(0.1 -0.1)">
       <use xlink:href="#DejaVuSans-48"/>
      </g>
     </g>
    </g>
    <g id="ytick_2">
     <g id="line2d_11">
      <g>
       <use style="stroke:#000000;stroke-width:0.8;" x="57.6" xlink:href="#mb1c3e60f6b" y="257.374189"/>
      </g>
     </g>
     <g id="text_12">
      <!-- 10 -->
      <g transform="translate(37.875 261.173407)scale(0.1 -0.1)">
       <use xlink:href="#DejaVuSans-49"/>
       <use x="63.623047" xlink:href="#DejaVuSans-48"/>
      </g>
     </g>
    </g>
    <g id="ytick_3">
     <g id="line2d_12">
      <g>
       <use style="stroke:#000000;stroke-width:0.8;" x="57.6" xlink:href="#mb1c3e60f6b" y="207.164377"/>
      </g>
     </g>
     <g id="text_13">
      <!-- 20 -->
      <g transform="translate(37.875 210.963596)scale(0.1 -0.1)">
       <use xlink:href="#DejaVuSans-50"/>
       <use x="63.623047" xlink:href="#DejaVuSans-48"/>
      </g>
     </g>
    </g>
    <g id="ytick_4">
     <g id="line2d_13">
      <g>
       <use style="stroke:#000000;stroke-width:0.8;" x="57.6" xlink:href="#mb1c3e60f6b" y="156.954566"/>
      </g>
     </g>
     <g id="text_14">
      <!-- 30 -->
      <g transform="translate(37.875 160.753785)scale(0.1 -0.1)">
       <use xlink:href="#DejaVuSans-51"/>
       <use x="63.623047" xlink:href="#DejaVuSans-48"/>
      </g>
     </g>
    </g>
    <g id="ytick_5">
     <g id="line2d_14">
      <g>
       <use style="stroke:#000000;stroke-width:0.8;" x="57.6" xlink:href="#mb1c3e60f6b" y="106.744755"/>
      </g>
     </g>
     <g id="text_15">
      <!-- 40 -->
      <g transform="translate(37.875 110.543973)scale(0.1 -0.1)">
       <use xlink:href="#DejaVuSans-52"/>
       <use x="63.623047" xlink:href="#DejaVuSans-48"/>
      </g>
     </g>
    </g>
    <g id="ytick_6">
     <g id="line2d_15">
      <g>
       <use style="stroke:#000000;stroke-width:0.8;" x="57.6" xlink:href="#mb1c3e60f6b" y="56.534943"/>
      </g>
     </g>
     <g id="text_16">
      <!-- 50 -->
      <g transform="translate(37.875 60.334162)scale(0.1 -0.1)">
       <use xlink:href="#DejaVuSans-53"/>
       <use x="63.623047" xlink:href="#DejaVuSans-48"/>
      </g>
     </g>
    </g>
    <g id="text_17">
     <!-- depth -->
     <defs>
      <path d="M 45.40625 46.390625 
L 45.40625 75.984375 
L 54.390625 75.984375 
L 54.390625 0 
L 45.40625 0 
L 45.40625 8.203125 
Q 42.578125 3.328125 38.25 0.953125 
Q 33.9375 -1.421875 27.875 -1.421875 
Q 17.96875 -1.421875 11.734375 6.484375 
Q 5.515625 14.40625 5.515625 27.296875 
Q 5.515625 40.1875 11.734375 48.09375 
Q 17.96875 56 27.875 56 
Q 33.9375 56 38.25 53.625 
Q 42.578125 51.265625 45.40625 46.390625 
z
M 14.796875 27.296875 
Q 14.796875 17.390625 18.875 11.75 
Q 22.953125 6.109375 30.078125 6.109375 
Q 37.203125 6.109375 41.296875 11.75 
Q 45.40625 17.390625 45.40625 27.296875 
Q 45.40625 37.203125 41.296875 42.84375 
Q 37.203125 48.484375 30.078125 48.484375 
Q 22.953125 48.484375 18.875 42.84375 
Q 14.796875 37.203125 14.796875 27.296875 
z
" id="DejaVuSans-100"/>
      <path d="M 54.890625 33.015625 
L 54.890625 0 
L 45.90625 0 
L 45.90625 32.71875 
Q 45.90625 40.484375 42.875 44.328125 
Q 39.84375 48.1875 33.796875 48.1875 
Q 26.515625 48.1875 22.3125 43.546875 
Q 18.109375 38.921875 18.109375 30.90625 
L 18.109375 0 
L 9.078125 0 
L 9.078125 75.984375 
L 18.109375 75.984375 
L 18.109375 46.1875 
Q 21.34375 51.125 25.703125 53.5625 
Q 30.078125 56 35.796875 56 
Q 45.21875 56 50.046875 50.171875 
Q 54.890625 44.34375 54.890625 33.015625 
z
" id="DejaVuSans-104"/>
     </defs>
     <g transform="translate(31.795312 189.081906)rotate(-90)scale(0.1 -0.1)">
      <use xlink:href="#DejaVuSans-100"/>
      <use x="63.476562" xlink:href="#DejaVuSans-101"/>
      <use x="125" xlink:href="#DejaVuSans-112"/>
      <use x="188.476562" xlink:href="#DejaVuSans-116"/>
      <use x="227.685547" xlink:href="#DejaVuSans-104"/>
     </g>
    </g>
   </g>
   <g id="line2d_16">
    <path clip-path="url(#p7ce206276f)" d="M 73.832727 202.143396 
L 74.660242 202.143396 
L 75.074 197.122415 
L 75.487757 182.059472 
L 76.729029 182.059472 
L 77.556544 172.017509 
L 80.039089 172.017509 
L 80.452846 166.996528 
L 80.866603 166.996528 
L 81.280361 156.954566 
L 82.107876 156.954566 
L 82.93539 146.912604 
L 83.762905 146.912604 
L 84.176663 141.891623 
L 84.59042 141.891623 
L 85.004178 136.870642 
L 85.417935 141.891623 
L 85.831692 136.870642 
L 86.659207 136.870642 
L 87.072965 121.807698 
L 87.486722 116.786717 
L 87.90048 116.786717 
L 88.314237 111.765736 
L 88.727994 96.702792 
L 90.383024 96.702792 
L 90.796781 91.681811 
L 91.210539 91.681811 
L 91.624296 101.723774 
L 92.038054 101.723774 
L 92.451811 111.765736 
L 92.865569 111.765736 
L 93.279326 106.744755 
L 93.693083 111.765736 
L 94.106841 106.744755 
L 94.520598 111.765736 
L 94.934356 111.765736 
L 95.348113 116.786717 
L 96.175628 116.786717 
L 96.589385 106.744755 
L 97.003143 106.744755 
L 97.4169 101.723774 
L 97.830658 106.744755 
L 99.485687 106.744755 
L 99.899445 111.765736 
L 100.313202 106.744755 
L 100.72696 106.744755 
L 101.140717 116.786717 
L 101.554474 121.807698 
L 101.968232 111.765736 
L 102.381989 111.765736 
L 102.795747 106.744755 
L 103.209504 96.702792 
L 103.623261 96.702792 
L 104.037019 101.723774 
L 104.450776 96.702792 
L 104.864534 106.744755 
L 105.278291 111.765736 
L 106.519563 96.702792 
L 108.174593 96.702792 
L 108.58835 101.723774 
L 109.002108 96.702792 
L 109.415865 96.702792 
L 109.829623 106.744755 
L 110.24338 101.723774 
L 110.657138 101.723774 
L 111.070895 96.702792 
L 111.484652 101.723774 
L 111.89841 101.723774 
L 112.312167 106.744755 
L 113.139682 106.744755 
L 114.380954 91.681811 
L 114.794712 96.702792 
L 115.208469 96.702792 
L 115.622227 106.744755 
L 116.035984 106.744755 
L 116.449741 96.702792 
L 117.277256 106.744755 
L 117.691014 106.744755 
L 118.104771 101.723774 
L 118.518529 111.765736 
L 118.932286 111.765736 
L 119.346043 96.702792 
L 119.759801 101.723774 
L 120.173558 101.723774 
L 120.587316 91.681811 
L 121.001073 91.681811 
L 121.41483 106.744755 
L 121.828588 111.765736 
L 122.242345 111.765736 
L 122.656103 106.744755 
L 123.06986 121.807698 
L 124.311132 106.744755 
L 124.72489 111.765736 
L 125.138647 111.765736 
L 125.552405 96.702792 
L 126.379919 86.66083 
L 126.793677 86.66083 
L 127.621192 96.702792 
L 128.034949 91.681811 
L 128.448707 96.702792 
L 129.689979 81.639849 
L 130.103736 81.639849 
L 130.931251 71.597887 
L 131.345008 71.597887 
L 131.758766 76.618868 
L 132.586281 76.618868 
L 133.000038 86.66083 
L 133.413796 81.639849 
L 135.068825 81.639849 
L 135.482583 76.618868 
L 135.89634 76.618868 
L 136.310098 81.639849 
L 136.723855 71.597887 
L 137.55137 81.639849 
L 138.792642 81.639849 
L 139.206399 66.576906 
L 139.620157 66.576906 
L 140.033914 61.555925 
L 140.447672 66.576906 
L 140.861429 56.534943 
L 142.102701 56.534943 
L 142.516459 46.492981 
L 142.930216 41.472 
L 143.757731 51.513962 
L 144.171488 36.451019 
L 144.585246 31.430038 
L 144.999003 31.430038 
L 145.412761 36.451019 
L 145.826518 36.451019 
L 146.240276 41.472 
L 146.654033 41.472 
L 147.06779 46.492981 
L 147.481548 41.472 
L 147.895305 41.472 
L 148.309063 36.451019 
L 148.72282 26.409057 
L 149.136578 26.409057 
L 149.550335 31.430038 
L 149.964092 31.430038 
L 150.37785 26.409057 
L 150.791607 36.451019 
L 151.205365 36.451019 
L 151.619122 41.472 
L 152.032879 41.472 
L 152.446637 46.492981 
L 152.860394 36.451019 
L 153.274152 36.451019 
L 153.687909 46.492981 
L 154.101667 36.451019 
L 154.515424 31.430038 
L 154.929181 36.451019 
L 157.825483 36.451019 
L 158.652998 46.492981 
L 159.480513 46.492981 
L 159.89427 56.534943 
L 160.308028 61.555925 
L 161.135543 61.555925 
L 161.5493 51.513962 
L 161.963057 51.513962 
L 162.376815 56.534943 
L 163.20433 56.534943 
L 163.618087 71.597887 
L 164.031845 76.618868 
L 164.445602 76.618868 
L 165.273117 96.702792 
L 165.686874 96.702792 
L 166.928147 81.639849 
L 167.341904 71.597887 
L 167.755661 66.576906 
L 168.169419 66.576906 
L 168.583176 71.597887 
L 168.996934 71.597887 
L 169.824448 51.513962 
L 171.065721 66.576906 
L 171.479478 66.576906 
L 171.893236 61.555925 
L 172.306993 66.576906 
L 173.134508 66.576906 
L 173.548265 81.639849 
L 173.962023 81.639849 
L 174.37578 86.66083 
L 174.789537 76.618868 
L 176.03081 76.618868 
L 176.444567 81.639849 
L 176.858325 91.681811 
L 177.272082 81.639849 
L 177.685839 81.639849 
L 178.099597 76.618868 
L 178.927112 96.702792 
L 179.754627 96.702792 
L 180.168384 91.681811 
L 181.409656 91.681811 
L 182.237171 101.723774 
L 182.650928 96.702792 
L 183.064686 106.744755 
L 184.719716 106.744755 
L 185.133473 96.702792 
L 185.54723 96.702792 
L 185.960988 91.681811 
L 186.374745 81.639849 
L 186.788503 76.618868 
L 187.20226 81.639849 
L 187.616017 76.618868 
L 188.029775 76.618868 
L 188.85729 86.66083 
L 189.271047 81.639849 
L 189.684805 86.66083 
L 190.098562 86.66083 
L 190.512319 76.618868 
L 190.926077 76.618868 
L 191.339834 71.597887 
L 191.753592 71.597887 
L 192.167349 76.618868 
L 192.994864 76.618868 
L 193.408621 66.576906 
L 193.822379 66.576906 
L 194.236136 71.597887 
L 194.649894 81.639849 
L 195.891166 81.639849 
L 196.304923 86.66083 
L 197.132438 86.66083 
L 197.546196 61.555925 
L 197.959953 46.492981 
L 198.37371 51.513962 
L 198.787468 51.513962 
L 199.614983 31.430038 
L 200.856255 31.430038 
L 201.270012 36.451019 
L 201.68377 46.492981 
L 202.097527 51.513962 
L 203.338799 36.451019 
L 203.752557 41.472 
L 204.166314 51.513962 
L 204.580072 41.472 
L 204.993829 36.451019 
L 205.821344 36.451019 
L 206.235101 31.430038 
L 206.648859 36.451019 
L 207.062616 36.451019 
L 207.476374 31.430038 
L 207.890131 31.430038 
L 208.303888 21.388075 
L 209.545161 21.388075 
L 209.958918 16.367094 
L 210.372676 16.367094 
L 210.786433 6.325132 
L 211.20019 6.325132 
L 211.613948 26.409057 
L 212.441463 36.451019 
L 214.096492 36.451019 
L 214.924007 26.409057 
L 216.165279 26.409057 
L 216.579037 36.451019 
L 216.992794 41.472 
L 217.406552 41.472 
L 217.820309 46.492981 
L 218.647824 46.492981 
L 219.061581 41.472 
L 219.475339 46.492981 
L 219.889096 41.472 
L 220.716611 61.555925 
L 221.130368 61.555925 
L 221.544126 51.513962 
L 221.957883 56.534943 
L 224.02667 56.534943 
L 224.440428 41.472 
L 224.854185 46.492981 
L 225.267943 46.492981 
L 225.6817 56.534943 
L 226.922972 56.534943 
L 227.750487 66.576906 
L 229.405517 66.576906 
L 229.819274 76.618868 
L 230.233032 81.639849 
L 230.646789 81.639849 
L 231.060546 71.597887 
L 231.474304 71.597887 
L 231.888061 101.723774 
L 232.301819 121.807698 
L 233.543091 121.807698 
L 234.784363 136.870642 
L 235.198121 131.84966 
L 236.025635 141.891623 
L 236.85315 131.84966 
L 237.266908 141.891623 
L 237.680665 146.912604 
L 238.094423 141.891623 
L 238.50818 141.891623 
L 239.335695 161.975547 
L 239.749452 156.954566 
L 240.16321 146.912604 
L 240.576967 151.933585 
L 240.990725 151.933585 
L 241.404482 146.912604 
L 242.231997 146.912604 
L 242.645754 151.933585 
L 243.059512 151.933585 
L 243.473269 146.912604 
L 243.887026 136.870642 
L 244.300784 131.84966 
L 244.714541 131.84966 
L 245.128299 136.870642 
L 247.197086 136.870642 
L 247.610843 141.891623 
L 248.024601 136.870642 
L 248.438358 136.870642 
L 249.265873 146.912604 
L 250.507145 146.912604 
L 251.33466 126.828679 
L 252.98969 126.828679 
L 253.403447 136.870642 
L 253.817204 136.870642 
L 254.230962 131.84966 
L 255.472234 131.84966 
L 255.885992 141.891623 
L 256.299749 136.870642 
L 257.541021 136.870642 
L 257.954779 141.891623 
L 258.368536 141.891623 
L 258.782294 151.933585 
L 259.196051 141.891623 
L 259.609808 141.891623 
L 260.023566 131.84966 
L 260.437323 136.870642 
L 261.678595 136.870642 
L 262.50611 126.828679 
L 262.919868 126.828679 
L 263.333625 131.84966 
L 263.747383 131.84966 
L 264.16114 126.828679 
L 264.574897 131.84966 
L 264.988655 131.84966 
L 265.402412 141.891623 
L 265.81617 141.891623 
L 266.229927 131.84966 
L 266.643684 126.828679 
L 267.057442 126.828679 
L 267.471199 106.744755 
L 269.126229 106.744755 
L 269.539986 111.765736 
L 269.953744 106.744755 
L 270.367501 106.744755 
L 271.195016 116.786717 
L 272.022531 116.786717 
L 272.850046 106.744755 
L 273.263803 96.702792 
L 273.677561 101.723774 
L 274.505075 101.723774 
L 274.918833 96.702792 
L 275.33259 96.702792 
L 275.746348 101.723774 
L 277.815135 101.723774 
L 278.228892 121.807698 
L 278.64265 126.828679 
L 280.297679 126.828679 
L 280.711437 116.786717 
L 281.125194 116.786717 
L 281.538952 111.765736 
L 282.366466 111.765736 
L 282.780224 96.702792 
L 283.193981 101.723774 
L 284.849011 101.723774 
L 285.262768 111.765736 
L 288.15907 111.765736 
L 288.572828 106.744755 
L 288.986585 111.765736 
L 290.227857 111.765736 
L 290.641615 106.744755 
L 291.055372 106.744755 
L 291.46913 111.765736 
L 292.296644 111.765736 
L 292.710402 116.786717 
L 293.124159 111.765736 
L 293.537917 121.807698 
L 293.951674 121.807698 
L 294.779189 131.84966 
L 295.606704 131.84966 
L 296.434219 121.807698 
L 296.847976 121.807698 
L 297.261733 116.786717 
L 298.089248 116.786717 
L 298.503006 121.807698 
L 300.158035 121.807698 
L 300.571793 131.84966 
L 300.98555 136.870642 
L 301.399308 136.870642 
L 301.813065 161.975547 
L 302.226822 166.996528 
L 303.881852 166.996528 
L 304.29561 172.017509 
L 305.123124 172.017509 
L 306.364397 187.080453 
L 306.778154 197.122415 
L 307.605669 207.164377 
L 308.019426 207.164377 
L 308.433184 212.185358 
L 309.260699 232.269283 
L 312.984515 232.269283 
L 313.398273 237.290264 
L 314.225788 237.290264 
L 314.225788 237.290264 
" style="fill:none;stroke:#0000ff;stroke-linecap:square;stroke-width:1.5;"/>
   </g>
   <g id="line2d_17">
    <path clip-path="url(#p7ce206276f)" d="M 73.832727 182.059472 
L 74.659873 182.059472 
L 75.073445 187.080453 
L 75.487018 177.038491 
L 76.314163 166.996528 
L 77.968454 166.996528 
L 78.382027 156.954566 
L 78.795599 161.975547 
L 79.209172 161.975547 
L 79.622745 156.954566 
L 81.277035 156.954566 
L 81.690608 146.912604 
L 84.172044 146.912604 
L 84.585617 136.870642 
L 84.999189 141.891623 
L 86.239907 141.891623 
L 86.65348 136.870642 
L 87.067053 141.891623 
L 87.480625 136.870642 
L 87.894198 141.891623 
L 89.548489 141.891623 
L 89.962061 136.870642 
L 90.789207 136.870642 
L 91.202779 131.84966 
L 91.616352 141.891623 
L 92.029925 146.912604 
L 92.443497 146.912604 
L 92.85707 136.870642 
L 93.270643 136.870642 
L 93.684215 141.891623 
L 94.097788 131.84966 
L 94.511361 131.84966 
L 94.924933 126.828679 
L 95.752079 136.870642 
L 96.992797 136.870642 
L 97.406369 146.912604 
L 97.819942 146.912604 
L 98.233515 151.933585 
L 99.06066 151.933585 
L 99.474233 146.912604 
L 99.887805 151.933585 
L 100.301378 151.933585 
L 100.714951 146.912604 
L 101.128523 146.912604 
L 101.542096 151.933585 
L 101.955669 146.912604 
L 102.369241 146.912604 
L 102.782814 151.933585 
L 103.196387 151.933585 
L 103.609959 146.912604 
L 104.023532 151.933585 
L 104.437105 151.933585 
L 104.850677 156.954566 
L 105.677823 156.954566 
L 106.091395 161.975547 
L 106.504968 161.975547 
L 106.918541 156.954566 
L 107.332113 156.954566 
L 107.745686 146.912604 
L 108.986404 146.912604 
L 109.399977 141.891623 
L 110.227122 151.933585 
L 110.640695 151.933585 
L 111.054268 146.912604 
L 111.46784 151.933585 
L 111.881413 146.912604 
L 112.294986 131.84966 
L 112.708558 136.870642 
L 113.122131 116.786717 
L 113.535704 111.765736 
L 113.949276 121.807698 
L 114.362849 111.765736 
L 115.189994 111.765736 
L 115.603567 116.786717 
L 116.01714 126.828679 
L 116.430712 116.786717 
L 116.844285 121.807698 
L 117.257858 121.807698 
L 117.67143 126.828679 
L 118.085003 116.786717 
L 118.498576 116.786717 
L 118.912148 126.828679 
L 119.325721 121.807698 
L 120.566439 121.807698 
L 120.980012 116.786717 
L 121.393584 121.807698 
L 122.22073 111.765736 
L 122.634302 111.765736 
L 123.047875 126.828679 
L 123.461448 111.765736 
L 123.87502 101.723774 
L 124.288593 96.702792 
L 124.702166 96.702792 
L 125.115738 91.681811 
L 125.529311 96.702792 
L 125.942884 91.681811 
L 126.356456 91.681811 
L 126.770029 81.639849 
L 127.183602 86.66083 
L 128.010747 86.66083 
L 128.42432 96.702792 
L 129.665038 96.702792 
L 130.07861 91.681811 
L 130.492183 91.681811 
L 130.905756 81.639849 
L 131.732901 81.639849 
L 132.146474 76.618868 
L 132.560046 76.618868 
L 132.973619 81.639849 
L 133.387192 76.618868 
L 133.800764 76.618868 
L 134.214337 71.597887 
L 134.62791 71.597887 
L 135.041482 76.618868 
L 135.868628 76.618868 
L 136.2822 86.66083 
L 136.695773 81.639849 
L 137.109346 81.639849 
L 137.936491 91.681811 
L 138.350064 86.66083 
L 139.177209 96.702792 
L 140.417927 96.702792 
L 140.8315 86.66083 
L 142.072218 116.786717 
L 142.48579 111.765736 
L 142.899363 111.765736 
L 143.726508 121.807698 
L 144.967226 121.807698 
L 145.380799 111.765736 
L 145.794372 111.765736 
L 146.207944 116.786717 
L 146.621517 111.765736 
L 148.275808 111.765736 
L 148.68938 121.807698 
L 149.102953 111.765736 
L 149.516526 111.765736 
L 149.930098 121.807698 
L 150.343671 121.807698 
L 150.757244 111.765736 
L 151.170816 111.765736 
L 151.584389 116.786717 
L 151.997962 126.828679 
L 152.825107 136.870642 
L 155.720116 136.870642 
L 156.133688 151.933585 
L 156.547261 156.954566 
L 156.960834 141.891623 
L 157.374406 141.891623 
L 157.787979 131.84966 
L 158.201552 141.891623 
L 158.615124 146.912604 
L 159.028697 146.912604 
L 159.44227 151.933585 
L 159.855843 131.84966 
L 160.269415 136.870642 
L 160.682988 131.84966 
L 161.096561 136.870642 
L 161.510133 146.912604 
L 161.923706 146.912604 
L 162.337279 141.891623 
L 162.750851 141.891623 
L 163.164424 151.933585 
L 163.577997 156.954566 
L 163.991569 151.933585 
L 164.405142 156.954566 
L 164.818715 156.954566 
L 165.232287 161.975547 
L 165.64586 161.975547 
L 166.059433 172.017509 
L 166.473005 166.996528 
L 167.300151 166.996528 
L 167.713723 161.975547 
L 168.127296 161.975547 
L 168.540869 172.017509 
L 168.954441 172.017509 
L 169.368014 156.954566 
L 170.608732 156.954566 
L 171.022305 151.933585 
L 171.84945 151.933585 
L 172.263023 146.912604 
L 172.676595 146.912604 
L 173.090168 136.870642 
L 173.503741 136.870642 
L 173.917313 131.84966 
L 174.330886 131.84966 
L 174.744459 126.828679 
L 175.158031 131.84966 
L 175.985177 131.84966 
L 176.812322 141.891623 
L 177.225895 131.84966 
L 177.639467 126.828679 
L 178.05304 131.84966 
L 178.466613 151.933585 
L 178.880185 151.933585 
L 179.707331 161.975547 
L 180.948049 161.975547 
L 181.361621 156.954566 
L 181.775194 156.954566 
L 182.188767 161.975547 
L 182.602339 156.954566 
L 183.015912 156.954566 
L 183.429485 151.933585 
L 184.25663 131.84966 
L 184.670203 126.828679 
L 185.083775 136.870642 
L 185.910921 126.828679 
L 186.324493 126.828679 
L 186.738066 136.870642 
L 187.565211 136.870642 
L 187.978784 131.84966 
L 188.392357 131.84966 
L 189.219502 111.765736 
L 189.633075 106.744755 
L 190.046647 96.702792 
L 190.873793 96.702792 
L 191.287365 116.786717 
L 191.700938 116.786717 
L 192.114511 121.807698 
L 192.528083 116.786717 
L 192.941656 116.786717 
L 193.355229 106.744755 
L 193.768801 106.744755 
L 194.182374 116.786717 
L 195.423092 131.84966 
L 195.836665 126.828679 
L 196.250237 116.786717 
L 199.145246 116.786717 
L 199.558819 106.744755 
L 199.972391 106.744755 
L 200.385964 96.702792 
L 200.799537 101.723774 
L 201.213109 91.681811 
L 201.626682 91.681811 
L 202.040255 106.744755 
L 203.280973 91.681811 
L 203.694545 96.702792 
L 204.935263 96.702792 
L 205.348836 91.681811 
L 205.762409 91.681811 
L 206.175981 86.66083 
L 207.003127 86.66083 
L 207.830272 96.702792 
L 208.657417 96.702792 
L 209.07099 101.723774 
L 209.484563 96.702792 
L 209.898135 96.702792 
L 210.311708 91.681811 
L 211.138854 91.681811 
L 211.552426 106.744755 
L 211.965999 116.786717 
L 212.793144 116.786717 
L 213.206717 111.765736 
L 213.62029 111.765736 
L 214.033862 106.744755 
L 214.447435 111.765736 
L 215.688153 111.765736 
L 216.101726 106.744755 
L 216.515298 106.744755 
L 216.928871 116.786717 
L 217.342444 116.786717 
L 217.756016 111.765736 
L 218.169589 116.786717 
L 218.583162 126.828679 
L 218.996734 126.828679 
L 219.82388 116.786717 
L 220.237452 121.807698 
L 221.064598 121.807698 
L 221.47817 131.84966 
L 221.891743 126.828679 
L 222.305316 131.84966 
L 222.718888 126.828679 
L 223.132461 126.828679 
L 223.546034 131.84966 
L 223.959606 126.828679 
L 224.373179 136.870642 
L 225.613897 136.870642 
L 226.02747 141.891623 
L 226.441042 131.84966 
L 226.854615 136.870642 
L 227.268188 131.84966 
L 227.68176 141.891623 
L 228.922478 141.891623 
L 229.749624 131.84966 
L 230.163196 136.870642 
L 230.576769 146.912604 
L 230.990342 146.912604 
L 231.403914 136.870642 
L 232.23106 146.912604 
L 233.471778 146.912604 
L 233.88535 151.933585 
L 234.298923 146.912604 
L 234.712496 156.954566 
L 235.539641 156.954566 
L 235.953214 151.933585 
L 237.607504 151.933585 
L 238.021077 146.912604 
L 238.43465 146.912604 
L 238.848222 141.891623 
L 239.261795 141.891623 
L 240.08894 131.84966 
L 240.502513 136.870642 
L 241.329658 126.828679 
L 241.743231 131.84966 
L 242.156804 126.828679 
L 242.570376 126.828679 
L 242.983949 131.84966 
L 244.224667 131.84966 
L 244.63824 136.870642 
L 245.878958 136.870642 
L 246.29253 131.84966 
L 247.119676 131.84966 
L 247.533248 136.870642 
L 248.360394 136.870642 
L 248.773966 141.891623 
L 250.014684 141.891623 
L 250.428257 136.870642 
L 251.255402 136.870642 
L 251.668975 141.891623 
L 252.082548 141.891623 
L 252.49612 131.84966 
L 252.909693 116.786717 
L 253.323266 116.786717 
L 254.150411 126.828679 
L 254.563984 126.828679 
L 254.977556 131.84966 
L 255.804702 111.765736 
L 256.218274 106.744755 
L 256.631847 106.744755 
L 257.04542 111.765736 
L 257.458992 111.765736 
L 257.872565 101.723774 
L 258.286138 106.744755 
L 259.526856 106.744755 
L 259.940428 111.765736 
L 262.008292 111.765736 
L 262.421865 106.744755 
L 263.24901 106.744755 
L 264.489728 91.681811 
L 264.903301 96.702792 
L 265.316873 91.681811 
L 265.730446 96.702792 
L 267.384737 96.702792 
L 267.798309 101.723774 
L 268.211882 101.723774 
L 268.625455 96.702792 
L 270.279745 96.702792 
L 270.693318 91.681811 
L 271.106891 96.702792 
L 271.520463 91.681811 
L 271.934036 91.681811 
L 272.347609 86.66083 
L 272.761181 86.66083 
L 273.174754 91.681811 
L 274.415472 91.681811 
L 274.829045 86.66083 
L 275.242617 101.723774 
L 275.65619 101.723774 
L 276.069763 96.702792 
L 276.483335 101.723774 
L 276.896908 101.723774 
L 277.310481 91.681811 
L 277.724053 86.66083 
L 279.378344 86.66083 
L 279.791917 91.681811 
L 280.205489 86.66083 
L 281.446207 86.66083 
L 281.85978 81.639849 
L 282.686925 91.681811 
L 283.100498 86.66083 
L 283.514071 86.66083 
L 283.927643 81.639849 
L 284.341216 81.639849 
L 284.754789 86.66083 
L 285.995507 86.66083 
L 286.822652 106.744755 
L 287.236225 121.807698 
L 287.649797 121.807698 
L 288.06337 116.786717 
L 288.890515 116.786717 
L 289.304088 111.765736 
L 289.717661 116.786717 
L 290.131233 111.765736 
L 290.544806 121.807698 
L 290.958379 121.807698 
L 291.371951 106.744755 
L 291.785524 106.744755 
L 292.199097 121.807698 
L 292.612669 121.807698 
L 293.026242 116.786717 
L 293.439815 116.786717 
L 293.853387 111.765736 
L 294.680533 111.765736 
L 295.094105 121.807698 
L 295.507678 116.786717 
L 297.161969 116.786717 
L 297.575541 106.744755 
L 297.989114 101.723774 
L 298.402687 106.744755 
L 300.056977 106.744755 
L 300.884123 86.66083 
L 301.297695 91.681811 
L 301.711268 91.681811 
L 302.124841 86.66083 
L 302.538413 86.66083 
L 303.365559 96.702792 
L 303.779131 91.681811 
L 304.192704 101.723774 
L 304.606277 101.723774 
L 305.019849 106.744755 
L 305.433422 106.744755 
L 305.846995 116.786717 
L 306.260567 116.786717 
L 306.67414 121.807698 
L 307.914858 121.807698 
L 308.328431 116.786717 
L 308.742003 126.828679 
L 309.569149 136.870642 
L 309.982721 136.870642 
L 310.396294 141.891623 
L 310.809867 141.891623 
L 311.223439 131.84966 
L 311.637012 131.84966 
L 312.87773 116.786717 
L 314.118448 116.786717 
L 314.532021 111.765736 
L 314.945594 111.765736 
L 315.359166 106.744755 
L 316.186312 116.786717 
L 317.013457 116.786717 
L 317.42703 111.765736 
L 317.840602 111.765736 
L 318.254175 121.807698 
L 319.08132 121.807698 
L 319.494893 116.786717 
L 321.149184 116.786717 
L 321.976329 106.744755 
L 322.389902 116.786717 
L 322.803474 121.807698 
L 323.63062 121.807698 
L 324.044192 126.828679 
L 324.457765 136.870642 
L 325.28491 126.828679 
L 325.698483 136.870642 
L 326.112056 126.828679 
L 326.525628 121.807698 
L 326.939201 126.828679 
L 327.352774 116.786717 
L 327.766346 116.786717 
L 328.179919 121.807698 
L 329.420637 121.807698 
L 330.661355 106.744755 
L 331.074928 111.765736 
L 331.4885 111.765736 
L 331.902073 116.786717 
L 332.315646 126.828679 
L 332.729218 121.807698 
L 333.142791 131.84966 
L 333.969936 141.891623 
L 334.383509 141.891623 
L 335.210654 151.933585 
L 335.624227 146.912604 
L 336.0378 146.912604 
L 336.451372 151.933585 
L 336.864945 146.912604 
L 337.278518 146.912604 
L 337.69209 141.891623 
L 338.105663 146.912604 
L 338.519236 136.870642 
L 339.346381 136.870642 
L 340.173526 116.786717 
L 340.587099 111.765736 
L 341.000672 116.786717 
L 341.414244 111.765736 
L 341.827817 111.765736 
L 342.24139 106.744755 
L 343.068535 106.744755 
L 343.482108 101.723774 
L 344.722826 101.723774 
L 345.136398 91.681811 
L 345.549971 96.702792 
L 345.963544 96.702792 
L 346.377116 91.681811 
L 347.204262 101.723774 
L 348.031407 101.723774 
L 348.44498 96.702792 
L 348.858552 96.702792 
L 349.272125 91.681811 
L 350.926416 91.681811 
L 351.339988 96.702792 
L 351.753561 96.702792 
L 352.167134 86.66083 
L 352.994279 76.618868 
L 353.407852 76.618868 
L 353.821424 81.639849 
L 355.062142 81.639849 
L 356.30286 96.702792 
L 358.784296 96.702792 
L 359.611442 106.744755 
L 360.025014 101.723774 
L 360.438587 111.765736 
L 360.85216 111.765736 
L 361.265732 86.66083 
L 362.50645 86.66083 
L 363.747169 71.597887 
L 364.160741 81.639849 
L 364.574314 76.618868 
L 364.987887 81.639849 
L 365.401459 81.639849 
L 366.642177 66.576906 
L 367.05575 71.597887 
L 367.469323 61.555925 
L 367.882895 61.555925 
L 368.296468 66.576906 
L 368.710041 61.555925 
L 369.123613 51.513962 
L 369.537186 51.513962 
L 369.950759 56.534943 
L 370.777904 56.534943 
L 371.191477 66.576906 
L 371.605049 66.576906 
L 372.018622 71.597887 
L 372.432195 81.639849 
L 372.845767 86.66083 
L 373.25934 86.66083 
L 373.672913 81.639849 
L 374.500058 101.723774 
L 374.913631 106.744755 
L 375.327203 106.744755 
L 375.740776 111.765736 
L 376.154349 106.744755 
L 376.567921 106.744755 
L 376.981494 111.765736 
L 377.395067 106.744755 
L 378.635785 106.744755 
L 379.049357 101.723774 
L 379.46293 101.723774 
L 379.876503 96.702792 
L 380.290075 76.618868 
L 380.703648 86.66083 
L 381.530793 86.66083 
L 381.944366 76.618868 
L 382.357939 71.597887 
L 383.185084 71.597887 
L 383.598657 76.618868 
L 385.66652 76.618868 
L 386.080093 71.597887 
L 386.907238 91.681811 
L 387.320811 96.702792 
L 387.734383 86.66083 
L 388.561529 76.618868 
L 388.975101 76.618868 
L 390.215819 46.492981 
L 390.629392 51.513962 
L 391.87011 51.513962 
L 392.283683 46.492981 
L 392.697255 46.492981 
L 393.110828 41.472 
L 393.937973 41.472 
L 394.351546 46.492981 
L 394.765119 46.492981 
L 395.178691 41.472 
L 395.592264 61.555925 
L 396.005837 71.597887 
L 396.832982 71.597887 
L 397.660127 61.555925 
L 398.0737 66.576906 
L 398.487273 61.555925 
L 398.487273 61.555925 
" style="fill:none;stroke:#0000ff;stroke-linecap:square;stroke-width:1.5;"/>
   </g>
   <g id="patch_3">
    <path d="M 57.6 307.584 
L 57.6 41.472 
" style="fill:none;stroke:#000000;stroke-linecap:square;stroke-linejoin:miter;stroke-width:0.8;"/>
   </g>
   <g id="patch_4">
    <path d="M 414.72 307.584 
L 414.72 41.472 
" style="fill:none;stroke:#000000;stroke-linecap:square;stroke-linejoin:miter;stroke-width:0.8;"/>
   </g>
   <g id="patch_5">
    <path d="M 57.6 307.584 
L 414.72 307.584 
" style="fill:none;stroke:#000000;stroke-linecap:square;stroke-linejoin:miter;stroke-width:0.8;"/>
   </g>
   <g id="patch_6">
    <path d="M 57.6 41.472 
L 414.72 41.472 
" style="fill:none;stroke:#000000;stroke-linecap:square;stroke-linejoin:miter;stroke-width:0.8;"/>
   </g>
   <g id="text_18">
    <!-- &gt;strA_4_AF321551 Aminoglycoside resistance:Alternate name; aph(3'')-Ib -->
    <defs>
     <path d="M 10.59375 49.21875 
L 10.59375 58.109375 
L 73.1875 35.40625 
L 73.1875 27.296875 
L 10.59375 4.59375 
L 10.59375 13.484375 
L 60.890625 31.296875 
z
" id="DejaVuSans-62"/>
     <path d="M 41.109375 46.296875 
Q 39.59375 47.171875 37.8125 47.578125 
Q 36.03125 48 33.890625 48 
Q 26.265625 48 22.1875 43.046875 
Q 18.109375 38.09375 18.109375 28.8125 
L 18.109375 0 
L 9.078125 0 
L 9.078125 54.6875 
L 18.109375 54.6875 
L 18.109375 46.1875 
Q 20.953125 51.171875 25.484375 53.578125 
Q 30.03125 56 36.53125 56 
Q 37.453125 56 38.578125 55.875 
Q 39.703125 55.765625 41.0625 55.515625 
z
" id="DejaVuSans-114"/>
     <path d="M 34.1875 63.1875 
L 20.796875 26.90625 
L 47.609375 26.90625 
z
M 28.609375 72.90625 
L 39.796875 72.90625 
L 67.578125 0 
L 57.328125 0 
L 50.6875 18.703125 
L 17.828125 18.703125 
L 11.1875 0 
L 0.78125 0 
z
" id="DejaVuSans-65"/>
     <path d="M 50.984375 -16.609375 
L 50.984375 -23.578125 
L -0.984375 -23.578125 
L -0.984375 -16.609375 
z
" id="DejaVuSans-95"/>
     <path d="M 9.8125 72.90625 
L 51.703125 72.90625 
L 51.703125 64.59375 
L 19.671875 64.59375 
L 19.671875 43.109375 
L 48.578125 43.109375 
L 48.578125 34.8125 
L 19.671875 34.8125 
L 19.671875 0 
L 9.8125 0 
z
" id="DejaVuSans-70"/>
     <path d="M 52 44.1875 
Q 55.375 50.25 60.0625 53.125 
Q 64.75 56 71.09375 56 
Q 79.640625 56 84.28125 50.015625 
Q 88.921875 44.046875 88.921875 33.015625 
L 88.921875 0 
L 79.890625 0 
L 79.890625 32.71875 
Q 79.890625 40.578125 77.09375 44.375 
Q 74.3125 48.1875 68.609375 48.1875 
Q 61.625 48.1875 57.5625 43.546875 
Q 53.515625 38.921875 53.515625 30.90625 
L 53.515625 0 
L 44.484375 0 
L 44.484375 32.71875 
Q 44.484375 40.625 41.703125 44.40625 
Q 38.921875 48.1875 33.109375 48.1875 
Q 26.21875 48.1875 22.15625 43.53125 
Q 18.109375 38.875 18.109375 30.90625 
L 18.109375 0 
L 9.078125 0 
L 9.078125 54.6875 
L 18.109375 54.6875 
L 18.109375 46.1875 
Q 21.1875 51.21875 25.484375 53.609375 
Q 29.78125 56 35.6875 56 
Q 41.65625 56 45.828125 52.96875 
Q 50 49.953125 52 44.1875 
z
" id="DejaVuSans-109"/>
     <path d="M 9.421875 75.984375 
L 18.40625 75.984375 
L 18.40625 0 
L 9.421875 0 
z
" id="DejaVuSans-108"/>
     <path d="M 32.171875 -5.078125 
Q 28.375 -14.84375 24.75 -17.8125 
Q 21.140625 -20.796875 15.09375 -20.796875 
L 7.90625 -20.796875 
L 7.90625 -13.28125 
L 13.1875 -13.28125 
Q 16.890625 -13.28125 18.9375 -11.515625 
Q 21 -9.765625 23.484375 -3.21875 
L 25.09375 0.875 
L 2.984375 54.6875 
L 12.5 54.6875 
L 29.59375 11.921875 
L 46.6875 54.6875 
L 56.203125 54.6875 
z
" id="DejaVuSans-121"/>
     <path d="M 48.78125 52.59375 
L 48.78125 44.1875 
Q 44.96875 46.296875 41.140625 47.34375 
Q 37.3125 48.390625 33.40625 48.390625 
Q 24.65625 48.390625 19.8125 42.84375 
Q 14.984375 37.3125 14.984375 27.296875 
Q 14.984375 17.28125 19.8125 11.734375 
Q 24.65625 6.203125 33.40625 6.203125 
Q 37.3125 6.203125 41.140625 7.25 
Q 44.96875 8.296875 48.78125 10.40625 
L 48.78125 2.09375 
Q 45.015625 0.34375 40.984375 -0.53125 
Q 36.96875 -1.421875 32.421875 -1.421875 
Q 20.0625 -1.421875 12.78125 6.34375 
Q 5.515625 14.109375 5.515625 27.296875 
Q 5.515625 40.671875 12.859375 48.328125 
Q 20.21875 56 33.015625 56 
Q 37.15625 56 41.109375 55.140625 
Q 45.0625 54.296875 48.78125 52.59375 
z
" id="DejaVuSans-99"/>
     <path d="M 34.28125 27.484375 
Q 23.390625 27.484375 19.1875 25 
Q 14.984375 22.515625 14.984375 16.5 
Q 14.984375 11.71875 18.140625 8.90625 
Q 21.296875 6.109375 26.703125 6.109375 
Q 34.1875 6.109375 38.703125 11.40625 
Q 43.21875 16.703125 43.21875 25.484375 
L 43.21875 27.484375 
z
M 52.203125 31.203125 
L 52.203125 0 
L 43.21875 0 
L 43.21875 8.296875 
Q 40.140625 3.328125 35.546875 0.953125 
Q 30.953125 -1.421875 24.3125 -1.421875 
Q 15.921875 -1.421875 10.953125 3.296875 
Q 6 8.015625 6 15.921875 
Q 6 25.140625 12.171875 29.828125 
Q 18.359375 34.515625 30.609375 34.515625 
L 43.21875 34.515625 
L 43.21875 35.40625 
Q 43.21875 41.609375 39.140625 45 
Q 35.0625 48.390625 27.6875 48.390625 
Q 23 48.390625 18.546875 47.265625 
Q 14.109375 46.140625 10.015625 43.890625 
L 10.015625 52.203125 
Q 14.9375 54.109375 19.578125 55.046875 
Q 24.21875 56 28.609375 56 
Q 40.484375 56 46.34375 49.84375 
Q 52.203125 43.703125 52.203125 31.203125 
z
" id="DejaVuSans-97"/>
     <path d="M 11.71875 12.40625 
L 22.015625 12.40625 
L 22.015625 0 
L 11.71875 0 
z
M 11.71875 51.703125 
L 22.015625 51.703125 
L 22.015625 39.3125 
L 11.71875 39.3125 
z
" id="DejaVuSans-58"/>
     <path d="M 11.71875 51.703125 
L 22.015625 51.703125 
L 22.015625 39.3125 
L 11.71875 39.3125 
z
M 11.71875 12.40625 
L 22.015625 12.40625 
L 22.015625 4 
L 14.015625 -11.625 
L 7.71875 -11.625 
L 11.71875 4 
z
" id="DejaVuSans-59"/>
     <path d="M 31 75.875 
Q 24.46875 64.65625 21.28125 53.65625 
Q 18.109375 42.671875 18.109375 31.390625 
Q 18.109375 20.125 21.3125 9.0625 
Q 24.515625 -2 31 -13.1875 
L 23.1875 -13.1875 
Q 15.875 -1.703125 12.234375 9.375 
Q 8.59375 20.453125 8.59375 31.390625 
Q 8.59375 42.28125 12.203125 53.3125 
Q 15.828125 64.359375 23.1875 75.875 
z
" id="DejaVuSans-40"/>
     <path d="M 17.921875 72.90625 
L 17.921875 45.796875 
L 9.625 45.796875 
L 9.625 72.90625 
z
" id="DejaVuSans-39"/>
     <path d="M 8.015625 75.875 
L 15.828125 75.875 
Q 23.140625 64.359375 26.78125 53.3125 
Q 30.421875 42.28125 30.421875 31.390625 
Q 30.421875 20.453125 26.78125 9.375 
Q 23.140625 -1.703125 15.828125 -13.1875 
L 8.015625 -13.1875 
Q 14.5 -2 17.703125 9.0625 
Q 20.90625 20.125 20.90625 31.390625 
Q 20.90625 42.671875 17.703125 53.65625 
Q 14.5 64.65625 8.015625 75.875 
z
" id="DejaVuSans-41"/>
     <path d="M 4.890625 31.390625 
L 31.203125 31.390625 
L 31.203125 23.390625 
L 4.890625 23.390625 
z
" id="DejaVuSans-45"/>
     <path d="M 9.8125 72.90625 
L 19.671875 72.90625 
L 19.671875 0 
L 9.8125 0 
z
" id="DejaVuSans-73"/>
     <path d="M 48.6875 27.296875 
Q 48.6875 37.203125 44.609375 42.84375 
Q 40.53125 48.484375 33.40625 48.484375 
Q 26.265625 48.484375 22.1875 42.84375 
Q 18.109375 37.203125 18.109375 27.296875 
Q 18.109375 17.390625 22.1875 11.75 
Q 26.265625 6.109375 33.40625 6.109375 
Q 40.53125 6.109375 44.609375 11.75 
Q 48.6875 17.390625 48.6875 27.296875 
z
M 18.109375 46.390625 
Q 20.953125 51.265625 25.265625 53.625 
Q 29.59375 56 35.59375 56 
Q 45.5625 56 51.78125 48.09375 
Q 58.015625 40.1875 58.015625 27.296875 
Q 58.015625 14.40625 51.78125 6.484375 
Q 45.5625 -1.421875 35.59375 -1.421875 
Q 29.59375 -1.421875 25.265625 0.953125 
Q 20.953125 3.328125 18.109375 8.203125 
L 18.109375 0 
L 9.078125 0 
L 9.078125 75.984375 
L 18.109375 75.984375 
z
" id="DejaVuSans-98"/>
    </defs>
    <g transform="translate(13.208438 35.472)scale(0.12 -0.12)">
     <use xlink:href="#DejaVuSans-62"/>
     <use x="83.789062" xlink:href="#DejaVuSans-115"/>
     <use x="135.888672" xlink:href="#DejaVuSans-116"/>
     <use x="175.097656" xlink:href="#DejaVuSans-114"/>
     <use x="216.210938" xlink:href="#DejaVuSans-65"/>
     <use x="284.619141" xlink:href="#DejaVuSans-95"/>
     <use x="334.619141" xlink:href="#DejaVuSans-52"/>
     <use x="398.242188" xlink:href="#DejaVuSans-95"/>
     <use x="448.242188" xlink:href="#DejaVuSans-65"/>
     <use x="516.650391" xlink:href="#DejaVuSans-70"/>
     <use x="574.169922" xlink:href="#DejaVuSans-51"/>
     <use x="637.792969" xlink:href="#DejaVuSans-50"/>
     <use x="701.416016" xlink:href="#DejaVuSans-49"/>
     <use x="765.039062" xlink:href="#DejaVuSans-53"/>
     <use x="828.662109" xlink:href="#DejaVuSans-53"/>
     <use x="892.285156" xlink:href="#DejaVuSans-49"/>
     <use x="955.908203" xlink:href="#DejaVuSans-32"/>
     <use x="987.695312" xlink:href="#DejaVuSans-65"/>
     <use x="1056.103516" xlink:href="#DejaVuSans-109"/>
     <use x="1153.515625" xlink:href="#DejaVuSans-105"/>
     <use x="1181.298828" xlink:href="#DejaVuSans-110"/>
     <use x="1244.677734" xlink:href="#DejaVuSans-111"/>
     <use x="1305.859375" xlink:href="#DejaVuSans-103"/>
     <use x="1369.335938" xlink:href="#DejaVuSans-108"/>
     <use x="1397.119141" xlink:href="#DejaVuSans-121"/>
     <use x="1456.298828" xlink:href="#DejaVuSans-99"/>
     <use x="1511.279297" xlink:href="#DejaVuSans-111"/>
     <use x="1572.460938" xlink:href="#DejaVuSans-115"/>
     <use x="1624.560547" xlink:href="#DejaVuSans-105"/>
     <use x="1652.34375" xlink:href="#DejaVuSans-100"/>
     <use x="1715.820312" xlink:href="#DejaVuSans-101"/>
     <use x="1777.34375" xlink:href="#DejaVuSans-32"/>
     <use x="1809.130859" xlink:href="#DejaVuSans-114"/>
     <use x="1850.212891" xlink:href="#DejaVuSans-101"/>
     <use x="1911.736328" xlink:href="#DejaVuSans-115"/>
     <use x="1963.835938" xlink:href="#DejaVuSans-105"/>
     <use x="1991.619141" xlink:href="#DejaVuSans-115"/>
     <use x="2043.71875" xlink:href="#DejaVuSans-116"/>
     <use x="2082.927734" xlink:href="#DejaVuSans-97"/>
     <use x="2144.207031" xlink:href="#DejaVuSans-110"/>
     <use x="2207.585938" xlink:href="#DejaVuSans-99"/>
     <use x="2262.566406" xlink:href="#DejaVuSans-101"/>
     <use x="2324.089844" xlink:href="#DejaVuSans-58"/>
     <use x="2357.78125" xlink:href="#DejaVuSans-65"/>
     <use x="2426.189453" xlink:href="#DejaVuSans-108"/>
     <use x="2453.972656" xlink:href="#DejaVuSans-116"/>
     <use x="2493.181641" xlink:href="#DejaVuSans-101"/>
     <use x="2554.705078" xlink:href="#DejaVuSans-114"/>
     <use x="2595.802734" xlink:href="#DejaVuSans-110"/>
     <use x="2659.181641" xlink:href="#DejaVuSans-97"/>
     <use x="2720.460938" xlink:href="#DejaVuSans-116"/>
     <use x="2759.669922" xlink:href="#DejaVuSans-101"/>
     <use x="2821.193359" xlink:href="#DejaVuSans-32"/>
     <use x="2852.980469" xlink:href="#DejaVuSans-110"/>
     <use x="2916.359375" xlink:href="#DejaVuSans-97"/>
     <use x="2977.638672" xlink:href="#DejaVuSans-109"/>
     <use x="3075.050781" xlink:href="#DejaVuSans-101"/>
     <use x="3136.574219" xlink:href="#DejaVuSans-59"/>
     <use x="3170.265625" xlink:href="#DejaVuSans-32"/>
     <use x="3202.052734" xlink:href="#DejaVuSans-97"/>
     <use x="3263.332031" xlink:href="#DejaVuSans-112"/>
     <use x="3326.808594" xlink:href="#DejaVuSans-104"/>
     <use x="3390.1875" xlink:href="#DejaVuSans-40"/>
     <use x="3429.201172" xlink:href="#DejaVuSans-51"/>
     <use x="3492.824219" xlink:href="#DejaVuSans-39"/>
     <use x="3520.314453" xlink:href="#DejaVuSans-39"/>
     <use x="3547.804688" xlink:href="#DejaVuSans-41"/>
     <use x="3586.818359" xlink:href="#DejaVuSans-45"/>
     <use x="3622.902344" xlink:href="#DejaVuSans-73"/>
     <use x="3652.394531" xlink:href="#DejaVuSans-98"/>
    </g>
   </g>
  </g>
 </g>
 <defs>
  <clipPath id="p7ce206276f">
   <rect height="266.112" width="357.12" x="57.6" y="41.472"/>
  </clipPath>
 </defs>
</svg>
