<?xml version="1.0" encoding="utf-8" standalone="no"?>
<!DOCTYPE svg PUBLIC "-//W3C//DTD SVG 1.1//EN"
  "http://www.w3.org/Graphics/SVG/1.1/DTD/svg11.dtd">
<!-- Created with matplotlib (https://matplotlib.org/) -->
<svg height="345.6pt" version="1.1" viewBox="0 0 460.8 345.6" width="460.8pt" xmlns="http://www.w3.org/2000/svg" xmlns:xlink="http://www.w3.org/1999/xlink">
 <defs>
  <style type="text/css">
*{stroke-linecap:butt;stroke-linejoin:round;}
  </style>
 </defs>
 <g id="figure_1">
  <g id="patch_1">
   <path d="M 0 345.6 
L 460.8 345.6 
L 460.8 0 
L 0 0 
z
" style="fill:#ffffff;"/>
  </g>
  <g id="axes_1">
   <g id="patch_2">
    <path d="M 57.6 307.584 
L 414.72 307.584 
L 414.72 41.472 
L 57.6 41.472 
z
" style="fill:#ffffff;"/>
   </g>
   <g id="matplotlib.axis_1">
    <g id="xtick_1">
     <g id="line2d_1">
      <defs>
       <path d="M 0 0 
L 0 3.5 
" id="m95397640cb" style="stroke:#000000;stroke-width:0.8;"/>
      </defs>
      <g>
       <use style="stroke:#000000;stroke-width:0.8;" x="73.832727" xlink:href="#m95397640cb" y="307.584"/>
      </g>
     </g>
     <g id="text_1">
      <!-- 0 -->
      <defs>
       <path d="M 31.78125 66.40625 
Q 24.171875 66.40625 20.328125 58.90625 
Q 16.5 51.421875 16.5 36.375 
Q 16.5 21.390625 20.328125 13.890625 
Q 24.171875 6.390625 31.78125 6.390625 
Q 39.453125 6.390625 43.28125 13.890625 
Q 47.125 21.390625 47.125 36.375 
Q 47.125 51.421875 43.28125 58.90625 
Q 39.453125 66.40625 31.78125 66.40625 
z
M 31.78125 74.21875 
Q 44.046875 74.21875 50.515625 64.515625 
Q 56.984375 54.828125 56.984375 36.375 
Q 56.984375 17.96875 50.515625 8.265625 
Q 44.046875 -1.421875 31.78125 -1.421875 
Q 19.53125 -1.421875 13.0625 8.265625 
Q 6.59375 17.96875 6.59375 36.375 
Q 6.59375 54.828125 13.0625 64.515625 
Q 19.53125 74.21875 31.78125 74.21875 
z
" id="DejaVuSans-48"/>
      </defs>
      <g transform="translate(70.651477 322.182437)scale(0.1 -0.1)">
       <use xlink:href="#DejaVuSans-48"/>
      </g>
     </g>
    </g>
    <g id="xtick_2">
     <g id="line2d_2">
      <g>
       <use style="stroke:#000000;stroke-width:0.8;" x="150.856344" xlink:href="#m95397640cb" y="307.584"/>
      </g>
     </g>
     <g id="text_2">
      <!-- 200 -->
      <defs>
       <path d="M 19.1875 8.296875 
L 53.609375 8.296875 
L 53.609375 0 
L 7.328125 0 
L 7.328125 8.296875 
Q 12.9375 14.109375 22.625 23.890625 
Q 32.328125 33.6875 34.8125 36.53125 
Q 39.546875 41.84375 41.421875 45.53125 
Q 43.3125 49.21875 43.3125 52.78125 
Q 43.3125 58.59375 39.234375 62.25 
Q 35.15625 65.921875 28.609375 65.921875 
Q 23.96875 65.921875 18.8125 64.3125 
Q 13.671875 62.703125 7.8125 59.421875 
L 7.8125 69.390625 
Q 13.765625 71.78125 18.9375 73 
Q 24.125 74.21875 28.421875 74.21875 
Q 39.75 74.21875 46.484375 68.546875 
Q 53.21875 62.890625 53.21875 53.421875 
Q 53.21875 48.921875 51.53125 44.890625 
Q 49.859375 40.875 45.40625 35.40625 
Q 44.1875 33.984375 37.640625 27.21875 
Q 31.109375 20.453125 19.1875 8.296875 
z
" id="DejaVuSans-50"/>
      </defs>
      <g transform="translate(141.312594 322.182437)scale(0.1 -0.1)">
       <use xlink:href="#DejaVuSans-50"/>
       <use x="63.623047" xlink:href="#DejaVuSans-48"/>
       <use x="127.246094" xlink:href="#DejaVuSans-48"/>
      </g>
     </g>
    </g>
    <g id="xtick_3">
     <g id="line2d_3">
      <g>
       <use style="stroke:#000000;stroke-width:0.8;" x="227.879961" xlink:href="#m95397640cb" y="307.584"/>
      </g>
     </g>
     <g id="text_3">
      <!-- 400 -->
      <defs>
       <path d="M 37.796875 64.3125 
L 12.890625 25.390625 
L 37.796875 25.390625 
z
M 35.203125 72.90625 
L 47.609375 72.90625 
L 47.609375 25.390625 
L 58.015625 25.390625 
L 58.015625 17.1875 
L 47.609375 17.1875 
L 47.609375 0 
L 37.796875 0 
L 37.796875 17.1875 
L 4.890625 17.1875 
L 4.890625 26.703125 
z
" id="DejaVuSans-52"/>
      </defs>
      <g transform="translate(218.336211 322.182437)scale(0.1 -0.1)">
       <use xlink:href="#DejaVuSans-52"/>
       <use x="63.623047" xlink:href="#DejaVuSans-48"/>
       <use x="127.246094" xlink:href="#DejaVuSans-48"/>
      </g>
     </g>
    </g>
    <g id="xtick_4">
     <g id="line2d_4">
      <g>
       <use style="stroke:#000000;stroke-width:0.8;" x="304.903578" xlink:href="#m95397640cb" y="307.584"/>
      </g>
     </g>
     <g id="text_4">
      <!-- 600 -->
      <defs>
       <path d="M 33.015625 40.375 
Q 26.375 40.375 22.484375 35.828125 
Q 18.609375 31.296875 18.609375 23.390625 
Q 18.609375 15.53125 22.484375 10.953125 
Q 26.375 6.390625 33.015625 6.390625 
Q 39.65625 6.390625 43.53125 10.953125 
Q 47.40625 15.53125 47.40625 23.390625 
Q 47.40625 31.296875 43.53125 35.828125 
Q 39.65625 40.375 33.015625 40.375 
z
M 52.59375 71.296875 
L 52.59375 62.3125 
Q 48.875 64.0625 45.09375 64.984375 
Q 41.3125 65.921875 37.59375 65.921875 
Q 27.828125 65.921875 22.671875 59.328125 
Q 17.53125 52.734375 16.796875 39.40625 
Q 19.671875 43.65625 24.015625 45.921875 
Q 28.375 48.1875 33.59375 48.1875 
Q 44.578125 48.1875 50.953125 41.515625 
Q 57.328125 34.859375 57.328125 23.390625 
Q 57.328125 12.15625 50.6875 5.359375 
Q 44.046875 -1.421875 33.015625 -1.421875 
Q 20.359375 -1.421875 13.671875 8.265625 
Q 6.984375 17.96875 6.984375 36.375 
Q 6.984375 53.65625 15.1875 63.9375 
Q 23.390625 74.21875 37.203125 74.21875 
Q 40.921875 74.21875 44.703125 73.484375 
Q 48.484375 72.75 52.59375 71.296875 
z
" id="DejaVuSans-54"/>
      </defs>
      <g transform="translate(295.359828 322.182437)scale(0.1 -0.1)">
       <use xlink:href="#DejaVuSans-54"/>
       <use x="63.623047" xlink:href="#DejaVuSans-48"/>
       <use x="127.246094" xlink:href="#DejaVuSans-48"/>
      </g>
     </g>
    </g>
    <g id="xtick_5">
     <g id="line2d_5">
      <g>
       <use style="stroke:#000000;stroke-width:0.8;" x="381.927195" xlink:href="#m95397640cb" y="307.584"/>
      </g>
     </g>
     <g id="text_5">
      <!-- 800 -->
      <defs>
       <path d="M 31.78125 34.625 
Q 24.75 34.625 20.71875 30.859375 
Q 16.703125 27.09375 16.703125 20.515625 
Q 16.703125 13.921875 20.71875 10.15625 
Q 24.75 6.390625 31.78125 6.390625 
Q 38.8125 6.390625 42.859375 10.171875 
Q 46.921875 13.96875 46.921875 20.515625 
Q 46.921875 27.09375 42.890625 30.859375 
Q 38.875 34.625 31.78125 34.625 
z
M 21.921875 38.8125 
Q 15.578125 40.375 12.03125 44.71875 
Q 8.5 49.078125 8.5 55.328125 
Q 8.5 64.0625 14.71875 69.140625 
Q 20.953125 74.21875 31.78125 74.21875 
Q 42.671875 74.21875 48.875 69.140625 
Q 55.078125 64.0625 55.078125 55.328125 
Q 55.078125 49.078125 51.53125 44.71875 
Q 48 40.375 41.703125 38.8125 
Q 48.828125 37.15625 52.796875 32.3125 
Q 56.78125 27.484375 56.78125 20.515625 
Q 56.78125 9.90625 50.3125 4.234375 
Q 43.84375 -1.421875 31.78125 -1.421875 
Q 19.734375 -1.421875 13.25 4.234375 
Q 6.78125 9.90625 6.78125 20.515625 
Q 6.78125 27.484375 10.78125 32.3125 
Q 14.796875 37.15625 21.921875 38.8125 
z
M 18.3125 54.390625 
Q 18.3125 48.734375 21.84375 45.5625 
Q 25.390625 42.390625 31.78125 42.390625 
Q 38.140625 42.390625 41.71875 45.5625 
Q 45.3125 48.734375 45.3125 54.390625 
Q 45.3125 60.0625 41.71875 63.234375 
Q 38.140625 66.40625 31.78125 66.40625 
Q 25.390625 66.40625 21.84375 63.234375 
Q 18.3125 60.0625 18.3125 54.390625 
z
" id="DejaVuSans-56"/>
      </defs>
      <g transform="translate(372.383445 322.182437)scale(0.1 -0.1)">
       <use xlink:href="#DejaVuSans-56"/>
       <use x="63.623047" xlink:href="#DejaVuSans-48"/>
       <use x="127.246094" xlink:href="#DejaVuSans-48"/>
      </g>
     </g>
    </g>
    <g id="text_6">
     <!-- gene position -->
     <defs>
      <path d="M 45.40625 27.984375 
Q 45.40625 37.75 41.375 43.109375 
Q 37.359375 48.484375 30.078125 48.484375 
Q 22.859375 48.484375 18.828125 43.109375 
Q 14.796875 37.75 14.796875 27.984375 
Q 14.796875 18.265625 18.828125 12.890625 
Q 22.859375 7.515625 30.078125 7.515625 
Q 37.359375 7.515625 41.375 12.890625 
Q 45.40625 18.265625 45.40625 27.984375 
z
M 54.390625 6.78125 
Q 54.390625 -7.171875 48.1875 -13.984375 
Q 42 -20.796875 29.203125 -20.796875 
Q 24.46875 -20.796875 20.265625 -20.09375 
Q 16.0625 -19.390625 12.109375 -17.921875 
L 12.109375 -9.1875 
Q 16.0625 -11.328125 19.921875 -12.34375 
Q 23.78125 -13.375 27.78125 -13.375 
Q 36.625 -13.375 41.015625 -8.765625 
Q 45.40625 -4.15625 45.40625 5.171875 
L 45.40625 9.625 
Q 42.625 4.78125 38.28125 2.390625 
Q 33.9375 0 27.875 0 
Q 17.828125 0 11.671875 7.65625 
Q 5.515625 15.328125 5.515625 27.984375 
Q 5.515625 40.671875 11.671875 48.328125 
Q 17.828125 56 27.875 56 
Q 33.9375 56 38.28125 53.609375 
Q 42.625 51.21875 45.40625 46.390625 
L 45.40625 54.6875 
L 54.390625 54.6875 
z
" id="DejaVuSans-103"/>
      <path d="M 56.203125 29.59375 
L 56.203125 25.203125 
L 14.890625 25.203125 
Q 15.484375 15.921875 20.484375 11.0625 
Q 25.484375 6.203125 34.421875 6.203125 
Q 39.59375 6.203125 44.453125 7.46875 
Q 49.3125 8.734375 54.109375 11.28125 
L 54.109375 2.78125 
Q 49.265625 0.734375 44.1875 -0.34375 
Q 39.109375 -1.421875 33.890625 -1.421875 
Q 20.796875 -1.421875 13.15625 6.1875 
Q 5.515625 13.8125 5.515625 26.8125 
Q 5.515625 40.234375 12.765625 48.109375 
Q 20.015625 56 32.328125 56 
Q 43.359375 56 49.78125 48.890625 
Q 56.203125 41.796875 56.203125 29.59375 
z
M 47.21875 32.234375 
Q 47.125 39.59375 43.09375 43.984375 
Q 39.0625 48.390625 32.421875 48.390625 
Q 24.90625 48.390625 20.390625 44.140625 
Q 15.875 39.890625 15.1875 32.171875 
z
" id="DejaVuSans-101"/>
      <path d="M 54.890625 33.015625 
L 54.890625 0 
L 45.90625 0 
L 45.90625 32.71875 
Q 45.90625 40.484375 42.875 44.328125 
Q 39.84375 48.1875 33.796875 48.1875 
Q 26.515625 48.1875 22.3125 43.546875 
Q 18.109375 38.921875 18.109375 30.90625 
L 18.109375 0 
L 9.078125 0 
L 9.078125 54.6875 
L 18.109375 54.6875 
L 18.109375 46.1875 
Q 21.34375 51.125 25.703125 53.5625 
Q 30.078125 56 35.796875 56 
Q 45.21875 56 50.046875 50.171875 
Q 54.890625 44.34375 54.890625 33.015625 
z
" id="DejaVuSans-110"/>
      <path id="DejaVuSans-32"/>
      <path d="M 18.109375 8.203125 
L 18.109375 -20.796875 
L 9.078125 -20.796875 
L 9.078125 54.6875 
L 18.109375 54.6875 
L 18.109375 46.390625 
Q 20.953125 51.265625 25.265625 53.625 
Q 29.59375 56 35.59375 56 
Q 45.5625 56 51.78125 48.09375 
Q 58.015625 40.1875 58.015625 27.296875 
Q 58.015625 14.40625 51.78125 6.484375 
Q 45.5625 -1.421875 35.59375 -1.421875 
Q 29.59375 -1.421875 25.265625 0.953125 
Q 20.953125 3.328125 18.109375 8.203125 
z
M 48.6875 27.296875 
Q 48.6875 37.203125 44.609375 42.84375 
Q 40.53125 48.484375 33.40625 48.484375 
Q 26.265625 48.484375 22.1875 42.84375 
Q 18.109375 37.203125 18.109375 27.296875 
Q 18.109375 17.390625 22.1875 11.75 
Q 26.265625 6.109375 33.40625 6.109375 
Q 40.53125 6.109375 44.609375 11.75 
Q 48.6875 17.390625 48.6875 27.296875 
z
" id="DejaVuSans-112"/>
      <path d="M 30.609375 48.390625 
Q 23.390625 48.390625 19.1875 42.75 
Q 14.984375 37.109375 14.984375 27.296875 
Q 14.984375 17.484375 19.15625 11.84375 
Q 23.34375 6.203125 30.609375 6.203125 
Q 37.796875 6.203125 41.984375 11.859375 
Q 46.1875 17.53125 46.1875 27.296875 
Q 46.1875 37.015625 41.984375 42.703125 
Q 37.796875 48.390625 30.609375 48.390625 
z
M 30.609375 56 
Q 42.328125 56 49.015625 48.375 
Q 55.71875 40.765625 55.71875 27.296875 
Q 55.71875 13.875 49.015625 6.21875 
Q 42.328125 -1.421875 30.609375 -1.421875 
Q 18.84375 -1.421875 12.171875 6.21875 
Q 5.515625 13.875 5.515625 27.296875 
Q 5.515625 40.765625 12.171875 48.375 
Q 18.84375 56 30.609375 56 
z
" id="DejaVuSans-111"/>
      <path d="M 44.28125 53.078125 
L 44.28125 44.578125 
Q 40.484375 46.53125 36.375 47.5 
Q 32.28125 48.484375 27.875 48.484375 
Q 21.1875 48.484375 17.84375 46.4375 
Q 14.5 44.390625 14.5 40.28125 
Q 14.5 37.15625 16.890625 35.375 
Q 19.28125 33.59375 26.515625 31.984375 
L 29.59375 31.296875 
Q 39.15625 29.25 43.1875 25.515625 
Q 47.21875 21.78125 47.21875 15.09375 
Q 47.21875 7.46875 41.1875 3.015625 
Q 35.15625 -1.421875 24.609375 -1.421875 
Q 20.21875 -1.421875 15.453125 -0.5625 
Q 10.6875 0.296875 5.421875 2 
L 5.421875 11.28125 
Q 10.40625 8.6875 15.234375 7.390625 
Q 20.0625 6.109375 24.8125 6.109375 
Q 31.15625 6.109375 34.5625 8.28125 
Q 37.984375 10.453125 37.984375 14.40625 
Q 37.984375 18.0625 35.515625 20.015625 
Q 33.0625 21.96875 24.703125 23.78125 
L 21.578125 24.515625 
Q 13.234375 26.265625 9.515625 29.90625 
Q 5.8125 33.546875 5.8125 39.890625 
Q 5.8125 47.609375 11.28125 51.796875 
Q 16.75 56 26.8125 56 
Q 31.78125 56 36.171875 55.265625 
Q 40.578125 54.546875 44.28125 53.078125 
z
" id="DejaVuSans-115"/>
      <path d="M 9.421875 54.6875 
L 18.40625 54.6875 
L 18.40625 0 
L 9.421875 0 
z
M 9.421875 75.984375 
L 18.40625 75.984375 
L 18.40625 64.59375 
L 9.421875 64.59375 
z
" id="DejaVuSans-105"/>
      <path d="M 18.3125 70.21875 
L 18.3125 54.6875 
L 36.8125 54.6875 
L 36.8125 47.703125 
L 18.3125 47.703125 
L 18.3125 18.015625 
Q 18.3125 11.328125 20.140625 9.421875 
Q 21.96875 7.515625 27.59375 7.515625 
L 36.8125 7.515625 
L 36.8125 0 
L 27.59375 0 
Q 17.1875 0 13.234375 3.875 
Q 9.28125 7.765625 9.28125 18.015625 
L 9.28125 47.703125 
L 2.6875 47.703125 
L 2.6875 54.6875 
L 9.28125 54.6875 
L 9.28125 70.21875 
z
" id="DejaVuSans-116"/>
     </defs>
     <g transform="translate(202.270156 335.860562)scale(0.1 -0.1)">
      <use xlink:href="#DejaVuSans-103"/>
      <use x="63.476562" xlink:href="#DejaVuSans-101"/>
      <use x="125" xlink:href="#DejaVuSans-110"/>
      <use x="188.378906" xlink:href="#DejaVuSans-101"/>
      <use x="249.902344" xlink:href="#DejaVuSans-32"/>
      <use x="281.689453" xlink:href="#DejaVuSans-112"/>
      <use x="345.166016" xlink:href="#DejaVuSans-111"/>
      <use x="406.347656" xlink:href="#DejaVuSans-115"/>
      <use x="458.447266" xlink:href="#DejaVuSans-105"/>
      <use x="486.230469" xlink:href="#DejaVuSans-116"/>
      <use x="525.439453" xlink:href="#DejaVuSans-105"/>
      <use x="553.222656" xlink:href="#DejaVuSans-111"/>
      <use x="614.404297" xlink:href="#DejaVuSans-110"/>
     </g>
    </g>
   </g>
   <g id="matplotlib.axis_2">
    <g id="ytick_1">
     <g id="line2d_6">
      <defs>
       <path d="M 0 0 
L -3.5 0 
" id="ma3ddf84f4b" style="stroke:#000000;stroke-width:0.8;"/>
      </defs>
      <g>
       <use style="stroke:#000000;stroke-width:0.8;" x="57.6" xlink:href="#ma3ddf84f4b" y="307.584"/>
      </g>
     </g>
     <g id="text_7">
      <!-- 0 -->
      <g transform="translate(44.2375 311.383219)scale(0.1 -0.1)">
       <use xlink:href="#DejaVuSans-48"/>
      </g>
     </g>
    </g>
    <g id="ytick_2">
     <g id="line2d_7">
      <g>
       <use style="stroke:#000000;stroke-width:0.8;" x="57.6" xlink:href="#ma3ddf84f4b" y="273.898937"/>
      </g>
     </g>
     <g id="text_8">
      <!-- 10 -->
      <defs>
       <path d="M 12.40625 8.296875 
L 28.515625 8.296875 
L 28.515625 63.921875 
L 10.984375 60.40625 
L 10.984375 69.390625 
L 28.421875 72.90625 
L 38.28125 72.90625 
L 38.28125 8.296875 
L 54.390625 8.296875 
L 54.390625 0 
L 12.40625 0 
z
" id="DejaVuSans-49"/>
      </defs>
      <g transform="translate(37.875 277.698155)scale(0.1 -0.1)">
       <use xlink:href="#DejaVuSans-49"/>
       <use x="63.623047" xlink:href="#DejaVuSans-48"/>
      </g>
     </g>
    </g>
    <g id="ytick_3">
     <g id="line2d_8">
      <g>
       <use style="stroke:#000000;stroke-width:0.8;" x="57.6" xlink:href="#ma3ddf84f4b" y="240.213873"/>
      </g>
     </g>
     <g id="text_9">
      <!-- 20 -->
      <g transform="translate(37.875 244.013092)scale(0.1 -0.1)">
       <use xlink:href="#DejaVuSans-50"/>
       <use x="63.623047" xlink:href="#DejaVuSans-48"/>
      </g>
     </g>
    </g>
    <g id="ytick_4">
     <g id="line2d_9">
      <g>
       <use style="stroke:#000000;stroke-width:0.8;" x="57.6" xlink:href="#ma3ddf84f4b" y="206.52881"/>
      </g>
     </g>
     <g id="text_10">
      <!-- 30 -->
      <defs>
       <path d="M 40.578125 39.3125 
Q 47.65625 37.796875 51.625 33 
Q 55.609375 28.21875 55.609375 21.1875 
Q 55.609375 10.40625 48.1875 4.484375 
Q 40.765625 -1.421875 27.09375 -1.421875 
Q 22.515625 -1.421875 17.65625 -0.515625 
Q 12.796875 0.390625 7.625 2.203125 
L 7.625 11.71875 
Q 11.71875 9.328125 16.59375 8.109375 
Q 21.484375 6.890625 26.8125 6.890625 
Q 36.078125 6.890625 40.9375 10.546875 
Q 45.796875 14.203125 45.796875 21.1875 
Q 45.796875 27.640625 41.28125 31.265625 
Q 36.765625 34.90625 28.71875 34.90625 
L 20.21875 34.90625 
L 20.21875 43.015625 
L 29.109375 43.015625 
Q 36.375 43.015625 40.234375 45.921875 
Q 44.09375 48.828125 44.09375 54.296875 
Q 44.09375 59.90625 40.109375 62.90625 
Q 36.140625 65.921875 28.71875 65.921875 
Q 24.65625 65.921875 20.015625 65.03125 
Q 15.375 64.15625 9.8125 62.3125 
L 9.8125 71.09375 
Q 15.4375 72.65625 20.34375 73.4375 
Q 25.25 74.21875 29.59375 74.21875 
Q 40.828125 74.21875 47.359375 69.109375 
Q 53.90625 64.015625 53.90625 55.328125 
Q 53.90625 49.265625 50.4375 45.09375 
Q 46.96875 40.921875 40.578125 39.3125 
z
" id="DejaVuSans-51"/>
      </defs>
      <g transform="translate(37.875 210.328029)scale(0.1 -0.1)">
       <use xlink:href="#DejaVuSans-51"/>
       <use x="63.623047" xlink:href="#DejaVuSans-48"/>
      </g>
     </g>
    </g>
    <g id="ytick_5">
     <g id="line2d_10">
      <g>
       <use style="stroke:#000000;stroke-width:0.8;" x="57.6" xlink:href="#ma3ddf84f4b" y="172.843747"/>
      </g>
     </g>
     <g id="text_11">
      <!-- 40 -->
      <g transform="translate(37.875 176.642966)scale(0.1 -0.1)">
       <use xlink:href="#DejaVuSans-52"/>
       <use x="63.623047" xlink:href="#DejaVuSans-48"/>
      </g>
     </g>
    </g>
    <g id="ytick_6">
     <g id="line2d_11">
      <g>
       <use style="stroke:#000000;stroke-width:0.8;" x="57.6" xlink:href="#ma3ddf84f4b" y="139.158684"/>
      </g>
     </g>
     <g id="text_12">
      <!-- 50 -->
      <defs>
       <path d="M 10.796875 72.90625 
L 49.515625 72.90625 
L 49.515625 64.59375 
L 19.828125 64.59375 
L 19.828125 46.734375 
Q 21.96875 47.46875 24.109375 47.828125 
Q 26.265625 48.1875 28.421875 48.1875 
Q 40.625 48.1875 47.75 41.5 
Q 54.890625 34.8125 54.890625 23.390625 
Q 54.890625 11.625 47.5625 5.09375 
Q 40.234375 -1.421875 26.90625 -1.421875 
Q 22.3125 -1.421875 17.546875 -0.640625 
Q 12.796875 0.140625 7.71875 1.703125 
L 7.71875 11.625 
Q 12.109375 9.234375 16.796875 8.0625 
Q 21.484375 6.890625 26.703125 6.890625 
Q 35.15625 6.890625 40.078125 11.328125 
Q 45.015625 15.765625 45.015625 23.390625 
Q 45.015625 31 40.078125 35.4375 
Q 35.15625 39.890625 26.703125 39.890625 
Q 22.75 39.890625 18.8125 39.015625 
Q 14.890625 38.140625 10.796875 36.28125 
z
" id="DejaVuSans-53"/>
      </defs>
      <g transform="translate(37.875 142.957902)scale(0.1 -0.1)">
       <use xlink:href="#DejaVuSans-53"/>
       <use x="63.623047" xlink:href="#DejaVuSans-48"/>
      </g>
     </g>
    </g>
    <g id="ytick_7">
     <g id="line2d_12">
      <g>
       <use style="stroke:#000000;stroke-width:0.8;" x="57.6" xlink:href="#ma3ddf84f4b" y="105.47362"/>
      </g>
     </g>
     <g id="text_13">
      <!-- 60 -->
      <g transform="translate(37.875 109.272839)scale(0.1 -0.1)">
       <use xlink:href="#DejaVuSans-54"/>
       <use x="63.623047" xlink:href="#DejaVuSans-48"/>
      </g>
     </g>
    </g>
    <g id="ytick_8">
     <g id="line2d_13">
      <g>
       <use style="stroke:#000000;stroke-width:0.8;" x="57.6" xlink:href="#ma3ddf84f4b" y="71.788557"/>
      </g>
     </g>
     <g id="text_14">
      <!-- 70 -->
      <defs>
       <path d="M 8.203125 72.90625 
L 55.078125 72.90625 
L 55.078125 68.703125 
L 28.609375 0 
L 18.3125 0 
L 43.21875 64.59375 
L 8.203125 64.59375 
z
" id="DejaVuSans-55"/>
      </defs>
      <g transform="translate(37.875 75.587776)scale(0.1 -0.1)">
       <use xlink:href="#DejaVuSans-55"/>
       <use x="63.623047" xlink:href="#DejaVuSans-48"/>
      </g>
     </g>
    </g>
    <g id="text_15">
     <!-- depth -->
     <defs>
      <path d="M 45.40625 46.390625 
L 45.40625 75.984375 
L 54.390625 75.984375 
L 54.390625 0 
L 45.40625 0 
L 45.40625 8.203125 
Q 42.578125 3.328125 38.25 0.953125 
Q 33.9375 -1.421875 27.875 -1.421875 
Q 17.96875 -1.421875 11.734375 6.484375 
Q 5.515625 14.40625 5.515625 27.296875 
Q 5.515625 40.1875 11.734375 48.09375 
Q 17.96875 56 27.875 56 
Q 33.9375 56 38.25 53.625 
Q 42.578125 51.265625 45.40625 46.390625 
z
M 14.796875 27.296875 
Q 14.796875 17.390625 18.875 11.75 
Q 22.953125 6.109375 30.078125 6.109375 
Q 37.203125 6.109375 41.296875 11.75 
Q 45.40625 17.390625 45.40625 27.296875 
Q 45.40625 37.203125 41.296875 42.84375 
Q 37.203125 48.484375 30.078125 48.484375 
Q 22.953125 48.484375 18.875 42.84375 
Q 14.796875 37.203125 14.796875 27.296875 
z
" id="DejaVuSans-100"/>
      <path d="M 54.890625 33.015625 
L 54.890625 0 
L 45.90625 0 
L 45.90625 32.71875 
Q 45.90625 40.484375 42.875 44.328125 
Q 39.84375 48.1875 33.796875 48.1875 
Q 26.515625 48.1875 22.3125 43.546875 
Q 18.109375 38.921875 18.109375 30.90625 
L 18.109375 0 
L 9.078125 0 
L 9.078125 75.984375 
L 18.109375 75.984375 
L 18.109375 46.1875 
Q 21.34375 51.125 25.703125 53.5625 
Q 30.078125 56 35.796875 56 
Q 45.21875 56 50.046875 50.171875 
Q 54.890625 44.34375 54.890625 33.015625 
z
" id="DejaVuSans-104"/>
     </defs>
     <g transform="translate(31.795312 189.081906)rotate(-90)scale(0.1 -0.1)">
      <use xlink:href="#DejaVuSans-100"/>
      <use x="63.476562" xlink:href="#DejaVuSans-101"/>
      <use x="125" xlink:href="#DejaVuSans-112"/>
      <use x="188.476562" xlink:href="#DejaVuSans-116"/>
      <use x="227.685547" xlink:href="#DejaVuSans-104"/>
     </g>
    </g>
   </g>
   <g id="line2d_14">
    <path clip-path="url(#pca81c0a38f)" d="M 73.832727 196.423291 
L 74.989454 186.317772 
L 75.375029 179.580759 
L 75.760605 169.475241 
L 76.14618 169.475241 
L 76.531756 159.369722 
L 76.917331 152.632709 
L 77.302906 149.264203 
L 77.688482 149.264203 
L 78.074057 142.52719 
L 78.459633 142.52719 
L 78.845208 139.158684 
L 79.230784 129.053165 
L 80.38751 129.053165 
L 81.158661 122.316152 
L 81.544237 122.316152 
L 81.929812 142.52719 
L 82.315388 142.52719 
L 82.700963 145.895696 
L 83.086539 135.790177 
L 83.472114 129.053165 
L 83.857689 125.684658 
L 84.243265 125.684658 
L 84.62884 122.316152 
L 85.014416 115.579139 
L 85.399991 115.579139 
L 85.785567 118.947646 
L 86.171142 108.842127 
L 86.556718 102.105114 
L 86.942293 98.736608 
L 87.327869 91.999595 
L 87.713444 91.999595 
L 88.09902 102.105114 
L 88.870171 95.368101 
L 89.255746 65.051544 
L 89.641322 61.683038 
L 90.412472 75.157063 
L 90.798048 65.051544 
L 91.183623 75.157063 
L 91.569199 81.894076 
L 92.34035 81.894076 
L 92.725925 88.631089 
L 93.111501 85.262582 
L 93.882652 105.47362 
L 94.653803 105.47362 
L 95.039378 102.105114 
L 95.424954 88.631089 
L 95.810529 85.262582 
L 96.196105 85.262582 
L 96.58168 78.52557 
L 96.967255 81.894076 
L 97.352831 81.894076 
L 97.738406 85.262582 
L 98.123982 85.262582 
L 98.509557 75.157063 
L 98.895133 78.52557 
L 99.280708 75.157063 
L 99.666284 68.420051 
L 100.051859 51.577519 
L 100.437435 54.946025 
L 100.82301 51.577519 
L 103.136463 51.577519 
L 103.522038 41.472 
L 103.907614 44.840506 
L 104.293189 44.840506 
L 104.678765 41.472 
L 105.06434 41.472 
L 105.449916 44.840506 
L 105.835491 44.840506 
L 106.221067 48.209013 
L 106.606642 54.946025 
L 107.763369 65.051544 
L 108.53452 58.314532 
L 108.920095 58.314532 
L 109.691246 65.051544 
L 110.076821 71.788557 
L 110.462397 71.788557 
L 110.847972 75.157063 
L 111.233548 81.894076 
L 111.619123 78.52557 
L 112.004699 78.52557 
L 112.77585 85.262582 
L 113.161425 81.894076 
L 113.547001 68.420051 
L 113.932576 71.788557 
L 114.318152 65.051544 
L 114.703727 51.577519 
L 115.089303 58.314532 
L 115.860453 65.051544 
L 117.01718 65.051544 
L 118.173906 75.157063 
L 118.559482 75.157063 
L 118.945057 71.788557 
L 119.330633 81.894076 
L 119.716208 78.52557 
L 120.101784 81.894076 
L 120.872935 95.368101 
L 121.25851 91.999595 
L 121.644086 91.999595 
L 122.029661 88.631089 
L 122.415236 88.631089 
L 122.800812 91.999595 
L 123.186387 85.262582 
L 124.343114 95.368101 
L 124.728689 105.47362 
L 125.114265 108.842127 
L 125.49984 91.999595 
L 126.270991 98.736608 
L 127.042142 98.736608 
L 127.427718 91.999595 
L 127.813293 91.999595 
L 128.198868 95.368101 
L 128.584444 95.368101 
L 128.970019 88.631089 
L 129.355595 85.262582 
L 130.126746 85.262582 
L 130.512321 88.631089 
L 130.897897 85.262582 
L 131.283472 91.999595 
L 131.669048 88.631089 
L 132.054623 91.999595 
L 132.440199 85.262582 
L 133.21135 91.999595 
L 133.596925 85.262582 
L 133.982501 81.894076 
L 134.368076 81.894076 
L 134.753651 85.262582 
L 135.139227 85.262582 
L 135.524802 88.631089 
L 135.910378 81.894076 
L 136.295953 81.894076 
L 136.681529 88.631089 
L 137.067104 88.631089 
L 137.45268 85.262582 
L 138.609406 85.262582 
L 138.994982 75.157063 
L 139.380557 68.420051 
L 139.766133 58.314532 
L 140.151708 58.314532 
L 140.537284 44.840506 
L 142.079585 44.840506 
L 142.465161 48.209013 
L 142.850736 48.209013 
L 143.236312 51.577519 
L 143.621887 58.314532 
L 144.007463 61.683038 
L 144.393038 51.577519 
L 145.164189 58.314532 
L 145.549765 71.788557 
L 145.93534 71.788557 
L 146.320916 78.52557 
L 146.706491 71.788557 
L 147.092067 81.894076 
L 147.477642 81.894076 
L 147.863217 78.52557 
L 148.634368 78.52557 
L 149.019944 81.894076 
L 152.490123 81.894076 
L 152.875699 78.52557 
L 153.261274 85.262582 
L 153.646849 81.894076 
L 154.032425 88.631089 
L 154.418 81.894076 
L 154.803576 81.894076 
L 155.574727 75.157063 
L 156.345878 75.157063 
L 156.731453 61.683038 
L 157.502604 68.420051 
L 158.273755 68.420051 
L 158.659331 88.631089 
L 159.044906 95.368101 
L 159.430482 98.736608 
L 159.816057 95.368101 
L 160.587208 95.368101 
L 160.972783 98.736608 
L 161.358359 95.368101 
L 161.743934 95.368101 
L 162.12951 91.999595 
L 162.515085 95.368101 
L 162.900661 88.631089 
L 163.286236 88.631089 
L 163.671812 85.262582 
L 164.057387 88.631089 
L 164.442963 88.631089 
L 164.828538 78.52557 
L 165.599689 78.52557 
L 165.985265 75.157063 
L 166.37084 75.157063 
L 166.756415 71.788557 
L 167.141991 71.788557 
L 167.527566 75.157063 
L 168.298717 68.420051 
L 169.069868 68.420051 
L 169.841019 81.894076 
L 170.61217 88.631089 
L 171.383321 102.105114 
L 171.768897 112.210633 
L 172.154472 112.210633 
L 172.540048 118.947646 
L 172.925623 112.210633 
L 173.311198 115.579139 
L 173.696774 112.210633 
L 174.082349 115.579139 
L 174.467925 112.210633 
L 174.8535 112.210633 
L 175.624651 105.47362 
L 176.395802 105.47362 
L 176.781378 102.105114 
L 177.166953 95.368101 
L 177.552529 98.736608 
L 177.938104 98.736608 
L 178.32368 102.105114 
L 178.709255 108.842127 
L 179.09483 105.47362 
L 179.480406 105.47362 
L 179.865981 88.631089 
L 180.251557 98.736608 
L 180.637132 102.105114 
L 181.022708 98.736608 
L 181.408283 88.631089 
L 181.793859 95.368101 
L 182.56501 88.631089 
L 182.950585 98.736608 
L 183.336161 95.368101 
L 184.878463 108.842127 
L 185.649613 108.842127 
L 186.035189 112.210633 
L 186.420764 108.842127 
L 186.80634 108.842127 
L 187.191915 105.47362 
L 187.577491 105.47362 
L 187.963066 102.105114 
L 188.348642 102.105114 
L 188.734217 118.947646 
L 189.119793 115.579139 
L 189.890944 115.579139 
L 190.276519 112.210633 
L 191.04767 112.210633 
L 191.433246 125.684658 
L 191.818821 122.316152 
L 192.204396 112.210633 
L 192.589972 105.47362 
L 192.975547 112.210633 
L 193.361123 105.47362 
L 193.746698 102.105114 
L 194.132274 102.105114 
L 194.517849 108.842127 
L 194.903425 118.947646 
L 195.289 118.947646 
L 195.674576 125.684658 
L 196.060151 118.947646 
L 196.445727 122.316152 
L 196.831302 129.053165 
L 197.216878 132.421671 
L 197.988029 132.421671 
L 198.373604 135.790177 
L 199.144755 135.790177 
L 199.53033 132.421671 
L 199.915906 145.895696 
L 200.687057 145.895696 
L 201.458208 152.632709 
L 201.843783 149.264203 
L 202.229359 149.264203 
L 202.614934 152.632709 
L 203.00051 152.632709 
L 203.386085 149.264203 
L 203.771661 149.264203 
L 204.157236 142.52719 
L 204.542811 149.264203 
L 204.928387 142.52719 
L 205.313962 142.52719 
L 205.699538 145.895696 
L 206.470689 145.895696 
L 206.856264 142.52719 
L 207.24184 142.52719 
L 207.627415 152.632709 
L 208.012991 159.369722 
L 208.398566 156.001215 
L 208.784142 159.369722 
L 209.169717 149.264203 
L 210.326444 149.264203 
L 210.712019 142.52719 
L 211.097594 139.158684 
L 211.48317 142.52719 
L 211.868745 129.053165 
L 212.254321 129.053165 
L 212.639896 132.421671 
L 213.411047 132.421671 
L 213.796623 129.053165 
L 214.182198 135.790177 
L 214.567774 139.158684 
L 215.338925 132.421671 
L 215.7245 135.790177 
L 216.881227 135.790177 
L 217.266802 132.421671 
L 217.652377 132.421671 
L 218.037953 125.684658 
L 218.423528 122.316152 
L 219.194679 129.053165 
L 219.580255 129.053165 
L 219.96583 125.684658 
L 220.351406 129.053165 
L 220.736981 129.053165 
L 222.279283 115.579139 
L 222.664859 115.579139 
L 223.050434 108.842127 
L 224.592736 108.842127 
L 225.363887 122.316152 
L 225.749462 125.684658 
L 226.135038 125.684658 
L 227.67734 112.210633 
L 228.062915 118.947646 
L 228.448491 115.579139 
L 228.834066 122.316152 
L 229.219642 125.684658 
L 230.376368 125.684658 
L 230.761943 129.053165 
L 231.147519 135.790177 
L 231.533094 129.053165 
L 231.91867 129.053165 
L 232.689821 122.316152 
L 233.075396 125.684658 
L 233.460972 122.316152 
L 233.846547 125.684658 
L 234.617698 125.684658 
L 235.388849 132.421671 
L 235.774425 129.053165 
L 236.16 129.053165 
L 236.545575 132.421671 
L 236.931151 132.421671 
L 237.316726 135.790177 
L 237.702302 142.52719 
L 238.859028 142.52719 
L 239.244604 132.421671 
L 239.630179 139.158684 
L 241.558057 139.158684 
L 241.943632 142.52719 
L 242.329208 142.52719 
L 242.714783 139.158684 
L 243.100358 142.52719 
L 245.028236 142.52719 
L 245.413811 135.790177 
L 245.799387 139.158684 
L 246.184962 145.895696 
L 246.956113 145.895696 
L 247.341689 139.158684 
L 248.11284 139.158684 
L 248.498415 132.421671 
L 249.655141 132.421671 
L 250.426292 139.158684 
L 251.583019 139.158684 
L 251.968594 149.264203 
L 252.35417 149.264203 
L 252.739745 145.895696 
L 253.125321 145.895696 
L 253.896472 152.632709 
L 254.667623 145.895696 
L 255.053198 139.158684 
L 256.5955 139.158684 
L 256.981075 142.52719 
L 257.752226 135.790177 
L 258.523377 135.790177 
L 258.908953 142.52719 
L 259.294528 139.158684 
L 259.680104 142.52719 
L 260.065679 139.158684 
L 260.451255 139.158684 
L 260.83683 135.790177 
L 261.222406 135.790177 
L 261.607981 132.421671 
L 261.993556 135.790177 
L 262.379132 142.52719 
L 263.150283 142.52719 
L 263.535858 149.264203 
L 263.921434 152.632709 
L 264.307009 149.264203 
L 264.692585 152.632709 
L 265.07816 162.738228 
L 265.463736 159.369722 
L 265.849311 162.738228 
L 266.234887 169.475241 
L 267.006038 176.212253 
L 267.391613 176.212253 
L 267.777189 169.475241 
L 268.162764 172.843747 
L 268.548339 166.106734 
L 268.933915 166.106734 
L 269.31949 159.369722 
L 269.705066 162.738228 
L 270.090641 162.738228 
L 270.476217 166.106734 
L 270.861792 166.106734 
L 271.247368 169.475241 
L 271.632943 162.738228 
L 272.018519 162.738228 
L 272.404094 166.106734 
L 272.78967 166.106734 
L 273.175245 162.738228 
L 273.946396 169.475241 
L 274.331971 166.106734 
L 274.717547 169.475241 
L 275.103122 169.475241 
L 275.488698 166.106734 
L 275.874273 166.106734 
L 276.259849 169.475241 
L 276.645424 179.580759 
L 277.031 182.949266 
L 277.416575 189.686278 
L 279.344453 189.686278 
L 280.501179 199.791797 
L 281.657905 199.791797 
L 282.043481 203.160304 
L 282.429056 209.897316 
L 282.814632 206.52881 
L 283.971358 206.52881 
L 284.356934 203.160304 
L 285.128085 189.686278 
L 285.899236 189.686278 
L 286.284811 196.423291 
L 286.670387 206.52881 
L 287.055962 199.791797 
L 287.441537 199.791797 
L 287.827113 193.054785 
L 289.369415 193.054785 
L 289.75499 199.791797 
L 290.140566 199.791797 
L 290.526141 196.423291 
L 290.911717 203.160304 
L 291.682868 196.423291 
L 292.068443 199.791797 
L 292.839594 199.791797 
L 293.22517 196.423291 
L 293.610745 196.423291 
L 293.99632 193.054785 
L 294.381896 193.054785 
L 294.767471 186.317772 
L 295.153047 186.317772 
L 295.924198 193.054785 
L 296.309773 193.054785 
L 296.695349 186.317772 
L 297.080924 176.212253 
L 297.4665 176.212253 
L 298.237651 169.475241 
L 298.623226 169.475241 
L 299.394377 162.738228 
L 299.779952 169.475241 
L 300.165528 166.106734 
L 300.936679 172.843747 
L 301.70783 166.106734 
L 302.093405 172.843747 
L 302.478981 169.475241 
L 302.864556 169.475241 
L 303.250132 166.106734 
L 303.635707 169.475241 
L 304.021283 179.580759 
L 304.792434 172.843747 
L 305.178009 176.212253 
L 305.94916 176.212253 
L 306.334735 172.843747 
L 306.720311 182.949266 
L 307.491462 182.949266 
L 307.877037 196.423291 
L 308.262613 193.054785 
L 308.648188 193.054785 
L 309.033764 189.686278 
L 309.419339 196.423291 
L 309.804915 189.686278 
L 310.19049 189.686278 
L 310.961641 182.949266 
L 311.347217 182.949266 
L 311.732792 189.686278 
L 313.275094 189.686278 
L 313.660669 193.054785 
L 314.43182 186.317772 
L 314.817396 186.317772 
L 315.202971 179.580759 
L 315.588547 182.949266 
L 315.974122 182.949266 
L 316.359698 176.212253 
L 318.287575 176.212253 
L 319.058726 169.475241 
L 319.829877 169.475241 
L 320.215452 162.738228 
L 320.601028 166.106734 
L 321.372179 159.369722 
L 321.757754 169.475241 
L 322.14333 172.843747 
L 322.528905 166.106734 
L 323.300056 159.369722 
L 323.685632 162.738228 
L 324.071207 152.632709 
L 324.456783 145.895696 
L 324.842358 145.895696 
L 325.227933 149.264203 
L 325.999084 142.52719 
L 326.38466 145.895696 
L 326.770235 152.632709 
L 327.155811 156.001215 
L 327.541386 156.001215 
L 327.926962 152.632709 
L 328.312537 156.001215 
L 328.698113 149.264203 
L 329.083688 152.632709 
L 329.469264 145.895696 
L 330.240415 152.632709 
L 331.011566 139.158684 
L 331.397141 145.895696 
L 331.782716 145.895696 
L 332.168292 149.264203 
L 332.553867 145.895696 
L 332.939443 132.421671 
L 333.710594 125.684658 
L 334.096169 118.947646 
L 334.481745 118.947646 
L 334.86732 129.053165 
L 335.252896 129.053165 
L 335.638471 132.421671 
L 336.024047 125.684658 
L 336.409622 125.684658 
L 336.795198 129.053165 
L 337.566349 129.053165 
L 337.951924 125.684658 
L 338.337499 129.053165 
L 338.723075 122.316152 
L 339.10865 118.947646 
L 339.494226 118.947646 
L 340.265377 112.210633 
L 341.807679 125.684658 
L 342.193254 118.947646 
L 342.57883 122.316152 
L 342.964405 118.947646 
L 343.349981 118.947646 
L 344.121132 105.47362 
L 344.506707 88.631089 
L 345.277858 81.894076 
L 345.663433 81.894076 
L 346.049009 85.262582 
L 346.434584 91.999595 
L 346.82016 88.631089 
L 347.205735 91.999595 
L 347.976886 91.999595 
L 348.362462 88.631089 
L 348.748037 95.368101 
L 349.519188 88.631089 
L 349.904764 88.631089 
L 351.447065 75.157063 
L 351.832641 75.157063 
L 352.218216 81.894076 
L 352.603792 81.894076 
L 352.989367 85.262582 
L 353.760518 78.52557 
L 354.531669 85.262582 
L 354.917245 81.894076 
L 355.30282 81.894076 
L 355.688396 85.262582 
L 356.073971 85.262582 
L 356.459547 78.52557 
L 356.845122 81.894076 
L 357.230697 81.894076 
L 357.616273 88.631089 
L 358.387424 88.631089 
L 358.772999 85.262582 
L 359.158575 85.262582 
L 359.929726 78.52557 
L 360.315301 78.52557 
L 361.086452 85.262582 
L 361.472028 85.262582 
L 361.857603 88.631089 
L 362.243179 98.736608 
L 363.01433 91.999595 
L 363.399905 85.262582 
L 363.78548 91.999595 
L 364.171056 91.999595 
L 364.942207 98.736608 
L 365.327782 108.842127 
L 365.713358 108.842127 
L 366.098933 115.579139 
L 366.484509 115.579139 
L 366.870084 118.947646 
L 367.25566 118.947646 
L 368.026811 112.210633 
L 368.412386 112.210633 
L 369.569113 102.105114 
L 369.954688 102.105114 
L 370.340263 95.368101 
L 370.725839 98.736608 
L 371.49699 98.736608 
L 371.882565 95.368101 
L 372.653716 108.842127 
L 373.424867 108.842127 
L 373.810443 102.105114 
L 374.196018 102.105114 
L 374.581594 98.736608 
L 374.967169 102.105114 
L 375.352745 91.999595 
L 376.123895 98.736608 
L 376.509471 105.47362 
L 377.666197 105.47362 
L 378.051773 102.105114 
L 378.822924 102.105114 
L 379.208499 108.842127 
L 379.594075 105.47362 
L 379.97965 95.368101 
L 380.365226 98.736608 
L 380.750801 98.736608 
L 381.136377 105.47362 
L 381.907528 112.210633 
L 382.678678 112.210633 
L 383.064254 118.947646 
L 383.449829 122.316152 
L 384.22098 122.316152 
L 384.606556 129.053165 
L 384.992131 129.053165 
L 385.377707 132.421671 
L 385.763282 129.053165 
L 386.148858 135.790177 
L 386.534433 135.790177 
L 386.920009 145.895696 
L 387.69116 152.632709 
L 388.076735 159.369722 
L 388.462311 162.738228 
L 389.233461 162.738228 
L 390.390188 172.843747 
L 390.775763 172.843747 
L 391.161339 176.212253 
L 391.546914 176.212253 
L 391.93249 186.317772 
L 392.318065 186.317772 
L 392.703641 189.686278 
L 393.860367 189.686278 
L 394.245943 186.317772 
L 394.631518 193.054785 
L 395.017094 203.160304 
L 395.402669 206.52881 
L 395.788244 213.265823 
L 396.559395 213.265823 
L 396.944971 209.897316 
L 397.716122 216.634329 
L 398.487273 216.634329 
L 398.487273 216.634329 
" style="fill:none;stroke:#0000ff;stroke-linecap:square;stroke-width:1.5;"/>
   </g>
   <g id="patch_3">
    <path d="M 57.6 307.584 
L 57.6 41.472 
" style="fill:none;stroke:#000000;stroke-linecap:square;stroke-linejoin:miter;stroke-width:0.8;"/>
   </g>
   <g id="patch_4">
    <path d="M 414.72 307.584 
L 414.72 41.472 
" style="fill:none;stroke:#000000;stroke-linecap:square;stroke-linejoin:miter;stroke-width:0.8;"/>
   </g>
   <g id="patch_5">
    <path d="M 57.6 307.584 
L 414.72 307.584 
" style="fill:none;stroke:#000000;stroke-linecap:square;stroke-linejoin:miter;stroke-width:0.8;"/>
   </g>
   <g id="patch_6">
    <path d="M 57.6 41.472 
L 414.72 41.472 
" style="fill:none;stroke:#000000;stroke-linecap:square;stroke-linejoin:miter;stroke-width:0.8;"/>
   </g>
   <g id="text_16">
    <!-- &gt;blaSHV-28_1_HM751101 Beta-lactam resistance: -->
    <defs>
     <path d="M 10.59375 49.21875 
L 10.59375 58.109375 
L 73.1875 35.40625 
L 73.1875 27.296875 
L 10.59375 4.59375 
L 10.59375 13.484375 
L 60.890625 31.296875 
z
" id="DejaVuSans-62"/>
     <path d="M 48.6875 27.296875 
Q 48.6875 37.203125 44.609375 42.84375 
Q 40.53125 48.484375 33.40625 48.484375 
Q 26.265625 48.484375 22.1875 42.84375 
Q 18.109375 37.203125 18.109375 27.296875 
Q 18.109375 17.390625 22.1875 11.75 
Q 26.265625 6.109375 33.40625 6.109375 
Q 40.53125 6.109375 44.609375 11.75 
Q 48.6875 17.390625 48.6875 27.296875 
z
M 18.109375 46.390625 
Q 20.953125 51.265625 25.265625 53.625 
Q 29.59375 56 35.59375 56 
Q 45.5625 56 51.78125 48.09375 
Q 58.015625 40.1875 58.015625 27.296875 
Q 58.015625 14.40625 51.78125 6.484375 
Q 45.5625 -1.421875 35.59375 -1.421875 
Q 29.59375 -1.421875 25.265625 0.953125 
Q 20.953125 3.328125 18.109375 8.203125 
L 18.109375 0 
L 9.078125 0 
L 9.078125 75.984375 
L 18.109375 75.984375 
z
" id="DejaVuSans-98"/>
     <path d="M 9.421875 75.984375 
L 18.40625 75.984375 
L 18.40625 0 
L 9.421875 0 
z
" id="DejaVuSans-108"/>
     <path d="M 34.28125 27.484375 
Q 23.390625 27.484375 19.1875 25 
Q 14.984375 22.515625 14.984375 16.5 
Q 14.984375 11.71875 18.140625 8.90625 
Q 21.296875 6.109375 26.703125 6.109375 
Q 34.1875 6.109375 38.703125 11.40625 
Q 43.21875 16.703125 43.21875 25.484375 
L 43.21875 27.484375 
z
M 52.203125 31.203125 
L 52.203125 0 
L 43.21875 0 
L 43.21875 8.296875 
Q 40.140625 3.328125 35.546875 0.953125 
Q 30.953125 -1.421875 24.3125 -1.421875 
Q 15.921875 -1.421875 10.953125 3.296875 
Q 6 8.015625 6 15.921875 
Q 6 25.140625 12.171875 29.828125 
Q 18.359375 34.515625 30.609375 34.515625 
L 43.21875 34.515625 
L 43.21875 35.40625 
Q 43.21875 41.609375 39.140625 45 
Q 35.0625 48.390625 27.6875 48.390625 
Q 23 48.390625 18.546875 47.265625 
Q 14.109375 46.140625 10.015625 43.890625 
L 10.015625 52.203125 
Q 14.9375 54.109375 19.578125 55.046875 
Q 24.21875 56 28.609375 56 
Q 40.484375 56 46.34375 49.84375 
Q 52.203125 43.703125 52.203125 31.203125 
z
" id="DejaVuSans-97"/>
     <path d="M 53.515625 70.515625 
L 53.515625 60.890625 
Q 47.90625 63.578125 42.921875 64.890625 
Q 37.9375 66.21875 33.296875 66.21875 
Q 25.25 66.21875 20.875 63.09375 
Q 16.5 59.96875 16.5 54.203125 
Q 16.5 49.359375 19.40625 46.890625 
Q 22.3125 44.4375 30.421875 42.921875 
L 36.375 41.703125 
Q 47.40625 39.59375 52.65625 34.296875 
Q 57.90625 29 57.90625 20.125 
Q 57.90625 9.515625 50.796875 4.046875 
Q 43.703125 -1.421875 29.984375 -1.421875 
Q 24.8125 -1.421875 18.96875 -0.25 
Q 13.140625 0.921875 6.890625 3.21875 
L 6.890625 13.375 
Q 12.890625 10.015625 18.65625 8.296875 
Q 24.421875 6.59375 29.984375 6.59375 
Q 38.421875 6.59375 43.015625 9.90625 
Q 47.609375 13.234375 47.609375 19.390625 
Q 47.609375 24.75 44.3125 27.78125 
Q 41.015625 30.8125 33.5 32.328125 
L 27.484375 33.5 
Q 16.453125 35.6875 11.515625 40.375 
Q 6.59375 45.0625 6.59375 53.421875 
Q 6.59375 63.09375 13.40625 68.65625 
Q 20.21875 74.21875 32.171875 74.21875 
Q 37.3125 74.21875 42.625 73.28125 
Q 47.953125 72.359375 53.515625 70.515625 
z
" id="DejaVuSans-83"/>
     <path d="M 9.8125 72.90625 
L 19.671875 72.90625 
L 19.671875 43.015625 
L 55.515625 43.015625 
L 55.515625 72.90625 
L 65.375 72.90625 
L 65.375 0 
L 55.515625 0 
L 55.515625 34.71875 
L 19.671875 34.71875 
L 19.671875 0 
L 9.8125 0 
z
" id="DejaVuSans-72"/>
     <path d="M 28.609375 0 
L 0.78125 72.90625 
L 11.078125 72.90625 
L 34.1875 11.53125 
L 57.328125 72.90625 
L 67.578125 72.90625 
L 39.796875 0 
z
" id="DejaVuSans-86"/>
     <path d="M 4.890625 31.390625 
L 31.203125 31.390625 
L 31.203125 23.390625 
L 4.890625 23.390625 
z
" id="DejaVuSans-45"/>
     <path d="M 50.984375 -16.609375 
L 50.984375 -23.578125 
L -0.984375 -23.578125 
L -0.984375 -16.609375 
z
" id="DejaVuSans-95"/>
     <path d="M 9.8125 72.90625 
L 24.515625 72.90625 
L 43.109375 23.296875 
L 61.8125 72.90625 
L 76.515625 72.90625 
L 76.515625 0 
L 66.890625 0 
L 66.890625 64.015625 
L 48.09375 14.015625 
L 38.1875 14.015625 
L 19.390625 64.015625 
L 19.390625 0 
L 9.8125 0 
z
" id="DejaVuSans-77"/>
     <path d="M 19.671875 34.8125 
L 19.671875 8.109375 
L 35.5 8.109375 
Q 43.453125 8.109375 47.28125 11.40625 
Q 51.125 14.703125 51.125 21.484375 
Q 51.125 28.328125 47.28125 31.5625 
Q 43.453125 34.8125 35.5 34.8125 
z
M 19.671875 64.796875 
L 19.671875 42.828125 
L 34.28125 42.828125 
Q 41.5 42.828125 45.03125 45.53125 
Q 48.578125 48.25 48.578125 53.8125 
Q 48.578125 59.328125 45.03125 62.0625 
Q 41.5 64.796875 34.28125 64.796875 
z
M 9.8125 72.90625 
L 35.015625 72.90625 
Q 46.296875 72.90625 52.390625 68.21875 
Q 58.5 63.53125 58.5 54.890625 
Q 58.5 48.1875 55.375 44.234375 
Q 52.25 40.28125 46.1875 39.3125 
Q 53.46875 37.75 57.5 32.78125 
Q 61.53125 27.828125 61.53125 20.40625 
Q 61.53125 10.640625 54.890625 5.3125 
Q 48.25 0 35.984375 0 
L 9.8125 0 
z
" id="DejaVuSans-66"/>
     <path d="M 48.78125 52.59375 
L 48.78125 44.1875 
Q 44.96875 46.296875 41.140625 47.34375 
Q 37.3125 48.390625 33.40625 48.390625 
Q 24.65625 48.390625 19.8125 42.84375 
Q 14.984375 37.3125 14.984375 27.296875 
Q 14.984375 17.28125 19.8125 11.734375 
Q 24.65625 6.203125 33.40625 6.203125 
Q 37.3125 6.203125 41.140625 7.25 
Q 44.96875 8.296875 48.78125 10.40625 
L 48.78125 2.09375 
Q 45.015625 0.34375 40.984375 -0.53125 
Q 36.96875 -1.421875 32.421875 -1.421875 
Q 20.0625 -1.421875 12.78125 6.34375 
Q 5.515625 14.109375 5.515625 27.296875 
Q 5.515625 40.671875 12.859375 48.328125 
Q 20.21875 56 33.015625 56 
Q 37.15625 56 41.109375 55.140625 
Q 45.0625 54.296875 48.78125 52.59375 
z
" id="DejaVuSans-99"/>
     <path d="M 52 44.1875 
Q 55.375 50.25 60.0625 53.125 
Q 64.75 56 71.09375 56 
Q 79.640625 56 84.28125 50.015625 
Q 88.921875 44.046875 88.921875 33.015625 
L 88.921875 0 
L 79.890625 0 
L 79.890625 32.71875 
Q 79.890625 40.578125 77.09375 44.375 
Q 74.3125 48.1875 68.609375 48.1875 
Q 61.625 48.1875 57.5625 43.546875 
Q 53.515625 38.921875 53.515625 30.90625 
L 53.515625 0 
L 44.484375 0 
L 44.484375 32.71875 
Q 44.484375 40.625 41.703125 44.40625 
Q 38.921875 48.1875 33.109375 48.1875 
Q 26.21875 48.1875 22.15625 43.53125 
Q 18.109375 38.875 18.109375 30.90625 
L 18.109375 0 
L 9.078125 0 
L 9.078125 54.6875 
L 18.109375 54.6875 
L 18.109375 46.1875 
Q 21.1875 51.21875 25.484375 53.609375 
Q 29.78125 56 35.6875 56 
Q 41.65625 56 45.828125 52.96875 
Q 50 49.953125 52 44.1875 
z
" id="DejaVuSans-109"/>
     <path d="M 41.109375 46.296875 
Q 39.59375 47.171875 37.8125 47.578125 
Q 36.03125 48 33.890625 48 
Q 26.265625 48 22.1875 43.046875 
Q 18.109375 38.09375 18.109375 28.8125 
L 18.109375 0 
L 9.078125 0 
L 9.078125 54.6875 
L 18.109375 54.6875 
L 18.109375 46.1875 
Q 20.953125 51.171875 25.484375 53.578125 
Q 30.03125 56 36.53125 56 
Q 37.453125 56 38.578125 55.875 
Q 39.703125 55.765625 41.0625 55.515625 
z
" id="DejaVuSans-114"/>
     <path d="M 11.71875 12.40625 
L 22.015625 12.40625 
L 22.015625 0 
L 11.71875 0 
z
M 11.71875 51.703125 
L 22.015625 51.703125 
L 22.015625 39.3125 
L 11.71875 39.3125 
z
" id="DejaVuSans-58"/>
    </defs>
    <g transform="translate(84.096563 35.472)scale(0.12 -0.12)">
     <use xlink:href="#DejaVuSans-62"/>
     <use x="83.789062" xlink:href="#DejaVuSans-98"/>
     <use x="147.265625" xlink:href="#DejaVuSans-108"/>
     <use x="175.048828" xlink:href="#DejaVuSans-97"/>
     <use x="236.328125" xlink:href="#DejaVuSans-83"/>
     <use x="299.804688" xlink:href="#DejaVuSans-72"/>
     <use x="375" xlink:href="#DejaVuSans-86"/>
     <use x="443.330078" xlink:href="#DejaVuSans-45"/>
     <use x="479.414062" xlink:href="#DejaVuSans-50"/>
     <use x="543.037109" xlink:href="#DejaVuSans-56"/>
     <use x="606.660156" xlink:href="#DejaVuSans-95"/>
     <use x="656.660156" xlink:href="#DejaVuSans-49"/>
     <use x="720.283203" xlink:href="#DejaVuSans-95"/>
     <use x="770.283203" xlink:href="#DejaVuSans-72"/>
     <use x="845.478516" xlink:href="#DejaVuSans-77"/>
     <use x="931.757812" xlink:href="#DejaVuSans-55"/>
     <use x="995.380859" xlink:href="#DejaVuSans-53"/>
     <use x="1059.003906" xlink:href="#DejaVuSans-49"/>
     <use x="1122.626953" xlink:href="#DejaVuSans-49"/>
     <use x="1186.25" xlink:href="#DejaVuSans-48"/>
     <use x="1249.873047" xlink:href="#DejaVuSans-49"/>
     <use x="1313.496094" xlink:href="#DejaVuSans-32"/>
     <use x="1345.283203" xlink:href="#DejaVuSans-66"/>
     <use x="1413.886719" xlink:href="#DejaVuSans-101"/>
     <use x="1475.410156" xlink:href="#DejaVuSans-116"/>
     <use x="1514.619141" xlink:href="#DejaVuSans-97"/>
     <use x="1575.898438" xlink:href="#DejaVuSans-45"/>
     <use x="1611.982422" xlink:href="#DejaVuSans-108"/>
     <use x="1639.765625" xlink:href="#DejaVuSans-97"/>
     <use x="1701.044922" xlink:href="#DejaVuSans-99"/>
     <use x="1756.025391" xlink:href="#DejaVuSans-116"/>
     <use x="1795.234375" xlink:href="#DejaVuSans-97"/>
     <use x="1856.513672" xlink:href="#DejaVuSans-109"/>
     <use x="1953.925781" xlink:href="#DejaVuSans-32"/>
     <use x="1985.712891" xlink:href="#DejaVuSans-114"/>
     <use x="2026.794922" xlink:href="#DejaVuSans-101"/>
     <use x="2088.318359" xlink:href="#DejaVuSans-115"/>
     <use x="2140.417969" xlink:href="#DejaVuSans-105"/>
     <use x="2168.201172" xlink:href="#DejaVuSans-115"/>
     <use x="2220.300781" xlink:href="#DejaVuSans-116"/>
     <use x="2259.509766" xlink:href="#DejaVuSans-97"/>
     <use x="2320.789062" xlink:href="#DejaVuSans-110"/>
     <use x="2384.167969" xlink:href="#DejaVuSans-99"/>
     <use x="2439.148438" xlink:href="#DejaVuSans-101"/>
     <use x="2500.671875" xlink:href="#DejaVuSans-58"/>
    </g>
   </g>
  </g>
 </g>
 <defs>
  <clipPath id="pca81c0a38f">
   <rect height="266.112" width="357.12" x="57.6" y="41.472"/>
  </clipPath>
 </defs>
</svg>
