<?xml version="1.0" encoding="utf-8" standalone="no"?>
<!DOCTYPE svg PUBLIC "-//W3C//DTD SVG 1.1//EN"
  "http://www.w3.org/Graphics/SVG/1.1/DTD/svg11.dtd">
<!-- Created with matplotlib (https://matplotlib.org/) -->
<svg height="345.6pt" version="1.1" viewBox="0 0 460.8 345.6" width="460.8pt" xmlns="http://www.w3.org/2000/svg" xmlns:xlink="http://www.w3.org/1999/xlink">
 <defs>
  <style type="text/css">
*{stroke-linecap:butt;stroke-linejoin:round;}
  </style>
 </defs>
 <g id="figure_1">
  <g id="patch_1">
   <path d="M 0 345.6 
L 460.8 345.6 
L 460.8 0 
L 0 0 
z
" style="fill:#ffffff;"/>
  </g>
  <g id="axes_1">
   <g id="patch_2">
    <path d="M 57.6 307.584 
L 414.72 307.584 
L 414.72 41.472 
L 57.6 41.472 
z
" style="fill:#ffffff;"/>
   </g>
   <g id="matplotlib.axis_1">
    <g id="xtick_1">
     <g id="line2d_1">
      <defs>
       <path d="M 0 0 
L 0 3.5 
" id="m96d3888330" style="stroke:#000000;stroke-width:0.8;"/>
      </defs>
      <g>
       <use style="stroke:#000000;stroke-width:0.8;" x="73.832727" xlink:href="#m96d3888330" y="307.584"/>
      </g>
     </g>
     <g id="text_1">
      <!-- 0 -->
      <defs>
       <path d="M 31.78125 66.40625 
Q 24.171875 66.40625 20.328125 58.90625 
Q 16.5 51.421875 16.5 36.375 
Q 16.5 21.390625 20.328125 13.890625 
Q 24.171875 6.390625 31.78125 6.390625 
Q 39.453125 6.390625 43.28125 13.890625 
Q 47.125 21.390625 47.125 36.375 
Q 47.125 51.421875 43.28125 58.90625 
Q 39.453125 66.40625 31.78125 66.40625 
z
M 31.78125 74.21875 
Q 44.046875 74.21875 50.515625 64.515625 
Q 56.984375 54.828125 56.984375 36.375 
Q 56.984375 17.96875 50.515625 8.265625 
Q 44.046875 -1.421875 31.78125 -1.421875 
Q 19.53125 -1.421875 13.0625 8.265625 
Q 6.59375 17.96875 6.59375 36.375 
Q 6.59375 54.828125 13.0625 64.515625 
Q 19.53125 74.21875 31.78125 74.21875 
z
" id="DejaVuSans-48"/>
      </defs>
      <g transform="translate(70.651477 322.182437)scale(0.1 -0.1)">
       <use xlink:href="#DejaVuSans-48"/>
      </g>
     </g>
    </g>
    <g id="xtick_2">
     <g id="line2d_2">
      <g>
       <use style="stroke:#000000;stroke-width:0.8;" x="114.516254" xlink:href="#m96d3888330" y="307.584"/>
      </g>
     </g>
     <g id="text_2">
      <!-- 100 -->
      <defs>
       <path d="M 12.40625 8.296875 
L 28.515625 8.296875 
L 28.515625 63.921875 
L 10.984375 60.40625 
L 10.984375 69.390625 
L 28.421875 72.90625 
L 38.28125 72.90625 
L 38.28125 8.296875 
L 54.390625 8.296875 
L 54.390625 0 
L 12.40625 0 
z
" id="DejaVuSans-49"/>
      </defs>
      <g transform="translate(104.972504 322.182437)scale(0.1 -0.1)">
       <use xlink:href="#DejaVuSans-49"/>
       <use x="63.623047" xlink:href="#DejaVuSans-48"/>
       <use x="127.246094" xlink:href="#DejaVuSans-48"/>
      </g>
     </g>
    </g>
    <g id="xtick_3">
     <g id="line2d_3">
      <g>
       <use style="stroke:#000000;stroke-width:0.8;" x="155.199781" xlink:href="#m96d3888330" y="307.584"/>
      </g>
     </g>
     <g id="text_3">
      <!-- 200 -->
      <defs>
       <path d="M 19.1875 8.296875 
L 53.609375 8.296875 
L 53.609375 0 
L 7.328125 0 
L 7.328125 8.296875 
Q 12.9375 14.109375 22.625 23.890625 
Q 32.328125 33.6875 34.8125 36.53125 
Q 39.546875 41.84375 41.421875 45.53125 
Q 43.3125 49.21875 43.3125 52.78125 
Q 43.3125 58.59375 39.234375 62.25 
Q 35.15625 65.921875 28.609375 65.921875 
Q 23.96875 65.921875 18.8125 64.3125 
Q 13.671875 62.703125 7.8125 59.421875 
L 7.8125 69.390625 
Q 13.765625 71.78125 18.9375 73 
Q 24.125 74.21875 28.421875 74.21875 
Q 39.75 74.21875 46.484375 68.546875 
Q 53.21875 62.890625 53.21875 53.421875 
Q 53.21875 48.921875 51.53125 44.890625 
Q 49.859375 40.875 45.40625 35.40625 
Q 44.1875 33.984375 37.640625 27.21875 
Q 31.109375 20.453125 19.1875 8.296875 
z
" id="DejaVuSans-50"/>
      </defs>
      <g transform="translate(145.656031 322.182437)scale(0.1 -0.1)">
       <use xlink:href="#DejaVuSans-50"/>
       <use x="63.623047" xlink:href="#DejaVuSans-48"/>
       <use x="127.246094" xlink:href="#DejaVuSans-48"/>
      </g>
     </g>
    </g>
    <g id="xtick_4">
     <g id="line2d_4">
      <g>
       <use style="stroke:#000000;stroke-width:0.8;" x="195.883308" xlink:href="#m96d3888330" y="307.584"/>
      </g>
     </g>
     <g id="text_4">
      <!-- 300 -->
      <defs>
       <path d="M 40.578125 39.3125 
Q 47.65625 37.796875 51.625 33 
Q 55.609375 28.21875 55.609375 21.1875 
Q 55.609375 10.40625 48.1875 4.484375 
Q 40.765625 -1.421875 27.09375 -1.421875 
Q 22.515625 -1.421875 17.65625 -0.515625 
Q 12.796875 0.390625 7.625 2.203125 
L 7.625 11.71875 
Q 11.71875 9.328125 16.59375 8.109375 
Q 21.484375 6.890625 26.8125 6.890625 
Q 36.078125 6.890625 40.9375 10.546875 
Q 45.796875 14.203125 45.796875 21.1875 
Q 45.796875 27.640625 41.28125 31.265625 
Q 36.765625 34.90625 28.71875 34.90625 
L 20.21875 34.90625 
L 20.21875 43.015625 
L 29.109375 43.015625 
Q 36.375 43.015625 40.234375 45.921875 
Q 44.09375 48.828125 44.09375 54.296875 
Q 44.09375 59.90625 40.109375 62.90625 
Q 36.140625 65.921875 28.71875 65.921875 
Q 24.65625 65.921875 20.015625 65.03125 
Q 15.375 64.15625 9.8125 62.3125 
L 9.8125 71.09375 
Q 15.4375 72.65625 20.34375 73.4375 
Q 25.25 74.21875 29.59375 74.21875 
Q 40.828125 74.21875 47.359375 69.109375 
Q 53.90625 64.015625 53.90625 55.328125 
Q 53.90625 49.265625 50.4375 45.09375 
Q 46.96875 40.921875 40.578125 39.3125 
z
" id="DejaVuSans-51"/>
      </defs>
      <g transform="translate(186.339558 322.182437)scale(0.1 -0.1)">
       <use xlink:href="#DejaVuSans-51"/>
       <use x="63.623047" xlink:href="#DejaVuSans-48"/>
       <use x="127.246094" xlink:href="#DejaVuSans-48"/>
      </g>
     </g>
    </g>
    <g id="xtick_5">
     <g id="line2d_5">
      <g>
       <use style="stroke:#000000;stroke-width:0.8;" x="236.566835" xlink:href="#m96d3888330" y="307.584"/>
      </g>
     </g>
     <g id="text_5">
      <!-- 400 -->
      <defs>
       <path d="M 37.796875 64.3125 
L 12.890625 25.390625 
L 37.796875 25.390625 
z
M 35.203125 72.90625 
L 47.609375 72.90625 
L 47.609375 25.390625 
L 58.015625 25.390625 
L 58.015625 17.1875 
L 47.609375 17.1875 
L 47.609375 0 
L 37.796875 0 
L 37.796875 17.1875 
L 4.890625 17.1875 
L 4.890625 26.703125 
z
" id="DejaVuSans-52"/>
      </defs>
      <g transform="translate(227.023085 322.182437)scale(0.1 -0.1)">
       <use xlink:href="#DejaVuSans-52"/>
       <use x="63.623047" xlink:href="#DejaVuSans-48"/>
       <use x="127.246094" xlink:href="#DejaVuSans-48"/>
      </g>
     </g>
    </g>
    <g id="xtick_6">
     <g id="line2d_6">
      <g>
       <use style="stroke:#000000;stroke-width:0.8;" x="277.250362" xlink:href="#m96d3888330" y="307.584"/>
      </g>
     </g>
     <g id="text_6">
      <!-- 500 -->
      <defs>
       <path d="M 10.796875 72.90625 
L 49.515625 72.90625 
L 49.515625 64.59375 
L 19.828125 64.59375 
L 19.828125 46.734375 
Q 21.96875 47.46875 24.109375 47.828125 
Q 26.265625 48.1875 28.421875 48.1875 
Q 40.625 48.1875 47.75 41.5 
Q 54.890625 34.8125 54.890625 23.390625 
Q 54.890625 11.625 47.5625 5.09375 
Q 40.234375 -1.421875 26.90625 -1.421875 
Q 22.3125 -1.421875 17.546875 -0.640625 
Q 12.796875 0.140625 7.71875 1.703125 
L 7.71875 11.625 
Q 12.109375 9.234375 16.796875 8.0625 
Q 21.484375 6.890625 26.703125 6.890625 
Q 35.15625 6.890625 40.078125 11.328125 
Q 45.015625 15.765625 45.015625 23.390625 
Q 45.015625 31 40.078125 35.4375 
Q 35.15625 39.890625 26.703125 39.890625 
Q 22.75 39.890625 18.8125 39.015625 
Q 14.890625 38.140625 10.796875 36.28125 
z
" id="DejaVuSans-53"/>
      </defs>
      <g transform="translate(267.706612 322.182437)scale(0.1 -0.1)">
       <use xlink:href="#DejaVuSans-53"/>
       <use x="63.623047" xlink:href="#DejaVuSans-48"/>
       <use x="127.246094" xlink:href="#DejaVuSans-48"/>
      </g>
     </g>
    </g>
    <g id="xtick_7">
     <g id="line2d_7">
      <g>
       <use style="stroke:#000000;stroke-width:0.8;" x="317.933889" xlink:href="#m96d3888330" y="307.584"/>
      </g>
     </g>
     <g id="text_7">
      <!-- 600 -->
      <defs>
       <path d="M 33.015625 40.375 
Q 26.375 40.375 22.484375 35.828125 
Q 18.609375 31.296875 18.609375 23.390625 
Q 18.609375 15.53125 22.484375 10.953125 
Q 26.375 6.390625 33.015625 6.390625 
Q 39.65625 6.390625 43.53125 10.953125 
Q 47.40625 15.53125 47.40625 23.390625 
Q 47.40625 31.296875 43.53125 35.828125 
Q 39.65625 40.375 33.015625 40.375 
z
M 52.59375 71.296875 
L 52.59375 62.3125 
Q 48.875 64.0625 45.09375 64.984375 
Q 41.3125 65.921875 37.59375 65.921875 
Q 27.828125 65.921875 22.671875 59.328125 
Q 17.53125 52.734375 16.796875 39.40625 
Q 19.671875 43.65625 24.015625 45.921875 
Q 28.375 48.1875 33.59375 48.1875 
Q 44.578125 48.1875 50.953125 41.515625 
Q 57.328125 34.859375 57.328125 23.390625 
Q 57.328125 12.15625 50.6875 5.359375 
Q 44.046875 -1.421875 33.015625 -1.421875 
Q 20.359375 -1.421875 13.671875 8.265625 
Q 6.984375 17.96875 6.984375 36.375 
Q 6.984375 53.65625 15.1875 63.9375 
Q 23.390625 74.21875 37.203125 74.21875 
Q 40.921875 74.21875 44.703125 73.484375 
Q 48.484375 72.75 52.59375 71.296875 
z
" id="DejaVuSans-54"/>
      </defs>
      <g transform="translate(308.390139 322.182437)scale(0.1 -0.1)">
       <use xlink:href="#DejaVuSans-54"/>
       <use x="63.623047" xlink:href="#DejaVuSans-48"/>
       <use x="127.246094" xlink:href="#DejaVuSans-48"/>
      </g>
     </g>
    </g>
    <g id="xtick_8">
     <g id="line2d_8">
      <g>
       <use style="stroke:#000000;stroke-width:0.8;" x="358.617416" xlink:href="#m96d3888330" y="307.584"/>
      </g>
     </g>
     <g id="text_8">
      <!-- 700 -->
      <defs>
       <path d="M 8.203125 72.90625 
L 55.078125 72.90625 
L 55.078125 68.703125 
L 28.609375 0 
L 18.3125 0 
L 43.21875 64.59375 
L 8.203125 64.59375 
z
" id="DejaVuSans-55"/>
      </defs>
      <g transform="translate(349.073666 322.182437)scale(0.1 -0.1)">
       <use xlink:href="#DejaVuSans-55"/>
       <use x="63.623047" xlink:href="#DejaVuSans-48"/>
       <use x="127.246094" xlink:href="#DejaVuSans-48"/>
      </g>
     </g>
    </g>
    <g id="xtick_9">
     <g id="line2d_9">
      <g>
       <use style="stroke:#000000;stroke-width:0.8;" x="399.300943" xlink:href="#m96d3888330" y="307.584"/>
      </g>
     </g>
     <g id="text_9">
      <!-- 800 -->
      <defs>
       <path d="M 31.78125 34.625 
Q 24.75 34.625 20.71875 30.859375 
Q 16.703125 27.09375 16.703125 20.515625 
Q 16.703125 13.921875 20.71875 10.15625 
Q 24.75 6.390625 31.78125 6.390625 
Q 38.8125 6.390625 42.859375 10.171875 
Q 46.921875 13.96875 46.921875 20.515625 
Q 46.921875 27.09375 42.890625 30.859375 
Q 38.875 34.625 31.78125 34.625 
z
M 21.921875 38.8125 
Q 15.578125 40.375 12.03125 44.71875 
Q 8.5 49.078125 8.5 55.328125 
Q 8.5 64.0625 14.71875 69.140625 
Q 20.953125 74.21875 31.78125 74.21875 
Q 42.671875 74.21875 48.875 69.140625 
Q 55.078125 64.0625 55.078125 55.328125 
Q 55.078125 49.078125 51.53125 44.71875 
Q 48 40.375 41.703125 38.8125 
Q 48.828125 37.15625 52.796875 32.3125 
Q 56.78125 27.484375 56.78125 20.515625 
Q 56.78125 9.90625 50.3125 4.234375 
Q 43.84375 -1.421875 31.78125 -1.421875 
Q 19.734375 -1.421875 13.25 4.234375 
Q 6.78125 9.90625 6.78125 20.515625 
Q 6.78125 27.484375 10.78125 32.3125 
Q 14.796875 37.15625 21.921875 38.8125 
z
M 18.3125 54.390625 
Q 18.3125 48.734375 21.84375 45.5625 
Q 25.390625 42.390625 31.78125 42.390625 
Q 38.140625 42.390625 41.71875 45.5625 
Q 45.3125 48.734375 45.3125 54.390625 
Q 45.3125 60.0625 41.71875 63.234375 
Q 38.140625 66.40625 31.78125 66.40625 
Q 25.390625 66.40625 21.84375 63.234375 
Q 18.3125 60.0625 18.3125 54.390625 
z
" id="DejaVuSans-56"/>
      </defs>
      <g transform="translate(389.757193 322.182437)scale(0.1 -0.1)">
       <use xlink:href="#DejaVuSans-56"/>
       <use x="63.623047" xlink:href="#DejaVuSans-48"/>
       <use x="127.246094" xlink:href="#DejaVuSans-48"/>
      </g>
     </g>
    </g>
    <g id="text_10">
     <!-- gene position -->
     <defs>
      <path d="M 45.40625 27.984375 
Q 45.40625 37.75 41.375 43.109375 
Q 37.359375 48.484375 30.078125 48.484375 
Q 22.859375 48.484375 18.828125 43.109375 
Q 14.796875 37.75 14.796875 27.984375 
Q 14.796875 18.265625 18.828125 12.890625 
Q 22.859375 7.515625 30.078125 7.515625 
Q 37.359375 7.515625 41.375 12.890625 
Q 45.40625 18.265625 45.40625 27.984375 
z
M 54.390625 6.78125 
Q 54.390625 -7.171875 48.1875 -13.984375 
Q 42 -20.796875 29.203125 -20.796875 
Q 24.46875 -20.796875 20.265625 -20.09375 
Q 16.0625 -19.390625 12.109375 -17.921875 
L 12.109375 -9.1875 
Q 16.0625 -11.328125 19.921875 -12.34375 
Q 23.78125 -13.375 27.78125 -13.375 
Q 36.625 -13.375 41.015625 -8.765625 
Q 45.40625 -4.15625 45.40625 5.171875 
L 45.40625 9.625 
Q 42.625 4.78125 38.28125 2.390625 
Q 33.9375 0 27.875 0 
Q 17.828125 0 11.671875 7.65625 
Q 5.515625 15.328125 5.515625 27.984375 
Q 5.515625 40.671875 11.671875 48.328125 
Q 17.828125 56 27.875 56 
Q 33.9375 56 38.28125 53.609375 
Q 42.625 51.21875 45.40625 46.390625 
L 45.40625 54.6875 
L 54.390625 54.6875 
z
" id="DejaVuSans-103"/>
      <path d="M 56.203125 29.59375 
L 56.203125 25.203125 
L 14.890625 25.203125 
Q 15.484375 15.921875 20.484375 11.0625 
Q 25.484375 6.203125 34.421875 6.203125 
Q 39.59375 6.203125 44.453125 7.46875 
Q 49.3125 8.734375 54.109375 11.28125 
L 54.109375 2.78125 
Q 49.265625 0.734375 44.1875 -0.34375 
Q 39.109375 -1.421875 33.890625 -1.421875 
Q 20.796875 -1.421875 13.15625 6.1875 
Q 5.515625 13.8125 5.515625 26.8125 
Q 5.515625 40.234375 12.765625 48.109375 
Q 20.015625 56 32.328125 56 
Q 43.359375 56 49.78125 48.890625 
Q 56.203125 41.796875 56.203125 29.59375 
z
M 47.21875 32.234375 
Q 47.125 39.59375 43.09375 43.984375 
Q 39.0625 48.390625 32.421875 48.390625 
Q 24.90625 48.390625 20.390625 44.140625 
Q 15.875 39.890625 15.1875 32.171875 
z
" id="DejaVuSans-101"/>
      <path d="M 54.890625 33.015625 
L 54.890625 0 
L 45.90625 0 
L 45.90625 32.71875 
Q 45.90625 40.484375 42.875 44.328125 
Q 39.84375 48.1875 33.796875 48.1875 
Q 26.515625 48.1875 22.3125 43.546875 
Q 18.109375 38.921875 18.109375 30.90625 
L 18.109375 0 
L 9.078125 0 
L 9.078125 54.6875 
L 18.109375 54.6875 
L 18.109375 46.1875 
Q 21.34375 51.125 25.703125 53.5625 
Q 30.078125 56 35.796875 56 
Q 45.21875 56 50.046875 50.171875 
Q 54.890625 44.34375 54.890625 33.015625 
z
" id="DejaVuSans-110"/>
      <path id="DejaVuSans-32"/>
      <path d="M 18.109375 8.203125 
L 18.109375 -20.796875 
L 9.078125 -20.796875 
L 9.078125 54.6875 
L 18.109375 54.6875 
L 18.109375 46.390625 
Q 20.953125 51.265625 25.265625 53.625 
Q 29.59375 56 35.59375 56 
Q 45.5625 56 51.78125 48.09375 
Q 58.015625 40.1875 58.015625 27.296875 
Q 58.015625 14.40625 51.78125 6.484375 
Q 45.5625 -1.421875 35.59375 -1.421875 
Q 29.59375 -1.421875 25.265625 0.953125 
Q 20.953125 3.328125 18.109375 8.203125 
z
M 48.6875 27.296875 
Q 48.6875 37.203125 44.609375 42.84375 
Q 40.53125 48.484375 33.40625 48.484375 
Q 26.265625 48.484375 22.1875 42.84375 
Q 18.109375 37.203125 18.109375 27.296875 
Q 18.109375 17.390625 22.1875 11.75 
Q 26.265625 6.109375 33.40625 6.109375 
Q 40.53125 6.109375 44.609375 11.75 
Q 48.6875 17.390625 48.6875 27.296875 
z
" id="DejaVuSans-112"/>
      <path d="M 30.609375 48.390625 
Q 23.390625 48.390625 19.1875 42.75 
Q 14.984375 37.109375 14.984375 27.296875 
Q 14.984375 17.484375 19.15625 11.84375 
Q 23.34375 6.203125 30.609375 6.203125 
Q 37.796875 6.203125 41.984375 11.859375 
Q 46.1875 17.53125 46.1875 27.296875 
Q 46.1875 37.015625 41.984375 42.703125 
Q 37.796875 48.390625 30.609375 48.390625 
z
M 30.609375 56 
Q 42.328125 56 49.015625 48.375 
Q 55.71875 40.765625 55.71875 27.296875 
Q 55.71875 13.875 49.015625 6.21875 
Q 42.328125 -1.421875 30.609375 -1.421875 
Q 18.84375 -1.421875 12.171875 6.21875 
Q 5.515625 13.875 5.515625 27.296875 
Q 5.515625 40.765625 12.171875 48.375 
Q 18.84375 56 30.609375 56 
z
" id="DejaVuSans-111"/>
      <path d="M 44.28125 53.078125 
L 44.28125 44.578125 
Q 40.484375 46.53125 36.375 47.5 
Q 32.28125 48.484375 27.875 48.484375 
Q 21.1875 48.484375 17.84375 46.4375 
Q 14.5 44.390625 14.5 40.28125 
Q 14.5 37.15625 16.890625 35.375 
Q 19.28125 33.59375 26.515625 31.984375 
L 29.59375 31.296875 
Q 39.15625 29.25 43.1875 25.515625 
Q 47.21875 21.78125 47.21875 15.09375 
Q 47.21875 7.46875 41.1875 3.015625 
Q 35.15625 -1.421875 24.609375 -1.421875 
Q 20.21875 -1.421875 15.453125 -0.5625 
Q 10.6875 0.296875 5.421875 2 
L 5.421875 11.28125 
Q 10.40625 8.6875 15.234375 7.390625 
Q 20.0625 6.109375 24.8125 6.109375 
Q 31.15625 6.109375 34.5625 8.28125 
Q 37.984375 10.453125 37.984375 14.40625 
Q 37.984375 18.0625 35.515625 20.015625 
Q 33.0625 21.96875 24.703125 23.78125 
L 21.578125 24.515625 
Q 13.234375 26.265625 9.515625 29.90625 
Q 5.8125 33.546875 5.8125 39.890625 
Q 5.8125 47.609375 11.28125 51.796875 
Q 16.75 56 26.8125 56 
Q 31.78125 56 36.171875 55.265625 
Q 40.578125 54.546875 44.28125 53.078125 
z
" id="DejaVuSans-115"/>
      <path d="M 9.421875 54.6875 
L 18.40625 54.6875 
L 18.40625 0 
L 9.421875 0 
z
M 9.421875 75.984375 
L 18.40625 75.984375 
L 18.40625 64.59375 
L 9.421875 64.59375 
z
" id="DejaVuSans-105"/>
      <path d="M 18.3125 70.21875 
L 18.3125 54.6875 
L 36.8125 54.6875 
L 36.8125 47.703125 
L 18.3125 47.703125 
L 18.3125 18.015625 
Q 18.3125 11.328125 20.140625 9.421875 
Q 21.96875 7.515625 27.59375 7.515625 
L 36.8125 7.515625 
L 36.8125 0 
L 27.59375 0 
Q 17.1875 0 13.234375 3.875 
Q 9.28125 7.765625 9.28125 18.015625 
L 9.28125 47.703125 
L 2.6875 47.703125 
L 2.6875 54.6875 
L 9.28125 54.6875 
L 9.28125 70.21875 
z
" id="DejaVuSans-116"/>
     </defs>
     <g transform="translate(202.270156 335.860562)scale(0.1 -0.1)">
      <use xlink:href="#DejaVuSans-103"/>
      <use x="63.476562" xlink:href="#DejaVuSans-101"/>
      <use x="125" xlink:href="#DejaVuSans-110"/>
      <use x="188.378906" xlink:href="#DejaVuSans-101"/>
      <use x="249.902344" xlink:href="#DejaVuSans-32"/>
      <use x="281.689453" xlink:href="#DejaVuSans-112"/>
      <use x="345.166016" xlink:href="#DejaVuSans-111"/>
      <use x="406.347656" xlink:href="#DejaVuSans-115"/>
      <use x="458.447266" xlink:href="#DejaVuSans-105"/>
      <use x="486.230469" xlink:href="#DejaVuSans-116"/>
      <use x="525.439453" xlink:href="#DejaVuSans-105"/>
      <use x="553.222656" xlink:href="#DejaVuSans-111"/>
      <use x="614.404297" xlink:href="#DejaVuSans-110"/>
     </g>
    </g>
   </g>
   <g id="matplotlib.axis_2">
    <g id="ytick_1">
     <g id="line2d_10">
      <defs>
       <path d="M 0 0 
L -3.5 0 
" id="m854edf8e25" style="stroke:#000000;stroke-width:0.8;"/>
      </defs>
      <g>
       <use style="stroke:#000000;stroke-width:0.8;" x="57.6" xlink:href="#m854edf8e25" y="307.584"/>
      </g>
     </g>
     <g id="text_11">
      <!-- 0 -->
      <g transform="translate(44.2375 311.383219)scale(0.1 -0.1)">
       <use xlink:href="#DejaVuSans-48"/>
      </g>
     </g>
    </g>
    <g id="ytick_2">
     <g id="line2d_11">
      <g>
       <use style="stroke:#000000;stroke-width:0.8;" x="57.6" xlink:href="#m854edf8e25" y="256.408615"/>
      </g>
     </g>
     <g id="text_12">
      <!-- 10 -->
      <g transform="translate(37.875 260.207834)scale(0.1 -0.1)">
       <use xlink:href="#DejaVuSans-49"/>
       <use x="63.623047" xlink:href="#DejaVuSans-48"/>
      </g>
     </g>
    </g>
    <g id="ytick_3">
     <g id="line2d_12">
      <g>
       <use style="stroke:#000000;stroke-width:0.8;" x="57.6" xlink:href="#m854edf8e25" y="205.233231"/>
      </g>
     </g>
     <g id="text_13">
      <!-- 20 -->
      <g transform="translate(37.875 209.03245)scale(0.1 -0.1)">
       <use xlink:href="#DejaVuSans-50"/>
       <use x="63.623047" xlink:href="#DejaVuSans-48"/>
      </g>
     </g>
    </g>
    <g id="ytick_4">
     <g id="line2d_13">
      <g>
       <use style="stroke:#000000;stroke-width:0.8;" x="57.6" xlink:href="#m854edf8e25" y="154.057846"/>
      </g>
     </g>
     <g id="text_14">
      <!-- 30 -->
      <g transform="translate(37.875 157.857065)scale(0.1 -0.1)">
       <use xlink:href="#DejaVuSans-51"/>
       <use x="63.623047" xlink:href="#DejaVuSans-48"/>
      </g>
     </g>
    </g>
    <g id="ytick_5">
     <g id="line2d_14">
      <g>
       <use style="stroke:#000000;stroke-width:0.8;" x="57.6" xlink:href="#m854edf8e25" y="102.882462"/>
      </g>
     </g>
     <g id="text_15">
      <!-- 40 -->
      <g transform="translate(37.875 106.68168)scale(0.1 -0.1)">
       <use xlink:href="#DejaVuSans-52"/>
       <use x="63.623047" xlink:href="#DejaVuSans-48"/>
      </g>
     </g>
    </g>
    <g id="ytick_6">
     <g id="line2d_15">
      <g>
       <use style="stroke:#000000;stroke-width:0.8;" x="57.6" xlink:href="#m854edf8e25" y="51.707077"/>
      </g>
     </g>
     <g id="text_16">
      <!-- 50 -->
      <g transform="translate(37.875 55.506296)scale(0.1 -0.1)">
       <use xlink:href="#DejaVuSans-53"/>
       <use x="63.623047" xlink:href="#DejaVuSans-48"/>
      </g>
     </g>
    </g>
    <g id="text_17">
     <!-- depth -->
     <defs>
      <path d="M 45.40625 46.390625 
L 45.40625 75.984375 
L 54.390625 75.984375 
L 54.390625 0 
L 45.40625 0 
L 45.40625 8.203125 
Q 42.578125 3.328125 38.25 0.953125 
Q 33.9375 -1.421875 27.875 -1.421875 
Q 17.96875 -1.421875 11.734375 6.484375 
Q 5.515625 14.40625 5.515625 27.296875 
Q 5.515625 40.1875 11.734375 48.09375 
Q 17.96875 56 27.875 56 
Q 33.9375 56 38.25 53.625 
Q 42.578125 51.265625 45.40625 46.390625 
z
M 14.796875 27.296875 
Q 14.796875 17.390625 18.875 11.75 
Q 22.953125 6.109375 30.078125 6.109375 
Q 37.203125 6.109375 41.296875 11.75 
Q 45.40625 17.390625 45.40625 27.296875 
Q 45.40625 37.203125 41.296875 42.84375 
Q 37.203125 48.484375 30.078125 48.484375 
Q 22.953125 48.484375 18.875 42.84375 
Q 14.796875 37.203125 14.796875 27.296875 
z
" id="DejaVuSans-100"/>
      <path d="M 54.890625 33.015625 
L 54.890625 0 
L 45.90625 0 
L 45.90625 32.71875 
Q 45.90625 40.484375 42.875 44.328125 
Q 39.84375 48.1875 33.796875 48.1875 
Q 26.515625 48.1875 22.3125 43.546875 
Q 18.109375 38.921875 18.109375 30.90625 
L 18.109375 0 
L 9.078125 0 
L 9.078125 75.984375 
L 18.109375 75.984375 
L 18.109375 46.1875 
Q 21.34375 51.125 25.703125 53.5625 
Q 30.078125 56 35.796875 56 
Q 45.21875 56 50.046875 50.171875 
Q 54.890625 44.34375 54.890625 33.015625 
z
" id="DejaVuSans-104"/>
     </defs>
     <g transform="translate(31.795312 189.081906)rotate(-90)scale(0.1 -0.1)">
      <use xlink:href="#DejaVuSans-100"/>
      <use x="63.476562" xlink:href="#DejaVuSans-101"/>
      <use x="125" xlink:href="#DejaVuSans-112"/>
      <use x="188.476562" xlink:href="#DejaVuSans-116"/>
      <use x="227.685547" xlink:href="#DejaVuSans-104"/>
     </g>
    </g>
   </g>
   <g id="line2d_16">
    <path clip-path="url(#p05baa34632)" d="M 73.832727 205.233231 
L 75.054764 189.880615 
L 75.46211 189.880615 
L 75.869456 179.645538 
L 76.276802 179.645538 
L 76.684147 174.528 
L 77.091493 174.528 
L 77.498839 159.175385 
L 78.31353 148.940308 
L 78.720876 148.940308 
L 79.128222 138.705231 
L 79.535567 138.705231 
L 80.350259 128.470154 
L 80.757605 128.470154 
L 81.16495 123.352615 
L 84.01637 123.352615 
L 84.423716 118.235077 
L 85.238408 118.235077 
L 85.645753 123.352615 
L 86.460445 113.117538 
L 86.867791 113.117538 
L 87.275136 102.882462 
L 87.682482 97.764923 
L 88.904519 97.764923 
L 89.311865 92.647385 
L 89.719211 92.647385 
L 90.126556 87.529846 
L 90.533902 97.764923 
L 90.941248 92.647385 
L 91.348594 92.647385 
L 92.163285 102.882462 
L 92.570631 102.882462 
L 92.977977 108 
L 93.385322 102.882462 
L 93.792668 102.882462 
L 94.200014 118.235077 
L 94.607359 108 
L 95.014705 113.117538 
L 95.829397 113.117538 
L 96.236742 108 
L 96.644088 108 
L 97.051434 97.764923 
L 97.45878 92.647385 
L 98.273471 72.177231 
L 98.680817 67.059692 
L 99.088162 56.824615 
L 99.495508 51.707077 
L 100.3102 51.707077 
L 100.717545 46.589538 
L 101.124891 46.589538 
L 101.532237 51.707077 
L 102.346928 41.472 
L 102.754274 41.472 
L 103.16162 51.707077 
L 104.791003 51.707077 
L 105.198348 56.824615 
L 105.605694 41.472 
L 106.01304 51.707077 
L 106.420386 56.824615 
L 107.235077 46.589538 
L 107.642423 51.707077 
L 108.049768 51.707077 
L 108.86446 61.942154 
L 110.086497 61.942154 
L 110.493843 67.059692 
L 110.901189 67.059692 
L 111.308534 82.412308 
L 112.123226 92.647385 
L 112.530571 87.529846 
L 112.937917 92.647385 
L 113.345263 92.647385 
L 113.752609 97.764923 
L 114.159954 97.764923 
L 114.5673 87.529846 
L 114.974646 87.529846 
L 115.381992 82.412308 
L 115.789337 82.412308 
L 116.196683 72.177231 
L 117.011374 72.177231 
L 117.41872 67.059692 
L 117.826066 56.824615 
L 118.233412 56.824615 
L 118.640757 46.589538 
L 119.455449 46.589538 
L 120.27014 56.824615 
L 120.677486 67.059692 
L 121.084832 72.177231 
L 121.492177 72.177231 
L 121.899523 82.412308 
L 122.306869 87.529846 
L 122.714215 97.764923 
L 123.12156 102.882462 
L 124.343598 102.882462 
L 124.750943 108 
L 125.565635 108 
L 126.787672 92.647385 
L 127.195018 97.764923 
L 128.824401 97.764923 
L 129.231746 92.647385 
L 129.639092 77.294769 
L 130.046438 87.529846 
L 130.453784 92.647385 
L 130.861129 108 
L 132.490512 128.470154 
L 132.897858 138.705231 
L 134.119895 138.705231 
L 134.527241 143.822769 
L 134.934587 143.822769 
L 135.341932 138.705231 
L 136.156624 148.940308 
L 136.563969 143.822769 
L 136.971315 143.822769 
L 137.378661 148.940308 
L 137.786007 143.822769 
L 138.600698 143.822769 
L 139.008044 138.705231 
L 139.822735 148.940308 
L 140.637427 148.940308 
L 141.044772 159.175385 
L 141.452118 154.057846 
L 141.859464 159.175385 
L 142.674155 159.175385 
L 143.081501 154.057846 
L 143.896193 164.292923 
L 145.932921 164.292923 
L 146.340267 169.410462 
L 146.747613 159.175385 
L 147.562304 159.175385 
L 147.96965 154.057846 
L 148.376996 169.410462 
L 148.784341 169.410462 
L 149.191687 174.528 
L 149.599033 169.410462 
L 150.006378 174.528 
L 150.413724 174.528 
L 150.82107 169.410462 
L 151.635761 179.645538 
L 152.043107 174.528 
L 153.265144 174.528 
L 153.67249 169.410462 
L 154.079836 169.410462 
L 154.487181 164.292923 
L 155.301873 164.292923 
L 155.709219 169.410462 
L 156.116564 169.410462 
L 156.52391 164.292923 
L 157.745947 164.292923 
L 158.153293 169.410462 
L 158.560639 169.410462 
L 158.967984 164.292923 
L 159.37533 164.292923 
L 160.190022 174.528 
L 161.412059 174.528 
L 161.819405 169.410462 
L 162.22675 174.528 
L 162.634096 169.410462 
L 163.448787 169.410462 
L 163.856133 164.292923 
L 164.263479 164.292923 
L 164.670825 159.175385 
L 165.07817 164.292923 
L 166.300208 164.292923 
L 167.114899 174.528 
L 167.522245 169.410462 
L 168.744282 169.410462 
L 169.151628 164.292923 
L 169.966319 164.292923 
L 170.373665 169.410462 
L 173.632431 169.410462 
L 174.039776 164.292923 
L 174.447122 164.292923 
L 174.854468 159.175385 
L 175.261814 159.175385 
L 175.669159 148.940308 
L 176.076505 154.057846 
L 177.705888 154.057846 
L 178.520579 164.292923 
L 178.927925 154.057846 
L 180.149962 154.057846 
L 180.557308 159.175385 
L 180.964654 159.175385 
L 181.779345 148.940308 
L 182.186691 148.940308 
L 183.408728 133.587692 
L 183.816074 133.587692 
L 184.22342 128.470154 
L 184.630765 133.587692 
L 185.038111 118.235077 
L 185.852803 118.235077 
L 186.260148 123.352615 
L 186.667494 123.352615 
L 187.07484 113.117538 
L 187.482185 123.352615 
L 187.889531 118.235077 
L 188.296877 123.352615 
L 188.704223 123.352615 
L 189.111568 128.470154 
L 189.92626 128.470154 
L 190.333606 133.587692 
L 190.740951 133.587692 
L 191.962988 118.235077 
L 192.370334 108 
L 192.77768 102.882462 
L 194.814409 102.882462 
L 195.221754 97.764923 
L 195.6291 102.882462 
L 196.036446 102.882462 
L 196.443791 108 
L 197.258483 97.764923 
L 197.665829 97.764923 
L 198.073174 92.647385 
L 198.48052 97.764923 
L 200.924595 97.764923 
L 201.33194 102.882462 
L 201.739286 97.764923 
L 202.146632 97.764923 
L 202.553977 92.647385 
L 203.368669 102.882462 
L 206.220089 102.882462 
L 206.627435 108 
L 207.03478 108 
L 207.442126 102.882462 
L 207.849472 102.882462 
L 209.071509 118.235077 
L 209.478855 128.470154 
L 209.886201 128.470154 
L 210.293546 118.235077 
L 210.700892 123.352615 
L 211.108238 118.235077 
L 211.922929 118.235077 
L 212.330275 108 
L 213.144966 108 
L 213.959658 118.235077 
L 214.367004 118.235077 
L 215.181695 108 
L 215.996386 108 
L 217.218424 123.352615 
L 217.625769 118.235077 
L 219.662498 118.235077 
L 220.477189 108 
L 220.884535 118.235077 
L 221.699227 118.235077 
L 222.106572 113.117538 
L 222.513918 113.117538 
L 222.921264 118.235077 
L 224.957992 118.235077 
L 225.772684 128.470154 
L 226.587375 148.940308 
L 226.994721 148.940308 
L 227.402067 159.175385 
L 227.809413 159.175385 
L 228.216758 164.292923 
L 229.03145 164.292923 
L 229.438795 159.175385 
L 229.846141 159.175385 
L 230.253487 154.057846 
L 230.660833 154.057846 
L 231.068178 159.175385 
L 231.475524 154.057846 
L 232.697561 154.057846 
L 233.104907 159.175385 
L 233.512253 154.057846 
L 233.919598 159.175385 
L 235.548981 159.175385 
L 235.956327 154.057846 
L 236.363673 159.175385 
L 237.58571 159.175385 
L 237.993056 164.292923 
L 239.215093 164.292923 
L 239.622439 174.528 
L 240.43713 174.528 
L 240.844476 169.410462 
L 241.251822 169.410462 
L 242.066513 159.175385 
L 242.473859 164.292923 
L 242.881205 159.175385 
L 243.28855 159.175385 
L 243.695896 154.057846 
L 244.103242 159.175385 
L 244.510587 159.175385 
L 244.917933 174.528 
L 245.325279 179.645538 
L 246.547316 179.645538 
L 246.954662 184.763077 
L 247.769353 184.763077 
L 248.176699 179.645538 
L 248.99139 189.880615 
L 249.398736 189.880615 
L 250.213428 179.645538 
L 250.620773 179.645538 
L 251.028119 174.528 
L 251.435465 179.645538 
L 252.250156 179.645538 
L 252.657502 194.998154 
L 253.064848 189.880615 
L 253.472193 189.880615 
L 253.879539 194.998154 
L 254.286885 189.880615 
L 254.694231 194.998154 
L 255.101576 194.998154 
L 255.508922 200.115692 
L 256.730959 200.115692 
L 257.138305 194.998154 
L 258.767688 194.998154 
L 259.175034 179.645538 
L 259.989725 179.645538 
L 260.397071 174.528 
L 261.211762 174.528 
L 261.619108 169.410462 
L 262.026454 169.410462 
L 262.433799 164.292923 
L 263.248491 164.292923 
L 263.655837 159.175385 
L 264.063182 169.410462 
L 264.877874 169.410462 
L 265.28522 179.645538 
L 265.692565 174.528 
L 266.099911 184.763077 
L 266.914602 174.528 
L 267.729294 174.528 
L 268.13664 169.410462 
L 268.543985 169.410462 
L 268.951331 159.175385 
L 269.358677 159.175385 
L 269.766023 164.292923 
L 270.173368 159.175385 
L 270.98806 159.175385 
L 271.395405 154.057846 
L 271.802751 159.175385 
L 272.617443 159.175385 
L 273.024788 154.057846 
L 273.432134 154.057846 
L 273.83948 148.940308 
L 274.246826 154.057846 
L 274.654171 143.822769 
L 275.061517 143.822769 
L 275.468863 154.057846 
L 275.876209 159.175385 
L 277.098246 159.175385 
L 277.505591 154.057846 
L 277.912937 159.175385 
L 278.320283 148.940308 
L 278.727629 154.057846 
L 279.134974 154.057846 
L 279.949666 143.822769 
L 280.357012 148.940308 
L 282.801086 148.940308 
L 283.208432 143.822769 
L 283.615777 143.822769 
L 284.023123 154.057846 
L 284.430469 154.057846 
L 284.837815 159.175385 
L 285.24516 159.175385 
L 285.652506 154.057846 
L 286.059852 143.822769 
L 287.689235 143.822769 
L 288.09658 148.940308 
L 288.911272 148.940308 
L 289.318618 143.822769 
L 292.170038 143.822769 
L 292.577383 138.705231 
L 292.984729 159.175385 
L 293.392075 164.292923 
L 293.799421 154.057846 
L 294.206766 148.940308 
L 295.021458 148.940308 
L 296.243495 164.292923 
L 297.058186 164.292923 
L 297.465532 169.410462 
L 297.872878 164.292923 
L 298.687569 164.292923 
L 299.094915 169.410462 
L 299.909606 169.410462 
L 300.316952 164.292923 
L 300.724298 164.292923 
L 301.131644 169.410462 
L 301.538989 159.175385 
L 301.946335 164.292923 
L 302.353681 164.292923 
L 302.761027 174.528 
L 303.575718 174.528 
L 303.983064 159.175385 
L 304.390409 159.175385 
L 304.797755 154.057846 
L 305.205101 159.175385 
L 305.612447 159.175385 
L 306.019792 164.292923 
L 307.24183 164.292923 
L 307.649175 174.528 
L 308.056521 174.528 
L 308.463867 184.763077 
L 308.871213 189.880615 
L 309.685904 189.880615 
L 310.907941 174.528 
L 311.722633 174.528 
L 312.129978 184.763077 
L 312.537324 184.763077 
L 312.94467 179.645538 
L 313.352016 184.763077 
L 313.759361 184.763077 
L 314.166707 179.645538 
L 314.574053 189.880615 
L 314.981398 194.998154 
L 315.79609 194.998154 
L 316.203436 189.880615 
L 316.610781 194.998154 
L 317.018127 184.763077 
L 317.425473 179.645538 
L 317.832819 179.645538 
L 318.240164 169.410462 
L 318.64751 169.410462 
L 319.054856 164.292923 
L 319.462201 164.292923 
L 319.869547 169.410462 
L 320.276893 164.292923 
L 320.684239 169.410462 
L 321.091584 169.410462 
L 321.49893 164.292923 
L 324.35035 164.292923 
L 325.165042 154.057846 
L 325.572387 159.175385 
L 325.979733 159.175385 
L 326.387079 169.410462 
L 326.794425 164.292923 
L 327.20177 164.292923 
L 328.016462 174.528 
L 328.423807 174.528 
L 328.831153 179.645538 
L 329.238499 174.528 
L 330.460536 174.528 
L 330.867882 169.410462 
L 331.682573 179.645538 
L 332.497265 179.645538 
L 333.311956 169.410462 
L 333.719302 159.175385 
L 334.126648 154.057846 
L 334.533993 154.057846 
L 334.941339 159.175385 
L 335.348685 169.410462 
L 335.756031 169.410462 
L 336.163376 164.292923 
L 336.570722 154.057846 
L 336.978068 154.057846 
L 337.385413 148.940308 
L 337.792759 154.057846 
L 338.200105 148.940308 
L 338.607451 154.057846 
L 339.829488 154.057846 
L 340.236834 143.822769 
L 340.644179 154.057846 
L 342.273562 154.057846 
L 342.680908 159.175385 
L 343.495599 159.175385 
L 343.902945 164.292923 
L 345.124982 164.292923 
L 345.532328 169.410462 
L 346.754365 169.410462 
L 347.161711 164.292923 
L 347.976402 164.292923 
L 348.383748 169.410462 
L 349.605785 169.410462 
L 350.013131 174.528 
L 350.420477 174.528 
L 351.235168 184.763077 
L 351.642514 179.645538 
L 352.04986 189.880615 
L 352.457205 189.880615 
L 352.864551 194.998154 
L 353.271897 189.880615 
L 353.679243 189.880615 
L 354.086588 194.998154 
L 354.493934 194.998154 
L 354.90128 205.233231 
L 355.308626 210.350769 
L 355.715971 200.115692 
L 356.530663 189.880615 
L 358.160046 189.880615 
L 358.567391 200.115692 
L 358.974737 200.115692 
L 359.382083 210.350769 
L 359.789429 210.350769 
L 360.196774 215.468308 
L 360.60412 215.468308 
L 361.011466 210.350769 
L 361.418811 215.468308 
L 361.826157 215.468308 
L 362.640849 225.703385 
L 363.048194 225.703385 
L 363.45554 215.468308 
L 363.862886 220.585846 
L 364.677577 220.585846 
L 365.084923 225.703385 
L 365.492269 215.468308 
L 365.899614 210.350769 
L 366.30696 210.350769 
L 367.121652 200.115692 
L 367.528997 210.350769 
L 369.15838 210.350769 
L 369.565726 205.233231 
L 370.380417 205.233231 
L 370.787763 200.115692 
L 371.195109 200.115692 
L 371.602455 194.998154 
L 372.417146 194.998154 
L 372.824492 200.115692 
L 373.231838 200.115692 
L 374.046529 189.880615 
L 374.453875 189.880615 
L 374.86122 194.998154 
L 375.675912 184.763077 
L 376.083258 184.763077 
L 376.490603 174.528 
L 376.897949 169.410462 
L 377.305295 169.410462 
L 378.934678 148.940308 
L 379.342023 138.705231 
L 380.564061 138.705231 
L 380.971406 133.587692 
L 381.378752 133.587692 
L 381.786098 128.470154 
L 382.193444 128.470154 
L 382.600789 123.352615 
L 383.008135 123.352615 
L 383.415481 128.470154 
L 383.822827 128.470154 
L 384.230172 133.587692 
L 384.637518 133.587692 
L 385.452209 143.822769 
L 386.674247 143.822769 
L 387.081592 154.057846 
L 387.488938 159.175385 
L 387.896284 159.175385 
L 388.710975 169.410462 
L 389.118321 169.410462 
L 389.525667 179.645538 
L 389.933012 179.645538 
L 390.340358 189.880615 
L 391.15505 189.880615 
L 391.562395 184.763077 
L 392.377087 184.763077 
L 392.784433 179.645538 
L 393.191778 179.645538 
L 393.599124 184.763077 
L 394.00647 184.763077 
L 394.413815 179.645538 
L 395.228507 179.645538 
L 395.635853 169.410462 
L 396.043198 169.410462 
L 396.450544 174.528 
L 396.85789 174.528 
L 397.265236 179.645538 
L 397.672581 179.645538 
L 398.079927 174.528 
L 398.487273 179.645538 
L 398.487273 179.645538 
" style="fill:none;stroke:#0000ff;stroke-linecap:square;stroke-width:1.5;"/>
   </g>
   <g id="patch_3">
    <path d="M 57.6 307.584 
L 57.6 41.472 
" style="fill:none;stroke:#000000;stroke-linecap:square;stroke-linejoin:miter;stroke-width:0.8;"/>
   </g>
   <g id="patch_4">
    <path d="M 414.72 307.584 
L 414.72 41.472 
" style="fill:none;stroke:#000000;stroke-linecap:square;stroke-linejoin:miter;stroke-width:0.8;"/>
   </g>
   <g id="patch_5">
    <path d="M 57.6 307.584 
L 414.72 307.584 
" style="fill:none;stroke:#000000;stroke-linecap:square;stroke-linejoin:miter;stroke-width:0.8;"/>
   </g>
   <g id="patch_6">
    <path d="M 57.6 41.472 
L 414.72 41.472 
" style="fill:none;stroke:#000000;stroke-linecap:square;stroke-linejoin:miter;stroke-width:0.8;"/>
   </g>
   <g id="text_18">
    <!-- &gt;sul2_2_GQ421466 Sulphonamide resistance: -->
    <defs>
     <path d="M 10.59375 49.21875 
L 10.59375 58.109375 
L 73.1875 35.40625 
L 73.1875 27.296875 
L 10.59375 4.59375 
L 10.59375 13.484375 
L 60.890625 31.296875 
z
" id="DejaVuSans-62"/>
     <path d="M 8.5 21.578125 
L 8.5 54.6875 
L 17.484375 54.6875 
L 17.484375 21.921875 
Q 17.484375 14.15625 20.5 10.265625 
Q 23.53125 6.390625 29.59375 6.390625 
Q 36.859375 6.390625 41.078125 11.03125 
Q 45.3125 15.671875 45.3125 23.6875 
L 45.3125 54.6875 
L 54.296875 54.6875 
L 54.296875 0 
L 45.3125 0 
L 45.3125 8.40625 
Q 42.046875 3.421875 37.71875 1 
Q 33.40625 -1.421875 27.6875 -1.421875 
Q 18.265625 -1.421875 13.375 4.4375 
Q 8.5 10.296875 8.5 21.578125 
z
M 31.109375 56 
z
" id="DejaVuSans-117"/>
     <path d="M 9.421875 75.984375 
L 18.40625 75.984375 
L 18.40625 0 
L 9.421875 0 
z
" id="DejaVuSans-108"/>
     <path d="M 50.984375 -16.609375 
L 50.984375 -23.578125 
L -0.984375 -23.578125 
L -0.984375 -16.609375 
z
" id="DejaVuSans-95"/>
     <path d="M 59.515625 10.40625 
L 59.515625 29.984375 
L 43.40625 29.984375 
L 43.40625 38.09375 
L 69.28125 38.09375 
L 69.28125 6.78125 
Q 63.578125 2.734375 56.6875 0.65625 
Q 49.8125 -1.421875 42 -1.421875 
Q 24.90625 -1.421875 15.25 8.5625 
Q 5.609375 18.5625 5.609375 36.375 
Q 5.609375 54.25 15.25 64.234375 
Q 24.90625 74.21875 42 74.21875 
Q 49.125 74.21875 55.546875 72.453125 
Q 61.96875 70.703125 67.390625 67.28125 
L 67.390625 56.78125 
Q 61.921875 61.421875 55.765625 63.765625 
Q 49.609375 66.109375 42.828125 66.109375 
Q 29.4375 66.109375 22.71875 58.640625 
Q 16.015625 51.171875 16.015625 36.375 
Q 16.015625 21.625 22.71875 14.15625 
Q 29.4375 6.6875 42.828125 6.6875 
Q 48.046875 6.6875 52.140625 7.59375 
Q 56.25 8.5 59.515625 10.40625 
z
" id="DejaVuSans-71"/>
     <path d="M 39.40625 66.21875 
Q 28.65625 66.21875 22.328125 58.203125 
Q 16.015625 50.203125 16.015625 36.375 
Q 16.015625 22.609375 22.328125 14.59375 
Q 28.65625 6.59375 39.40625 6.59375 
Q 50.140625 6.59375 56.421875 14.59375 
Q 62.703125 22.609375 62.703125 36.375 
Q 62.703125 50.203125 56.421875 58.203125 
Q 50.140625 66.21875 39.40625 66.21875 
z
M 53.21875 1.3125 
L 66.21875 -12.890625 
L 54.296875 -12.890625 
L 43.5 -1.21875 
Q 41.890625 -1.3125 41.03125 -1.359375 
Q 40.1875 -1.421875 39.40625 -1.421875 
Q 24.03125 -1.421875 14.8125 8.859375 
Q 5.609375 19.140625 5.609375 36.375 
Q 5.609375 53.65625 14.8125 63.9375 
Q 24.03125 74.21875 39.40625 74.21875 
Q 54.734375 74.21875 63.90625 63.9375 
Q 73.09375 53.65625 73.09375 36.375 
Q 73.09375 23.6875 67.984375 14.640625 
Q 62.890625 5.609375 53.21875 1.3125 
z
" id="DejaVuSans-81"/>
     <path d="M 53.515625 70.515625 
L 53.515625 60.890625 
Q 47.90625 63.578125 42.921875 64.890625 
Q 37.9375 66.21875 33.296875 66.21875 
Q 25.25 66.21875 20.875 63.09375 
Q 16.5 59.96875 16.5 54.203125 
Q 16.5 49.359375 19.40625 46.890625 
Q 22.3125 44.4375 30.421875 42.921875 
L 36.375 41.703125 
Q 47.40625 39.59375 52.65625 34.296875 
Q 57.90625 29 57.90625 20.125 
Q 57.90625 9.515625 50.796875 4.046875 
Q 43.703125 -1.421875 29.984375 -1.421875 
Q 24.8125 -1.421875 18.96875 -0.25 
Q 13.140625 0.921875 6.890625 3.21875 
L 6.890625 13.375 
Q 12.890625 10.015625 18.65625 8.296875 
Q 24.421875 6.59375 29.984375 6.59375 
Q 38.421875 6.59375 43.015625 9.90625 
Q 47.609375 13.234375 47.609375 19.390625 
Q 47.609375 24.75 44.3125 27.78125 
Q 41.015625 30.8125 33.5 32.328125 
L 27.484375 33.5 
Q 16.453125 35.6875 11.515625 40.375 
Q 6.59375 45.0625 6.59375 53.421875 
Q 6.59375 63.09375 13.40625 68.65625 
Q 20.21875 74.21875 32.171875 74.21875 
Q 37.3125 74.21875 42.625 73.28125 
Q 47.953125 72.359375 53.515625 70.515625 
z
" id="DejaVuSans-83"/>
     <path d="M 34.28125 27.484375 
Q 23.390625 27.484375 19.1875 25 
Q 14.984375 22.515625 14.984375 16.5 
Q 14.984375 11.71875 18.140625 8.90625 
Q 21.296875 6.109375 26.703125 6.109375 
Q 34.1875 6.109375 38.703125 11.40625 
Q 43.21875 16.703125 43.21875 25.484375 
L 43.21875 27.484375 
z
M 52.203125 31.203125 
L 52.203125 0 
L 43.21875 0 
L 43.21875 8.296875 
Q 40.140625 3.328125 35.546875 0.953125 
Q 30.953125 -1.421875 24.3125 -1.421875 
Q 15.921875 -1.421875 10.953125 3.296875 
Q 6 8.015625 6 15.921875 
Q 6 25.140625 12.171875 29.828125 
Q 18.359375 34.515625 30.609375 34.515625 
L 43.21875 34.515625 
L 43.21875 35.40625 
Q 43.21875 41.609375 39.140625 45 
Q 35.0625 48.390625 27.6875 48.390625 
Q 23 48.390625 18.546875 47.265625 
Q 14.109375 46.140625 10.015625 43.890625 
L 10.015625 52.203125 
Q 14.9375 54.109375 19.578125 55.046875 
Q 24.21875 56 28.609375 56 
Q 40.484375 56 46.34375 49.84375 
Q 52.203125 43.703125 52.203125 31.203125 
z
" id="DejaVuSans-97"/>
     <path d="M 52 44.1875 
Q 55.375 50.25 60.0625 53.125 
Q 64.75 56 71.09375 56 
Q 79.640625 56 84.28125 50.015625 
Q 88.921875 44.046875 88.921875 33.015625 
L 88.921875 0 
L 79.890625 0 
L 79.890625 32.71875 
Q 79.890625 40.578125 77.09375 44.375 
Q 74.3125 48.1875 68.609375 48.1875 
Q 61.625 48.1875 57.5625 43.546875 
Q 53.515625 38.921875 53.515625 30.90625 
L 53.515625 0 
L 44.484375 0 
L 44.484375 32.71875 
Q 44.484375 40.625 41.703125 44.40625 
Q 38.921875 48.1875 33.109375 48.1875 
Q 26.21875 48.1875 22.15625 43.53125 
Q 18.109375 38.875 18.109375 30.90625 
L 18.109375 0 
L 9.078125 0 
L 9.078125 54.6875 
L 18.109375 54.6875 
L 18.109375 46.1875 
Q 21.1875 51.21875 25.484375 53.609375 
Q 29.78125 56 35.6875 56 
Q 41.65625 56 45.828125 52.96875 
Q 50 49.953125 52 44.1875 
z
" id="DejaVuSans-109"/>
     <path d="M 41.109375 46.296875 
Q 39.59375 47.171875 37.8125 47.578125 
Q 36.03125 48 33.890625 48 
Q 26.265625 48 22.1875 43.046875 
Q 18.109375 38.09375 18.109375 28.8125 
L 18.109375 0 
L 9.078125 0 
L 9.078125 54.6875 
L 18.109375 54.6875 
L 18.109375 46.1875 
Q 20.953125 51.171875 25.484375 53.578125 
Q 30.03125 56 36.53125 56 
Q 37.453125 56 38.578125 55.875 
Q 39.703125 55.765625 41.0625 55.515625 
z
" id="DejaVuSans-114"/>
     <path d="M 48.78125 52.59375 
L 48.78125 44.1875 
Q 44.96875 46.296875 41.140625 47.34375 
Q 37.3125 48.390625 33.40625 48.390625 
Q 24.65625 48.390625 19.8125 42.84375 
Q 14.984375 37.3125 14.984375 27.296875 
Q 14.984375 17.28125 19.8125 11.734375 
Q 24.65625 6.203125 33.40625 6.203125 
Q 37.3125 6.203125 41.140625 7.25 
Q 44.96875 8.296875 48.78125 10.40625 
L 48.78125 2.09375 
Q 45.015625 0.34375 40.984375 -0.53125 
Q 36.96875 -1.421875 32.421875 -1.421875 
Q 20.0625 -1.421875 12.78125 6.34375 
Q 5.515625 14.109375 5.515625 27.296875 
Q 5.515625 40.671875 12.859375 48.328125 
Q 20.21875 56 33.015625 56 
Q 37.15625 56 41.109375 55.140625 
Q 45.0625 54.296875 48.78125 52.59375 
z
" id="DejaVuSans-99"/>
     <path d="M 11.71875 12.40625 
L 22.015625 12.40625 
L 22.015625 0 
L 11.71875 0 
z
M 11.71875 51.703125 
L 22.015625 51.703125 
L 22.015625 39.3125 
L 11.71875 39.3125 
z
" id="DejaVuSans-58"/>
    </defs>
    <g transform="translate(96.84 35.472)scale(0.12 -0.12)">
     <use xlink:href="#DejaVuSans-62"/>
     <use x="83.789062" xlink:href="#DejaVuSans-115"/>
     <use x="135.888672" xlink:href="#DejaVuSans-117"/>
     <use x="199.267578" xlink:href="#DejaVuSans-108"/>
     <use x="227.050781" xlink:href="#DejaVuSans-50"/>
     <use x="290.673828" xlink:href="#DejaVuSans-95"/>
     <use x="340.673828" xlink:href="#DejaVuSans-50"/>
     <use x="404.296875" xlink:href="#DejaVuSans-95"/>
     <use x="454.296875" xlink:href="#DejaVuSans-71"/>
     <use x="531.787109" xlink:href="#DejaVuSans-81"/>
     <use x="610.498047" xlink:href="#DejaVuSans-52"/>
     <use x="674.121094" xlink:href="#DejaVuSans-50"/>
     <use x="737.744141" xlink:href="#DejaVuSans-49"/>
     <use x="801.367188" xlink:href="#DejaVuSans-52"/>
     <use x="864.990234" xlink:href="#DejaVuSans-54"/>
     <use x="928.613281" xlink:href="#DejaVuSans-54"/>
     <use x="992.236328" xlink:href="#DejaVuSans-32"/>
     <use x="1024.023438" xlink:href="#DejaVuSans-83"/>
     <use x="1087.5" xlink:href="#DejaVuSans-117"/>
     <use x="1150.878906" xlink:href="#DejaVuSans-108"/>
     <use x="1178.662109" xlink:href="#DejaVuSans-112"/>
     <use x="1242.138672" xlink:href="#DejaVuSans-104"/>
     <use x="1305.517578" xlink:href="#DejaVuSans-111"/>
     <use x="1366.699219" xlink:href="#DejaVuSans-110"/>
     <use x="1430.078125" xlink:href="#DejaVuSans-97"/>
     <use x="1491.357422" xlink:href="#DejaVuSans-109"/>
     <use x="1588.769531" xlink:href="#DejaVuSans-105"/>
     <use x="1616.552734" xlink:href="#DejaVuSans-100"/>
     <use x="1680.029297" xlink:href="#DejaVuSans-101"/>
     <use x="1741.552734" xlink:href="#DejaVuSans-32"/>
     <use x="1773.339844" xlink:href="#DejaVuSans-114"/>
     <use x="1814.421875" xlink:href="#DejaVuSans-101"/>
     <use x="1875.945312" xlink:href="#DejaVuSans-115"/>
     <use x="1928.044922" xlink:href="#DejaVuSans-105"/>
     <use x="1955.828125" xlink:href="#DejaVuSans-115"/>
     <use x="2007.927734" xlink:href="#DejaVuSans-116"/>
     <use x="2047.136719" xlink:href="#DejaVuSans-97"/>
     <use x="2108.416016" xlink:href="#DejaVuSans-110"/>
     <use x="2171.794922" xlink:href="#DejaVuSans-99"/>
     <use x="2226.775391" xlink:href="#DejaVuSans-101"/>
     <use x="2288.298828" xlink:href="#DejaVuSans-58"/>
    </g>
   </g>
  </g>
 </g>
 <defs>
  <clipPath id="p05baa34632">
   <rect height="266.112" width="357.12" x="57.6" y="41.472"/>
  </clipPath>
 </defs>
</svg>
