<?xml version="1.0" encoding="utf-8" standalone="no"?>
<!DOCTYPE svg PUBLIC "-//W3C//DTD SVG 1.1//EN"
  "http://www.w3.org/Graphics/SVG/1.1/DTD/svg11.dtd">
<!-- Created with matplotlib (https://matplotlib.org/) -->
<svg height="345.6pt" version="1.1" viewBox="0 0 460.8 345.6" width="460.8pt" xmlns="http://www.w3.org/2000/svg" xmlns:xlink="http://www.w3.org/1999/xlink">
 <defs>
  <style type="text/css">
*{stroke-linecap:butt;stroke-linejoin:round;}
  </style>
 </defs>
 <g id="figure_1">
  <g id="patch_1">
   <path d="M 0 345.6 
L 460.8 345.6 
L 460.8 0 
L 0 0 
z
" style="fill:#ffffff;"/>
  </g>
  <g id="axes_1">
   <g id="patch_2">
    <path d="M 57.6 307.584 
L 414.72 307.584 
L 414.72 41.472 
L 57.6 41.472 
z
" style="fill:#ffffff;"/>
   </g>
   <g id="matplotlib.axis_1">
    <g id="xtick_1">
     <g id="line2d_1">
      <defs>
       <path d="M 0 0 
L 0 3.5 
" id="m80d5fe8a9a" style="stroke:#000000;stroke-width:0.8;"/>
      </defs>
      <g>
       <use style="stroke:#000000;stroke-width:0.8;" x="73.832727" xlink:href="#m80d5fe8a9a" y="307.584"/>
      </g>
     </g>
     <g id="text_1">
      <!-- 0 -->
      <defs>
       <path d="M 31.78125 66.40625 
Q 24.171875 66.40625 20.328125 58.90625 
Q 16.5 51.421875 16.5 36.375 
Q 16.5 21.390625 20.328125 13.890625 
Q 24.171875 6.390625 31.78125 6.390625 
Q 39.453125 6.390625 43.28125 13.890625 
Q 47.125 21.390625 47.125 36.375 
Q 47.125 51.421875 43.28125 58.90625 
Q 39.453125 66.40625 31.78125 66.40625 
z
M 31.78125 74.21875 
Q 44.046875 74.21875 50.515625 64.515625 
Q 56.984375 54.828125 56.984375 36.375 
Q 56.984375 17.96875 50.515625 8.265625 
Q 44.046875 -1.421875 31.78125 -1.421875 
Q 19.53125 -1.421875 13.0625 8.265625 
Q 6.59375 17.96875 6.59375 36.375 
Q 6.59375 54.828125 13.0625 64.515625 
Q 19.53125 74.21875 31.78125 74.21875 
z
" id="DejaVuSans-48"/>
      </defs>
      <g transform="translate(70.651477 322.182437)scale(0.1 -0.1)">
       <use xlink:href="#DejaVuSans-48"/>
      </g>
     </g>
    </g>
    <g id="xtick_2">
     <g id="line2d_2">
      <g>
       <use style="stroke:#000000;stroke-width:0.8;" x="150.856344" xlink:href="#m80d5fe8a9a" y="307.584"/>
      </g>
     </g>
     <g id="text_2">
      <!-- 200 -->
      <defs>
       <path d="M 19.1875 8.296875 
L 53.609375 8.296875 
L 53.609375 0 
L 7.328125 0 
L 7.328125 8.296875 
Q 12.9375 14.109375 22.625 23.890625 
Q 32.328125 33.6875 34.8125 36.53125 
Q 39.546875 41.84375 41.421875 45.53125 
Q 43.3125 49.21875 43.3125 52.78125 
Q 43.3125 58.59375 39.234375 62.25 
Q 35.15625 65.921875 28.609375 65.921875 
Q 23.96875 65.921875 18.8125 64.3125 
Q 13.671875 62.703125 7.8125 59.421875 
L 7.8125 69.390625 
Q 13.765625 71.78125 18.9375 73 
Q 24.125 74.21875 28.421875 74.21875 
Q 39.75 74.21875 46.484375 68.546875 
Q 53.21875 62.890625 53.21875 53.421875 
Q 53.21875 48.921875 51.53125 44.890625 
Q 49.859375 40.875 45.40625 35.40625 
Q 44.1875 33.984375 37.640625 27.21875 
Q 31.109375 20.453125 19.1875 8.296875 
z
" id="DejaVuSans-50"/>
      </defs>
      <g transform="translate(141.312594 322.182437)scale(0.1 -0.1)">
       <use xlink:href="#DejaVuSans-50"/>
       <use x="63.623047" xlink:href="#DejaVuSans-48"/>
       <use x="127.246094" xlink:href="#DejaVuSans-48"/>
      </g>
     </g>
    </g>
    <g id="xtick_3">
     <g id="line2d_3">
      <g>
       <use style="stroke:#000000;stroke-width:0.8;" x="227.879961" xlink:href="#m80d5fe8a9a" y="307.584"/>
      </g>
     </g>
     <g id="text_3">
      <!-- 400 -->
      <defs>
       <path d="M 37.796875 64.3125 
L 12.890625 25.390625 
L 37.796875 25.390625 
z
M 35.203125 72.90625 
L 47.609375 72.90625 
L 47.609375 25.390625 
L 58.015625 25.390625 
L 58.015625 17.1875 
L 47.609375 17.1875 
L 47.609375 0 
L 37.796875 0 
L 37.796875 17.1875 
L 4.890625 17.1875 
L 4.890625 26.703125 
z
" id="DejaVuSans-52"/>
      </defs>
      <g transform="translate(218.336211 322.182437)scale(0.1 -0.1)">
       <use xlink:href="#DejaVuSans-52"/>
       <use x="63.623047" xlink:href="#DejaVuSans-48"/>
       <use x="127.246094" xlink:href="#DejaVuSans-48"/>
      </g>
     </g>
    </g>
    <g id="xtick_4">
     <g id="line2d_4">
      <g>
       <use style="stroke:#000000;stroke-width:0.8;" x="304.903578" xlink:href="#m80d5fe8a9a" y="307.584"/>
      </g>
     </g>
     <g id="text_4">
      <!-- 600 -->
      <defs>
       <path d="M 33.015625 40.375 
Q 26.375 40.375 22.484375 35.828125 
Q 18.609375 31.296875 18.609375 23.390625 
Q 18.609375 15.53125 22.484375 10.953125 
Q 26.375 6.390625 33.015625 6.390625 
Q 39.65625 6.390625 43.53125 10.953125 
Q 47.40625 15.53125 47.40625 23.390625 
Q 47.40625 31.296875 43.53125 35.828125 
Q 39.65625 40.375 33.015625 40.375 
z
M 52.59375 71.296875 
L 52.59375 62.3125 
Q 48.875 64.0625 45.09375 64.984375 
Q 41.3125 65.921875 37.59375 65.921875 
Q 27.828125 65.921875 22.671875 59.328125 
Q 17.53125 52.734375 16.796875 39.40625 
Q 19.671875 43.65625 24.015625 45.921875 
Q 28.375 48.1875 33.59375 48.1875 
Q 44.578125 48.1875 50.953125 41.515625 
Q 57.328125 34.859375 57.328125 23.390625 
Q 57.328125 12.15625 50.6875 5.359375 
Q 44.046875 -1.421875 33.015625 -1.421875 
Q 20.359375 -1.421875 13.671875 8.265625 
Q 6.984375 17.96875 6.984375 36.375 
Q 6.984375 53.65625 15.1875 63.9375 
Q 23.390625 74.21875 37.203125 74.21875 
Q 40.921875 74.21875 44.703125 73.484375 
Q 48.484375 72.75 52.59375 71.296875 
z
" id="DejaVuSans-54"/>
      </defs>
      <g transform="translate(295.359828 322.182437)scale(0.1 -0.1)">
       <use xlink:href="#DejaVuSans-54"/>
       <use x="63.623047" xlink:href="#DejaVuSans-48"/>
       <use x="127.246094" xlink:href="#DejaVuSans-48"/>
      </g>
     </g>
    </g>
    <g id="xtick_5">
     <g id="line2d_5">
      <g>
       <use style="stroke:#000000;stroke-width:0.8;" x="381.927195" xlink:href="#m80d5fe8a9a" y="307.584"/>
      </g>
     </g>
     <g id="text_5">
      <!-- 800 -->
      <defs>
       <path d="M 31.78125 34.625 
Q 24.75 34.625 20.71875 30.859375 
Q 16.703125 27.09375 16.703125 20.515625 
Q 16.703125 13.921875 20.71875 10.15625 
Q 24.75 6.390625 31.78125 6.390625 
Q 38.8125 6.390625 42.859375 10.171875 
Q 46.921875 13.96875 46.921875 20.515625 
Q 46.921875 27.09375 42.890625 30.859375 
Q 38.875 34.625 31.78125 34.625 
z
M 21.921875 38.8125 
Q 15.578125 40.375 12.03125 44.71875 
Q 8.5 49.078125 8.5 55.328125 
Q 8.5 64.0625 14.71875 69.140625 
Q 20.953125 74.21875 31.78125 74.21875 
Q 42.671875 74.21875 48.875 69.140625 
Q 55.078125 64.0625 55.078125 55.328125 
Q 55.078125 49.078125 51.53125 44.71875 
Q 48 40.375 41.703125 38.8125 
Q 48.828125 37.15625 52.796875 32.3125 
Q 56.78125 27.484375 56.78125 20.515625 
Q 56.78125 9.90625 50.3125 4.234375 
Q 43.84375 -1.421875 31.78125 -1.421875 
Q 19.734375 -1.421875 13.25 4.234375 
Q 6.78125 9.90625 6.78125 20.515625 
Q 6.78125 27.484375 10.78125 32.3125 
Q 14.796875 37.15625 21.921875 38.8125 
z
M 18.3125 54.390625 
Q 18.3125 48.734375 21.84375 45.5625 
Q 25.390625 42.390625 31.78125 42.390625 
Q 38.140625 42.390625 41.71875 45.5625 
Q 45.3125 48.734375 45.3125 54.390625 
Q 45.3125 60.0625 41.71875 63.234375 
Q 38.140625 66.40625 31.78125 66.40625 
Q 25.390625 66.40625 21.84375 63.234375 
Q 18.3125 60.0625 18.3125 54.390625 
z
" id="DejaVuSans-56"/>
      </defs>
      <g transform="translate(372.383445 322.182437)scale(0.1 -0.1)">
       <use xlink:href="#DejaVuSans-56"/>
       <use x="63.623047" xlink:href="#DejaVuSans-48"/>
       <use x="127.246094" xlink:href="#DejaVuSans-48"/>
      </g>
     </g>
    </g>
    <g id="text_6">
     <!-- gene position -->
     <defs>
      <path d="M 45.40625 27.984375 
Q 45.40625 37.75 41.375 43.109375 
Q 37.359375 48.484375 30.078125 48.484375 
Q 22.859375 48.484375 18.828125 43.109375 
Q 14.796875 37.75 14.796875 27.984375 
Q 14.796875 18.265625 18.828125 12.890625 
Q 22.859375 7.515625 30.078125 7.515625 
Q 37.359375 7.515625 41.375 12.890625 
Q 45.40625 18.265625 45.40625 27.984375 
z
M 54.390625 6.78125 
Q 54.390625 -7.171875 48.1875 -13.984375 
Q 42 -20.796875 29.203125 -20.796875 
Q 24.46875 -20.796875 20.265625 -20.09375 
Q 16.0625 -19.390625 12.109375 -17.921875 
L 12.109375 -9.1875 
Q 16.0625 -11.328125 19.921875 -12.34375 
Q 23.78125 -13.375 27.78125 -13.375 
Q 36.625 -13.375 41.015625 -8.765625 
Q 45.40625 -4.15625 45.40625 5.171875 
L 45.40625 9.625 
Q 42.625 4.78125 38.28125 2.390625 
Q 33.9375 0 27.875 0 
Q 17.828125 0 11.671875 7.65625 
Q 5.515625 15.328125 5.515625 27.984375 
Q 5.515625 40.671875 11.671875 48.328125 
Q 17.828125 56 27.875 56 
Q 33.9375 56 38.28125 53.609375 
Q 42.625 51.21875 45.40625 46.390625 
L 45.40625 54.6875 
L 54.390625 54.6875 
z
" id="DejaVuSans-103"/>
      <path d="M 56.203125 29.59375 
L 56.203125 25.203125 
L 14.890625 25.203125 
Q 15.484375 15.921875 20.484375 11.0625 
Q 25.484375 6.203125 34.421875 6.203125 
Q 39.59375 6.203125 44.453125 7.46875 
Q 49.3125 8.734375 54.109375 11.28125 
L 54.109375 2.78125 
Q 49.265625 0.734375 44.1875 -0.34375 
Q 39.109375 -1.421875 33.890625 -1.421875 
Q 20.796875 -1.421875 13.15625 6.1875 
Q 5.515625 13.8125 5.515625 26.8125 
Q 5.515625 40.234375 12.765625 48.109375 
Q 20.015625 56 32.328125 56 
Q 43.359375 56 49.78125 48.890625 
Q 56.203125 41.796875 56.203125 29.59375 
z
M 47.21875 32.234375 
Q 47.125 39.59375 43.09375 43.984375 
Q 39.0625 48.390625 32.421875 48.390625 
Q 24.90625 48.390625 20.390625 44.140625 
Q 15.875 39.890625 15.1875 32.171875 
z
" id="DejaVuSans-101"/>
      <path d="M 54.890625 33.015625 
L 54.890625 0 
L 45.90625 0 
L 45.90625 32.71875 
Q 45.90625 40.484375 42.875 44.328125 
Q 39.84375 48.1875 33.796875 48.1875 
Q 26.515625 48.1875 22.3125 43.546875 
Q 18.109375 38.921875 18.109375 30.90625 
L 18.109375 0 
L 9.078125 0 
L 9.078125 54.6875 
L 18.109375 54.6875 
L 18.109375 46.1875 
Q 21.34375 51.125 25.703125 53.5625 
Q 30.078125 56 35.796875 56 
Q 45.21875 56 50.046875 50.171875 
Q 54.890625 44.34375 54.890625 33.015625 
z
" id="DejaVuSans-110"/>
      <path id="DejaVuSans-32"/>
      <path d="M 18.109375 8.203125 
L 18.109375 -20.796875 
L 9.078125 -20.796875 
L 9.078125 54.6875 
L 18.109375 54.6875 
L 18.109375 46.390625 
Q 20.953125 51.265625 25.265625 53.625 
Q 29.59375 56 35.59375 56 
Q 45.5625 56 51.78125 48.09375 
Q 58.015625 40.1875 58.015625 27.296875 
Q 58.015625 14.40625 51.78125 6.484375 
Q 45.5625 -1.421875 35.59375 -1.421875 
Q 29.59375 -1.421875 25.265625 0.953125 
Q 20.953125 3.328125 18.109375 8.203125 
z
M 48.6875 27.296875 
Q 48.6875 37.203125 44.609375 42.84375 
Q 40.53125 48.484375 33.40625 48.484375 
Q 26.265625 48.484375 22.1875 42.84375 
Q 18.109375 37.203125 18.109375 27.296875 
Q 18.109375 17.390625 22.1875 11.75 
Q 26.265625 6.109375 33.40625 6.109375 
Q 40.53125 6.109375 44.609375 11.75 
Q 48.6875 17.390625 48.6875 27.296875 
z
" id="DejaVuSans-112"/>
      <path d="M 30.609375 48.390625 
Q 23.390625 48.390625 19.1875 42.75 
Q 14.984375 37.109375 14.984375 27.296875 
Q 14.984375 17.484375 19.15625 11.84375 
Q 23.34375 6.203125 30.609375 6.203125 
Q 37.796875 6.203125 41.984375 11.859375 
Q 46.1875 17.53125 46.1875 27.296875 
Q 46.1875 37.015625 41.984375 42.703125 
Q 37.796875 48.390625 30.609375 48.390625 
z
M 30.609375 56 
Q 42.328125 56 49.015625 48.375 
Q 55.71875 40.765625 55.71875 27.296875 
Q 55.71875 13.875 49.015625 6.21875 
Q 42.328125 -1.421875 30.609375 -1.421875 
Q 18.84375 -1.421875 12.171875 6.21875 
Q 5.515625 13.875 5.515625 27.296875 
Q 5.515625 40.765625 12.171875 48.375 
Q 18.84375 56 30.609375 56 
z
" id="DejaVuSans-111"/>
      <path d="M 44.28125 53.078125 
L 44.28125 44.578125 
Q 40.484375 46.53125 36.375 47.5 
Q 32.28125 48.484375 27.875 48.484375 
Q 21.1875 48.484375 17.84375 46.4375 
Q 14.5 44.390625 14.5 40.28125 
Q 14.5 37.15625 16.890625 35.375 
Q 19.28125 33.59375 26.515625 31.984375 
L 29.59375 31.296875 
Q 39.15625 29.25 43.1875 25.515625 
Q 47.21875 21.78125 47.21875 15.09375 
Q 47.21875 7.46875 41.1875 3.015625 
Q 35.15625 -1.421875 24.609375 -1.421875 
Q 20.21875 -1.421875 15.453125 -0.5625 
Q 10.6875 0.296875 5.421875 2 
L 5.421875 11.28125 
Q 10.40625 8.6875 15.234375 7.390625 
Q 20.0625 6.109375 24.8125 6.109375 
Q 31.15625 6.109375 34.5625 8.28125 
Q 37.984375 10.453125 37.984375 14.40625 
Q 37.984375 18.0625 35.515625 20.015625 
Q 33.0625 21.96875 24.703125 23.78125 
L 21.578125 24.515625 
Q 13.234375 26.265625 9.515625 29.90625 
Q 5.8125 33.546875 5.8125 39.890625 
Q 5.8125 47.609375 11.28125 51.796875 
Q 16.75 56 26.8125 56 
Q 31.78125 56 36.171875 55.265625 
Q 40.578125 54.546875 44.28125 53.078125 
z
" id="DejaVuSans-115"/>
      <path d="M 9.421875 54.6875 
L 18.40625 54.6875 
L 18.40625 0 
L 9.421875 0 
z
M 9.421875 75.984375 
L 18.40625 75.984375 
L 18.40625 64.59375 
L 9.421875 64.59375 
z
" id="DejaVuSans-105"/>
      <path d="M 18.3125 70.21875 
L 18.3125 54.6875 
L 36.8125 54.6875 
L 36.8125 47.703125 
L 18.3125 47.703125 
L 18.3125 18.015625 
Q 18.3125 11.328125 20.140625 9.421875 
Q 21.96875 7.515625 27.59375 7.515625 
L 36.8125 7.515625 
L 36.8125 0 
L 27.59375 0 
Q 17.1875 0 13.234375 3.875 
Q 9.28125 7.765625 9.28125 18.015625 
L 9.28125 47.703125 
L 2.6875 47.703125 
L 2.6875 54.6875 
L 9.28125 54.6875 
L 9.28125 70.21875 
z
" id="DejaVuSans-116"/>
     </defs>
     <g transform="translate(202.270156 335.860562)scale(0.1 -0.1)">
      <use xlink:href="#DejaVuSans-103"/>
      <use x="63.476562" xlink:href="#DejaVuSans-101"/>
      <use x="125" xlink:href="#DejaVuSans-110"/>
      <use x="188.378906" xlink:href="#DejaVuSans-101"/>
      <use x="249.902344" xlink:href="#DejaVuSans-32"/>
      <use x="281.689453" xlink:href="#DejaVuSans-112"/>
      <use x="345.166016" xlink:href="#DejaVuSans-111"/>
      <use x="406.347656" xlink:href="#DejaVuSans-115"/>
      <use x="458.447266" xlink:href="#DejaVuSans-105"/>
      <use x="486.230469" xlink:href="#DejaVuSans-116"/>
      <use x="525.439453" xlink:href="#DejaVuSans-105"/>
      <use x="553.222656" xlink:href="#DejaVuSans-111"/>
      <use x="614.404297" xlink:href="#DejaVuSans-110"/>
     </g>
    </g>
   </g>
   <g id="matplotlib.axis_2">
    <g id="ytick_1">
     <g id="line2d_6">
      <defs>
       <path d="M 0 0 
L -3.5 0 
" id="m20c01ae1ff" style="stroke:#000000;stroke-width:0.8;"/>
      </defs>
      <g>
       <use style="stroke:#000000;stroke-width:0.8;" x="57.6" xlink:href="#m20c01ae1ff" y="307.584"/>
      </g>
     </g>
     <g id="text_7">
      <!-- 0 -->
      <g transform="translate(44.2375 311.383219)scale(0.1 -0.1)">
       <use xlink:href="#DejaVuSans-48"/>
      </g>
     </g>
    </g>
    <g id="ytick_2">
     <g id="line2d_7">
      <g>
       <use style="stroke:#000000;stroke-width:0.8;" x="57.6" xlink:href="#m20c01ae1ff" y="265.344"/>
      </g>
     </g>
     <g id="text_8">
      <!-- 10 -->
      <defs>
       <path d="M 12.40625 8.296875 
L 28.515625 8.296875 
L 28.515625 63.921875 
L 10.984375 60.40625 
L 10.984375 69.390625 
L 28.421875 72.90625 
L 38.28125 72.90625 
L 38.28125 8.296875 
L 54.390625 8.296875 
L 54.390625 0 
L 12.40625 0 
z
" id="DejaVuSans-49"/>
      </defs>
      <g transform="translate(37.875 269.143219)scale(0.1 -0.1)">
       <use xlink:href="#DejaVuSans-49"/>
       <use x="63.623047" xlink:href="#DejaVuSans-48"/>
      </g>
     </g>
    </g>
    <g id="ytick_3">
     <g id="line2d_8">
      <g>
       <use style="stroke:#000000;stroke-width:0.8;" x="57.6" xlink:href="#m20c01ae1ff" y="223.104"/>
      </g>
     </g>
     <g id="text_9">
      <!-- 20 -->
      <g transform="translate(37.875 226.903219)scale(0.1 -0.1)">
       <use xlink:href="#DejaVuSans-50"/>
       <use x="63.623047" xlink:href="#DejaVuSans-48"/>
      </g>
     </g>
    </g>
    <g id="ytick_4">
     <g id="line2d_9">
      <g>
       <use style="stroke:#000000;stroke-width:0.8;" x="57.6" xlink:href="#m20c01ae1ff" y="180.864"/>
      </g>
     </g>
     <g id="text_10">
      <!-- 30 -->
      <defs>
       <path d="M 40.578125 39.3125 
Q 47.65625 37.796875 51.625 33 
Q 55.609375 28.21875 55.609375 21.1875 
Q 55.609375 10.40625 48.1875 4.484375 
Q 40.765625 -1.421875 27.09375 -1.421875 
Q 22.515625 -1.421875 17.65625 -0.515625 
Q 12.796875 0.390625 7.625 2.203125 
L 7.625 11.71875 
Q 11.71875 9.328125 16.59375 8.109375 
Q 21.484375 6.890625 26.8125 6.890625 
Q 36.078125 6.890625 40.9375 10.546875 
Q 45.796875 14.203125 45.796875 21.1875 
Q 45.796875 27.640625 41.28125 31.265625 
Q 36.765625 34.90625 28.71875 34.90625 
L 20.21875 34.90625 
L 20.21875 43.015625 
L 29.109375 43.015625 
Q 36.375 43.015625 40.234375 45.921875 
Q 44.09375 48.828125 44.09375 54.296875 
Q 44.09375 59.90625 40.109375 62.90625 
Q 36.140625 65.921875 28.71875 65.921875 
Q 24.65625 65.921875 20.015625 65.03125 
Q 15.375 64.15625 9.8125 62.3125 
L 9.8125 71.09375 
Q 15.4375 72.65625 20.34375 73.4375 
Q 25.25 74.21875 29.59375 74.21875 
Q 40.828125 74.21875 47.359375 69.109375 
Q 53.90625 64.015625 53.90625 55.328125 
Q 53.90625 49.265625 50.4375 45.09375 
Q 46.96875 40.921875 40.578125 39.3125 
z
" id="DejaVuSans-51"/>
      </defs>
      <g transform="translate(37.875 184.663219)scale(0.1 -0.1)">
       <use xlink:href="#DejaVuSans-51"/>
       <use x="63.623047" xlink:href="#DejaVuSans-48"/>
      </g>
     </g>
    </g>
    <g id="ytick_5">
     <g id="line2d_10">
      <g>
       <use style="stroke:#000000;stroke-width:0.8;" x="57.6" xlink:href="#m20c01ae1ff" y="138.624"/>
      </g>
     </g>
     <g id="text_11">
      <!-- 40 -->
      <g transform="translate(37.875 142.423219)scale(0.1 -0.1)">
       <use xlink:href="#DejaVuSans-52"/>
       <use x="63.623047" xlink:href="#DejaVuSans-48"/>
      </g>
     </g>
    </g>
    <g id="ytick_6">
     <g id="line2d_11">
      <g>
       <use style="stroke:#000000;stroke-width:0.8;" x="57.6" xlink:href="#m20c01ae1ff" y="96.384"/>
      </g>
     </g>
     <g id="text_12">
      <!-- 50 -->
      <defs>
       <path d="M 10.796875 72.90625 
L 49.515625 72.90625 
L 49.515625 64.59375 
L 19.828125 64.59375 
L 19.828125 46.734375 
Q 21.96875 47.46875 24.109375 47.828125 
Q 26.265625 48.1875 28.421875 48.1875 
Q 40.625 48.1875 47.75 41.5 
Q 54.890625 34.8125 54.890625 23.390625 
Q 54.890625 11.625 47.5625 5.09375 
Q 40.234375 -1.421875 26.90625 -1.421875 
Q 22.3125 -1.421875 17.546875 -0.640625 
Q 12.796875 0.140625 7.71875 1.703125 
L 7.71875 11.625 
Q 12.109375 9.234375 16.796875 8.0625 
Q 21.484375 6.890625 26.703125 6.890625 
Q 35.15625 6.890625 40.078125 11.328125 
Q 45.015625 15.765625 45.015625 23.390625 
Q 45.015625 31 40.078125 35.4375 
Q 35.15625 39.890625 26.703125 39.890625 
Q 22.75 39.890625 18.8125 39.015625 
Q 14.890625 38.140625 10.796875 36.28125 
z
" id="DejaVuSans-53"/>
      </defs>
      <g transform="translate(37.875 100.183219)scale(0.1 -0.1)">
       <use xlink:href="#DejaVuSans-53"/>
       <use x="63.623047" xlink:href="#DejaVuSans-48"/>
      </g>
     </g>
    </g>
    <g id="ytick_7">
     <g id="line2d_12">
      <g>
       <use style="stroke:#000000;stroke-width:0.8;" x="57.6" xlink:href="#m20c01ae1ff" y="54.144"/>
      </g>
     </g>
     <g id="text_13">
      <!-- 60 -->
      <g transform="translate(37.875 57.943219)scale(0.1 -0.1)">
       <use xlink:href="#DejaVuSans-54"/>
       <use x="63.623047" xlink:href="#DejaVuSans-48"/>
      </g>
     </g>
    </g>
    <g id="text_14">
     <!-- depth -->
     <defs>
      <path d="M 45.40625 46.390625 
L 45.40625 75.984375 
L 54.390625 75.984375 
L 54.390625 0 
L 45.40625 0 
L 45.40625 8.203125 
Q 42.578125 3.328125 38.25 0.953125 
Q 33.9375 -1.421875 27.875 -1.421875 
Q 17.96875 -1.421875 11.734375 6.484375 
Q 5.515625 14.40625 5.515625 27.296875 
Q 5.515625 40.1875 11.734375 48.09375 
Q 17.96875 56 27.875 56 
Q 33.9375 56 38.25 53.625 
Q 42.578125 51.265625 45.40625 46.390625 
z
M 14.796875 27.296875 
Q 14.796875 17.390625 18.875 11.75 
Q 22.953125 6.109375 30.078125 6.109375 
Q 37.203125 6.109375 41.296875 11.75 
Q 45.40625 17.390625 45.40625 27.296875 
Q 45.40625 37.203125 41.296875 42.84375 
Q 37.203125 48.484375 30.078125 48.484375 
Q 22.953125 48.484375 18.875 42.84375 
Q 14.796875 37.203125 14.796875 27.296875 
z
" id="DejaVuSans-100"/>
      <path d="M 54.890625 33.015625 
L 54.890625 0 
L 45.90625 0 
L 45.90625 32.71875 
Q 45.90625 40.484375 42.875 44.328125 
Q 39.84375 48.1875 33.796875 48.1875 
Q 26.515625 48.1875 22.3125 43.546875 
Q 18.109375 38.921875 18.109375 30.90625 
L 18.109375 0 
L 9.078125 0 
L 9.078125 75.984375 
L 18.109375 75.984375 
L 18.109375 46.1875 
Q 21.34375 51.125 25.703125 53.5625 
Q 30.078125 56 35.796875 56 
Q 45.21875 56 50.046875 50.171875 
Q 54.890625 44.34375 54.890625 33.015625 
z
" id="DejaVuSans-104"/>
     </defs>
     <g transform="translate(31.795312 189.081906)rotate(-90)scale(0.1 -0.1)">
      <use xlink:href="#DejaVuSans-100"/>
      <use x="63.476562" xlink:href="#DejaVuSans-101"/>
      <use x="125" xlink:href="#DejaVuSans-112"/>
      <use x="188.476562" xlink:href="#DejaVuSans-116"/>
      <use x="227.685547" xlink:href="#DejaVuSans-104"/>
     </g>
    </g>
   </g>
   <g id="line2d_13">
    <path clip-path="url(#pbee6657b4c)" d="M 73.832727 218.88 
L 74.604289 218.88 
L 74.99007 214.656 
L 75.375851 201.984 
L 76.533194 201.984 
L 77.304756 193.536 
L 79.619441 193.536 
L 80.005222 189.312 
L 80.391003 189.312 
L 80.776784 180.864 
L 81.548346 180.864 
L 82.319908 172.416 
L 83.09147 172.416 
L 83.477251 168.192 
L 83.863032 168.192 
L 84.248813 163.968 
L 84.634594 168.192 
L 85.020374 163.968 
L 85.791936 163.968 
L 86.177717 151.296 
L 86.563498 147.072 
L 86.949279 147.072 
L 87.33506 142.848 
L 87.720841 130.176 
L 89.263965 130.176 
L 89.649746 125.952 
L 90.035527 125.952 
L 90.421308 134.4 
L 90.807089 134.4 
L 91.19287 142.848 
L 91.57865 142.848 
L 91.964431 138.624 
L 92.350212 142.848 
L 92.735993 138.624 
L 93.121774 142.848 
L 93.507555 142.848 
L 93.893336 147.072 
L 94.664898 147.072 
L 95.050679 138.624 
L 95.43646 138.624 
L 95.822241 134.4 
L 96.208022 138.624 
L 97.751145 138.624 
L 98.136926 142.848 
L 98.522707 138.624 
L 98.908488 138.624 
L 99.294269 147.072 
L 99.68005 151.296 
L 100.065831 142.848 
L 100.451612 142.848 
L 100.837393 138.624 
L 101.223174 130.176 
L 101.608955 130.176 
L 101.994736 134.4 
L 102.380517 130.176 
L 102.766298 138.624 
L 103.152079 142.848 
L 104.309421 130.176 
L 105.852545 130.176 
L 106.238326 134.4 
L 106.624107 130.176 
L 107.009888 130.176 
L 107.395669 138.624 
L 107.78145 134.4 
L 108.167231 134.4 
L 108.553012 130.176 
L 108.938793 134.4 
L 109.324574 134.4 
L 109.710355 138.624 
L 110.481916 138.624 
L 111.639259 125.952 
L 112.02504 130.176 
L 112.410821 130.176 
L 112.796602 138.624 
L 113.182383 138.624 
L 113.568164 130.176 
L 114.339726 138.624 
L 114.725507 138.624 
L 115.111288 134.4 
L 115.497069 142.848 
L 115.88285 142.848 
L 116.268631 130.176 
L 116.654411 134.4 
L 117.040192 134.4 
L 117.425973 125.952 
L 117.811754 125.952 
L 118.197535 138.624 
L 118.583316 142.848 
L 118.969097 142.848 
L 119.354878 138.624 
L 119.740659 151.296 
L 120.898002 138.624 
L 121.283783 142.848 
L 121.669564 142.848 
L 122.055345 130.176 
L 122.826906 121.728 
L 123.212687 121.728 
L 123.984249 130.176 
L 124.37003 125.952 
L 124.755811 130.176 
L 125.913154 117.504 
L 126.298935 117.504 
L 127.070497 109.056 
L 127.456278 109.056 
L 127.842059 113.28 
L 128.613621 113.28 
L 128.999401 121.728 
L 129.385182 117.504 
L 130.928306 117.504 
L 131.314087 113.28 
L 131.699868 113.28 
L 132.085649 117.504 
L 132.47143 109.056 
L 133.242992 117.504 
L 134.400335 117.504 
L 134.786116 104.832 
L 135.171897 104.832 
L 135.557677 100.608 
L 135.943458 104.832 
L 136.329239 96.384 
L 137.486582 96.384 
L 137.872363 87.936 
L 138.258144 83.712 
L 139.029706 92.16 
L 139.415487 79.488 
L 139.801268 75.264 
L 140.187049 75.264 
L 140.57283 79.488 
L 140.958611 79.488 
L 141.344392 83.712 
L 141.730172 83.712 
L 142.115953 87.936 
L 142.501734 83.712 
L 142.887515 83.712 
L 143.273296 79.488 
L 143.659077 71.04 
L 144.044858 71.04 
L 144.430639 75.264 
L 144.81642 75.264 
L 145.202201 71.04 
L 145.587982 79.488 
L 145.973763 79.488 
L 146.359544 83.712 
L 146.745325 83.712 
L 147.131106 87.936 
L 147.516887 79.488 
L 147.902667 79.488 
L 148.288448 87.936 
L 148.674229 79.488 
L 149.06001 75.264 
L 149.445791 79.488 
L 152.146258 79.488 
L 152.91782 87.936 
L 153.689382 87.936 
L 154.075163 96.384 
L 154.460943 100.608 
L 155.232505 100.608 
L 155.618286 92.16 
L 156.004067 92.16 
L 156.389848 96.384 
L 157.16141 96.384 
L 157.547191 109.056 
L 157.932972 113.28 
L 158.318753 113.28 
L 159.090315 130.176 
L 159.476096 130.176 
L 160.633438 117.504 
L 161.019219 109.056 
L 161.405 104.832 
L 161.790781 104.832 
L 162.176562 109.056 
L 162.562343 109.056 
L 163.333905 92.16 
L 164.491248 104.832 
L 164.877029 104.832 
L 165.26281 100.608 
L 165.648591 104.832 
L 166.420153 104.832 
L 166.805933 117.504 
L 167.191714 117.504 
L 167.577495 121.728 
L 167.963276 113.28 
L 169.120619 113.28 
L 169.5064 117.504 
L 169.892181 125.952 
L 170.277962 117.504 
L 170.663743 117.504 
L 171.049524 113.28 
L 171.821086 130.176 
L 172.592648 130.176 
L 172.978428 125.952 
L 174.135771 125.952 
L 174.907333 134.4 
L 175.293114 130.176 
L 175.678895 138.624 
L 177.222019 138.624 
L 177.6078 130.176 
L 177.993581 130.176 
L 178.379362 125.952 
L 178.765143 117.504 
L 179.150924 113.28 
L 179.536704 117.504 
L 179.922485 113.28 
L 180.308266 113.28 
L 181.079828 121.728 
L 181.465609 117.504 
L 181.85139 121.728 
L 182.237171 121.728 
L 182.622952 113.28 
L 183.008733 113.28 
L 183.394514 109.056 
L 183.780295 109.056 
L 184.166076 113.28 
L 184.937638 113.28 
L 185.323419 104.832 
L 185.709199 104.832 
L 186.09498 109.056 
L 186.480761 117.504 
L 187.638104 117.504 
L 188.023885 121.728 
L 188.795447 121.728 
L 189.181228 100.608 
L 189.567009 87.936 
L 189.95279 92.16 
L 190.338571 92.16 
L 191.110133 75.264 
L 192.267475 75.264 
L 192.653256 79.488 
L 193.039037 87.936 
L 193.424818 92.16 
L 194.582161 79.488 
L 194.967942 83.712 
L 195.353723 92.16 
L 195.739504 83.712 
L 196.125285 79.488 
L 196.896847 79.488 
L 197.282628 75.264 
L 197.668409 79.488 
L 198.05419 79.488 
L 198.43997 75.264 
L 198.825751 75.264 
L 199.211532 66.816 
L 200.368875 66.816 
L 200.754656 62.592 
L 201.140437 62.592 
L 201.526218 54.144 
L 201.911999 54.144 
L 202.29778 71.04 
L 203.069342 79.488 
L 204.612465 79.488 
L 205.384027 71.04 
L 206.54137 71.04 
L 206.927151 79.488 
L 207.312932 83.712 
L 207.698713 83.712 
L 208.084494 87.936 
L 208.856056 87.936 
L 209.241837 83.712 
L 209.627618 87.936 
L 210.013399 83.712 
L 210.78496 100.608 
L 211.170741 100.608 
L 211.556522 92.16 
L 211.942303 96.384 
L 213.871208 96.384 
L 214.256989 83.712 
L 214.64277 87.936 
L 215.028551 87.936 
L 215.414332 96.384 
L 216.571675 96.384 
L 217.343236 104.832 
L 218.88636 104.832 
L 219.272141 113.28 
L 219.657922 117.504 
L 220.043703 117.504 
L 220.429484 109.056 
L 220.815265 109.056 
L 221.201046 134.4 
L 221.586827 151.296 
L 222.74417 151.296 
L 223.901512 163.968 
L 224.287293 159.744 
L 225.058855 168.192 
L 225.830417 159.744 
L 226.216198 168.192 
L 226.601979 172.416 
L 226.98776 168.192 
L 227.373541 168.192 
L 228.145103 185.088 
L 228.530884 180.864 
L 228.916665 172.416 
L 229.302446 176.64 
L 229.688226 176.64 
L 230.074007 172.416 
L 230.845569 172.416 
L 231.23135 176.64 
L 231.617131 176.64 
L 232.002912 172.416 
L 232.388693 163.968 
L 232.774474 159.744 
L 233.160255 159.744 
L 233.546036 163.968 
L 235.474941 163.968 
L 235.860721 168.192 
L 236.246502 163.968 
L 236.632283 163.968 
L 237.403845 172.416 
L 238.561188 172.416 
L 239.33275 155.52 
L 240.875874 155.52 
L 241.261655 163.968 
L 241.647436 163.968 
L 242.033217 159.744 
L 243.190559 159.744 
L 243.57634 168.192 
L 243.962121 163.968 
L 245.119464 163.968 
L 245.505245 168.192 
L 245.891026 168.192 
L 246.276807 176.64 
L 246.662588 168.192 
L 247.048369 168.192 
L 247.43415 159.744 
L 247.819931 163.968 
L 248.977273 163.968 
L 249.748835 155.52 
L 250.134616 155.52 
L 250.520397 159.744 
L 250.906178 159.744 
L 251.291959 155.52 
L 251.67774 159.744 
L 252.063521 159.744 
L 252.449302 168.192 
L 252.835083 168.192 
L 253.220864 159.744 
L 253.606645 155.52 
L 253.992426 155.52 
L 254.378207 138.624 
L 255.92133 138.624 
L 256.307111 142.848 
L 256.692892 138.624 
L 257.078673 138.624 
L 257.850235 147.072 
L 258.621797 147.072 
L 259.393359 138.624 
L 259.77914 130.176 
L 260.164921 134.4 
L 260.936482 134.4 
L 261.322263 130.176 
L 261.708044 130.176 
L 262.093825 134.4 
L 264.02273 134.4 
L 264.408511 151.296 
L 264.794292 155.52 
L 266.337416 155.52 
L 266.723197 147.072 
L 267.108978 147.072 
L 267.494758 142.848 
L 268.26632 142.848 
L 268.652101 130.176 
L 269.037882 134.4 
L 270.581006 134.4 
L 270.966787 142.848 
L 273.667253 142.848 
L 274.053034 138.624 
L 274.438815 142.848 
L 275.596158 142.848 
L 275.981939 138.624 
L 276.36772 138.624 
L 276.753501 142.848 
L 277.525063 142.848 
L 277.910844 147.072 
L 278.296625 142.848 
L 278.682406 151.296 
L 279.068187 151.296 
L 279.839748 159.744 
L 280.61131 159.744 
L 281.382872 151.296 
L 281.768653 151.296 
L 282.154434 147.072 
L 282.925996 147.072 
L 283.311777 151.296 
L 284.854901 151.296 
L 285.240682 159.744 
L 285.626463 163.968 
L 286.012244 163.968 
L 286.398024 185.088 
L 286.783805 189.312 
L 288.326929 189.312 
L 288.71271 193.536 
L 289.484272 193.536 
L 290.641615 206.208 
L 291.027396 214.656 
L 291.798958 223.104 
L 292.184739 223.104 
L 292.570519 227.328 
L 293.342081 244.224 
L 296.81411 244.224 
L 297.199891 248.448 
L 297.971453 248.448 
L 297.971453 248.448 
" style="fill:none;stroke:#0000ff;stroke-linecap:square;stroke-width:1.5;"/>
   </g>
   <g id="line2d_14">
    <path clip-path="url(#pbee6657b4c)" d="M 73.832727 201.984 
L 74.603945 201.984 
L 74.989553 206.208 
L 75.375162 197.76 
L 76.146379 189.312 
L 77.688814 189.312 
L 78.074423 180.864 
L 78.460031 185.088 
L 78.84564 185.088 
L 79.231249 180.864 
L 80.773684 180.864 
L 81.159292 172.416 
L 83.472944 172.416 
L 83.858553 163.968 
L 84.244162 168.192 
L 85.400988 168.192 
L 85.786596 163.968 
L 86.172205 168.192 
L 86.557814 163.968 
L 86.943422 168.192 
L 88.485857 168.192 
L 88.871466 163.968 
L 89.642683 163.968 
L 90.028292 159.744 
L 90.413901 168.192 
L 90.799509 172.416 
L 91.185118 172.416 
L 91.570727 163.968 
L 91.956335 163.968 
L 92.341944 168.192 
L 92.727553 159.744 
L 93.113161 159.744 
L 93.49877 155.52 
L 94.269987 163.968 
L 95.426813 163.968 
L 95.812422 172.416 
L 96.198031 172.416 
L 96.583639 176.64 
L 97.354857 176.64 
L 97.740465 172.416 
L 98.126074 176.64 
L 98.511683 176.64 
L 98.897292 172.416 
L 99.2829 172.416 
L 99.668509 176.64 
L 100.054118 172.416 
L 100.439726 172.416 
L 100.825335 176.64 
L 101.210944 176.64 
L 101.596552 172.416 
L 101.982161 176.64 
L 102.36777 176.64 
L 102.753378 180.864 
L 103.524596 180.864 
L 103.910204 185.088 
L 104.295813 185.088 
L 104.681422 180.864 
L 105.06703 180.864 
L 105.452639 172.416 
L 106.609465 172.416 
L 106.995074 168.192 
L 107.766291 176.64 
L 108.1519 176.64 
L 108.537509 172.416 
L 108.923117 176.64 
L 109.308726 172.416 
L 109.694335 159.744 
L 110.079943 163.968 
L 110.465552 147.072 
L 110.851161 142.848 
L 111.236769 151.296 
L 111.622378 142.848 
L 112.393595 142.848 
L 112.779204 147.072 
L 113.164813 155.52 
L 113.550421 147.072 
L 113.93603 151.296 
L 114.321639 151.296 
L 114.707247 155.52 
L 115.092856 147.072 
L 115.478465 147.072 
L 115.864074 155.52 
L 116.249682 151.296 
L 117.406508 151.296 
L 117.792117 147.072 
L 118.177726 151.296 
L 118.948943 142.848 
L 119.334552 142.848 
L 119.72016 155.52 
L 120.105769 142.848 
L 120.491378 134.4 
L 120.876986 130.176 
L 121.262595 130.176 
L 121.648204 125.952 
L 122.033812 130.176 
L 122.419421 125.952 
L 122.80503 125.952 
L 123.190638 117.504 
L 123.576247 121.728 
L 124.347464 121.728 
L 124.733073 130.176 
L 125.889899 130.176 
L 126.275508 125.952 
L 126.661117 125.952 
L 127.046725 117.504 
L 127.817943 117.504 
L 128.203551 113.28 
L 128.58916 113.28 
L 128.974769 117.504 
L 129.360377 113.28 
L 129.745986 113.28 
L 130.131595 109.056 
L 130.517203 109.056 
L 130.902812 113.28 
L 131.674029 113.28 
L 132.059638 121.728 
L 132.445247 117.504 
L 132.830855 117.504 
L 133.602073 125.952 
L 133.987682 121.728 
L 134.758899 130.176 
L 135.915725 130.176 
L 136.301334 121.728 
L 137.45816 147.072 
L 137.843768 142.848 
L 138.229377 142.848 
L 139.000594 151.296 
L 140.15742 151.296 
L 140.543029 142.848 
L 140.928638 142.848 
L 141.314246 147.072 
L 141.699855 142.848 
L 143.24229 142.848 
L 143.627899 151.296 
L 144.013507 142.848 
L 144.399116 142.848 
L 144.784725 151.296 
L 145.170333 151.296 
L 145.555942 142.848 
L 145.941551 142.848 
L 146.327159 147.072 
L 146.712768 155.52 
L 147.483985 163.968 
L 150.183246 163.968 
L 150.568855 176.64 
L 150.954463 180.864 
L 151.340072 168.192 
L 151.725681 168.192 
L 152.11129 159.744 
L 152.496898 168.192 
L 152.882507 172.416 
L 153.268116 172.416 
L 153.653724 176.64 
L 154.039333 159.744 
L 154.424942 163.968 
L 154.81055 159.744 
L 155.196159 163.968 
L 155.581768 172.416 
L 155.967376 172.416 
L 156.352985 168.192 
L 156.738594 168.192 
L 157.124202 176.64 
L 157.509811 180.864 
L 157.89542 176.64 
L 158.281028 180.864 
L 158.666637 180.864 
L 159.052246 185.088 
L 159.437854 185.088 
L 159.823463 193.536 
L 160.209072 189.312 
L 160.980289 189.312 
L 161.365898 185.088 
L 161.751507 185.088 
L 162.137115 193.536 
L 162.522724 193.536 
L 162.908333 180.864 
L 164.065159 180.864 
L 164.450767 176.64 
L 165.221985 176.64 
L 165.607593 172.416 
L 165.993202 172.416 
L 166.378811 163.968 
L 166.764419 163.968 
L 167.150028 159.744 
L 167.535637 159.744 
L 167.921245 155.52 
L 168.306854 159.744 
L 169.078071 159.744 
L 169.849289 168.192 
L 170.234898 159.744 
L 170.620506 155.52 
L 171.006115 159.744 
L 171.391724 176.64 
L 171.777332 176.64 
L 172.54855 185.088 
L 173.705376 185.088 
L 174.090984 180.864 
L 174.476593 180.864 
L 174.862202 185.088 
L 175.24781 180.864 
L 175.633419 180.864 
L 176.019028 176.64 
L 176.790245 159.744 
L 177.175854 155.52 
L 177.561462 163.968 
L 178.33268 155.52 
L 178.718289 155.52 
L 179.103897 163.968 
L 179.875115 163.968 
L 180.260723 159.744 
L 180.646332 159.744 
L 181.417549 142.848 
L 181.803158 138.624 
L 182.188767 130.176 
L 182.959984 130.176 
L 183.345593 147.072 
L 183.731201 147.072 
L 184.11681 151.296 
L 184.502419 147.072 
L 184.888027 147.072 
L 185.273636 138.624 
L 185.659245 138.624 
L 186.044853 147.072 
L 187.20168 159.744 
L 187.587288 155.52 
L 187.972897 147.072 
L 190.672158 147.072 
L 191.057766 138.624 
L 191.443375 138.624 
L 191.828984 130.176 
L 192.214592 134.4 
L 192.600201 125.952 
L 192.98581 125.952 
L 193.371418 138.624 
L 194.528244 125.952 
L 194.913853 130.176 
L 196.070679 130.176 
L 196.456288 125.952 
L 196.841897 125.952 
L 197.227505 121.728 
L 197.998723 121.728 
L 198.76994 130.176 
L 199.541157 130.176 
L 199.926766 134.4 
L 200.312375 130.176 
L 200.697983 130.176 
L 201.083592 125.952 
L 201.854809 125.952 
L 202.240418 138.624 
L 202.626027 147.072 
L 203.397244 147.072 
L 203.782853 142.848 
L 204.168461 142.848 
L 204.55407 138.624 
L 204.939679 142.848 
L 206.096505 142.848 
L 206.482114 138.624 
L 206.867722 138.624 
L 207.253331 147.072 
L 207.63894 147.072 
L 208.024548 142.848 
L 208.410157 147.072 
L 208.795766 155.52 
L 209.181374 155.52 
L 209.952592 147.072 
L 210.3382 151.296 
L 211.109418 151.296 
L 211.495026 159.744 
L 211.880635 155.52 
L 212.266244 159.744 
L 212.651852 155.52 
L 213.037461 155.52 
L 213.42307 159.744 
L 213.808678 155.52 
L 214.194287 163.968 
L 215.351113 163.968 
L 215.736722 168.192 
L 216.122331 159.744 
L 216.507939 163.968 
L 216.893548 159.744 
L 217.279157 168.192 
L 218.435983 168.192 
L 219.2072 159.744 
L 219.592809 163.968 
L 219.978417 172.416 
L 220.364026 172.416 
L 220.749635 163.968 
L 221.520852 172.416 
L 222.677678 172.416 
L 223.063287 176.64 
L 223.448896 172.416 
L 223.834504 180.864 
L 224.605722 180.864 
L 224.99133 176.64 
L 226.533765 176.64 
L 226.919374 172.416 
L 227.304982 172.416 
L 227.690591 168.192 
L 228.0762 168.192 
L 228.847417 159.744 
L 229.233026 163.968 
L 230.004243 155.52 
L 230.389852 159.744 
L 230.77546 155.52 
L 231.161069 155.52 
L 231.546678 159.744 
L 232.703504 159.744 
L 233.089113 163.968 
L 234.245939 163.968 
L 234.631547 159.744 
L 235.402765 159.744 
L 235.788373 163.968 
L 236.559591 163.968 
L 236.945199 168.192 
L 238.102025 168.192 
L 238.487634 163.968 
L 239.258851 163.968 
L 239.64446 168.192 
L 240.030069 168.192 
L 240.415677 159.744 
L 240.801286 147.072 
L 241.186895 147.072 
L 241.958112 155.52 
L 242.343721 155.52 
L 242.72933 159.744 
L 243.500547 142.848 
L 243.886156 138.624 
L 244.271764 138.624 
L 244.657373 142.848 
L 245.042982 142.848 
L 245.42859 134.4 
L 245.814199 138.624 
L 246.971025 138.624 
L 247.356634 142.848 
L 249.284677 142.848 
L 249.670286 138.624 
L 250.441503 138.624 
L 251.598329 125.952 
L 251.983938 130.176 
L 252.369547 125.952 
L 252.755155 130.176 
L 254.29759 130.176 
L 254.683199 134.4 
L 255.068807 134.4 
L 255.454416 130.176 
L 256.996851 130.176 
L 257.382459 125.952 
L 257.768068 130.176 
L 258.153677 125.952 
L 258.539285 125.952 
L 258.924894 121.728 
L 259.310503 121.728 
L 259.696112 125.952 
L 260.852938 125.952 
L 261.238546 121.728 
L 261.624155 134.4 
L 262.009764 134.4 
L 262.395372 130.176 
L 262.780981 134.4 
L 263.16659 134.4 
L 263.552198 125.952 
L 263.937807 121.728 
L 265.480242 121.728 
L 265.86585 125.952 
L 266.251459 121.728 
L 267.408285 121.728 
L 267.793894 117.504 
L 268.565111 125.952 
L 268.95072 121.728 
L 269.336329 121.728 
L 269.721937 117.504 
L 270.107546 117.504 
L 270.493155 121.728 
L 271.649981 121.728 
L 272.421198 138.624 
L 272.806807 151.296 
L 273.192415 151.296 
L 273.578024 147.072 
L 274.349241 147.072 
L 274.73485 142.848 
L 275.120459 147.072 
L 275.506067 142.848 
L 275.891676 151.296 
L 276.277285 151.296 
L 276.662894 138.624 
L 277.048502 138.624 
L 277.434111 151.296 
L 277.81972 151.296 
L 278.205328 147.072 
L 278.590937 147.072 
L 278.976546 142.848 
L 279.747763 142.848 
L 280.133372 151.296 
L 280.51898 147.072 
L 282.061415 147.072 
L 282.447024 138.624 
L 282.832632 134.4 
L 283.218241 138.624 
L 284.760676 138.624 
L 285.531893 121.728 
L 285.917502 125.952 
L 286.303111 125.952 
L 286.688719 121.728 
L 287.074328 121.728 
L 287.845545 130.176 
L 288.231154 125.952 
L 288.616763 134.4 
L 289.002371 134.4 
L 289.38798 138.624 
L 289.773589 138.624 
L 290.159197 147.072 
L 290.544806 147.072 
L 290.930415 151.296 
L 292.087241 151.296 
L 292.472849 147.072 
L 292.858458 155.52 
L 293.629675 163.968 
L 294.015284 163.968 
L 294.400893 168.192 
L 294.786502 168.192 
L 295.17211 159.744 
L 295.557719 159.744 
L 296.714545 147.072 
L 297.871371 147.072 
L 298.25698 142.848 
L 298.642588 142.848 
L 299.028197 138.624 
L 299.799414 147.072 
L 300.570632 147.072 
L 300.95624 142.848 
L 301.341849 142.848 
L 301.727458 151.296 
L 302.498675 151.296 
L 302.884284 147.072 
L 304.426719 147.072 
L 305.197936 138.624 
L 305.583545 147.072 
L 305.969153 151.296 
L 306.740371 151.296 
L 307.125979 155.52 
L 307.511588 163.968 
L 308.282805 155.52 
L 308.668414 163.968 
L 309.054023 155.52 
L 309.439631 151.296 
L 309.82524 155.52 
L 310.210849 147.072 
L 310.596457 147.072 
L 310.982066 151.296 
L 312.138892 151.296 
L 313.295718 138.624 
L 313.681327 142.848 
L 314.066936 142.848 
L 314.452544 147.072 
L 314.838153 155.52 
L 315.223762 151.296 
L 315.60937 159.744 
L 316.380588 168.192 
L 316.766196 168.192 
L 317.537414 176.64 
L 317.923022 172.416 
L 318.308631 172.416 
L 318.69424 176.64 
L 319.079848 172.416 
L 319.465457 172.416 
L 319.851066 168.192 
L 320.236674 172.416 
L 320.622283 163.968 
L 321.393501 163.968 
L 322.164718 147.072 
L 322.550327 142.848 
L 322.935935 147.072 
L 323.321544 142.848 
L 323.707153 142.848 
L 324.092761 138.624 
L 324.863979 138.624 
L 325.249587 134.4 
L 326.406413 134.4 
L 326.792022 125.952 
L 327.177631 130.176 
L 327.563239 130.176 
L 327.948848 125.952 
L 328.720065 134.4 
L 329.491283 134.4 
L 329.876891 130.176 
L 330.2625 130.176 
L 330.648109 125.952 
L 332.190544 125.952 
L 332.576152 130.176 
L 332.961761 130.176 
L 333.34737 121.728 
L 334.118587 113.28 
L 334.504196 113.28 
L 334.889804 117.504 
L 336.04663 117.504 
L 337.203456 130.176 
L 339.517109 130.176 
L 340.288326 138.624 
L 340.673935 134.4 
L 341.059543 142.848 
L 341.445152 142.848 
L 341.830761 121.728 
L 342.987587 121.728 
L 344.144413 109.056 
L 344.530021 117.504 
L 344.91563 113.28 
L 345.301239 117.504 
L 345.686847 117.504 
L 346.843673 104.832 
L 347.229282 109.056 
L 347.614891 100.608 
L 348.000499 100.608 
L 348.386108 104.832 
L 348.771717 100.608 
L 349.157326 92.16 
L 349.542934 92.16 
L 349.928543 96.384 
L 350.69976 96.384 
L 351.085369 104.832 
L 351.470978 104.832 
L 351.856586 109.056 
L 352.242195 117.504 
L 352.627804 121.728 
L 353.013412 121.728 
L 353.399021 117.504 
L 354.170238 134.4 
L 354.555847 138.624 
L 354.941456 138.624 
L 355.327064 142.848 
L 355.712673 138.624 
L 356.098282 138.624 
L 356.48389 142.848 
L 356.869499 138.624 
L 358.026325 138.624 
L 358.411934 134.4 
L 358.797543 134.4 
L 359.183151 130.176 
L 359.56876 113.28 
L 359.954369 121.728 
L 360.725586 121.728 
L 361.111195 113.28 
L 361.496803 109.056 
L 362.268021 109.056 
L 362.653629 113.28 
L 364.581673 113.28 
L 364.967281 109.056 
L 365.738499 125.952 
L 366.124108 130.176 
L 366.509716 121.728 
L 367.280934 113.28 
L 367.666542 113.28 
L 368.823368 87.936 
L 369.208977 92.16 
L 370.365803 92.16 
L 370.751412 87.936 
L 371.13702 87.936 
L 371.522629 83.712 
L 372.293846 83.712 
L 372.679455 87.936 
L 373.065064 87.936 
L 373.450672 83.712 
L 373.836281 100.608 
L 374.22189 109.056 
L 374.993107 109.056 
L 375.764325 100.608 
L 376.149933 104.832 
L 376.535542 100.608 
L 376.535542 100.608 
" style="fill:none;stroke:#0000ff;stroke-linecap:square;stroke-width:1.5;"/>
   </g>
   <g id="line2d_15">
    <path clip-path="url(#pbee6657b4c)" d="M 73.832727 109.056 
L 74.989494 109.056 
L 75.375083 104.832 
L 75.760672 109.056 
L 76.531849 100.608 
L 76.917438 104.832 
L 77.303027 96.384 
L 78.074205 87.936 
L 78.845383 96.384 
L 79.230972 96.384 
L 79.616561 100.608 
L 80.00215 100.608 
L 80.387738 92.16 
L 80.773327 92.16 
L 81.158916 83.712 
L 81.544505 87.936 
L 81.930094 109.056 
L 82.315683 104.832 
L 83.086861 104.832 
L 83.47245 113.28 
L 83.858038 113.28 
L 84.243627 109.056 
L 84.629216 109.056 
L 85.014805 104.832 
L 86.171572 104.832 
L 86.94275 96.384 
L 87.328338 100.608 
L 87.713927 100.608 
L 88.099516 92.16 
L 89.256283 92.16 
L 90.41305 104.832 
L 90.798638 104.832 
L 91.184227 117.504 
L 91.569816 109.056 
L 91.955405 117.504 
L 92.340994 113.28 
L 92.726583 113.28 
L 93.112172 117.504 
L 93.497761 113.28 
L 94.268938 113.28 
L 94.654527 109.056 
L 95.040116 113.28 
L 95.425705 113.28 
L 95.811294 117.504 
L 97.35365 117.504 
L 97.739238 125.952 
L 98.124827 125.952 
L 98.896005 117.504 
L 99.281594 121.728 
L 99.667183 113.28 
L 100.052772 109.056 
L 100.82395 109.056 
L 101.595127 100.608 
L 102.366305 100.608 
L 103.137483 83.712 
L 104.29425 83.712 
L 105.065427 92.16 
L 105.451016 87.936 
L 105.836605 92.16 
L 106.222194 92.16 
L 106.607783 96.384 
L 106.993372 96.384 
L 107.378961 100.608 
L 107.76455 96.384 
L 108.921316 109.056 
L 109.306905 117.504 
L 109.692494 117.504 
L 110.078083 121.728 
L 111.23485 121.728 
L 111.620438 125.952 
L 112.006027 125.952 
L 112.391616 130.176 
L 112.777205 130.176 
L 113.162794 138.624 
L 113.548383 134.4 
L 115.090738 134.4 
L 115.476327 130.176 
L 117.018683 130.176 
L 117.404272 134.4 
L 117.789861 134.4 
L 118.561038 125.952 
L 118.946627 130.176 
L 119.332216 130.176 
L 119.717805 125.952 
L 120.103394 134.4 
L 120.488983 134.4 
L 120.874572 142.848 
L 121.260161 147.072 
L 121.64575 138.624 
L 122.031338 134.4 
L 122.416927 138.624 
L 122.802516 138.624 
L 123.188105 142.848 
L 123.573694 151.296 
L 124.344872 159.744 
L 124.730461 159.744 
L 125.11605 155.52 
L 125.501638 159.744 
L 125.887227 155.52 
L 126.272816 155.52 
L 126.658405 159.744 
L 127.043994 151.296 
L 128.200761 151.296 
L 128.971938 134.4 
L 129.743116 134.4 
L 130.514294 125.952 
L 132.442238 147.072 
L 133.213416 138.624 
L 133.599005 142.848 
L 134.370183 142.848 
L 134.755772 151.296 
L 135.141361 142.848 
L 135.912538 142.848 
L 136.298127 147.072 
L 137.069305 147.072 
L 137.454894 151.296 
L 137.840483 151.296 
L 138.226072 147.072 
L 138.611661 138.624 
L 138.99725 142.848 
L 139.382838 138.624 
L 140.154016 138.624 
L 140.539605 130.176 
L 141.310783 130.176 
L 141.696372 125.952 
L 142.081961 117.504 
L 142.853138 117.504 
L 143.238727 121.728 
L 143.624316 121.728 
L 144.009905 117.504 
L 144.395494 121.728 
L 144.781083 117.504 
L 145.552261 125.952 
L 145.93785 121.728 
L 146.323438 130.176 
L 147.094616 130.176 
L 147.480205 134.4 
L 149.793738 134.4 
L 150.950505 147.072 
L 151.336094 142.848 
L 151.721683 142.848 
L 152.107272 138.624 
L 152.87845 138.624 
L 153.264038 134.4 
L 153.649627 138.624 
L 154.035216 147.072 
L 154.420805 147.072 
L 154.806394 151.296 
L 155.577572 142.848 
L 155.963161 142.848 
L 156.34875 138.624 
L 156.734338 130.176 
L 157.119927 134.4 
L 157.505516 125.952 
L 157.891105 125.952 
L 158.662283 117.504 
L 159.047872 121.728 
L 159.81905 121.728 
L 160.204638 109.056 
L 160.590227 117.504 
L 160.975816 121.728 
L 161.361405 121.728 
L 161.746994 117.504 
L 162.132583 121.728 
L 163.28935 121.728 
L 163.674938 125.952 
L 164.060527 117.504 
L 164.446116 117.504 
L 164.831705 121.728 
L 165.217294 130.176 
L 165.602883 130.176 
L 165.988472 134.4 
L 166.374061 130.176 
L 166.75965 134.4 
L 167.145238 147.072 
L 168.687594 147.072 
L 169.073183 142.848 
L 169.458772 134.4 
L 169.844361 130.176 
L 170.615538 138.624 
L 172.157894 121.728 
L 172.543483 125.952 
L 173.314661 125.952 
L 173.70025 130.176 
L 174.085838 142.848 
L 174.471427 142.848 
L 174.857016 138.624 
L 175.242605 138.624 
L 175.628194 142.848 
L 176.013783 151.296 
L 176.399372 151.296 
L 176.784961 155.52 
L 177.17055 151.296 
L 177.941727 151.296 
L 178.327316 142.848 
L 178.712905 142.848 
L 179.098494 147.072 
L 179.484083 147.072 
L 179.869672 138.624 
L 180.255261 138.624 
L 180.64085 130.176 
L 181.026438 125.952 
L 181.412027 117.504 
L 182.183205 109.056 
L 182.568794 113.28 
L 183.725561 113.28 
L 184.11115 117.504 
L 184.496738 117.504 
L 184.882327 121.728 
L 185.267916 121.728 
L 185.653505 125.952 
L 186.424683 125.952 
L 186.810272 113.28 
L 187.195861 117.504 
L 187.58145 117.504 
L 187.967038 113.28 
L 188.352627 117.504 
L 188.738216 113.28 
L 189.123805 113.28 
L 190.280572 125.952 
L 191.05175 125.952 
L 191.437338 121.728 
L 191.822927 121.728 
L 192.208516 125.952 
L 192.979694 117.504 
L 193.750872 117.504 
L 194.136461 113.28 
L 194.52205 113.28 
L 194.907639 104.832 
L 195.678816 104.832 
L 196.064405 113.28 
L 196.449994 104.832 
L 196.835583 100.608 
L 199.534705 100.608 
L 199.920294 96.384 
L 200.691472 96.384 
L 201.077061 100.608 
L 201.46265 109.056 
L 202.233827 109.056 
L 202.619416 104.832 
L 203.005005 109.056 
L 203.776183 134.4 
L 204.161772 134.4 
L 204.547361 130.176 
L 204.93295 130.176 
L 205.318539 121.728 
L 205.704127 125.952 
L 206.089716 121.728 
L 207.632072 121.728 
L 208.017661 117.504 
L 208.788839 117.504 
L 209.174427 113.28 
L 209.560016 104.832 
L 209.945605 104.832 
L 210.331194 113.28 
L 211.487961 100.608 
L 211.87355 109.056 
L 212.259139 109.056 
L 212.644727 121.728 
L 213.030316 125.952 
L 213.415905 138.624 
L 213.801494 130.176 
L 214.187083 138.624 
L 215.34385 138.624 
L 215.729439 142.848 
L 216.500616 134.4 
L 217.657383 147.072 
L 219.199739 147.072 
L 219.585327 142.848 
L 220.356505 142.848 
L 220.742094 147.072 
L 221.127683 147.072 
L 221.513272 142.848 
L 221.898861 142.848 
L 222.670039 134.4 
L 223.055627 134.4 
L 223.441216 142.848 
L 223.826805 142.848 
L 224.212394 147.072 
L 224.597983 142.848 
L 224.983572 147.072 
L 225.369161 142.848 
L 225.75475 147.072 
L 226.140339 147.072 
L 226.525927 142.848 
L 226.911516 147.072 
L 228.068283 147.072 
L 228.453872 155.52 
L 228.839461 155.52 
L 229.610639 147.072 
L 229.996227 147.072 
L 230.381816 151.296 
L 230.767405 151.296 
L 231.152994 155.52 
L 231.538583 147.072 
L 232.309761 147.072 
L 232.69535 138.624 
L 233.080939 134.4 
L 234.237705 134.4 
L 234.623294 138.624 
L 235.394472 130.176 
L 235.780061 121.728 
L 236.551239 130.176 
L 236.936827 130.176 
L 237.322416 138.624 
L 237.708005 138.624 
L 238.093594 142.848 
L 238.479183 142.848 
L 238.864772 147.072 
L 239.63595 147.072 
L 240.021539 151.296 
L 240.407127 151.296 
L 240.792716 142.848 
L 241.563894 151.296 
L 241.949483 147.072 
L 242.335072 147.072 
L 242.720661 151.296 
L 243.10625 151.296 
L 243.491839 159.744 
L 243.877427 155.52 
L 244.648605 163.968 
L 245.034194 163.968 
L 245.419783 155.52 
L 245.805372 159.744 
L 246.190961 159.744 
L 246.57655 151.296 
L 246.962139 147.072 
L 247.733316 147.072 
L 248.118905 151.296 
L 248.504494 151.296 
L 248.890083 155.52 
L 249.661261 155.52 
L 250.04685 151.296 
L 250.432439 151.296 
L 250.818027 147.072 
L 251.203616 147.072 
L 251.974794 155.52 
L 253.131561 155.52 
L 253.51715 147.072 
L 253.902739 147.072 
L 254.288327 151.296 
L 254.673916 147.072 
L 255.059505 147.072 
L 255.445094 142.848 
L 255.830683 142.848 
L 256.601861 151.296 
L 256.98745 142.848 
L 257.373039 147.072 
L 257.758627 147.072 
L 258.144216 142.848 
L 258.529805 147.072 
L 258.915394 147.072 
L 259.300983 142.848 
L 260.843339 142.848 
L 261.228927 147.072 
L 262.000105 138.624 
L 262.385694 138.624 
L 262.771283 134.4 
L 263.156872 125.952 
L 263.542461 125.952 
L 263.92805 134.4 
L 264.313639 134.4 
L 265.084816 151.296 
L 265.855994 142.848 
L 266.627172 142.848 
L 267.012761 147.072 
L 267.39835 147.072 
L 267.783939 151.296 
L 268.940705 151.296 
L 269.326294 147.072 
L 269.711883 147.072 
L 270.097472 138.624 
L 270.483061 138.624 
L 270.86865 142.848 
L 271.254239 138.624 
L 271.639827 138.624 
L 272.025416 130.176 
L 272.411005 130.176 
L 272.796594 134.4 
L 273.182183 130.176 
L 273.953361 138.624 
L 274.33895 138.624 
L 274.724539 134.4 
L 276.652483 134.4 
L 277.038072 130.176 
L 277.423661 138.624 
L 278.194839 138.624 
L 278.580427 151.296 
L 278.966016 155.52 
L 279.737194 155.52 
L 280.122783 151.296 
L 280.508372 151.296 
L 280.893961 142.848 
L 281.27955 142.848 
L 281.665139 138.624 
L 282.436316 147.072 
L 282.821905 147.072 
L 283.207494 142.848 
L 284.74985 142.848 
L 285.135439 138.624 
L 285.906616 147.072 
L 286.292205 147.072 
L 286.677794 159.744 
L 287.063383 168.192 
L 287.448972 163.968 
L 288.22015 163.968 
L 288.605739 168.192 
L 288.991327 176.64 
L 289.376916 176.64 
L 290.148094 185.088 
L 290.919272 185.088 
L 291.304861 189.312 
L 291.69045 189.312 
L 292.076039 193.536 
L 292.461627 185.088 
L 292.847216 185.088 
L 293.232805 180.864 
L 293.618394 180.864 
L 294.003983 185.088 
L 294.389572 180.864 
L 294.775161 180.864 
L 295.16075 189.312 
L 295.931927 197.76 
L 296.317516 197.76 
L 296.703105 193.536 
L 297.088694 185.088 
L 297.474283 189.312 
L 297.859872 185.088 
L 298.63105 185.088 
L 299.016639 180.864 
L 300.173405 180.864 
L 300.558994 176.64 
L 300.944583 176.64 
L 301.715761 168.192 
L 302.10135 172.416 
L 302.486939 168.192 
L 302.872527 168.192 
L 303.258116 163.968 
L 303.643705 163.968 
L 304.414883 155.52 
L 304.800472 159.744 
L 305.57165 159.744 
L 305.957239 168.192 
L 306.342828 163.968 
L 306.728416 168.192 
L 307.114005 163.968 
L 307.499594 155.52 
L 308.270772 155.52 
L 308.656361 151.296 
L 309.04195 155.52 
L 309.813128 155.52 
L 310.198716 151.296 
L 310.584305 151.296 
L 310.969894 147.072 
L 311.741072 147.072 
L 312.51225 155.52 
L 312.897839 163.968 
L 313.283428 163.968 
L 313.669016 172.416 
L 314.054605 172.416 
L 314.825783 163.968 
L 315.211372 163.968 
L 315.596961 155.52 
L 315.98255 151.296 
L 316.368139 151.296 
L 316.753728 147.072 
L 317.139316 151.296 
L 317.910494 151.296 
L 318.296083 142.848 
L 319.067261 142.848 
L 319.45285 147.072 
L 320.224028 147.072 
L 320.609616 142.848 
L 321.380794 151.296 
L 321.766383 151.296 
L 322.151972 155.52 
L 322.92315 155.52 
L 323.694328 147.072 
L 324.079916 147.072 
L 324.465505 151.296 
L 324.851094 151.296 
L 325.236683 155.52 
L 325.622272 151.296 
L 326.007861 155.52 
L 326.39345 155.52 
L 326.779039 159.744 
L 327.164628 155.52 
L 327.550216 147.072 
L 327.935805 147.072 
L 328.321394 142.848 
L 328.706983 142.848 
L 329.478161 134.4 
L 329.86375 138.624 
L 330.249339 138.624 
L 330.634928 134.4 
L 331.020516 138.624 
L 331.406105 134.4 
L 331.791694 125.952 
L 332.177283 121.728 
L 332.562872 125.952 
L 333.33405 117.504 
L 333.719639 117.504 
L 334.105228 125.952 
L 334.490816 130.176 
L 334.876405 121.728 
L 335.261994 121.728 
L 336.418761 134.4 
L 336.80435 134.4 
L 337.189939 138.624 
L 337.961116 138.624 
L 338.346705 142.848 
L 338.732294 138.624 
L 339.503472 147.072 
L 339.889061 142.848 
L 340.27465 147.072 
L 341.045828 147.072 
L 341.817005 138.624 
L 342.202594 142.848 
L 342.588183 142.848 
L 343.359361 134.4 
L 343.74495 125.952 
L 344.130539 121.728 
L 344.516128 121.728 
L 344.901716 117.504 
L 345.672894 117.504 
L 346.058483 121.728 
L 347.21525 121.728 
L 347.986428 138.624 
L 349.914372 138.624 
L 350.299961 142.848 
L 350.68555 138.624 
L 351.456728 138.624 
L 351.842316 134.4 
L 352.613494 134.4 
L 352.999083 138.624 
L 353.384672 130.176 
L 353.770261 130.176 
L 354.15585 138.624 
L 354.541439 138.624 
L 354.927028 134.4 
L 355.698205 134.4 
L 356.083794 138.624 
L 356.469383 138.624 
L 356.854972 142.848 
L 357.240561 142.848 
L 357.62615 147.072 
L 358.011739 142.848 
L 358.397328 147.072 
L 358.782916 147.072 
L 359.554094 155.52 
L 360.325272 130.176 
L 360.710861 130.176 
L 361.09645 142.848 
L 361.482039 134.4 
L 362.253216 134.4 
L 362.638805 142.848 
L 363.795572 130.176 
L 364.181161 130.176 
L 364.56675 125.952 
L 364.952339 125.952 
L 365.337928 130.176 
L 366.109105 130.176 
L 366.494694 125.952 
L 366.880283 130.176 
L 367.265872 130.176 
L 367.651461 121.728 
L 368.422639 121.728 
L 368.808228 117.504 
L 369.579405 117.504 
L 369.964994 113.28 
L 370.736172 121.728 
L 371.50735 121.728 
L 372.664116 134.4 
L 373.049705 134.4 
L 373.435294 130.176 
L 373.820883 134.4 
L 374.592061 134.4 
L 376.905594 159.744 
L 378.062361 159.744 
L 378.833539 168.192 
L 379.219128 168.192 
L 379.604716 172.416 
L 379.990305 180.864 
L 380.761483 189.312 
L 382.303839 189.312 
L 382.689428 201.984 
L 384.231783 201.984 
L 384.617372 210.432 
L 385.002961 210.432 
L 385.38855 214.656 
L 387.702083 214.656 
L 388.087672 218.88 
L 389.244439 218.88 
L 389.244439 218.88 
" style="fill:none;stroke:#0000ff;stroke-linecap:square;stroke-width:1.5;"/>
   </g>
   <g id="line2d_16">
    <path clip-path="url(#pbee6657b4c)" d="M 73.832727 223.104 
L 74.603878 214.656 
L 74.989454 206.208 
L 75.760605 206.208 
L 76.14618 197.76 
L 76.531756 193.536 
L 77.302906 193.536 
L 77.688482 185.088 
L 78.074057 185.088 
L 78.459633 176.64 
L 78.845208 172.416 
L 79.230784 172.416 
L 81.158661 151.296 
L 81.929812 151.296 
L 82.700963 142.848 
L 85.785567 142.848 
L 86.556718 134.4 
L 88.484595 134.4 
L 88.870171 130.176 
L 89.255746 121.728 
L 89.641322 117.504 
L 90.026897 121.728 
L 90.412472 121.728 
L 90.798048 130.176 
L 91.183623 125.952 
L 91.569199 125.952 
L 91.954774 121.728 
L 93.111501 121.728 
L 93.497076 130.176 
L 94.268227 138.624 
L 95.039378 138.624 
L 95.424954 142.848 
L 96.196105 159.744 
L 96.58168 155.52 
L 96.967255 155.52 
L 97.352831 147.072 
L 98.123982 155.52 
L 98.509557 147.072 
L 99.280708 147.072 
L 99.666284 151.296 
L 100.051859 151.296 
L 100.437435 159.744 
L 100.82301 163.968 
L 101.208586 155.52 
L 102.365312 155.52 
L 103.136463 163.968 
L 103.907614 163.968 
L 104.293189 159.744 
L 104.678765 163.968 
L 105.06434 159.744 
L 105.449916 163.968 
L 106.221067 163.968 
L 106.606642 155.52 
L 107.377793 155.52 
L 107.763369 147.072 
L 108.53452 155.52 
L 108.920095 155.52 
L 109.30567 159.744 
L 109.691246 155.52 
L 110.076821 155.52 
L 110.462397 163.968 
L 111.619123 176.64 
L 112.004699 176.64 
L 112.390274 180.864 
L 112.77585 189.312 
L 113.161425 189.312 
L 113.547001 185.088 
L 113.932576 185.088 
L 114.703727 193.536 
L 115.089303 189.312 
L 116.246029 189.312 
L 116.631604 176.64 
L 117.01718 176.64 
L 117.402755 168.192 
L 117.788331 163.968 
L 118.173906 168.192 
L 119.330633 168.192 
L 119.716208 163.968 
L 120.101784 163.968 
L 120.487359 159.744 
L 121.644086 159.744 
L 122.029661 155.52 
L 122.415236 155.52 
L 122.800812 147.072 
L 123.186387 155.52 
L 123.571963 155.52 
L 123.957538 159.744 
L 125.114265 147.072 
L 125.885416 147.072 
L 126.270991 142.848 
L 126.656567 147.072 
L 127.427718 147.072 
L 128.198868 138.624 
L 128.584444 142.848 
L 128.970019 142.848 
L 129.355595 151.296 
L 129.74117 151.296 
L 130.126746 147.072 
L 130.512321 151.296 
L 130.897897 147.072 
L 131.283472 147.072 
L 131.669048 151.296 
L 132.054623 147.072 
L 132.825774 147.072 
L 133.21135 155.52 
L 133.596925 155.52 
L 133.982501 151.296 
L 134.368076 142.848 
L 135.524802 142.848 
L 136.295953 151.296 
L 136.681529 147.072 
L 137.067104 151.296 
L 137.45268 159.744 
L 137.838255 159.744 
L 138.223831 155.52 
L 138.609406 163.968 
L 138.994982 168.192 
L 139.380557 168.192 
L 139.766133 176.64 
L 140.151708 176.64 
L 140.537284 189.312 
L 141.308434 189.312 
L 141.69401 185.088 
L 143.236312 185.088 
L 143.621887 189.312 
L 144.007463 185.088 
L 144.778614 185.088 
L 145.164189 193.536 
L 145.549765 197.76 
L 145.93534 197.76 
L 146.320916 193.536 
L 146.706491 193.536 
L 147.092067 197.76 
L 147.477642 206.208 
L 147.863217 197.76 
L 148.248793 197.76 
L 148.634368 214.656 
L 149.019944 214.656 
L 149.405519 218.88 
L 149.791095 214.656 
L 150.562246 214.656 
L 150.947821 210.432 
L 151.333397 210.432 
L 151.718972 218.88 
L 152.104548 218.88 
L 153.261274 231.552 
L 153.646849 231.552 
L 154.032425 227.328 
L 154.418 227.328 
L 154.803576 231.552 
L 155.574727 231.552 
L 155.960302 218.88 
L 156.345878 218.88 
L 157.117029 227.328 
L 157.502604 227.328 
L 157.88818 223.104 
L 158.659331 223.104 
L 159.044906 218.88 
L 159.430482 218.88 
L 159.816057 214.656 
L 160.587208 223.104 
L 161.358359 223.104 
L 161.743934 218.88 
L 162.515085 227.328 
L 162.900661 223.104 
L 164.057387 223.104 
L 164.442963 214.656 
L 164.828538 210.432 
L 165.214114 214.656 
L 165.599689 210.432 
L 165.985265 210.432 
L 166.37084 214.656 
L 166.756415 214.656 
L 167.527566 206.208 
L 167.913142 189.312 
L 168.298717 193.536 
L 168.684293 185.088 
L 169.069868 185.088 
L 169.455444 176.64 
L 169.841019 172.416 
L 170.226595 176.64 
L 171.383321 176.64 
L 172.925623 159.744 
L 173.311198 151.296 
L 173.696774 155.52 
L 175.239076 138.624 
L 175.624651 138.624 
L 176.010227 142.848 
L 176.395802 142.848 
L 176.781378 147.072 
L 177.166953 147.072 
L 177.552529 151.296 
L 178.32368 142.848 
L 179.480406 142.848 
L 179.865981 138.624 
L 181.022708 138.624 
L 181.408283 142.848 
L 182.179434 142.848 
L 182.950585 134.4 
L 183.336161 142.848 
L 183.721736 134.4 
L 184.107312 134.4 
L 184.492887 142.848 
L 184.878463 142.848 
L 185.264038 134.4 
L 186.420764 134.4 
L 186.80634 138.624 
L 187.577491 138.624 
L 187.963066 130.176 
L 188.348642 130.176 
L 188.734217 125.952 
L 189.505368 134.4 
L 189.890944 134.4 
L 190.276519 138.624 
L 190.662095 134.4 
L 191.433246 134.4 
L 191.818821 142.848 
L 192.589972 142.848 
L 192.975547 147.072 
L 193.361123 142.848 
L 194.517849 142.848 
L 195.289 134.4 
L 195.674576 125.952 
L 196.445727 117.504 
L 196.831302 117.504 
L 197.216878 113.28 
L 197.602453 104.832 
L 197.988029 104.832 
L 198.373604 100.608 
L 198.759179 100.608 
L 199.53033 117.504 
L 200.687057 130.176 
L 201.072632 125.952 
L 201.458208 130.176 
L 201.843783 138.624 
L 203.00051 138.624 
L 203.386085 134.4 
L 203.771661 138.624 
L 204.157236 138.624 
L 204.542811 134.4 
L 204.928387 134.4 
L 205.313962 142.848 
L 206.085113 151.296 
L 206.470689 138.624 
L 206.856264 142.848 
L 207.24184 142.848 
L 208.012991 134.4 
L 208.398566 138.624 
L 208.784142 134.4 
L 209.555293 134.4 
L 209.940868 138.624 
L 210.712019 138.624 
L 211.097594 134.4 
L 211.48317 134.4 
L 211.868745 138.624 
L 212.639896 138.624 
L 213.025472 134.4 
L 213.411047 125.952 
L 214.182198 125.952 
L 214.953349 134.4 
L 215.338925 134.4 
L 215.7245 142.848 
L 216.495651 142.848 
L 216.881227 134.4 
L 217.266802 138.624 
L 217.652377 134.4 
L 218.037953 138.624 
L 218.809104 121.728 
L 219.194679 117.504 
L 219.580255 117.504 
L 219.96583 121.728 
L 220.351406 121.728 
L 220.736981 125.952 
L 221.122557 125.952 
L 221.508132 121.728 
L 221.893708 125.952 
L 222.279283 125.952 
L 222.664859 134.4 
L 223.050434 121.728 
L 224.20716 121.728 
L 224.592736 117.504 
L 225.363887 125.952 
L 226.135038 125.952 
L 226.520613 121.728 
L 227.291764 121.728 
L 227.67734 130.176 
L 228.062915 125.952 
L 228.448491 138.624 
L 228.834066 142.848 
L 229.219642 142.848 
L 229.605217 147.072 
L 229.990792 147.072 
L 230.376368 155.52 
L 231.91867 155.52 
L 232.304245 159.744 
L 232.689821 138.624 
L 234.232123 138.624 
L 235.003274 130.176 
L 235.388849 130.176 
L 235.774425 125.952 
L 236.16 125.952 
L 236.545575 134.4 
L 236.931151 134.4 
L 237.316726 121.728 
L 237.702302 117.504 
L 238.087877 117.504 
L 238.859028 125.952 
L 239.630179 142.848 
L 240.015755 138.624 
L 240.786906 147.072 
L 241.172481 147.072 
L 241.558057 142.848 
L 241.943632 147.072 
L 242.329208 147.072 
L 242.714783 142.848 
L 243.100358 147.072 
L 244.64266 147.072 
L 245.028236 142.848 
L 245.413811 147.072 
L 245.799387 147.072 
L 246.184962 142.848 
L 246.570538 142.848 
L 246.956113 134.4 
L 247.341689 134.4 
L 247.727264 138.624 
L 248.11284 138.624 
L 248.498415 142.848 
L 248.88399 155.52 
L 249.269566 155.52 
L 249.655141 159.744 
L 250.040717 155.52 
L 250.426292 159.744 
L 250.811868 159.744 
L 251.197443 168.192 
L 252.739745 168.192 
L 253.125321 172.416 
L 253.896472 172.416 
L 254.282047 168.192 
L 254.667623 168.192 
L 255.053198 172.416 
L 255.438773 172.416 
L 255.824349 176.64 
L 256.209924 168.192 
L 256.5955 168.192 
L 256.981075 172.416 
L 257.366651 180.864 
L 257.752226 185.088 
L 259.294528 168.192 
L 260.065679 185.088 
L 260.451255 185.088 
L 260.83683 180.864 
L 261.993556 180.864 
L 262.379132 168.192 
L 262.764707 163.968 
L 263.150283 168.192 
L 263.535858 163.968 
L 263.921434 163.968 
L 264.307009 159.744 
L 264.692585 172.416 
L 265.07816 172.416 
L 266.234887 159.744 
L 266.620462 159.744 
L 267.006038 151.296 
L 267.391613 138.624 
L 267.777189 130.176 
L 268.933915 130.176 
L 269.31949 142.848 
L 270.090641 151.296 
L 270.861792 151.296 
L 271.247368 155.52 
L 272.404094 155.52 
L 272.78967 142.848 
L 273.560821 142.848 
L 273.946396 134.4 
L 274.331971 134.4 
L 274.717547 138.624 
L 275.103122 138.624 
L 276.259849 125.952 
L 276.645424 113.28 
L 277.031 121.728 
L 277.416575 121.728 
L 277.802151 117.504 
L 278.187726 117.504 
L 278.573302 113.28 
L 279.344453 113.28 
L 279.730028 109.056 
L 280.501179 109.056 
L 280.886754 113.28 
L 281.657905 113.28 
L 282.043481 117.504 
L 282.429056 117.504 
L 282.814632 121.728 
L 283.585783 113.28 
L 283.971358 104.832 
L 284.742509 104.832 
L 285.128085 100.608 
L 285.899236 100.608 
L 286.284811 96.384 
L 286.670387 96.384 
L 287.055962 87.936 
L 287.441537 75.264 
L 288.212688 75.264 
L 288.598264 79.488 
L 288.983839 66.816 
L 290.140566 66.816 
L 290.526141 58.368 
L 290.911717 54.144 
L 291.297292 58.368 
L 292.068443 58.368 
L 292.454019 54.144 
L 292.839594 58.368 
L 293.99632 45.696 
L 294.381896 49.92 
L 294.767471 45.696 
L 295.153047 45.696 
L 295.538622 49.92 
L 295.924198 49.92 
L 296.309773 41.472 
L 296.695349 41.472 
L 297.080924 45.696 
L 297.852075 62.592 
L 298.237651 62.592 
L 298.623226 66.816 
L 299.008802 75.264 
L 299.779952 83.712 
L 301.70783 62.592 
L 302.864556 62.592 
L 303.250132 54.144 
L 303.635707 54.144 
L 304.406858 45.696 
L 305.178009 54.144 
L 305.563585 49.92 
L 305.94916 54.144 
L 306.334735 54.144 
L 306.720311 49.92 
L 307.105886 49.92 
L 307.491462 54.144 
L 307.877037 49.92 
L 308.262613 58.368 
L 308.648188 75.264 
L 309.419339 66.816 
L 309.804915 75.264 
L 310.19049 75.264 
L 310.961641 83.712 
L 311.732792 75.264 
L 312.118368 75.264 
L 312.889518 66.816 
L 313.275094 66.816 
L 313.660669 58.368 
L 314.046245 58.368 
L 314.43182 54.144 
L 315.202971 54.144 
L 315.588547 58.368 
L 315.974122 54.144 
L 316.745273 54.144 
L 317.130849 58.368 
L 317.902 49.92 
L 318.673151 49.92 
L 319.058726 54.144 
L 319.444301 66.816 
L 319.829877 66.816 
L 320.215452 71.04 
L 320.601028 71.04 
L 320.986603 79.488 
L 321.372179 83.712 
L 321.757754 83.712 
L 322.14333 87.936 
L 322.528905 100.608 
L 323.300056 92.16 
L 324.456783 92.16 
L 325.227933 100.608 
L 325.613509 109.056 
L 326.38466 117.504 
L 326.770235 130.176 
L 327.155811 125.952 
L 327.541386 125.952 
L 327.926962 117.504 
L 328.312537 121.728 
L 328.698113 121.728 
L 329.469264 113.28 
L 329.854839 113.28 
L 330.240415 109.056 
L 331.782716 109.056 
L 332.168292 100.608 
L 332.553867 104.832 
L 332.939443 100.608 
L 333.325018 109.056 
L 334.096169 109.056 
L 334.86732 100.608 
L 335.252896 109.056 
L 335.638471 109.056 
L 336.024047 113.28 
L 336.409622 104.832 
L 336.795198 100.608 
L 337.951924 100.608 
L 338.723075 109.056 
L 339.10865 109.056 
L 339.494226 104.832 
L 339.879801 113.28 
L 340.650952 113.28 
L 341.036528 109.056 
L 342.193254 121.728 
L 342.57883 121.728 
L 342.964405 130.176 
L 343.349981 121.728 
L 345.277858 121.728 
L 345.663433 125.952 
L 346.049009 125.952 
L 346.434584 130.176 
L 346.82016 125.952 
L 347.205735 130.176 
L 347.976886 130.176 
L 348.362462 125.952 
L 349.519188 125.952 
L 349.904764 121.728 
L 350.290339 125.952 
L 350.675914 121.728 
L 351.06149 125.952 
L 351.447065 121.728 
L 351.832641 121.728 
L 352.218216 125.952 
L 352.989367 125.952 
L 353.374943 130.176 
L 353.760518 130.176 
L 354.146094 125.952 
L 354.917245 125.952 
L 355.30282 134.4 
L 355.688396 130.176 
L 356.459547 138.624 
L 357.230697 138.624 
L 357.616273 130.176 
L 358.001848 130.176 
L 358.387424 125.952 
L 358.772999 125.952 
L 359.158575 121.728 
L 359.54415 121.728 
L 359.929726 134.4 
L 361.086452 134.4 
L 361.472028 130.176 
L 361.857603 130.176 
L 362.243179 134.4 
L 362.628754 125.952 
L 363.399905 125.952 
L 364.171056 134.4 
L 364.556631 134.4 
L 364.942207 138.624 
L 365.713358 138.624 
L 366.098933 134.4 
L 367.641235 134.4 
L 368.026811 138.624 
L 368.797962 155.52 
L 369.569113 155.52 
L 369.954688 151.296 
L 370.725839 151.296 
L 371.111414 142.848 
L 371.49699 147.072 
L 372.268141 147.072 
L 372.653716 151.296 
L 373.039292 142.848 
L 373.424867 142.848 
L 373.810443 134.4 
L 374.196018 130.176 
L 374.581594 130.176 
L 374.967169 125.952 
L 375.352745 134.4 
L 375.73832 138.624 
L 376.123895 138.624 
L 376.509471 142.848 
L 376.895046 142.848 
L 377.280622 138.624 
L 378.822924 138.624 
L 379.594075 147.072 
L 379.97965 147.072 
L 380.750801 138.624 
L 381.136377 138.624 
L 381.521952 142.848 
L 381.907528 151.296 
L 382.293103 142.848 
L 382.678678 147.072 
L 383.449829 147.072 
L 383.835405 151.296 
L 385.377707 151.296 
L 385.763282 155.52 
L 386.148858 163.968 
L 386.534433 163.968 
L 388.076735 180.864 
L 389.233461 180.864 
L 389.619037 185.088 
L 390.004612 185.088 
L 390.390188 189.312 
L 392.703641 189.312 
L 393.474792 197.76 
L 393.860367 197.76 
L 394.631518 206.208 
L 395.788244 206.208 
L 396.17382 214.656 
L 397.330546 214.656 
L 397.716122 218.88 
L 398.487273 218.88 
L 398.487273 218.88 
" style="fill:none;stroke:#0000ff;stroke-linecap:square;stroke-width:1.5;"/>
   </g>
   <g id="patch_3">
    <path d="M 57.6 307.584 
L 57.6 41.472 
" style="fill:none;stroke:#000000;stroke-linecap:square;stroke-linejoin:miter;stroke-width:0.8;"/>
   </g>
   <g id="patch_4">
    <path d="M 414.72 307.584 
L 414.72 41.472 
" style="fill:none;stroke:#000000;stroke-linecap:square;stroke-linejoin:miter;stroke-width:0.8;"/>
   </g>
   <g id="patch_5">
    <path d="M 57.6 307.584 
L 414.72 307.584 
" style="fill:none;stroke:#000000;stroke-linecap:square;stroke-linejoin:miter;stroke-width:0.8;"/>
   </g>
   <g id="patch_6">
    <path d="M 57.6 41.472 
L 414.72 41.472 
" style="fill:none;stroke:#000000;stroke-linecap:square;stroke-linejoin:miter;stroke-width:0.8;"/>
   </g>
   <g id="text_15">
    <!-- &gt;aac(3)-IIa_1_CP023555.1 Aminoglycoside resistance: -->
    <defs>
     <path d="M 10.59375 49.21875 
L 10.59375 58.109375 
L 73.1875 35.40625 
L 73.1875 27.296875 
L 10.59375 4.59375 
L 10.59375 13.484375 
L 60.890625 31.296875 
z
" id="DejaVuSans-62"/>
     <path d="M 34.28125 27.484375 
Q 23.390625 27.484375 19.1875 25 
Q 14.984375 22.515625 14.984375 16.5 
Q 14.984375 11.71875 18.140625 8.90625 
Q 21.296875 6.109375 26.703125 6.109375 
Q 34.1875 6.109375 38.703125 11.40625 
Q 43.21875 16.703125 43.21875 25.484375 
L 43.21875 27.484375 
z
M 52.203125 31.203125 
L 52.203125 0 
L 43.21875 0 
L 43.21875 8.296875 
Q 40.140625 3.328125 35.546875 0.953125 
Q 30.953125 -1.421875 24.3125 -1.421875 
Q 15.921875 -1.421875 10.953125 3.296875 
Q 6 8.015625 6 15.921875 
Q 6 25.140625 12.171875 29.828125 
Q 18.359375 34.515625 30.609375 34.515625 
L 43.21875 34.515625 
L 43.21875 35.40625 
Q 43.21875 41.609375 39.140625 45 
Q 35.0625 48.390625 27.6875 48.390625 
Q 23 48.390625 18.546875 47.265625 
Q 14.109375 46.140625 10.015625 43.890625 
L 10.015625 52.203125 
Q 14.9375 54.109375 19.578125 55.046875 
Q 24.21875 56 28.609375 56 
Q 40.484375 56 46.34375 49.84375 
Q 52.203125 43.703125 52.203125 31.203125 
z
" id="DejaVuSans-97"/>
     <path d="M 48.78125 52.59375 
L 48.78125 44.1875 
Q 44.96875 46.296875 41.140625 47.34375 
Q 37.3125 48.390625 33.40625 48.390625 
Q 24.65625 48.390625 19.8125 42.84375 
Q 14.984375 37.3125 14.984375 27.296875 
Q 14.984375 17.28125 19.8125 11.734375 
Q 24.65625 6.203125 33.40625 6.203125 
Q 37.3125 6.203125 41.140625 7.25 
Q 44.96875 8.296875 48.78125 10.40625 
L 48.78125 2.09375 
Q 45.015625 0.34375 40.984375 -0.53125 
Q 36.96875 -1.421875 32.421875 -1.421875 
Q 20.0625 -1.421875 12.78125 6.34375 
Q 5.515625 14.109375 5.515625 27.296875 
Q 5.515625 40.671875 12.859375 48.328125 
Q 20.21875 56 33.015625 56 
Q 37.15625 56 41.109375 55.140625 
Q 45.0625 54.296875 48.78125 52.59375 
z
" id="DejaVuSans-99"/>
     <path d="M 31 75.875 
Q 24.46875 64.65625 21.28125 53.65625 
Q 18.109375 42.671875 18.109375 31.390625 
Q 18.109375 20.125 21.3125 9.0625 
Q 24.515625 -2 31 -13.1875 
L 23.1875 -13.1875 
Q 15.875 -1.703125 12.234375 9.375 
Q 8.59375 20.453125 8.59375 31.390625 
Q 8.59375 42.28125 12.203125 53.3125 
Q 15.828125 64.359375 23.1875 75.875 
z
" id="DejaVuSans-40"/>
     <path d="M 8.015625 75.875 
L 15.828125 75.875 
Q 23.140625 64.359375 26.78125 53.3125 
Q 30.421875 42.28125 30.421875 31.390625 
Q 30.421875 20.453125 26.78125 9.375 
Q 23.140625 -1.703125 15.828125 -13.1875 
L 8.015625 -13.1875 
Q 14.5 -2 17.703125 9.0625 
Q 20.90625 20.125 20.90625 31.390625 
Q 20.90625 42.671875 17.703125 53.65625 
Q 14.5 64.65625 8.015625 75.875 
z
" id="DejaVuSans-41"/>
     <path d="M 4.890625 31.390625 
L 31.203125 31.390625 
L 31.203125 23.390625 
L 4.890625 23.390625 
z
" id="DejaVuSans-45"/>
     <path d="M 9.8125 72.90625 
L 19.671875 72.90625 
L 19.671875 0 
L 9.8125 0 
z
" id="DejaVuSans-73"/>
     <path d="M 50.984375 -16.609375 
L 50.984375 -23.578125 
L -0.984375 -23.578125 
L -0.984375 -16.609375 
z
" id="DejaVuSans-95"/>
     <path d="M 64.40625 67.28125 
L 64.40625 56.890625 
Q 59.421875 61.53125 53.78125 63.8125 
Q 48.140625 66.109375 41.796875 66.109375 
Q 29.296875 66.109375 22.65625 58.46875 
Q 16.015625 50.828125 16.015625 36.375 
Q 16.015625 21.96875 22.65625 14.328125 
Q 29.296875 6.6875 41.796875 6.6875 
Q 48.140625 6.6875 53.78125 8.984375 
Q 59.421875 11.28125 64.40625 15.921875 
L 64.40625 5.609375 
Q 59.234375 2.09375 53.4375 0.328125 
Q 47.65625 -1.421875 41.21875 -1.421875 
Q 24.65625 -1.421875 15.125 8.703125 
Q 5.609375 18.84375 5.609375 36.375 
Q 5.609375 53.953125 15.125 64.078125 
Q 24.65625 74.21875 41.21875 74.21875 
Q 47.75 74.21875 53.53125 72.484375 
Q 59.328125 70.75 64.40625 67.28125 
z
" id="DejaVuSans-67"/>
     <path d="M 19.671875 64.796875 
L 19.671875 37.40625 
L 32.078125 37.40625 
Q 38.96875 37.40625 42.71875 40.96875 
Q 46.484375 44.53125 46.484375 51.125 
Q 46.484375 57.671875 42.71875 61.234375 
Q 38.96875 64.796875 32.078125 64.796875 
z
M 9.8125 72.90625 
L 32.078125 72.90625 
Q 44.34375 72.90625 50.609375 67.359375 
Q 56.890625 61.8125 56.890625 51.125 
Q 56.890625 40.328125 50.609375 34.8125 
Q 44.34375 29.296875 32.078125 29.296875 
L 19.671875 29.296875 
L 19.671875 0 
L 9.8125 0 
z
" id="DejaVuSans-80"/>
     <path d="M 10.6875 12.40625 
L 21 12.40625 
L 21 0 
L 10.6875 0 
z
" id="DejaVuSans-46"/>
     <path d="M 34.1875 63.1875 
L 20.796875 26.90625 
L 47.609375 26.90625 
z
M 28.609375 72.90625 
L 39.796875 72.90625 
L 67.578125 0 
L 57.328125 0 
L 50.6875 18.703125 
L 17.828125 18.703125 
L 11.1875 0 
L 0.78125 0 
z
" id="DejaVuSans-65"/>
     <path d="M 52 44.1875 
Q 55.375 50.25 60.0625 53.125 
Q 64.75 56 71.09375 56 
Q 79.640625 56 84.28125 50.015625 
Q 88.921875 44.046875 88.921875 33.015625 
L 88.921875 0 
L 79.890625 0 
L 79.890625 32.71875 
Q 79.890625 40.578125 77.09375 44.375 
Q 74.3125 48.1875 68.609375 48.1875 
Q 61.625 48.1875 57.5625 43.546875 
Q 53.515625 38.921875 53.515625 30.90625 
L 53.515625 0 
L 44.484375 0 
L 44.484375 32.71875 
Q 44.484375 40.625 41.703125 44.40625 
Q 38.921875 48.1875 33.109375 48.1875 
Q 26.21875 48.1875 22.15625 43.53125 
Q 18.109375 38.875 18.109375 30.90625 
L 18.109375 0 
L 9.078125 0 
L 9.078125 54.6875 
L 18.109375 54.6875 
L 18.109375 46.1875 
Q 21.1875 51.21875 25.484375 53.609375 
Q 29.78125 56 35.6875 56 
Q 41.65625 56 45.828125 52.96875 
Q 50 49.953125 52 44.1875 
z
" id="DejaVuSans-109"/>
     <path d="M 9.421875 75.984375 
L 18.40625 75.984375 
L 18.40625 0 
L 9.421875 0 
z
" id="DejaVuSans-108"/>
     <path d="M 32.171875 -5.078125 
Q 28.375 -14.84375 24.75 -17.8125 
Q 21.140625 -20.796875 15.09375 -20.796875 
L 7.90625 -20.796875 
L 7.90625 -13.28125 
L 13.1875 -13.28125 
Q 16.890625 -13.28125 18.9375 -11.515625 
Q 21 -9.765625 23.484375 -3.21875 
L 25.09375 0.875 
L 2.984375 54.6875 
L 12.5 54.6875 
L 29.59375 11.921875 
L 46.6875 54.6875 
L 56.203125 54.6875 
z
" id="DejaVuSans-121"/>
     <path d="M 41.109375 46.296875 
Q 39.59375 47.171875 37.8125 47.578125 
Q 36.03125 48 33.890625 48 
Q 26.265625 48 22.1875 43.046875 
Q 18.109375 38.09375 18.109375 28.8125 
L 18.109375 0 
L 9.078125 0 
L 9.078125 54.6875 
L 18.109375 54.6875 
L 18.109375 46.1875 
Q 20.953125 51.171875 25.484375 53.578125 
Q 30.03125 56 36.53125 56 
Q 37.453125 56 38.578125 55.875 
Q 39.703125 55.765625 41.0625 55.515625 
z
" id="DejaVuSans-114"/>
     <path d="M 11.71875 12.40625 
L 22.015625 12.40625 
L 22.015625 0 
L 11.71875 0 
z
M 11.71875 51.703125 
L 22.015625 51.703125 
L 22.015625 39.3125 
L 11.71875 39.3125 
z
" id="DejaVuSans-58"/>
    </defs>
    <g transform="translate(72.231562 35.472)scale(0.12 -0.12)">
     <use xlink:href="#DejaVuSans-62"/>
     <use x="83.789062" xlink:href="#DejaVuSans-97"/>
     <use x="145.068359" xlink:href="#DejaVuSans-97"/>
     <use x="206.347656" xlink:href="#DejaVuSans-99"/>
     <use x="261.328125" xlink:href="#DejaVuSans-40"/>
     <use x="300.341797" xlink:href="#DejaVuSans-51"/>
     <use x="363.964844" xlink:href="#DejaVuSans-41"/>
     <use x="402.978516" xlink:href="#DejaVuSans-45"/>
     <use x="439.0625" xlink:href="#DejaVuSans-73"/>
     <use x="468.554688" xlink:href="#DejaVuSans-73"/>
     <use x="498.046875" xlink:href="#DejaVuSans-97"/>
     <use x="559.326172" xlink:href="#DejaVuSans-95"/>
     <use x="609.326172" xlink:href="#DejaVuSans-49"/>
     <use x="672.949219" xlink:href="#DejaVuSans-95"/>
     <use x="722.949219" xlink:href="#DejaVuSans-67"/>
     <use x="792.773438" xlink:href="#DejaVuSans-80"/>
     <use x="853.076172" xlink:href="#DejaVuSans-48"/>
     <use x="916.699219" xlink:href="#DejaVuSans-50"/>
     <use x="980.322266" xlink:href="#DejaVuSans-51"/>
     <use x="1043.945312" xlink:href="#DejaVuSans-53"/>
     <use x="1107.568359" xlink:href="#DejaVuSans-53"/>
     <use x="1171.191406" xlink:href="#DejaVuSans-53"/>
     <use x="1234.814453" xlink:href="#DejaVuSans-46"/>
     <use x="1266.601562" xlink:href="#DejaVuSans-49"/>
     <use x="1330.224609" xlink:href="#DejaVuSans-32"/>
     <use x="1362.011719" xlink:href="#DejaVuSans-65"/>
     <use x="1430.419922" xlink:href="#DejaVuSans-109"/>
     <use x="1527.832031" xlink:href="#DejaVuSans-105"/>
     <use x="1555.615234" xlink:href="#DejaVuSans-110"/>
     <use x="1618.994141" xlink:href="#DejaVuSans-111"/>
     <use x="1680.175781" xlink:href="#DejaVuSans-103"/>
     <use x="1743.652344" xlink:href="#DejaVuSans-108"/>
     <use x="1771.435547" xlink:href="#DejaVuSans-121"/>
     <use x="1830.615234" xlink:href="#DejaVuSans-99"/>
     <use x="1885.595703" xlink:href="#DejaVuSans-111"/>
     <use x="1946.777344" xlink:href="#DejaVuSans-115"/>
     <use x="1998.876953" xlink:href="#DejaVuSans-105"/>
     <use x="2026.660156" xlink:href="#DejaVuSans-100"/>
     <use x="2090.136719" xlink:href="#DejaVuSans-101"/>
     <use x="2151.660156" xlink:href="#DejaVuSans-32"/>
     <use x="2183.447266" xlink:href="#DejaVuSans-114"/>
     <use x="2224.529297" xlink:href="#DejaVuSans-101"/>
     <use x="2286.052734" xlink:href="#DejaVuSans-115"/>
     <use x="2338.152344" xlink:href="#DejaVuSans-105"/>
     <use x="2365.935547" xlink:href="#DejaVuSans-115"/>
     <use x="2418.035156" xlink:href="#DejaVuSans-116"/>
     <use x="2457.244141" xlink:href="#DejaVuSans-97"/>
     <use x="2518.523438" xlink:href="#DejaVuSans-110"/>
     <use x="2581.902344" xlink:href="#DejaVuSans-99"/>
     <use x="2636.882812" xlink:href="#DejaVuSans-101"/>
     <use x="2698.40625" xlink:href="#DejaVuSans-58"/>
    </g>
   </g>
  </g>
 </g>
 <defs>
  <clipPath id="pbee6657b4c">
   <rect height="266.112" width="357.12" x="57.6" y="41.472"/>
  </clipPath>
 </defs>
</svg>
