<?xml version="1.0" encoding="utf-8" standalone="no"?>
<!DOCTYPE svg PUBLIC "-//W3C//DTD SVG 1.1//EN"
  "http://www.w3.org/Graphics/SVG/1.1/DTD/svg11.dtd">
<!-- Created with matplotlib (https://matplotlib.org/) -->
<svg height="345.6pt" version="1.1" viewBox="0 0 460.8 345.6" width="460.8pt" xmlns="http://www.w3.org/2000/svg" xmlns:xlink="http://www.w3.org/1999/xlink">
 <defs>
  <style type="text/css">
*{stroke-linecap:butt;stroke-linejoin:round;}
  </style>
 </defs>
 <g id="figure_1">
  <g id="patch_1">
   <path d="M 0 345.6 
L 460.8 345.6 
L 460.8 0 
L 0 0 
z
" style="fill:#ffffff;"/>
  </g>
  <g id="axes_1">
   <g id="patch_2">
    <path d="M 57.6 307.584 
L 414.72 307.584 
L 414.72 41.472 
L 57.6 41.472 
z
" style="fill:#ffffff;"/>
   </g>
   <g id="matplotlib.axis_1">
    <g id="xtick_1">
     <g id="line2d_1">
      <defs>
       <path d="M 0 0 
L 0 3.5 
" id="mdd529264ff" style="stroke:#000000;stroke-width:0.8;"/>
      </defs>
      <g>
       <use style="stroke:#000000;stroke-width:0.8;" x="73.832727" xlink:href="#mdd529264ff" y="307.584"/>
      </g>
     </g>
     <g id="text_1">
      <!-- 0 -->
      <defs>
       <path d="M 31.78125 66.40625 
Q 24.171875 66.40625 20.328125 58.90625 
Q 16.5 51.421875 16.5 36.375 
Q 16.5 21.390625 20.328125 13.890625 
Q 24.171875 6.390625 31.78125 6.390625 
Q 39.453125 6.390625 43.28125 13.890625 
Q 47.125 21.390625 47.125 36.375 
Q 47.125 51.421875 43.28125 58.90625 
Q 39.453125 66.40625 31.78125 66.40625 
z
M 31.78125 74.21875 
Q 44.046875 74.21875 50.515625 64.515625 
Q 56.984375 54.828125 56.984375 36.375 
Q 56.984375 17.96875 50.515625 8.265625 
Q 44.046875 -1.421875 31.78125 -1.421875 
Q 19.53125 -1.421875 13.0625 8.265625 
Q 6.59375 17.96875 6.59375 36.375 
Q 6.59375 54.828125 13.0625 64.515625 
Q 19.53125 74.21875 31.78125 74.21875 
z
" id="DejaVuSans-48"/>
      </defs>
      <g transform="translate(70.651477 322.182437)scale(0.1 -0.1)">
       <use xlink:href="#DejaVuSans-48"/>
      </g>
     </g>
    </g>
    <g id="xtick_2">
     <g id="line2d_2">
      <g>
       <use style="stroke:#000000;stroke-width:0.8;" x="149.509777" xlink:href="#mdd529264ff" y="307.584"/>
      </g>
     </g>
     <g id="text_2">
      <!-- 200 -->
      <defs>
       <path d="M 19.1875 8.296875 
L 53.609375 8.296875 
L 53.609375 0 
L 7.328125 0 
L 7.328125 8.296875 
Q 12.9375 14.109375 22.625 23.890625 
Q 32.328125 33.6875 34.8125 36.53125 
Q 39.546875 41.84375 41.421875 45.53125 
Q 43.3125 49.21875 43.3125 52.78125 
Q 43.3125 58.59375 39.234375 62.25 
Q 35.15625 65.921875 28.609375 65.921875 
Q 23.96875 65.921875 18.8125 64.3125 
Q 13.671875 62.703125 7.8125 59.421875 
L 7.8125 69.390625 
Q 13.765625 71.78125 18.9375 73 
Q 24.125 74.21875 28.421875 74.21875 
Q 39.75 74.21875 46.484375 68.546875 
Q 53.21875 62.890625 53.21875 53.421875 
Q 53.21875 48.921875 51.53125 44.890625 
Q 49.859375 40.875 45.40625 35.40625 
Q 44.1875 33.984375 37.640625 27.21875 
Q 31.109375 20.453125 19.1875 8.296875 
z
" id="DejaVuSans-50"/>
      </defs>
      <g transform="translate(139.966027 322.182437)scale(0.1 -0.1)">
       <use xlink:href="#DejaVuSans-50"/>
       <use x="63.623047" xlink:href="#DejaVuSans-48"/>
       <use x="127.246094" xlink:href="#DejaVuSans-48"/>
      </g>
     </g>
    </g>
    <g id="xtick_3">
     <g id="line2d_3">
      <g>
       <use style="stroke:#000000;stroke-width:0.8;" x="225.186828" xlink:href="#mdd529264ff" y="307.584"/>
      </g>
     </g>
     <g id="text_3">
      <!-- 400 -->
      <defs>
       <path d="M 37.796875 64.3125 
L 12.890625 25.390625 
L 37.796875 25.390625 
z
M 35.203125 72.90625 
L 47.609375 72.90625 
L 47.609375 25.390625 
L 58.015625 25.390625 
L 58.015625 17.1875 
L 47.609375 17.1875 
L 47.609375 0 
L 37.796875 0 
L 37.796875 17.1875 
L 4.890625 17.1875 
L 4.890625 26.703125 
z
" id="DejaVuSans-52"/>
      </defs>
      <g transform="translate(215.643078 322.182437)scale(0.1 -0.1)">
       <use xlink:href="#DejaVuSans-52"/>
       <use x="63.623047" xlink:href="#DejaVuSans-48"/>
       <use x="127.246094" xlink:href="#DejaVuSans-48"/>
      </g>
     </g>
    </g>
    <g id="xtick_4">
     <g id="line2d_4">
      <g>
       <use style="stroke:#000000;stroke-width:0.8;" x="300.863878" xlink:href="#mdd529264ff" y="307.584"/>
      </g>
     </g>
     <g id="text_4">
      <!-- 600 -->
      <defs>
       <path d="M 33.015625 40.375 
Q 26.375 40.375 22.484375 35.828125 
Q 18.609375 31.296875 18.609375 23.390625 
Q 18.609375 15.53125 22.484375 10.953125 
Q 26.375 6.390625 33.015625 6.390625 
Q 39.65625 6.390625 43.53125 10.953125 
Q 47.40625 15.53125 47.40625 23.390625 
Q 47.40625 31.296875 43.53125 35.828125 
Q 39.65625 40.375 33.015625 40.375 
z
M 52.59375 71.296875 
L 52.59375 62.3125 
Q 48.875 64.0625 45.09375 64.984375 
Q 41.3125 65.921875 37.59375 65.921875 
Q 27.828125 65.921875 22.671875 59.328125 
Q 17.53125 52.734375 16.796875 39.40625 
Q 19.671875 43.65625 24.015625 45.921875 
Q 28.375 48.1875 33.59375 48.1875 
Q 44.578125 48.1875 50.953125 41.515625 
Q 57.328125 34.859375 57.328125 23.390625 
Q 57.328125 12.15625 50.6875 5.359375 
Q 44.046875 -1.421875 33.015625 -1.421875 
Q 20.359375 -1.421875 13.671875 8.265625 
Q 6.984375 17.96875 6.984375 36.375 
Q 6.984375 53.65625 15.1875 63.9375 
Q 23.390625 74.21875 37.203125 74.21875 
Q 40.921875 74.21875 44.703125 73.484375 
Q 48.484375 72.75 52.59375 71.296875 
z
" id="DejaVuSans-54"/>
      </defs>
      <g transform="translate(291.320128 322.182437)scale(0.1 -0.1)">
       <use xlink:href="#DejaVuSans-54"/>
       <use x="63.623047" xlink:href="#DejaVuSans-48"/>
       <use x="127.246094" xlink:href="#DejaVuSans-48"/>
      </g>
     </g>
    </g>
    <g id="xtick_5">
     <g id="line2d_5">
      <g>
       <use style="stroke:#000000;stroke-width:0.8;" x="376.540928" xlink:href="#mdd529264ff" y="307.584"/>
      </g>
     </g>
     <g id="text_5">
      <!-- 800 -->
      <defs>
       <path d="M 31.78125 34.625 
Q 24.75 34.625 20.71875 30.859375 
Q 16.703125 27.09375 16.703125 20.515625 
Q 16.703125 13.921875 20.71875 10.15625 
Q 24.75 6.390625 31.78125 6.390625 
Q 38.8125 6.390625 42.859375 10.171875 
Q 46.921875 13.96875 46.921875 20.515625 
Q 46.921875 27.09375 42.890625 30.859375 
Q 38.875 34.625 31.78125 34.625 
z
M 21.921875 38.8125 
Q 15.578125 40.375 12.03125 44.71875 
Q 8.5 49.078125 8.5 55.328125 
Q 8.5 64.0625 14.71875 69.140625 
Q 20.953125 74.21875 31.78125 74.21875 
Q 42.671875 74.21875 48.875 69.140625 
Q 55.078125 64.0625 55.078125 55.328125 
Q 55.078125 49.078125 51.53125 44.71875 
Q 48 40.375 41.703125 38.8125 
Q 48.828125 37.15625 52.796875 32.3125 
Q 56.78125 27.484375 56.78125 20.515625 
Q 56.78125 9.90625 50.3125 4.234375 
Q 43.84375 -1.421875 31.78125 -1.421875 
Q 19.734375 -1.421875 13.25 4.234375 
Q 6.78125 9.90625 6.78125 20.515625 
Q 6.78125 27.484375 10.78125 32.3125 
Q 14.796875 37.15625 21.921875 38.8125 
z
M 18.3125 54.390625 
Q 18.3125 48.734375 21.84375 45.5625 
Q 25.390625 42.390625 31.78125 42.390625 
Q 38.140625 42.390625 41.71875 45.5625 
Q 45.3125 48.734375 45.3125 54.390625 
Q 45.3125 60.0625 41.71875 63.234375 
Q 38.140625 66.40625 31.78125 66.40625 
Q 25.390625 66.40625 21.84375 63.234375 
Q 18.3125 60.0625 18.3125 54.390625 
z
" id="DejaVuSans-56"/>
      </defs>
      <g transform="translate(366.997178 322.182437)scale(0.1 -0.1)">
       <use xlink:href="#DejaVuSans-56"/>
       <use x="63.623047" xlink:href="#DejaVuSans-48"/>
       <use x="127.246094" xlink:href="#DejaVuSans-48"/>
      </g>
     </g>
    </g>
    <g id="text_6">
     <!-- gene position -->
     <defs>
      <path d="M 45.40625 27.984375 
Q 45.40625 37.75 41.375 43.109375 
Q 37.359375 48.484375 30.078125 48.484375 
Q 22.859375 48.484375 18.828125 43.109375 
Q 14.796875 37.75 14.796875 27.984375 
Q 14.796875 18.265625 18.828125 12.890625 
Q 22.859375 7.515625 30.078125 7.515625 
Q 37.359375 7.515625 41.375 12.890625 
Q 45.40625 18.265625 45.40625 27.984375 
z
M 54.390625 6.78125 
Q 54.390625 -7.171875 48.1875 -13.984375 
Q 42 -20.796875 29.203125 -20.796875 
Q 24.46875 -20.796875 20.265625 -20.09375 
Q 16.0625 -19.390625 12.109375 -17.921875 
L 12.109375 -9.1875 
Q 16.0625 -11.328125 19.921875 -12.34375 
Q 23.78125 -13.375 27.78125 -13.375 
Q 36.625 -13.375 41.015625 -8.765625 
Q 45.40625 -4.15625 45.40625 5.171875 
L 45.40625 9.625 
Q 42.625 4.78125 38.28125 2.390625 
Q 33.9375 0 27.875 0 
Q 17.828125 0 11.671875 7.65625 
Q 5.515625 15.328125 5.515625 27.984375 
Q 5.515625 40.671875 11.671875 48.328125 
Q 17.828125 56 27.875 56 
Q 33.9375 56 38.28125 53.609375 
Q 42.625 51.21875 45.40625 46.390625 
L 45.40625 54.6875 
L 54.390625 54.6875 
z
" id="DejaVuSans-103"/>
      <path d="M 56.203125 29.59375 
L 56.203125 25.203125 
L 14.890625 25.203125 
Q 15.484375 15.921875 20.484375 11.0625 
Q 25.484375 6.203125 34.421875 6.203125 
Q 39.59375 6.203125 44.453125 7.46875 
Q 49.3125 8.734375 54.109375 11.28125 
L 54.109375 2.78125 
Q 49.265625 0.734375 44.1875 -0.34375 
Q 39.109375 -1.421875 33.890625 -1.421875 
Q 20.796875 -1.421875 13.15625 6.1875 
Q 5.515625 13.8125 5.515625 26.8125 
Q 5.515625 40.234375 12.765625 48.109375 
Q 20.015625 56 32.328125 56 
Q 43.359375 56 49.78125 48.890625 
Q 56.203125 41.796875 56.203125 29.59375 
z
M 47.21875 32.234375 
Q 47.125 39.59375 43.09375 43.984375 
Q 39.0625 48.390625 32.421875 48.390625 
Q 24.90625 48.390625 20.390625 44.140625 
Q 15.875 39.890625 15.1875 32.171875 
z
" id="DejaVuSans-101"/>
      <path d="M 54.890625 33.015625 
L 54.890625 0 
L 45.90625 0 
L 45.90625 32.71875 
Q 45.90625 40.484375 42.875 44.328125 
Q 39.84375 48.1875 33.796875 48.1875 
Q 26.515625 48.1875 22.3125 43.546875 
Q 18.109375 38.921875 18.109375 30.90625 
L 18.109375 0 
L 9.078125 0 
L 9.078125 54.6875 
L 18.109375 54.6875 
L 18.109375 46.1875 
Q 21.34375 51.125 25.703125 53.5625 
Q 30.078125 56 35.796875 56 
Q 45.21875 56 50.046875 50.171875 
Q 54.890625 44.34375 54.890625 33.015625 
z
" id="DejaVuSans-110"/>
      <path id="DejaVuSans-32"/>
      <path d="M 18.109375 8.203125 
L 18.109375 -20.796875 
L 9.078125 -20.796875 
L 9.078125 54.6875 
L 18.109375 54.6875 
L 18.109375 46.390625 
Q 20.953125 51.265625 25.265625 53.625 
Q 29.59375 56 35.59375 56 
Q 45.5625 56 51.78125 48.09375 
Q 58.015625 40.1875 58.015625 27.296875 
Q 58.015625 14.40625 51.78125 6.484375 
Q 45.5625 -1.421875 35.59375 -1.421875 
Q 29.59375 -1.421875 25.265625 0.953125 
Q 20.953125 3.328125 18.109375 8.203125 
z
M 48.6875 27.296875 
Q 48.6875 37.203125 44.609375 42.84375 
Q 40.53125 48.484375 33.40625 48.484375 
Q 26.265625 48.484375 22.1875 42.84375 
Q 18.109375 37.203125 18.109375 27.296875 
Q 18.109375 17.390625 22.1875 11.75 
Q 26.265625 6.109375 33.40625 6.109375 
Q 40.53125 6.109375 44.609375 11.75 
Q 48.6875 17.390625 48.6875 27.296875 
z
" id="DejaVuSans-112"/>
      <path d="M 30.609375 48.390625 
Q 23.390625 48.390625 19.1875 42.75 
Q 14.984375 37.109375 14.984375 27.296875 
Q 14.984375 17.484375 19.15625 11.84375 
Q 23.34375 6.203125 30.609375 6.203125 
Q 37.796875 6.203125 41.984375 11.859375 
Q 46.1875 17.53125 46.1875 27.296875 
Q 46.1875 37.015625 41.984375 42.703125 
Q 37.796875 48.390625 30.609375 48.390625 
z
M 30.609375 56 
Q 42.328125 56 49.015625 48.375 
Q 55.71875 40.765625 55.71875 27.296875 
Q 55.71875 13.875 49.015625 6.21875 
Q 42.328125 -1.421875 30.609375 -1.421875 
Q 18.84375 -1.421875 12.171875 6.21875 
Q 5.515625 13.875 5.515625 27.296875 
Q 5.515625 40.765625 12.171875 48.375 
Q 18.84375 56 30.609375 56 
z
" id="DejaVuSans-111"/>
      <path d="M 44.28125 53.078125 
L 44.28125 44.578125 
Q 40.484375 46.53125 36.375 47.5 
Q 32.28125 48.484375 27.875 48.484375 
Q 21.1875 48.484375 17.84375 46.4375 
Q 14.5 44.390625 14.5 40.28125 
Q 14.5 37.15625 16.890625 35.375 
Q 19.28125 33.59375 26.515625 31.984375 
L 29.59375 31.296875 
Q 39.15625 29.25 43.1875 25.515625 
Q 47.21875 21.78125 47.21875 15.09375 
Q 47.21875 7.46875 41.1875 3.015625 
Q 35.15625 -1.421875 24.609375 -1.421875 
Q 20.21875 -1.421875 15.453125 -0.5625 
Q 10.6875 0.296875 5.421875 2 
L 5.421875 11.28125 
Q 10.40625 8.6875 15.234375 7.390625 
Q 20.0625 6.109375 24.8125 6.109375 
Q 31.15625 6.109375 34.5625 8.28125 
Q 37.984375 10.453125 37.984375 14.40625 
Q 37.984375 18.0625 35.515625 20.015625 
Q 33.0625 21.96875 24.703125 23.78125 
L 21.578125 24.515625 
Q 13.234375 26.265625 9.515625 29.90625 
Q 5.8125 33.546875 5.8125 39.890625 
Q 5.8125 47.609375 11.28125 51.796875 
Q 16.75 56 26.8125 56 
Q 31.78125 56 36.171875 55.265625 
Q 40.578125 54.546875 44.28125 53.078125 
z
" id="DejaVuSans-115"/>
      <path d="M 9.421875 54.6875 
L 18.40625 54.6875 
L 18.40625 0 
L 9.421875 0 
z
M 9.421875 75.984375 
L 18.40625 75.984375 
L 18.40625 64.59375 
L 9.421875 64.59375 
z
" id="DejaVuSans-105"/>
      <path d="M 18.3125 70.21875 
L 18.3125 54.6875 
L 36.8125 54.6875 
L 36.8125 47.703125 
L 18.3125 47.703125 
L 18.3125 18.015625 
Q 18.3125 11.328125 20.140625 9.421875 
Q 21.96875 7.515625 27.59375 7.515625 
L 36.8125 7.515625 
L 36.8125 0 
L 27.59375 0 
Q 17.1875 0 13.234375 3.875 
Q 9.28125 7.765625 9.28125 18.015625 
L 9.28125 47.703125 
L 2.6875 47.703125 
L 2.6875 54.6875 
L 9.28125 54.6875 
L 9.28125 70.21875 
z
" id="DejaVuSans-116"/>
     </defs>
     <g transform="translate(202.270156 335.860562)scale(0.1 -0.1)">
      <use xlink:href="#DejaVuSans-103"/>
      <use x="63.476562" xlink:href="#DejaVuSans-101"/>
      <use x="125" xlink:href="#DejaVuSans-110"/>
      <use x="188.378906" xlink:href="#DejaVuSans-101"/>
      <use x="249.902344" xlink:href="#DejaVuSans-32"/>
      <use x="281.689453" xlink:href="#DejaVuSans-112"/>
      <use x="345.166016" xlink:href="#DejaVuSans-111"/>
      <use x="406.347656" xlink:href="#DejaVuSans-115"/>
      <use x="458.447266" xlink:href="#DejaVuSans-105"/>
      <use x="486.230469" xlink:href="#DejaVuSans-116"/>
      <use x="525.439453" xlink:href="#DejaVuSans-105"/>
      <use x="553.222656" xlink:href="#DejaVuSans-111"/>
      <use x="614.404297" xlink:href="#DejaVuSans-110"/>
     </g>
    </g>
   </g>
   <g id="matplotlib.axis_2">
    <g id="ytick_1">
     <g id="line2d_6">
      <defs>
       <path d="M 0 0 
L -3.5 0 
" id="m1dab1be52f" style="stroke:#000000;stroke-width:0.8;"/>
      </defs>
      <g>
       <use style="stroke:#000000;stroke-width:0.8;" x="57.6" xlink:href="#m1dab1be52f" y="307.584"/>
      </g>
     </g>
     <g id="text_7">
      <!-- 0 -->
      <g transform="translate(44.2375 311.383219)scale(0.1 -0.1)">
       <use xlink:href="#DejaVuSans-48"/>
      </g>
     </g>
    </g>
    <g id="ytick_2">
     <g id="line2d_7">
      <g>
       <use style="stroke:#000000;stroke-width:0.8;" x="57.6" xlink:href="#m1dab1be52f" y="256.408615"/>
      </g>
     </g>
     <g id="text_8">
      <!-- 10 -->
      <defs>
       <path d="M 12.40625 8.296875 
L 28.515625 8.296875 
L 28.515625 63.921875 
L 10.984375 60.40625 
L 10.984375 69.390625 
L 28.421875 72.90625 
L 38.28125 72.90625 
L 38.28125 8.296875 
L 54.390625 8.296875 
L 54.390625 0 
L 12.40625 0 
z
" id="DejaVuSans-49"/>
      </defs>
      <g transform="translate(37.875 260.207834)scale(0.1 -0.1)">
       <use xlink:href="#DejaVuSans-49"/>
       <use x="63.623047" xlink:href="#DejaVuSans-48"/>
      </g>
     </g>
    </g>
    <g id="ytick_3">
     <g id="line2d_8">
      <g>
       <use style="stroke:#000000;stroke-width:0.8;" x="57.6" xlink:href="#m1dab1be52f" y="205.233231"/>
      </g>
     </g>
     <g id="text_9">
      <!-- 20 -->
      <g transform="translate(37.875 209.03245)scale(0.1 -0.1)">
       <use xlink:href="#DejaVuSans-50"/>
       <use x="63.623047" xlink:href="#DejaVuSans-48"/>
      </g>
     </g>
    </g>
    <g id="ytick_4">
     <g id="line2d_9">
      <g>
       <use style="stroke:#000000;stroke-width:0.8;" x="57.6" xlink:href="#m1dab1be52f" y="154.057846"/>
      </g>
     </g>
     <g id="text_10">
      <!-- 30 -->
      <defs>
       <path d="M 40.578125 39.3125 
Q 47.65625 37.796875 51.625 33 
Q 55.609375 28.21875 55.609375 21.1875 
Q 55.609375 10.40625 48.1875 4.484375 
Q 40.765625 -1.421875 27.09375 -1.421875 
Q 22.515625 -1.421875 17.65625 -0.515625 
Q 12.796875 0.390625 7.625 2.203125 
L 7.625 11.71875 
Q 11.71875 9.328125 16.59375 8.109375 
Q 21.484375 6.890625 26.8125 6.890625 
Q 36.078125 6.890625 40.9375 10.546875 
Q 45.796875 14.203125 45.796875 21.1875 
Q 45.796875 27.640625 41.28125 31.265625 
Q 36.765625 34.90625 28.71875 34.90625 
L 20.21875 34.90625 
L 20.21875 43.015625 
L 29.109375 43.015625 
Q 36.375 43.015625 40.234375 45.921875 
Q 44.09375 48.828125 44.09375 54.296875 
Q 44.09375 59.90625 40.109375 62.90625 
Q 36.140625 65.921875 28.71875 65.921875 
Q 24.65625 65.921875 20.015625 65.03125 
Q 15.375 64.15625 9.8125 62.3125 
L 9.8125 71.09375 
Q 15.4375 72.65625 20.34375 73.4375 
Q 25.25 74.21875 29.59375 74.21875 
Q 40.828125 74.21875 47.359375 69.109375 
Q 53.90625 64.015625 53.90625 55.328125 
Q 53.90625 49.265625 50.4375 45.09375 
Q 46.96875 40.921875 40.578125 39.3125 
z
" id="DejaVuSans-51"/>
      </defs>
      <g transform="translate(37.875 157.857065)scale(0.1 -0.1)">
       <use xlink:href="#DejaVuSans-51"/>
       <use x="63.623047" xlink:href="#DejaVuSans-48"/>
      </g>
     </g>
    </g>
    <g id="ytick_5">
     <g id="line2d_10">
      <g>
       <use style="stroke:#000000;stroke-width:0.8;" x="57.6" xlink:href="#m1dab1be52f" y="102.882462"/>
      </g>
     </g>
     <g id="text_11">
      <!-- 40 -->
      <g transform="translate(37.875 106.68168)scale(0.1 -0.1)">
       <use xlink:href="#DejaVuSans-52"/>
       <use x="63.623047" xlink:href="#DejaVuSans-48"/>
      </g>
     </g>
    </g>
    <g id="ytick_6">
     <g id="line2d_11">
      <g>
       <use style="stroke:#000000;stroke-width:0.8;" x="57.6" xlink:href="#m1dab1be52f" y="51.707077"/>
      </g>
     </g>
     <g id="text_12">
      <!-- 50 -->
      <defs>
       <path d="M 10.796875 72.90625 
L 49.515625 72.90625 
L 49.515625 64.59375 
L 19.828125 64.59375 
L 19.828125 46.734375 
Q 21.96875 47.46875 24.109375 47.828125 
Q 26.265625 48.1875 28.421875 48.1875 
Q 40.625 48.1875 47.75 41.5 
Q 54.890625 34.8125 54.890625 23.390625 
Q 54.890625 11.625 47.5625 5.09375 
Q 40.234375 -1.421875 26.90625 -1.421875 
Q 22.3125 -1.421875 17.546875 -0.640625 
Q 12.796875 0.140625 7.71875 1.703125 
L 7.71875 11.625 
Q 12.109375 9.234375 16.796875 8.0625 
Q 21.484375 6.890625 26.703125 6.890625 
Q 35.15625 6.890625 40.078125 11.328125 
Q 45.015625 15.765625 45.015625 23.390625 
Q 45.015625 31 40.078125 35.4375 
Q 35.15625 39.890625 26.703125 39.890625 
Q 22.75 39.890625 18.8125 39.015625 
Q 14.890625 38.140625 10.796875 36.28125 
z
" id="DejaVuSans-53"/>
      </defs>
      <g transform="translate(37.875 55.506296)scale(0.1 -0.1)">
       <use xlink:href="#DejaVuSans-53"/>
       <use x="63.623047" xlink:href="#DejaVuSans-48"/>
      </g>
     </g>
    </g>
    <g id="text_13">
     <!-- depth -->
     <defs>
      <path d="M 45.40625 46.390625 
L 45.40625 75.984375 
L 54.390625 75.984375 
L 54.390625 0 
L 45.40625 0 
L 45.40625 8.203125 
Q 42.578125 3.328125 38.25 0.953125 
Q 33.9375 -1.421875 27.875 -1.421875 
Q 17.96875 -1.421875 11.734375 6.484375 
Q 5.515625 14.40625 5.515625 27.296875 
Q 5.515625 40.1875 11.734375 48.09375 
Q 17.96875 56 27.875 56 
Q 33.9375 56 38.25 53.625 
Q 42.578125 51.265625 45.40625 46.390625 
z
M 14.796875 27.296875 
Q 14.796875 17.390625 18.875 11.75 
Q 22.953125 6.109375 30.078125 6.109375 
Q 37.203125 6.109375 41.296875 11.75 
Q 45.40625 17.390625 45.40625 27.296875 
Q 45.40625 37.203125 41.296875 42.84375 
Q 37.203125 48.484375 30.078125 48.484375 
Q 22.953125 48.484375 18.875 42.84375 
Q 14.796875 37.203125 14.796875 27.296875 
z
" id="DejaVuSans-100"/>
      <path d="M 54.890625 33.015625 
L 54.890625 0 
L 45.90625 0 
L 45.90625 32.71875 
Q 45.90625 40.484375 42.875 44.328125 
Q 39.84375 48.1875 33.796875 48.1875 
Q 26.515625 48.1875 22.3125 43.546875 
Q 18.109375 38.921875 18.109375 30.90625 
L 18.109375 0 
L 9.078125 0 
L 9.078125 75.984375 
L 18.109375 75.984375 
L 18.109375 46.1875 
Q 21.34375 51.125 25.703125 53.5625 
Q 30.078125 56 35.796875 56 
Q 45.21875 56 50.046875 50.171875 
Q 54.890625 44.34375 54.890625 33.015625 
z
" id="DejaVuSans-104"/>
     </defs>
     <g transform="translate(31.795312 189.081906)rotate(-90)scale(0.1 -0.1)">
      <use xlink:href="#DejaVuSans-100"/>
      <use x="63.476562" xlink:href="#DejaVuSans-101"/>
      <use x="125" xlink:href="#DejaVuSans-112"/>
      <use x="188.476562" xlink:href="#DejaVuSans-116"/>
      <use x="227.685547" xlink:href="#DejaVuSans-104"/>
     </g>
    </g>
   </g>
   <g id="line2d_12">
    <path clip-path="url(#p64b3cc61f7)" d="M 73.832727 189.880615 
L 74.969208 189.880615 
L 75.348034 179.645538 
L 76.105688 179.645538 
L 76.484515 174.528 
L 76.863341 164.292923 
L 77.242168 164.292923 
L 77.620995 159.175385 
L 77.999822 159.175385 
L 78.378649 154.057846 
L 78.757475 154.057846 
L 79.136302 148.940308 
L 79.893956 148.940308 
L 80.272782 143.822769 
L 81.030436 143.822769 
L 81.409263 138.705231 
L 82.545743 138.705231 
L 82.92457 133.587692 
L 83.303397 123.352615 
L 83.682223 123.352615 
L 84.439877 113.117538 
L 87.849318 113.117538 
L 88.228145 108 
L 89.364625 108 
L 89.743452 113.117538 
L 90.122279 102.882462 
L 90.501105 102.882462 
L 90.879932 108 
L 91.637586 97.764923 
L 92.016412 97.764923 
L 92.395239 92.647385 
L 92.774066 102.882462 
L 93.152893 108 
L 93.53172 102.882462 
L 93.910546 113.117538 
L 94.289373 108 
L 95.425853 108 
L 95.80468 102.882462 
L 96.183507 102.882462 
L 96.562334 118.235077 
L 98.077641 97.764923 
L 99.971775 97.764923 
L 100.350601 92.647385 
L 100.729428 97.764923 
L 102.244735 97.764923 
L 102.623562 92.647385 
L 103.002389 102.882462 
L 103.381216 102.882462 
L 103.760042 97.764923 
L 104.138869 102.882462 
L 104.517696 102.882462 
L 104.896523 108 
L 105.27535 118.235077 
L 106.033003 118.235077 
L 106.41183 113.117538 
L 106.790657 123.352615 
L 107.54831 102.882462 
L 107.927137 108 
L 108.305964 118.235077 
L 108.68479 102.882462 
L 109.063617 108 
L 109.442444 102.882462 
L 109.821271 102.882462 
L 110.200098 97.764923 
L 110.578924 102.882462 
L 111.336578 102.882462 
L 111.715405 108 
L 113.230712 108 
L 113.609539 102.882462 
L 114.367192 102.882462 
L 114.746019 108 
L 116.261326 108 
L 116.640153 102.882462 
L 117.01898 92.647385 
L 117.397806 92.647385 
L 117.776633 77.294769 
L 118.15546 77.294769 
L 118.913113 87.529846 
L 119.29194 87.529846 
L 119.670767 92.647385 
L 120.42842 92.647385 
L 120.807247 87.529846 
L 121.186074 87.529846 
L 121.564901 92.647385 
L 121.943728 82.412308 
L 122.701381 82.412308 
L 123.080208 92.647385 
L 123.459035 92.647385 
L 123.837861 97.764923 
L 124.216688 92.647385 
L 125.731995 92.647385 
L 126.489649 72.177231 
L 126.868476 77.294769 
L 127.247302 92.647385 
L 127.626129 77.294769 
L 128.004956 77.294769 
L 129.141436 92.647385 
L 129.520263 77.294769 
L 129.89909 82.412308 
L 130.277917 82.412308 
L 130.656743 77.294769 
L 132.550877 77.294769 
L 132.929704 67.059692 
L 133.308531 72.177231 
L 134.066184 72.177231 
L 134.445011 77.294769 
L 135.202665 77.294769 
L 135.581491 67.059692 
L 135.960318 67.059692 
L 136.339145 72.177231 
L 136.717972 72.177231 
L 137.096799 67.059692 
L 137.475625 56.824615 
L 138.233279 46.589538 
L 138.612106 51.707077 
L 138.990932 61.942154 
L 139.369759 51.707077 
L 139.748586 51.707077 
L 140.127413 56.824615 
L 140.885066 56.824615 
L 141.263893 61.942154 
L 141.64272 61.942154 
L 142.021547 56.824615 
L 143.158027 56.824615 
L 143.536854 51.707077 
L 144.294507 51.707077 
L 144.673334 46.589538 
L 145.052161 51.707077 
L 145.430988 46.589538 
L 145.809814 51.707077 
L 146.188641 51.707077 
L 146.567468 56.824615 
L 147.703948 56.824615 
L 148.082775 51.707077 
L 148.461602 56.824615 
L 148.840429 51.707077 
L 149.219255 56.824615 
L 150.355736 56.824615 
L 150.734562 61.942154 
L 153.007523 61.942154 
L 153.38635 51.707077 
L 154.144003 61.942154 
L 155.280484 61.942154 
L 155.65931 67.059692 
L 156.038137 67.059692 
L 156.416964 72.177231 
L 156.795791 72.177231 
L 157.174618 77.294769 
L 157.553444 77.294769 
L 157.932271 87.529846 
L 158.689925 87.529846 
L 159.068751 102.882462 
L 159.447578 102.882462 
L 159.826405 108 
L 160.584059 108 
L 160.962885 123.352615 
L 162.099366 123.352615 
L 162.478192 118.235077 
L 163.235846 118.235077 
L 163.614673 123.352615 
L 163.9935 113.117538 
L 164.372326 123.352615 
L 165.12998 113.117538 
L 165.508807 118.235077 
L 165.887633 118.235077 
L 166.26646 113.117538 
L 166.645287 113.117538 
L 167.024114 118.235077 
L 167.781767 108 
L 168.160594 97.764923 
L 168.539421 97.764923 
L 168.918248 102.882462 
L 169.297074 113.117538 
L 169.675901 108 
L 170.054728 113.117538 
L 170.433555 113.117538 
L 170.812381 123.352615 
L 171.191208 123.352615 
L 171.570035 128.470154 
L 171.948862 128.470154 
L 172.327689 138.705231 
L 172.706515 133.587692 
L 173.464169 143.822769 
L 173.842996 133.587692 
L 174.221822 128.470154 
L 174.979476 128.470154 
L 175.358303 118.235077 
L 175.73713 123.352615 
L 177.252437 123.352615 
L 177.631263 128.470154 
L 178.01009 128.470154 
L 178.388917 133.587692 
L 178.767744 133.587692 
L 179.14657 128.470154 
L 179.525397 133.587692 
L 179.904224 123.352615 
L 180.283051 133.587692 
L 180.661878 128.470154 
L 181.419531 128.470154 
L 181.798358 118.235077 
L 182.177185 113.117538 
L 182.556011 113.117538 
L 182.934838 108 
L 183.313665 108 
L 183.692492 113.117538 
L 184.450145 113.117538 
L 184.828972 118.235077 
L 185.207799 118.235077 
L 185.965452 108 
L 186.344279 108 
L 186.723106 92.647385 
L 187.101933 92.647385 
L 187.48076 87.529846 
L 188.238413 87.529846 
L 188.61724 82.412308 
L 188.996067 82.412308 
L 189.75372 72.177231 
L 190.511374 72.177231 
L 190.8902 67.059692 
L 191.269027 67.059692 
L 191.647854 61.942154 
L 192.026681 61.942154 
L 192.405508 51.707077 
L 193.163161 51.707077 
L 193.920815 61.942154 
L 194.299641 51.707077 
L 194.678468 56.824615 
L 195.057295 51.707077 
L 195.436122 56.824615 
L 195.814949 56.824615 
L 196.572602 67.059692 
L 197.330256 67.059692 
L 197.709082 72.177231 
L 198.087909 67.059692 
L 198.466736 67.059692 
L 198.845563 61.942154 
L 199.22439 67.059692 
L 199.603216 77.294769 
L 199.982043 72.177231 
L 200.36087 72.177231 
L 200.739697 67.059692 
L 201.118523 72.177231 
L 204.527964 72.177231 
L 204.906791 77.294769 
L 205.285618 87.529846 
L 205.664445 92.647385 
L 206.043271 87.529846 
L 206.422098 87.529846 
L 206.800925 97.764923 
L 207.179752 92.647385 
L 207.558579 97.764923 
L 207.937405 87.529846 
L 209.073886 72.177231 
L 209.831539 72.177231 
L 210.210366 77.294769 
L 210.96802 77.294769 
L 211.346846 82.412308 
L 211.725673 82.412308 
L 212.1045 92.647385 
L 213.24098 108 
L 213.998634 97.764923 
L 214.37746 97.764923 
L 214.756287 92.647385 
L 215.892768 92.647385 
L 217.408075 113.117538 
L 217.786901 108 
L 218.165728 118.235077 
L 218.544555 113.117538 
L 218.923382 118.235077 
L 219.302209 118.235077 
L 219.681035 108 
L 220.438689 108 
L 220.817516 118.235077 
L 221.196342 123.352615 
L 221.575169 118.235077 
L 221.953996 118.235077 
L 222.332823 123.352615 
L 224.605783 123.352615 
L 224.98461 118.235077 
L 225.363437 108 
L 225.742264 113.117538 
L 226.12109 113.117538 
L 226.878744 133.587692 
L 227.257571 138.705231 
L 227.636398 133.587692 
L 229.909358 133.587692 
L 230.288185 138.705231 
L 230.667012 133.587692 
L 231.424665 133.587692 
L 232.182319 143.822769 
L 232.561146 138.705231 
L 233.318799 138.705231 
L 233.697626 133.587692 
L 234.45528 133.587692 
L 234.834106 128.470154 
L 235.59176 128.470154 
L 235.970587 133.587692 
L 236.72824 133.587692 
L 237.107067 123.352615 
L 239.001201 123.352615 
L 239.758854 143.822769 
L 240.516508 154.057846 
L 240.895335 148.940308 
L 241.652988 148.940308 
L 242.410642 169.410462 
L 242.789469 169.410462 
L 243.168295 164.292923 
L 243.925949 164.292923 
L 244.304776 159.175385 
L 244.683602 159.175385 
L 245.062429 164.292923 
L 248.47187 164.292923 
L 248.850697 159.175385 
L 249.229524 159.175385 
L 249.60835 154.057846 
L 249.987177 159.175385 
L 250.744831 159.175385 
L 251.123658 164.292923 
L 251.502484 159.175385 
L 251.881311 164.292923 
L 252.260138 164.292923 
L 252.638965 159.175385 
L 253.775445 159.175385 
L 254.154272 164.292923 
L 254.911925 164.292923 
L 255.290752 169.410462 
L 256.048406 159.175385 
L 256.427232 169.410462 
L 256.806059 174.528 
L 257.184886 164.292923 
L 257.563713 159.175385 
L 258.700193 159.175385 
L 259.07902 164.292923 
L 259.457847 164.292923 
L 259.836673 159.175385 
L 260.2155 148.940308 
L 260.973154 148.940308 
L 261.35198 143.822769 
L 261.730807 143.822769 
L 262.109634 148.940308 
L 262.488461 148.940308 
L 262.867288 154.057846 
L 263.246114 154.057846 
L 263.624941 159.175385 
L 264.003768 159.175385 
L 264.382595 154.057846 
L 264.761421 164.292923 
L 265.897902 164.292923 
L 266.276729 148.940308 
L 267.034382 148.940308 
L 267.413209 138.705231 
L 268.170862 128.470154 
L 268.928516 128.470154 
L 269.307343 123.352615 
L 270.064996 123.352615 
L 270.443823 118.235077 
L 270.82265 128.470154 
L 271.201477 128.470154 
L 271.580303 123.352615 
L 271.95913 123.352615 
L 272.337957 128.470154 
L 272.716784 118.235077 
L 274.232091 118.235077 
L 274.610918 113.117538 
L 274.989744 113.117538 
L 275.368571 118.235077 
L 275.747398 118.235077 
L 276.505051 108 
L 277.262705 108 
L 277.641532 97.764923 
L 278.020359 102.882462 
L 278.399185 102.882462 
L 278.778012 92.647385 
L 279.156839 87.529846 
L 279.535666 87.529846 
L 279.914492 82.412308 
L 280.293319 87.529846 
L 280.672146 87.529846 
L 281.050973 97.764923 
L 282.187453 97.764923 
L 282.56628 92.647385 
L 282.945107 97.764923 
L 283.70276 97.764923 
L 284.081587 102.882462 
L 284.460414 102.882462 
L 284.83924 108 
L 285.218067 108 
L 285.975721 87.529846 
L 286.354548 92.647385 
L 286.733374 87.529846 
L 287.112201 77.294769 
L 287.491028 82.412308 
L 287.869855 82.412308 
L 288.248681 92.647385 
L 289.006335 92.647385 
L 289.385162 97.764923 
L 289.763989 92.647385 
L 290.142815 92.647385 
L 290.521642 82.412308 
L 291.279296 82.412308 
L 291.658122 87.529846 
L 292.415776 77.294769 
L 293.17343 77.294769 
L 293.552256 61.942154 
L 293.931083 61.942154 
L 294.30991 67.059692 
L 295.067563 56.824615 
L 295.44639 56.824615 
L 295.825217 67.059692 
L 296.204044 67.059692 
L 296.58287 72.177231 
L 296.961697 72.177231 
L 297.340524 67.059692 
L 297.719351 77.294769 
L 298.098178 77.294769 
L 298.477004 82.412308 
L 298.855831 92.647385 
L 299.613485 92.647385 
L 299.992311 87.529846 
L 301.128792 87.529846 
L 301.507619 82.412308 
L 301.886445 87.529846 
L 302.644099 87.529846 
L 303.022926 92.647385 
L 303.401752 92.647385 
L 304.538233 77.294769 
L 304.91706 77.294769 
L 305.295886 46.589538 
L 305.674713 41.472 
L 306.05354 56.824615 
L 306.432367 51.707077 
L 306.811193 51.707077 
L 307.19002 61.942154 
L 307.568847 67.059692 
L 308.3265 67.059692 
L 308.705327 72.177231 
L 309.084154 82.412308 
L 309.841808 82.412308 
L 310.220634 87.529846 
L 310.599461 77.294769 
L 311.357115 77.294769 
L 311.735941 67.059692 
L 312.114768 67.059692 
L 312.493595 56.824615 
L 313.251249 56.824615 
L 314.008902 67.059692 
L 314.387729 61.942154 
L 315.903036 61.942154 
L 316.281863 56.824615 
L 316.66069 56.824615 
L 317.418343 77.294769 
L 318.175997 87.529846 
L 318.554823 97.764923 
L 318.93365 92.647385 
L 319.312477 102.882462 
L 320.07013 102.882462 
L 320.827784 92.647385 
L 321.585438 92.647385 
L 321.964264 97.764923 
L 322.343091 97.764923 
L 322.721918 102.882462 
L 323.479571 102.882462 
L 323.858398 113.117538 
L 324.616052 113.117538 
L 324.994879 128.470154 
L 325.373705 128.470154 
L 325.752532 138.705231 
L 326.131359 143.822769 
L 326.510186 138.705231 
L 326.889012 143.822769 
L 328.025493 143.822769 
L 328.40432 138.705231 
L 328.783146 143.822769 
L 330.298453 143.822769 
L 330.67728 148.940308 
L 331.056107 159.175385 
L 331.81376 169.410462 
L 332.192587 164.292923 
L 333.329068 164.292923 
L 333.707894 148.940308 
L 334.086721 138.705231 
L 334.465548 133.587692 
L 334.844375 133.587692 
L 335.223201 138.705231 
L 335.602028 133.587692 
L 335.980855 133.587692 
L 336.359682 138.705231 
L 336.738509 164.292923 
L 337.117335 169.410462 
L 337.874989 169.410462 
L 338.253816 164.292923 
L 340.14795 164.292923 
L 340.526776 169.410462 
L 340.905603 164.292923 
L 341.28443 164.292923 
L 341.663257 159.175385 
L 342.042083 164.292923 
L 342.42091 164.292923 
L 342.799737 169.410462 
L 343.178564 179.645538 
L 343.55739 174.528 
L 344.315044 184.763077 
L 345.072698 184.763077 
L 345.451524 179.645538 
L 346.209178 189.880615 
L 346.588005 189.880615 
L 346.966831 194.998154 
L 347.724485 184.763077 
L 348.482139 184.763077 
L 348.860965 179.645538 
L 349.239792 184.763077 
L 349.618619 184.763077 
L 349.997446 179.645538 
L 350.376272 184.763077 
L 351.133926 184.763077 
L 351.89158 194.998154 
L 352.270406 189.880615 
L 352.649233 194.998154 
L 353.02806 194.998154 
L 353.406887 189.880615 
L 354.543367 189.880615 
L 354.922194 184.763077 
L 356.437501 184.763077 
L 356.816328 179.645538 
L 357.195154 184.763077 
L 357.573981 184.763077 
L 357.952808 194.998154 
L 358.710461 194.998154 
L 359.089288 189.880615 
L 359.468115 179.645538 
L 359.846942 189.880615 
L 360.225769 194.998154 
L 360.604595 194.998154 
L 360.983422 189.880615 
L 361.741076 200.115692 
L 362.119902 194.998154 
L 362.498729 194.998154 
L 362.877556 179.645538 
L 363.256383 169.410462 
L 364.014036 169.410462 
L 364.392863 179.645538 
L 364.77169 174.528 
L 365.529343 184.763077 
L 365.90817 194.998154 
L 366.665824 194.998154 
L 367.04465 184.763077 
L 367.423477 189.880615 
L 367.802304 189.880615 
L 368.181131 179.645538 
L 368.559958 174.528 
L 369.317611 174.528 
L 369.696438 169.410462 
L 370.075265 169.410462 
L 370.454091 174.528 
L 370.832918 169.410462 
L 371.211745 174.528 
L 371.590572 169.410462 
L 371.969399 169.410462 
L 372.727052 159.175385 
L 373.484706 169.410462 
L 374.242359 169.410462 
L 374.621186 174.528 
L 376.136493 174.528 
L 376.51532 169.410462 
L 377.272973 169.410462 
L 377.6518 164.292923 
L 378.030627 169.410462 
L 378.78828 169.410462 
L 379.167107 174.528 
L 380.303588 174.528 
L 380.682414 159.175385 
L 381.440068 138.705231 
L 381.818895 133.587692 
L 382.576548 113.117538 
L 382.955375 113.117538 
L 383.713029 123.352615 
L 384.849509 123.352615 
L 385.228336 118.235077 
L 385.985989 118.235077 
L 386.364816 123.352615 
L 387.880123 123.352615 
L 388.25895 128.470154 
L 390.53191 128.470154 
L 390.910737 138.705231 
L 392.047218 138.705231 
L 392.426044 148.940308 
L 393.183698 148.940308 
L 393.562525 154.057846 
L 393.941351 154.057846 
L 394.699005 184.763077 
L 395.835485 184.763077 
L 396.214312 189.880615 
L 397.350792 189.880615 
L 397.729619 194.998154 
L 398.108446 194.998154 
L 398.487273 205.233231 
L 398.487273 205.233231 
" style="fill:none;stroke:#0000ff;stroke-linecap:square;stroke-width:1.5;"/>
   </g>
   <g id="patch_3">
    <path d="M 57.6 307.584 
L 57.6 41.472 
" style="fill:none;stroke:#000000;stroke-linecap:square;stroke-linejoin:miter;stroke-width:0.8;"/>
   </g>
   <g id="patch_4">
    <path d="M 414.72 307.584 
L 414.72 41.472 
" style="fill:none;stroke:#000000;stroke-linecap:square;stroke-linejoin:miter;stroke-width:0.8;"/>
   </g>
   <g id="patch_5">
    <path d="M 57.6 307.584 
L 414.72 307.584 
" style="fill:none;stroke:#000000;stroke-linecap:square;stroke-linejoin:miter;stroke-width:0.8;"/>
   </g>
   <g id="patch_6">
    <path d="M 57.6 41.472 
L 414.72 41.472 
" style="fill:none;stroke:#000000;stroke-linecap:square;stroke-linejoin:miter;stroke-width:0.8;"/>
   </g>
   <g id="text_14">
    <!-- &gt;blaCTX-M-15_23_DQ302097 Beta-lactam resistance:Alternate name; UOE-1 -->
    <defs>
     <path d="M 10.59375 49.21875 
L 10.59375 58.109375 
L 73.1875 35.40625 
L 73.1875 27.296875 
L 10.59375 4.59375 
L 10.59375 13.484375 
L 60.890625 31.296875 
z
" id="DejaVuSans-62"/>
     <path d="M 48.6875 27.296875 
Q 48.6875 37.203125 44.609375 42.84375 
Q 40.53125 48.484375 33.40625 48.484375 
Q 26.265625 48.484375 22.1875 42.84375 
Q 18.109375 37.203125 18.109375 27.296875 
Q 18.109375 17.390625 22.1875 11.75 
Q 26.265625 6.109375 33.40625 6.109375 
Q 40.53125 6.109375 44.609375 11.75 
Q 48.6875 17.390625 48.6875 27.296875 
z
M 18.109375 46.390625 
Q 20.953125 51.265625 25.265625 53.625 
Q 29.59375 56 35.59375 56 
Q 45.5625 56 51.78125 48.09375 
Q 58.015625 40.1875 58.015625 27.296875 
Q 58.015625 14.40625 51.78125 6.484375 
Q 45.5625 -1.421875 35.59375 -1.421875 
Q 29.59375 -1.421875 25.265625 0.953125 
Q 20.953125 3.328125 18.109375 8.203125 
L 18.109375 0 
L 9.078125 0 
L 9.078125 75.984375 
L 18.109375 75.984375 
z
" id="DejaVuSans-98"/>
     <path d="M 9.421875 75.984375 
L 18.40625 75.984375 
L 18.40625 0 
L 9.421875 0 
z
" id="DejaVuSans-108"/>
     <path d="M 34.28125 27.484375 
Q 23.390625 27.484375 19.1875 25 
Q 14.984375 22.515625 14.984375 16.5 
Q 14.984375 11.71875 18.140625 8.90625 
Q 21.296875 6.109375 26.703125 6.109375 
Q 34.1875 6.109375 38.703125 11.40625 
Q 43.21875 16.703125 43.21875 25.484375 
L 43.21875 27.484375 
z
M 52.203125 31.203125 
L 52.203125 0 
L 43.21875 0 
L 43.21875 8.296875 
Q 40.140625 3.328125 35.546875 0.953125 
Q 30.953125 -1.421875 24.3125 -1.421875 
Q 15.921875 -1.421875 10.953125 3.296875 
Q 6 8.015625 6 15.921875 
Q 6 25.140625 12.171875 29.828125 
Q 18.359375 34.515625 30.609375 34.515625 
L 43.21875 34.515625 
L 43.21875 35.40625 
Q 43.21875 41.609375 39.140625 45 
Q 35.0625 48.390625 27.6875 48.390625 
Q 23 48.390625 18.546875 47.265625 
Q 14.109375 46.140625 10.015625 43.890625 
L 10.015625 52.203125 
Q 14.9375 54.109375 19.578125 55.046875 
Q 24.21875 56 28.609375 56 
Q 40.484375 56 46.34375 49.84375 
Q 52.203125 43.703125 52.203125 31.203125 
z
" id="DejaVuSans-97"/>
     <path d="M 64.40625 67.28125 
L 64.40625 56.890625 
Q 59.421875 61.53125 53.78125 63.8125 
Q 48.140625 66.109375 41.796875 66.109375 
Q 29.296875 66.109375 22.65625 58.46875 
Q 16.015625 50.828125 16.015625 36.375 
Q 16.015625 21.96875 22.65625 14.328125 
Q 29.296875 6.6875 41.796875 6.6875 
Q 48.140625 6.6875 53.78125 8.984375 
Q 59.421875 11.28125 64.40625 15.921875 
L 64.40625 5.609375 
Q 59.234375 2.09375 53.4375 0.328125 
Q 47.65625 -1.421875 41.21875 -1.421875 
Q 24.65625 -1.421875 15.125 8.703125 
Q 5.609375 18.84375 5.609375 36.375 
Q 5.609375 53.953125 15.125 64.078125 
Q 24.65625 74.21875 41.21875 74.21875 
Q 47.75 74.21875 53.53125 72.484375 
Q 59.328125 70.75 64.40625 67.28125 
z
" id="DejaVuSans-67"/>
     <path d="M -0.296875 72.90625 
L 61.375 72.90625 
L 61.375 64.59375 
L 35.5 64.59375 
L 35.5 0 
L 25.59375 0 
L 25.59375 64.59375 
L -0.296875 64.59375 
z
" id="DejaVuSans-84"/>
     <path d="M 6.296875 72.90625 
L 16.890625 72.90625 
L 35.015625 45.796875 
L 53.21875 72.90625 
L 63.8125 72.90625 
L 40.375 37.890625 
L 65.375 0 
L 54.78125 0 
L 34.28125 31 
L 13.625 0 
L 2.984375 0 
L 29 38.921875 
z
" id="DejaVuSans-88"/>
     <path d="M 4.890625 31.390625 
L 31.203125 31.390625 
L 31.203125 23.390625 
L 4.890625 23.390625 
z
" id="DejaVuSans-45"/>
     <path d="M 9.8125 72.90625 
L 24.515625 72.90625 
L 43.109375 23.296875 
L 61.8125 72.90625 
L 76.515625 72.90625 
L 76.515625 0 
L 66.890625 0 
L 66.890625 64.015625 
L 48.09375 14.015625 
L 38.1875 14.015625 
L 19.390625 64.015625 
L 19.390625 0 
L 9.8125 0 
z
" id="DejaVuSans-77"/>
     <path d="M 50.984375 -16.609375 
L 50.984375 -23.578125 
L -0.984375 -23.578125 
L -0.984375 -16.609375 
z
" id="DejaVuSans-95"/>
     <path d="M 19.671875 64.796875 
L 19.671875 8.109375 
L 31.59375 8.109375 
Q 46.6875 8.109375 53.6875 14.9375 
Q 60.6875 21.78125 60.6875 36.53125 
Q 60.6875 51.171875 53.6875 57.984375 
Q 46.6875 64.796875 31.59375 64.796875 
z
M 9.8125 72.90625 
L 30.078125 72.90625 
Q 51.265625 72.90625 61.171875 64.09375 
Q 71.09375 55.28125 71.09375 36.53125 
Q 71.09375 17.671875 61.125 8.828125 
Q 51.171875 0 30.078125 0 
L 9.8125 0 
z
" id="DejaVuSans-68"/>
     <path d="M 39.40625 66.21875 
Q 28.65625 66.21875 22.328125 58.203125 
Q 16.015625 50.203125 16.015625 36.375 
Q 16.015625 22.609375 22.328125 14.59375 
Q 28.65625 6.59375 39.40625 6.59375 
Q 50.140625 6.59375 56.421875 14.59375 
Q 62.703125 22.609375 62.703125 36.375 
Q 62.703125 50.203125 56.421875 58.203125 
Q 50.140625 66.21875 39.40625 66.21875 
z
M 53.21875 1.3125 
L 66.21875 -12.890625 
L 54.296875 -12.890625 
L 43.5 -1.21875 
Q 41.890625 -1.3125 41.03125 -1.359375 
Q 40.1875 -1.421875 39.40625 -1.421875 
Q 24.03125 -1.421875 14.8125 8.859375 
Q 5.609375 19.140625 5.609375 36.375 
Q 5.609375 53.65625 14.8125 63.9375 
Q 24.03125 74.21875 39.40625 74.21875 
Q 54.734375 74.21875 63.90625 63.9375 
Q 73.09375 53.65625 73.09375 36.375 
Q 73.09375 23.6875 67.984375 14.640625 
Q 62.890625 5.609375 53.21875 1.3125 
z
" id="DejaVuSans-81"/>
     <path d="M 10.984375 1.515625 
L 10.984375 10.5 
Q 14.703125 8.734375 18.5 7.8125 
Q 22.3125 6.890625 25.984375 6.890625 
Q 35.75 6.890625 40.890625 13.453125 
Q 46.046875 20.015625 46.78125 33.40625 
Q 43.953125 29.203125 39.59375 26.953125 
Q 35.25 24.703125 29.984375 24.703125 
Q 19.046875 24.703125 12.671875 31.3125 
Q 6.296875 37.9375 6.296875 49.421875 
Q 6.296875 60.640625 12.9375 67.421875 
Q 19.578125 74.21875 30.609375 74.21875 
Q 43.265625 74.21875 49.921875 64.515625 
Q 56.59375 54.828125 56.59375 36.375 
Q 56.59375 19.140625 48.40625 8.859375 
Q 40.234375 -1.421875 26.421875 -1.421875 
Q 22.703125 -1.421875 18.890625 -0.6875 
Q 15.09375 0.046875 10.984375 1.515625 
z
M 30.609375 32.421875 
Q 37.25 32.421875 41.125 36.953125 
Q 45.015625 41.5 45.015625 49.421875 
Q 45.015625 57.28125 41.125 61.84375 
Q 37.25 66.40625 30.609375 66.40625 
Q 23.96875 66.40625 20.09375 61.84375 
Q 16.21875 57.28125 16.21875 49.421875 
Q 16.21875 41.5 20.09375 36.953125 
Q 23.96875 32.421875 30.609375 32.421875 
z
" id="DejaVuSans-57"/>
     <path d="M 8.203125 72.90625 
L 55.078125 72.90625 
L 55.078125 68.703125 
L 28.609375 0 
L 18.3125 0 
L 43.21875 64.59375 
L 8.203125 64.59375 
z
" id="DejaVuSans-55"/>
     <path d="M 19.671875 34.8125 
L 19.671875 8.109375 
L 35.5 8.109375 
Q 43.453125 8.109375 47.28125 11.40625 
Q 51.125 14.703125 51.125 21.484375 
Q 51.125 28.328125 47.28125 31.5625 
Q 43.453125 34.8125 35.5 34.8125 
z
M 19.671875 64.796875 
L 19.671875 42.828125 
L 34.28125 42.828125 
Q 41.5 42.828125 45.03125 45.53125 
Q 48.578125 48.25 48.578125 53.8125 
Q 48.578125 59.328125 45.03125 62.0625 
Q 41.5 64.796875 34.28125 64.796875 
z
M 9.8125 72.90625 
L 35.015625 72.90625 
Q 46.296875 72.90625 52.390625 68.21875 
Q 58.5 63.53125 58.5 54.890625 
Q 58.5 48.1875 55.375 44.234375 
Q 52.25 40.28125 46.1875 39.3125 
Q 53.46875 37.75 57.5 32.78125 
Q 61.53125 27.828125 61.53125 20.40625 
Q 61.53125 10.640625 54.890625 5.3125 
Q 48.25 0 35.984375 0 
L 9.8125 0 
z
" id="DejaVuSans-66"/>
     <path d="M 48.78125 52.59375 
L 48.78125 44.1875 
Q 44.96875 46.296875 41.140625 47.34375 
Q 37.3125 48.390625 33.40625 48.390625 
Q 24.65625 48.390625 19.8125 42.84375 
Q 14.984375 37.3125 14.984375 27.296875 
Q 14.984375 17.28125 19.8125 11.734375 
Q 24.65625 6.203125 33.40625 6.203125 
Q 37.3125 6.203125 41.140625 7.25 
Q 44.96875 8.296875 48.78125 10.40625 
L 48.78125 2.09375 
Q 45.015625 0.34375 40.984375 -0.53125 
Q 36.96875 -1.421875 32.421875 -1.421875 
Q 20.0625 -1.421875 12.78125 6.34375 
Q 5.515625 14.109375 5.515625 27.296875 
Q 5.515625 40.671875 12.859375 48.328125 
Q 20.21875 56 33.015625 56 
Q 37.15625 56 41.109375 55.140625 
Q 45.0625 54.296875 48.78125 52.59375 
z
" id="DejaVuSans-99"/>
     <path d="M 52 44.1875 
Q 55.375 50.25 60.0625 53.125 
Q 64.75 56 71.09375 56 
Q 79.640625 56 84.28125 50.015625 
Q 88.921875 44.046875 88.921875 33.015625 
L 88.921875 0 
L 79.890625 0 
L 79.890625 32.71875 
Q 79.890625 40.578125 77.09375 44.375 
Q 74.3125 48.1875 68.609375 48.1875 
Q 61.625 48.1875 57.5625 43.546875 
Q 53.515625 38.921875 53.515625 30.90625 
L 53.515625 0 
L 44.484375 0 
L 44.484375 32.71875 
Q 44.484375 40.625 41.703125 44.40625 
Q 38.921875 48.1875 33.109375 48.1875 
Q 26.21875 48.1875 22.15625 43.53125 
Q 18.109375 38.875 18.109375 30.90625 
L 18.109375 0 
L 9.078125 0 
L 9.078125 54.6875 
L 18.109375 54.6875 
L 18.109375 46.1875 
Q 21.1875 51.21875 25.484375 53.609375 
Q 29.78125 56 35.6875 56 
Q 41.65625 56 45.828125 52.96875 
Q 50 49.953125 52 44.1875 
z
" id="DejaVuSans-109"/>
     <path d="M 41.109375 46.296875 
Q 39.59375 47.171875 37.8125 47.578125 
Q 36.03125 48 33.890625 48 
Q 26.265625 48 22.1875 43.046875 
Q 18.109375 38.09375 18.109375 28.8125 
L 18.109375 0 
L 9.078125 0 
L 9.078125 54.6875 
L 18.109375 54.6875 
L 18.109375 46.1875 
Q 20.953125 51.171875 25.484375 53.578125 
Q 30.03125 56 36.53125 56 
Q 37.453125 56 38.578125 55.875 
Q 39.703125 55.765625 41.0625 55.515625 
z
" id="DejaVuSans-114"/>
     <path d="M 11.71875 12.40625 
L 22.015625 12.40625 
L 22.015625 0 
L 11.71875 0 
z
M 11.71875 51.703125 
L 22.015625 51.703125 
L 22.015625 39.3125 
L 11.71875 39.3125 
z
" id="DejaVuSans-58"/>
     <path d="M 34.1875 63.1875 
L 20.796875 26.90625 
L 47.609375 26.90625 
z
M 28.609375 72.90625 
L 39.796875 72.90625 
L 67.578125 0 
L 57.328125 0 
L 50.6875 18.703125 
L 17.828125 18.703125 
L 11.1875 0 
L 0.78125 0 
z
" id="DejaVuSans-65"/>
     <path d="M 11.71875 51.703125 
L 22.015625 51.703125 
L 22.015625 39.3125 
L 11.71875 39.3125 
z
M 11.71875 12.40625 
L 22.015625 12.40625 
L 22.015625 4 
L 14.015625 -11.625 
L 7.71875 -11.625 
L 11.71875 4 
z
" id="DejaVuSans-59"/>
     <path d="M 8.6875 72.90625 
L 18.609375 72.90625 
L 18.609375 28.609375 
Q 18.609375 16.890625 22.84375 11.734375 
Q 27.09375 6.59375 36.625 6.59375 
Q 46.09375 6.59375 50.34375 11.734375 
Q 54.59375 16.890625 54.59375 28.609375 
L 54.59375 72.90625 
L 64.5 72.90625 
L 64.5 27.390625 
Q 64.5 13.140625 57.4375 5.859375 
Q 50.390625 -1.421875 36.625 -1.421875 
Q 22.796875 -1.421875 15.734375 5.859375 
Q 8.6875 13.140625 8.6875 27.390625 
z
" id="DejaVuSans-85"/>
     <path d="M 39.40625 66.21875 
Q 28.65625 66.21875 22.328125 58.203125 
Q 16.015625 50.203125 16.015625 36.375 
Q 16.015625 22.609375 22.328125 14.59375 
Q 28.65625 6.59375 39.40625 6.59375 
Q 50.140625 6.59375 56.421875 14.59375 
Q 62.703125 22.609375 62.703125 36.375 
Q 62.703125 50.203125 56.421875 58.203125 
Q 50.140625 66.21875 39.40625 66.21875 
z
M 39.40625 74.21875 
Q 54.734375 74.21875 63.90625 63.9375 
Q 73.09375 53.65625 73.09375 36.375 
Q 73.09375 19.140625 63.90625 8.859375 
Q 54.734375 -1.421875 39.40625 -1.421875 
Q 24.03125 -1.421875 14.8125 8.828125 
Q 5.609375 19.09375 5.609375 36.375 
Q 5.609375 53.65625 14.8125 63.9375 
Q 24.03125 74.21875 39.40625 74.21875 
z
" id="DejaVuSans-79"/>
     <path d="M 9.8125 72.90625 
L 55.90625 72.90625 
L 55.90625 64.59375 
L 19.671875 64.59375 
L 19.671875 43.015625 
L 54.390625 43.015625 
L 54.390625 34.71875 
L 19.671875 34.71875 
L 19.671875 8.296875 
L 56.78125 8.296875 
L 56.78125 0 
L 9.8125 0 
z
" id="DejaVuSans-69"/>
    </defs>
    <g transform="translate(4.201875 35.472)scale(0.12 -0.12)">
     <use xlink:href="#DejaVuSans-62"/>
     <use x="83.789062" xlink:href="#DejaVuSans-98"/>
     <use x="147.265625" xlink:href="#DejaVuSans-108"/>
     <use x="175.048828" xlink:href="#DejaVuSans-97"/>
     <use x="236.328125" xlink:href="#DejaVuSans-67"/>
     <use x="306.152344" xlink:href="#DejaVuSans-84"/>
     <use x="367.236328" xlink:href="#DejaVuSans-88"/>
     <use x="435.664062" xlink:href="#DejaVuSans-45"/>
     <use x="471.748047" xlink:href="#DejaVuSans-77"/>
     <use x="558.027344" xlink:href="#DejaVuSans-45"/>
     <use x="594.111328" xlink:href="#DejaVuSans-49"/>
     <use x="657.734375" xlink:href="#DejaVuSans-53"/>
     <use x="721.357422" xlink:href="#DejaVuSans-95"/>
     <use x="771.357422" xlink:href="#DejaVuSans-50"/>
     <use x="834.980469" xlink:href="#DejaVuSans-51"/>
     <use x="898.603516" xlink:href="#DejaVuSans-95"/>
     <use x="948.603516" xlink:href="#DejaVuSans-68"/>
     <use x="1025.605469" xlink:href="#DejaVuSans-81"/>
     <use x="1104.316406" xlink:href="#DejaVuSans-51"/>
     <use x="1167.939453" xlink:href="#DejaVuSans-48"/>
     <use x="1231.5625" xlink:href="#DejaVuSans-50"/>
     <use x="1295.185547" xlink:href="#DejaVuSans-48"/>
     <use x="1358.808594" xlink:href="#DejaVuSans-57"/>
     <use x="1422.431641" xlink:href="#DejaVuSans-55"/>
     <use x="1486.054688" xlink:href="#DejaVuSans-32"/>
     <use x="1517.841797" xlink:href="#DejaVuSans-66"/>
     <use x="1586.445312" xlink:href="#DejaVuSans-101"/>
     <use x="1647.96875" xlink:href="#DejaVuSans-116"/>
     <use x="1687.177734" xlink:href="#DejaVuSans-97"/>
     <use x="1748.457031" xlink:href="#DejaVuSans-45"/>
     <use x="1784.541016" xlink:href="#DejaVuSans-108"/>
     <use x="1812.324219" xlink:href="#DejaVuSans-97"/>
     <use x="1873.603516" xlink:href="#DejaVuSans-99"/>
     <use x="1928.583984" xlink:href="#DejaVuSans-116"/>
     <use x="1967.792969" xlink:href="#DejaVuSans-97"/>
     <use x="2029.072266" xlink:href="#DejaVuSans-109"/>
     <use x="2126.484375" xlink:href="#DejaVuSans-32"/>
     <use x="2158.271484" xlink:href="#DejaVuSans-114"/>
     <use x="2199.353516" xlink:href="#DejaVuSans-101"/>
     <use x="2260.876953" xlink:href="#DejaVuSans-115"/>
     <use x="2312.976562" xlink:href="#DejaVuSans-105"/>
     <use x="2340.759766" xlink:href="#DejaVuSans-115"/>
     <use x="2392.859375" xlink:href="#DejaVuSans-116"/>
     <use x="2432.068359" xlink:href="#DejaVuSans-97"/>
     <use x="2493.347656" xlink:href="#DejaVuSans-110"/>
     <use x="2556.726562" xlink:href="#DejaVuSans-99"/>
     <use x="2611.707031" xlink:href="#DejaVuSans-101"/>
     <use x="2673.230469" xlink:href="#DejaVuSans-58"/>
     <use x="2706.921875" xlink:href="#DejaVuSans-65"/>
     <use x="2775.330078" xlink:href="#DejaVuSans-108"/>
     <use x="2803.113281" xlink:href="#DejaVuSans-116"/>
     <use x="2842.322266" xlink:href="#DejaVuSans-101"/>
     <use x="2903.845703" xlink:href="#DejaVuSans-114"/>
     <use x="2944.943359" xlink:href="#DejaVuSans-110"/>
     <use x="3008.322266" xlink:href="#DejaVuSans-97"/>
     <use x="3069.601562" xlink:href="#DejaVuSans-116"/>
     <use x="3108.810547" xlink:href="#DejaVuSans-101"/>
     <use x="3170.333984" xlink:href="#DejaVuSans-32"/>
     <use x="3202.121094" xlink:href="#DejaVuSans-110"/>
     <use x="3265.5" xlink:href="#DejaVuSans-97"/>
     <use x="3326.779297" xlink:href="#DejaVuSans-109"/>
     <use x="3424.191406" xlink:href="#DejaVuSans-101"/>
     <use x="3485.714844" xlink:href="#DejaVuSans-59"/>
     <use x="3519.40625" xlink:href="#DejaVuSans-32"/>
     <use x="3551.193359" xlink:href="#DejaVuSans-85"/>
     <use x="3624.386719" xlink:href="#DejaVuSans-79"/>
     <use x="3703.097656" xlink:href="#DejaVuSans-69"/>
     <use x="3766.28125" xlink:href="#DejaVuSans-45"/>
     <use x="3802.365234" xlink:href="#DejaVuSans-49"/>
    </g>
   </g>
  </g>
 </g>
 <defs>
  <clipPath id="p64b3cc61f7">
   <rect height="266.112" width="357.12" x="57.6" y="41.472"/>
  </clipPath>
 </defs>
</svg>
