<?xml version="1.0" encoding="utf-8" standalone="no"?>
<!DOCTYPE svg PUBLIC "-//W3C//DTD SVG 1.1//EN"
  "http://www.w3.org/Graphics/SVG/1.1/DTD/svg11.dtd">
<!-- Created with matplotlib (https://matplotlib.org/) -->
<svg height="345.6pt" version="1.1" viewBox="0 0 460.8 345.6" width="460.8pt" xmlns="http://www.w3.org/2000/svg" xmlns:xlink="http://www.w3.org/1999/xlink">
 <defs>
  <style type="text/css">
*{stroke-linecap:butt;stroke-linejoin:round;}
  </style>
 </defs>
 <g id="figure_1">
  <g id="patch_1">
   <path d="M 0 345.6 
L 460.8 345.6 
L 460.8 0 
L 0 0 
z
" style="fill:#ffffff;"/>
  </g>
  <g id="axes_1">
   <g id="patch_2">
    <path d="M 57.6 307.584 
L 414.72 307.584 
L 414.72 41.472 
L 57.6 41.472 
z
" style="fill:#ffffff;"/>
   </g>
   <g id="matplotlib.axis_1">
    <g id="xtick_1">
     <g id="line2d_1">
      <defs>
       <path d="M 0 0 
L 0 3.5 
" id="m9ccef61161" style="stroke:#000000;stroke-width:0.8;"/>
      </defs>
      <g>
       <use style="stroke:#000000;stroke-width:0.8;" x="73.832727" xlink:href="#m9ccef61161" y="307.584"/>
      </g>
     </g>
     <g id="text_1">
      <!-- 0 -->
      <defs>
       <path d="M 31.78125 66.40625 
Q 24.171875 66.40625 20.328125 58.90625 
Q 16.5 51.421875 16.5 36.375 
Q 16.5 21.390625 20.328125 13.890625 
Q 24.171875 6.390625 31.78125 6.390625 
Q 39.453125 6.390625 43.28125 13.890625 
Q 47.125 21.390625 47.125 36.375 
Q 47.125 51.421875 43.28125 58.90625 
Q 39.453125 66.40625 31.78125 66.40625 
z
M 31.78125 74.21875 
Q 44.046875 74.21875 50.515625 64.515625 
Q 56.984375 54.828125 56.984375 36.375 
Q 56.984375 17.96875 50.515625 8.265625 
Q 44.046875 -1.421875 31.78125 -1.421875 
Q 19.53125 -1.421875 13.0625 8.265625 
Q 6.59375 17.96875 6.59375 36.375 
Q 6.59375 54.828125 13.0625 64.515625 
Q 19.53125 74.21875 31.78125 74.21875 
z
" id="DejaVuSans-48"/>
      </defs>
      <g transform="translate(70.651477 322.182437)scale(0.1 -0.1)">
       <use xlink:href="#DejaVuSans-48"/>
      </g>
     </g>
    </g>
    <g id="xtick_2">
     <g id="line2d_2">
      <g>
       <use style="stroke:#000000;stroke-width:0.8;" x="128.765814" xlink:href="#m9ccef61161" y="307.584"/>
      </g>
     </g>
     <g id="text_2">
      <!-- 200 -->
      <defs>
       <path d="M 19.1875 8.296875 
L 53.609375 8.296875 
L 53.609375 0 
L 7.328125 0 
L 7.328125 8.296875 
Q 12.9375 14.109375 22.625 23.890625 
Q 32.328125 33.6875 34.8125 36.53125 
Q 39.546875 41.84375 41.421875 45.53125 
Q 43.3125 49.21875 43.3125 52.78125 
Q 43.3125 58.59375 39.234375 62.25 
Q 35.15625 65.921875 28.609375 65.921875 
Q 23.96875 65.921875 18.8125 64.3125 
Q 13.671875 62.703125 7.8125 59.421875 
L 7.8125 69.390625 
Q 13.765625 71.78125 18.9375 73 
Q 24.125 74.21875 28.421875 74.21875 
Q 39.75 74.21875 46.484375 68.546875 
Q 53.21875 62.890625 53.21875 53.421875 
Q 53.21875 48.921875 51.53125 44.890625 
Q 49.859375 40.875 45.40625 35.40625 
Q 44.1875 33.984375 37.640625 27.21875 
Q 31.109375 20.453125 19.1875 8.296875 
z
" id="DejaVuSans-50"/>
      </defs>
      <g transform="translate(119.222064 322.182437)scale(0.1 -0.1)">
       <use xlink:href="#DejaVuSans-50"/>
       <use x="63.623047" xlink:href="#DejaVuSans-48"/>
       <use x="127.246094" xlink:href="#DejaVuSans-48"/>
      </g>
     </g>
    </g>
    <g id="xtick_3">
     <g id="line2d_3">
      <g>
       <use style="stroke:#000000;stroke-width:0.8;" x="183.698902" xlink:href="#m9ccef61161" y="307.584"/>
      </g>
     </g>
     <g id="text_3">
      <!-- 400 -->
      <defs>
       <path d="M 37.796875 64.3125 
L 12.890625 25.390625 
L 37.796875 25.390625 
z
M 35.203125 72.90625 
L 47.609375 72.90625 
L 47.609375 25.390625 
L 58.015625 25.390625 
L 58.015625 17.1875 
L 47.609375 17.1875 
L 47.609375 0 
L 37.796875 0 
L 37.796875 17.1875 
L 4.890625 17.1875 
L 4.890625 26.703125 
z
" id="DejaVuSans-52"/>
      </defs>
      <g transform="translate(174.155152 322.182437)scale(0.1 -0.1)">
       <use xlink:href="#DejaVuSans-52"/>
       <use x="63.623047" xlink:href="#DejaVuSans-48"/>
       <use x="127.246094" xlink:href="#DejaVuSans-48"/>
      </g>
     </g>
    </g>
    <g id="xtick_4">
     <g id="line2d_4">
      <g>
       <use style="stroke:#000000;stroke-width:0.8;" x="238.631989" xlink:href="#m9ccef61161" y="307.584"/>
      </g>
     </g>
     <g id="text_4">
      <!-- 600 -->
      <defs>
       <path d="M 33.015625 40.375 
Q 26.375 40.375 22.484375 35.828125 
Q 18.609375 31.296875 18.609375 23.390625 
Q 18.609375 15.53125 22.484375 10.953125 
Q 26.375 6.390625 33.015625 6.390625 
Q 39.65625 6.390625 43.53125 10.953125 
Q 47.40625 15.53125 47.40625 23.390625 
Q 47.40625 31.296875 43.53125 35.828125 
Q 39.65625 40.375 33.015625 40.375 
z
M 52.59375 71.296875 
L 52.59375 62.3125 
Q 48.875 64.0625 45.09375 64.984375 
Q 41.3125 65.921875 37.59375 65.921875 
Q 27.828125 65.921875 22.671875 59.328125 
Q 17.53125 52.734375 16.796875 39.40625 
Q 19.671875 43.65625 24.015625 45.921875 
Q 28.375 48.1875 33.59375 48.1875 
Q 44.578125 48.1875 50.953125 41.515625 
Q 57.328125 34.859375 57.328125 23.390625 
Q 57.328125 12.15625 50.6875 5.359375 
Q 44.046875 -1.421875 33.015625 -1.421875 
Q 20.359375 -1.421875 13.671875 8.265625 
Q 6.984375 17.96875 6.984375 36.375 
Q 6.984375 53.65625 15.1875 63.9375 
Q 23.390625 74.21875 37.203125 74.21875 
Q 40.921875 74.21875 44.703125 73.484375 
Q 48.484375 72.75 52.59375 71.296875 
z
" id="DejaVuSans-54"/>
      </defs>
      <g transform="translate(229.088239 322.182437)scale(0.1 -0.1)">
       <use xlink:href="#DejaVuSans-54"/>
       <use x="63.623047" xlink:href="#DejaVuSans-48"/>
       <use x="127.246094" xlink:href="#DejaVuSans-48"/>
      </g>
     </g>
    </g>
    <g id="xtick_5">
     <g id="line2d_5">
      <g>
       <use style="stroke:#000000;stroke-width:0.8;" x="293.565076" xlink:href="#m9ccef61161" y="307.584"/>
      </g>
     </g>
     <g id="text_5">
      <!-- 800 -->
      <defs>
       <path d="M 31.78125 34.625 
Q 24.75 34.625 20.71875 30.859375 
Q 16.703125 27.09375 16.703125 20.515625 
Q 16.703125 13.921875 20.71875 10.15625 
Q 24.75 6.390625 31.78125 6.390625 
Q 38.8125 6.390625 42.859375 10.171875 
Q 46.921875 13.96875 46.921875 20.515625 
Q 46.921875 27.09375 42.890625 30.859375 
Q 38.875 34.625 31.78125 34.625 
z
M 21.921875 38.8125 
Q 15.578125 40.375 12.03125 44.71875 
Q 8.5 49.078125 8.5 55.328125 
Q 8.5 64.0625 14.71875 69.140625 
Q 20.953125 74.21875 31.78125 74.21875 
Q 42.671875 74.21875 48.875 69.140625 
Q 55.078125 64.0625 55.078125 55.328125 
Q 55.078125 49.078125 51.53125 44.71875 
Q 48 40.375 41.703125 38.8125 
Q 48.828125 37.15625 52.796875 32.3125 
Q 56.78125 27.484375 56.78125 20.515625 
Q 56.78125 9.90625 50.3125 4.234375 
Q 43.84375 -1.421875 31.78125 -1.421875 
Q 19.734375 -1.421875 13.25 4.234375 
Q 6.78125 9.90625 6.78125 20.515625 
Q 6.78125 27.484375 10.78125 32.3125 
Q 14.796875 37.15625 21.921875 38.8125 
z
M 18.3125 54.390625 
Q 18.3125 48.734375 21.84375 45.5625 
Q 25.390625 42.390625 31.78125 42.390625 
Q 38.140625 42.390625 41.71875 45.5625 
Q 45.3125 48.734375 45.3125 54.390625 
Q 45.3125 60.0625 41.71875 63.234375 
Q 38.140625 66.40625 31.78125 66.40625 
Q 25.390625 66.40625 21.84375 63.234375 
Q 18.3125 60.0625 18.3125 54.390625 
z
" id="DejaVuSans-56"/>
      </defs>
      <g transform="translate(284.021326 322.182437)scale(0.1 -0.1)">
       <use xlink:href="#DejaVuSans-56"/>
       <use x="63.623047" xlink:href="#DejaVuSans-48"/>
       <use x="127.246094" xlink:href="#DejaVuSans-48"/>
      </g>
     </g>
    </g>
    <g id="xtick_6">
     <g id="line2d_6">
      <g>
       <use style="stroke:#000000;stroke-width:0.8;" x="348.498163" xlink:href="#m9ccef61161" y="307.584"/>
      </g>
     </g>
     <g id="text_6">
      <!-- 1000 -->
      <defs>
       <path d="M 12.40625 8.296875 
L 28.515625 8.296875 
L 28.515625 63.921875 
L 10.984375 60.40625 
L 10.984375 69.390625 
L 28.421875 72.90625 
L 38.28125 72.90625 
L 38.28125 8.296875 
L 54.390625 8.296875 
L 54.390625 0 
L 12.40625 0 
z
" id="DejaVuSans-49"/>
      </defs>
      <g transform="translate(335.773163 322.182437)scale(0.1 -0.1)">
       <use xlink:href="#DejaVuSans-49"/>
       <use x="63.623047" xlink:href="#DejaVuSans-48"/>
       <use x="127.246094" xlink:href="#DejaVuSans-48"/>
       <use x="190.869141" xlink:href="#DejaVuSans-48"/>
      </g>
     </g>
    </g>
    <g id="xtick_7">
     <g id="line2d_7">
      <g>
       <use style="stroke:#000000;stroke-width:0.8;" x="403.431251" xlink:href="#m9ccef61161" y="307.584"/>
      </g>
     </g>
     <g id="text_7">
      <!-- 1200 -->
      <g transform="translate(390.706251 322.182437)scale(0.1 -0.1)">
       <use xlink:href="#DejaVuSans-49"/>
       <use x="63.623047" xlink:href="#DejaVuSans-50"/>
       <use x="127.246094" xlink:href="#DejaVuSans-48"/>
       <use x="190.869141" xlink:href="#DejaVuSans-48"/>
      </g>
     </g>
    </g>
    <g id="text_8">
     <!-- gene position -->
     <defs>
      <path d="M 45.40625 27.984375 
Q 45.40625 37.75 41.375 43.109375 
Q 37.359375 48.484375 30.078125 48.484375 
Q 22.859375 48.484375 18.828125 43.109375 
Q 14.796875 37.75 14.796875 27.984375 
Q 14.796875 18.265625 18.828125 12.890625 
Q 22.859375 7.515625 30.078125 7.515625 
Q 37.359375 7.515625 41.375 12.890625 
Q 45.40625 18.265625 45.40625 27.984375 
z
M 54.390625 6.78125 
Q 54.390625 -7.171875 48.1875 -13.984375 
Q 42 -20.796875 29.203125 -20.796875 
Q 24.46875 -20.796875 20.265625 -20.09375 
Q 16.0625 -19.390625 12.109375 -17.921875 
L 12.109375 -9.1875 
Q 16.0625 -11.328125 19.921875 -12.34375 
Q 23.78125 -13.375 27.78125 -13.375 
Q 36.625 -13.375 41.015625 -8.765625 
Q 45.40625 -4.15625 45.40625 5.171875 
L 45.40625 9.625 
Q 42.625 4.78125 38.28125 2.390625 
Q 33.9375 0 27.875 0 
Q 17.828125 0 11.671875 7.65625 
Q 5.515625 15.328125 5.515625 27.984375 
Q 5.515625 40.671875 11.671875 48.328125 
Q 17.828125 56 27.875 56 
Q 33.9375 56 38.28125 53.609375 
Q 42.625 51.21875 45.40625 46.390625 
L 45.40625 54.6875 
L 54.390625 54.6875 
z
" id="DejaVuSans-103"/>
      <path d="M 56.203125 29.59375 
L 56.203125 25.203125 
L 14.890625 25.203125 
Q 15.484375 15.921875 20.484375 11.0625 
Q 25.484375 6.203125 34.421875 6.203125 
Q 39.59375 6.203125 44.453125 7.46875 
Q 49.3125 8.734375 54.109375 11.28125 
L 54.109375 2.78125 
Q 49.265625 0.734375 44.1875 -0.34375 
Q 39.109375 -1.421875 33.890625 -1.421875 
Q 20.796875 -1.421875 13.15625 6.1875 
Q 5.515625 13.8125 5.515625 26.8125 
Q 5.515625 40.234375 12.765625 48.109375 
Q 20.015625 56 32.328125 56 
Q 43.359375 56 49.78125 48.890625 
Q 56.203125 41.796875 56.203125 29.59375 
z
M 47.21875 32.234375 
Q 47.125 39.59375 43.09375 43.984375 
Q 39.0625 48.390625 32.421875 48.390625 
Q 24.90625 48.390625 20.390625 44.140625 
Q 15.875 39.890625 15.1875 32.171875 
z
" id="DejaVuSans-101"/>
      <path d="M 54.890625 33.015625 
L 54.890625 0 
L 45.90625 0 
L 45.90625 32.71875 
Q 45.90625 40.484375 42.875 44.328125 
Q 39.84375 48.1875 33.796875 48.1875 
Q 26.515625 48.1875 22.3125 43.546875 
Q 18.109375 38.921875 18.109375 30.90625 
L 18.109375 0 
L 9.078125 0 
L 9.078125 54.6875 
L 18.109375 54.6875 
L 18.109375 46.1875 
Q 21.34375 51.125 25.703125 53.5625 
Q 30.078125 56 35.796875 56 
Q 45.21875 56 50.046875 50.171875 
Q 54.890625 44.34375 54.890625 33.015625 
z
" id="DejaVuSans-110"/>
      <path id="DejaVuSans-32"/>
      <path d="M 18.109375 8.203125 
L 18.109375 -20.796875 
L 9.078125 -20.796875 
L 9.078125 54.6875 
L 18.109375 54.6875 
L 18.109375 46.390625 
Q 20.953125 51.265625 25.265625 53.625 
Q 29.59375 56 35.59375 56 
Q 45.5625 56 51.78125 48.09375 
Q 58.015625 40.1875 58.015625 27.296875 
Q 58.015625 14.40625 51.78125 6.484375 
Q 45.5625 -1.421875 35.59375 -1.421875 
Q 29.59375 -1.421875 25.265625 0.953125 
Q 20.953125 3.328125 18.109375 8.203125 
z
M 48.6875 27.296875 
Q 48.6875 37.203125 44.609375 42.84375 
Q 40.53125 48.484375 33.40625 48.484375 
Q 26.265625 48.484375 22.1875 42.84375 
Q 18.109375 37.203125 18.109375 27.296875 
Q 18.109375 17.390625 22.1875 11.75 
Q 26.265625 6.109375 33.40625 6.109375 
Q 40.53125 6.109375 44.609375 11.75 
Q 48.6875 17.390625 48.6875 27.296875 
z
" id="DejaVuSans-112"/>
      <path d="M 30.609375 48.390625 
Q 23.390625 48.390625 19.1875 42.75 
Q 14.984375 37.109375 14.984375 27.296875 
Q 14.984375 17.484375 19.15625 11.84375 
Q 23.34375 6.203125 30.609375 6.203125 
Q 37.796875 6.203125 41.984375 11.859375 
Q 46.1875 17.53125 46.1875 27.296875 
Q 46.1875 37.015625 41.984375 42.703125 
Q 37.796875 48.390625 30.609375 48.390625 
z
M 30.609375 56 
Q 42.328125 56 49.015625 48.375 
Q 55.71875 40.765625 55.71875 27.296875 
Q 55.71875 13.875 49.015625 6.21875 
Q 42.328125 -1.421875 30.609375 -1.421875 
Q 18.84375 -1.421875 12.171875 6.21875 
Q 5.515625 13.875 5.515625 27.296875 
Q 5.515625 40.765625 12.171875 48.375 
Q 18.84375 56 30.609375 56 
z
" id="DejaVuSans-111"/>
      <path d="M 44.28125 53.078125 
L 44.28125 44.578125 
Q 40.484375 46.53125 36.375 47.5 
Q 32.28125 48.484375 27.875 48.484375 
Q 21.1875 48.484375 17.84375 46.4375 
Q 14.5 44.390625 14.5 40.28125 
Q 14.5 37.15625 16.890625 35.375 
Q 19.28125 33.59375 26.515625 31.984375 
L 29.59375 31.296875 
Q 39.15625 29.25 43.1875 25.515625 
Q 47.21875 21.78125 47.21875 15.09375 
Q 47.21875 7.46875 41.1875 3.015625 
Q 35.15625 -1.421875 24.609375 -1.421875 
Q 20.21875 -1.421875 15.453125 -0.5625 
Q 10.6875 0.296875 5.421875 2 
L 5.421875 11.28125 
Q 10.40625 8.6875 15.234375 7.390625 
Q 20.0625 6.109375 24.8125 6.109375 
Q 31.15625 6.109375 34.5625 8.28125 
Q 37.984375 10.453125 37.984375 14.40625 
Q 37.984375 18.0625 35.515625 20.015625 
Q 33.0625 21.96875 24.703125 23.78125 
L 21.578125 24.515625 
Q 13.234375 26.265625 9.515625 29.90625 
Q 5.8125 33.546875 5.8125 39.890625 
Q 5.8125 47.609375 11.28125 51.796875 
Q 16.75 56 26.8125 56 
Q 31.78125 56 36.171875 55.265625 
Q 40.578125 54.546875 44.28125 53.078125 
z
" id="DejaVuSans-115"/>
      <path d="M 9.421875 54.6875 
L 18.40625 54.6875 
L 18.40625 0 
L 9.421875 0 
z
M 9.421875 75.984375 
L 18.40625 75.984375 
L 18.40625 64.59375 
L 9.421875 64.59375 
z
" id="DejaVuSans-105"/>
      <path d="M 18.3125 70.21875 
L 18.3125 54.6875 
L 36.8125 54.6875 
L 36.8125 47.703125 
L 18.3125 47.703125 
L 18.3125 18.015625 
Q 18.3125 11.328125 20.140625 9.421875 
Q 21.96875 7.515625 27.59375 7.515625 
L 36.8125 7.515625 
L 36.8125 0 
L 27.59375 0 
Q 17.1875 0 13.234375 3.875 
Q 9.28125 7.765625 9.28125 18.015625 
L 9.28125 47.703125 
L 2.6875 47.703125 
L 2.6875 54.6875 
L 9.28125 54.6875 
L 9.28125 70.21875 
z
" id="DejaVuSans-116"/>
     </defs>
     <g transform="translate(202.270156 335.860562)scale(0.1 -0.1)">
      <use xlink:href="#DejaVuSans-103"/>
      <use x="63.476562" xlink:href="#DejaVuSans-101"/>
      <use x="125" xlink:href="#DejaVuSans-110"/>
      <use x="188.378906" xlink:href="#DejaVuSans-101"/>
      <use x="249.902344" xlink:href="#DejaVuSans-32"/>
      <use x="281.689453" xlink:href="#DejaVuSans-112"/>
      <use x="345.166016" xlink:href="#DejaVuSans-111"/>
      <use x="406.347656" xlink:href="#DejaVuSans-115"/>
      <use x="458.447266" xlink:href="#DejaVuSans-105"/>
      <use x="486.230469" xlink:href="#DejaVuSans-116"/>
      <use x="525.439453" xlink:href="#DejaVuSans-105"/>
      <use x="553.222656" xlink:href="#DejaVuSans-111"/>
      <use x="614.404297" xlink:href="#DejaVuSans-110"/>
     </g>
    </g>
   </g>
   <g id="matplotlib.axis_2">
    <g id="ytick_1">
     <g id="line2d_8">
      <defs>
       <path d="M 0 0 
L -3.5 0 
" id="m8bef3faac2" style="stroke:#000000;stroke-width:0.8;"/>
      </defs>
      <g>
       <use style="stroke:#000000;stroke-width:0.8;" x="57.6" xlink:href="#m8bef3faac2" y="307.584"/>
      </g>
     </g>
     <g id="text_9">
      <!-- 0 -->
      <g transform="translate(44.2375 311.383219)scale(0.1 -0.1)">
       <use xlink:href="#DejaVuSans-48"/>
      </g>
     </g>
    </g>
    <g id="ytick_2">
     <g id="line2d_9">
      <g>
       <use style="stroke:#000000;stroke-width:0.8;" x="57.6" xlink:href="#m8bef3faac2" y="270.624"/>
      </g>
     </g>
     <g id="text_10">
      <!-- 10 -->
      <g transform="translate(37.875 274.423219)scale(0.1 -0.1)">
       <use xlink:href="#DejaVuSans-49"/>
       <use x="63.623047" xlink:href="#DejaVuSans-48"/>
      </g>
     </g>
    </g>
    <g id="ytick_3">
     <g id="line2d_10">
      <g>
       <use style="stroke:#000000;stroke-width:0.8;" x="57.6" xlink:href="#m8bef3faac2" y="233.664"/>
      </g>
     </g>
     <g id="text_11">
      <!-- 20 -->
      <g transform="translate(37.875 237.463219)scale(0.1 -0.1)">
       <use xlink:href="#DejaVuSans-50"/>
       <use x="63.623047" xlink:href="#DejaVuSans-48"/>
      </g>
     </g>
    </g>
    <g id="ytick_4">
     <g id="line2d_11">
      <g>
       <use style="stroke:#000000;stroke-width:0.8;" x="57.6" xlink:href="#m8bef3faac2" y="196.704"/>
      </g>
     </g>
     <g id="text_12">
      <!-- 30 -->
      <defs>
       <path d="M 40.578125 39.3125 
Q 47.65625 37.796875 51.625 33 
Q 55.609375 28.21875 55.609375 21.1875 
Q 55.609375 10.40625 48.1875 4.484375 
Q 40.765625 -1.421875 27.09375 -1.421875 
Q 22.515625 -1.421875 17.65625 -0.515625 
Q 12.796875 0.390625 7.625 2.203125 
L 7.625 11.71875 
Q 11.71875 9.328125 16.59375 8.109375 
Q 21.484375 6.890625 26.8125 6.890625 
Q 36.078125 6.890625 40.9375 10.546875 
Q 45.796875 14.203125 45.796875 21.1875 
Q 45.796875 27.640625 41.28125 31.265625 
Q 36.765625 34.90625 28.71875 34.90625 
L 20.21875 34.90625 
L 20.21875 43.015625 
L 29.109375 43.015625 
Q 36.375 43.015625 40.234375 45.921875 
Q 44.09375 48.828125 44.09375 54.296875 
Q 44.09375 59.90625 40.109375 62.90625 
Q 36.140625 65.921875 28.71875 65.921875 
Q 24.65625 65.921875 20.015625 65.03125 
Q 15.375 64.15625 9.8125 62.3125 
L 9.8125 71.09375 
Q 15.4375 72.65625 20.34375 73.4375 
Q 25.25 74.21875 29.59375 74.21875 
Q 40.828125 74.21875 47.359375 69.109375 
Q 53.90625 64.015625 53.90625 55.328125 
Q 53.90625 49.265625 50.4375 45.09375 
Q 46.96875 40.921875 40.578125 39.3125 
z
" id="DejaVuSans-51"/>
      </defs>
      <g transform="translate(37.875 200.503219)scale(0.1 -0.1)">
       <use xlink:href="#DejaVuSans-51"/>
       <use x="63.623047" xlink:href="#DejaVuSans-48"/>
      </g>
     </g>
    </g>
    <g id="ytick_5">
     <g id="line2d_12">
      <g>
       <use style="stroke:#000000;stroke-width:0.8;" x="57.6" xlink:href="#m8bef3faac2" y="159.744"/>
      </g>
     </g>
     <g id="text_13">
      <!-- 40 -->
      <g transform="translate(37.875 163.543219)scale(0.1 -0.1)">
       <use xlink:href="#DejaVuSans-52"/>
       <use x="63.623047" xlink:href="#DejaVuSans-48"/>
      </g>
     </g>
    </g>
    <g id="ytick_6">
     <g id="line2d_13">
      <g>
       <use style="stroke:#000000;stroke-width:0.8;" x="57.6" xlink:href="#m8bef3faac2" y="122.784"/>
      </g>
     </g>
     <g id="text_14">
      <!-- 50 -->
      <defs>
       <path d="M 10.796875 72.90625 
L 49.515625 72.90625 
L 49.515625 64.59375 
L 19.828125 64.59375 
L 19.828125 46.734375 
Q 21.96875 47.46875 24.109375 47.828125 
Q 26.265625 48.1875 28.421875 48.1875 
Q 40.625 48.1875 47.75 41.5 
Q 54.890625 34.8125 54.890625 23.390625 
Q 54.890625 11.625 47.5625 5.09375 
Q 40.234375 -1.421875 26.90625 -1.421875 
Q 22.3125 -1.421875 17.546875 -0.640625 
Q 12.796875 0.140625 7.71875 1.703125 
L 7.71875 11.625 
Q 12.109375 9.234375 16.796875 8.0625 
Q 21.484375 6.890625 26.703125 6.890625 
Q 35.15625 6.890625 40.078125 11.328125 
Q 45.015625 15.765625 45.015625 23.390625 
Q 45.015625 31 40.078125 35.4375 
Q 35.15625 39.890625 26.703125 39.890625 
Q 22.75 39.890625 18.8125 39.015625 
Q 14.890625 38.140625 10.796875 36.28125 
z
" id="DejaVuSans-53"/>
      </defs>
      <g transform="translate(37.875 126.583219)scale(0.1 -0.1)">
       <use xlink:href="#DejaVuSans-53"/>
       <use x="63.623047" xlink:href="#DejaVuSans-48"/>
      </g>
     </g>
    </g>
    <g id="ytick_7">
     <g id="line2d_14">
      <g>
       <use style="stroke:#000000;stroke-width:0.8;" x="57.6" xlink:href="#m8bef3faac2" y="85.824"/>
      </g>
     </g>
     <g id="text_15">
      <!-- 60 -->
      <g transform="translate(37.875 89.623219)scale(0.1 -0.1)">
       <use xlink:href="#DejaVuSans-54"/>
       <use x="63.623047" xlink:href="#DejaVuSans-48"/>
      </g>
     </g>
    </g>
    <g id="ytick_8">
     <g id="line2d_15">
      <g>
       <use style="stroke:#000000;stroke-width:0.8;" x="57.6" xlink:href="#m8bef3faac2" y="48.864"/>
      </g>
     </g>
     <g id="text_16">
      <!-- 70 -->
      <defs>
       <path d="M 8.203125 72.90625 
L 55.078125 72.90625 
L 55.078125 68.703125 
L 28.609375 0 
L 18.3125 0 
L 43.21875 64.59375 
L 8.203125 64.59375 
z
" id="DejaVuSans-55"/>
      </defs>
      <g transform="translate(37.875 52.663219)scale(0.1 -0.1)">
       <use xlink:href="#DejaVuSans-55"/>
       <use x="63.623047" xlink:href="#DejaVuSans-48"/>
      </g>
     </g>
    </g>
    <g id="text_17">
     <!-- depth -->
     <defs>
      <path d="M 45.40625 46.390625 
L 45.40625 75.984375 
L 54.390625 75.984375 
L 54.390625 0 
L 45.40625 0 
L 45.40625 8.203125 
Q 42.578125 3.328125 38.25 0.953125 
Q 33.9375 -1.421875 27.875 -1.421875 
Q 17.96875 -1.421875 11.734375 6.484375 
Q 5.515625 14.40625 5.515625 27.296875 
Q 5.515625 40.1875 11.734375 48.09375 
Q 17.96875 56 27.875 56 
Q 33.9375 56 38.25 53.625 
Q 42.578125 51.265625 45.40625 46.390625 
z
M 14.796875 27.296875 
Q 14.796875 17.390625 18.875 11.75 
Q 22.953125 6.109375 30.078125 6.109375 
Q 37.203125 6.109375 41.296875 11.75 
Q 45.40625 17.390625 45.40625 27.296875 
Q 45.40625 37.203125 41.296875 42.84375 
Q 37.203125 48.484375 30.078125 48.484375 
Q 22.953125 48.484375 18.875 42.84375 
Q 14.796875 37.203125 14.796875 27.296875 
z
" id="DejaVuSans-100"/>
      <path d="M 54.890625 33.015625 
L 54.890625 0 
L 45.90625 0 
L 45.90625 32.71875 
Q 45.90625 40.484375 42.875 44.328125 
Q 39.84375 48.1875 33.796875 48.1875 
Q 26.515625 48.1875 22.3125 43.546875 
Q 18.109375 38.921875 18.109375 30.90625 
L 18.109375 0 
L 9.078125 0 
L 9.078125 75.984375 
L 18.109375 75.984375 
L 18.109375 46.1875 
Q 21.34375 51.125 25.703125 53.5625 
Q 30.078125 56 35.796875 56 
Q 45.21875 56 50.046875 50.171875 
Q 54.890625 44.34375 54.890625 33.015625 
z
" id="DejaVuSans-104"/>
     </defs>
     <g transform="translate(31.795312 189.081906)rotate(-90)scale(0.1 -0.1)">
      <use xlink:href="#DejaVuSans-100"/>
      <use x="63.476562" xlink:href="#DejaVuSans-101"/>
      <use x="125" xlink:href="#DejaVuSans-112"/>
      <use x="188.476562" xlink:href="#DejaVuSans-116"/>
      <use x="227.685547" xlink:href="#DejaVuSans-104"/>
     </g>
    </g>
   </g>
   <g id="line2d_16">
    <path clip-path="url(#pabfe86b180)" d="M 73.832727 248.448 
L 74.382523 241.056 
L 74.657421 241.056 
L 76.031911 222.576 
L 76.581707 222.576 
L 77.131503 215.184 
L 78.231095 215.184 
L 78.505993 207.792 
L 78.780891 211.488 
L 79.055789 211.488 
L 80.155381 196.704 
L 80.430279 196.704 
L 80.705177 193.008 
L 80.980075 193.008 
L 81.254973 185.616 
L 82.079667 185.616 
L 82.354565 189.312 
L 82.629463 181.92 
L 83.454157 181.92 
L 83.729055 174.528 
L 84.003954 170.832 
L 85.378444 170.832 
L 85.92824 178.224 
L 86.478036 193.008 
L 86.752934 196.704 
L 87.027832 196.704 
L 87.852526 185.616 
L 88.127424 189.312 
L 88.402322 189.312 
L 88.952118 181.92 
L 89.501914 181.92 
L 89.776812 185.616 
L 90.05171 185.616 
L 90.601506 178.224 
L 90.876404 178.224 
L 91.151302 181.92 
L 91.4262 181.92 
L 91.701098 178.224 
L 91.975996 170.832 
L 92.250894 174.528 
L 92.525792 167.136 
L 92.80069 163.44 
L 93.075588 167.136 
L 93.350486 167.136 
L 93.625384 163.44 
L 93.900282 163.44 
L 94.17518 156.048 
L 95.54967 156.048 
L 95.824568 152.352 
L 96.099466 152.352 
L 96.374364 156.048 
L 96.92416 148.656 
L 97.199058 152.352 
L 97.473956 148.656 
L 97.748854 148.656 
L 98.023752 156.048 
L 98.29865 159.744 
L 98.573548 156.048 
L 98.848446 148.656 
L 99.123344 152.352 
L 99.398242 148.656 
L 99.67314 148.656 
L 100.222936 156.048 
L 100.497834 152.352 
L 100.772732 152.352 
L 101.04763 156.048 
L 101.322528 156.048 
L 101.597426 152.352 
L 101.872324 152.352 
L 102.147222 159.744 
L 102.42212 156.048 
L 102.697018 159.744 
L 103.246814 152.352 
L 103.521712 156.048 
L 103.79661 144.96 
L 104.071508 152.352 
L 104.621304 152.352 
L 104.896202 159.744 
L 105.1711 159.744 
L 105.445998 152.352 
L 105.720896 148.656 
L 105.995794 156.048 
L 106.270692 148.656 
L 106.54559 144.96 
L 106.820488 137.568 
L 107.095386 137.568 
L 107.370284 130.176 
L 107.645182 130.176 
L 108.194978 137.568 
L 108.469876 130.176 
L 108.744774 133.872 
L 109.019672 133.872 
L 109.29457 130.176 
L 109.569468 130.176 
L 109.844366 133.872 
L 110.66906 133.872 
L 110.943958 141.264 
L 111.493754 133.872 
L 112.04355 141.264 
L 112.318448 137.568 
L 112.593346 137.568 
L 112.868244 133.872 
L 113.143142 137.568 
L 113.41804 144.96 
L 113.692938 137.568 
L 114.517632 137.568 
L 114.79253 141.264 
L 115.067428 137.568 
L 115.342326 141.264 
L 115.617224 148.656 
L 115.892122 148.656 
L 116.16702 144.96 
L 116.441918 148.656 
L 116.716816 148.656 
L 116.991714 152.352 
L 117.266612 148.656 
L 117.54151 152.352 
L 117.816408 137.568 
L 118.091306 141.264 
L 118.366204 137.568 
L 119.190898 137.568 
L 119.740694 144.96 
L 120.015592 141.264 
L 120.565388 148.656 
L 121.115184 133.872 
L 121.390082 133.872 
L 121.66498 137.568 
L 121.939878 130.176 
L 122.214776 137.568 
L 122.489674 133.872 
L 122.764572 133.872 
L 123.03947 137.568 
L 123.314368 133.872 
L 123.864164 133.872 
L 124.139062 122.784 
L 124.41396 122.784 
L 124.688858 119.088 
L 125.238654 119.088 
L 125.78845 126.48 
L 126.613144 126.48 
L 126.888042 119.088 
L 127.437839 119.088 
L 127.712737 115.392 
L 127.987635 115.392 
L 128.262533 119.088 
L 128.537431 126.48 
L 128.812329 104.304 
L 129.087227 100.608 
L 129.362125 104.304 
L 129.911921 104.304 
L 130.186819 108 
L 131.011513 108 
L 131.286411 115.392 
L 132.386003 115.392 
L 132.660901 111.696 
L 133.210697 111.696 
L 133.485595 108 
L 133.760493 100.608 
L 134.310289 100.608 
L 134.585187 104.304 
L 134.860085 104.304 
L 135.409881 96.912 
L 135.959677 96.912 
L 136.234575 100.608 
L 136.509473 96.912 
L 136.784371 96.912 
L 137.059269 89.52 
L 137.609065 96.912 
L 137.883963 104.304 
L 138.158861 104.304 
L 138.433759 108 
L 138.708657 100.608 
L 138.983555 100.608 
L 139.533351 108 
L 139.808249 115.392 
L 140.083147 119.088 
L 140.358045 115.392 
L 140.632943 122.784 
L 141.182739 130.176 
L 141.732535 130.176 
L 142.007433 126.48 
L 142.282331 126.48 
L 142.557229 122.784 
L 142.832127 122.784 
L 143.107025 126.48 
L 143.381923 126.48 
L 143.931719 133.872 
L 144.481515 126.48 
L 144.756413 130.176 
L 145.031311 126.48 
L 145.581107 144.96 
L 145.856005 148.656 
L 146.405801 148.656 
L 147.505393 133.872 
L 148.604985 133.872 
L 148.879883 137.568 
L 149.154781 152.352 
L 149.429679 156.048 
L 149.704577 163.44 
L 150.529271 163.44 
L 150.804169 159.744 
L 151.079067 152.352 
L 151.353965 152.352 
L 151.628863 174.528 
L 151.903761 170.832 
L 152.453557 178.224 
L 152.728455 178.224 
L 153.003353 170.832 
L 153.828047 170.832 
L 154.102945 178.224 
L 154.377843 170.832 
L 154.652741 170.832 
L 154.927639 174.528 
L 155.752333 174.528 
L 156.027231 170.832 
L 156.302129 178.224 
L 157.676619 178.224 
L 158.501313 189.312 
L 158.776211 189.312 
L 159.326007 196.704 
L 159.600905 193.008 
L 160.700497 193.008 
L 160.975395 196.704 
L 161.250293 196.704 
L 161.525191 204.096 
L 161.800089 204.096 
L 162.074987 200.4 
L 162.899681 200.4 
L 163.174579 193.008 
L 163.449477 204.096 
L 163.724375 200.4 
L 163.999273 200.4 
L 164.274171 196.704 
L 164.823967 196.704 
L 165.373763 204.096 
L 165.648661 196.704 
L 165.923559 196.704 
L 166.198457 193.008 
L 166.473355 185.616 
L 166.748253 185.616 
L 167.023151 189.312 
L 167.298049 189.312 
L 167.572947 196.704 
L 167.847845 196.704 
L 168.122743 193.008 
L 169.222335 193.008 
L 169.497233 200.4 
L 169.772131 200.4 
L 170.047029 207.792 
L 170.321927 207.792 
L 170.871724 200.4 
L 171.146622 200.4 
L 171.42152 193.008 
L 171.696418 189.312 
L 172.246214 189.312 
L 172.521112 193.008 
L 172.79601 189.312 
L 173.345806 189.312 
L 173.620704 193.008 
L 173.895602 200.4 
L 174.1705 204.096 
L 174.445398 204.096 
L 174.720296 200.4 
L 174.995194 189.312 
L 175.270092 189.312 
L 176.094786 178.224 
L 176.369684 178.224 
L 176.91948 170.832 
L 177.194378 174.528 
L 177.469276 174.528 
L 177.744174 178.224 
L 178.019072 170.832 
L 178.568868 178.224 
L 178.843766 178.224 
L 179.118664 170.832 
L 179.393562 174.528 
L 179.66846 167.136 
L 180.493154 167.136 
L 180.768052 159.744 
L 182.142542 159.744 
L 182.41744 144.96 
L 182.692338 144.96 
L 183.242134 137.568 
L 184.066828 137.568 
L 184.341726 133.872 
L 184.616624 126.48 
L 185.16642 126.48 
L 185.441318 122.784 
L 185.716216 126.48 
L 186.266012 119.088 
L 186.54091 122.784 
L 187.090706 122.784 
L 187.365604 126.48 
L 187.640502 126.48 
L 187.9154 133.872 
L 188.190298 130.176 
L 188.465196 133.872 
L 188.740094 133.872 
L 189.014992 137.568 
L 189.28989 148.656 
L 189.564788 144.96 
L 189.839686 152.352 
L 190.114584 148.656 
L 190.389482 148.656 
L 190.66438 152.352 
L 190.939278 148.656 
L 191.214176 159.744 
L 191.489074 152.352 
L 191.763972 152.352 
L 192.03887 148.656 
L 192.863564 148.656 
L 193.138462 144.96 
L 193.41336 144.96 
L 193.688258 141.264 
L 193.963156 133.872 
L 194.238054 141.264 
L 194.512952 144.96 
L 195.062748 137.568 
L 195.337646 144.96 
L 195.612544 141.264 
L 195.887442 133.872 
L 196.16234 137.568 
L 196.437238 133.872 
L 196.987034 133.872 
L 197.811728 144.96 
L 198.91132 144.96 
L 199.461116 130.176 
L 199.736014 126.48 
L 200.010912 126.48 
L 200.28581 122.784 
L 200.560708 126.48 
L 200.835606 141.264 
L 201.110504 141.264 
L 201.385402 130.176 
L 201.6603 130.176 
L 201.935198 133.872 
L 202.210096 133.872 
L 202.484994 141.264 
L 202.759892 137.568 
L 203.03479 137.568 
L 203.309688 141.264 
L 203.859484 141.264 
L 204.684178 130.176 
L 205.233974 130.176 
L 205.508872 137.568 
L 205.78377 141.264 
L 206.058668 141.264 
L 206.333566 133.872 
L 206.883362 126.48 
L 207.433158 133.872 
L 207.708056 130.176 
L 207.982954 133.872 
L 209.90724 133.872 
L 210.182138 130.176 
L 210.457036 133.872 
L 210.731934 126.48 
L 211.28173 126.48 
L 211.556628 119.088 
L 211.831526 119.088 
L 212.381322 126.48 
L 212.65622 122.784 
L 212.931118 126.48 
L 213.206016 122.784 
L 214.03071 133.872 
L 214.305608 141.264 
L 214.580507 137.568 
L 215.405201 148.656 
L 215.680099 144.96 
L 215.954997 144.96 
L 216.779691 156.048 
L 217.329487 148.656 
L 217.604385 156.048 
L 218.429079 156.048 
L 218.703977 167.136 
L 219.253773 167.136 
L 219.528671 170.832 
L 219.803569 170.832 
L 220.078467 178.224 
L 220.353365 181.92 
L 220.628263 181.92 
L 220.903161 178.224 
L 221.178059 178.224 
L 221.452957 181.92 
L 221.727855 178.224 
L 222.002753 181.92 
L 222.277651 181.92 
L 222.552549 178.224 
L 222.827447 178.224 
L 223.102345 181.92 
L 223.377243 181.92 
L 223.652141 178.224 
L 223.927039 170.832 
L 224.201937 174.528 
L 224.476835 170.832 
L 224.751733 178.224 
L 225.301529 178.224 
L 225.576427 181.92 
L 225.851325 174.528 
L 226.126223 174.528 
L 226.401121 193.008 
L 226.676019 189.312 
L 227.225815 189.312 
L 227.500713 193.008 
L 228.325407 193.008 
L 228.600305 178.224 
L 228.875203 181.92 
L 229.150101 178.224 
L 229.424999 178.224 
L 229.699897 174.528 
L 230.799489 174.528 
L 231.074387 170.832 
L 231.349285 170.832 
L 231.624183 152.352 
L 232.448877 152.352 
L 232.723775 148.656 
L 232.998673 148.656 
L 233.548469 156.048 
L 233.823367 148.656 
L 234.098265 152.352 
L 234.373163 159.744 
L 234.922959 152.352 
L 235.197857 152.352 
L 235.472755 156.048 
L 236.572347 156.048 
L 236.847245 159.744 
L 237.122143 156.048 
L 237.397041 159.744 
L 237.671939 148.656 
L 237.946837 148.656 
L 238.496633 141.264 
L 238.771531 148.656 
L 239.046429 144.96 
L 239.321327 144.96 
L 239.871123 137.568 
L 240.146021 137.568 
L 240.695817 130.176 
L 240.970715 130.176 
L 241.245613 133.872 
L 241.795409 133.872 
L 242.070307 137.568 
L 242.345205 144.96 
L 242.620103 144.96 
L 242.895001 148.656 
L 243.169899 148.656 
L 243.994593 159.744 
L 244.544389 159.744 
L 245.094185 167.136 
L 245.369083 167.136 
L 245.643981 178.224 
L 246.193777 178.224 
L 246.468675 181.92 
L 246.743573 181.92 
L 247.293369 163.44 
L 247.843165 148.656 
L 248.118063 156.048 
L 248.392961 152.352 
L 248.667859 144.96 
L 248.942757 141.264 
L 249.217655 144.96 
L 249.767451 144.96 
L 250.042349 141.264 
L 250.317247 141.264 
L 250.592145 144.96 
L 250.867043 137.568 
L 251.141941 137.568 
L 251.416839 141.264 
L 251.691737 133.872 
L 251.966635 130.176 
L 252.241533 137.568 
L 252.791329 137.568 
L 253.341125 144.96 
L 253.616023 144.96 
L 253.890921 148.656 
L 254.165819 144.96 
L 254.440717 152.352 
L 254.715615 152.352 
L 254.990513 156.048 
L 255.265411 156.048 
L 255.540309 152.352 
L 255.815207 159.744 
L 256.365003 159.744 
L 256.639901 163.44 
L 256.914799 159.744 
L 257.189697 159.744 
L 257.464595 167.136 
L 257.739493 163.44 
L 258.014392 163.44 
L 258.28929 159.744 
L 258.564188 159.744 
L 258.839086 156.048 
L 259.388882 156.048 
L 259.66378 144.96 
L 259.938678 148.656 
L 260.213576 144.96 
L 260.763372 144.96 
L 261.03827 148.656 
L 261.313168 148.656 
L 261.588066 137.568 
L 261.862964 137.568 
L 262.137862 133.872 
L 262.687658 141.264 
L 262.962556 141.264 
L 263.237454 137.568 
L 263.512352 137.568 
L 263.78725 141.264 
L 264.337046 141.264 
L 264.611944 137.568 
L 264.886842 130.176 
L 265.16174 126.48 
L 265.436638 126.48 
L 265.986434 111.696 
L 266.53623 104.304 
L 266.811128 111.696 
L 267.360924 104.304 
L 267.91072 104.304 
L 268.185618 96.912 
L 268.460516 96.912 
L 269.010312 104.304 
L 269.28521 111.696 
L 269.560108 111.696 
L 270.109904 137.568 
L 270.6597 137.568 
L 270.934598 130.176 
L 272.583986 130.176 
L 272.858884 122.784 
L 273.133782 119.088 
L 273.40868 122.784 
L 273.958476 115.392 
L 274.233374 119.088 
L 274.508272 119.088 
L 275.058068 111.696 
L 275.332966 111.696 
L 275.882762 104.304 
L 276.432558 104.304 
L 276.707456 100.608 
L 276.982354 104.304 
L 277.807048 93.216 
L 278.081946 96.912 
L 278.356844 96.912 
L 278.631742 89.52 
L 278.90664 93.216 
L 279.181538 93.216 
L 279.456436 96.912 
L 279.731334 96.912 
L 280.006232 104.304 
L 280.28113 104.304 
L 280.556028 108 
L 281.105824 108 
L 281.380722 96.912 
L 282.205416 96.912 
L 282.480314 104.304 
L 282.755212 96.912 
L 283.03011 108 
L 283.305008 104.304 
L 283.579906 108 
L 283.854804 108 
L 284.129702 111.696 
L 284.4046 111.696 
L 284.679498 108 
L 284.954396 111.696 
L 285.504192 111.696 
L 285.77909 108 
L 286.328886 108 
L 286.878682 100.608 
L 287.428478 108 
L 287.703376 115.392 
L 287.978274 119.088 
L 288.253172 111.696 
L 288.52807 115.392 
L 289.077866 108 
L 289.352764 108 
L 290.177458 119.088 
L 290.452356 115.392 
L 291.002152 130.176 
L 291.551948 122.784 
L 291.826846 122.784 
L 292.376642 115.392 
L 292.65154 115.392 
L 292.926438 122.784 
L 293.201336 126.48 
L 293.751132 119.088 
L 294.02603 119.088 
L 294.575826 111.696 
L 294.850724 115.392 
L 295.125622 115.392 
L 295.40052 108 
L 295.675418 111.696 
L 295.950316 111.696 
L 296.225214 115.392 
L 296.500112 115.392 
L 297.324806 104.304 
L 297.599704 104.304 
L 297.874602 108 
L 298.1495 104.304 
L 298.699296 111.696 
L 298.974194 108 
L 299.52399 108 
L 299.798888 104.304 
L 300.89848 104.304 
L 301.173378 108 
L 301.723175 100.608 
L 301.998073 100.608 
L 302.272971 108 
L 302.547869 111.696 
L 302.822767 108 
L 303.097665 96.912 
L 303.372563 96.912 
L 303.922359 78.432 
L 304.197257 74.736 
L 304.472155 78.432 
L 305.021951 78.432 
L 305.296849 63.648 
L 305.571747 63.648 
L 305.846645 67.344 
L 306.121543 63.648 
L 306.671339 63.648 
L 307.221135 56.256 
L 307.496033 48.864 
L 307.770931 45.168 
L 308.320727 45.168 
L 308.595625 52.56 
L 308.870523 56.256 
L 309.145421 52.56 
L 309.420319 56.256 
L 309.970115 56.256 
L 310.245013 52.56 
L 310.519911 56.256 
L 310.794809 56.256 
L 311.069707 63.648 
L 311.344605 63.648 
L 311.619503 67.344 
L 312.169299 59.952 
L 312.444197 59.952 
L 312.719095 52.56 
L 312.993993 52.56 
L 313.268891 56.256 
L 313.543789 48.864 
L 313.818687 45.168 
L 314.093585 48.864 
L 314.918279 48.864 
L 315.193177 56.256 
L 315.468075 45.168 
L 315.742973 41.472 
L 316.292769 48.864 
L 316.567667 45.168 
L 317.117463 45.168 
L 317.392361 52.56 
L 317.667259 52.56 
L 317.942157 56.256 
L 318.217055 71.04 
L 318.491953 67.344 
L 318.766851 67.344 
L 319.591545 45.168 
L 319.866443 45.168 
L 320.141341 48.864 
L 320.416239 56.256 
L 320.691137 56.256 
L 320.966035 63.648 
L 321.240933 52.56 
L 321.515831 63.648 
L 321.790729 67.344 
L 322.065627 63.648 
L 322.340525 71.04 
L 322.615423 71.04 
L 323.165219 63.648 
L 323.440117 63.648 
L 323.715015 67.344 
L 323.989913 67.344 
L 324.264811 74.736 
L 324.539709 74.736 
L 324.814607 82.128 
L 325.089505 85.824 
L 325.364403 85.824 
L 325.639301 89.52 
L 325.914199 100.608 
L 326.189097 100.608 
L 326.463995 104.304 
L 326.738893 115.392 
L 327.013791 115.392 
L 327.563587 122.784 
L 327.838485 122.784 
L 328.113383 126.48 
L 328.663179 126.48 
L 328.938077 130.176 
L 329.212975 137.568 
L 329.487873 133.872 
L 329.762771 141.264 
L 330.037669 141.264 
L 330.312567 133.872 
L 331.687057 115.392 
L 331.961955 119.088 
L 332.236853 119.088 
L 332.511751 115.392 
L 332.786649 104.304 
L 333.061547 108 
L 333.336445 104.304 
L 333.611343 108 
L 334.161139 108 
L 334.985833 119.088 
L 335.260731 119.088 
L 335.535629 130.176 
L 336.085425 130.176 
L 336.360323 137.568 
L 336.635221 130.176 
L 337.185017 122.784 
L 337.459915 122.784 
L 337.734813 119.088 
L 338.009711 119.088 
L 338.559507 126.48 
L 338.834405 126.48 
L 339.109303 122.784 
L 339.384201 130.176 
L 339.659099 133.872 
L 340.208895 133.872 
L 340.758691 126.48 
L 341.308487 126.48 
L 341.583385 122.784 
L 341.858283 130.176 
L 342.133181 130.176 
L 342.408079 137.568 
L 343.232773 137.568 
L 343.507671 130.176 
L 344.332365 130.176 
L 344.607263 133.872 
L 345.15706 108 
L 345.431958 108 
L 345.706856 111.696 
L 345.981754 119.088 
L 346.256652 119.088 
L 347.081346 108 
L 347.90604 108 
L 348.180938 100.608 
L 349.005632 100.608 
L 349.555428 108 
L 349.830326 104.304 
L 350.105224 104.304 
L 351.204816 89.52 
L 351.479714 89.52 
L 351.754612 93.216 
L 352.02951 93.216 
L 352.304408 89.52 
L 352.854204 89.52 
L 353.129102 93.216 
L 353.404 93.216 
L 353.953796 85.824 
L 354.503592 104.304 
L 354.77849 96.912 
L 355.053388 100.608 
L 355.328286 96.912 
L 356.702776 96.912 
L 357.252572 67.344 
L 357.802368 74.736 
L 358.077266 74.736 
L 358.352164 71.04 
L 358.627062 74.736 
L 359.451756 63.648 
L 359.726654 63.648 
L 360.551348 74.736 
L 360.826246 71.04 
L 361.101144 74.736 
L 363.02543 74.736 
L 363.300328 78.432 
L 363.850124 71.04 
L 364.39992 78.432 
L 364.674818 78.432 
L 364.949716 85.824 
L 365.499512 93.216 
L 365.77441 93.216 
L 366.049308 96.912 
L 366.324206 96.912 
L 366.599104 100.608 
L 366.874002 96.912 
L 367.1489 85.824 
L 367.423798 96.912 
L 367.698696 96.912 
L 367.973594 100.608 
L 368.248492 100.608 
L 368.52339 93.216 
L 368.798288 89.52 
L 369.073186 89.52 
L 369.622982 96.912 
L 369.89788 104.304 
L 370.447676 104.304 
L 370.722574 100.608 
L 370.997472 111.696 
L 371.27237 115.392 
L 371.547268 126.48 
L 372.097064 126.48 
L 372.371962 137.568 
L 372.64686 133.872 
L 372.921758 126.48 
L 373.471554 126.48 
L 374.02135 133.872 
L 374.296248 133.872 
L 374.571146 137.568 
L 374.846044 137.568 
L 375.120942 126.48 
L 375.39584 126.48 
L 375.670738 130.176 
L 375.945636 130.176 
L 376.220534 122.784 
L 376.77033 122.784 
L 377.045228 119.088 
L 377.320126 122.784 
L 377.595024 130.176 
L 377.869922 122.784 
L 378.14482 133.872 
L 378.419718 137.568 
L 378.694616 126.48 
L 378.969514 126.48 
L 379.244412 133.872 
L 379.51931 133.872 
L 379.794208 137.568 
L 380.069106 144.96 
L 380.344004 148.656 
L 380.618902 144.96 
L 380.8938 144.96 
L 381.168698 156.048 
L 381.443596 152.352 
L 381.718494 152.352 
L 381.993392 156.048 
L 382.26829 156.048 
L 382.543188 148.656 
L 382.818086 148.656 
L 383.092984 144.96 
L 383.367882 144.96 
L 383.917678 152.352 
L 384.467474 152.352 
L 384.742372 156.048 
L 385.01727 156.048 
L 385.292168 159.744 
L 385.841964 152.352 
L 386.116862 152.352 
L 386.39176 156.048 
L 386.666658 156.048 
L 386.941556 159.744 
L 387.216454 159.744 
L 387.491352 163.44 
L 388.590945 163.44 
L 388.865843 167.136 
L 389.690537 167.136 
L 389.965435 174.528 
L 390.240333 174.528 
L 390.515231 178.224 
L 390.790129 178.224 
L 391.339925 185.616 
L 391.889721 185.616 
L 393.539109 207.792 
L 393.814007 215.184 
L 394.088905 218.88 
L 394.363803 218.88 
L 394.638701 222.576 
L 394.913599 222.576 
L 395.738293 233.664 
L 396.013191 233.664 
L 396.288089 229.968 
L 396.837885 237.36 
L 397.112783 237.36 
L 397.387681 248.448 
L 397.662579 248.448 
L 397.937477 252.144 
L 398.487273 252.144 
L 398.487273 252.144 
" style="fill:none;stroke:#0000ff;stroke-linecap:square;stroke-width:1.5;"/>
   </g>
   <g id="patch_3">
    <path d="M 57.6 307.584 
L 57.6 41.472 
" style="fill:none;stroke:#000000;stroke-linecap:square;stroke-linejoin:miter;stroke-width:0.8;"/>
   </g>
   <g id="patch_4">
    <path d="M 414.72 307.584 
L 414.72 41.472 
" style="fill:none;stroke:#000000;stroke-linecap:square;stroke-linejoin:miter;stroke-width:0.8;"/>
   </g>
   <g id="patch_5">
    <path d="M 57.6 307.584 
L 414.72 307.584 
" style="fill:none;stroke:#000000;stroke-linecap:square;stroke-linejoin:miter;stroke-width:0.8;"/>
   </g>
   <g id="patch_6">
    <path d="M 57.6 41.472 
L 414.72 41.472 
" style="fill:none;stroke:#000000;stroke-linecap:square;stroke-linejoin:miter;stroke-width:0.8;"/>
   </g>
   <g id="text_18">
    <!-- &gt;tet(A)_4_AJ517790 Tetracycline resistance: -->
    <defs>
     <path d="M 10.59375 49.21875 
L 10.59375 58.109375 
L 73.1875 35.40625 
L 73.1875 27.296875 
L 10.59375 4.59375 
L 10.59375 13.484375 
L 60.890625 31.296875 
z
" id="DejaVuSans-62"/>
     <path d="M 31 75.875 
Q 24.46875 64.65625 21.28125 53.65625 
Q 18.109375 42.671875 18.109375 31.390625 
Q 18.109375 20.125 21.3125 9.0625 
Q 24.515625 -2 31 -13.1875 
L 23.1875 -13.1875 
Q 15.875 -1.703125 12.234375 9.375 
Q 8.59375 20.453125 8.59375 31.390625 
Q 8.59375 42.28125 12.203125 53.3125 
Q 15.828125 64.359375 23.1875 75.875 
z
" id="DejaVuSans-40"/>
     <path d="M 34.1875 63.1875 
L 20.796875 26.90625 
L 47.609375 26.90625 
z
M 28.609375 72.90625 
L 39.796875 72.90625 
L 67.578125 0 
L 57.328125 0 
L 50.6875 18.703125 
L 17.828125 18.703125 
L 11.1875 0 
L 0.78125 0 
z
" id="DejaVuSans-65"/>
     <path d="M 8.015625 75.875 
L 15.828125 75.875 
Q 23.140625 64.359375 26.78125 53.3125 
Q 30.421875 42.28125 30.421875 31.390625 
Q 30.421875 20.453125 26.78125 9.375 
Q 23.140625 -1.703125 15.828125 -13.1875 
L 8.015625 -13.1875 
Q 14.5 -2 17.703125 9.0625 
Q 20.90625 20.125 20.90625 31.390625 
Q 20.90625 42.671875 17.703125 53.65625 
Q 14.5 64.65625 8.015625 75.875 
z
" id="DejaVuSans-41"/>
     <path d="M 50.984375 -16.609375 
L 50.984375 -23.578125 
L -0.984375 -23.578125 
L -0.984375 -16.609375 
z
" id="DejaVuSans-95"/>
     <path d="M 9.8125 72.90625 
L 19.671875 72.90625 
L 19.671875 5.078125 
Q 19.671875 -8.109375 14.671875 -14.0625 
Q 9.671875 -20.015625 -1.421875 -20.015625 
L -5.171875 -20.015625 
L -5.171875 -11.71875 
L -2.09375 -11.71875 
Q 4.4375 -11.71875 7.125 -8.046875 
Q 9.8125 -4.390625 9.8125 5.078125 
z
" id="DejaVuSans-74"/>
     <path d="M 10.984375 1.515625 
L 10.984375 10.5 
Q 14.703125 8.734375 18.5 7.8125 
Q 22.3125 6.890625 25.984375 6.890625 
Q 35.75 6.890625 40.890625 13.453125 
Q 46.046875 20.015625 46.78125 33.40625 
Q 43.953125 29.203125 39.59375 26.953125 
Q 35.25 24.703125 29.984375 24.703125 
Q 19.046875 24.703125 12.671875 31.3125 
Q 6.296875 37.9375 6.296875 49.421875 
Q 6.296875 60.640625 12.9375 67.421875 
Q 19.578125 74.21875 30.609375 74.21875 
Q 43.265625 74.21875 49.921875 64.515625 
Q 56.59375 54.828125 56.59375 36.375 
Q 56.59375 19.140625 48.40625 8.859375 
Q 40.234375 -1.421875 26.421875 -1.421875 
Q 22.703125 -1.421875 18.890625 -0.6875 
Q 15.09375 0.046875 10.984375 1.515625 
z
M 30.609375 32.421875 
Q 37.25 32.421875 41.125 36.953125 
Q 45.015625 41.5 45.015625 49.421875 
Q 45.015625 57.28125 41.125 61.84375 
Q 37.25 66.40625 30.609375 66.40625 
Q 23.96875 66.40625 20.09375 61.84375 
Q 16.21875 57.28125 16.21875 49.421875 
Q 16.21875 41.5 20.09375 36.953125 
Q 23.96875 32.421875 30.609375 32.421875 
z
" id="DejaVuSans-57"/>
     <path d="M -0.296875 72.90625 
L 61.375 72.90625 
L 61.375 64.59375 
L 35.5 64.59375 
L 35.5 0 
L 25.59375 0 
L 25.59375 64.59375 
L -0.296875 64.59375 
z
" id="DejaVuSans-84"/>
     <path d="M 41.109375 46.296875 
Q 39.59375 47.171875 37.8125 47.578125 
Q 36.03125 48 33.890625 48 
Q 26.265625 48 22.1875 43.046875 
Q 18.109375 38.09375 18.109375 28.8125 
L 18.109375 0 
L 9.078125 0 
L 9.078125 54.6875 
L 18.109375 54.6875 
L 18.109375 46.1875 
Q 20.953125 51.171875 25.484375 53.578125 
Q 30.03125 56 36.53125 56 
Q 37.453125 56 38.578125 55.875 
Q 39.703125 55.765625 41.0625 55.515625 
z
" id="DejaVuSans-114"/>
     <path d="M 34.28125 27.484375 
Q 23.390625 27.484375 19.1875 25 
Q 14.984375 22.515625 14.984375 16.5 
Q 14.984375 11.71875 18.140625 8.90625 
Q 21.296875 6.109375 26.703125 6.109375 
Q 34.1875 6.109375 38.703125 11.40625 
Q 43.21875 16.703125 43.21875 25.484375 
L 43.21875 27.484375 
z
M 52.203125 31.203125 
L 52.203125 0 
L 43.21875 0 
L 43.21875 8.296875 
Q 40.140625 3.328125 35.546875 0.953125 
Q 30.953125 -1.421875 24.3125 -1.421875 
Q 15.921875 -1.421875 10.953125 3.296875 
Q 6 8.015625 6 15.921875 
Q 6 25.140625 12.171875 29.828125 
Q 18.359375 34.515625 30.609375 34.515625 
L 43.21875 34.515625 
L 43.21875 35.40625 
Q 43.21875 41.609375 39.140625 45 
Q 35.0625 48.390625 27.6875 48.390625 
Q 23 48.390625 18.546875 47.265625 
Q 14.109375 46.140625 10.015625 43.890625 
L 10.015625 52.203125 
Q 14.9375 54.109375 19.578125 55.046875 
Q 24.21875 56 28.609375 56 
Q 40.484375 56 46.34375 49.84375 
Q 52.203125 43.703125 52.203125 31.203125 
z
" id="DejaVuSans-97"/>
     <path d="M 48.78125 52.59375 
L 48.78125 44.1875 
Q 44.96875 46.296875 41.140625 47.34375 
Q 37.3125 48.390625 33.40625 48.390625 
Q 24.65625 48.390625 19.8125 42.84375 
Q 14.984375 37.3125 14.984375 27.296875 
Q 14.984375 17.28125 19.8125 11.734375 
Q 24.65625 6.203125 33.40625 6.203125 
Q 37.3125 6.203125 41.140625 7.25 
Q 44.96875 8.296875 48.78125 10.40625 
L 48.78125 2.09375 
Q 45.015625 0.34375 40.984375 -0.53125 
Q 36.96875 -1.421875 32.421875 -1.421875 
Q 20.0625 -1.421875 12.78125 6.34375 
Q 5.515625 14.109375 5.515625 27.296875 
Q 5.515625 40.671875 12.859375 48.328125 
Q 20.21875 56 33.015625 56 
Q 37.15625 56 41.109375 55.140625 
Q 45.0625 54.296875 48.78125 52.59375 
z
" id="DejaVuSans-99"/>
     <path d="M 32.171875 -5.078125 
Q 28.375 -14.84375 24.75 -17.8125 
Q 21.140625 -20.796875 15.09375 -20.796875 
L 7.90625 -20.796875 
L 7.90625 -13.28125 
L 13.1875 -13.28125 
Q 16.890625 -13.28125 18.9375 -11.515625 
Q 21 -9.765625 23.484375 -3.21875 
L 25.09375 0.875 
L 2.984375 54.6875 
L 12.5 54.6875 
L 29.59375 11.921875 
L 46.6875 54.6875 
L 56.203125 54.6875 
z
" id="DejaVuSans-121"/>
     <path d="M 9.421875 75.984375 
L 18.40625 75.984375 
L 18.40625 0 
L 9.421875 0 
z
" id="DejaVuSans-108"/>
     <path d="M 11.71875 12.40625 
L 22.015625 12.40625 
L 22.015625 0 
L 11.71875 0 
z
M 11.71875 51.703125 
L 22.015625 51.703125 
L 22.015625 39.3125 
L 11.71875 39.3125 
z
" id="DejaVuSans-58"/>
    </defs>
    <g transform="translate(101.806875 35.472)scale(0.12 -0.12)">
     <use xlink:href="#DejaVuSans-62"/>
     <use x="83.789062" xlink:href="#DejaVuSans-116"/>
     <use x="122.998047" xlink:href="#DejaVuSans-101"/>
     <use x="184.521484" xlink:href="#DejaVuSans-116"/>
     <use x="223.730469" xlink:href="#DejaVuSans-40"/>
     <use x="262.744141" xlink:href="#DejaVuSans-65"/>
     <use x="331.152344" xlink:href="#DejaVuSans-41"/>
     <use x="370.166016" xlink:href="#DejaVuSans-95"/>
     <use x="420.166016" xlink:href="#DejaVuSans-52"/>
     <use x="483.789062" xlink:href="#DejaVuSans-95"/>
     <use x="533.789062" xlink:href="#DejaVuSans-65"/>
     <use x="602.197266" xlink:href="#DejaVuSans-74"/>
     <use x="631.689453" xlink:href="#DejaVuSans-53"/>
     <use x="695.3125" xlink:href="#DejaVuSans-49"/>
     <use x="758.935547" xlink:href="#DejaVuSans-55"/>
     <use x="822.558594" xlink:href="#DejaVuSans-55"/>
     <use x="886.181641" xlink:href="#DejaVuSans-57"/>
     <use x="949.804688" xlink:href="#DejaVuSans-48"/>
     <use x="1013.427734" xlink:href="#DejaVuSans-32"/>
     <use x="1045.214844" xlink:href="#DejaVuSans-84"/>
     <use x="1106.033203" xlink:href="#DejaVuSans-101"/>
     <use x="1167.556641" xlink:href="#DejaVuSans-116"/>
     <use x="1206.765625" xlink:href="#DejaVuSans-114"/>
     <use x="1247.878906" xlink:href="#DejaVuSans-97"/>
     <use x="1309.158203" xlink:href="#DejaVuSans-99"/>
     <use x="1364.138672" xlink:href="#DejaVuSans-121"/>
     <use x="1423.318359" xlink:href="#DejaVuSans-99"/>
     <use x="1478.298828" xlink:href="#DejaVuSans-108"/>
     <use x="1506.082031" xlink:href="#DejaVuSans-105"/>
     <use x="1533.865234" xlink:href="#DejaVuSans-110"/>
     <use x="1597.244141" xlink:href="#DejaVuSans-101"/>
     <use x="1658.767578" xlink:href="#DejaVuSans-32"/>
     <use x="1690.554688" xlink:href="#DejaVuSans-114"/>
     <use x="1731.636719" xlink:href="#DejaVuSans-101"/>
     <use x="1793.160156" xlink:href="#DejaVuSans-115"/>
     <use x="1845.259766" xlink:href="#DejaVuSans-105"/>
     <use x="1873.042969" xlink:href="#DejaVuSans-115"/>
     <use x="1925.142578" xlink:href="#DejaVuSans-116"/>
     <use x="1964.351562" xlink:href="#DejaVuSans-97"/>
     <use x="2025.630859" xlink:href="#DejaVuSans-110"/>
     <use x="2089.009766" xlink:href="#DejaVuSans-99"/>
     <use x="2143.990234" xlink:href="#DejaVuSans-101"/>
     <use x="2205.513672" xlink:href="#DejaVuSans-58"/>
    </g>
   </g>
  </g>
 </g>
 <defs>
  <clipPath id="pabfe86b180">
   <rect height="266.112" width="357.12" x="57.6" y="41.472"/>
  </clipPath>
 </defs>
</svg>
