<?xml version="1.0" encoding="utf-8" standalone="no"?>
<!DOCTYPE svg PUBLIC "-//W3C//DTD SVG 1.1//EN"
  "http://www.w3.org/Graphics/SVG/1.1/DTD/svg11.dtd">
<!-- Created with matplotlib (https://matplotlib.org/) -->
<svg height="345.6pt" version="1.1" viewBox="0 0 460.8 345.6" width="460.8pt" xmlns="http://www.w3.org/2000/svg" xmlns:xlink="http://www.w3.org/1999/xlink">
 <defs>
  <style type="text/css">
*{stroke-linecap:butt;stroke-linejoin:round;}
  </style>
 </defs>
 <g id="figure_1">
  <g id="patch_1">
   <path d="M 0 345.6 
L 460.8 345.6 
L 460.8 0 
L 0 0 
z
" style="fill:#ffffff;"/>
  </g>
  <g id="axes_1">
   <g id="patch_2">
    <path d="M 57.6 307.584 
L 414.72 307.584 
L 414.72 41.472 
L 57.6 41.472 
z
" style="fill:#ffffff;"/>
   </g>
   <g id="matplotlib.axis_1">
    <g id="xtick_1">
     <g id="line2d_1">
      <defs>
       <path d="M 0 0 
L 0 3.5 
" id="m2d6d6863ca" style="stroke:#000000;stroke-width:0.8;"/>
      </defs>
      <g>
       <use style="stroke:#000000;stroke-width:0.8;" x="73.832727" xlink:href="#m2d6d6863ca" y="307.584"/>
      </g>
     </g>
     <g id="text_1">
      <!-- 0 -->
      <defs>
       <path d="M 31.78125 66.40625 
Q 24.171875 66.40625 20.328125 58.90625 
Q 16.5 51.421875 16.5 36.375 
Q 16.5 21.390625 20.328125 13.890625 
Q 24.171875 6.390625 31.78125 6.390625 
Q 39.453125 6.390625 43.28125 13.890625 
Q 47.125 21.390625 47.125 36.375 
Q 47.125 51.421875 43.28125 58.90625 
Q 39.453125 66.40625 31.78125 66.40625 
z
M 31.78125 74.21875 
Q 44.046875 74.21875 50.515625 64.515625 
Q 56.984375 54.828125 56.984375 36.375 
Q 56.984375 17.96875 50.515625 8.265625 
Q 44.046875 -1.421875 31.78125 -1.421875 
Q 19.53125 -1.421875 13.0625 8.265625 
Q 6.59375 17.96875 6.59375 36.375 
Q 6.59375 54.828125 13.0625 64.515625 
Q 19.53125 74.21875 31.78125 74.21875 
z
" id="DejaVuSans-48"/>
      </defs>
      <g transform="translate(70.651477 322.182437)scale(0.1 -0.1)">
       <use xlink:href="#DejaVuSans-48"/>
      </g>
     </g>
    </g>
    <g id="xtick_2">
     <g id="line2d_2">
      <g>
       <use style="stroke:#000000;stroke-width:0.8;" x="153.113447" xlink:href="#m2d6d6863ca" y="307.584"/>
      </g>
     </g>
     <g id="text_2">
      <!-- 200 -->
      <defs>
       <path d="M 19.1875 8.296875 
L 53.609375 8.296875 
L 53.609375 0 
L 7.328125 0 
L 7.328125 8.296875 
Q 12.9375 14.109375 22.625 23.890625 
Q 32.328125 33.6875 34.8125 36.53125 
Q 39.546875 41.84375 41.421875 45.53125 
Q 43.3125 49.21875 43.3125 52.78125 
Q 43.3125 58.59375 39.234375 62.25 
Q 35.15625 65.921875 28.609375 65.921875 
Q 23.96875 65.921875 18.8125 64.3125 
Q 13.671875 62.703125 7.8125 59.421875 
L 7.8125 69.390625 
Q 13.765625 71.78125 18.9375 73 
Q 24.125 74.21875 28.421875 74.21875 
Q 39.75 74.21875 46.484375 68.546875 
Q 53.21875 62.890625 53.21875 53.421875 
Q 53.21875 48.921875 51.53125 44.890625 
Q 49.859375 40.875 45.40625 35.40625 
Q 44.1875 33.984375 37.640625 27.21875 
Q 31.109375 20.453125 19.1875 8.296875 
z
" id="DejaVuSans-50"/>
      </defs>
      <g transform="translate(143.569697 322.182437)scale(0.1 -0.1)">
       <use xlink:href="#DejaVuSans-50"/>
       <use x="63.623047" xlink:href="#DejaVuSans-48"/>
       <use x="127.246094" xlink:href="#DejaVuSans-48"/>
      </g>
     </g>
    </g>
    <g id="xtick_3">
     <g id="line2d_3">
      <g>
       <use style="stroke:#000000;stroke-width:0.8;" x="232.394166" xlink:href="#m2d6d6863ca" y="307.584"/>
      </g>
     </g>
     <g id="text_3">
      <!-- 400 -->
      <defs>
       <path d="M 37.796875 64.3125 
L 12.890625 25.390625 
L 37.796875 25.390625 
z
M 35.203125 72.90625 
L 47.609375 72.90625 
L 47.609375 25.390625 
L 58.015625 25.390625 
L 58.015625 17.1875 
L 47.609375 17.1875 
L 47.609375 0 
L 37.796875 0 
L 37.796875 17.1875 
L 4.890625 17.1875 
L 4.890625 26.703125 
z
" id="DejaVuSans-52"/>
      </defs>
      <g transform="translate(222.850416 322.182437)scale(0.1 -0.1)">
       <use xlink:href="#DejaVuSans-52"/>
       <use x="63.623047" xlink:href="#DejaVuSans-48"/>
       <use x="127.246094" xlink:href="#DejaVuSans-48"/>
      </g>
     </g>
    </g>
    <g id="xtick_4">
     <g id="line2d_4">
      <g>
       <use style="stroke:#000000;stroke-width:0.8;" x="311.674885" xlink:href="#m2d6d6863ca" y="307.584"/>
      </g>
     </g>
     <g id="text_4">
      <!-- 600 -->
      <defs>
       <path d="M 33.015625 40.375 
Q 26.375 40.375 22.484375 35.828125 
Q 18.609375 31.296875 18.609375 23.390625 
Q 18.609375 15.53125 22.484375 10.953125 
Q 26.375 6.390625 33.015625 6.390625 
Q 39.65625 6.390625 43.53125 10.953125 
Q 47.40625 15.53125 47.40625 23.390625 
Q 47.40625 31.296875 43.53125 35.828125 
Q 39.65625 40.375 33.015625 40.375 
z
M 52.59375 71.296875 
L 52.59375 62.3125 
Q 48.875 64.0625 45.09375 64.984375 
Q 41.3125 65.921875 37.59375 65.921875 
Q 27.828125 65.921875 22.671875 59.328125 
Q 17.53125 52.734375 16.796875 39.40625 
Q 19.671875 43.65625 24.015625 45.921875 
Q 28.375 48.1875 33.59375 48.1875 
Q 44.578125 48.1875 50.953125 41.515625 
Q 57.328125 34.859375 57.328125 23.390625 
Q 57.328125 12.15625 50.6875 5.359375 
Q 44.046875 -1.421875 33.015625 -1.421875 
Q 20.359375 -1.421875 13.671875 8.265625 
Q 6.984375 17.96875 6.984375 36.375 
Q 6.984375 53.65625 15.1875 63.9375 
Q 23.390625 74.21875 37.203125 74.21875 
Q 40.921875 74.21875 44.703125 73.484375 
Q 48.484375 72.75 52.59375 71.296875 
z
" id="DejaVuSans-54"/>
      </defs>
      <g transform="translate(302.131135 322.182437)scale(0.1 -0.1)">
       <use xlink:href="#DejaVuSans-54"/>
       <use x="63.623047" xlink:href="#DejaVuSans-48"/>
       <use x="127.246094" xlink:href="#DejaVuSans-48"/>
      </g>
     </g>
    </g>
    <g id="xtick_5">
     <g id="line2d_5">
      <g>
       <use style="stroke:#000000;stroke-width:0.8;" x="390.955604" xlink:href="#m2d6d6863ca" y="307.584"/>
      </g>
     </g>
     <g id="text_5">
      <!-- 800 -->
      <defs>
       <path d="M 31.78125 34.625 
Q 24.75 34.625 20.71875 30.859375 
Q 16.703125 27.09375 16.703125 20.515625 
Q 16.703125 13.921875 20.71875 10.15625 
Q 24.75 6.390625 31.78125 6.390625 
Q 38.8125 6.390625 42.859375 10.171875 
Q 46.921875 13.96875 46.921875 20.515625 
Q 46.921875 27.09375 42.890625 30.859375 
Q 38.875 34.625 31.78125 34.625 
z
M 21.921875 38.8125 
Q 15.578125 40.375 12.03125 44.71875 
Q 8.5 49.078125 8.5 55.328125 
Q 8.5 64.0625 14.71875 69.140625 
Q 20.953125 74.21875 31.78125 74.21875 
Q 42.671875 74.21875 48.875 69.140625 
Q 55.078125 64.0625 55.078125 55.328125 
Q 55.078125 49.078125 51.53125 44.71875 
Q 48 40.375 41.703125 38.8125 
Q 48.828125 37.15625 52.796875 32.3125 
Q 56.78125 27.484375 56.78125 20.515625 
Q 56.78125 9.90625 50.3125 4.234375 
Q 43.84375 -1.421875 31.78125 -1.421875 
Q 19.734375 -1.421875 13.25 4.234375 
Q 6.78125 9.90625 6.78125 20.515625 
Q 6.78125 27.484375 10.78125 32.3125 
Q 14.796875 37.15625 21.921875 38.8125 
z
M 18.3125 54.390625 
Q 18.3125 48.734375 21.84375 45.5625 
Q 25.390625 42.390625 31.78125 42.390625 
Q 38.140625 42.390625 41.71875 45.5625 
Q 45.3125 48.734375 45.3125 54.390625 
Q 45.3125 60.0625 41.71875 63.234375 
Q 38.140625 66.40625 31.78125 66.40625 
Q 25.390625 66.40625 21.84375 63.234375 
Q 18.3125 60.0625 18.3125 54.390625 
z
" id="DejaVuSans-56"/>
      </defs>
      <g transform="translate(381.411854 322.182437)scale(0.1 -0.1)">
       <use xlink:href="#DejaVuSans-56"/>
       <use x="63.623047" xlink:href="#DejaVuSans-48"/>
       <use x="127.246094" xlink:href="#DejaVuSans-48"/>
      </g>
     </g>
    </g>
    <g id="text_6">
     <!-- gene position -->
     <defs>
      <path d="M 45.40625 27.984375 
Q 45.40625 37.75 41.375 43.109375 
Q 37.359375 48.484375 30.078125 48.484375 
Q 22.859375 48.484375 18.828125 43.109375 
Q 14.796875 37.75 14.796875 27.984375 
Q 14.796875 18.265625 18.828125 12.890625 
Q 22.859375 7.515625 30.078125 7.515625 
Q 37.359375 7.515625 41.375 12.890625 
Q 45.40625 18.265625 45.40625 27.984375 
z
M 54.390625 6.78125 
Q 54.390625 -7.171875 48.1875 -13.984375 
Q 42 -20.796875 29.203125 -20.796875 
Q 24.46875 -20.796875 20.265625 -20.09375 
Q 16.0625 -19.390625 12.109375 -17.921875 
L 12.109375 -9.1875 
Q 16.0625 -11.328125 19.921875 -12.34375 
Q 23.78125 -13.375 27.78125 -13.375 
Q 36.625 -13.375 41.015625 -8.765625 
Q 45.40625 -4.15625 45.40625 5.171875 
L 45.40625 9.625 
Q 42.625 4.78125 38.28125 2.390625 
Q 33.9375 0 27.875 0 
Q 17.828125 0 11.671875 7.65625 
Q 5.515625 15.328125 5.515625 27.984375 
Q 5.515625 40.671875 11.671875 48.328125 
Q 17.828125 56 27.875 56 
Q 33.9375 56 38.28125 53.609375 
Q 42.625 51.21875 45.40625 46.390625 
L 45.40625 54.6875 
L 54.390625 54.6875 
z
" id="DejaVuSans-103"/>
      <path d="M 56.203125 29.59375 
L 56.203125 25.203125 
L 14.890625 25.203125 
Q 15.484375 15.921875 20.484375 11.0625 
Q 25.484375 6.203125 34.421875 6.203125 
Q 39.59375 6.203125 44.453125 7.46875 
Q 49.3125 8.734375 54.109375 11.28125 
L 54.109375 2.78125 
Q 49.265625 0.734375 44.1875 -0.34375 
Q 39.109375 -1.421875 33.890625 -1.421875 
Q 20.796875 -1.421875 13.15625 6.1875 
Q 5.515625 13.8125 5.515625 26.8125 
Q 5.515625 40.234375 12.765625 48.109375 
Q 20.015625 56 32.328125 56 
Q 43.359375 56 49.78125 48.890625 
Q 56.203125 41.796875 56.203125 29.59375 
z
M 47.21875 32.234375 
Q 47.125 39.59375 43.09375 43.984375 
Q 39.0625 48.390625 32.421875 48.390625 
Q 24.90625 48.390625 20.390625 44.140625 
Q 15.875 39.890625 15.1875 32.171875 
z
" id="DejaVuSans-101"/>
      <path d="M 54.890625 33.015625 
L 54.890625 0 
L 45.90625 0 
L 45.90625 32.71875 
Q 45.90625 40.484375 42.875 44.328125 
Q 39.84375 48.1875 33.796875 48.1875 
Q 26.515625 48.1875 22.3125 43.546875 
Q 18.109375 38.921875 18.109375 30.90625 
L 18.109375 0 
L 9.078125 0 
L 9.078125 54.6875 
L 18.109375 54.6875 
L 18.109375 46.1875 
Q 21.34375 51.125 25.703125 53.5625 
Q 30.078125 56 35.796875 56 
Q 45.21875 56 50.046875 50.171875 
Q 54.890625 44.34375 54.890625 33.015625 
z
" id="DejaVuSans-110"/>
      <path id="DejaVuSans-32"/>
      <path d="M 18.109375 8.203125 
L 18.109375 -20.796875 
L 9.078125 -20.796875 
L 9.078125 54.6875 
L 18.109375 54.6875 
L 18.109375 46.390625 
Q 20.953125 51.265625 25.265625 53.625 
Q 29.59375 56 35.59375 56 
Q 45.5625 56 51.78125 48.09375 
Q 58.015625 40.1875 58.015625 27.296875 
Q 58.015625 14.40625 51.78125 6.484375 
Q 45.5625 -1.421875 35.59375 -1.421875 
Q 29.59375 -1.421875 25.265625 0.953125 
Q 20.953125 3.328125 18.109375 8.203125 
z
M 48.6875 27.296875 
Q 48.6875 37.203125 44.609375 42.84375 
Q 40.53125 48.484375 33.40625 48.484375 
Q 26.265625 48.484375 22.1875 42.84375 
Q 18.109375 37.203125 18.109375 27.296875 
Q 18.109375 17.390625 22.1875 11.75 
Q 26.265625 6.109375 33.40625 6.109375 
Q 40.53125 6.109375 44.609375 11.75 
Q 48.6875 17.390625 48.6875 27.296875 
z
" id="DejaVuSans-112"/>
      <path d="M 30.609375 48.390625 
Q 23.390625 48.390625 19.1875 42.75 
Q 14.984375 37.109375 14.984375 27.296875 
Q 14.984375 17.484375 19.15625 11.84375 
Q 23.34375 6.203125 30.609375 6.203125 
Q 37.796875 6.203125 41.984375 11.859375 
Q 46.1875 17.53125 46.1875 27.296875 
Q 46.1875 37.015625 41.984375 42.703125 
Q 37.796875 48.390625 30.609375 48.390625 
z
M 30.609375 56 
Q 42.328125 56 49.015625 48.375 
Q 55.71875 40.765625 55.71875 27.296875 
Q 55.71875 13.875 49.015625 6.21875 
Q 42.328125 -1.421875 30.609375 -1.421875 
Q 18.84375 -1.421875 12.171875 6.21875 
Q 5.515625 13.875 5.515625 27.296875 
Q 5.515625 40.765625 12.171875 48.375 
Q 18.84375 56 30.609375 56 
z
" id="DejaVuSans-111"/>
      <path d="M 44.28125 53.078125 
L 44.28125 44.578125 
Q 40.484375 46.53125 36.375 47.5 
Q 32.28125 48.484375 27.875 48.484375 
Q 21.1875 48.484375 17.84375 46.4375 
Q 14.5 44.390625 14.5 40.28125 
Q 14.5 37.15625 16.890625 35.375 
Q 19.28125 33.59375 26.515625 31.984375 
L 29.59375 31.296875 
Q 39.15625 29.25 43.1875 25.515625 
Q 47.21875 21.78125 47.21875 15.09375 
Q 47.21875 7.46875 41.1875 3.015625 
Q 35.15625 -1.421875 24.609375 -1.421875 
Q 20.21875 -1.421875 15.453125 -0.5625 
Q 10.6875 0.296875 5.421875 2 
L 5.421875 11.28125 
Q 10.40625 8.6875 15.234375 7.390625 
Q 20.0625 6.109375 24.8125 6.109375 
Q 31.15625 6.109375 34.5625 8.28125 
Q 37.984375 10.453125 37.984375 14.40625 
Q 37.984375 18.0625 35.515625 20.015625 
Q 33.0625 21.96875 24.703125 23.78125 
L 21.578125 24.515625 
Q 13.234375 26.265625 9.515625 29.90625 
Q 5.8125 33.546875 5.8125 39.890625 
Q 5.8125 47.609375 11.28125 51.796875 
Q 16.75 56 26.8125 56 
Q 31.78125 56 36.171875 55.265625 
Q 40.578125 54.546875 44.28125 53.078125 
z
" id="DejaVuSans-115"/>
      <path d="M 9.421875 54.6875 
L 18.40625 54.6875 
L 18.40625 0 
L 9.421875 0 
z
M 9.421875 75.984375 
L 18.40625 75.984375 
L 18.40625 64.59375 
L 9.421875 64.59375 
z
" id="DejaVuSans-105"/>
      <path d="M 18.3125 70.21875 
L 18.3125 54.6875 
L 36.8125 54.6875 
L 36.8125 47.703125 
L 18.3125 47.703125 
L 18.3125 18.015625 
Q 18.3125 11.328125 20.140625 9.421875 
Q 21.96875 7.515625 27.59375 7.515625 
L 36.8125 7.515625 
L 36.8125 0 
L 27.59375 0 
Q 17.1875 0 13.234375 3.875 
Q 9.28125 7.765625 9.28125 18.015625 
L 9.28125 47.703125 
L 2.6875 47.703125 
L 2.6875 54.6875 
L 9.28125 54.6875 
L 9.28125 70.21875 
z
" id="DejaVuSans-116"/>
     </defs>
     <g transform="translate(202.270156 335.860562)scale(0.1 -0.1)">
      <use xlink:href="#DejaVuSans-103"/>
      <use x="63.476562" xlink:href="#DejaVuSans-101"/>
      <use x="125" xlink:href="#DejaVuSans-110"/>
      <use x="188.378906" xlink:href="#DejaVuSans-101"/>
      <use x="249.902344" xlink:href="#DejaVuSans-32"/>
      <use x="281.689453" xlink:href="#DejaVuSans-112"/>
      <use x="345.166016" xlink:href="#DejaVuSans-111"/>
      <use x="406.347656" xlink:href="#DejaVuSans-115"/>
      <use x="458.447266" xlink:href="#DejaVuSans-105"/>
      <use x="486.230469" xlink:href="#DejaVuSans-116"/>
      <use x="525.439453" xlink:href="#DejaVuSans-105"/>
      <use x="553.222656" xlink:href="#DejaVuSans-111"/>
      <use x="614.404297" xlink:href="#DejaVuSans-110"/>
     </g>
    </g>
   </g>
   <g id="matplotlib.axis_2">
    <g id="ytick_1">
     <g id="line2d_6">
      <defs>
       <path d="M 0 0 
L -3.5 0 
" id="mddb3f5dfd0" style="stroke:#000000;stroke-width:0.8;"/>
      </defs>
      <g>
       <use style="stroke:#000000;stroke-width:0.8;" x="57.6" xlink:href="#mddb3f5dfd0" y="307.584"/>
      </g>
     </g>
     <g id="text_7">
      <!-- 0 -->
      <g transform="translate(44.2375 311.383219)scale(0.1 -0.1)">
       <use xlink:href="#DejaVuSans-48"/>
      </g>
     </g>
    </g>
    <g id="ytick_2">
     <g id="line2d_7">
      <g>
       <use style="stroke:#000000;stroke-width:0.8;" x="57.6" xlink:href="#mddb3f5dfd0" y="257.374189"/>
      </g>
     </g>
     <g id="text_8">
      <!-- 10 -->
      <defs>
       <path d="M 12.40625 8.296875 
L 28.515625 8.296875 
L 28.515625 63.921875 
L 10.984375 60.40625 
L 10.984375 69.390625 
L 28.421875 72.90625 
L 38.28125 72.90625 
L 38.28125 8.296875 
L 54.390625 8.296875 
L 54.390625 0 
L 12.40625 0 
z
" id="DejaVuSans-49"/>
      </defs>
      <g transform="translate(37.875 261.173407)scale(0.1 -0.1)">
       <use xlink:href="#DejaVuSans-49"/>
       <use x="63.623047" xlink:href="#DejaVuSans-48"/>
      </g>
     </g>
    </g>
    <g id="ytick_3">
     <g id="line2d_8">
      <g>
       <use style="stroke:#000000;stroke-width:0.8;" x="57.6" xlink:href="#mddb3f5dfd0" y="207.164377"/>
      </g>
     </g>
     <g id="text_9">
      <!-- 20 -->
      <g transform="translate(37.875 210.963596)scale(0.1 -0.1)">
       <use xlink:href="#DejaVuSans-50"/>
       <use x="63.623047" xlink:href="#DejaVuSans-48"/>
      </g>
     </g>
    </g>
    <g id="ytick_4">
     <g id="line2d_9">
      <g>
       <use style="stroke:#000000;stroke-width:0.8;" x="57.6" xlink:href="#mddb3f5dfd0" y="156.954566"/>
      </g>
     </g>
     <g id="text_10">
      <!-- 30 -->
      <defs>
       <path d="M 40.578125 39.3125 
Q 47.65625 37.796875 51.625 33 
Q 55.609375 28.21875 55.609375 21.1875 
Q 55.609375 10.40625 48.1875 4.484375 
Q 40.765625 -1.421875 27.09375 -1.421875 
Q 22.515625 -1.421875 17.65625 -0.515625 
Q 12.796875 0.390625 7.625 2.203125 
L 7.625 11.71875 
Q 11.71875 9.328125 16.59375 8.109375 
Q 21.484375 6.890625 26.8125 6.890625 
Q 36.078125 6.890625 40.9375 10.546875 
Q 45.796875 14.203125 45.796875 21.1875 
Q 45.796875 27.640625 41.28125 31.265625 
Q 36.765625 34.90625 28.71875 34.90625 
L 20.21875 34.90625 
L 20.21875 43.015625 
L 29.109375 43.015625 
Q 36.375 43.015625 40.234375 45.921875 
Q 44.09375 48.828125 44.09375 54.296875 
Q 44.09375 59.90625 40.109375 62.90625 
Q 36.140625 65.921875 28.71875 65.921875 
Q 24.65625 65.921875 20.015625 65.03125 
Q 15.375 64.15625 9.8125 62.3125 
L 9.8125 71.09375 
Q 15.4375 72.65625 20.34375 73.4375 
Q 25.25 74.21875 29.59375 74.21875 
Q 40.828125 74.21875 47.359375 69.109375 
Q 53.90625 64.015625 53.90625 55.328125 
Q 53.90625 49.265625 50.4375 45.09375 
Q 46.96875 40.921875 40.578125 39.3125 
z
" id="DejaVuSans-51"/>
      </defs>
      <g transform="translate(37.875 160.753785)scale(0.1 -0.1)">
       <use xlink:href="#DejaVuSans-51"/>
       <use x="63.623047" xlink:href="#DejaVuSans-48"/>
      </g>
     </g>
    </g>
    <g id="ytick_5">
     <g id="line2d_10">
      <g>
       <use style="stroke:#000000;stroke-width:0.8;" x="57.6" xlink:href="#mddb3f5dfd0" y="106.744755"/>
      </g>
     </g>
     <g id="text_11">
      <!-- 40 -->
      <g transform="translate(37.875 110.543973)scale(0.1 -0.1)">
       <use xlink:href="#DejaVuSans-52"/>
       <use x="63.623047" xlink:href="#DejaVuSans-48"/>
      </g>
     </g>
    </g>
    <g id="ytick_6">
     <g id="line2d_11">
      <g>
       <use style="stroke:#000000;stroke-width:0.8;" x="57.6" xlink:href="#mddb3f5dfd0" y="56.534943"/>
      </g>
     </g>
     <g id="text_12">
      <!-- 50 -->
      <defs>
       <path d="M 10.796875 72.90625 
L 49.515625 72.90625 
L 49.515625 64.59375 
L 19.828125 64.59375 
L 19.828125 46.734375 
Q 21.96875 47.46875 24.109375 47.828125 
Q 26.265625 48.1875 28.421875 48.1875 
Q 40.625 48.1875 47.75 41.5 
Q 54.890625 34.8125 54.890625 23.390625 
Q 54.890625 11.625 47.5625 5.09375 
Q 40.234375 -1.421875 26.90625 -1.421875 
Q 22.3125 -1.421875 17.546875 -0.640625 
Q 12.796875 0.140625 7.71875 1.703125 
L 7.71875 11.625 
Q 12.109375 9.234375 16.796875 8.0625 
Q 21.484375 6.890625 26.703125 6.890625 
Q 35.15625 6.890625 40.078125 11.328125 
Q 45.015625 15.765625 45.015625 23.390625 
Q 45.015625 31 40.078125 35.4375 
Q 35.15625 39.890625 26.703125 39.890625 
Q 22.75 39.890625 18.8125 39.015625 
Q 14.890625 38.140625 10.796875 36.28125 
z
" id="DejaVuSans-53"/>
      </defs>
      <g transform="translate(37.875 60.334162)scale(0.1 -0.1)">
       <use xlink:href="#DejaVuSans-53"/>
       <use x="63.623047" xlink:href="#DejaVuSans-48"/>
      </g>
     </g>
    </g>
    <g id="text_13">
     <!-- depth -->
     <defs>
      <path d="M 45.40625 46.390625 
L 45.40625 75.984375 
L 54.390625 75.984375 
L 54.390625 0 
L 45.40625 0 
L 45.40625 8.203125 
Q 42.578125 3.328125 38.25 0.953125 
Q 33.9375 -1.421875 27.875 -1.421875 
Q 17.96875 -1.421875 11.734375 6.484375 
Q 5.515625 14.40625 5.515625 27.296875 
Q 5.515625 40.1875 11.734375 48.09375 
Q 17.96875 56 27.875 56 
Q 33.9375 56 38.25 53.625 
Q 42.578125 51.265625 45.40625 46.390625 
z
M 14.796875 27.296875 
Q 14.796875 17.390625 18.875 11.75 
Q 22.953125 6.109375 30.078125 6.109375 
Q 37.203125 6.109375 41.296875 11.75 
Q 45.40625 17.390625 45.40625 27.296875 
Q 45.40625 37.203125 41.296875 42.84375 
Q 37.203125 48.484375 30.078125 48.484375 
Q 22.953125 48.484375 18.875 42.84375 
Q 14.796875 37.203125 14.796875 27.296875 
z
" id="DejaVuSans-100"/>
      <path d="M 54.890625 33.015625 
L 54.890625 0 
L 45.90625 0 
L 45.90625 32.71875 
Q 45.90625 40.484375 42.875 44.328125 
Q 39.84375 48.1875 33.796875 48.1875 
Q 26.515625 48.1875 22.3125 43.546875 
Q 18.109375 38.921875 18.109375 30.90625 
L 18.109375 0 
L 9.078125 0 
L 9.078125 75.984375 
L 18.109375 75.984375 
L 18.109375 46.1875 
Q 21.34375 51.125 25.703125 53.5625 
Q 30.078125 56 35.796875 56 
Q 45.21875 56 50.046875 50.171875 
Q 54.890625 44.34375 54.890625 33.015625 
z
" id="DejaVuSans-104"/>
     </defs>
     <g transform="translate(31.795312 189.081906)rotate(-90)scale(0.1 -0.1)">
      <use xlink:href="#DejaVuSans-100"/>
      <use x="63.476562" xlink:href="#DejaVuSans-101"/>
      <use x="125" xlink:href="#DejaVuSans-112"/>
      <use x="188.476562" xlink:href="#DejaVuSans-116"/>
      <use x="227.685547" xlink:href="#DejaVuSans-104"/>
     </g>
    </g>
   </g>
   <g id="line2d_12">
    <path clip-path="url(#p1ddab088ff)" d="M 73.832727 202.143396 
L 74.626899 202.143396 
L 75.023985 197.122415 
L 75.421071 182.059472 
L 76.612328 182.059472 
L 77.4065 172.017509 
L 79.789015 172.017509 
L 80.186101 166.996528 
L 80.583187 166.996528 
L 80.980273 156.954566 
L 81.774445 156.954566 
L 82.568617 146.912604 
L 83.362788 146.912604 
L 83.759874 141.891623 
L 84.15696 141.891623 
L 84.554046 136.870642 
L 84.951132 141.891623 
L 85.348218 136.870642 
L 86.142389 136.870642 
L 86.539475 121.807698 
L 86.936561 116.786717 
L 87.333647 116.786717 
L 87.730733 111.765736 
L 88.127819 96.702792 
L 89.716162 96.702792 
L 90.113248 91.681811 
L 90.510334 91.681811 
L 90.90742 101.723774 
L 91.304506 101.723774 
L 91.701592 111.765736 
L 92.098678 111.765736 
L 92.495763 106.744755 
L 92.892849 111.765736 
L 93.289935 106.744755 
L 93.687021 111.765736 
L 94.084107 111.765736 
L 94.481193 116.786717 
L 95.275364 116.786717 
L 95.67245 106.744755 
L 96.069536 106.744755 
L 96.466622 101.723774 
L 96.863708 106.744755 
L 98.452051 106.744755 
L 98.849137 111.765736 
L 99.246223 106.744755 
L 99.643309 106.744755 
L 100.040395 116.786717 
L 100.437481 121.807698 
L 100.834567 111.765736 
L 101.231653 111.765736 
L 101.628738 106.744755 
L 102.025824 96.702792 
L 102.42291 96.702792 
L 102.819996 101.723774 
L 103.217082 96.702792 
L 103.614168 106.744755 
L 104.011254 111.765736 
L 105.202511 96.702792 
L 106.790855 96.702792 
L 107.187941 101.723774 
L 107.585027 96.702792 
L 107.982112 96.702792 
L 108.379198 106.744755 
L 108.776284 101.723774 
L 109.17337 101.723774 
L 109.570456 96.702792 
L 109.967542 101.723774 
L 110.364628 101.723774 
L 110.761714 106.744755 
L 111.555885 106.744755 
L 112.747143 91.681811 
L 113.144229 96.702792 
L 113.541315 96.702792 
L 113.938401 106.744755 
L 114.335486 106.744755 
L 114.732572 96.702792 
L 115.526744 106.744755 
L 115.92383 106.744755 
L 116.320916 101.723774 
L 116.718002 111.765736 
L 117.115088 111.765736 
L 117.512173 96.702792 
L 117.909259 101.723774 
L 118.306345 101.723774 
L 118.703431 91.681811 
L 119.100517 91.681811 
L 119.497603 106.744755 
L 119.894689 111.765736 
L 120.291775 111.765736 
L 120.68886 106.744755 
L 121.085946 121.807698 
L 122.277204 106.744755 
L 122.67429 111.765736 
L 123.071376 111.765736 
L 123.468462 96.702792 
L 124.262633 86.66083 
L 124.659719 86.66083 
L 125.453891 96.702792 
L 125.850977 91.681811 
L 126.248063 96.702792 
L 127.43932 81.639849 
L 127.836406 81.639849 
L 128.630578 71.597887 
L 129.027664 71.597887 
L 129.42475 76.618868 
L 130.218921 76.618868 
L 130.616007 86.66083 
L 131.013093 81.639849 
L 132.601437 81.639849 
L 132.998523 76.618868 
L 133.395608 76.618868 
L 133.792694 81.639849 
L 134.18978 71.597887 
L 134.983952 81.639849 
L 136.17521 81.639849 
L 136.572295 66.576906 
L 136.969381 66.576906 
L 137.366467 61.555925 
L 137.763553 66.576906 
L 138.160639 56.534943 
L 139.351897 56.534943 
L 139.748982 46.492981 
L 140.146068 41.472 
L 140.94024 51.513962 
L 141.337326 36.451019 
L 141.734412 31.430038 
L 142.131498 31.430038 
L 142.528584 36.451019 
L 142.925669 36.451019 
L 143.322755 41.472 
L 143.719841 41.472 
L 144.116927 46.492981 
L 144.514013 41.472 
L 144.911099 41.472 
L 145.308185 36.451019 
L 145.705271 26.409057 
L 146.102356 26.409057 
L 146.499442 31.430038 
L 146.896528 31.430038 
L 147.293614 26.409057 
L 147.6907 36.451019 
L 148.087786 36.451019 
L 148.484872 41.472 
L 148.881958 41.472 
L 149.279043 46.492981 
L 149.676129 36.451019 
L 150.073215 36.451019 
L 150.470301 46.492981 
L 150.867387 36.451019 
L 151.264473 31.430038 
L 151.661559 36.451019 
L 154.44116 36.451019 
L 155.235332 46.492981 
L 156.029503 46.492981 
L 156.426589 56.534943 
L 156.823675 61.555925 
L 157.617847 61.555925 
L 158.014933 51.513962 
L 158.412019 51.513962 
L 158.809104 56.534943 
L 159.603276 56.534943 
L 160.000362 71.597887 
L 160.397448 76.618868 
L 160.794534 76.618868 
L 161.588706 96.702792 
L 161.985791 96.702792 
L 163.177049 81.639849 
L 163.574135 71.597887 
L 163.971221 66.576906 
L 164.368307 66.576906 
L 164.765393 71.597887 
L 165.162478 71.597887 
L 165.95665 51.513962 
L 167.147908 66.576906 
L 167.544994 66.576906 
L 167.94208 61.555925 
L 168.339165 66.576906 
L 169.133337 66.576906 
L 169.530423 81.639849 
L 169.927509 81.639849 
L 170.324595 86.66083 
L 170.721681 76.618868 
L 171.912938 76.618868 
L 172.310024 81.639849 
L 172.70711 91.681811 
L 173.104196 81.639849 
L 173.501282 81.639849 
L 173.898368 76.618868 
L 174.692539 96.702792 
L 175.486711 96.702792 
L 175.883797 91.681811 
L 177.075055 91.681811 
L 177.869226 101.723774 
L 178.266312 96.702792 
L 178.663398 106.744755 
L 180.251742 106.744755 
L 180.648828 96.702792 
L 181.045913 96.702792 
L 181.442999 91.681811 
L 181.840085 81.639849 
L 182.237171 76.618868 
L 182.634257 81.639849 
L 183.031343 76.618868 
L 183.428429 76.618868 
L 184.2226 86.66083 
L 184.619686 81.639849 
L 185.016772 86.66083 
L 185.413858 86.66083 
L 185.810944 76.618868 
L 186.20803 76.618868 
L 186.605116 71.597887 
L 187.002202 71.597887 
L 187.399287 76.618868 
L 188.193459 76.618868 
L 188.590545 66.576906 
L 188.987631 66.576906 
L 189.384717 71.597887 
L 189.781803 81.639849 
L 190.97306 81.639849 
L 191.370146 86.66083 
L 192.164318 86.66083 
L 192.561404 61.555925 
L 192.95849 46.492981 
L 193.355576 51.513962 
L 193.752661 51.513962 
L 194.546833 31.430038 
L 195.738091 31.430038 
L 196.135177 36.451019 
L 196.532263 46.492981 
L 196.929348 51.513962 
L 198.120606 36.451019 
L 198.517692 41.472 
L 198.914778 51.513962 
L 199.311864 41.472 
L 199.70895 36.451019 
L 200.503121 36.451019 
L 200.900207 31.430038 
L 201.297293 36.451019 
L 201.694379 36.451019 
L 202.091465 31.430038 
L 202.488551 31.430038 
L 202.885636 21.388075 
L 204.076894 21.388075 
L 204.47398 16.367094 
L 204.871066 16.367094 
L 205.268152 6.325132 
L 205.665238 6.325132 
L 206.062323 26.409057 
L 206.856495 36.451019 
L 208.444839 36.451019 
L 209.23901 26.409057 
L 210.430268 26.409057 
L 210.827354 36.451019 
L 211.22444 41.472 
L 211.621526 41.472 
L 212.018612 46.492981 
L 212.812783 46.492981 
L 213.209869 41.472 
L 213.606955 46.492981 
L 214.004041 41.472 
L 214.798213 61.555925 
L 215.195299 61.555925 
L 215.592384 51.513962 
L 215.98947 56.534943 
L 217.9749 56.534943 
L 218.371986 41.472 
L 218.769071 46.492981 
L 219.166157 46.492981 
L 219.563243 56.534943 
L 220.754501 56.534943 
L 221.548673 66.576906 
L 223.137016 66.576906 
L 223.534102 76.618868 
L 223.931188 81.639849 
L 224.328274 81.639849 
L 224.72536 71.597887 
L 225.122445 71.597887 
L 225.519531 101.723774 
L 225.916617 121.807698 
L 227.107875 121.807698 
L 228.299132 136.870642 
L 228.696218 131.84966 
L 229.49039 141.891623 
L 230.284562 131.84966 
L 230.681648 141.891623 
L 231.078734 146.912604 
L 231.475819 141.891623 
L 231.872905 141.891623 
L 232.667077 161.975547 
L 233.064163 156.954566 
L 233.461249 146.912604 
L 233.858335 151.933585 
L 234.255421 151.933585 
L 234.652506 146.912604 
L 235.446678 146.912604 
L 235.843764 151.933585 
L 236.24085 151.933585 
L 236.637936 146.912604 
L 237.035022 136.870642 
L 237.432108 131.84966 
L 237.829193 131.84966 
L 238.226279 136.870642 
L 240.211709 136.870642 
L 240.608795 141.891623 
L 241.00588 136.870642 
L 241.402966 136.870642 
L 242.197138 146.912604 
L 243.388396 146.912604 
L 244.182567 126.828679 
L 245.770911 126.828679 
L 246.167997 136.870642 
L 246.565083 136.870642 
L 246.962169 131.84966 
L 248.153426 131.84966 
L 248.550512 141.891623 
L 248.947598 136.870642 
L 250.138856 136.870642 
L 250.535941 141.891623 
L 250.933027 141.891623 
L 251.330113 151.933585 
L 251.727199 141.891623 
L 252.124285 141.891623 
L 252.521371 131.84966 
L 252.918457 136.870642 
L 254.109714 136.870642 
L 254.903886 126.828679 
L 255.300972 126.828679 
L 255.698058 131.84966 
L 256.095144 131.84966 
L 256.49223 126.828679 
L 256.889315 131.84966 
L 257.286401 131.84966 
L 257.683487 141.891623 
L 258.080573 141.891623 
L 258.477659 131.84966 
L 258.874745 126.828679 
L 259.271831 126.828679 
L 259.668917 106.744755 
L 261.25726 106.744755 
L 261.654346 111.765736 
L 262.051432 106.744755 
L 262.448518 106.744755 
L 263.242689 116.786717 
L 264.036861 116.786717 
L 264.831033 106.744755 
L 265.228119 96.702792 
L 265.625205 101.723774 
L 266.419376 101.723774 
L 266.816462 96.702792 
L 267.213548 96.702792 
L 267.610634 101.723774 
L 269.596063 101.723774 
L 269.993149 121.807698 
L 270.390235 126.828679 
L 271.978579 126.828679 
L 272.375665 116.786717 
L 272.77275 116.786717 
L 273.169836 111.765736 
L 273.964008 111.765736 
L 274.361094 96.702792 
L 274.75818 101.723774 
L 276.346523 101.723774 
L 276.743609 111.765736 
L 279.52321 111.765736 
L 279.920296 106.744755 
L 280.317382 111.765736 
L 281.50864 111.765736 
L 281.905726 106.744755 
L 282.302811 106.744755 
L 282.699897 111.765736 
L 283.494069 111.765736 
L 283.891155 116.786717 
L 284.288241 111.765736 
L 284.685327 121.807698 
L 285.082413 121.807698 
L 285.876584 131.84966 
L 286.670756 131.84966 
L 287.464928 121.807698 
L 287.862014 121.807698 
L 288.2591 116.786717 
L 289.053271 116.786717 
L 289.450357 121.807698 
L 291.038701 121.807698 
L 291.435787 131.84966 
L 291.832872 136.870642 
L 292.229958 136.870642 
L 292.627044 161.975547 
L 293.02413 166.996528 
L 294.612474 166.996528 
L 295.009559 172.017509 
L 295.803731 172.017509 
L 296.994989 187.080453 
L 297.392075 197.122415 
L 298.186246 207.164377 
L 298.583332 207.164377 
L 298.980418 212.185358 
L 299.77459 232.269283 
L 303.348363 232.269283 
L 303.745449 237.290264 
L 304.53962 237.290264 
L 304.53962 237.290264 
" style="fill:none;stroke:#0000ff;stroke-linecap:square;stroke-width:1.5;"/>
   </g>
   <g id="line2d_13">
    <path clip-path="url(#p1ddab088ff)" d="M 73.832727 182.059472 
L 74.626544 182.059472 
L 75.023453 187.080453 
L 75.420362 177.038491 
L 76.214179 166.996528 
L 77.801813 166.996528 
L 78.198722 156.954566 
L 78.59563 161.975547 
L 78.992539 161.975547 
L 79.389447 156.954566 
L 80.977082 156.954566 
L 81.37399 146.912604 
L 83.755442 146.912604 
L 84.15235 136.870642 
L 84.549259 141.891623 
L 85.739984 141.891623 
L 86.136893 136.870642 
L 86.533801 141.891623 
L 86.93071 136.870642 
L 87.327619 141.891623 
L 88.915253 141.891623 
L 89.312161 136.870642 
L 90.105979 136.870642 
L 90.502887 131.84966 
L 90.899796 141.891623 
L 91.296704 146.912604 
L 91.693613 146.912604 
L 92.090521 136.870642 
L 92.48743 136.870642 
L 92.884339 141.891623 
L 93.281247 131.84966 
L 93.678156 131.84966 
L 94.075064 126.828679 
L 94.868881 136.870642 
L 96.059607 136.870642 
L 96.456516 146.912604 
L 96.853424 146.912604 
L 97.250333 151.933585 
L 98.04415 151.933585 
L 98.441059 146.912604 
L 98.837967 151.933585 
L 99.234876 151.933585 
L 99.631784 146.912604 
L 100.028693 146.912604 
L 100.425601 151.933585 
L 100.82251 146.912604 
L 101.219419 146.912604 
L 101.616327 151.933585 
L 102.013236 151.933585 
L 102.410144 146.912604 
L 102.807053 151.933585 
L 103.203961 151.933585 
L 103.60087 156.954566 
L 104.394687 156.954566 
L 104.791596 161.975547 
L 105.188504 161.975547 
L 105.585413 156.954566 
L 105.982321 156.954566 
L 106.37923 146.912604 
L 107.569956 146.912604 
L 107.966864 141.891623 
L 108.760681 151.933585 
L 109.15759 151.933585 
L 109.554498 146.912604 
L 109.951407 151.933585 
L 110.348316 146.912604 
L 110.745224 131.84966 
L 111.142133 136.870642 
L 111.539041 116.786717 
L 111.93595 111.765736 
L 112.332858 121.807698 
L 112.729767 111.765736 
L 113.523584 111.765736 
L 113.920493 116.786717 
L 114.317401 126.828679 
L 114.71431 116.786717 
L 115.111218 121.807698 
L 115.508127 121.807698 
L 115.905036 126.828679 
L 116.301944 116.786717 
L 116.698853 116.786717 
L 117.095761 126.828679 
L 117.49267 121.807698 
L 118.683396 121.807698 
L 119.080304 116.786717 
L 119.477213 121.807698 
L 120.27103 111.765736 
L 120.667938 111.765736 
L 121.064847 126.828679 
L 121.461756 111.765736 
L 121.858664 101.723774 
L 122.255573 96.702792 
L 122.652481 96.702792 
L 123.04939 91.681811 
L 123.446298 96.702792 
L 123.843207 91.681811 
L 124.240116 91.681811 
L 124.637024 81.639849 
L 125.033933 86.66083 
L 125.82775 86.66083 
L 126.224658 96.702792 
L 127.415384 96.702792 
L 127.812293 91.681811 
L 128.209201 91.681811 
L 128.60611 81.639849 
L 129.399927 81.639849 
L 129.796836 76.618868 
L 130.193744 76.618868 
L 130.590653 81.639849 
L 130.987561 76.618868 
L 131.38447 76.618868 
L 131.781378 71.597887 
L 132.178287 71.597887 
L 132.575196 76.618868 
L 133.369013 76.618868 
L 133.765921 86.66083 
L 134.16283 81.639849 
L 134.559738 81.639849 
L 135.353555 91.681811 
L 135.750464 86.66083 
L 136.544281 96.702792 
L 137.735007 96.702792 
L 138.131915 86.66083 
L 139.322641 116.786717 
L 139.71955 111.765736 
L 140.116458 111.765736 
L 140.910275 121.807698 
L 142.101001 121.807698 
L 142.49791 111.765736 
L 142.894818 111.765736 
L 143.291727 116.786717 
L 143.688635 111.765736 
L 145.27627 111.765736 
L 145.673178 121.807698 
L 146.070087 111.765736 
L 146.466995 111.765736 
L 146.863904 121.807698 
L 147.260813 121.807698 
L 147.657721 111.765736 
L 148.05463 111.765736 
L 148.451538 116.786717 
L 148.848447 126.828679 
L 149.642264 136.870642 
L 152.420624 136.870642 
L 152.817533 151.933585 
L 153.214441 156.954566 
L 153.61135 141.891623 
L 154.008258 141.891623 
L 154.405167 131.84966 
L 154.802075 141.891623 
L 155.198984 146.912604 
L 155.595893 146.912604 
L 155.992801 151.933585 
L 156.38971 131.84966 
L 156.786618 136.870642 
L 157.183527 131.84966 
L 157.580435 136.870642 
L 157.977344 146.912604 
L 158.374252 146.912604 
L 158.771161 141.891623 
L 159.16807 141.891623 
L 159.564978 151.933585 
L 159.961887 156.954566 
L 160.358795 151.933585 
L 160.755704 156.954566 
L 161.152612 156.954566 
L 161.549521 161.975547 
L 161.94643 161.975547 
L 162.343338 172.017509 
L 162.740247 166.996528 
L 163.534064 166.996528 
L 163.930972 161.975547 
L 164.327881 161.975547 
L 164.72479 172.017509 
L 165.121698 172.017509 
L 165.518607 156.954566 
L 166.709332 156.954566 
L 167.106241 151.933585 
L 167.900058 151.933585 
L 168.296967 146.912604 
L 168.693875 146.912604 
L 169.090784 136.870642 
L 169.487692 136.870642 
L 169.884601 131.84966 
L 170.28151 131.84966 
L 170.678418 126.828679 
L 171.075327 131.84966 
L 171.869144 131.84966 
L 172.662961 141.891623 
L 173.05987 131.84966 
L 173.456778 126.828679 
L 173.853687 131.84966 
L 174.250595 151.933585 
L 174.647504 151.933585 
L 175.441321 161.975547 
L 176.632047 161.975547 
L 177.028955 156.954566 
L 177.425864 156.954566 
L 177.822772 161.975547 
L 178.219681 156.954566 
L 178.61659 156.954566 
L 179.013498 151.933585 
L 179.807315 131.84966 
L 180.204224 126.828679 
L 180.601132 136.870642 
L 181.39495 126.828679 
L 181.791858 126.828679 
L 182.188767 136.870642 
L 182.982584 136.870642 
L 183.379492 131.84966 
L 183.776401 131.84966 
L 184.570218 111.765736 
L 184.967127 106.744755 
L 185.364035 96.702792 
L 186.157852 96.702792 
L 186.554761 116.786717 
L 186.951669 116.786717 
L 187.348578 121.807698 
L 187.745487 116.786717 
L 188.142395 116.786717 
L 188.539304 106.744755 
L 188.936212 106.744755 
L 189.333121 116.786717 
L 190.523847 131.84966 
L 190.920755 126.828679 
L 191.317664 116.786717 
L 194.096024 116.786717 
L 194.492932 106.744755 
L 194.889841 106.744755 
L 195.286749 96.702792 
L 195.683658 101.723774 
L 196.080567 91.681811 
L 196.477475 91.681811 
L 196.874384 106.744755 
L 198.065109 91.681811 
L 198.462018 96.702792 
L 199.652744 96.702792 
L 200.049652 91.681811 
L 200.446561 91.681811 
L 200.843469 86.66083 
L 201.637287 86.66083 
L 202.431104 96.702792 
L 203.224921 96.702792 
L 203.621829 101.723774 
L 204.018738 96.702792 
L 204.415647 96.702792 
L 204.812555 91.681811 
L 205.606372 91.681811 
L 206.003281 106.744755 
L 206.400189 116.786717 
L 207.194007 116.786717 
L 207.590915 111.765736 
L 207.987824 111.765736 
L 208.384732 106.744755 
L 208.781641 111.765736 
L 209.972366 111.765736 
L 210.369275 106.744755 
L 210.766184 106.744755 
L 211.163092 116.786717 
L 211.560001 116.786717 
L 211.956909 111.765736 
L 212.353818 116.786717 
L 212.750726 126.828679 
L 213.147635 126.828679 
L 213.941452 116.786717 
L 214.338361 121.807698 
L 215.132178 121.807698 
L 215.529086 131.84966 
L 215.925995 126.828679 
L 216.322904 131.84966 
L 216.719812 126.828679 
L 217.116721 126.828679 
L 217.513629 131.84966 
L 217.910538 126.828679 
L 218.307446 136.870642 
L 219.498172 136.870642 
L 219.895081 141.891623 
L 220.291989 131.84966 
L 220.688898 136.870642 
L 221.085806 131.84966 
L 221.482715 141.891623 
L 222.673441 141.891623 
L 223.467258 131.84966 
L 223.864166 136.870642 
L 224.261075 146.912604 
L 224.657984 146.912604 
L 225.054892 136.870642 
L 225.848709 146.912604 
L 227.039435 146.912604 
L 227.436344 151.933585 
L 227.833252 146.912604 
L 228.230161 156.954566 
L 229.023978 156.954566 
L 229.420886 151.933585 
L 231.008521 151.933585 
L 231.405429 146.912604 
L 231.802338 146.912604 
L 232.199246 141.891623 
L 232.596155 141.891623 
L 233.389972 131.84966 
L 233.786881 136.870642 
L 234.580698 126.828679 
L 234.977606 131.84966 
L 235.374515 126.828679 
L 235.771423 126.828679 
L 236.168332 131.84966 
L 237.359058 131.84966 
L 237.755966 136.870642 
L 238.946692 136.870642 
L 239.343601 131.84966 
L 240.137418 131.84966 
L 240.534326 136.870642 
L 241.328143 136.870642 
L 241.725052 141.891623 
L 242.915778 141.891623 
L 243.312686 136.870642 
L 244.106503 136.870642 
L 244.503412 141.891623 
L 244.900321 141.891623 
L 245.297229 131.84966 
L 245.694138 116.786717 
L 246.091046 116.786717 
L 246.884863 126.828679 
L 247.281772 126.828679 
L 247.678681 131.84966 
L 248.472498 111.765736 
L 248.869406 106.744755 
L 249.266315 106.744755 
L 249.663223 111.765736 
L 250.060132 111.765736 
L 250.457041 101.723774 
L 250.853949 106.744755 
L 252.044675 106.744755 
L 252.441583 111.765736 
L 254.426126 111.765736 
L 254.823035 106.744755 
L 255.616852 106.744755 
L 256.807578 91.681811 
L 257.204486 96.702792 
L 257.601395 91.681811 
L 257.998303 96.702792 
L 259.585938 96.702792 
L 259.982846 101.723774 
L 260.379755 101.723774 
L 260.776663 96.702792 
L 262.364298 96.702792 
L 262.761206 91.681811 
L 263.158115 96.702792 
L 263.555023 91.681811 
L 263.951932 91.681811 
L 264.34884 86.66083 
L 264.745749 86.66083 
L 265.142658 91.681811 
L 266.333383 91.681811 
L 266.730292 86.66083 
L 267.1272 101.723774 
L 267.524109 101.723774 
L 267.921018 96.702792 
L 268.317926 101.723774 
L 268.714835 101.723774 
L 269.111743 91.681811 
L 269.508652 86.66083 
L 271.096286 86.66083 
L 271.493195 91.681811 
L 271.890103 86.66083 
L 273.080829 86.66083 
L 273.477738 81.639849 
L 274.271555 91.681811 
L 274.668463 86.66083 
L 275.065372 86.66083 
L 275.46228 81.639849 
L 275.859189 81.639849 
L 276.256098 86.66083 
L 277.446823 86.66083 
L 278.24064 106.744755 
L 278.637549 121.807698 
L 279.034458 121.807698 
L 279.431366 116.786717 
L 280.225183 116.786717 
L 280.622092 111.765736 
L 281.019 116.786717 
L 281.415909 111.765736 
L 281.812818 121.807698 
L 282.209726 121.807698 
L 282.606635 106.744755 
L 283.003543 106.744755 
L 283.400452 121.807698 
L 283.79736 121.807698 
L 284.194269 116.786717 
L 284.591177 116.786717 
L 284.988086 111.765736 
L 285.781903 111.765736 
L 286.178812 121.807698 
L 286.57572 116.786717 
L 288.163355 116.786717 
L 288.560263 106.744755 
L 288.957172 101.723774 
L 289.35408 106.744755 
L 290.941715 106.744755 
L 291.735532 86.66083 
L 292.13244 91.681811 
L 292.529349 91.681811 
L 292.926257 86.66083 
L 293.323166 86.66083 
L 294.116983 96.702792 
L 294.513892 91.681811 
L 294.9108 101.723774 
L 295.307709 101.723774 
L 295.704617 106.744755 
L 296.101526 106.744755 
L 296.498435 116.786717 
L 296.895343 116.786717 
L 297.292252 121.807698 
L 298.482977 121.807698 
L 298.879886 116.786717 
L 299.276795 126.828679 
L 300.070612 136.870642 
L 300.46752 136.870642 
L 300.864429 141.891623 
L 301.261337 141.891623 
L 301.658246 131.84966 
L 302.055155 131.84966 
L 303.24588 116.786717 
L 304.436606 116.786717 
L 304.833515 111.765736 
L 305.230423 111.765736 
L 305.627332 106.744755 
L 306.421149 116.786717 
L 307.214966 116.786717 
L 307.611874 111.765736 
L 308.008783 111.765736 
L 308.405692 121.807698 
L 309.199509 121.807698 
L 309.596417 116.786717 
L 311.184052 116.786717 
L 311.977869 106.744755 
L 312.374777 116.786717 
L 312.771686 121.807698 
L 313.565503 121.807698 
L 313.962412 126.828679 
L 314.35932 136.870642 
L 315.153137 126.828679 
L 315.550046 136.870642 
L 315.946954 126.828679 
L 316.343863 121.807698 
L 316.740772 126.828679 
L 317.13768 116.786717 
L 317.534589 116.786717 
L 317.931497 121.807698 
L 319.122223 121.807698 
L 320.312949 106.744755 
L 320.709857 111.765736 
L 321.106766 111.765736 
L 321.503674 116.786717 
L 321.900583 126.828679 
L 322.297492 121.807698 
L 322.6944 131.84966 
L 323.488217 141.891623 
L 323.885126 141.891623 
L 324.678943 151.933585 
L 325.075852 146.912604 
L 325.47276 146.912604 
L 325.869669 151.933585 
L 326.266577 146.912604 
L 326.663486 146.912604 
L 327.060394 141.891623 
L 327.457303 146.912604 
L 327.854212 136.870642 
L 328.648029 136.870642 
L 329.441846 116.786717 
L 329.838754 111.765736 
L 330.235663 116.786717 
L 330.632572 111.765736 
L 331.02948 111.765736 
L 331.426389 106.744755 
L 332.220206 106.744755 
L 332.617114 101.723774 
L 333.80784 101.723774 
L 334.204749 91.681811 
L 334.601657 96.702792 
L 334.998566 96.702792 
L 335.395474 91.681811 
L 336.189291 101.723774 
L 336.983109 101.723774 
L 337.380017 96.702792 
L 337.776926 96.702792 
L 338.173834 91.681811 
L 339.761469 91.681811 
L 340.158377 96.702792 
L 340.555286 96.702792 
L 340.952194 86.66083 
L 341.746011 76.618868 
L 342.14292 76.618868 
L 342.539829 81.639849 
L 343.730554 81.639849 
L 344.92128 96.702792 
L 347.302731 96.702792 
L 348.096549 106.744755 
L 348.493457 101.723774 
L 348.890366 111.765736 
L 349.287274 111.765736 
L 349.684183 86.66083 
L 350.874909 86.66083 
L 352.065634 71.597887 
L 352.462543 81.639849 
L 352.859451 76.618868 
L 353.25636 81.639849 
L 353.653269 81.639849 
L 354.843994 66.576906 
L 355.240903 71.597887 
L 355.637811 61.555925 
L 356.03472 61.555925 
L 356.431628 66.576906 
L 356.828537 61.555925 
L 357.225446 51.513962 
L 357.622354 51.513962 
L 358.019263 56.534943 
L 358.81308 56.534943 
L 359.209988 66.576906 
L 359.606897 66.576906 
L 360.003806 71.597887 
L 360.400714 81.639849 
L 360.797623 86.66083 
L 361.194531 86.66083 
L 361.59144 81.639849 
L 362.385257 101.723774 
L 362.782166 106.744755 
L 363.179074 106.744755 
L 363.575983 111.765736 
L 363.972891 106.744755 
L 364.3698 106.744755 
L 364.766708 111.765736 
L 365.163617 106.744755 
L 366.354343 106.744755 
L 366.751251 101.723774 
L 367.14816 101.723774 
L 367.545068 96.702792 
L 367.941977 76.618868 
L 368.338886 86.66083 
L 369.132703 86.66083 
L 369.529611 76.618868 
L 369.92652 71.597887 
L 370.720337 71.597887 
L 371.117246 76.618868 
L 373.101788 76.618868 
L 373.498697 71.597887 
L 374.292514 91.681811 
L 374.689423 96.702792 
L 375.086331 86.66083 
L 375.880148 76.618868 
L 376.277057 76.618868 
L 377.467783 46.492981 
L 377.864691 51.513962 
L 379.055417 51.513962 
L 379.452326 46.492981 
L 379.849234 46.492981 
L 380.246143 41.472 
L 381.03996 41.472 
L 381.436868 46.492981 
L 381.833777 46.492981 
L 382.230685 41.472 
L 382.627594 61.555925 
L 383.024503 71.597887 
L 383.81832 71.597887 
L 384.612137 61.555925 
L 385.009045 66.576906 
L 385.405954 61.555925 
L 385.405954 61.555925 
" style="fill:none;stroke:#0000ff;stroke-linecap:square;stroke-width:1.5;"/>
   </g>
   <g id="line2d_14">
    <path clip-path="url(#p1ddab088ff)" d="M 73.832727 71.597887 
L 75.023392 71.597887 
L 75.42028 66.576906 
L 75.817168 71.597887 
L 76.610945 61.555925 
L 77.007833 66.576906 
L 77.404721 56.534943 
L 78.198497 46.492981 
L 78.992274 56.534943 
L 79.389162 56.534943 
L 79.78605 61.555925 
L 80.182938 61.555925 
L 80.579827 51.513962 
L 80.976715 51.513962 
L 81.373603 41.472 
L 81.770491 46.492981 
L 82.167379 71.597887 
L 82.564268 66.576906 
L 83.358044 66.576906 
L 83.754932 76.618868 
L 84.15182 76.618868 
L 84.548709 71.597887 
L 84.945597 71.597887 
L 85.342485 66.576906 
L 86.53315 66.576906 
L 87.326926 56.534943 
L 87.723814 61.555925 
L 88.120702 61.555925 
L 88.517591 51.513962 
L 89.708255 51.513962 
L 90.89892 66.576906 
L 91.295808 66.576906 
L 91.692696 81.639849 
L 92.089584 71.597887 
L 92.486473 81.639849 
L 92.883361 76.618868 
L 93.280249 76.618868 
L 93.677137 81.639849 
L 94.074025 76.618868 
L 94.867802 76.618868 
L 95.26469 71.597887 
L 95.661578 76.618868 
L 96.058466 76.618868 
L 96.455355 81.639849 
L 98.042907 81.639849 
L 98.439796 91.681811 
L 98.836684 91.681811 
L 99.63046 81.639849 
L 100.027348 86.66083 
L 100.424236 76.618868 
L 100.821125 71.597887 
L 101.614901 71.597887 
L 102.408677 61.555925 
L 103.202454 61.555925 
L 103.99623 41.472 
L 105.186895 41.472 
L 105.980671 51.513962 
L 106.377559 46.492981 
L 106.774448 51.513962 
L 107.171336 51.513962 
L 107.568224 56.534943 
L 107.965112 56.534943 
L 108.362 61.555925 
L 108.758889 56.534943 
L 109.949553 71.597887 
L 110.346441 81.639849 
L 110.74333 81.639849 
L 111.140218 86.66083 
L 112.330882 86.66083 
L 112.727771 91.681811 
L 113.124659 91.681811 
L 113.521547 96.702792 
L 113.918435 96.702792 
L 114.315323 106.744755 
L 114.712212 101.723774 
L 116.299764 101.723774 
L 116.696653 96.702792 
L 118.284205 96.702792 
L 118.681094 101.723774 
L 119.077982 101.723774 
L 119.871758 91.681811 
L 120.268646 96.702792 
L 120.665535 96.702792 
L 121.062423 91.681811 
L 121.459311 101.723774 
L 121.856199 101.723774 
L 122.253087 111.765736 
L 122.649976 116.786717 
L 123.046864 106.744755 
L 123.443752 101.723774 
L 123.84064 106.744755 
L 124.237528 106.744755 
L 124.634417 111.765736 
L 125.031305 121.807698 
L 125.825081 131.84966 
L 126.221969 131.84966 
L 126.618858 126.828679 
L 127.015746 131.84966 
L 127.412634 126.828679 
L 127.809522 126.828679 
L 128.20641 131.84966 
L 128.603299 121.807698 
L 129.793963 121.807698 
L 130.587739 101.723774 
L 131.381516 101.723774 
L 132.175292 91.681811 
L 134.159733 116.786717 
L 134.95351 106.744755 
L 135.350398 111.765736 
L 136.144174 111.765736 
L 136.541062 121.807698 
L 136.937951 111.765736 
L 137.731727 111.765736 
L 138.128615 116.786717 
L 138.922392 116.786717 
L 139.31928 121.807698 
L 139.716168 121.807698 
L 140.113056 116.786717 
L 140.509944 106.744755 
L 140.906833 111.765736 
L 141.303721 106.744755 
L 142.097497 106.744755 
L 142.494385 96.702792 
L 143.288162 96.702792 
L 143.68505 91.681811 
L 144.081938 81.639849 
L 144.875715 81.639849 
L 145.272603 86.66083 
L 145.669491 86.66083 
L 146.066379 81.639849 
L 146.463267 86.66083 
L 146.860156 81.639849 
L 147.653932 91.681811 
L 148.05082 86.66083 
L 148.447708 96.702792 
L 149.241485 96.702792 
L 149.638373 101.723774 
L 152.019702 101.723774 
L 153.210367 116.786717 
L 153.607255 111.765736 
L 154.004143 111.765736 
L 154.401031 106.744755 
L 155.194808 106.744755 
L 155.591696 101.723774 
L 155.988584 106.744755 
L 156.385472 116.786717 
L 156.782361 116.786717 
L 157.179249 121.807698 
L 157.973025 111.765736 
L 158.369913 111.765736 
L 158.766802 106.744755 
L 159.16369 96.702792 
L 159.560578 101.723774 
L 159.957466 91.681811 
L 160.354354 91.681811 
L 161.148131 81.639849 
L 161.545019 86.66083 
L 162.338795 86.66083 
L 162.735683 71.597887 
L 163.132572 81.639849 
L 163.52946 86.66083 
L 163.926348 86.66083 
L 164.323236 81.639849 
L 164.720124 86.66083 
L 165.910789 86.66083 
L 166.307677 91.681811 
L 166.704565 81.639849 
L 167.101454 81.639849 
L 167.498342 86.66083 
L 167.89523 96.702792 
L 168.292118 96.702792 
L 168.689006 101.723774 
L 169.085895 96.702792 
L 169.482783 101.723774 
L 169.879671 116.786717 
L 171.467224 116.786717 
L 171.864112 111.765736 
L 172.261 101.723774 
L 172.657888 96.702792 
L 173.451665 106.744755 
L 175.039218 86.66083 
L 175.436106 91.681811 
L 176.229882 91.681811 
L 176.62677 96.702792 
L 177.023659 111.765736 
L 177.420547 111.765736 
L 177.817435 106.744755 
L 178.214323 106.744755 
L 178.611211 111.765736 
L 179.0081 121.807698 
L 179.404988 121.807698 
L 179.801876 126.828679 
L 180.198764 121.807698 
L 180.992541 121.807698 
L 181.389429 111.765736 
L 181.786317 111.765736 
L 182.183205 116.786717 
L 182.580093 116.786717 
L 182.976982 106.744755 
L 183.37387 106.744755 
L 183.770758 96.702792 
L 184.167646 91.681811 
L 184.564534 81.639849 
L 185.358311 71.597887 
L 185.755199 76.618868 
L 186.945864 76.618868 
L 187.342752 81.639849 
L 187.73964 81.639849 
L 188.136528 86.66083 
L 188.533416 86.66083 
L 188.930305 91.681811 
L 189.724081 91.681811 
L 190.120969 76.618868 
L 190.517857 81.639849 
L 190.914745 81.639849 
L 191.311634 76.618868 
L 191.708522 81.639849 
L 192.10541 76.618868 
L 192.502298 76.618868 
L 193.692963 91.681811 
L 194.486739 91.681811 
L 194.883627 86.66083 
L 195.280516 86.66083 
L 195.677404 91.681811 
L 196.47118 81.639849 
L 197.264957 81.639849 
L 197.661845 76.618868 
L 198.058733 76.618868 
L 198.455621 66.576906 
L 199.249398 66.576906 
L 199.646286 76.618868 
L 200.043174 66.576906 
L 200.440062 61.555925 
L 203.21828 61.555925 
L 203.615168 56.534943 
L 204.408944 56.534943 
L 204.805832 61.555925 
L 205.202721 71.597887 
L 205.996497 71.597887 
L 206.393385 66.576906 
L 206.790273 71.597887 
L 207.58405 101.723774 
L 207.980938 101.723774 
L 208.377826 96.702792 
L 208.774714 96.702792 
L 209.171603 86.66083 
L 209.568491 91.681811 
L 209.965379 86.66083 
L 211.552932 86.66083 
L 211.94982 81.639849 
L 212.743596 81.639849 
L 213.140485 76.618868 
L 213.537373 66.576906 
L 213.934261 66.576906 
L 214.331149 76.618868 
L 215.521814 61.555925 
L 215.918702 71.597887 
L 216.31559 71.597887 
L 216.712478 86.66083 
L 217.109367 91.681811 
L 217.506255 106.744755 
L 217.903143 96.702792 
L 218.300031 106.744755 
L 219.490696 106.744755 
L 219.887584 111.765736 
L 220.68136 101.723774 
L 221.872025 116.786717 
L 223.459578 116.786717 
L 223.856466 111.765736 
L 224.650242 111.765736 
L 225.04713 116.786717 
L 225.444019 116.786717 
L 225.840907 111.765736 
L 226.237795 111.765736 
L 227.031571 101.723774 
L 227.42846 101.723774 
L 227.825348 111.765736 
L 228.222236 111.765736 
L 228.619124 116.786717 
L 229.016012 111.765736 
L 229.412901 116.786717 
L 229.809789 111.765736 
L 230.206677 116.786717 
L 230.603565 116.786717 
L 231.000453 111.765736 
L 231.397342 116.786717 
L 232.588006 116.786717 
L 232.984894 126.828679 
L 233.381783 126.828679 
L 234.175559 116.786717 
L 234.572447 116.786717 
L 234.969335 121.807698 
L 235.366224 121.807698 
L 235.763112 126.828679 
L 236.16 116.786717 
L 236.953776 116.786717 
L 237.350665 106.744755 
L 237.747553 101.723774 
L 238.938217 101.723774 
L 239.335106 106.744755 
L 240.128882 96.702792 
L 240.52577 86.66083 
L 241.319547 96.702792 
L 241.716435 96.702792 
L 242.113323 106.744755 
L 242.510211 106.744755 
L 242.907099 111.765736 
L 243.303988 111.765736 
L 243.700876 116.786717 
L 244.494652 116.786717 
L 244.89154 121.807698 
L 245.288429 121.807698 
L 245.685317 111.765736 
L 246.479093 121.807698 
L 246.875981 116.786717 
L 247.27287 116.786717 
L 247.669758 121.807698 
L 248.066646 121.807698 
L 248.463534 131.84966 
L 248.860422 126.828679 
L 249.654199 136.870642 
L 250.051087 136.870642 
L 250.447975 126.828679 
L 250.844863 131.84966 
L 251.241752 131.84966 
L 251.63864 121.807698 
L 252.035528 116.786717 
L 252.829304 116.786717 
L 253.226192 121.807698 
L 253.623081 121.807698 
L 254.019969 126.828679 
L 254.813745 126.828679 
L 255.210633 121.807698 
L 255.607522 121.807698 
L 256.00441 116.786717 
L 256.401298 116.786717 
L 257.195074 126.828679 
L 258.385739 126.828679 
L 258.782627 116.786717 
L 259.179515 116.786717 
L 259.576404 121.807698 
L 259.973292 116.786717 
L 260.37018 116.786717 
L 260.767068 111.765736 
L 261.163956 111.765736 
L 261.957733 121.807698 
L 262.354621 111.765736 
L 262.751509 116.786717 
L 263.148397 116.786717 
L 263.545286 111.765736 
L 263.942174 116.786717 
L 264.339062 116.786717 
L 264.73595 111.765736 
L 266.323503 111.765736 
L 266.720391 116.786717 
L 267.514168 106.744755 
L 267.911056 106.744755 
L 268.307944 101.723774 
L 268.704832 91.681811 
L 269.10172 91.681811 
L 269.498609 101.723774 
L 269.895497 101.723774 
L 270.689273 121.807698 
L 271.48305 111.765736 
L 272.276826 111.765736 
L 272.673714 116.786717 
L 273.070602 116.786717 
L 273.467491 121.807698 
L 274.658155 121.807698 
L 275.055043 116.786717 
L 275.451932 116.786717 
L 275.84882 106.744755 
L 276.245708 106.744755 
L 276.642596 111.765736 
L 277.039484 106.744755 
L 277.436373 106.744755 
L 277.833261 96.702792 
L 278.230149 96.702792 
L 278.627037 101.723774 
L 279.023925 96.702792 
L 279.817702 106.744755 
L 280.21459 106.744755 
L 280.611478 101.723774 
L 282.595919 101.723774 
L 282.992807 96.702792 
L 283.389695 106.744755 
L 284.183472 106.744755 
L 284.58036 121.807698 
L 284.977248 126.828679 
L 285.771025 126.828679 
L 286.167913 121.807698 
L 286.564801 121.807698 
L 286.961689 111.765736 
L 287.358577 111.765736 
L 287.755466 106.744755 
L 288.549242 116.786717 
L 288.94613 116.786717 
L 289.343018 111.765736 
L 290.930571 111.765736 
L 291.327459 106.744755 
L 292.121236 116.786717 
L 292.518124 116.786717 
L 292.915012 131.84966 
L 293.3119 141.891623 
L 293.708789 136.870642 
L 294.502565 136.870642 
L 294.899453 141.891623 
L 295.296341 151.933585 
L 295.69323 151.933585 
L 296.487006 161.975547 
L 297.280782 161.975547 
L 297.677671 166.996528 
L 298.074559 166.996528 
L 298.471447 172.017509 
L 298.868335 161.975547 
L 299.265223 161.975547 
L 299.662112 156.954566 
L 300.059 156.954566 
L 300.455888 161.975547 
L 300.852776 156.954566 
L 301.249664 156.954566 
L 301.646553 166.996528 
L 302.440329 177.038491 
L 302.837217 177.038491 
L 303.234105 172.017509 
L 303.630994 161.975547 
L 304.027882 166.996528 
L 304.42477 161.975547 
L 305.218546 161.975547 
L 305.615435 156.954566 
L 306.806099 156.954566 
L 307.202987 151.933585 
L 307.599876 151.933585 
L 308.393652 141.891623 
L 308.79054 146.912604 
L 309.187428 141.891623 
L 309.584317 141.891623 
L 309.981205 136.870642 
L 310.378093 136.870642 
L 311.171869 126.828679 
L 311.568758 131.84966 
L 312.362534 131.84966 
L 312.759422 141.891623 
L 313.15631 136.870642 
L 313.553198 141.891623 
L 313.950087 136.870642 
L 314.346975 126.828679 
L 315.140751 126.828679 
L 315.537639 121.807698 
L 315.934528 126.828679 
L 316.728304 126.828679 
L 317.125192 121.807698 
L 317.52208 121.807698 
L 317.918969 116.786717 
L 318.712745 116.786717 
L 319.506521 126.828679 
L 319.90341 136.870642 
L 320.300298 136.870642 
L 320.697186 146.912604 
L 321.094074 146.912604 
L 321.887851 136.870642 
L 322.284739 136.870642 
L 322.681627 126.828679 
L 323.078515 121.807698 
L 323.475403 121.807698 
L 323.872292 116.786717 
L 324.26918 121.807698 
L 325.062956 121.807698 
L 325.459844 111.765736 
L 326.253621 111.765736 
L 326.650509 116.786717 
L 327.444285 116.786717 
L 327.841174 111.765736 
L 328.63495 121.807698 
L 329.031838 121.807698 
L 329.428726 126.828679 
L 330.222503 126.828679 
L 331.016279 116.786717 
L 331.413167 116.786717 
L 331.810056 121.807698 
L 332.206944 121.807698 
L 332.603832 126.828679 
L 333.00072 121.807698 
L 333.397608 126.828679 
L 333.794497 126.828679 
L 334.191385 131.84966 
L 334.588273 126.828679 
L 334.985161 116.786717 
L 335.382049 116.786717 
L 335.778938 111.765736 
L 336.175826 111.765736 
L 336.969602 101.723774 
L 337.36649 106.744755 
L 337.763379 106.744755 
L 338.160267 101.723774 
L 338.557155 106.744755 
L 338.954043 101.723774 
L 339.350931 91.681811 
L 339.74782 86.66083 
L 340.144708 91.681811 
L 340.938484 81.639849 
L 341.335372 81.639849 
L 341.732261 91.681811 
L 342.129149 96.702792 
L 342.526037 86.66083 
L 342.922925 86.66083 
L 344.11359 101.723774 
L 344.510478 101.723774 
L 344.907366 106.744755 
L 345.701142 106.744755 
L 346.098031 111.765736 
L 346.494919 106.744755 
L 347.288695 116.786717 
L 347.685583 111.765736 
L 348.082472 116.786717 
L 348.876248 116.786717 
L 349.670024 106.744755 
L 350.066913 111.765736 
L 350.463801 111.765736 
L 351.257577 101.723774 
L 351.654465 91.681811 
L 352.051354 86.66083 
L 352.448242 86.66083 
L 352.84513 81.639849 
L 353.638906 81.639849 
L 354.035795 86.66083 
L 355.226459 86.66083 
L 356.020236 106.744755 
L 358.004677 106.744755 
L 358.401565 111.765736 
L 358.798453 106.744755 
L 359.592229 106.744755 
L 359.989118 101.723774 
L 360.782894 101.723774 
L 361.179782 106.744755 
L 361.57667 96.702792 
L 361.973559 96.702792 
L 362.370447 106.744755 
L 362.767335 106.744755 
L 363.164223 101.723774 
L 363.958 101.723774 
L 364.354888 106.744755 
L 364.751776 106.744755 
L 365.148664 111.765736 
L 365.545552 111.765736 
L 365.942441 116.786717 
L 366.339329 111.765736 
L 366.736217 116.786717 
L 367.133105 116.786717 
L 367.926882 126.828679 
L 368.720658 96.702792 
L 369.117546 96.702792 
L 369.514434 111.765736 
L 369.911323 101.723774 
L 370.705099 101.723774 
L 371.101987 111.765736 
L 372.292652 96.702792 
L 372.68954 96.702792 
L 373.086428 91.681811 
L 373.483316 91.681811 
L 373.880204 96.702792 
L 374.673981 96.702792 
L 375.070869 91.681811 
L 375.467757 96.702792 
L 375.864645 96.702792 
L 376.261534 86.66083 
L 377.05531 86.66083 
L 377.452198 81.639849 
L 378.245975 81.639849 
L 378.642863 76.618868 
L 379.436639 86.66083 
L 380.230416 86.66083 
L 381.42108 101.723774 
L 381.817968 101.723774 
L 382.214857 96.702792 
L 382.611745 101.723774 
L 383.405521 101.723774 
L 385.78685 131.84966 
L 386.977515 131.84966 
L 387.771291 141.891623 
L 388.16818 141.891623 
L 388.565068 146.912604 
L 388.961956 156.954566 
L 389.755732 166.996528 
L 391.343285 166.996528 
L 391.740173 182.059472 
L 393.327726 182.059472 
L 393.724614 192.101434 
L 394.121503 192.101434 
L 394.518391 197.122415 
L 396.89972 197.122415 
L 397.296608 202.143396 
L 398.487273 202.143396 
L 398.487273 202.143396 
" style="fill:none;stroke:#0000ff;stroke-linecap:square;stroke-width:1.5;"/>
   </g>
   <g id="patch_3">
    <path d="M 57.6 307.584 
L 57.6 41.472 
" style="fill:none;stroke:#000000;stroke-linecap:square;stroke-linejoin:miter;stroke-width:0.8;"/>
   </g>
   <g id="patch_4">
    <path d="M 414.72 307.584 
L 414.72 41.472 
" style="fill:none;stroke:#000000;stroke-linecap:square;stroke-linejoin:miter;stroke-width:0.8;"/>
   </g>
   <g id="patch_5">
    <path d="M 57.6 307.584 
L 414.72 307.584 
" style="fill:none;stroke:#000000;stroke-linecap:square;stroke-linejoin:miter;stroke-width:0.8;"/>
   </g>
   <g id="patch_6">
    <path d="M 57.6 41.472 
L 414.72 41.472 
" style="fill:none;stroke:#000000;stroke-linecap:square;stroke-linejoin:miter;stroke-width:0.8;"/>
   </g>
   <g id="text_14">
    <!-- &gt;strB_1_M96392 Aminoglycoside resistance:Alternate name; aph(6)-Id -->
    <defs>
     <path d="M 10.59375 49.21875 
L 10.59375 58.109375 
L 73.1875 35.40625 
L 73.1875 27.296875 
L 10.59375 4.59375 
L 10.59375 13.484375 
L 60.890625 31.296875 
z
" id="DejaVuSans-62"/>
     <path d="M 41.109375 46.296875 
Q 39.59375 47.171875 37.8125 47.578125 
Q 36.03125 48 33.890625 48 
Q 26.265625 48 22.1875 43.046875 
Q 18.109375 38.09375 18.109375 28.8125 
L 18.109375 0 
L 9.078125 0 
L 9.078125 54.6875 
L 18.109375 54.6875 
L 18.109375 46.1875 
Q 20.953125 51.171875 25.484375 53.578125 
Q 30.03125 56 36.53125 56 
Q 37.453125 56 38.578125 55.875 
Q 39.703125 55.765625 41.0625 55.515625 
z
" id="DejaVuSans-114"/>
     <path d="M 19.671875 34.8125 
L 19.671875 8.109375 
L 35.5 8.109375 
Q 43.453125 8.109375 47.28125 11.40625 
Q 51.125 14.703125 51.125 21.484375 
Q 51.125 28.328125 47.28125 31.5625 
Q 43.453125 34.8125 35.5 34.8125 
z
M 19.671875 64.796875 
L 19.671875 42.828125 
L 34.28125 42.828125 
Q 41.5 42.828125 45.03125 45.53125 
Q 48.578125 48.25 48.578125 53.8125 
Q 48.578125 59.328125 45.03125 62.0625 
Q 41.5 64.796875 34.28125 64.796875 
z
M 9.8125 72.90625 
L 35.015625 72.90625 
Q 46.296875 72.90625 52.390625 68.21875 
Q 58.5 63.53125 58.5 54.890625 
Q 58.5 48.1875 55.375 44.234375 
Q 52.25 40.28125 46.1875 39.3125 
Q 53.46875 37.75 57.5 32.78125 
Q 61.53125 27.828125 61.53125 20.40625 
Q 61.53125 10.640625 54.890625 5.3125 
Q 48.25 0 35.984375 0 
L 9.8125 0 
z
" id="DejaVuSans-66"/>
     <path d="M 50.984375 -16.609375 
L 50.984375 -23.578125 
L -0.984375 -23.578125 
L -0.984375 -16.609375 
z
" id="DejaVuSans-95"/>
     <path d="M 9.8125 72.90625 
L 24.515625 72.90625 
L 43.109375 23.296875 
L 61.8125 72.90625 
L 76.515625 72.90625 
L 76.515625 0 
L 66.890625 0 
L 66.890625 64.015625 
L 48.09375 14.015625 
L 38.1875 14.015625 
L 19.390625 64.015625 
L 19.390625 0 
L 9.8125 0 
z
" id="DejaVuSans-77"/>
     <path d="M 10.984375 1.515625 
L 10.984375 10.5 
Q 14.703125 8.734375 18.5 7.8125 
Q 22.3125 6.890625 25.984375 6.890625 
Q 35.75 6.890625 40.890625 13.453125 
Q 46.046875 20.015625 46.78125 33.40625 
Q 43.953125 29.203125 39.59375 26.953125 
Q 35.25 24.703125 29.984375 24.703125 
Q 19.046875 24.703125 12.671875 31.3125 
Q 6.296875 37.9375 6.296875 49.421875 
Q 6.296875 60.640625 12.9375 67.421875 
Q 19.578125 74.21875 30.609375 74.21875 
Q 43.265625 74.21875 49.921875 64.515625 
Q 56.59375 54.828125 56.59375 36.375 
Q 56.59375 19.140625 48.40625 8.859375 
Q 40.234375 -1.421875 26.421875 -1.421875 
Q 22.703125 -1.421875 18.890625 -0.6875 
Q 15.09375 0.046875 10.984375 1.515625 
z
M 30.609375 32.421875 
Q 37.25 32.421875 41.125 36.953125 
Q 45.015625 41.5 45.015625 49.421875 
Q 45.015625 57.28125 41.125 61.84375 
Q 37.25 66.40625 30.609375 66.40625 
Q 23.96875 66.40625 20.09375 61.84375 
Q 16.21875 57.28125 16.21875 49.421875 
Q 16.21875 41.5 20.09375 36.953125 
Q 23.96875 32.421875 30.609375 32.421875 
z
" id="DejaVuSans-57"/>
     <path d="M 34.1875 63.1875 
L 20.796875 26.90625 
L 47.609375 26.90625 
z
M 28.609375 72.90625 
L 39.796875 72.90625 
L 67.578125 0 
L 57.328125 0 
L 50.6875 18.703125 
L 17.828125 18.703125 
L 11.1875 0 
L 0.78125 0 
z
" id="DejaVuSans-65"/>
     <path d="M 52 44.1875 
Q 55.375 50.25 60.0625 53.125 
Q 64.75 56 71.09375 56 
Q 79.640625 56 84.28125 50.015625 
Q 88.921875 44.046875 88.921875 33.015625 
L 88.921875 0 
L 79.890625 0 
L 79.890625 32.71875 
Q 79.890625 40.578125 77.09375 44.375 
Q 74.3125 48.1875 68.609375 48.1875 
Q 61.625 48.1875 57.5625 43.546875 
Q 53.515625 38.921875 53.515625 30.90625 
L 53.515625 0 
L 44.484375 0 
L 44.484375 32.71875 
Q 44.484375 40.625 41.703125 44.40625 
Q 38.921875 48.1875 33.109375 48.1875 
Q 26.21875 48.1875 22.15625 43.53125 
Q 18.109375 38.875 18.109375 30.90625 
L 18.109375 0 
L 9.078125 0 
L 9.078125 54.6875 
L 18.109375 54.6875 
L 18.109375 46.1875 
Q 21.1875 51.21875 25.484375 53.609375 
Q 29.78125 56 35.6875 56 
Q 41.65625 56 45.828125 52.96875 
Q 50 49.953125 52 44.1875 
z
" id="DejaVuSans-109"/>
     <path d="M 9.421875 75.984375 
L 18.40625 75.984375 
L 18.40625 0 
L 9.421875 0 
z
" id="DejaVuSans-108"/>
     <path d="M 32.171875 -5.078125 
Q 28.375 -14.84375 24.75 -17.8125 
Q 21.140625 -20.796875 15.09375 -20.796875 
L 7.90625 -20.796875 
L 7.90625 -13.28125 
L 13.1875 -13.28125 
Q 16.890625 -13.28125 18.9375 -11.515625 
Q 21 -9.765625 23.484375 -3.21875 
L 25.09375 0.875 
L 2.984375 54.6875 
L 12.5 54.6875 
L 29.59375 11.921875 
L 46.6875 54.6875 
L 56.203125 54.6875 
z
" id="DejaVuSans-121"/>
     <path d="M 48.78125 52.59375 
L 48.78125 44.1875 
Q 44.96875 46.296875 41.140625 47.34375 
Q 37.3125 48.390625 33.40625 48.390625 
Q 24.65625 48.390625 19.8125 42.84375 
Q 14.984375 37.3125 14.984375 27.296875 
Q 14.984375 17.28125 19.8125 11.734375 
Q 24.65625 6.203125 33.40625 6.203125 
Q 37.3125 6.203125 41.140625 7.25 
Q 44.96875 8.296875 48.78125 10.40625 
L 48.78125 2.09375 
Q 45.015625 0.34375 40.984375 -0.53125 
Q 36.96875 -1.421875 32.421875 -1.421875 
Q 20.0625 -1.421875 12.78125 6.34375 
Q 5.515625 14.109375 5.515625 27.296875 
Q 5.515625 40.671875 12.859375 48.328125 
Q 20.21875 56 33.015625 56 
Q 37.15625 56 41.109375 55.140625 
Q 45.0625 54.296875 48.78125 52.59375 
z
" id="DejaVuSans-99"/>
     <path d="M 34.28125 27.484375 
Q 23.390625 27.484375 19.1875 25 
Q 14.984375 22.515625 14.984375 16.5 
Q 14.984375 11.71875 18.140625 8.90625 
Q 21.296875 6.109375 26.703125 6.109375 
Q 34.1875 6.109375 38.703125 11.40625 
Q 43.21875 16.703125 43.21875 25.484375 
L 43.21875 27.484375 
z
M 52.203125 31.203125 
L 52.203125 0 
L 43.21875 0 
L 43.21875 8.296875 
Q 40.140625 3.328125 35.546875 0.953125 
Q 30.953125 -1.421875 24.3125 -1.421875 
Q 15.921875 -1.421875 10.953125 3.296875 
Q 6 8.015625 6 15.921875 
Q 6 25.140625 12.171875 29.828125 
Q 18.359375 34.515625 30.609375 34.515625 
L 43.21875 34.515625 
L 43.21875 35.40625 
Q 43.21875 41.609375 39.140625 45 
Q 35.0625 48.390625 27.6875 48.390625 
Q 23 48.390625 18.546875 47.265625 
Q 14.109375 46.140625 10.015625 43.890625 
L 10.015625 52.203125 
Q 14.9375 54.109375 19.578125 55.046875 
Q 24.21875 56 28.609375 56 
Q 40.484375 56 46.34375 49.84375 
Q 52.203125 43.703125 52.203125 31.203125 
z
" id="DejaVuSans-97"/>
     <path d="M 11.71875 12.40625 
L 22.015625 12.40625 
L 22.015625 0 
L 11.71875 0 
z
M 11.71875 51.703125 
L 22.015625 51.703125 
L 22.015625 39.3125 
L 11.71875 39.3125 
z
" id="DejaVuSans-58"/>
     <path d="M 11.71875 51.703125 
L 22.015625 51.703125 
L 22.015625 39.3125 
L 11.71875 39.3125 
z
M 11.71875 12.40625 
L 22.015625 12.40625 
L 22.015625 4 
L 14.015625 -11.625 
L 7.71875 -11.625 
L 11.71875 4 
z
" id="DejaVuSans-59"/>
     <path d="M 31 75.875 
Q 24.46875 64.65625 21.28125 53.65625 
Q 18.109375 42.671875 18.109375 31.390625 
Q 18.109375 20.125 21.3125 9.0625 
Q 24.515625 -2 31 -13.1875 
L 23.1875 -13.1875 
Q 15.875 -1.703125 12.234375 9.375 
Q 8.59375 20.453125 8.59375 31.390625 
Q 8.59375 42.28125 12.203125 53.3125 
Q 15.828125 64.359375 23.1875 75.875 
z
" id="DejaVuSans-40"/>
     <path d="M 8.015625 75.875 
L 15.828125 75.875 
Q 23.140625 64.359375 26.78125 53.3125 
Q 30.421875 42.28125 30.421875 31.390625 
Q 30.421875 20.453125 26.78125 9.375 
Q 23.140625 -1.703125 15.828125 -13.1875 
L 8.015625 -13.1875 
Q 14.5 -2 17.703125 9.0625 
Q 20.90625 20.125 20.90625 31.390625 
Q 20.90625 42.671875 17.703125 53.65625 
Q 14.5 64.65625 8.015625 75.875 
z
" id="DejaVuSans-41"/>
     <path d="M 4.890625 31.390625 
L 31.203125 31.390625 
L 31.203125 23.390625 
L 4.890625 23.390625 
z
" id="DejaVuSans-45"/>
     <path d="M 9.8125 72.90625 
L 19.671875 72.90625 
L 19.671875 0 
L 9.8125 0 
z
" id="DejaVuSans-73"/>
    </defs>
    <g transform="translate(22.690313 35.472)scale(0.12 -0.12)">
     <use xlink:href="#DejaVuSans-62"/>
     <use x="83.789062" xlink:href="#DejaVuSans-115"/>
     <use x="135.888672" xlink:href="#DejaVuSans-116"/>
     <use x="175.097656" xlink:href="#DejaVuSans-114"/>
     <use x="216.210938" xlink:href="#DejaVuSans-66"/>
     <use x="284.814453" xlink:href="#DejaVuSans-95"/>
     <use x="334.814453" xlink:href="#DejaVuSans-49"/>
     <use x="398.4375" xlink:href="#DejaVuSans-95"/>
     <use x="448.4375" xlink:href="#DejaVuSans-77"/>
     <use x="534.716797" xlink:href="#DejaVuSans-57"/>
     <use x="598.339844" xlink:href="#DejaVuSans-54"/>
     <use x="661.962891" xlink:href="#DejaVuSans-51"/>
     <use x="725.585938" xlink:href="#DejaVuSans-57"/>
     <use x="789.208984" xlink:href="#DejaVuSans-50"/>
     <use x="852.832031" xlink:href="#DejaVuSans-32"/>
     <use x="884.619141" xlink:href="#DejaVuSans-65"/>
     <use x="953.027344" xlink:href="#DejaVuSans-109"/>
     <use x="1050.439453" xlink:href="#DejaVuSans-105"/>
     <use x="1078.222656" xlink:href="#DejaVuSans-110"/>
     <use x="1141.601562" xlink:href="#DejaVuSans-111"/>
     <use x="1202.783203" xlink:href="#DejaVuSans-103"/>
     <use x="1266.259766" xlink:href="#DejaVuSans-108"/>
     <use x="1294.042969" xlink:href="#DejaVuSans-121"/>
     <use x="1353.222656" xlink:href="#DejaVuSans-99"/>
     <use x="1408.203125" xlink:href="#DejaVuSans-111"/>
     <use x="1469.384766" xlink:href="#DejaVuSans-115"/>
     <use x="1521.484375" xlink:href="#DejaVuSans-105"/>
     <use x="1549.267578" xlink:href="#DejaVuSans-100"/>
     <use x="1612.744141" xlink:href="#DejaVuSans-101"/>
     <use x="1674.267578" xlink:href="#DejaVuSans-32"/>
     <use x="1706.054688" xlink:href="#DejaVuSans-114"/>
     <use x="1747.136719" xlink:href="#DejaVuSans-101"/>
     <use x="1808.660156" xlink:href="#DejaVuSans-115"/>
     <use x="1860.759766" xlink:href="#DejaVuSans-105"/>
     <use x="1888.542969" xlink:href="#DejaVuSans-115"/>
     <use x="1940.642578" xlink:href="#DejaVuSans-116"/>
     <use x="1979.851562" xlink:href="#DejaVuSans-97"/>
     <use x="2041.130859" xlink:href="#DejaVuSans-110"/>
     <use x="2104.509766" xlink:href="#DejaVuSans-99"/>
     <use x="2159.490234" xlink:href="#DejaVuSans-101"/>
     <use x="2221.013672" xlink:href="#DejaVuSans-58"/>
     <use x="2254.705078" xlink:href="#DejaVuSans-65"/>
     <use x="2323.113281" xlink:href="#DejaVuSans-108"/>
     <use x="2350.896484" xlink:href="#DejaVuSans-116"/>
     <use x="2390.105469" xlink:href="#DejaVuSans-101"/>
     <use x="2451.628906" xlink:href="#DejaVuSans-114"/>
     <use x="2492.726562" xlink:href="#DejaVuSans-110"/>
     <use x="2556.105469" xlink:href="#DejaVuSans-97"/>
     <use x="2617.384766" xlink:href="#DejaVuSans-116"/>
     <use x="2656.59375" xlink:href="#DejaVuSans-101"/>
     <use x="2718.117188" xlink:href="#DejaVuSans-32"/>
     <use x="2749.904297" xlink:href="#DejaVuSans-110"/>
     <use x="2813.283203" xlink:href="#DejaVuSans-97"/>
     <use x="2874.5625" xlink:href="#DejaVuSans-109"/>
     <use x="2971.974609" xlink:href="#DejaVuSans-101"/>
     <use x="3033.498047" xlink:href="#DejaVuSans-59"/>
     <use x="3067.189453" xlink:href="#DejaVuSans-32"/>
     <use x="3098.976562" xlink:href="#DejaVuSans-97"/>
     <use x="3160.255859" xlink:href="#DejaVuSans-112"/>
     <use x="3223.732422" xlink:href="#DejaVuSans-104"/>
     <use x="3287.111328" xlink:href="#DejaVuSans-40"/>
     <use x="3326.125" xlink:href="#DejaVuSans-54"/>
     <use x="3389.748047" xlink:href="#DejaVuSans-41"/>
     <use x="3428.761719" xlink:href="#DejaVuSans-45"/>
     <use x="3464.845703" xlink:href="#DejaVuSans-73"/>
     <use x="3494.337891" xlink:href="#DejaVuSans-100"/>
    </g>
   </g>
  </g>
 </g>
 <defs>
  <clipPath id="p1ddab088ff">
   <rect height="266.112" width="357.12" x="57.6" y="41.472"/>
  </clipPath>
 </defs>
</svg>
