<?xml version="1.0" encoding="utf-8" standalone="no"?>
<!DOCTYPE svg PUBLIC "-//W3C//DTD SVG 1.1//EN"
  "http://www.w3.org/Graphics/SVG/1.1/DTD/svg11.dtd">
<!-- Created with matplotlib (https://matplotlib.org/) -->
<svg height="345.6pt" version="1.1" viewBox="0 0 460.8 345.6" width="460.8pt" xmlns="http://www.w3.org/2000/svg" xmlns:xlink="http://www.w3.org/1999/xlink">
 <defs>
  <style type="text/css">
*{stroke-linecap:butt;stroke-linejoin:round;}
  </style>
 </defs>
 <g id="figure_1">
  <g id="patch_1">
   <path d="M 0 345.6 
L 460.8 345.6 
L 460.8 0 
L 0 0 
z
" style="fill:#ffffff;"/>
  </g>
  <g id="axes_1">
   <g id="patch_2">
    <path d="M 57.6 307.584 
L 414.72 307.584 
L 414.72 41.472 
L 57.6 41.472 
z
" style="fill:#ffffff;"/>
   </g>
   <g id="matplotlib.axis_1">
    <g id="xtick_1">
     <g id="line2d_1">
      <defs>
       <path d="M 0 0 
L 0 3.5 
" id="m5a9af9b232" style="stroke:#000000;stroke-width:0.8;"/>
      </defs>
      <g>
       <use style="stroke:#000000;stroke-width:0.8;" x="73.832727" xlink:href="#m5a9af9b232" y="307.584"/>
      </g>
     </g>
     <g id="text_1">
      <!-- 0 -->
      <defs>
       <path d="M 31.78125 66.40625 
Q 24.171875 66.40625 20.328125 58.90625 
Q 16.5 51.421875 16.5 36.375 
Q 16.5 21.390625 20.328125 13.890625 
Q 24.171875 6.390625 31.78125 6.390625 
Q 39.453125 6.390625 43.28125 13.890625 
Q 47.125 21.390625 47.125 36.375 
Q 47.125 51.421875 43.28125 58.90625 
Q 39.453125 66.40625 31.78125 66.40625 
z
M 31.78125 74.21875 
Q 44.046875 74.21875 50.515625 64.515625 
Q 56.984375 54.828125 56.984375 36.375 
Q 56.984375 17.96875 50.515625 8.265625 
Q 44.046875 -1.421875 31.78125 -1.421875 
Q 19.53125 -1.421875 13.0625 8.265625 
Q 6.59375 17.96875 6.59375 36.375 
Q 6.59375 54.828125 13.0625 64.515625 
Q 19.53125 74.21875 31.78125 74.21875 
z
" id="DejaVuSans-48"/>
      </defs>
      <g transform="translate(70.651477 322.182437)scale(0.1 -0.1)">
       <use xlink:href="#DejaVuSans-48"/>
      </g>
     </g>
    </g>
    <g id="xtick_2">
     <g id="line2d_2">
      <g>
       <use style="stroke:#000000;stroke-width:0.8;" x="134.972943" xlink:href="#m5a9af9b232" y="307.584"/>
      </g>
     </g>
     <g id="text_2">
      <!-- 100 -->
      <defs>
       <path d="M 12.40625 8.296875 
L 28.515625 8.296875 
L 28.515625 63.921875 
L 10.984375 60.40625 
L 10.984375 69.390625 
L 28.421875 72.90625 
L 38.28125 72.90625 
L 38.28125 8.296875 
L 54.390625 8.296875 
L 54.390625 0 
L 12.40625 0 
z
" id="DejaVuSans-49"/>
      </defs>
      <g transform="translate(125.429193 322.182437)scale(0.1 -0.1)">
       <use xlink:href="#DejaVuSans-49"/>
       <use x="63.623047" xlink:href="#DejaVuSans-48"/>
       <use x="127.246094" xlink:href="#DejaVuSans-48"/>
      </g>
     </g>
    </g>
    <g id="xtick_3">
     <g id="line2d_3">
      <g>
       <use style="stroke:#000000;stroke-width:0.8;" x="196.113159" xlink:href="#m5a9af9b232" y="307.584"/>
      </g>
     </g>
     <g id="text_3">
      <!-- 200 -->
      <defs>
       <path d="M 19.1875 8.296875 
L 53.609375 8.296875 
L 53.609375 0 
L 7.328125 0 
L 7.328125 8.296875 
Q 12.9375 14.109375 22.625 23.890625 
Q 32.328125 33.6875 34.8125 36.53125 
Q 39.546875 41.84375 41.421875 45.53125 
Q 43.3125 49.21875 43.3125 52.78125 
Q 43.3125 58.59375 39.234375 62.25 
Q 35.15625 65.921875 28.609375 65.921875 
Q 23.96875 65.921875 18.8125 64.3125 
Q 13.671875 62.703125 7.8125 59.421875 
L 7.8125 69.390625 
Q 13.765625 71.78125 18.9375 73 
Q 24.125 74.21875 28.421875 74.21875 
Q 39.75 74.21875 46.484375 68.546875 
Q 53.21875 62.890625 53.21875 53.421875 
Q 53.21875 48.921875 51.53125 44.890625 
Q 49.859375 40.875 45.40625 35.40625 
Q 44.1875 33.984375 37.640625 27.21875 
Q 31.109375 20.453125 19.1875 8.296875 
z
" id="DejaVuSans-50"/>
      </defs>
      <g transform="translate(186.569409 322.182437)scale(0.1 -0.1)">
       <use xlink:href="#DejaVuSans-50"/>
       <use x="63.623047" xlink:href="#DejaVuSans-48"/>
       <use x="127.246094" xlink:href="#DejaVuSans-48"/>
      </g>
     </g>
    </g>
    <g id="xtick_4">
     <g id="line2d_4">
      <g>
       <use style="stroke:#000000;stroke-width:0.8;" x="257.253374" xlink:href="#m5a9af9b232" y="307.584"/>
      </g>
     </g>
     <g id="text_4">
      <!-- 300 -->
      <defs>
       <path d="M 40.578125 39.3125 
Q 47.65625 37.796875 51.625 33 
Q 55.609375 28.21875 55.609375 21.1875 
Q 55.609375 10.40625 48.1875 4.484375 
Q 40.765625 -1.421875 27.09375 -1.421875 
Q 22.515625 -1.421875 17.65625 -0.515625 
Q 12.796875 0.390625 7.625 2.203125 
L 7.625 11.71875 
Q 11.71875 9.328125 16.59375 8.109375 
Q 21.484375 6.890625 26.8125 6.890625 
Q 36.078125 6.890625 40.9375 10.546875 
Q 45.796875 14.203125 45.796875 21.1875 
Q 45.796875 27.640625 41.28125 31.265625 
Q 36.765625 34.90625 28.71875 34.90625 
L 20.21875 34.90625 
L 20.21875 43.015625 
L 29.109375 43.015625 
Q 36.375 43.015625 40.234375 45.921875 
Q 44.09375 48.828125 44.09375 54.296875 
Q 44.09375 59.90625 40.109375 62.90625 
Q 36.140625 65.921875 28.71875 65.921875 
Q 24.65625 65.921875 20.015625 65.03125 
Q 15.375 64.15625 9.8125 62.3125 
L 9.8125 71.09375 
Q 15.4375 72.65625 20.34375 73.4375 
Q 25.25 74.21875 29.59375 74.21875 
Q 40.828125 74.21875 47.359375 69.109375 
Q 53.90625 64.015625 53.90625 55.328125 
Q 53.90625 49.265625 50.4375 45.09375 
Q 46.96875 40.921875 40.578125 39.3125 
z
" id="DejaVuSans-51"/>
      </defs>
      <g transform="translate(247.709624 322.182437)scale(0.1 -0.1)">
       <use xlink:href="#DejaVuSans-51"/>
       <use x="63.623047" xlink:href="#DejaVuSans-48"/>
       <use x="127.246094" xlink:href="#DejaVuSans-48"/>
      </g>
     </g>
    </g>
    <g id="xtick_5">
     <g id="line2d_5">
      <g>
       <use style="stroke:#000000;stroke-width:0.8;" x="318.39359" xlink:href="#m5a9af9b232" y="307.584"/>
      </g>
     </g>
     <g id="text_5">
      <!-- 400 -->
      <defs>
       <path d="M 37.796875 64.3125 
L 12.890625 25.390625 
L 37.796875 25.390625 
z
M 35.203125 72.90625 
L 47.609375 72.90625 
L 47.609375 25.390625 
L 58.015625 25.390625 
L 58.015625 17.1875 
L 47.609375 17.1875 
L 47.609375 0 
L 37.796875 0 
L 37.796875 17.1875 
L 4.890625 17.1875 
L 4.890625 26.703125 
z
" id="DejaVuSans-52"/>
      </defs>
      <g transform="translate(308.84984 322.182437)scale(0.1 -0.1)">
       <use xlink:href="#DejaVuSans-52"/>
       <use x="63.623047" xlink:href="#DejaVuSans-48"/>
       <use x="127.246094" xlink:href="#DejaVuSans-48"/>
      </g>
     </g>
    </g>
    <g id="xtick_6">
     <g id="line2d_6">
      <g>
       <use style="stroke:#000000;stroke-width:0.8;" x="379.533806" xlink:href="#m5a9af9b232" y="307.584"/>
      </g>
     </g>
     <g id="text_6">
      <!-- 500 -->
      <defs>
       <path d="M 10.796875 72.90625 
L 49.515625 72.90625 
L 49.515625 64.59375 
L 19.828125 64.59375 
L 19.828125 46.734375 
Q 21.96875 47.46875 24.109375 47.828125 
Q 26.265625 48.1875 28.421875 48.1875 
Q 40.625 48.1875 47.75 41.5 
Q 54.890625 34.8125 54.890625 23.390625 
Q 54.890625 11.625 47.5625 5.09375 
Q 40.234375 -1.421875 26.90625 -1.421875 
Q 22.3125 -1.421875 17.546875 -0.640625 
Q 12.796875 0.140625 7.71875 1.703125 
L 7.71875 11.625 
Q 12.109375 9.234375 16.796875 8.0625 
Q 21.484375 6.890625 26.703125 6.890625 
Q 35.15625 6.890625 40.078125 11.328125 
Q 45.015625 15.765625 45.015625 23.390625 
Q 45.015625 31 40.078125 35.4375 
Q 35.15625 39.890625 26.703125 39.890625 
Q 22.75 39.890625 18.8125 39.015625 
Q 14.890625 38.140625 10.796875 36.28125 
z
" id="DejaVuSans-53"/>
      </defs>
      <g transform="translate(369.990056 322.182437)scale(0.1 -0.1)">
       <use xlink:href="#DejaVuSans-53"/>
       <use x="63.623047" xlink:href="#DejaVuSans-48"/>
       <use x="127.246094" xlink:href="#DejaVuSans-48"/>
      </g>
     </g>
    </g>
    <g id="text_7">
     <!-- gene position -->
     <defs>
      <path d="M 45.40625 27.984375 
Q 45.40625 37.75 41.375 43.109375 
Q 37.359375 48.484375 30.078125 48.484375 
Q 22.859375 48.484375 18.828125 43.109375 
Q 14.796875 37.75 14.796875 27.984375 
Q 14.796875 18.265625 18.828125 12.890625 
Q 22.859375 7.515625 30.078125 7.515625 
Q 37.359375 7.515625 41.375 12.890625 
Q 45.40625 18.265625 45.40625 27.984375 
z
M 54.390625 6.78125 
Q 54.390625 -7.171875 48.1875 -13.984375 
Q 42 -20.796875 29.203125 -20.796875 
Q 24.46875 -20.796875 20.265625 -20.09375 
Q 16.0625 -19.390625 12.109375 -17.921875 
L 12.109375 -9.1875 
Q 16.0625 -11.328125 19.921875 -12.34375 
Q 23.78125 -13.375 27.78125 -13.375 
Q 36.625 -13.375 41.015625 -8.765625 
Q 45.40625 -4.15625 45.40625 5.171875 
L 45.40625 9.625 
Q 42.625 4.78125 38.28125 2.390625 
Q 33.9375 0 27.875 0 
Q 17.828125 0 11.671875 7.65625 
Q 5.515625 15.328125 5.515625 27.984375 
Q 5.515625 40.671875 11.671875 48.328125 
Q 17.828125 56 27.875 56 
Q 33.9375 56 38.28125 53.609375 
Q 42.625 51.21875 45.40625 46.390625 
L 45.40625 54.6875 
L 54.390625 54.6875 
z
" id="DejaVuSans-103"/>
      <path d="M 56.203125 29.59375 
L 56.203125 25.203125 
L 14.890625 25.203125 
Q 15.484375 15.921875 20.484375 11.0625 
Q 25.484375 6.203125 34.421875 6.203125 
Q 39.59375 6.203125 44.453125 7.46875 
Q 49.3125 8.734375 54.109375 11.28125 
L 54.109375 2.78125 
Q 49.265625 0.734375 44.1875 -0.34375 
Q 39.109375 -1.421875 33.890625 -1.421875 
Q 20.796875 -1.421875 13.15625 6.1875 
Q 5.515625 13.8125 5.515625 26.8125 
Q 5.515625 40.234375 12.765625 48.109375 
Q 20.015625 56 32.328125 56 
Q 43.359375 56 49.78125 48.890625 
Q 56.203125 41.796875 56.203125 29.59375 
z
M 47.21875 32.234375 
Q 47.125 39.59375 43.09375 43.984375 
Q 39.0625 48.390625 32.421875 48.390625 
Q 24.90625 48.390625 20.390625 44.140625 
Q 15.875 39.890625 15.1875 32.171875 
z
" id="DejaVuSans-101"/>
      <path d="M 54.890625 33.015625 
L 54.890625 0 
L 45.90625 0 
L 45.90625 32.71875 
Q 45.90625 40.484375 42.875 44.328125 
Q 39.84375 48.1875 33.796875 48.1875 
Q 26.515625 48.1875 22.3125 43.546875 
Q 18.109375 38.921875 18.109375 30.90625 
L 18.109375 0 
L 9.078125 0 
L 9.078125 54.6875 
L 18.109375 54.6875 
L 18.109375 46.1875 
Q 21.34375 51.125 25.703125 53.5625 
Q 30.078125 56 35.796875 56 
Q 45.21875 56 50.046875 50.171875 
Q 54.890625 44.34375 54.890625 33.015625 
z
" id="DejaVuSans-110"/>
      <path id="DejaVuSans-32"/>
      <path d="M 18.109375 8.203125 
L 18.109375 -20.796875 
L 9.078125 -20.796875 
L 9.078125 54.6875 
L 18.109375 54.6875 
L 18.109375 46.390625 
Q 20.953125 51.265625 25.265625 53.625 
Q 29.59375 56 35.59375 56 
Q 45.5625 56 51.78125 48.09375 
Q 58.015625 40.1875 58.015625 27.296875 
Q 58.015625 14.40625 51.78125 6.484375 
Q 45.5625 -1.421875 35.59375 -1.421875 
Q 29.59375 -1.421875 25.265625 0.953125 
Q 20.953125 3.328125 18.109375 8.203125 
z
M 48.6875 27.296875 
Q 48.6875 37.203125 44.609375 42.84375 
Q 40.53125 48.484375 33.40625 48.484375 
Q 26.265625 48.484375 22.1875 42.84375 
Q 18.109375 37.203125 18.109375 27.296875 
Q 18.109375 17.390625 22.1875 11.75 
Q 26.265625 6.109375 33.40625 6.109375 
Q 40.53125 6.109375 44.609375 11.75 
Q 48.6875 17.390625 48.6875 27.296875 
z
" id="DejaVuSans-112"/>
      <path d="M 30.609375 48.390625 
Q 23.390625 48.390625 19.1875 42.75 
Q 14.984375 37.109375 14.984375 27.296875 
Q 14.984375 17.484375 19.15625 11.84375 
Q 23.34375 6.203125 30.609375 6.203125 
Q 37.796875 6.203125 41.984375 11.859375 
Q 46.1875 17.53125 46.1875 27.296875 
Q 46.1875 37.015625 41.984375 42.703125 
Q 37.796875 48.390625 30.609375 48.390625 
z
M 30.609375 56 
Q 42.328125 56 49.015625 48.375 
Q 55.71875 40.765625 55.71875 27.296875 
Q 55.71875 13.875 49.015625 6.21875 
Q 42.328125 -1.421875 30.609375 -1.421875 
Q 18.84375 -1.421875 12.171875 6.21875 
Q 5.515625 13.875 5.515625 27.296875 
Q 5.515625 40.765625 12.171875 48.375 
Q 18.84375 56 30.609375 56 
z
" id="DejaVuSans-111"/>
      <path d="M 44.28125 53.078125 
L 44.28125 44.578125 
Q 40.484375 46.53125 36.375 47.5 
Q 32.28125 48.484375 27.875 48.484375 
Q 21.1875 48.484375 17.84375 46.4375 
Q 14.5 44.390625 14.5 40.28125 
Q 14.5 37.15625 16.890625 35.375 
Q 19.28125 33.59375 26.515625 31.984375 
L 29.59375 31.296875 
Q 39.15625 29.25 43.1875 25.515625 
Q 47.21875 21.78125 47.21875 15.09375 
Q 47.21875 7.46875 41.1875 3.015625 
Q 35.15625 -1.421875 24.609375 -1.421875 
Q 20.21875 -1.421875 15.453125 -0.5625 
Q 10.6875 0.296875 5.421875 2 
L 5.421875 11.28125 
Q 10.40625 8.6875 15.234375 7.390625 
Q 20.0625 6.109375 24.8125 6.109375 
Q 31.15625 6.109375 34.5625 8.28125 
Q 37.984375 10.453125 37.984375 14.40625 
Q 37.984375 18.0625 35.515625 20.015625 
Q 33.0625 21.96875 24.703125 23.78125 
L 21.578125 24.515625 
Q 13.234375 26.265625 9.515625 29.90625 
Q 5.8125 33.546875 5.8125 39.890625 
Q 5.8125 47.609375 11.28125 51.796875 
Q 16.75 56 26.8125 56 
Q 31.78125 56 36.171875 55.265625 
Q 40.578125 54.546875 44.28125 53.078125 
z
" id="DejaVuSans-115"/>
      <path d="M 9.421875 54.6875 
L 18.40625 54.6875 
L 18.40625 0 
L 9.421875 0 
z
M 9.421875 75.984375 
L 18.40625 75.984375 
L 18.40625 64.59375 
L 9.421875 64.59375 
z
" id="DejaVuSans-105"/>
      <path d="M 18.3125 70.21875 
L 18.3125 54.6875 
L 36.8125 54.6875 
L 36.8125 47.703125 
L 18.3125 47.703125 
L 18.3125 18.015625 
Q 18.3125 11.328125 20.140625 9.421875 
Q 21.96875 7.515625 27.59375 7.515625 
L 36.8125 7.515625 
L 36.8125 0 
L 27.59375 0 
Q 17.1875 0 13.234375 3.875 
Q 9.28125 7.765625 9.28125 18.015625 
L 9.28125 47.703125 
L 2.6875 47.703125 
L 2.6875 54.6875 
L 9.28125 54.6875 
L 9.28125 70.21875 
z
" id="DejaVuSans-116"/>
     </defs>
     <g transform="translate(202.270156 335.860562)scale(0.1 -0.1)">
      <use xlink:href="#DejaVuSans-103"/>
      <use x="63.476562" xlink:href="#DejaVuSans-101"/>
      <use x="125" xlink:href="#DejaVuSans-110"/>
      <use x="188.378906" xlink:href="#DejaVuSans-101"/>
      <use x="249.902344" xlink:href="#DejaVuSans-32"/>
      <use x="281.689453" xlink:href="#DejaVuSans-112"/>
      <use x="345.166016" xlink:href="#DejaVuSans-111"/>
      <use x="406.347656" xlink:href="#DejaVuSans-115"/>
      <use x="458.447266" xlink:href="#DejaVuSans-105"/>
      <use x="486.230469" xlink:href="#DejaVuSans-116"/>
      <use x="525.439453" xlink:href="#DejaVuSans-105"/>
      <use x="553.222656" xlink:href="#DejaVuSans-111"/>
      <use x="614.404297" xlink:href="#DejaVuSans-110"/>
     </g>
    </g>
   </g>
   <g id="matplotlib.axis_2">
    <g id="ytick_1">
     <g id="line2d_7">
      <defs>
       <path d="M 0 0 
L -3.5 0 
" id="m1765ffb091" style="stroke:#000000;stroke-width:0.8;"/>
      </defs>
      <g>
       <use style="stroke:#000000;stroke-width:0.8;" x="57.6" xlink:href="#m1765ffb091" y="307.584"/>
      </g>
     </g>
     <g id="text_8">
      <!-- 0 -->
      <g transform="translate(44.2375 311.383219)scale(0.1 -0.1)">
       <use xlink:href="#DejaVuSans-48"/>
      </g>
     </g>
    </g>
    <g id="ytick_2">
     <g id="line2d_8">
      <g>
       <use style="stroke:#000000;stroke-width:0.8;" x="57.6" xlink:href="#m1765ffb091" y="267.018146"/>
      </g>
     </g>
     <g id="text_9">
      <!-- 50 -->
      <g transform="translate(37.875 270.817365)scale(0.1 -0.1)">
       <use xlink:href="#DejaVuSans-53"/>
       <use x="63.623047" xlink:href="#DejaVuSans-48"/>
      </g>
     </g>
    </g>
    <g id="ytick_3">
     <g id="line2d_9">
      <g>
       <use style="stroke:#000000;stroke-width:0.8;" x="57.6" xlink:href="#m1765ffb091" y="226.452293"/>
      </g>
     </g>
     <g id="text_10">
      <!-- 100 -->
      <g transform="translate(31.5125 230.251511)scale(0.1 -0.1)">
       <use xlink:href="#DejaVuSans-49"/>
       <use x="63.623047" xlink:href="#DejaVuSans-48"/>
       <use x="127.246094" xlink:href="#DejaVuSans-48"/>
      </g>
     </g>
    </g>
    <g id="ytick_4">
     <g id="line2d_10">
      <g>
       <use style="stroke:#000000;stroke-width:0.8;" x="57.6" xlink:href="#m1765ffb091" y="185.886439"/>
      </g>
     </g>
     <g id="text_11">
      <!-- 150 -->
      <g transform="translate(31.5125 189.685658)scale(0.1 -0.1)">
       <use xlink:href="#DejaVuSans-49"/>
       <use x="63.623047" xlink:href="#DejaVuSans-53"/>
       <use x="127.246094" xlink:href="#DejaVuSans-48"/>
      </g>
     </g>
    </g>
    <g id="ytick_5">
     <g id="line2d_11">
      <g>
       <use style="stroke:#000000;stroke-width:0.8;" x="57.6" xlink:href="#m1765ffb091" y="145.320585"/>
      </g>
     </g>
     <g id="text_12">
      <!-- 200 -->
      <g transform="translate(31.5125 149.119804)scale(0.1 -0.1)">
       <use xlink:href="#DejaVuSans-50"/>
       <use x="63.623047" xlink:href="#DejaVuSans-48"/>
       <use x="127.246094" xlink:href="#DejaVuSans-48"/>
      </g>
     </g>
    </g>
    <g id="ytick_6">
     <g id="line2d_12">
      <g>
       <use style="stroke:#000000;stroke-width:0.8;" x="57.6" xlink:href="#m1765ffb091" y="104.754732"/>
      </g>
     </g>
     <g id="text_13">
      <!-- 250 -->
      <g transform="translate(31.5125 108.55395)scale(0.1 -0.1)">
       <use xlink:href="#DejaVuSans-50"/>
       <use x="63.623047" xlink:href="#DejaVuSans-53"/>
       <use x="127.246094" xlink:href="#DejaVuSans-48"/>
      </g>
     </g>
    </g>
    <g id="ytick_7">
     <g id="line2d_13">
      <g>
       <use style="stroke:#000000;stroke-width:0.8;" x="57.6" xlink:href="#m1765ffb091" y="64.188878"/>
      </g>
     </g>
     <g id="text_14">
      <!-- 300 -->
      <g transform="translate(31.5125 67.988097)scale(0.1 -0.1)">
       <use xlink:href="#DejaVuSans-51"/>
       <use x="63.623047" xlink:href="#DejaVuSans-48"/>
       <use x="127.246094" xlink:href="#DejaVuSans-48"/>
      </g>
     </g>
    </g>
    <g id="text_15">
     <!-- depth -->
     <defs>
      <path d="M 45.40625 46.390625 
L 45.40625 75.984375 
L 54.390625 75.984375 
L 54.390625 0 
L 45.40625 0 
L 45.40625 8.203125 
Q 42.578125 3.328125 38.25 0.953125 
Q 33.9375 -1.421875 27.875 -1.421875 
Q 17.96875 -1.421875 11.734375 6.484375 
Q 5.515625 14.40625 5.515625 27.296875 
Q 5.515625 40.1875 11.734375 48.09375 
Q 17.96875 56 27.875 56 
Q 33.9375 56 38.25 53.625 
Q 42.578125 51.265625 45.40625 46.390625 
z
M 14.796875 27.296875 
Q 14.796875 17.390625 18.875 11.75 
Q 22.953125 6.109375 30.078125 6.109375 
Q 37.203125 6.109375 41.296875 11.75 
Q 45.40625 17.390625 45.40625 27.296875 
Q 45.40625 37.203125 41.296875 42.84375 
Q 37.203125 48.484375 30.078125 48.484375 
Q 22.953125 48.484375 18.875 42.84375 
Q 14.796875 37.203125 14.796875 27.296875 
z
" id="DejaVuSans-100"/>
      <path d="M 54.890625 33.015625 
L 54.890625 0 
L 45.90625 0 
L 45.90625 32.71875 
Q 45.90625 40.484375 42.875 44.328125 
Q 39.84375 48.1875 33.796875 48.1875 
Q 26.515625 48.1875 22.3125 43.546875 
Q 18.109375 38.921875 18.109375 30.90625 
L 18.109375 0 
L 9.078125 0 
L 9.078125 75.984375 
L 18.109375 75.984375 
L 18.109375 46.1875 
Q 21.34375 51.125 25.703125 53.5625 
Q 30.078125 56 35.796875 56 
Q 45.21875 56 50.046875 50.171875 
Q 54.890625 44.34375 54.890625 33.015625 
z
" id="DejaVuSans-104"/>
     </defs>
     <g transform="translate(25.432812 189.081906)rotate(-90)scale(0.1 -0.1)">
      <use xlink:href="#DejaVuSans-100"/>
      <use x="63.476562" xlink:href="#DejaVuSans-101"/>
      <use x="125" xlink:href="#DejaVuSans-112"/>
      <use x="188.476562" xlink:href="#DejaVuSans-116"/>
      <use x="227.685547" xlink:href="#DejaVuSans-104"/>
     </g>
    </g>
   </g>
   <g id="line2d_14">
    <path clip-path="url(#pf37b90bb06)" d="M 73.832727 292.168976 
L 74.445283 291.357659 
L 75.670395 291.357659 
L 76.28295 290.546341 
L 77.508062 290.546341 
L 78.120617 289.735024 
L 78.733173 290.546341 
L 79.958285 290.546341 
L 81.183396 288.923707 
L 81.795952 288.923707 
L 82.408508 287.301073 
L 83.021063 284.867122 
L 83.633619 284.867122 
L 84.246175 284.055805 
L 85.471286 284.055805 
L 86.083842 282.433171 
L 86.696398 281.621854 
L 87.308954 281.621854 
L 87.921509 280.810537 
L 88.534065 281.621854 
L 89.146621 281.621854 
L 89.759177 280.810537 
L 90.371732 279.187902 
L 92.821955 279.187902 
L 93.434511 278.376585 
L 94.659623 278.376585 
L 95.272178 277.565268 
L 96.49729 277.565268 
L 97.109846 275.131317 
L 98.334957 275.131317 
L 98.947513 273.508683 
L 100.172624 271.886049 
L 100.78518 273.508683 
L 101.397736 272.697366 
L 102.622847 272.697366 
L 103.235403 274.32 
L 103.847959 274.32 
L 104.460515 275.131317 
L 106.298182 275.131317 
L 106.910738 275.942634 
L 107.523293 275.942634 
L 108.135849 275.131317 
L 108.748405 275.942634 
L 109.360961 274.32 
L 110.586072 274.32 
L 111.198628 272.697366 
L 111.811184 271.886049 
L 112.423739 272.697366 
L 113.036295 271.886049 
L 116.099074 271.886049 
L 116.71163 275.131317 
L 117.324185 274.32 
L 117.936741 275.131317 
L 118.549297 274.32 
L 119.161852 272.697366 
L 120.386964 274.32 
L 123.449743 274.32 
L 124.062298 273.508683 
L 124.674854 273.508683 
L 125.28741 272.697366 
L 126.512521 272.697366 
L 127.125077 274.32 
L 128.350189 272.697366 
L 128.962744 273.508683 
L 130.800412 271.074732 
L 132.638079 271.074732 
L 133.86319 274.32 
L 134.475746 274.32 
L 135.088302 275.131317 
L 135.700858 274.32 
L 136.313413 274.32 
L 136.925969 276.753951 
L 138.151081 276.753951 
L 138.763636 277.565268 
L 139.988748 277.565268 
L 141.213859 279.187902 
L 142.438971 279.187902 
L 143.051527 278.376585 
L 143.664082 278.376585 
L 144.276638 279.187902 
L 144.889194 279.187902 
L 145.50175 278.376585 
L 147.339417 278.376585 
L 147.951973 280.810537 
L 148.564528 279.99922 
L 149.177084 278.376585 
L 149.78964 279.99922 
L 150.402196 279.99922 
L 151.014751 279.187902 
L 151.627307 279.187902 
L 152.239863 279.99922 
L 152.852419 279.187902 
L 155.915197 279.187902 
L 157.140309 280.810537 
L 158.36542 280.810537 
L 158.977976 281.621854 
L 159.590532 280.810537 
L 160.203087 281.621854 
L 160.815643 281.621854 
L 161.428199 280.810537 
L 162.040755 282.433171 
L 163.265866 282.433171 
L 163.878422 283.244488 
L 164.490978 283.244488 
L 165.716089 281.621854 
L 166.328645 281.621854 
L 167.553756 279.99922 
L 168.166312 280.810537 
L 168.778868 279.99922 
L 170.616535 282.433171 
L 171.229091 281.621854 
L 171.841647 281.621854 
L 172.454202 282.433171 
L 174.904425 282.433171 
L 175.516981 281.621854 
L 176.129537 281.621854 
L 176.742093 280.810537 
L 177.354648 279.187902 
L 177.967204 279.187902 
L 178.57976 279.99922 
L 179.192316 278.376585 
L 180.417427 278.376585 
L 181.029983 279.187902 
L 181.642539 279.187902 
L 182.255094 278.376585 
L 182.86765 279.99922 
L 184.092762 278.376585 
L 185.930429 278.376585 
L 186.542985 279.187902 
L 187.768096 279.187902 
L 188.380652 279.99922 
L 192.055986 279.99922 
L 193.281098 281.621854 
L 193.893654 281.621854 
L 195.118765 279.99922 
L 196.343877 279.99922 
L 196.956432 280.810537 
L 198.794099 280.810537 
L 199.406655 281.621854 
L 200.019211 281.621854 
L 200.631767 279.99922 
L 201.244322 279.99922 
L 201.856878 280.810537 
L 204.919657 280.810537 
L 205.532213 279.99922 
L 206.144768 278.376585 
L 209.207547 278.376585 
L 209.820103 277.565268 
L 210.432659 278.376585 
L 211.045214 278.376585 
L 211.65777 276.753951 
L 212.270326 277.565268 
L 213.495437 277.565268 
L 214.107993 275.942634 
L 214.720549 275.942634 
L 215.333105 275.131317 
L 216.558216 275.131317 
L 217.783328 276.753951 
L 218.395883 276.753951 
L 219.008439 277.565268 
L 219.620995 279.187902 
L 220.233551 279.187902 
L 220.846106 278.376585 
L 222.071218 278.376585 
L 222.683774 275.942634 
L 223.296329 276.753951 
L 223.908885 275.942634 
L 224.521441 276.753951 
L 225.746552 276.753951 
L 226.359108 277.565268 
L 226.971664 279.187902 
L 227.58422 279.187902 
L 228.196775 279.99922 
L 229.421887 279.99922 
L 230.034443 282.433171 
L 231.259554 280.810537 
L 231.87211 279.187902 
L 232.484666 278.376585 
L 233.097221 279.187902 
L 234.322333 279.187902 
L 234.934889 279.99922 
L 235.547444 279.99922 
L 236.16 279.187902 
L 238.610223 279.187902 
L 239.835334 277.565268 
L 241.060446 277.565268 
L 241.673002 275.942634 
L 245.348336 275.942634 
L 245.960892 277.565268 
L 246.573448 275.942634 
L 247.186003 275.131317 
L 247.798559 273.508683 
L 248.411115 272.697366 
L 249.023671 271.074732 
L 249.636226 271.074732 
L 250.248782 270.263415 
L 250.861338 270.263415 
L 251.473894 271.886049 
L 252.086449 274.32 
L 253.924117 274.32 
L 254.536672 273.508683 
L 255.149228 273.508683 
L 255.761784 275.131317 
L 256.986895 275.131317 
L 257.599451 274.32 
L 260.049674 274.32 
L 260.66223 275.131317 
L 261.274786 275.131317 
L 261.887341 275.942634 
L 262.499897 275.942634 
L 263.112453 276.753951 
L 264.337564 276.753951 
L 264.95012 278.376585 
L 265.562676 278.376585 
L 266.175232 279.187902 
L 266.787787 278.376585 
L 267.400343 276.753951 
L 268.012899 276.753951 
L 268.625455 275.942634 
L 269.23801 276.753951 
L 269.850566 276.753951 
L 270.463122 275.942634 
L 271.075678 275.942634 
L 271.688233 276.753951 
L 272.300789 275.942634 
L 272.913345 276.753951 
L 273.525901 278.376585 
L 274.138456 276.753951 
L 275.976123 276.753951 
L 276.588679 275.131317 
L 277.201235 274.32 
L 279.038902 274.32 
L 279.651458 275.131317 
L 280.876569 275.131317 
L 281.489125 275.942634 
L 282.101681 275.942634 
L 282.714237 277.565268 
L 285.777015 277.565268 
L 286.389571 276.753951 
L 287.614683 276.753951 
L 288.227238 275.942634 
L 288.839794 275.942634 
L 289.45235 274.32 
L 290.064906 274.32 
L 290.677461 275.131317 
L 291.290017 274.32 
L 291.902573 274.32 
L 292.515129 275.131317 
L 293.127684 275.131317 
L 293.74024 273.508683 
L 294.965352 273.508683 
L 295.577907 274.32 
L 296.190463 274.32 
L 296.803019 273.508683 
L 299.253242 276.753951 
L 299.865798 278.376585 
L 301.090909 278.376585 
L 301.703465 279.187902 
L 303.541132 279.187902 
L 304.766244 277.565268 
L 305.378799 278.376585 
L 306.603911 278.376585 
L 307.216467 276.753951 
L 307.829022 277.565268 
L 308.441578 279.187902 
L 309.66669 280.810537 
L 310.279245 279.99922 
L 310.891801 279.99922 
L 311.504357 280.810537 
L 312.729468 280.810537 
L 313.342024 281.621854 
L 313.95458 281.621854 
L 314.567136 280.810537 
L 315.792247 280.810537 
L 316.404803 281.621854 
L 317.017358 279.99922 
L 317.629914 279.99922 
L 318.24247 280.810537 
L 319.467581 280.810537 
L 320.080137 278.376585 
L 320.692693 278.376585 
L 321.305249 279.187902 
L 322.53036 279.187902 
L 323.142916 280.810537 
L 323.755472 279.99922 
L 324.368027 281.621854 
L 324.980583 282.433171 
L 326.81825 282.433171 
L 328.043362 284.055805 
L 328.655918 283.244488 
L 329.268473 284.055805 
L 329.881029 283.244488 
L 330.493585 283.244488 
L 331.106141 282.433171 
L 331.718696 282.433171 
L 332.943808 280.810537 
L 333.556364 280.810537 
L 334.168919 281.621854 
L 336.619142 281.621854 
L 337.231698 279.99922 
L 337.844254 280.810537 
L 338.45681 279.187902 
L 339.681921 279.187902 
L 340.294477 279.99922 
L 342.132144 279.99922 
L 342.7447 278.376585 
L 343.357256 279.187902 
L 343.969811 237.810732 
L 344.582367 142.886634 
L 345.194923 144.509268 
L 345.807479 144.509268 
L 346.420034 143.697951 
L 347.03259 140.452683 
L 347.645146 134.773463 
L 348.257702 134.773463 
L 348.870257 131.528195 
L 349.482813 129.094244 
L 350.095369 127.47161 
L 351.32048 115.301854 
L 351.933036 112.056585 
L 352.545592 121.79239 
L 353.158148 121.79239 
L 353.770703 120.169756 
L 354.383259 116.113171 
L 354.995815 113.67922 
L 355.60837 112.056585 
L 356.220926 108.811317 
L 356.833482 99.075512 
L 357.446038 98.264195 
L 358.058593 99.075512 
L 358.671149 98.264195 
L 359.283705 95.830244 
L 359.896261 95.018927 
L 360.508816 95.018927 
L 362.346484 90.151024 
L 362.959039 87.717073 
L 363.571595 86.094439 
L 364.184151 65.000195 
L 364.796707 61.754927 
L 365.409262 59.320976 
L 366.021818 57.698341 
L 366.634374 54.453073 
L 367.24693 52.830439 
L 367.859485 53.641756 
L 368.472041 50.396488 
L 369.697153 42.283317 
L 370.309708 41.472 
L 370.922264 43.094634 
L 371.53482 46.339902 
L 372.147376 47.962537 
L 372.759931 47.15122 
L 373.372487 43.094634 
L 373.985043 44.717268 
L 374.597599 47.15122 
L 375.82271 55.26439 
L 376.435266 58.509659 
L 377.047822 65.811512 
L 377.660377 69.05678 
L 378.272933 70.679415 
L 378.885489 74.736 
L 379.498045 77.981268 
L 380.723156 81.226537 
L 381.335712 83.660488 
L 381.948268 87.717073 
L 382.560823 89.339707 
L 383.173379 93.396293 
L 383.785935 95.830244 
L 384.398491 96.641561 
L 385.011046 98.264195 
L 385.623602 100.698146 
L 386.848714 109.622634 
L 387.461269 120.169756 
L 388.073825 122.603707 
L 388.686381 124.226341 
L 389.298937 127.47161 
L 389.911492 129.905561 
L 390.524048 136.396098 
L 391.74916 153.433756 
L 392.974271 161.546927 
L 394.199383 176.961951 
L 395.424494 183.452488 
L 396.03705 184.263805 
L 396.649605 184.263805 
L 397.262161 185.075122 
L 397.874717 187.509073 
L 398.487273 191.565659 
L 398.487273 191.565659 
" style="fill:none;stroke:#0000ff;stroke-linecap:square;stroke-width:1.5;"/>
   </g>
   <g id="patch_3">
    <path d="M 57.6 307.584 
L 57.6 41.472 
" style="fill:none;stroke:#000000;stroke-linecap:square;stroke-linejoin:miter;stroke-width:0.8;"/>
   </g>
   <g id="patch_4">
    <path d="M 414.72 307.584 
L 414.72 41.472 
" style="fill:none;stroke:#000000;stroke-linecap:square;stroke-linejoin:miter;stroke-width:0.8;"/>
   </g>
   <g id="patch_5">
    <path d="M 57.6 307.584 
L 414.72 307.584 
" style="fill:none;stroke:#000000;stroke-linecap:square;stroke-linejoin:miter;stroke-width:0.8;"/>
   </g>
   <g id="patch_6">
    <path d="M 57.6 41.472 
L 414.72 41.472 
" style="fill:none;stroke:#000000;stroke-linecap:square;stroke-linejoin:miter;stroke-width:0.8;"/>
   </g>
   <g id="text_16">
    <!-- &gt;catB4_1_EU935739 Phenicol resistance: -->
    <defs>
     <path d="M 10.59375 49.21875 
L 10.59375 58.109375 
L 73.1875 35.40625 
L 73.1875 27.296875 
L 10.59375 4.59375 
L 10.59375 13.484375 
L 60.890625 31.296875 
z
" id="DejaVuSans-62"/>
     <path d="M 48.78125 52.59375 
L 48.78125 44.1875 
Q 44.96875 46.296875 41.140625 47.34375 
Q 37.3125 48.390625 33.40625 48.390625 
Q 24.65625 48.390625 19.8125 42.84375 
Q 14.984375 37.3125 14.984375 27.296875 
Q 14.984375 17.28125 19.8125 11.734375 
Q 24.65625 6.203125 33.40625 6.203125 
Q 37.3125 6.203125 41.140625 7.25 
Q 44.96875 8.296875 48.78125 10.40625 
L 48.78125 2.09375 
Q 45.015625 0.34375 40.984375 -0.53125 
Q 36.96875 -1.421875 32.421875 -1.421875 
Q 20.0625 -1.421875 12.78125 6.34375 
Q 5.515625 14.109375 5.515625 27.296875 
Q 5.515625 40.671875 12.859375 48.328125 
Q 20.21875 56 33.015625 56 
Q 37.15625 56 41.109375 55.140625 
Q 45.0625 54.296875 48.78125 52.59375 
z
" id="DejaVuSans-99"/>
     <path d="M 34.28125 27.484375 
Q 23.390625 27.484375 19.1875 25 
Q 14.984375 22.515625 14.984375 16.5 
Q 14.984375 11.71875 18.140625 8.90625 
Q 21.296875 6.109375 26.703125 6.109375 
Q 34.1875 6.109375 38.703125 11.40625 
Q 43.21875 16.703125 43.21875 25.484375 
L 43.21875 27.484375 
z
M 52.203125 31.203125 
L 52.203125 0 
L 43.21875 0 
L 43.21875 8.296875 
Q 40.140625 3.328125 35.546875 0.953125 
Q 30.953125 -1.421875 24.3125 -1.421875 
Q 15.921875 -1.421875 10.953125 3.296875 
Q 6 8.015625 6 15.921875 
Q 6 25.140625 12.171875 29.828125 
Q 18.359375 34.515625 30.609375 34.515625 
L 43.21875 34.515625 
L 43.21875 35.40625 
Q 43.21875 41.609375 39.140625 45 
Q 35.0625 48.390625 27.6875 48.390625 
Q 23 48.390625 18.546875 47.265625 
Q 14.109375 46.140625 10.015625 43.890625 
L 10.015625 52.203125 
Q 14.9375 54.109375 19.578125 55.046875 
Q 24.21875 56 28.609375 56 
Q 40.484375 56 46.34375 49.84375 
Q 52.203125 43.703125 52.203125 31.203125 
z
" id="DejaVuSans-97"/>
     <path d="M 19.671875 34.8125 
L 19.671875 8.109375 
L 35.5 8.109375 
Q 43.453125 8.109375 47.28125 11.40625 
Q 51.125 14.703125 51.125 21.484375 
Q 51.125 28.328125 47.28125 31.5625 
Q 43.453125 34.8125 35.5 34.8125 
z
M 19.671875 64.796875 
L 19.671875 42.828125 
L 34.28125 42.828125 
Q 41.5 42.828125 45.03125 45.53125 
Q 48.578125 48.25 48.578125 53.8125 
Q 48.578125 59.328125 45.03125 62.0625 
Q 41.5 64.796875 34.28125 64.796875 
z
M 9.8125 72.90625 
L 35.015625 72.90625 
Q 46.296875 72.90625 52.390625 68.21875 
Q 58.5 63.53125 58.5 54.890625 
Q 58.5 48.1875 55.375 44.234375 
Q 52.25 40.28125 46.1875 39.3125 
Q 53.46875 37.75 57.5 32.78125 
Q 61.53125 27.828125 61.53125 20.40625 
Q 61.53125 10.640625 54.890625 5.3125 
Q 48.25 0 35.984375 0 
L 9.8125 0 
z
" id="DejaVuSans-66"/>
     <path d="M 50.984375 -16.609375 
L 50.984375 -23.578125 
L -0.984375 -23.578125 
L -0.984375 -16.609375 
z
" id="DejaVuSans-95"/>
     <path d="M 9.8125 72.90625 
L 55.90625 72.90625 
L 55.90625 64.59375 
L 19.671875 64.59375 
L 19.671875 43.015625 
L 54.390625 43.015625 
L 54.390625 34.71875 
L 19.671875 34.71875 
L 19.671875 8.296875 
L 56.78125 8.296875 
L 56.78125 0 
L 9.8125 0 
z
" id="DejaVuSans-69"/>
     <path d="M 8.6875 72.90625 
L 18.609375 72.90625 
L 18.609375 28.609375 
Q 18.609375 16.890625 22.84375 11.734375 
Q 27.09375 6.59375 36.625 6.59375 
Q 46.09375 6.59375 50.34375 11.734375 
Q 54.59375 16.890625 54.59375 28.609375 
L 54.59375 72.90625 
L 64.5 72.90625 
L 64.5 27.390625 
Q 64.5 13.140625 57.4375 5.859375 
Q 50.390625 -1.421875 36.625 -1.421875 
Q 22.796875 -1.421875 15.734375 5.859375 
Q 8.6875 13.140625 8.6875 27.390625 
z
" id="DejaVuSans-85"/>
     <path d="M 10.984375 1.515625 
L 10.984375 10.5 
Q 14.703125 8.734375 18.5 7.8125 
Q 22.3125 6.890625 25.984375 6.890625 
Q 35.75 6.890625 40.890625 13.453125 
Q 46.046875 20.015625 46.78125 33.40625 
Q 43.953125 29.203125 39.59375 26.953125 
Q 35.25 24.703125 29.984375 24.703125 
Q 19.046875 24.703125 12.671875 31.3125 
Q 6.296875 37.9375 6.296875 49.421875 
Q 6.296875 60.640625 12.9375 67.421875 
Q 19.578125 74.21875 30.609375 74.21875 
Q 43.265625 74.21875 49.921875 64.515625 
Q 56.59375 54.828125 56.59375 36.375 
Q 56.59375 19.140625 48.40625 8.859375 
Q 40.234375 -1.421875 26.421875 -1.421875 
Q 22.703125 -1.421875 18.890625 -0.6875 
Q 15.09375 0.046875 10.984375 1.515625 
z
M 30.609375 32.421875 
Q 37.25 32.421875 41.125 36.953125 
Q 45.015625 41.5 45.015625 49.421875 
Q 45.015625 57.28125 41.125 61.84375 
Q 37.25 66.40625 30.609375 66.40625 
Q 23.96875 66.40625 20.09375 61.84375 
Q 16.21875 57.28125 16.21875 49.421875 
Q 16.21875 41.5 20.09375 36.953125 
Q 23.96875 32.421875 30.609375 32.421875 
z
" id="DejaVuSans-57"/>
     <path d="M 8.203125 72.90625 
L 55.078125 72.90625 
L 55.078125 68.703125 
L 28.609375 0 
L 18.3125 0 
L 43.21875 64.59375 
L 8.203125 64.59375 
z
" id="DejaVuSans-55"/>
     <path d="M 19.671875 64.796875 
L 19.671875 37.40625 
L 32.078125 37.40625 
Q 38.96875 37.40625 42.71875 40.96875 
Q 46.484375 44.53125 46.484375 51.125 
Q 46.484375 57.671875 42.71875 61.234375 
Q 38.96875 64.796875 32.078125 64.796875 
z
M 9.8125 72.90625 
L 32.078125 72.90625 
Q 44.34375 72.90625 50.609375 67.359375 
Q 56.890625 61.8125 56.890625 51.125 
Q 56.890625 40.328125 50.609375 34.8125 
Q 44.34375 29.296875 32.078125 29.296875 
L 19.671875 29.296875 
L 19.671875 0 
L 9.8125 0 
z
" id="DejaVuSans-80"/>
     <path d="M 9.421875 75.984375 
L 18.40625 75.984375 
L 18.40625 0 
L 9.421875 0 
z
" id="DejaVuSans-108"/>
     <path d="M 41.109375 46.296875 
Q 39.59375 47.171875 37.8125 47.578125 
Q 36.03125 48 33.890625 48 
Q 26.265625 48 22.1875 43.046875 
Q 18.109375 38.09375 18.109375 28.8125 
L 18.109375 0 
L 9.078125 0 
L 9.078125 54.6875 
L 18.109375 54.6875 
L 18.109375 46.1875 
Q 20.953125 51.171875 25.484375 53.578125 
Q 30.03125 56 36.53125 56 
Q 37.453125 56 38.578125 55.875 
Q 39.703125 55.765625 41.0625 55.515625 
z
" id="DejaVuSans-114"/>
     <path d="M 11.71875 12.40625 
L 22.015625 12.40625 
L 22.015625 0 
L 11.71875 0 
z
M 11.71875 51.703125 
L 22.015625 51.703125 
L 22.015625 39.3125 
L 11.71875 39.3125 
z
" id="DejaVuSans-58"/>
    </defs>
    <g transform="translate(111.014062 35.472)scale(0.12 -0.12)">
     <use xlink:href="#DejaVuSans-62"/>
     <use x="83.789062" xlink:href="#DejaVuSans-99"/>
     <use x="138.769531" xlink:href="#DejaVuSans-97"/>
     <use x="200.048828" xlink:href="#DejaVuSans-116"/>
     <use x="239.257812" xlink:href="#DejaVuSans-66"/>
     <use x="307.861328" xlink:href="#DejaVuSans-52"/>
     <use x="371.484375" xlink:href="#DejaVuSans-95"/>
     <use x="421.484375" xlink:href="#DejaVuSans-49"/>
     <use x="485.107422" xlink:href="#DejaVuSans-95"/>
     <use x="535.107422" xlink:href="#DejaVuSans-69"/>
     <use x="598.291016" xlink:href="#DejaVuSans-85"/>
     <use x="671.484375" xlink:href="#DejaVuSans-57"/>
     <use x="735.107422" xlink:href="#DejaVuSans-51"/>
     <use x="798.730469" xlink:href="#DejaVuSans-53"/>
     <use x="862.353516" xlink:href="#DejaVuSans-55"/>
     <use x="925.976562" xlink:href="#DejaVuSans-51"/>
     <use x="989.599609" xlink:href="#DejaVuSans-57"/>
     <use x="1053.222656" xlink:href="#DejaVuSans-32"/>
     <use x="1085.009766" xlink:href="#DejaVuSans-80"/>
     <use x="1145.3125" xlink:href="#DejaVuSans-104"/>
     <use x="1208.691406" xlink:href="#DejaVuSans-101"/>
     <use x="1270.214844" xlink:href="#DejaVuSans-110"/>
     <use x="1333.59375" xlink:href="#DejaVuSans-105"/>
     <use x="1361.376953" xlink:href="#DejaVuSans-99"/>
     <use x="1416.357422" xlink:href="#DejaVuSans-111"/>
     <use x="1477.539062" xlink:href="#DejaVuSans-108"/>
     <use x="1505.322266" xlink:href="#DejaVuSans-32"/>
     <use x="1537.109375" xlink:href="#DejaVuSans-114"/>
     <use x="1578.191406" xlink:href="#DejaVuSans-101"/>
     <use x="1639.714844" xlink:href="#DejaVuSans-115"/>
     <use x="1691.814453" xlink:href="#DejaVuSans-105"/>
     <use x="1719.597656" xlink:href="#DejaVuSans-115"/>
     <use x="1771.697266" xlink:href="#DejaVuSans-116"/>
     <use x="1810.90625" xlink:href="#DejaVuSans-97"/>
     <use x="1872.185547" xlink:href="#DejaVuSans-110"/>
     <use x="1935.564453" xlink:href="#DejaVuSans-99"/>
     <use x="1990.544922" xlink:href="#DejaVuSans-101"/>
     <use x="2052.068359" xlink:href="#DejaVuSans-58"/>
    </g>
   </g>
  </g>
 </g>
 <defs>
  <clipPath id="pf37b90bb06">
   <rect height="266.112" width="357.12" x="57.6" y="41.472"/>
  </clipPath>
 </defs>
</svg>
